%FSLAX45Y45*%
G04 Gerber Fmt 4.5, Leading zero omitted, Abs format (unit mm)*
G04 Created by KiCad (PCBNEW (6.0.5)) date 2023-02-13 01:00:58*
%MOMM*%
%LPD*%
G01*
G04 APERTURE LIST*
%TA.AperFunction,Profile*%
%ADD10C,0.100000*%
%TD*%
%ADD11C,0.200000*%
%ADD12C,0.030000*%
%ADD13C,0.040000*%
%ADD14C,0.100000*%
%ADD15C,0.120000*%
%ADD16C,0.172720*%
%ADD17C,0.320000*%
%ADD18C,0.210000*%
G04 APERTURE END LIST*
D10*
X1526540Y-10922000D02*
X13205460Y-10922000D01*
X6858004Y-2411730D02*
G75*
G03*
X6729832Y-2286000I-127264J-1540D01*
G01*
X8507099Y-2285996D02*
G75*
G03*
X8382000Y-2412626I-369J-124744D01*
G01*
X6857999Y-2668637D02*
G75*
G03*
X6985000Y-2794000I123791J-1603D01*
G01*
X6985000Y-2794000D02*
X8255000Y-2794000D01*
X1524000Y-2285999D02*
G75*
G03*
X1270000Y-2539265I-1461J-252536D01*
G01*
X13205460Y-10921999D02*
G75*
G03*
X13462000Y-10662920I3760J252829D01*
G01*
X1270000Y-2539265D02*
X1269956Y-10665460D01*
X13462000Y-10662920D02*
X13462000Y-2539435D01*
X6729832Y-2286000D02*
X1524000Y-2286000D01*
X8255000Y-2793999D02*
G75*
G03*
X8382000Y-2668637I3190J123779D01*
G01*
X8382000Y-2668637D02*
X8382000Y-2412626D01*
X13461996Y-2539435D02*
G75*
G03*
X13210540Y-2286000I-251926J1505D01*
G01*
X6858000Y-2411730D02*
X6858000Y-2668637D01*
X1269959Y-10665460D02*
G75*
G03*
X1526540Y-10922000I252011J-4530D01*
G01*
X8507099Y-2286000D02*
X13210540Y-2286000D01*
D11*
D12*
X2455480Y-7912340D02*
X2485480Y-7942340D01*
X2485480Y-7912340D02*
X2455480Y-7942340D01*
X2474200Y-7097000D02*
X2504200Y-7127000D01*
X2504200Y-7097000D02*
X2474200Y-7127000D01*
X2728200Y-9103600D02*
X2758200Y-9133600D01*
X2758200Y-9103600D02*
X2728200Y-9133600D01*
X2729800Y-8212060D02*
X2759800Y-8242060D01*
X2759800Y-8212060D02*
X2729800Y-8242060D01*
X2732340Y-9263620D02*
X2762340Y-9293620D01*
X2762340Y-9263620D02*
X2732340Y-9293620D01*
X2776460Y-6835380D02*
X2806460Y-6865380D01*
X2806460Y-6835380D02*
X2776460Y-6865380D01*
X2816160Y-7145260D02*
X2846160Y-7175260D01*
X2846160Y-7145260D02*
X2816160Y-7175260D01*
X2841560Y-6700760D02*
X2871560Y-6730760D01*
X2871560Y-6700760D02*
X2841560Y-6730760D01*
X2920300Y-8755620D02*
X2950300Y-8785620D01*
X2950300Y-8755620D02*
X2920300Y-8785620D01*
X2948240Y-7808200D02*
X2978240Y-7838200D01*
X2978240Y-7808200D02*
X2948240Y-7838200D01*
X3065080Y-9273780D02*
X3095080Y-9303780D01*
X3095080Y-9273780D02*
X3065080Y-9303780D01*
X3076180Y-7307820D02*
X3106180Y-7337820D01*
X3106180Y-7307820D02*
X3076180Y-7337820D01*
X3312400Y-9756380D02*
X3342400Y-9786380D01*
X3342400Y-9756380D02*
X3312400Y-9786380D01*
X3316540Y-7937740D02*
X3346540Y-7967740D01*
X3346540Y-7937740D02*
X3316540Y-7967740D01*
X3332720Y-7803120D02*
X3362720Y-7833120D01*
X3362720Y-7803120D02*
X3332720Y-7833120D01*
X3441000Y-8918180D02*
X3471000Y-8948180D01*
X3471000Y-8918180D02*
X3441000Y-8948180D01*
X3990580Y-6017500D02*
X4020580Y-6047500D01*
X4020580Y-6017500D02*
X3990580Y-6047500D01*
X3995660Y-6601700D02*
X4025660Y-6631700D01*
X4025660Y-6601700D02*
X3995660Y-6631700D01*
X4102340Y-6007340D02*
X4132340Y-6037340D01*
X4132340Y-6007340D02*
X4102340Y-6037340D01*
X4209020Y-6012420D02*
X4239020Y-6042420D01*
X4239020Y-6012420D02*
X4209020Y-6042420D01*
X4310620Y-5362180D02*
X4340620Y-5392180D01*
X4340620Y-5362180D02*
X4310620Y-5392180D01*
X4350360Y-8886800D02*
X4380360Y-8916800D01*
X4380360Y-8886800D02*
X4350360Y-8916800D01*
X4437620Y-6444220D02*
X4467620Y-6474220D01*
X4467620Y-6444220D02*
X4437620Y-6474220D01*
X4438520Y-8886800D02*
X4468520Y-8916800D01*
X4468520Y-8886800D02*
X4438520Y-8916800D01*
X4445240Y-5837160D02*
X4475240Y-5867160D01*
X4475240Y-5837160D02*
X4445240Y-5867160D01*
X4490850Y-5255500D02*
X4520850Y-5285500D01*
X4520850Y-5255500D02*
X4490850Y-5285500D01*
X4498580Y-5750800D02*
X4528580Y-5780800D01*
X4528580Y-5750800D02*
X4498580Y-5780800D01*
X4539220Y-7046200D02*
X4569220Y-7076200D01*
X4569220Y-7046200D02*
X4539220Y-7076200D01*
X4653520Y-6871050D02*
X4683520Y-6901050D01*
X4683520Y-6871050D02*
X4653520Y-6901050D01*
X4770360Y-6756640D02*
X4800360Y-6786640D01*
X4800360Y-6756640D02*
X4770360Y-6786640D01*
X4798300Y-6284200D02*
X4828300Y-6314200D01*
X4828300Y-6284200D02*
X4798300Y-6314200D01*
X4800950Y-5801600D02*
X4830950Y-5831600D01*
X4830950Y-5801600D02*
X4800950Y-5831600D01*
X4818941Y-9319166D02*
X4848941Y-9349166D01*
X4848941Y-9319166D02*
X4818941Y-9349166D01*
X4836510Y-4983720D02*
X4866510Y-5013720D01*
X4866510Y-4983720D02*
X4836510Y-5013720D01*
X4877150Y-6116560D02*
X4907150Y-6146560D01*
X4907150Y-6116560D02*
X4877150Y-6146560D01*
X4879580Y-4663680D02*
X4909580Y-4693680D01*
X4909580Y-4663680D02*
X4879580Y-4693680D01*
X4884660Y-6675360D02*
X4914660Y-6705360D01*
X4914660Y-6675360D02*
X4884660Y-6705360D01*
X4912600Y-6522960D02*
X4942600Y-6552960D01*
X4942600Y-6522960D02*
X4912600Y-6552960D01*
X4932920Y-6355320D02*
X4962920Y-6385320D01*
X4962920Y-6355320D02*
X4932920Y-6385320D01*
X4971020Y-5694920D02*
X5001020Y-5724920D01*
X5001020Y-5694920D02*
X4971020Y-5724920D01*
X5009120Y-5080240D02*
X5039120Y-5110240D01*
X5039120Y-5080240D02*
X5009120Y-5110240D01*
X5049760Y-6017500D02*
X5079760Y-6047500D01*
X5079760Y-6017500D02*
X5049760Y-6047500D01*
X5098020Y-6634720D02*
X5128020Y-6664720D01*
X5128020Y-6634720D02*
X5098020Y-6664720D01*
X5098020Y-6802360D02*
X5128020Y-6832360D01*
X5128020Y-6802360D02*
X5098020Y-6832360D01*
X5111041Y-9212486D02*
X5141041Y-9242486D01*
X5141041Y-9212486D02*
X5111041Y-9242486D01*
X5199620Y-5125960D02*
X5229620Y-5155960D01*
X5229620Y-5125960D02*
X5199620Y-5155960D01*
X5202160Y-4971020D02*
X5232160Y-5001020D01*
X5232160Y-4971020D02*
X5202160Y-5001020D01*
X5260580Y-4409680D02*
X5290580Y-4439680D01*
X5290580Y-4409680D02*
X5260580Y-4439680D01*
X5269201Y-9186986D02*
X5299201Y-9216986D01*
X5299201Y-9186986D02*
X5269201Y-9216986D01*
X5301220Y-7084300D02*
X5331220Y-7114300D01*
X5331220Y-7084300D02*
X5301220Y-7114300D01*
X5325950Y-9454555D02*
X5355950Y-9484555D01*
X5355950Y-9454555D02*
X5325950Y-9484555D01*
X5382390Y-6634720D02*
X5412390Y-6664720D01*
X5412390Y-6634720D02*
X5382390Y-6664720D01*
X5406000Y-8933800D02*
X5436000Y-8963800D01*
X5436000Y-8933800D02*
X5406000Y-8963800D01*
X5483990Y-5131040D02*
X5513990Y-5161040D01*
X5513990Y-5131040D02*
X5483990Y-5161040D01*
X5529820Y-4661140D02*
X5559820Y-4691140D01*
X5559820Y-4661140D02*
X5529820Y-4691140D01*
X5588240Y-6802360D02*
X5618240Y-6832360D01*
X5618240Y-6802360D02*
X5588240Y-6832360D01*
X5629520Y-9375760D02*
X5659520Y-9405760D01*
X5659520Y-9375760D02*
X5629520Y-9405760D01*
X5684760Y-7358620D02*
X5714760Y-7388620D01*
X5714760Y-7358620D02*
X5684760Y-7388620D01*
X5778740Y-7292580D02*
X5808740Y-7322580D01*
X5808740Y-7292580D02*
X5778740Y-7322580D01*
X5793980Y-7086840D02*
X5823980Y-7116840D01*
X5823980Y-7086840D02*
X5793980Y-7116840D01*
X5875150Y-6804900D02*
X5905150Y-6834900D01*
X5905150Y-6804900D02*
X5875150Y-6834900D01*
X5880450Y-4981180D02*
X5910450Y-5011180D01*
X5910450Y-4981180D02*
X5880450Y-5011180D01*
X5887960Y-7152880D02*
X5917960Y-7182880D01*
X5917960Y-7152880D02*
X5887960Y-7182880D01*
X5933680Y-4658600D02*
X5963680Y-4688600D01*
X5963680Y-4658600D02*
X5933680Y-4688600D01*
X5969880Y-9281780D02*
X5999880Y-9311780D01*
X5999880Y-9281780D02*
X5969880Y-9311780D01*
X6027660Y-7518640D02*
X6057660Y-7548640D01*
X6057660Y-7518640D02*
X6027660Y-7548640D01*
X6035280Y-7399260D02*
X6065280Y-7429260D01*
X6065280Y-7399260D02*
X6035280Y-7429260D01*
X6086080Y-6802360D02*
X6116080Y-6832360D01*
X6116080Y-6802360D02*
X6086080Y-6832360D01*
X6103860Y-7119860D02*
X6133860Y-7149860D01*
X6133860Y-7119860D02*
X6103860Y-7149860D01*
X6131800Y-7724380D02*
X6161800Y-7754380D01*
X6161800Y-7724380D02*
X6131800Y-7754380D01*
X6147040Y-7899640D02*
X6177040Y-7929640D01*
X6177040Y-7899640D02*
X6147040Y-7929640D01*
X6172440Y-4978640D02*
X6202440Y-5008640D01*
X6202440Y-4978640D02*
X6172440Y-5008640D01*
X6286740Y-7137640D02*
X6316740Y-7167640D01*
X6316740Y-7137640D02*
X6286740Y-7167640D01*
X6297820Y-7497360D02*
X6327820Y-7527360D01*
X6327820Y-7497360D02*
X6297820Y-7527360D01*
X6335000Y-5115800D02*
X6365000Y-5145800D01*
X6365000Y-5115800D02*
X6335000Y-5145800D01*
X6359739Y-7208399D02*
X6389739Y-7238399D01*
X6389739Y-7208399D02*
X6359739Y-7238399D01*
X6370560Y-3706100D02*
X6400560Y-3736100D01*
X6400560Y-3706100D02*
X6370560Y-3736100D01*
X6375530Y-6804900D02*
X6405530Y-6834900D01*
X6405530Y-6804900D02*
X6375530Y-6834900D01*
X6398500Y-7107160D02*
X6428500Y-7137160D01*
X6428500Y-7107160D02*
X6398500Y-7137160D01*
X6403580Y-4595100D02*
X6433580Y-4625100D01*
X6433580Y-4595100D02*
X6403580Y-4625100D01*
X6412820Y-7497360D02*
X6442820Y-7527360D01*
X6442820Y-7497360D02*
X6412820Y-7527360D01*
X6454380Y-3731790D02*
X6484380Y-3761790D01*
X6484380Y-3731790D02*
X6454380Y-3761790D01*
X6456230Y-4363960D02*
X6486230Y-4393960D01*
X6486230Y-4363960D02*
X6456230Y-4393960D01*
X6462000Y-6563600D02*
X6492000Y-6593600D01*
X6492000Y-6563600D02*
X6462000Y-6593600D01*
X6477430Y-7081760D02*
X6507430Y-7111760D01*
X6507430Y-7081760D02*
X6477430Y-7111760D01*
X6505180Y-5595860D02*
X6535180Y-5625860D01*
X6535180Y-5595860D02*
X6505180Y-5625860D01*
X6512800Y-4607800D02*
X6542800Y-4637800D01*
X6542800Y-4607800D02*
X6512800Y-4637800D01*
X6522960Y-5827000D02*
X6552960Y-5857000D01*
X6552960Y-5827000D02*
X6522960Y-5857000D01*
X6528361Y-9555386D02*
X6558361Y-9585386D01*
X6558361Y-9555386D02*
X6528361Y-9585386D01*
X6538200Y-4988800D02*
X6568200Y-5018800D01*
X6568200Y-4988800D02*
X6538200Y-5018800D01*
X6576300Y-7640560D02*
X6606300Y-7670560D01*
X6606300Y-7640560D02*
X6576300Y-7670560D01*
X6591540Y-3563860D02*
X6621540Y-3593860D01*
X6621540Y-3563860D02*
X6591540Y-3593860D01*
X6626990Y-6413740D02*
X6656990Y-6443740D01*
X6656990Y-6413740D02*
X6626990Y-6443740D01*
X6632180Y-6002150D02*
X6662180Y-6032150D01*
X6662180Y-6002150D02*
X6632180Y-6032150D01*
X6635230Y-7140180D02*
X6665230Y-7170180D01*
X6665230Y-7140180D02*
X6635230Y-7170180D01*
X6639800Y-6563600D02*
X6669800Y-6593600D01*
X6669800Y-6563600D02*
X6639800Y-6593600D01*
X6682980Y-3515600D02*
X6712980Y-3545600D01*
X6712980Y-3515600D02*
X6682980Y-3545600D01*
X6741400Y-7325600D02*
X6771400Y-7355600D01*
X6771400Y-7325600D02*
X6741400Y-7355600D01*
X6759180Y-4069320D02*
X6789180Y-4099320D01*
X6789180Y-4069320D02*
X6759180Y-4099320D01*
X6766800Y-4912600D02*
X6796800Y-4942600D01*
X6796800Y-4912600D02*
X6766800Y-4942600D01*
X6807550Y-3629900D02*
X6837550Y-3659900D01*
X6837550Y-3629900D02*
X6807550Y-3659900D01*
X6901260Y-3236930D02*
X6931260Y-3266930D01*
X6931260Y-3236930D02*
X6901260Y-3266930D01*
X6909040Y-5357100D02*
X6939040Y-5387100D01*
X6939040Y-5357100D02*
X6909040Y-5387100D01*
X6911420Y-4092910D02*
X6941420Y-4122910D01*
X6941420Y-4092910D02*
X6911420Y-4122910D01*
X6911580Y-6047980D02*
X6941580Y-6077980D01*
X6941580Y-6047980D02*
X6911580Y-6077980D01*
X6911580Y-6807550D02*
X6941580Y-6837550D01*
X6941580Y-6807550D02*
X6911580Y-6837550D01*
X6924280Y-4932920D02*
X6954280Y-4962920D01*
X6954280Y-4932920D02*
X6924280Y-4962920D01*
X6980160Y-3525760D02*
X7010160Y-3555760D01*
X7010160Y-3525760D02*
X6980160Y-3555760D01*
X7061440Y-5369800D02*
X7091440Y-5399800D01*
X7091440Y-5369800D02*
X7061440Y-5399800D01*
X7607220Y-3363200D02*
X7637220Y-3393200D01*
X7637220Y-3363200D02*
X7607220Y-3393200D01*
X7827220Y-3367300D02*
X7857220Y-3397300D01*
X7857220Y-3367300D02*
X7827220Y-3397300D01*
X7838680Y-4973560D02*
X7868680Y-5003560D01*
X7868680Y-4973560D02*
X7838680Y-5003560D01*
X8275400Y-4090370D02*
X8305400Y-4120370D01*
X8305400Y-4090370D02*
X8275400Y-4120370D01*
X8288100Y-3242010D02*
X8318100Y-3272010D01*
X8318100Y-3242010D02*
X8288100Y-3272010D01*
X8573780Y-6666120D02*
X8603780Y-6696120D01*
X8603780Y-6666120D02*
X8573780Y-6696120D01*
X8703780Y-6400120D02*
X8733780Y-6430120D01*
X8733780Y-6400120D02*
X8703780Y-6430120D01*
X8808960Y-6670280D02*
X8838960Y-6700280D01*
X8838960Y-6670280D02*
X8808960Y-6700280D01*
X9007080Y-4762740D02*
X9037080Y-4792740D01*
X9037080Y-4762740D02*
X9007080Y-4792740D01*
X9705680Y-4759350D02*
X9735680Y-4789350D01*
X9735680Y-4759350D02*
X9705680Y-4789350D01*
X10018000Y-3972800D02*
X10048000Y-4002800D01*
X10048000Y-3972800D02*
X10018000Y-4002800D01*
X10256760Y-4930380D02*
X10286760Y-4960380D01*
X10286760Y-4930380D02*
X10256760Y-4960380D01*
X10345660Y-5877800D02*
X10375660Y-5907800D01*
X10375660Y-5877800D02*
X10345660Y-5907800D01*
X10786150Y-4852710D02*
X10816150Y-4882710D01*
X10816150Y-4852710D02*
X10786150Y-4882710D01*
X10881600Y-4509810D02*
X10911600Y-4539810D01*
X10911600Y-4509810D02*
X10881600Y-4539810D01*
D13*
X4744400Y-8402320D02*
G75*
G03*
X4744400Y-8402320I-20000J0D01*
G01*
X4744400Y-8522320D02*
G75*
G03*
X4744400Y-8522320I-20000J0D01*
G01*
X4744400Y-8642320D02*
G75*
G03*
X4744400Y-8642320I-20000J0D01*
G01*
X4744400Y-8762320D02*
G75*
G03*
X4744400Y-8762320I-20000J0D01*
G01*
X4744400Y-8882320D02*
G75*
G03*
X4744400Y-8882320I-20000J0D01*
G01*
X4894260Y-8920480D02*
G75*
G03*
X4894260Y-8920480I-20000J0D01*
G01*
X5441000Y-9111250D02*
G75*
G03*
X5441000Y-9111250I-20000J0D01*
G01*
X5451160Y-9271380D02*
G75*
G03*
X5451160Y-9271380I-20000J0D01*
G01*
X6449741Y-9412806D02*
G75*
G03*
X6449741Y-9412806I-20000J0D01*
G01*
X7759150Y-10358350D02*
G75*
G03*
X7759150Y-10358350I-20000J0D01*
G01*
X9092030Y-4647350D02*
G75*
G03*
X9092030Y-4647350I-20000J0D01*
G01*
X9604490Y-4136190D02*
G75*
G03*
X9604490Y-4136190I-20000J0D01*
G01*
X9764960Y-5284890D02*
G75*
G03*
X9764960Y-5284890I-20000J0D01*
G01*
D14*
X1879600Y-7697000D02*
X1879600Y-7797000D01*
X1829600Y-7747000D02*
X1929600Y-7747000D01*
X1879600Y-7951000D02*
X1879600Y-8051000D01*
X1829600Y-8001000D02*
X1929600Y-8001000D01*
X1879600Y-8205000D02*
X1879600Y-8305000D01*
X1829600Y-8255000D02*
X1929600Y-8255000D01*
X1879600Y-8459000D02*
X1879600Y-8559000D01*
X1829600Y-8509000D02*
X1929600Y-8509000D01*
X1879600Y-8713000D02*
X1879600Y-8813000D01*
X1829600Y-8763000D02*
X1929600Y-8763000D01*
X1879600Y-8967000D02*
X1879600Y-9067000D01*
X1829600Y-9017000D02*
X1929600Y-9017000D01*
X9055100Y-6068860D02*
X9055100Y-6168860D01*
X9005100Y-6118860D02*
X9105100Y-6118860D01*
X9055100Y-6322860D02*
X9055100Y-6422860D01*
X9005100Y-6372860D02*
X9105100Y-6372860D01*
X9055100Y-6576860D02*
X9055100Y-6676860D01*
X9005100Y-6626860D02*
X9105100Y-6626860D01*
X9055100Y-6830860D02*
X9055100Y-6930860D01*
X9005100Y-6880860D02*
X9105100Y-6880860D01*
X9055100Y-7084860D02*
X9055100Y-7184860D01*
X9005100Y-7134860D02*
X9105100Y-7134860D01*
X9055100Y-7338860D02*
X9055100Y-7438860D01*
X9005100Y-7388860D02*
X9105100Y-7388860D01*
X11474250Y-4057690D02*
X11474250Y-4157690D01*
X11424250Y-4107690D02*
X11524250Y-4107690D01*
X11474250Y-4334690D02*
X11474250Y-4434690D01*
X11424250Y-4384690D02*
X11524250Y-4384690D01*
X11474250Y-4611690D02*
X11474250Y-4711690D01*
X11424250Y-4661690D02*
X11524250Y-4661690D01*
X11474250Y-4888690D02*
X11474250Y-4988690D01*
X11424250Y-4938690D02*
X11524250Y-4938690D01*
X11474250Y-5165690D02*
X11474250Y-5265690D01*
X11424250Y-5215690D02*
X11524250Y-5215690D01*
X11758250Y-4196190D02*
X11758250Y-4296190D01*
X11708250Y-4246190D02*
X11808250Y-4246190D01*
X11758250Y-4473190D02*
X11758250Y-4573190D01*
X11708250Y-4523190D02*
X11808250Y-4523190D01*
X11758250Y-4750190D02*
X11758250Y-4850190D01*
X11708250Y-4800190D02*
X11808250Y-4800190D01*
X11758250Y-5027190D02*
X11758250Y-5127190D01*
X11708250Y-5077190D02*
X11808250Y-5077190D01*
D15*
X8249427Y-10132427D02*
X8249427Y-10047573D01*
X8164573Y-10047573D01*
X8164573Y-10132427D01*
X8249427Y-10132427D01*
X8599427Y-10132427D02*
X8599427Y-10047573D01*
X8514573Y-10047573D01*
X8514573Y-10132427D01*
X8599427Y-10132427D01*
X10154427Y-3008027D02*
X10154427Y-2923173D01*
X10069573Y-2923173D01*
X10069573Y-3008027D01*
X10154427Y-3008027D01*
X10504427Y-3008027D02*
X10504427Y-2923173D01*
X10419573Y-2923173D01*
X10419573Y-3008027D01*
X10504427Y-3008027D01*
D16*
X5667061Y-10055526D02*
X5753421Y-9969166D01*
X5667061Y-9882806D01*
X5580701Y-9969166D01*
X5667061Y-10055526D01*
X5667061Y-10385726D02*
X5753421Y-10299366D01*
X5667061Y-10213006D01*
X5580701Y-10299366D01*
X5667061Y-10385726D01*
X7013261Y-10055526D02*
X7099621Y-9969166D01*
X7013261Y-9882806D01*
X6926901Y-9969166D01*
X7013261Y-10055526D01*
X7013261Y-10385726D02*
X7099621Y-10299366D01*
X7013261Y-10213006D01*
X6926901Y-10299366D01*
X7013261Y-10385726D01*
D17*
X11456250Y-3251690D02*
X11776250Y-3571690D01*
X11776250Y-3251690D02*
X11456250Y-3571690D01*
X11776250Y-3411690D02*
G75*
G03*
X11776250Y-3411690I-160000J0D01*
G01*
X11456250Y-5751690D02*
X11776250Y-6071690D01*
X11776250Y-5751690D02*
X11456250Y-6071690D01*
X11776250Y-5911690D02*
G75*
G03*
X11776250Y-5911690I-160000J0D01*
G01*
D18*
X1419000Y-2435000D02*
X1629000Y-2645000D01*
X1629000Y-2435000D02*
X1419000Y-2645000D01*
X1524000Y-2435000D02*
X1524000Y-2645000D01*
X1419000Y-2540000D02*
X1629000Y-2540000D01*
X1419000Y-10563000D02*
X1629000Y-10773000D01*
X1629000Y-10563000D02*
X1419000Y-10773000D01*
X1524000Y-10563000D02*
X1524000Y-10773000D01*
X1419000Y-10668000D02*
X1629000Y-10668000D01*
X13103000Y-2435000D02*
X13313000Y-2645000D01*
X13313000Y-2435000D02*
X13103000Y-2645000D01*
X13208000Y-2435000D02*
X13208000Y-2645000D01*
X13103000Y-2540000D02*
X13313000Y-2540000D01*
X13103000Y-10563000D02*
X13313000Y-10773000D01*
X13313000Y-10563000D02*
X13103000Y-10773000D01*
X13208000Y-10563000D02*
X13208000Y-10773000D01*
X13103000Y-10668000D02*
X13313000Y-10668000D01*
D11*
X1522538Y-11237517D02*
X1522538Y-11037518D01*
X1570157Y-11037518D01*
X1598728Y-11047041D01*
X1617776Y-11066089D01*
X1627299Y-11085137D01*
X1636823Y-11123232D01*
X1636823Y-11151803D01*
X1627299Y-11189898D01*
X1617776Y-11208946D01*
X1598728Y-11227994D01*
X1570157Y-11237517D01*
X1522538Y-11237517D01*
X1722538Y-11237517D02*
X1722538Y-11104184D01*
X1722538Y-11142279D02*
X1732061Y-11123232D01*
X1741585Y-11113708D01*
X1760633Y-11104184D01*
X1779680Y-11104184D01*
X1846347Y-11237517D02*
X1846347Y-11104184D01*
X1846347Y-11037518D02*
X1836823Y-11047041D01*
X1846347Y-11056565D01*
X1855871Y-11047041D01*
X1846347Y-11037518D01*
X1846347Y-11056565D01*
X1970157Y-11237517D02*
X1951109Y-11227994D01*
X1941585Y-11208946D01*
X1941585Y-11037518D01*
X2074919Y-11237517D02*
X2055871Y-11227994D01*
X2046347Y-11208946D01*
X2046347Y-11037518D01*
X2303490Y-11237517D02*
X2303490Y-11037518D01*
X2370157Y-11180375D01*
X2436823Y-11037518D01*
X2436823Y-11237517D01*
X2617776Y-11237517D02*
X2617776Y-11132756D01*
X2608252Y-11113708D01*
X2589204Y-11104184D01*
X2551109Y-11104184D01*
X2532061Y-11113708D01*
X2617776Y-11227994D02*
X2598728Y-11237517D01*
X2551109Y-11237517D01*
X2532061Y-11227994D01*
X2522538Y-11208946D01*
X2522538Y-11189898D01*
X2532061Y-11170851D01*
X2551109Y-11161327D01*
X2598728Y-11161327D01*
X2617776Y-11151803D01*
X2713014Y-11104184D02*
X2713014Y-11304184D01*
X2713014Y-11113708D02*
X2732061Y-11104184D01*
X2770157Y-11104184D01*
X2789204Y-11113708D01*
X2798728Y-11123232D01*
X2808252Y-11142279D01*
X2808252Y-11199422D01*
X2798728Y-11218470D01*
X2789204Y-11227994D01*
X2770157Y-11237517D01*
X2732061Y-11237517D01*
X2713014Y-11227994D01*
X2893966Y-11218470D02*
X2903490Y-11227994D01*
X2893966Y-11237517D01*
X2884442Y-11227994D01*
X2893966Y-11218470D01*
X2893966Y-11237517D01*
X2893966Y-11113708D02*
X2903490Y-11123232D01*
X2893966Y-11132756D01*
X2884442Y-11123232D01*
X2893966Y-11113708D01*
X2893966Y-11132756D01*
D12*
X1234919Y-11552041D02*
X1264919Y-11582041D01*
X1264919Y-11552041D02*
X1234919Y-11582041D01*
D11*
X1560633Y-11457517D02*
X1579680Y-11457517D01*
X1598728Y-11467041D01*
X1608252Y-11476565D01*
X1617776Y-11495613D01*
X1627299Y-11533708D01*
X1627299Y-11581327D01*
X1617776Y-11619422D01*
X1608252Y-11638470D01*
X1598728Y-11647994D01*
X1579680Y-11657517D01*
X1560633Y-11657517D01*
X1541585Y-11647994D01*
X1532061Y-11638470D01*
X1522538Y-11619422D01*
X1513014Y-11581327D01*
X1513014Y-11533708D01*
X1522538Y-11495613D01*
X1532061Y-11476565D01*
X1541585Y-11467041D01*
X1560633Y-11457517D01*
X1713014Y-11638470D02*
X1722538Y-11647994D01*
X1713014Y-11657517D01*
X1703490Y-11647994D01*
X1713014Y-11638470D01*
X1713014Y-11657517D01*
X1789204Y-11457517D02*
X1913014Y-11457517D01*
X1846347Y-11533708D01*
X1874919Y-11533708D01*
X1893966Y-11543232D01*
X1903490Y-11552756D01*
X1913014Y-11571803D01*
X1913014Y-11619422D01*
X1903490Y-11638470D01*
X1893966Y-11647994D01*
X1874919Y-11657517D01*
X1817776Y-11657517D01*
X1798728Y-11647994D01*
X1789204Y-11638470D01*
X2036823Y-11457517D02*
X2055871Y-11457517D01*
X2074919Y-11467041D01*
X2084442Y-11476565D01*
X2093966Y-11495613D01*
X2103490Y-11533708D01*
X2103490Y-11581327D01*
X2093966Y-11619422D01*
X2084442Y-11638470D01*
X2074919Y-11647994D01*
X2055871Y-11657517D01*
X2036823Y-11657517D01*
X2017776Y-11647994D01*
X2008252Y-11638470D01*
X1998728Y-11619422D01*
X1989204Y-11581327D01*
X1989204Y-11533708D01*
X1998728Y-11495613D01*
X2008252Y-11476565D01*
X2017776Y-11467041D01*
X2036823Y-11457517D01*
X2227300Y-11457517D02*
X2246347Y-11457517D01*
X2265395Y-11467041D01*
X2274919Y-11476565D01*
X2284442Y-11495613D01*
X2293966Y-11533708D01*
X2293966Y-11581327D01*
X2284442Y-11619422D01*
X2274919Y-11638470D01*
X2265395Y-11647994D01*
X2246347Y-11657517D01*
X2227300Y-11657517D01*
X2208252Y-11647994D01*
X2198728Y-11638470D01*
X2189204Y-11619422D01*
X2179681Y-11581327D01*
X2179681Y-11533708D01*
X2189204Y-11495613D01*
X2198728Y-11476565D01*
X2208252Y-11467041D01*
X2227300Y-11457517D01*
X2379681Y-11657517D02*
X2379681Y-11524184D01*
X2379681Y-11543232D02*
X2389204Y-11533708D01*
X2408252Y-11524184D01*
X2436823Y-11524184D01*
X2455871Y-11533708D01*
X2465395Y-11552756D01*
X2465395Y-11657517D01*
X2465395Y-11552756D02*
X2474919Y-11533708D01*
X2493966Y-11524184D01*
X2522538Y-11524184D01*
X2541585Y-11533708D01*
X2551109Y-11552756D01*
X2551109Y-11657517D01*
X2646347Y-11657517D02*
X2646347Y-11524184D01*
X2646347Y-11543232D02*
X2655871Y-11533708D01*
X2674919Y-11524184D01*
X2703490Y-11524184D01*
X2722538Y-11533708D01*
X2732061Y-11552756D01*
X2732061Y-11657517D01*
X2732061Y-11552756D02*
X2741585Y-11533708D01*
X2760633Y-11524184D01*
X2789204Y-11524184D01*
X2808252Y-11533708D01*
X2817776Y-11552756D01*
X2817776Y-11657517D01*
X3208252Y-11447994D02*
X3036823Y-11705137D01*
X3465395Y-11457517D02*
X3484442Y-11457517D01*
X3503490Y-11467041D01*
X3513014Y-11476565D01*
X3522538Y-11495613D01*
X3532061Y-11533708D01*
X3532061Y-11581327D01*
X3522538Y-11619422D01*
X3513014Y-11638470D01*
X3503490Y-11647994D01*
X3484442Y-11657517D01*
X3465395Y-11657517D01*
X3446347Y-11647994D01*
X3436823Y-11638470D01*
X3427299Y-11619422D01*
X3417776Y-11581327D01*
X3417776Y-11533708D01*
X3427299Y-11495613D01*
X3436823Y-11476565D01*
X3446347Y-11467041D01*
X3465395Y-11457517D01*
X3617776Y-11638470D02*
X3627299Y-11647994D01*
X3617776Y-11657517D01*
X3608252Y-11647994D01*
X3617776Y-11638470D01*
X3617776Y-11657517D01*
X3751109Y-11457517D02*
X3770157Y-11457517D01*
X3789204Y-11467041D01*
X3798728Y-11476565D01*
X3808252Y-11495613D01*
X3817776Y-11533708D01*
X3817776Y-11581327D01*
X3808252Y-11619422D01*
X3798728Y-11638470D01*
X3789204Y-11647994D01*
X3770157Y-11657517D01*
X3751109Y-11657517D01*
X3732061Y-11647994D01*
X3722538Y-11638470D01*
X3713014Y-11619422D01*
X3703490Y-11581327D01*
X3703490Y-11533708D01*
X3713014Y-11495613D01*
X3722538Y-11476565D01*
X3732061Y-11467041D01*
X3751109Y-11457517D01*
X4008252Y-11657517D02*
X3893966Y-11657517D01*
X3951109Y-11657517D02*
X3951109Y-11457517D01*
X3932061Y-11486089D01*
X3913014Y-11505137D01*
X3893966Y-11514660D01*
X4198728Y-11657517D02*
X4084442Y-11657517D01*
X4141585Y-11657517D02*
X4141585Y-11457517D01*
X4122538Y-11486089D01*
X4103490Y-11505137D01*
X4084442Y-11514660D01*
X4313014Y-11543232D02*
X4293966Y-11533708D01*
X4284442Y-11524184D01*
X4274919Y-11505137D01*
X4274919Y-11495613D01*
X4284442Y-11476565D01*
X4293966Y-11467041D01*
X4313014Y-11457517D01*
X4351109Y-11457517D01*
X4370157Y-11467041D01*
X4379681Y-11476565D01*
X4389204Y-11495613D01*
X4389204Y-11505137D01*
X4379681Y-11524184D01*
X4370157Y-11533708D01*
X4351109Y-11543232D01*
X4313014Y-11543232D01*
X4293966Y-11552756D01*
X4284442Y-11562279D01*
X4274919Y-11581327D01*
X4274919Y-11619422D01*
X4284442Y-11638470D01*
X4293966Y-11647994D01*
X4313014Y-11657517D01*
X4351109Y-11657517D01*
X4370157Y-11647994D01*
X4379681Y-11638470D01*
X4389204Y-11619422D01*
X4389204Y-11581327D01*
X4379681Y-11562279D01*
X4370157Y-11552756D01*
X4351109Y-11543232D01*
X4465395Y-11457517D02*
X4465395Y-11495613D01*
X4541585Y-11457517D02*
X4541585Y-11495613D01*
X4836823Y-11733708D02*
X4827300Y-11724184D01*
X4808252Y-11695613D01*
X4798728Y-11676565D01*
X4789204Y-11647994D01*
X4779681Y-11600375D01*
X4779681Y-11562279D01*
X4789204Y-11514660D01*
X4798728Y-11486089D01*
X4808252Y-11467041D01*
X4827300Y-11438470D01*
X4836823Y-11428946D01*
X5017776Y-11657517D02*
X4903490Y-11657517D01*
X4960633Y-11657517D02*
X4960633Y-11457517D01*
X4941585Y-11486089D01*
X4922538Y-11505137D01*
X4903490Y-11514660D01*
X5093966Y-11476565D02*
X5103490Y-11467041D01*
X5122538Y-11457517D01*
X5170157Y-11457517D01*
X5189204Y-11467041D01*
X5198728Y-11476565D01*
X5208252Y-11495613D01*
X5208252Y-11514660D01*
X5198728Y-11543232D01*
X5084442Y-11657517D01*
X5208252Y-11657517D01*
X5379681Y-11524184D02*
X5379681Y-11657517D01*
X5332061Y-11447994D02*
X5284442Y-11590851D01*
X5408252Y-11590851D01*
X5636823Y-11657517D02*
X5636823Y-11457517D01*
X5722538Y-11657517D02*
X5722538Y-11552756D01*
X5713014Y-11533708D01*
X5693966Y-11524184D01*
X5665395Y-11524184D01*
X5646347Y-11533708D01*
X5636823Y-11543232D01*
X5846347Y-11657517D02*
X5827299Y-11647994D01*
X5817776Y-11638470D01*
X5808252Y-11619422D01*
X5808252Y-11562279D01*
X5817776Y-11543232D01*
X5827299Y-11533708D01*
X5846347Y-11524184D01*
X5874918Y-11524184D01*
X5893966Y-11533708D01*
X5903490Y-11543232D01*
X5913014Y-11562279D01*
X5913014Y-11619422D01*
X5903490Y-11638470D01*
X5893966Y-11647994D01*
X5874918Y-11657517D01*
X5846347Y-11657517D01*
X6027299Y-11657517D02*
X6008252Y-11647994D01*
X5998728Y-11628946D01*
X5998728Y-11457517D01*
X6179680Y-11647994D02*
X6160633Y-11657517D01*
X6122538Y-11657517D01*
X6103490Y-11647994D01*
X6093966Y-11628946D01*
X6093966Y-11552756D01*
X6103490Y-11533708D01*
X6122538Y-11524184D01*
X6160633Y-11524184D01*
X6179680Y-11533708D01*
X6189204Y-11552756D01*
X6189204Y-11571803D01*
X6093966Y-11590851D01*
X6265395Y-11647994D02*
X6284442Y-11657517D01*
X6322538Y-11657517D01*
X6341585Y-11647994D01*
X6351109Y-11628946D01*
X6351109Y-11619422D01*
X6341585Y-11600375D01*
X6322538Y-11590851D01*
X6293966Y-11590851D01*
X6274918Y-11581327D01*
X6265395Y-11562279D01*
X6265395Y-11552756D01*
X6274918Y-11533708D01*
X6293966Y-11524184D01*
X6322538Y-11524184D01*
X6341585Y-11533708D01*
X6417776Y-11733708D02*
X6427299Y-11724184D01*
X6446347Y-11695613D01*
X6455871Y-11676565D01*
X6465395Y-11647994D01*
X6474918Y-11600375D01*
X6474918Y-11562279D01*
X6465395Y-11514660D01*
X6455871Y-11486089D01*
X6446347Y-11467041D01*
X6427299Y-11438470D01*
X6417776Y-11428946D01*
D13*
X1264919Y-11831041D02*
G75*
G03*
X1264919Y-11831041I-20000J0D01*
G01*
D11*
X1560633Y-11721517D02*
X1579680Y-11721517D01*
X1598728Y-11731041D01*
X1608252Y-11740565D01*
X1617776Y-11759613D01*
X1627299Y-11797708D01*
X1627299Y-11845327D01*
X1617776Y-11883422D01*
X1608252Y-11902470D01*
X1598728Y-11911994D01*
X1579680Y-11921517D01*
X1560633Y-11921517D01*
X1541585Y-11911994D01*
X1532061Y-11902470D01*
X1522538Y-11883422D01*
X1513014Y-11845327D01*
X1513014Y-11797708D01*
X1522538Y-11759613D01*
X1532061Y-11740565D01*
X1541585Y-11731041D01*
X1560633Y-11721517D01*
X1713014Y-11902470D02*
X1722538Y-11911994D01*
X1713014Y-11921517D01*
X1703490Y-11911994D01*
X1713014Y-11902470D01*
X1713014Y-11921517D01*
X1893966Y-11788184D02*
X1893966Y-11921517D01*
X1846347Y-11711994D02*
X1798728Y-11854851D01*
X1922538Y-11854851D01*
X2036823Y-11721517D02*
X2055871Y-11721517D01*
X2074919Y-11731041D01*
X2084442Y-11740565D01*
X2093966Y-11759613D01*
X2103490Y-11797708D01*
X2103490Y-11845327D01*
X2093966Y-11883422D01*
X2084442Y-11902470D01*
X2074919Y-11911994D01*
X2055871Y-11921517D01*
X2036823Y-11921517D01*
X2017776Y-11911994D01*
X2008252Y-11902470D01*
X1998728Y-11883422D01*
X1989204Y-11845327D01*
X1989204Y-11797708D01*
X1998728Y-11759613D01*
X2008252Y-11740565D01*
X2017776Y-11731041D01*
X2036823Y-11721517D01*
X2227300Y-11721517D02*
X2246347Y-11721517D01*
X2265395Y-11731041D01*
X2274919Y-11740565D01*
X2284442Y-11759613D01*
X2293966Y-11797708D01*
X2293966Y-11845327D01*
X2284442Y-11883422D01*
X2274919Y-11902470D01*
X2265395Y-11911994D01*
X2246347Y-11921517D01*
X2227300Y-11921517D01*
X2208252Y-11911994D01*
X2198728Y-11902470D01*
X2189204Y-11883422D01*
X2179681Y-11845327D01*
X2179681Y-11797708D01*
X2189204Y-11759613D01*
X2198728Y-11740565D01*
X2208252Y-11731041D01*
X2227300Y-11721517D01*
X2379681Y-11921517D02*
X2379681Y-11788184D01*
X2379681Y-11807232D02*
X2389204Y-11797708D01*
X2408252Y-11788184D01*
X2436823Y-11788184D01*
X2455871Y-11797708D01*
X2465395Y-11816756D01*
X2465395Y-11921517D01*
X2465395Y-11816756D02*
X2474919Y-11797708D01*
X2493966Y-11788184D01*
X2522538Y-11788184D01*
X2541585Y-11797708D01*
X2551109Y-11816756D01*
X2551109Y-11921517D01*
X2646347Y-11921517D02*
X2646347Y-11788184D01*
X2646347Y-11807232D02*
X2655871Y-11797708D01*
X2674919Y-11788184D01*
X2703490Y-11788184D01*
X2722538Y-11797708D01*
X2732061Y-11816756D01*
X2732061Y-11921517D01*
X2732061Y-11816756D02*
X2741585Y-11797708D01*
X2760633Y-11788184D01*
X2789204Y-11788184D01*
X2808252Y-11797708D01*
X2817776Y-11816756D01*
X2817776Y-11921517D01*
X3208252Y-11711994D02*
X3036823Y-11969137D01*
X3465395Y-11721517D02*
X3484442Y-11721517D01*
X3503490Y-11731041D01*
X3513014Y-11740565D01*
X3522538Y-11759613D01*
X3532061Y-11797708D01*
X3532061Y-11845327D01*
X3522538Y-11883422D01*
X3513014Y-11902470D01*
X3503490Y-11911994D01*
X3484442Y-11921517D01*
X3465395Y-11921517D01*
X3446347Y-11911994D01*
X3436823Y-11902470D01*
X3427299Y-11883422D01*
X3417776Y-11845327D01*
X3417776Y-11797708D01*
X3427299Y-11759613D01*
X3436823Y-11740565D01*
X3446347Y-11731041D01*
X3465395Y-11721517D01*
X3617776Y-11902470D02*
X3627299Y-11911994D01*
X3617776Y-11921517D01*
X3608252Y-11911994D01*
X3617776Y-11902470D01*
X3617776Y-11921517D01*
X3751109Y-11721517D02*
X3770157Y-11721517D01*
X3789204Y-11731041D01*
X3798728Y-11740565D01*
X3808252Y-11759613D01*
X3817776Y-11797708D01*
X3817776Y-11845327D01*
X3808252Y-11883422D01*
X3798728Y-11902470D01*
X3789204Y-11911994D01*
X3770157Y-11921517D01*
X3751109Y-11921517D01*
X3732061Y-11911994D01*
X3722538Y-11902470D01*
X3713014Y-11883422D01*
X3703490Y-11845327D01*
X3703490Y-11797708D01*
X3713014Y-11759613D01*
X3722538Y-11740565D01*
X3732061Y-11731041D01*
X3751109Y-11721517D01*
X4008252Y-11921517D02*
X3893966Y-11921517D01*
X3951109Y-11921517D02*
X3951109Y-11721517D01*
X3932061Y-11750089D01*
X3913014Y-11769137D01*
X3893966Y-11778660D01*
X4189204Y-11721517D02*
X4093966Y-11721517D01*
X4084442Y-11816756D01*
X4093966Y-11807232D01*
X4113014Y-11797708D01*
X4160633Y-11797708D01*
X4179680Y-11807232D01*
X4189204Y-11816756D01*
X4198728Y-11835803D01*
X4198728Y-11883422D01*
X4189204Y-11902470D01*
X4179680Y-11911994D01*
X4160633Y-11921517D01*
X4113014Y-11921517D01*
X4093966Y-11911994D01*
X4084442Y-11902470D01*
X4265395Y-11721517D02*
X4398728Y-11721517D01*
X4313014Y-11921517D01*
X4465395Y-11721517D02*
X4465395Y-11759613D01*
X4541585Y-11721517D02*
X4541585Y-11759613D01*
X4836823Y-11997708D02*
X4827300Y-11988184D01*
X4808252Y-11959613D01*
X4798728Y-11940565D01*
X4789204Y-11911994D01*
X4779681Y-11864375D01*
X4779681Y-11826279D01*
X4789204Y-11778660D01*
X4798728Y-11750089D01*
X4808252Y-11731041D01*
X4827300Y-11702470D01*
X4836823Y-11692946D01*
X5017776Y-11921517D02*
X4903490Y-11921517D01*
X4960633Y-11921517D02*
X4960633Y-11721517D01*
X4941585Y-11750089D01*
X4922538Y-11769137D01*
X4903490Y-11778660D01*
X5084442Y-11721517D02*
X5208252Y-11721517D01*
X5141585Y-11797708D01*
X5170157Y-11797708D01*
X5189204Y-11807232D01*
X5198728Y-11816756D01*
X5208252Y-11835803D01*
X5208252Y-11883422D01*
X5198728Y-11902470D01*
X5189204Y-11911994D01*
X5170157Y-11921517D01*
X5113014Y-11921517D01*
X5093966Y-11911994D01*
X5084442Y-11902470D01*
X5446347Y-11921517D02*
X5446347Y-11721517D01*
X5532061Y-11921517D02*
X5532061Y-11816756D01*
X5522538Y-11797708D01*
X5503490Y-11788184D01*
X5474919Y-11788184D01*
X5455871Y-11797708D01*
X5446347Y-11807232D01*
X5655871Y-11921517D02*
X5636823Y-11911994D01*
X5627299Y-11902470D01*
X5617776Y-11883422D01*
X5617776Y-11826279D01*
X5627299Y-11807232D01*
X5636823Y-11797708D01*
X5655871Y-11788184D01*
X5684442Y-11788184D01*
X5703490Y-11797708D01*
X5713014Y-11807232D01*
X5722538Y-11826279D01*
X5722538Y-11883422D01*
X5713014Y-11902470D01*
X5703490Y-11911994D01*
X5684442Y-11921517D01*
X5655871Y-11921517D01*
X5836823Y-11921517D02*
X5817776Y-11911994D01*
X5808252Y-11892946D01*
X5808252Y-11721517D01*
X5989204Y-11911994D02*
X5970157Y-11921517D01*
X5932061Y-11921517D01*
X5913014Y-11911994D01*
X5903490Y-11892946D01*
X5903490Y-11816756D01*
X5913014Y-11797708D01*
X5932061Y-11788184D01*
X5970157Y-11788184D01*
X5989204Y-11797708D01*
X5998728Y-11816756D01*
X5998728Y-11835803D01*
X5903490Y-11854851D01*
X6074918Y-11911994D02*
X6093966Y-11921517D01*
X6132061Y-11921517D01*
X6151109Y-11911994D01*
X6160633Y-11892946D01*
X6160633Y-11883422D01*
X6151109Y-11864375D01*
X6132061Y-11854851D01*
X6103490Y-11854851D01*
X6084442Y-11845327D01*
X6074918Y-11826279D01*
X6074918Y-11816756D01*
X6084442Y-11797708D01*
X6103490Y-11788184D01*
X6132061Y-11788184D01*
X6151109Y-11797708D01*
X6227299Y-11997708D02*
X6236823Y-11988184D01*
X6255871Y-11959613D01*
X6265395Y-11940565D01*
X6274918Y-11911994D01*
X6284442Y-11864375D01*
X6284442Y-11826279D01*
X6274918Y-11778660D01*
X6265395Y-11750089D01*
X6255871Y-11731041D01*
X6236823Y-11702470D01*
X6227299Y-11692946D01*
D14*
X1214919Y-12045041D02*
X1214919Y-12145041D01*
X1164919Y-12095041D02*
X1264919Y-12095041D01*
D11*
X1627299Y-12185517D02*
X1513014Y-12185517D01*
X1570157Y-12185517D02*
X1570157Y-11985517D01*
X1551109Y-12014089D01*
X1532061Y-12033137D01*
X1513014Y-12042660D01*
X1713014Y-12166470D02*
X1722538Y-12175994D01*
X1713014Y-12185517D01*
X1703490Y-12175994D01*
X1713014Y-12166470D01*
X1713014Y-12185517D01*
X1846347Y-11985517D02*
X1865395Y-11985517D01*
X1884442Y-11995041D01*
X1893966Y-12004565D01*
X1903490Y-12023613D01*
X1913014Y-12061708D01*
X1913014Y-12109327D01*
X1903490Y-12147422D01*
X1893966Y-12166470D01*
X1884442Y-12175994D01*
X1865395Y-12185517D01*
X1846347Y-12185517D01*
X1827299Y-12175994D01*
X1817776Y-12166470D01*
X1808252Y-12147422D01*
X1798728Y-12109327D01*
X1798728Y-12061708D01*
X1808252Y-12023613D01*
X1817776Y-12004565D01*
X1827299Y-11995041D01*
X1846347Y-11985517D01*
X2036823Y-11985517D02*
X2055871Y-11985517D01*
X2074919Y-11995041D01*
X2084442Y-12004565D01*
X2093966Y-12023613D01*
X2103490Y-12061708D01*
X2103490Y-12109327D01*
X2093966Y-12147422D01*
X2084442Y-12166470D01*
X2074919Y-12175994D01*
X2055871Y-12185517D01*
X2036823Y-12185517D01*
X2017776Y-12175994D01*
X2008252Y-12166470D01*
X1998728Y-12147422D01*
X1989204Y-12109327D01*
X1989204Y-12061708D01*
X1998728Y-12023613D01*
X2008252Y-12004565D01*
X2017776Y-11995041D01*
X2036823Y-11985517D01*
X2227300Y-11985517D02*
X2246347Y-11985517D01*
X2265395Y-11995041D01*
X2274919Y-12004565D01*
X2284442Y-12023613D01*
X2293966Y-12061708D01*
X2293966Y-12109327D01*
X2284442Y-12147422D01*
X2274919Y-12166470D01*
X2265395Y-12175994D01*
X2246347Y-12185517D01*
X2227300Y-12185517D01*
X2208252Y-12175994D01*
X2198728Y-12166470D01*
X2189204Y-12147422D01*
X2179681Y-12109327D01*
X2179681Y-12061708D01*
X2189204Y-12023613D01*
X2198728Y-12004565D01*
X2208252Y-11995041D01*
X2227300Y-11985517D01*
X2379681Y-12185517D02*
X2379681Y-12052184D01*
X2379681Y-12071232D02*
X2389204Y-12061708D01*
X2408252Y-12052184D01*
X2436823Y-12052184D01*
X2455871Y-12061708D01*
X2465395Y-12080756D01*
X2465395Y-12185517D01*
X2465395Y-12080756D02*
X2474919Y-12061708D01*
X2493966Y-12052184D01*
X2522538Y-12052184D01*
X2541585Y-12061708D01*
X2551109Y-12080756D01*
X2551109Y-12185517D01*
X2646347Y-12185517D02*
X2646347Y-12052184D01*
X2646347Y-12071232D02*
X2655871Y-12061708D01*
X2674919Y-12052184D01*
X2703490Y-12052184D01*
X2722538Y-12061708D01*
X2732061Y-12080756D01*
X2732061Y-12185517D01*
X2732061Y-12080756D02*
X2741585Y-12061708D01*
X2760633Y-12052184D01*
X2789204Y-12052184D01*
X2808252Y-12061708D01*
X2817776Y-12080756D01*
X2817776Y-12185517D01*
X3208252Y-11975994D02*
X3036823Y-12233137D01*
X3465395Y-11985517D02*
X3484442Y-11985517D01*
X3503490Y-11995041D01*
X3513014Y-12004565D01*
X3522538Y-12023613D01*
X3532061Y-12061708D01*
X3532061Y-12109327D01*
X3522538Y-12147422D01*
X3513014Y-12166470D01*
X3503490Y-12175994D01*
X3484442Y-12185517D01*
X3465395Y-12185517D01*
X3446347Y-12175994D01*
X3436823Y-12166470D01*
X3427299Y-12147422D01*
X3417776Y-12109327D01*
X3417776Y-12061708D01*
X3427299Y-12023613D01*
X3436823Y-12004565D01*
X3446347Y-11995041D01*
X3465395Y-11985517D01*
X3617776Y-12166470D02*
X3627299Y-12175994D01*
X3617776Y-12185517D01*
X3608252Y-12175994D01*
X3617776Y-12166470D01*
X3617776Y-12185517D01*
X3751109Y-11985517D02*
X3770157Y-11985517D01*
X3789204Y-11995041D01*
X3798728Y-12004565D01*
X3808252Y-12023613D01*
X3817776Y-12061708D01*
X3817776Y-12109327D01*
X3808252Y-12147422D01*
X3798728Y-12166470D01*
X3789204Y-12175994D01*
X3770157Y-12185517D01*
X3751109Y-12185517D01*
X3732061Y-12175994D01*
X3722538Y-12166470D01*
X3713014Y-12147422D01*
X3703490Y-12109327D01*
X3703490Y-12061708D01*
X3713014Y-12023613D01*
X3722538Y-12004565D01*
X3732061Y-11995041D01*
X3751109Y-11985517D01*
X3884442Y-11985517D02*
X4008252Y-11985517D01*
X3941585Y-12061708D01*
X3970157Y-12061708D01*
X3989204Y-12071232D01*
X3998728Y-12080756D01*
X4008252Y-12099803D01*
X4008252Y-12147422D01*
X3998728Y-12166470D01*
X3989204Y-12175994D01*
X3970157Y-12185517D01*
X3913014Y-12185517D01*
X3893966Y-12175994D01*
X3884442Y-12166470D01*
X4103490Y-12185517D02*
X4141585Y-12185517D01*
X4160633Y-12175994D01*
X4170157Y-12166470D01*
X4189204Y-12137898D01*
X4198728Y-12099803D01*
X4198728Y-12023613D01*
X4189204Y-12004565D01*
X4179680Y-11995041D01*
X4160633Y-11985517D01*
X4122538Y-11985517D01*
X4103490Y-11995041D01*
X4093966Y-12004565D01*
X4084442Y-12023613D01*
X4084442Y-12071232D01*
X4093966Y-12090279D01*
X4103490Y-12099803D01*
X4122538Y-12109327D01*
X4160633Y-12109327D01*
X4179680Y-12099803D01*
X4189204Y-12090279D01*
X4198728Y-12071232D01*
X4370157Y-12052184D02*
X4370157Y-12185517D01*
X4322538Y-11975994D02*
X4274919Y-12118851D01*
X4398728Y-12118851D01*
X4465395Y-11985517D02*
X4465395Y-12023613D01*
X4541585Y-11985517D02*
X4541585Y-12023613D01*
X4836823Y-12261708D02*
X4827300Y-12252184D01*
X4808252Y-12223613D01*
X4798728Y-12204565D01*
X4789204Y-12175994D01*
X4779681Y-12128375D01*
X4779681Y-12090279D01*
X4789204Y-12042660D01*
X4798728Y-12014089D01*
X4808252Y-11995041D01*
X4827300Y-11966470D01*
X4836823Y-11956946D01*
X4903490Y-12004565D02*
X4913014Y-11995041D01*
X4932061Y-11985517D01*
X4979681Y-11985517D01*
X4998728Y-11995041D01*
X5008252Y-12004565D01*
X5017776Y-12023613D01*
X5017776Y-12042660D01*
X5008252Y-12071232D01*
X4893966Y-12185517D01*
X5017776Y-12185517D01*
X5208252Y-12185517D02*
X5093966Y-12185517D01*
X5151109Y-12185517D02*
X5151109Y-11985517D01*
X5132061Y-12014089D01*
X5113014Y-12033137D01*
X5093966Y-12042660D01*
X5446347Y-12185517D02*
X5446347Y-11985517D01*
X5532061Y-12185517D02*
X5532061Y-12080756D01*
X5522538Y-12061708D01*
X5503490Y-12052184D01*
X5474919Y-12052184D01*
X5455871Y-12061708D01*
X5446347Y-12071232D01*
X5655871Y-12185517D02*
X5636823Y-12175994D01*
X5627299Y-12166470D01*
X5617776Y-12147422D01*
X5617776Y-12090279D01*
X5627299Y-12071232D01*
X5636823Y-12061708D01*
X5655871Y-12052184D01*
X5684442Y-12052184D01*
X5703490Y-12061708D01*
X5713014Y-12071232D01*
X5722538Y-12090279D01*
X5722538Y-12147422D01*
X5713014Y-12166470D01*
X5703490Y-12175994D01*
X5684442Y-12185517D01*
X5655871Y-12185517D01*
X5836823Y-12185517D02*
X5817776Y-12175994D01*
X5808252Y-12156946D01*
X5808252Y-11985517D01*
X5989204Y-12175994D02*
X5970157Y-12185517D01*
X5932061Y-12185517D01*
X5913014Y-12175994D01*
X5903490Y-12156946D01*
X5903490Y-12080756D01*
X5913014Y-12061708D01*
X5932061Y-12052184D01*
X5970157Y-12052184D01*
X5989204Y-12061708D01*
X5998728Y-12080756D01*
X5998728Y-12099803D01*
X5903490Y-12118851D01*
X6074918Y-12175994D02*
X6093966Y-12185517D01*
X6132061Y-12185517D01*
X6151109Y-12175994D01*
X6160633Y-12156946D01*
X6160633Y-12147422D01*
X6151109Y-12128375D01*
X6132061Y-12118851D01*
X6103490Y-12118851D01*
X6084442Y-12109327D01*
X6074918Y-12090279D01*
X6074918Y-12080756D01*
X6084442Y-12061708D01*
X6103490Y-12052184D01*
X6132061Y-12052184D01*
X6151109Y-12061708D01*
X6227299Y-12261708D02*
X6236823Y-12252184D01*
X6255871Y-12223613D01*
X6265395Y-12204565D01*
X6274918Y-12175994D01*
X6284442Y-12128375D01*
X6284442Y-12090279D01*
X6274918Y-12042660D01*
X6265395Y-12014089D01*
X6255871Y-11995041D01*
X6236823Y-11966470D01*
X6227299Y-11956946D01*
D15*
X1247345Y-12401468D02*
X1247345Y-12316615D01*
X1162492Y-12316615D01*
X1162492Y-12401468D01*
X1247345Y-12401468D01*
D11*
X1627299Y-12449517D02*
X1513014Y-12449517D01*
X1570157Y-12449517D02*
X1570157Y-12249517D01*
X1551109Y-12278089D01*
X1532061Y-12297137D01*
X1513014Y-12306660D01*
X1713014Y-12430470D02*
X1722538Y-12439994D01*
X1713014Y-12449517D01*
X1703490Y-12439994D01*
X1713014Y-12430470D01*
X1713014Y-12449517D01*
X1798728Y-12268565D02*
X1808252Y-12259041D01*
X1827299Y-12249517D01*
X1874919Y-12249517D01*
X1893966Y-12259041D01*
X1903490Y-12268565D01*
X1913014Y-12287613D01*
X1913014Y-12306660D01*
X1903490Y-12335232D01*
X1789204Y-12449517D01*
X1913014Y-12449517D01*
X2036823Y-12249517D02*
X2055871Y-12249517D01*
X2074919Y-12259041D01*
X2084442Y-12268565D01*
X2093966Y-12287613D01*
X2103490Y-12325708D01*
X2103490Y-12373327D01*
X2093966Y-12411422D01*
X2084442Y-12430470D01*
X2074919Y-12439994D01*
X2055871Y-12449517D01*
X2036823Y-12449517D01*
X2017776Y-12439994D01*
X2008252Y-12430470D01*
X1998728Y-12411422D01*
X1989204Y-12373327D01*
X1989204Y-12325708D01*
X1998728Y-12287613D01*
X2008252Y-12268565D01*
X2017776Y-12259041D01*
X2036823Y-12249517D01*
X2227300Y-12249517D02*
X2246347Y-12249517D01*
X2265395Y-12259041D01*
X2274919Y-12268565D01*
X2284442Y-12287613D01*
X2293966Y-12325708D01*
X2293966Y-12373327D01*
X2284442Y-12411422D01*
X2274919Y-12430470D01*
X2265395Y-12439994D01*
X2246347Y-12449517D01*
X2227300Y-12449517D01*
X2208252Y-12439994D01*
X2198728Y-12430470D01*
X2189204Y-12411422D01*
X2179681Y-12373327D01*
X2179681Y-12325708D01*
X2189204Y-12287613D01*
X2198728Y-12268565D01*
X2208252Y-12259041D01*
X2227300Y-12249517D01*
X2379681Y-12449517D02*
X2379681Y-12316184D01*
X2379681Y-12335232D02*
X2389204Y-12325708D01*
X2408252Y-12316184D01*
X2436823Y-12316184D01*
X2455871Y-12325708D01*
X2465395Y-12344756D01*
X2465395Y-12449517D01*
X2465395Y-12344756D02*
X2474919Y-12325708D01*
X2493966Y-12316184D01*
X2522538Y-12316184D01*
X2541585Y-12325708D01*
X2551109Y-12344756D01*
X2551109Y-12449517D01*
X2646347Y-12449517D02*
X2646347Y-12316184D01*
X2646347Y-12335232D02*
X2655871Y-12325708D01*
X2674919Y-12316184D01*
X2703490Y-12316184D01*
X2722538Y-12325708D01*
X2732061Y-12344756D01*
X2732061Y-12449517D01*
X2732061Y-12344756D02*
X2741585Y-12325708D01*
X2760633Y-12316184D01*
X2789204Y-12316184D01*
X2808252Y-12325708D01*
X2817776Y-12344756D01*
X2817776Y-12449517D01*
X3208252Y-12239994D02*
X3036823Y-12497137D01*
X3465395Y-12249517D02*
X3484442Y-12249517D01*
X3503490Y-12259041D01*
X3513014Y-12268565D01*
X3522538Y-12287613D01*
X3532061Y-12325708D01*
X3532061Y-12373327D01*
X3522538Y-12411422D01*
X3513014Y-12430470D01*
X3503490Y-12439994D01*
X3484442Y-12449517D01*
X3465395Y-12449517D01*
X3446347Y-12439994D01*
X3436823Y-12430470D01*
X3427299Y-12411422D01*
X3417776Y-12373327D01*
X3417776Y-12325708D01*
X3427299Y-12287613D01*
X3436823Y-12268565D01*
X3446347Y-12259041D01*
X3465395Y-12249517D01*
X3617776Y-12430470D02*
X3627299Y-12439994D01*
X3617776Y-12449517D01*
X3608252Y-12439994D01*
X3617776Y-12430470D01*
X3617776Y-12449517D01*
X3751109Y-12249517D02*
X3770157Y-12249517D01*
X3789204Y-12259041D01*
X3798728Y-12268565D01*
X3808252Y-12287613D01*
X3817776Y-12325708D01*
X3817776Y-12373327D01*
X3808252Y-12411422D01*
X3798728Y-12430470D01*
X3789204Y-12439994D01*
X3770157Y-12449517D01*
X3751109Y-12449517D01*
X3732061Y-12439994D01*
X3722538Y-12430470D01*
X3713014Y-12411422D01*
X3703490Y-12373327D01*
X3703490Y-12325708D01*
X3713014Y-12287613D01*
X3722538Y-12268565D01*
X3732061Y-12259041D01*
X3751109Y-12249517D01*
X3989204Y-12316184D02*
X3989204Y-12449517D01*
X3941585Y-12239994D02*
X3893966Y-12382851D01*
X4017776Y-12382851D01*
X4074918Y-12249517D02*
X4208252Y-12249517D01*
X4122538Y-12449517D01*
X4274919Y-12268565D02*
X4284442Y-12259041D01*
X4303490Y-12249517D01*
X4351109Y-12249517D01*
X4370157Y-12259041D01*
X4379681Y-12268565D01*
X4389204Y-12287613D01*
X4389204Y-12306660D01*
X4379681Y-12335232D01*
X4265395Y-12449517D01*
X4389204Y-12449517D01*
X4465395Y-12249517D02*
X4465395Y-12287613D01*
X4541585Y-12249517D02*
X4541585Y-12287613D01*
X4836823Y-12525708D02*
X4827300Y-12516184D01*
X4808252Y-12487613D01*
X4798728Y-12468565D01*
X4789204Y-12439994D01*
X4779681Y-12392375D01*
X4779681Y-12354279D01*
X4789204Y-12306660D01*
X4798728Y-12278089D01*
X4808252Y-12259041D01*
X4827300Y-12230470D01*
X4836823Y-12220946D01*
X4998728Y-12316184D02*
X4998728Y-12449517D01*
X4951109Y-12239994D02*
X4903490Y-12382851D01*
X5027300Y-12382851D01*
X5255871Y-12449517D02*
X5255871Y-12249517D01*
X5341585Y-12449517D02*
X5341585Y-12344756D01*
X5332061Y-12325708D01*
X5313014Y-12316184D01*
X5284442Y-12316184D01*
X5265395Y-12325708D01*
X5255871Y-12335232D01*
X5465395Y-12449517D02*
X5446347Y-12439994D01*
X5436823Y-12430470D01*
X5427300Y-12411422D01*
X5427300Y-12354279D01*
X5436823Y-12335232D01*
X5446347Y-12325708D01*
X5465395Y-12316184D01*
X5493966Y-12316184D01*
X5513014Y-12325708D01*
X5522538Y-12335232D01*
X5532061Y-12354279D01*
X5532061Y-12411422D01*
X5522538Y-12430470D01*
X5513014Y-12439994D01*
X5493966Y-12449517D01*
X5465395Y-12449517D01*
X5646347Y-12449517D02*
X5627299Y-12439994D01*
X5617776Y-12420946D01*
X5617776Y-12249517D01*
X5798728Y-12439994D02*
X5779680Y-12449517D01*
X5741585Y-12449517D01*
X5722538Y-12439994D01*
X5713014Y-12420946D01*
X5713014Y-12344756D01*
X5722538Y-12325708D01*
X5741585Y-12316184D01*
X5779680Y-12316184D01*
X5798728Y-12325708D01*
X5808252Y-12344756D01*
X5808252Y-12363803D01*
X5713014Y-12382851D01*
X5884442Y-12439994D02*
X5903490Y-12449517D01*
X5941585Y-12449517D01*
X5960633Y-12439994D01*
X5970157Y-12420946D01*
X5970157Y-12411422D01*
X5960633Y-12392375D01*
X5941585Y-12382851D01*
X5913014Y-12382851D01*
X5893966Y-12373327D01*
X5884442Y-12354279D01*
X5884442Y-12344756D01*
X5893966Y-12325708D01*
X5913014Y-12316184D01*
X5941585Y-12316184D01*
X5960633Y-12325708D01*
X6036823Y-12525708D02*
X6046347Y-12516184D01*
X6065395Y-12487613D01*
X6074918Y-12468565D01*
X6084442Y-12439994D01*
X6093966Y-12392375D01*
X6093966Y-12354279D01*
X6084442Y-12306660D01*
X6074918Y-12278089D01*
X6065395Y-12259041D01*
X6046347Y-12230470D01*
X6036823Y-12220946D01*
D16*
X1178559Y-12709401D02*
X1264919Y-12623041D01*
X1178559Y-12536681D01*
X1092199Y-12623041D01*
X1178559Y-12709401D01*
D11*
X1627299Y-12713517D02*
X1513014Y-12713517D01*
X1570157Y-12713517D02*
X1570157Y-12513517D01*
X1551109Y-12542089D01*
X1532061Y-12561137D01*
X1513014Y-12570660D01*
X1713014Y-12694470D02*
X1722538Y-12703994D01*
X1713014Y-12713517D01*
X1703490Y-12703994D01*
X1713014Y-12694470D01*
X1713014Y-12713517D01*
X1789204Y-12513517D02*
X1922538Y-12513517D01*
X1836823Y-12713517D01*
X1989204Y-12532565D02*
X1998728Y-12523041D01*
X2017776Y-12513517D01*
X2065395Y-12513517D01*
X2084442Y-12523041D01*
X2093966Y-12532565D01*
X2103490Y-12551613D01*
X2103490Y-12570660D01*
X2093966Y-12599232D01*
X1979680Y-12713517D01*
X2103490Y-12713517D01*
X2170157Y-12513517D02*
X2303490Y-12513517D01*
X2217776Y-12713517D01*
X2379681Y-12713517D02*
X2379681Y-12580184D01*
X2379681Y-12599232D02*
X2389204Y-12589708D01*
X2408252Y-12580184D01*
X2436823Y-12580184D01*
X2455871Y-12589708D01*
X2465395Y-12608756D01*
X2465395Y-12713517D01*
X2465395Y-12608756D02*
X2474919Y-12589708D01*
X2493966Y-12580184D01*
X2522538Y-12580184D01*
X2541585Y-12589708D01*
X2551109Y-12608756D01*
X2551109Y-12713517D01*
X2646347Y-12713517D02*
X2646347Y-12580184D01*
X2646347Y-12599232D02*
X2655871Y-12589708D01*
X2674919Y-12580184D01*
X2703490Y-12580184D01*
X2722538Y-12589708D01*
X2732061Y-12608756D01*
X2732061Y-12713517D01*
X2732061Y-12608756D02*
X2741585Y-12589708D01*
X2760633Y-12580184D01*
X2789204Y-12580184D01*
X2808252Y-12589708D01*
X2817776Y-12608756D01*
X2817776Y-12713517D01*
X3208252Y-12503994D02*
X3036823Y-12761137D01*
X3465395Y-12513517D02*
X3484442Y-12513517D01*
X3503490Y-12523041D01*
X3513014Y-12532565D01*
X3522538Y-12551613D01*
X3532061Y-12589708D01*
X3532061Y-12637327D01*
X3522538Y-12675422D01*
X3513014Y-12694470D01*
X3503490Y-12703994D01*
X3484442Y-12713517D01*
X3465395Y-12713517D01*
X3446347Y-12703994D01*
X3436823Y-12694470D01*
X3427299Y-12675422D01*
X3417776Y-12637327D01*
X3417776Y-12589708D01*
X3427299Y-12551613D01*
X3436823Y-12532565D01*
X3446347Y-12523041D01*
X3465395Y-12513517D01*
X3617776Y-12694470D02*
X3627299Y-12703994D01*
X3617776Y-12713517D01*
X3608252Y-12703994D01*
X3617776Y-12694470D01*
X3617776Y-12713517D01*
X3751109Y-12513517D02*
X3770157Y-12513517D01*
X3789204Y-12523041D01*
X3798728Y-12532565D01*
X3808252Y-12551613D01*
X3817776Y-12589708D01*
X3817776Y-12637327D01*
X3808252Y-12675422D01*
X3798728Y-12694470D01*
X3789204Y-12703994D01*
X3770157Y-12713517D01*
X3751109Y-12713517D01*
X3732061Y-12703994D01*
X3722538Y-12694470D01*
X3713014Y-12675422D01*
X3703490Y-12637327D01*
X3703490Y-12589708D01*
X3713014Y-12551613D01*
X3722538Y-12532565D01*
X3732061Y-12523041D01*
X3751109Y-12513517D01*
X3989204Y-12513517D02*
X3951109Y-12513517D01*
X3932061Y-12523041D01*
X3922538Y-12532565D01*
X3903490Y-12561137D01*
X3893966Y-12599232D01*
X3893966Y-12675422D01*
X3903490Y-12694470D01*
X3913014Y-12703994D01*
X3932061Y-12713517D01*
X3970157Y-12713517D01*
X3989204Y-12703994D01*
X3998728Y-12694470D01*
X4008252Y-12675422D01*
X4008252Y-12627803D01*
X3998728Y-12608756D01*
X3989204Y-12599232D01*
X3970157Y-12589708D01*
X3932061Y-12589708D01*
X3913014Y-12599232D01*
X3903490Y-12608756D01*
X3893966Y-12627803D01*
X4122538Y-12599232D02*
X4103490Y-12589708D01*
X4093966Y-12580184D01*
X4084442Y-12561137D01*
X4084442Y-12551613D01*
X4093966Y-12532565D01*
X4103490Y-12523041D01*
X4122538Y-12513517D01*
X4160633Y-12513517D01*
X4179680Y-12523041D01*
X4189204Y-12532565D01*
X4198728Y-12551613D01*
X4198728Y-12561137D01*
X4189204Y-12580184D01*
X4179680Y-12589708D01*
X4160633Y-12599232D01*
X4122538Y-12599232D01*
X4103490Y-12608756D01*
X4093966Y-12618279D01*
X4084442Y-12637327D01*
X4084442Y-12675422D01*
X4093966Y-12694470D01*
X4103490Y-12703994D01*
X4122538Y-12713517D01*
X4160633Y-12713517D01*
X4179680Y-12703994D01*
X4189204Y-12694470D01*
X4198728Y-12675422D01*
X4198728Y-12637327D01*
X4189204Y-12618279D01*
X4179680Y-12608756D01*
X4160633Y-12599232D01*
X4322538Y-12513517D02*
X4341585Y-12513517D01*
X4360633Y-12523041D01*
X4370157Y-12532565D01*
X4379681Y-12551613D01*
X4389204Y-12589708D01*
X4389204Y-12637327D01*
X4379681Y-12675422D01*
X4370157Y-12694470D01*
X4360633Y-12703994D01*
X4341585Y-12713517D01*
X4322538Y-12713517D01*
X4303490Y-12703994D01*
X4293966Y-12694470D01*
X4284442Y-12675422D01*
X4274919Y-12637327D01*
X4274919Y-12589708D01*
X4284442Y-12551613D01*
X4293966Y-12532565D01*
X4303490Y-12523041D01*
X4322538Y-12513517D01*
X4465395Y-12513517D02*
X4465395Y-12551613D01*
X4541585Y-12513517D02*
X4541585Y-12551613D01*
X4836823Y-12789708D02*
X4827300Y-12780184D01*
X4808252Y-12751613D01*
X4798728Y-12732565D01*
X4789204Y-12703994D01*
X4779681Y-12656375D01*
X4779681Y-12618279D01*
X4789204Y-12570660D01*
X4798728Y-12542089D01*
X4808252Y-12523041D01*
X4827300Y-12494470D01*
X4836823Y-12484946D01*
X4998728Y-12580184D02*
X4998728Y-12713517D01*
X4951109Y-12503994D02*
X4903490Y-12646851D01*
X5027300Y-12646851D01*
X5255871Y-12713517D02*
X5255871Y-12513517D01*
X5341585Y-12713517D02*
X5341585Y-12608756D01*
X5332061Y-12589708D01*
X5313014Y-12580184D01*
X5284442Y-12580184D01*
X5265395Y-12589708D01*
X5255871Y-12599232D01*
X5465395Y-12713517D02*
X5446347Y-12703994D01*
X5436823Y-12694470D01*
X5427300Y-12675422D01*
X5427300Y-12618279D01*
X5436823Y-12599232D01*
X5446347Y-12589708D01*
X5465395Y-12580184D01*
X5493966Y-12580184D01*
X5513014Y-12589708D01*
X5522538Y-12599232D01*
X5532061Y-12618279D01*
X5532061Y-12675422D01*
X5522538Y-12694470D01*
X5513014Y-12703994D01*
X5493966Y-12713517D01*
X5465395Y-12713517D01*
X5646347Y-12713517D02*
X5627299Y-12703994D01*
X5617776Y-12684946D01*
X5617776Y-12513517D01*
X5798728Y-12703994D02*
X5779680Y-12713517D01*
X5741585Y-12713517D01*
X5722538Y-12703994D01*
X5713014Y-12684946D01*
X5713014Y-12608756D01*
X5722538Y-12589708D01*
X5741585Y-12580184D01*
X5779680Y-12580184D01*
X5798728Y-12589708D01*
X5808252Y-12608756D01*
X5808252Y-12627803D01*
X5713014Y-12646851D01*
X5884442Y-12703994D02*
X5903490Y-12713517D01*
X5941585Y-12713517D01*
X5960633Y-12703994D01*
X5970157Y-12684946D01*
X5970157Y-12675422D01*
X5960633Y-12656375D01*
X5941585Y-12646851D01*
X5913014Y-12646851D01*
X5893966Y-12637327D01*
X5884442Y-12618279D01*
X5884442Y-12608756D01*
X5893966Y-12589708D01*
X5913014Y-12580184D01*
X5941585Y-12580184D01*
X5960633Y-12589708D01*
X6036823Y-12789708D02*
X6046347Y-12780184D01*
X6065395Y-12751613D01*
X6074918Y-12732565D01*
X6084442Y-12703994D01*
X6093966Y-12656375D01*
X6093966Y-12618279D01*
X6084442Y-12570660D01*
X6074918Y-12542089D01*
X6065395Y-12523041D01*
X6046347Y-12494470D01*
X6036823Y-12484946D01*
X1064919Y-12815761D02*
X1264919Y-13015761D01*
X1264919Y-12815761D02*
X1064919Y-13015761D01*
X1264919Y-12915761D02*
G75*
G03*
X1264919Y-12915761I-100000J0D01*
G01*
X1503490Y-12806237D02*
X1627299Y-12806237D01*
X1560633Y-12882428D01*
X1589204Y-12882428D01*
X1608252Y-12891952D01*
X1617776Y-12901476D01*
X1627299Y-12920523D01*
X1627299Y-12968142D01*
X1617776Y-12987190D01*
X1608252Y-12996714D01*
X1589204Y-13006237D01*
X1532061Y-13006237D01*
X1513014Y-12996714D01*
X1503490Y-12987190D01*
X1713014Y-12987190D02*
X1722538Y-12996714D01*
X1713014Y-13006237D01*
X1703490Y-12996714D01*
X1713014Y-12987190D01*
X1713014Y-13006237D01*
X1798728Y-12825285D02*
X1808252Y-12815761D01*
X1827299Y-12806237D01*
X1874919Y-12806237D01*
X1893966Y-12815761D01*
X1903490Y-12825285D01*
X1913014Y-12844333D01*
X1913014Y-12863380D01*
X1903490Y-12891952D01*
X1789204Y-13006237D01*
X1913014Y-13006237D01*
X2036823Y-12806237D02*
X2055871Y-12806237D01*
X2074919Y-12815761D01*
X2084442Y-12825285D01*
X2093966Y-12844333D01*
X2103490Y-12882428D01*
X2103490Y-12930047D01*
X2093966Y-12968142D01*
X2084442Y-12987190D01*
X2074919Y-12996714D01*
X2055871Y-13006237D01*
X2036823Y-13006237D01*
X2017776Y-12996714D01*
X2008252Y-12987190D01*
X1998728Y-12968142D01*
X1989204Y-12930047D01*
X1989204Y-12882428D01*
X1998728Y-12844333D01*
X2008252Y-12825285D01*
X2017776Y-12815761D01*
X2036823Y-12806237D01*
X2227300Y-12806237D02*
X2246347Y-12806237D01*
X2265395Y-12815761D01*
X2274919Y-12825285D01*
X2284442Y-12844333D01*
X2293966Y-12882428D01*
X2293966Y-12930047D01*
X2284442Y-12968142D01*
X2274919Y-12987190D01*
X2265395Y-12996714D01*
X2246347Y-13006237D01*
X2227300Y-13006237D01*
X2208252Y-12996714D01*
X2198728Y-12987190D01*
X2189204Y-12968142D01*
X2179681Y-12930047D01*
X2179681Y-12882428D01*
X2189204Y-12844333D01*
X2198728Y-12825285D01*
X2208252Y-12815761D01*
X2227300Y-12806237D01*
X2379681Y-13006237D02*
X2379681Y-12872904D01*
X2379681Y-12891952D02*
X2389204Y-12882428D01*
X2408252Y-12872904D01*
X2436823Y-12872904D01*
X2455871Y-12882428D01*
X2465395Y-12901476D01*
X2465395Y-13006237D01*
X2465395Y-12901476D02*
X2474919Y-12882428D01*
X2493966Y-12872904D01*
X2522538Y-12872904D01*
X2541585Y-12882428D01*
X2551109Y-12901476D01*
X2551109Y-13006237D01*
X2646347Y-13006237D02*
X2646347Y-12872904D01*
X2646347Y-12891952D02*
X2655871Y-12882428D01*
X2674919Y-12872904D01*
X2703490Y-12872904D01*
X2722538Y-12882428D01*
X2732061Y-12901476D01*
X2732061Y-13006237D01*
X2732061Y-12901476D02*
X2741585Y-12882428D01*
X2760633Y-12872904D01*
X2789204Y-12872904D01*
X2808252Y-12882428D01*
X2817776Y-12901476D01*
X2817776Y-13006237D01*
X3208252Y-12796714D02*
X3036823Y-13053857D01*
X3465395Y-12806237D02*
X3484442Y-12806237D01*
X3503490Y-12815761D01*
X3513014Y-12825285D01*
X3522538Y-12844333D01*
X3532061Y-12882428D01*
X3532061Y-12930047D01*
X3522538Y-12968142D01*
X3513014Y-12987190D01*
X3503490Y-12996714D01*
X3484442Y-13006237D01*
X3465395Y-13006237D01*
X3446347Y-12996714D01*
X3436823Y-12987190D01*
X3427299Y-12968142D01*
X3417776Y-12930047D01*
X3417776Y-12882428D01*
X3427299Y-12844333D01*
X3436823Y-12825285D01*
X3446347Y-12815761D01*
X3465395Y-12806237D01*
X3617776Y-12987190D02*
X3627299Y-12996714D01*
X3617776Y-13006237D01*
X3608252Y-12996714D01*
X3617776Y-12987190D01*
X3617776Y-13006237D01*
X3817776Y-13006237D02*
X3703490Y-13006237D01*
X3760633Y-13006237D02*
X3760633Y-12806237D01*
X3741585Y-12834809D01*
X3722538Y-12853857D01*
X3703490Y-12863380D01*
X3893966Y-12825285D02*
X3903490Y-12815761D01*
X3922538Y-12806237D01*
X3970157Y-12806237D01*
X3989204Y-12815761D01*
X3998728Y-12825285D01*
X4008252Y-12844333D01*
X4008252Y-12863380D01*
X3998728Y-12891952D01*
X3884442Y-13006237D01*
X4008252Y-13006237D01*
X4179680Y-12806237D02*
X4141585Y-12806237D01*
X4122538Y-12815761D01*
X4113014Y-12825285D01*
X4093966Y-12853857D01*
X4084442Y-12891952D01*
X4084442Y-12968142D01*
X4093966Y-12987190D01*
X4103490Y-12996714D01*
X4122538Y-13006237D01*
X4160633Y-13006237D01*
X4179680Y-12996714D01*
X4189204Y-12987190D01*
X4198728Y-12968142D01*
X4198728Y-12920523D01*
X4189204Y-12901476D01*
X4179680Y-12891952D01*
X4160633Y-12882428D01*
X4122538Y-12882428D01*
X4103490Y-12891952D01*
X4093966Y-12901476D01*
X4084442Y-12920523D01*
X4322538Y-12806237D02*
X4341585Y-12806237D01*
X4360633Y-12815761D01*
X4370157Y-12825285D01*
X4379681Y-12844333D01*
X4389204Y-12882428D01*
X4389204Y-12930047D01*
X4379681Y-12968142D01*
X4370157Y-12987190D01*
X4360633Y-12996714D01*
X4341585Y-13006237D01*
X4322538Y-13006237D01*
X4303490Y-12996714D01*
X4293966Y-12987190D01*
X4284442Y-12968142D01*
X4274919Y-12930047D01*
X4274919Y-12882428D01*
X4284442Y-12844333D01*
X4293966Y-12825285D01*
X4303490Y-12815761D01*
X4322538Y-12806237D01*
X4465395Y-12806237D02*
X4465395Y-12844333D01*
X4541585Y-12806237D02*
X4541585Y-12844333D01*
X4836823Y-13082428D02*
X4827300Y-13072904D01*
X4808252Y-13044333D01*
X4798728Y-13025285D01*
X4789204Y-12996714D01*
X4779681Y-12949095D01*
X4779681Y-12910999D01*
X4789204Y-12863380D01*
X4798728Y-12834809D01*
X4808252Y-12815761D01*
X4827300Y-12787190D01*
X4836823Y-12777666D01*
X4903490Y-12825285D02*
X4913014Y-12815761D01*
X4932061Y-12806237D01*
X4979681Y-12806237D01*
X4998728Y-12815761D01*
X5008252Y-12825285D01*
X5017776Y-12844333D01*
X5017776Y-12863380D01*
X5008252Y-12891952D01*
X4893966Y-13006237D01*
X5017776Y-13006237D01*
X5255871Y-13006237D02*
X5255871Y-12806237D01*
X5341585Y-13006237D02*
X5341585Y-12901476D01*
X5332061Y-12882428D01*
X5313014Y-12872904D01*
X5284442Y-12872904D01*
X5265395Y-12882428D01*
X5255871Y-12891952D01*
X5465395Y-13006237D02*
X5446347Y-12996714D01*
X5436823Y-12987190D01*
X5427300Y-12968142D01*
X5427300Y-12910999D01*
X5436823Y-12891952D01*
X5446347Y-12882428D01*
X5465395Y-12872904D01*
X5493966Y-12872904D01*
X5513014Y-12882428D01*
X5522538Y-12891952D01*
X5532061Y-12910999D01*
X5532061Y-12968142D01*
X5522538Y-12987190D01*
X5513014Y-12996714D01*
X5493966Y-13006237D01*
X5465395Y-13006237D01*
X5646347Y-13006237D02*
X5627299Y-12996714D01*
X5617776Y-12977666D01*
X5617776Y-12806237D01*
X5798728Y-12996714D02*
X5779680Y-13006237D01*
X5741585Y-13006237D01*
X5722538Y-12996714D01*
X5713014Y-12977666D01*
X5713014Y-12901476D01*
X5722538Y-12882428D01*
X5741585Y-12872904D01*
X5779680Y-12872904D01*
X5798728Y-12882428D01*
X5808252Y-12901476D01*
X5808252Y-12920523D01*
X5713014Y-12939571D01*
X5884442Y-12996714D02*
X5903490Y-13006237D01*
X5941585Y-13006237D01*
X5960633Y-12996714D01*
X5970157Y-12977666D01*
X5970157Y-12968142D01*
X5960633Y-12949095D01*
X5941585Y-12939571D01*
X5913014Y-12939571D01*
X5893966Y-12930047D01*
X5884442Y-12910999D01*
X5884442Y-12901476D01*
X5893966Y-12882428D01*
X5913014Y-12872904D01*
X5941585Y-12872904D01*
X5960633Y-12882428D01*
X6036823Y-13082428D02*
X6046347Y-13072904D01*
X6065395Y-13044333D01*
X6074918Y-13025285D01*
X6084442Y-12996714D01*
X6093966Y-12949095D01*
X6093966Y-12910999D01*
X6084442Y-12863380D01*
X6074918Y-12834809D01*
X6065395Y-12815761D01*
X6046347Y-12787190D01*
X6036823Y-12777666D01*
X1064919Y-13135761D02*
X1264919Y-13335761D01*
X1264919Y-13135761D02*
X1064919Y-13335761D01*
X1164919Y-13135761D02*
X1164919Y-13335761D01*
X1064919Y-13235761D02*
X1264919Y-13235761D01*
X1513014Y-13145285D02*
X1522538Y-13135761D01*
X1541585Y-13126237D01*
X1589204Y-13126237D01*
X1608252Y-13135761D01*
X1617776Y-13145285D01*
X1627299Y-13164333D01*
X1627299Y-13183380D01*
X1617776Y-13211952D01*
X1503490Y-13326237D01*
X1627299Y-13326237D01*
X1713014Y-13307190D02*
X1722538Y-13316714D01*
X1713014Y-13326237D01*
X1703490Y-13316714D01*
X1713014Y-13307190D01*
X1713014Y-13326237D01*
X1913014Y-13326237D02*
X1798728Y-13326237D01*
X1855871Y-13326237D02*
X1855871Y-13126237D01*
X1836823Y-13154809D01*
X1817776Y-13173857D01*
X1798728Y-13183380D01*
X2036823Y-13126237D02*
X2055871Y-13126237D01*
X2074919Y-13135761D01*
X2084442Y-13145285D01*
X2093966Y-13164333D01*
X2103490Y-13202428D01*
X2103490Y-13250047D01*
X2093966Y-13288142D01*
X2084442Y-13307190D01*
X2074919Y-13316714D01*
X2055871Y-13326237D01*
X2036823Y-13326237D01*
X2017776Y-13316714D01*
X2008252Y-13307190D01*
X1998728Y-13288142D01*
X1989204Y-13250047D01*
X1989204Y-13202428D01*
X1998728Y-13164333D01*
X2008252Y-13145285D01*
X2017776Y-13135761D01*
X2036823Y-13126237D01*
X2227300Y-13126237D02*
X2246347Y-13126237D01*
X2265395Y-13135761D01*
X2274919Y-13145285D01*
X2284442Y-13164333D01*
X2293966Y-13202428D01*
X2293966Y-13250047D01*
X2284442Y-13288142D01*
X2274919Y-13307190D01*
X2265395Y-13316714D01*
X2246347Y-13326237D01*
X2227300Y-13326237D01*
X2208252Y-13316714D01*
X2198728Y-13307190D01*
X2189204Y-13288142D01*
X2179681Y-13250047D01*
X2179681Y-13202428D01*
X2189204Y-13164333D01*
X2198728Y-13145285D01*
X2208252Y-13135761D01*
X2227300Y-13126237D01*
X2379681Y-13326237D02*
X2379681Y-13192904D01*
X2379681Y-13211952D02*
X2389204Y-13202428D01*
X2408252Y-13192904D01*
X2436823Y-13192904D01*
X2455871Y-13202428D01*
X2465395Y-13221476D01*
X2465395Y-13326237D01*
X2465395Y-13221476D02*
X2474919Y-13202428D01*
X2493966Y-13192904D01*
X2522538Y-13192904D01*
X2541585Y-13202428D01*
X2551109Y-13221476D01*
X2551109Y-13326237D01*
X2646347Y-13326237D02*
X2646347Y-13192904D01*
X2646347Y-13211952D02*
X2655871Y-13202428D01*
X2674919Y-13192904D01*
X2703490Y-13192904D01*
X2722538Y-13202428D01*
X2732061Y-13221476D01*
X2732061Y-13326237D01*
X2732061Y-13221476D02*
X2741585Y-13202428D01*
X2760633Y-13192904D01*
X2789204Y-13192904D01*
X2808252Y-13202428D01*
X2817776Y-13221476D01*
X2817776Y-13326237D01*
X3208252Y-13116714D02*
X3036823Y-13373857D01*
X3465395Y-13126237D02*
X3484442Y-13126237D01*
X3503490Y-13135761D01*
X3513014Y-13145285D01*
X3522538Y-13164333D01*
X3532061Y-13202428D01*
X3532061Y-13250047D01*
X3522538Y-13288142D01*
X3513014Y-13307190D01*
X3503490Y-13316714D01*
X3484442Y-13326237D01*
X3465395Y-13326237D01*
X3446347Y-13316714D01*
X3436823Y-13307190D01*
X3427299Y-13288142D01*
X3417776Y-13250047D01*
X3417776Y-13202428D01*
X3427299Y-13164333D01*
X3436823Y-13145285D01*
X3446347Y-13135761D01*
X3465395Y-13126237D01*
X3617776Y-13307190D02*
X3627299Y-13316714D01*
X3617776Y-13326237D01*
X3608252Y-13316714D01*
X3617776Y-13307190D01*
X3617776Y-13326237D01*
X3751109Y-13126237D02*
X3770157Y-13126237D01*
X3789204Y-13135761D01*
X3798728Y-13145285D01*
X3808252Y-13164333D01*
X3817776Y-13202428D01*
X3817776Y-13250047D01*
X3808252Y-13288142D01*
X3798728Y-13307190D01*
X3789204Y-13316714D01*
X3770157Y-13326237D01*
X3751109Y-13326237D01*
X3732061Y-13316714D01*
X3722538Y-13307190D01*
X3713014Y-13288142D01*
X3703490Y-13250047D01*
X3703490Y-13202428D01*
X3713014Y-13164333D01*
X3722538Y-13145285D01*
X3732061Y-13135761D01*
X3751109Y-13126237D01*
X3932061Y-13211952D02*
X3913014Y-13202428D01*
X3903490Y-13192904D01*
X3893966Y-13173857D01*
X3893966Y-13164333D01*
X3903490Y-13145285D01*
X3913014Y-13135761D01*
X3932061Y-13126237D01*
X3970157Y-13126237D01*
X3989204Y-13135761D01*
X3998728Y-13145285D01*
X4008252Y-13164333D01*
X4008252Y-13173857D01*
X3998728Y-13192904D01*
X3989204Y-13202428D01*
X3970157Y-13211952D01*
X3932061Y-13211952D01*
X3913014Y-13221476D01*
X3903490Y-13230999D01*
X3893966Y-13250047D01*
X3893966Y-13288142D01*
X3903490Y-13307190D01*
X3913014Y-13316714D01*
X3932061Y-13326237D01*
X3970157Y-13326237D01*
X3989204Y-13316714D01*
X3998728Y-13307190D01*
X4008252Y-13288142D01*
X4008252Y-13250047D01*
X3998728Y-13230999D01*
X3989204Y-13221476D01*
X3970157Y-13211952D01*
X4084442Y-13145285D02*
X4093966Y-13135761D01*
X4113014Y-13126237D01*
X4160633Y-13126237D01*
X4179680Y-13135761D01*
X4189204Y-13145285D01*
X4198728Y-13164333D01*
X4198728Y-13183380D01*
X4189204Y-13211952D01*
X4074918Y-13326237D01*
X4198728Y-13326237D01*
X4265395Y-13126237D02*
X4398728Y-13126237D01*
X4313014Y-13326237D01*
X4465395Y-13126237D02*
X4465395Y-13164333D01*
X4541585Y-13126237D02*
X4541585Y-13164333D01*
X4836823Y-13402428D02*
X4827300Y-13392904D01*
X4808252Y-13364333D01*
X4798728Y-13345285D01*
X4789204Y-13316714D01*
X4779681Y-13269095D01*
X4779681Y-13230999D01*
X4789204Y-13183380D01*
X4798728Y-13154809D01*
X4808252Y-13135761D01*
X4827300Y-13107190D01*
X4836823Y-13097666D01*
X4998728Y-13192904D02*
X4998728Y-13326237D01*
X4951109Y-13116714D02*
X4903490Y-13259571D01*
X5027300Y-13259571D01*
X5255871Y-13326237D02*
X5255871Y-13126237D01*
X5341585Y-13326237D02*
X5341585Y-13221476D01*
X5332061Y-13202428D01*
X5313014Y-13192904D01*
X5284442Y-13192904D01*
X5265395Y-13202428D01*
X5255871Y-13211952D01*
X5465395Y-13326237D02*
X5446347Y-13316714D01*
X5436823Y-13307190D01*
X5427300Y-13288142D01*
X5427300Y-13230999D01*
X5436823Y-13211952D01*
X5446347Y-13202428D01*
X5465395Y-13192904D01*
X5493966Y-13192904D01*
X5513014Y-13202428D01*
X5522538Y-13211952D01*
X5532061Y-13230999D01*
X5532061Y-13288142D01*
X5522538Y-13307190D01*
X5513014Y-13316714D01*
X5493966Y-13326237D01*
X5465395Y-13326237D01*
X5646347Y-13326237D02*
X5627299Y-13316714D01*
X5617776Y-13297666D01*
X5617776Y-13126237D01*
X5798728Y-13316714D02*
X5779680Y-13326237D01*
X5741585Y-13326237D01*
X5722538Y-13316714D01*
X5713014Y-13297666D01*
X5713014Y-13221476D01*
X5722538Y-13202428D01*
X5741585Y-13192904D01*
X5779680Y-13192904D01*
X5798728Y-13202428D01*
X5808252Y-13221476D01*
X5808252Y-13240523D01*
X5713014Y-13259571D01*
X5884442Y-13316714D02*
X5903490Y-13326237D01*
X5941585Y-13326237D01*
X5960633Y-13316714D01*
X5970157Y-13297666D01*
X5970157Y-13288142D01*
X5960633Y-13269095D01*
X5941585Y-13259571D01*
X5913014Y-13259571D01*
X5893966Y-13250047D01*
X5884442Y-13230999D01*
X5884442Y-13221476D01*
X5893966Y-13202428D01*
X5913014Y-13192904D01*
X5941585Y-13192904D01*
X5960633Y-13202428D01*
X6036823Y-13402428D02*
X6046347Y-13392904D01*
X6065395Y-13364333D01*
X6074918Y-13345285D01*
X6084442Y-13316714D01*
X6093966Y-13269095D01*
X6093966Y-13230999D01*
X6084442Y-13183380D01*
X6074918Y-13154809D01*
X6065395Y-13135761D01*
X6046347Y-13107190D01*
X6036823Y-13097666D01*
X6398728Y-13402428D02*
X6389204Y-13392904D01*
X6370157Y-13364333D01*
X6360633Y-13345285D01*
X6351109Y-13316714D01*
X6341585Y-13269095D01*
X6341585Y-13230999D01*
X6351109Y-13183380D01*
X6360633Y-13154809D01*
X6370157Y-13135761D01*
X6389204Y-13107190D01*
X6398728Y-13097666D01*
X6474918Y-13192904D02*
X6474918Y-13326237D01*
X6474918Y-13211952D02*
X6484442Y-13202428D01*
X6503490Y-13192904D01*
X6532061Y-13192904D01*
X6551109Y-13202428D01*
X6560633Y-13221476D01*
X6560633Y-13326237D01*
X6684442Y-13326237D02*
X6665395Y-13316714D01*
X6655871Y-13307190D01*
X6646347Y-13288142D01*
X6646347Y-13230999D01*
X6655871Y-13211952D01*
X6665395Y-13202428D01*
X6684442Y-13192904D01*
X6713014Y-13192904D01*
X6732061Y-13202428D01*
X6741585Y-13211952D01*
X6751109Y-13230999D01*
X6751109Y-13288142D01*
X6741585Y-13307190D01*
X6732061Y-13316714D01*
X6713014Y-13326237D01*
X6684442Y-13326237D01*
X6808252Y-13192904D02*
X6884442Y-13192904D01*
X6836823Y-13126237D02*
X6836823Y-13297666D01*
X6846347Y-13316714D01*
X6865395Y-13326237D01*
X6884442Y-13326237D01*
X7103490Y-13192904D02*
X7103490Y-13392904D01*
X7103490Y-13202428D02*
X7122538Y-13192904D01*
X7160633Y-13192904D01*
X7179680Y-13202428D01*
X7189204Y-13211952D01*
X7198728Y-13230999D01*
X7198728Y-13288142D01*
X7189204Y-13307190D01*
X7179680Y-13316714D01*
X7160633Y-13326237D01*
X7122538Y-13326237D01*
X7103490Y-13316714D01*
X7313014Y-13326237D02*
X7293966Y-13316714D01*
X7284442Y-13297666D01*
X7284442Y-13126237D01*
X7474918Y-13326237D02*
X7474918Y-13221476D01*
X7465395Y-13202428D01*
X7446347Y-13192904D01*
X7408252Y-13192904D01*
X7389204Y-13202428D01*
X7474918Y-13316714D02*
X7455871Y-13326237D01*
X7408252Y-13326237D01*
X7389204Y-13316714D01*
X7379680Y-13297666D01*
X7379680Y-13278618D01*
X7389204Y-13259571D01*
X7408252Y-13250047D01*
X7455871Y-13250047D01*
X7474918Y-13240523D01*
X7541585Y-13192904D02*
X7617776Y-13192904D01*
X7570157Y-13126237D02*
X7570157Y-13297666D01*
X7579680Y-13316714D01*
X7598728Y-13326237D01*
X7617776Y-13326237D01*
X7760633Y-13316714D02*
X7741585Y-13326237D01*
X7703490Y-13326237D01*
X7684442Y-13316714D01*
X7674918Y-13297666D01*
X7674918Y-13221476D01*
X7684442Y-13202428D01*
X7703490Y-13192904D01*
X7741585Y-13192904D01*
X7760633Y-13202428D01*
X7770157Y-13221476D01*
X7770157Y-13240523D01*
X7674918Y-13259571D01*
X7941585Y-13326237D02*
X7941585Y-13126237D01*
X7941585Y-13316714D02*
X7922538Y-13326237D01*
X7884442Y-13326237D01*
X7865395Y-13316714D01*
X7855871Y-13307190D01*
X7846347Y-13288142D01*
X7846347Y-13230999D01*
X7855871Y-13211952D01*
X7865395Y-13202428D01*
X7884442Y-13192904D01*
X7922538Y-13192904D01*
X7941585Y-13202428D01*
X8017776Y-13402428D02*
X8027299Y-13392904D01*
X8046347Y-13364333D01*
X8055871Y-13345285D01*
X8065395Y-13316714D01*
X8074918Y-13269095D01*
X8074918Y-13230999D01*
X8065395Y-13183380D01*
X8055871Y-13154809D01*
X8046347Y-13135761D01*
X8027299Y-13107190D01*
X8017776Y-13097666D01*
M02*
