G04 #@! TF.GenerationSoftware,KiCad,Pcbnew,(6.0.5)*
G04 #@! TF.CreationDate,2023-02-13T01:00:26-07:00*
G04 #@! TF.ProjectId,EVCU,45564355-2e6b-4696-9361-645f70636258,rev?*
G04 #@! TF.SameCoordinates,Original*
G04 #@! TF.FileFunction,Paste,Bot*
G04 #@! TF.FilePolarity,Positive*
%FSLAX46Y46*%
G04 Gerber Fmt 4.6, Leading zero omitted, Abs format (unit mm)*
G04 Created by KiCad (PCBNEW (6.0.5)) date 2023-02-13 01:00:26*
%MOMM*%
%LPD*%
G01*
G04 APERTURE LIST*
G04 Aperture macros list*
%AMRoundRect*
0 Rectangle with rounded corners*
0 $1 Rounding radius*
0 $2 $3 $4 $5 $6 $7 $8 $9 X,Y pos of 4 corners*
0 Add a 4 corners polygon primitive as box body*
4,1,4,$2,$3,$4,$5,$6,$7,$8,$9,$2,$3,0*
0 Add four circle primitives for the rounded corners*
1,1,$1+$1,$2,$3*
1,1,$1+$1,$4,$5*
1,1,$1+$1,$6,$7*
1,1,$1+$1,$8,$9*
0 Add four rect primitives between the rounded corners*
20,1,$1+$1,$2,$3,$4,$5,0*
20,1,$1+$1,$4,$5,$6,$7,0*
20,1,$1+$1,$6,$7,$8,$9,0*
20,1,$1+$1,$8,$9,$2,$3,0*%
G04 Aperture macros list end*
%ADD10RoundRect,0.237500X-0.300000X-0.237500X0.300000X-0.237500X0.300000X0.237500X-0.300000X0.237500X0*%
%ADD11RoundRect,0.250001X-0.462499X-1.074999X0.462499X-1.074999X0.462499X1.074999X-0.462499X1.074999X0*%
%ADD12RoundRect,0.237500X0.237500X-0.300000X0.237500X0.300000X-0.237500X0.300000X-0.237500X-0.300000X0*%
%ADD13RoundRect,0.237500X0.300000X0.237500X-0.300000X0.237500X-0.300000X-0.237500X0.300000X-0.237500X0*%
%ADD14RoundRect,0.250000X0.450000X-0.350000X0.450000X0.350000X-0.450000X0.350000X-0.450000X-0.350000X0*%
%ADD15RoundRect,0.250000X-0.450000X0.350000X-0.450000X-0.350000X0.450000X-0.350000X0.450000X0.350000X0*%
%ADD16RoundRect,0.250000X-0.350000X-0.450000X0.350000X-0.450000X0.350000X0.450000X-0.350000X0.450000X0*%
%ADD17RoundRect,0.237500X-0.237500X0.300000X-0.237500X-0.300000X0.237500X-0.300000X0.237500X0.300000X0*%
%ADD18R,0.800000X0.900000*%
%ADD19RoundRect,0.250000X0.350000X0.450000X-0.350000X0.450000X-0.350000X-0.450000X0.350000X-0.450000X0*%
G04 APERTURE END LIST*
D10*
X58954500Y-49961800D03*
X60679500Y-49961800D03*
D11*
X41565500Y-65608200D03*
X44540500Y-65608200D03*
D12*
X66471800Y-60171500D03*
X66471800Y-58446500D03*
D10*
X48515100Y-49987200D03*
X50240100Y-49987200D03*
D13*
X54989900Y-51460400D03*
X53264900Y-51460400D03*
X63905300Y-68199000D03*
X62180300Y-68199000D03*
D14*
X30673800Y-71408800D03*
X30673800Y-69408800D03*
D13*
X53973900Y-68173600D03*
X52248900Y-68173600D03*
D15*
X29784800Y-81981800D03*
X29784800Y-83981800D03*
D13*
X53973900Y-66497200D03*
X52248900Y-66497200D03*
X58901500Y-68199000D03*
X57176500Y-68199000D03*
D14*
X30521400Y-91170000D03*
X30521400Y-89170000D03*
D13*
X54964500Y-49885600D03*
X53239500Y-49885600D03*
X66419900Y-64287400D03*
X64694900Y-64287400D03*
D16*
X99904000Y-41190300D03*
X101904000Y-41190300D03*
D13*
X69950500Y-36449000D03*
X68225500Y-36449000D03*
D10*
X46406900Y-64846200D03*
X48131900Y-64846200D03*
X48159500Y-58166000D03*
X49884500Y-58166000D03*
D16*
X29724600Y-80441800D03*
X31724600Y-80441800D03*
D10*
X48921500Y-61315600D03*
X50646500Y-61315600D03*
D12*
X43154600Y-63169800D03*
X43154600Y-61444800D03*
D13*
X45058500Y-52705000D03*
X43333500Y-52705000D03*
D10*
X46406900Y-65989200D03*
X48131900Y-65989200D03*
D17*
X46685200Y-68860500D03*
X46685200Y-70585500D03*
D12*
X44729400Y-63169800D03*
X44729400Y-61444800D03*
D18*
X107066000Y-45248100D03*
X108966000Y-45248100D03*
X108016000Y-47648100D03*
D14*
X26416000Y-73136000D03*
X26416000Y-71136000D03*
D13*
X65378500Y-50038000D03*
X63653500Y-50038000D03*
D19*
X30581600Y-92862400D03*
X28581600Y-92862400D03*
M02*
