G04 #@! TF.GenerationSoftware,KiCad,Pcbnew,(6.0.5)*
G04 #@! TF.CreationDate,2023-02-15T02:15:57-07:00*
G04 #@! TF.ProjectId,EVCU,45564355-2e6b-4696-9361-645f70636258,rev?*
G04 #@! TF.SameCoordinates,Original*
G04 #@! TF.FileFunction,Copper,L1,Top*
G04 #@! TF.FilePolarity,Positive*
%FSLAX46Y46*%
G04 Gerber Fmt 4.6, Leading zero omitted, Abs format (unit mm)*
G04 Created by KiCad (PCBNEW (6.0.5)) date 2023-02-15 02:15:57*
%MOMM*%
%LPD*%
G01*
G04 APERTURE LIST*
G04 Aperture macros list*
%AMRoundRect*
0 Rectangle with rounded corners*
0 $1 Rounding radius*
0 $2 $3 $4 $5 $6 $7 $8 $9 X,Y pos of 4 corners*
0 Add a 4 corners polygon primitive as box body*
4,1,4,$2,$3,$4,$5,$6,$7,$8,$9,$2,$3,0*
0 Add four circle primitives for the rounded corners*
1,1,$1+$1,$2,$3*
1,1,$1+$1,$4,$5*
1,1,$1+$1,$6,$7*
1,1,$1+$1,$8,$9*
0 Add four rect primitives between the rounded corners*
20,1,$1+$1,$2,$3,$4,$5,0*
20,1,$1+$1,$4,$5,$6,$7,0*
20,1,$1+$1,$6,$7,$8,$9,0*
20,1,$1+$1,$8,$9,$2,$3,0*%
%AMFreePoly0*
4,1,14,0.266715,0.088284,0.363284,-0.008285,0.375000,-0.036569,0.375000,-0.060000,0.363284,-0.088284,0.335000,-0.100000,-0.335000,-0.100000,-0.363284,-0.088284,-0.375000,-0.060000,-0.375000,0.060000,-0.363284,0.088284,-0.335000,0.100000,0.238431,0.100000,0.266715,0.088284,0.266715,0.088284,$1*%
%AMFreePoly1*
4,1,14,0.363284,0.088284,0.375000,0.060000,0.375000,0.036569,0.363284,0.008285,0.266715,-0.088284,0.238431,-0.100000,-0.335000,-0.100000,-0.363284,-0.088284,-0.375000,-0.060000,-0.375000,0.060000,-0.363284,0.088284,-0.335000,0.100000,0.335000,0.100000,0.363284,0.088284,0.363284,0.088284,$1*%
%AMFreePoly2*
4,1,14,0.088284,0.363284,0.100000,0.335000,0.100000,-0.335000,0.088284,-0.363284,0.060000,-0.375000,-0.060000,-0.375000,-0.088284,-0.363284,-0.100000,-0.335000,-0.100000,0.238431,-0.088284,0.266715,0.008285,0.363284,0.036569,0.375000,0.060000,0.375000,0.088284,0.363284,0.088284,0.363284,$1*%
%AMFreePoly3*
4,1,14,-0.008285,0.363284,0.088284,0.266715,0.100000,0.238431,0.100000,-0.335000,0.088284,-0.363284,0.060000,-0.375000,-0.060000,-0.375000,-0.088284,-0.363284,-0.100000,-0.335000,-0.100000,0.335000,-0.088284,0.363284,-0.060000,0.375000,-0.036569,0.375000,-0.008285,0.363284,-0.008285,0.363284,$1*%
%AMFreePoly4*
4,1,14,0.363284,0.088284,0.375000,0.060000,0.375000,-0.060000,0.363284,-0.088284,0.335000,-0.100000,-0.238431,-0.100000,-0.266715,-0.088284,-0.363284,0.008285,-0.375000,0.036569,-0.375000,0.060000,-0.363284,0.088284,-0.335000,0.100000,0.335000,0.100000,0.363284,0.088284,0.363284,0.088284,$1*%
%AMFreePoly5*
4,1,14,0.363284,0.088284,0.375000,0.060000,0.375000,-0.060000,0.363284,-0.088284,0.335000,-0.100000,-0.335000,-0.100000,-0.363284,-0.088284,-0.375000,-0.060000,-0.375000,-0.036569,-0.363284,-0.008285,-0.266715,0.088284,-0.238431,0.100000,0.335000,0.100000,0.363284,0.088284,0.363284,0.088284,$1*%
%AMFreePoly6*
4,1,14,0.088284,0.363284,0.100000,0.335000,0.100000,-0.238431,0.088284,-0.266715,-0.008285,-0.363284,-0.036569,-0.375000,-0.060000,-0.375000,-0.088284,-0.363284,-0.100000,-0.335000,-0.100000,0.335000,-0.088284,0.363284,-0.060000,0.375000,0.060000,0.375000,0.088284,0.363284,0.088284,0.363284,$1*%
%AMFreePoly7*
4,1,14,0.088284,0.363284,0.100000,0.335000,0.100000,-0.335000,0.088284,-0.363284,0.060000,-0.375000,0.036569,-0.375000,0.008285,-0.363284,-0.088284,-0.266715,-0.100000,-0.238431,-0.100000,0.335000,-0.088284,0.363284,-0.060000,0.375000,0.060000,0.375000,0.088284,0.363284,0.088284,0.363284,$1*%
%AMFreePoly8*
4,1,9,5.362500,-0.866500,1.237500,-0.866500,1.237500,-0.450000,-1.237500,-0.450000,-1.237500,0.450000,1.237500,0.450000,1.237500,0.866500,5.362500,0.866500,5.362500,-0.866500,5.362500,-0.866500,$1*%
G04 Aperture macros list end*
G04 #@! TA.AperFunction,SMDPad,CuDef*
%ADD10R,1.500000X1.500000*%
G04 #@! TD*
G04 #@! TA.AperFunction,SMDPad,CuDef*
%ADD11RoundRect,0.237500X0.237500X-0.300000X0.237500X0.300000X-0.237500X0.300000X-0.237500X-0.300000X0*%
G04 #@! TD*
G04 #@! TA.AperFunction,SMDPad,CuDef*
%ADD12R,0.400000X1.500000*%
G04 #@! TD*
G04 #@! TA.AperFunction,SMDPad,CuDef*
%ADD13R,1.500000X1.000000*%
G04 #@! TD*
G04 #@! TA.AperFunction,SMDPad,CuDef*
%ADD14FreePoly0,270.000000*%
G04 #@! TD*
G04 #@! TA.AperFunction,SMDPad,CuDef*
%ADD15RoundRect,0.050000X-0.050000X0.325000X-0.050000X-0.325000X0.050000X-0.325000X0.050000X0.325000X0*%
G04 #@! TD*
G04 #@! TA.AperFunction,SMDPad,CuDef*
%ADD16FreePoly1,270.000000*%
G04 #@! TD*
G04 #@! TA.AperFunction,SMDPad,CuDef*
%ADD17FreePoly2,270.000000*%
G04 #@! TD*
G04 #@! TA.AperFunction,SMDPad,CuDef*
%ADD18RoundRect,0.050000X-0.325000X0.050000X-0.325000X-0.050000X0.325000X-0.050000X0.325000X0.050000X0*%
G04 #@! TD*
G04 #@! TA.AperFunction,SMDPad,CuDef*
%ADD19FreePoly3,270.000000*%
G04 #@! TD*
G04 #@! TA.AperFunction,SMDPad,CuDef*
%ADD20FreePoly4,270.000000*%
G04 #@! TD*
G04 #@! TA.AperFunction,SMDPad,CuDef*
%ADD21FreePoly5,270.000000*%
G04 #@! TD*
G04 #@! TA.AperFunction,SMDPad,CuDef*
%ADD22FreePoly6,270.000000*%
G04 #@! TD*
G04 #@! TA.AperFunction,SMDPad,CuDef*
%ADD23FreePoly7,270.000000*%
G04 #@! TD*
G04 #@! TA.AperFunction,SMDPad,CuDef*
%ADD24RoundRect,0.250001X0.462499X0.849999X-0.462499X0.849999X-0.462499X-0.849999X0.462499X-0.849999X0*%
G04 #@! TD*
G04 #@! TA.AperFunction,SMDPad,CuDef*
%ADD25RoundRect,0.237500X0.300000X0.237500X-0.300000X0.237500X-0.300000X-0.237500X0.300000X-0.237500X0*%
G04 #@! TD*
G04 #@! TA.AperFunction,SMDPad,CuDef*
%ADD26R,0.900000X2.300000*%
G04 #@! TD*
G04 #@! TA.AperFunction,SMDPad,CuDef*
%ADD27FreePoly8,90.000000*%
G04 #@! TD*
G04 #@! TA.AperFunction,ComponentPad*
%ADD28C,3.800000*%
G04 #@! TD*
G04 #@! TA.AperFunction,SMDPad,CuDef*
%ADD29RoundRect,0.237500X-0.237500X0.300000X-0.237500X-0.300000X0.237500X-0.300000X0.237500X0.300000X0*%
G04 #@! TD*
G04 #@! TA.AperFunction,SMDPad,CuDef*
%ADD30RoundRect,0.250001X-0.462499X-1.074999X0.462499X-1.074999X0.462499X1.074999X-0.462499X1.074999X0*%
G04 #@! TD*
G04 #@! TA.AperFunction,SMDPad,CuDef*
%ADD31RoundRect,0.250000X-0.450000X0.350000X-0.450000X-0.350000X0.450000X-0.350000X0.450000X0.350000X0*%
G04 #@! TD*
G04 #@! TA.AperFunction,SMDPad,CuDef*
%ADD32R,1.500000X0.400000*%
G04 #@! TD*
G04 #@! TA.AperFunction,SMDPad,CuDef*
%ADD33RoundRect,0.250000X0.350000X0.450000X-0.350000X0.450000X-0.350000X-0.450000X0.350000X-0.450000X0*%
G04 #@! TD*
G04 #@! TA.AperFunction,SMDPad,CuDef*
%ADD34RoundRect,0.250000X0.412500X0.650000X-0.412500X0.650000X-0.412500X-0.650000X0.412500X-0.650000X0*%
G04 #@! TD*
G04 #@! TA.AperFunction,SMDPad,CuDef*
%ADD35R,2.000000X0.650000*%
G04 #@! TD*
G04 #@! TA.AperFunction,SMDPad,CuDef*
%ADD36RoundRect,0.250000X-0.350000X-0.450000X0.350000X-0.450000X0.350000X0.450000X-0.350000X0.450000X0*%
G04 #@! TD*
G04 #@! TA.AperFunction,ComponentPad*
%ADD37R,2.400000X2.400000*%
G04 #@! TD*
G04 #@! TA.AperFunction,ComponentPad*
%ADD38C,2.400000*%
G04 #@! TD*
G04 #@! TA.AperFunction,ComponentPad*
%ADD39C,2.235200*%
G04 #@! TD*
G04 #@! TA.AperFunction,SMDPad,CuDef*
%ADD40RoundRect,0.075000X-0.662500X-0.075000X0.662500X-0.075000X0.662500X0.075000X-0.662500X0.075000X0*%
G04 #@! TD*
G04 #@! TA.AperFunction,SMDPad,CuDef*
%ADD41RoundRect,0.075000X-0.075000X-0.662500X0.075000X-0.662500X0.075000X0.662500X-0.075000X0.662500X0*%
G04 #@! TD*
G04 #@! TA.AperFunction,SMDPad,CuDef*
%ADD42RoundRect,0.237500X-0.300000X-0.237500X0.300000X-0.237500X0.300000X0.237500X-0.300000X0.237500X0*%
G04 #@! TD*
G04 #@! TA.AperFunction,ComponentPad*
%ADD43R,1.700000X1.700000*%
G04 #@! TD*
G04 #@! TA.AperFunction,ComponentPad*
%ADD44O,1.700000X1.700000*%
G04 #@! TD*
G04 #@! TA.AperFunction,SMDPad,CuDef*
%ADD45RoundRect,0.150000X0.587500X0.150000X-0.587500X0.150000X-0.587500X-0.150000X0.587500X-0.150000X0*%
G04 #@! TD*
G04 #@! TA.AperFunction,SMDPad,CuDef*
%ADD46R,2.300000X3.500000*%
G04 #@! TD*
G04 #@! TA.AperFunction,SMDPad,CuDef*
%ADD47RoundRect,0.150000X0.150000X-0.825000X0.150000X0.825000X-0.150000X0.825000X-0.150000X-0.825000X0*%
G04 #@! TD*
G04 #@! TA.AperFunction,SMDPad,CuDef*
%ADD48R,0.800000X1.500000*%
G04 #@! TD*
G04 #@! TA.AperFunction,SMDPad,CuDef*
%ADD49R,1.450000X2.000000*%
G04 #@! TD*
G04 #@! TA.AperFunction,SMDPad,CuDef*
%ADD50RoundRect,0.250000X0.450000X-0.350000X0.450000X0.350000X-0.450000X0.350000X-0.450000X-0.350000X0*%
G04 #@! TD*
G04 #@! TA.AperFunction,ComponentPad*
%ADD51C,4.000000*%
G04 #@! TD*
G04 #@! TA.AperFunction,ComponentPad*
%ADD52R,1.600000X1.600000*%
G04 #@! TD*
G04 #@! TA.AperFunction,ComponentPad*
%ADD53C,1.600000*%
G04 #@! TD*
G04 #@! TA.AperFunction,SMDPad,CuDef*
%ADD54RoundRect,0.200000X0.250000X-0.200000X0.250000X0.200000X-0.250000X0.200000X-0.250000X-0.200000X0*%
G04 #@! TD*
G04 #@! TA.AperFunction,SMDPad,CuDef*
%ADD55R,0.800000X0.900000*%
G04 #@! TD*
G04 #@! TA.AperFunction,SMDPad,CuDef*
%ADD56R,0.200000X0.450000*%
G04 #@! TD*
G04 #@! TA.AperFunction,SMDPad,CuDef*
%ADD57R,2.800000X0.300000*%
G04 #@! TD*
G04 #@! TA.AperFunction,ViaPad*
%ADD58C,0.800000*%
G04 #@! TD*
G04 #@! TA.AperFunction,ViaPad*
%ADD59C,0.600000*%
G04 #@! TD*
G04 #@! TA.AperFunction,Conductor*
%ADD60C,0.800000*%
G04 #@! TD*
G04 #@! TA.AperFunction,Conductor*
%ADD61C,0.400000*%
G04 #@! TD*
G04 #@! TA.AperFunction,Conductor*
%ADD62C,0.250000*%
G04 #@! TD*
G04 #@! TA.AperFunction,Conductor*
%ADD63C,0.300000*%
G04 #@! TD*
G04 #@! TA.AperFunction,Conductor*
%ADD64C,0.200000*%
G04 #@! TD*
G04 APERTURE END LIST*
D10*
X136579531Y-57293200D03*
X135055531Y-60341200D03*
D11*
X130105200Y-111915100D03*
X130105200Y-110190100D03*
D12*
X135955800Y-77867200D03*
X135305800Y-77867200D03*
X134655800Y-77867200D03*
X134655800Y-80527200D03*
X135955800Y-80527200D03*
D13*
X104292400Y-89886000D03*
X104292400Y-91186000D03*
X104292400Y-92486000D03*
D11*
X119846400Y-66029700D03*
X119846400Y-64304700D03*
D14*
X125621600Y-95417200D03*
D15*
X125221600Y-95417200D03*
X124821600Y-95417200D03*
X124421600Y-95417200D03*
X124021600Y-95417200D03*
D16*
X123621600Y-95417200D03*
D17*
X123121600Y-95917200D03*
D18*
X123121600Y-96317200D03*
X123121600Y-96717200D03*
X123121600Y-97117200D03*
X123121600Y-97517200D03*
D19*
X123121600Y-97917200D03*
D20*
X123621600Y-98417200D03*
D15*
X124021600Y-98417200D03*
X124421600Y-98417200D03*
X124821600Y-98417200D03*
X125221600Y-98417200D03*
D21*
X125621600Y-98417200D03*
D22*
X126121600Y-97917200D03*
D18*
X126121600Y-97517200D03*
X126121600Y-97117200D03*
X126121600Y-96717200D03*
X126121600Y-96317200D03*
D23*
X126121600Y-95917200D03*
D24*
X126695700Y-110036600D03*
X124370700Y-110036600D03*
D25*
X123502900Y-99838200D03*
X121777900Y-99838200D03*
D26*
X113765200Y-109312600D03*
D27*
X115265200Y-109225100D03*
D26*
X116765200Y-109312600D03*
D10*
X109820200Y-112979200D03*
D28*
X83820000Y-45466000D03*
D29*
X115243008Y-111910156D03*
X115243008Y-113635156D03*
D28*
X159512000Y-45466000D03*
D30*
X98292900Y-84725200D03*
X101267900Y-84725200D03*
D11*
X130768400Y-79999700D03*
X130768400Y-78274700D03*
D25*
X109278900Y-66183200D03*
X107553900Y-66183200D03*
D31*
X94081600Y-107661200D03*
X94081600Y-109661200D03*
D32*
X96155200Y-99273600D03*
X96155200Y-99923600D03*
X96155200Y-100573600D03*
X98815200Y-100573600D03*
X98815200Y-99273600D03*
D11*
X117306400Y-65775700D03*
X117306400Y-64050700D03*
D33*
X132121200Y-114117856D03*
X130121200Y-114117856D03*
D13*
X102479600Y-101316000D03*
X102479600Y-102616000D03*
X102479600Y-103916000D03*
D34*
X124555700Y-116386600D03*
X121430700Y-116386600D03*
D31*
X94081600Y-104054400D03*
X94081600Y-106054400D03*
D33*
X132321731Y-63414600D03*
X130321731Y-63414600D03*
D35*
X124409200Y-112308600D03*
X124409200Y-113258600D03*
X124409200Y-114208600D03*
X127829200Y-114208600D03*
X127829200Y-113258600D03*
X127829200Y-112308600D03*
D31*
X94081600Y-96688400D03*
X94081600Y-98688400D03*
D25*
X124772900Y-91329200D03*
X123047900Y-91329200D03*
D10*
X104292400Y-96053400D03*
D36*
X139846731Y-63465400D03*
X141846731Y-63465400D03*
D32*
X96155200Y-106284000D03*
X96155200Y-106934000D03*
X96155200Y-107584000D03*
X98815200Y-107584000D03*
X98815200Y-106284000D03*
D25*
X114892300Y-91329200D03*
X113167300Y-91329200D03*
D13*
X106086400Y-110358400D03*
X106086400Y-111658400D03*
X106086400Y-112958400D03*
D37*
X150091200Y-121194600D03*
D38*
X153591200Y-121194600D03*
D10*
X114757200Y-117094000D03*
D25*
X114892300Y-93005600D03*
X113167300Y-93005600D03*
X119819900Y-91329200D03*
X118094900Y-91329200D03*
D39*
X138153808Y-123288256D03*
X138153808Y-119986256D03*
X124691808Y-123288256D03*
X124691808Y-119986256D03*
D40*
X107456700Y-69904600D03*
X107456700Y-70404600D03*
X107456700Y-70904600D03*
X107456700Y-71404600D03*
X107456700Y-71904600D03*
X107456700Y-72404600D03*
X107456700Y-72904600D03*
X107456700Y-73404600D03*
X107456700Y-73904600D03*
X107456700Y-74404600D03*
X107456700Y-74904600D03*
X107456700Y-75404600D03*
X107456700Y-75904600D03*
X107456700Y-76404600D03*
X107456700Y-76904600D03*
X107456700Y-77404600D03*
X107456700Y-77904600D03*
X107456700Y-78404600D03*
X107456700Y-78904600D03*
X107456700Y-79404600D03*
X107456700Y-79904600D03*
X107456700Y-80404600D03*
X107456700Y-80904600D03*
X107456700Y-81404600D03*
X107456700Y-81904600D03*
X107456700Y-82404600D03*
X107456700Y-82904600D03*
X107456700Y-83404600D03*
X107456700Y-83904600D03*
X107456700Y-84404600D03*
X107456700Y-84904600D03*
X107456700Y-85404600D03*
X107456700Y-85904600D03*
X107456700Y-86404600D03*
X107456700Y-86904600D03*
X107456700Y-87404600D03*
D41*
X109369200Y-89317100D03*
X109869200Y-89317100D03*
X110369200Y-89317100D03*
X110869200Y-89317100D03*
X111369200Y-89317100D03*
X111869200Y-89317100D03*
X112369200Y-89317100D03*
X112869200Y-89317100D03*
X113369200Y-89317100D03*
X113869200Y-89317100D03*
X114369200Y-89317100D03*
X114869200Y-89317100D03*
X115369200Y-89317100D03*
X115869200Y-89317100D03*
X116369200Y-89317100D03*
X116869200Y-89317100D03*
X117369200Y-89317100D03*
X117869200Y-89317100D03*
X118369200Y-89317100D03*
X118869200Y-89317100D03*
X119369200Y-89317100D03*
X119869200Y-89317100D03*
X120369200Y-89317100D03*
X120869200Y-89317100D03*
X121369200Y-89317100D03*
X121869200Y-89317100D03*
X122369200Y-89317100D03*
X122869200Y-89317100D03*
X123369200Y-89317100D03*
X123869200Y-89317100D03*
X124369200Y-89317100D03*
X124869200Y-89317100D03*
X125369200Y-89317100D03*
X125869200Y-89317100D03*
X126369200Y-89317100D03*
X126869200Y-89317100D03*
D40*
X128781700Y-87404600D03*
X128781700Y-86904600D03*
X128781700Y-86404600D03*
X128781700Y-85904600D03*
X128781700Y-85404600D03*
X128781700Y-84904600D03*
X128781700Y-84404600D03*
X128781700Y-83904600D03*
X128781700Y-83404600D03*
X128781700Y-82904600D03*
X128781700Y-82404600D03*
X128781700Y-81904600D03*
X128781700Y-81404600D03*
X128781700Y-80904600D03*
X128781700Y-80404600D03*
X128781700Y-79904600D03*
X128781700Y-79404600D03*
X128781700Y-78904600D03*
X128781700Y-78404600D03*
X128781700Y-77904600D03*
X128781700Y-77404600D03*
X128781700Y-76904600D03*
X128781700Y-76404600D03*
X128781700Y-75904600D03*
X128781700Y-75404600D03*
X128781700Y-74904600D03*
X128781700Y-74404600D03*
X128781700Y-73904600D03*
X128781700Y-73404600D03*
X128781700Y-72904600D03*
X128781700Y-72404600D03*
X128781700Y-71904600D03*
X128781700Y-71404600D03*
X128781700Y-70904600D03*
X128781700Y-70404600D03*
X128781700Y-69904600D03*
D41*
X126869200Y-67992100D03*
X126369200Y-67992100D03*
X125869200Y-67992100D03*
X125369200Y-67992100D03*
X124869200Y-67992100D03*
X124369200Y-67992100D03*
X123869200Y-67992100D03*
X123369200Y-67992100D03*
X122869200Y-67992100D03*
X122369200Y-67992100D03*
X121869200Y-67992100D03*
X121369200Y-67992100D03*
X120869200Y-67992100D03*
X120369200Y-67992100D03*
X119869200Y-67992100D03*
X119369200Y-67992100D03*
X118869200Y-67992100D03*
X118369200Y-67992100D03*
X117869200Y-67992100D03*
X117369200Y-67992100D03*
X116869200Y-67992100D03*
X116369200Y-67992100D03*
X115869200Y-67992100D03*
X115369200Y-67992100D03*
X114869200Y-67992100D03*
X114369200Y-67992100D03*
X113869200Y-67992100D03*
X113369200Y-67992100D03*
X112869200Y-67992100D03*
X112369200Y-67992100D03*
X111869200Y-67992100D03*
X111369200Y-67992100D03*
X110869200Y-67992100D03*
X110369200Y-67992100D03*
X109869200Y-67992100D03*
X109369200Y-67992100D03*
D11*
X115782400Y-65775700D03*
X115782400Y-64050700D03*
D42*
X131175900Y-85233200D03*
X132900900Y-85233200D03*
D43*
X144204531Y-58055200D03*
D44*
X141664531Y-58055200D03*
D45*
X145412700Y-122844600D03*
X145412700Y-120944600D03*
X143537700Y-121894600D03*
D25*
X121724900Y-95469400D03*
X119999900Y-95469400D03*
D43*
X139319000Y-74904600D03*
D44*
X139319000Y-77444600D03*
X139319000Y-79984600D03*
X139319000Y-82524600D03*
X139319000Y-85064600D03*
X139319000Y-87604600D03*
D31*
X94081600Y-100244400D03*
X94081600Y-102244400D03*
D32*
X96155200Y-113853200D03*
X96155200Y-114503200D03*
X96155200Y-115153200D03*
X98815200Y-115153200D03*
X98815200Y-113853200D03*
D31*
X146231531Y-60103200D03*
X146231531Y-62103200D03*
D28*
X159512000Y-127254000D03*
D42*
X121523900Y-57547200D03*
X123248900Y-57547200D03*
D29*
X119307008Y-109674956D03*
X119307008Y-111399956D03*
X120863208Y-109682100D03*
X120863208Y-111407100D03*
D37*
X88279200Y-97142600D03*
D38*
X88279200Y-100642600D03*
X88279200Y-104142600D03*
X88279200Y-107642600D03*
X88279200Y-111142600D03*
X88279200Y-114642600D03*
D10*
X102454200Y-107391200D03*
D46*
X143383000Y-74836000D03*
X143383000Y-69436000D03*
D29*
X105114400Y-85386700D03*
X105114400Y-87111700D03*
D11*
X105622400Y-77205700D03*
X105622400Y-75480700D03*
D10*
X120370600Y-104394000D03*
D25*
X105722900Y-81169200D03*
X103997900Y-81169200D03*
D11*
X105114400Y-84063700D03*
X105114400Y-82338700D03*
D47*
X134166531Y-68658200D03*
X135436531Y-68658200D03*
X136706531Y-68658200D03*
X137976531Y-68658200D03*
X137976531Y-63708200D03*
X136706531Y-63708200D03*
X135436531Y-63708200D03*
X134166531Y-63708200D03*
D48*
X122742400Y-47107200D03*
X123842400Y-47107200D03*
X124942400Y-47107200D03*
X126042400Y-47107200D03*
X127142400Y-47107200D03*
X128242400Y-47107200D03*
X129342400Y-47107200D03*
X130442400Y-47107200D03*
D49*
X132817400Y-44507200D03*
X119067400Y-44507200D03*
X119067400Y-52807200D03*
X132817400Y-52807200D03*
D25*
X119667500Y-97222000D03*
X117942500Y-97222000D03*
D11*
X105622400Y-72379700D03*
X105622400Y-70654700D03*
D50*
X94081600Y-117128800D03*
X94081600Y-115128800D03*
X112378800Y-65938600D03*
X112378800Y-63938600D03*
D29*
X103844400Y-85386700D03*
X103844400Y-87111700D03*
X107823000Y-89815500D03*
X107823000Y-91540500D03*
D51*
X152594869Y-78185200D03*
X152594869Y-53185200D03*
D52*
X151174869Y-71225200D03*
D53*
X151174869Y-68455200D03*
X151174869Y-65685200D03*
X151174869Y-62915200D03*
X151174869Y-60145200D03*
X154014869Y-69840200D03*
X154014869Y-67070200D03*
X154014869Y-64300200D03*
X154014869Y-61530200D03*
D11*
X103844400Y-84063700D03*
X103844400Y-82338700D03*
D54*
X103681400Y-79862200D03*
X105531400Y-79862200D03*
X105531400Y-78412200D03*
X103681400Y-78412200D03*
D55*
X146165531Y-64221200D03*
X144265531Y-64221200D03*
X145215531Y-66621200D03*
D29*
X102057200Y-78528700D03*
X102057200Y-80253700D03*
D36*
X130143408Y-115998456D03*
X132143408Y-115998456D03*
D56*
X123322400Y-59616200D03*
X123722400Y-59616200D03*
X124122400Y-59616200D03*
X124522400Y-59616200D03*
X124922400Y-59616200D03*
X125322400Y-59616200D03*
X125722400Y-59616200D03*
X126122400Y-59616200D03*
X126122400Y-58465200D03*
X125722400Y-58465200D03*
X125322400Y-58465200D03*
X124922400Y-58465200D03*
X124522400Y-58465200D03*
X124122400Y-58465200D03*
X123722400Y-58465200D03*
X123322400Y-58465200D03*
D57*
X124722400Y-59041200D03*
D50*
X94081600Y-113420400D03*
X94081600Y-111420400D03*
D42*
X126349900Y-66437200D03*
X128074900Y-66437200D03*
D29*
X122231200Y-109682100D03*
X122231200Y-111407100D03*
D28*
X83820000Y-127254000D03*
D31*
X138382931Y-59417400D03*
X138382931Y-61417400D03*
D58*
X98256400Y-82439200D03*
D59*
X119761000Y-92202000D03*
X136740431Y-70694200D03*
D58*
X115265200Y-103282600D03*
D59*
X122386400Y-56531200D03*
X101041200Y-78375200D03*
X131699000Y-80010000D03*
X124570800Y-99838200D03*
X104648000Y-72390000D03*
D58*
X125942400Y-45355200D03*
D59*
X121285000Y-94488000D03*
X120777000Y-66040000D03*
D58*
X115265200Y-102082600D03*
D59*
X122894400Y-58563200D03*
X124714000Y-92202000D03*
X114935000Y-93853000D03*
X104648000Y-77216000D03*
X125984000Y-65532000D03*
X118237000Y-65786000D03*
X130184200Y-87926700D03*
X109220000Y-65151000D03*
X138416831Y-58197400D03*
X128736400Y-68977200D03*
X108585000Y-90424000D03*
D58*
X127974400Y-45355200D03*
D59*
X102828400Y-82439200D03*
X127466400Y-85487200D03*
X135436531Y-70194700D03*
X126704400Y-59071200D03*
X125196600Y-97517200D03*
X108772000Y-87417600D03*
X130810000Y-77343000D03*
X115824000Y-63119000D03*
X118110000Y-92202000D03*
D58*
X115316000Y-114808000D03*
X114512400Y-87265200D03*
D59*
X121430700Y-114990148D03*
X109178400Y-77613200D03*
X137007600Y-80568800D03*
X144272000Y-66294000D03*
X119281608Y-112569456D03*
X97383600Y-99974400D03*
X111674800Y-109312600D03*
D58*
X130324931Y-65070100D03*
D59*
X104606400Y-79391200D03*
X129032000Y-66421000D03*
D58*
X121370400Y-56277200D03*
X124164400Y-87519200D03*
X141605000Y-69342000D03*
D59*
X95148400Y-102260400D03*
X133454808Y-115998456D03*
X101041200Y-80153200D03*
X109940400Y-69485200D03*
X112268000Y-92964000D03*
X116290400Y-69485200D03*
D58*
X141659531Y-62119200D03*
D59*
X117348000Y-63119000D03*
D58*
X117814400Y-52721200D03*
D59*
X112556400Y-109312600D03*
X119338400Y-87773200D03*
X123063000Y-92202000D03*
X106130400Y-82439200D03*
X95199200Y-109677200D03*
X120354400Y-69485200D03*
X102828400Y-81423200D03*
X121573600Y-98771400D03*
X107569000Y-65278000D03*
D58*
X134070400Y-44339200D03*
X145412700Y-123878100D03*
D59*
X102777600Y-87138200D03*
D58*
X121843800Y-112395000D03*
D59*
X120777000Y-64389000D03*
X104927400Y-88036400D03*
D58*
X117560400Y-44339200D03*
D59*
X120863208Y-112314456D03*
X113674200Y-63948000D03*
X126238000Y-98552000D03*
X108924400Y-83404400D03*
X105622400Y-69485200D03*
D58*
X134070400Y-52721200D03*
D59*
X97332800Y-114503200D03*
X127212400Y-80407200D03*
X95199200Y-111404400D03*
X132800400Y-86503200D03*
X108712000Y-91490800D03*
X118855800Y-95469400D03*
X104352400Y-75581200D03*
X97434400Y-106984800D03*
X112268000Y-91313000D03*
X124046600Y-97517200D03*
X126704400Y-69231200D03*
D58*
X122936000Y-112420400D03*
D59*
X117916000Y-96129800D03*
D58*
X98806000Y-113030000D03*
X117475000Y-113665000D03*
X117475000Y-112522000D03*
D59*
X122231200Y-109782600D03*
D58*
X116840000Y-111760000D03*
X98806000Y-98552000D03*
X132029200Y-112496600D03*
X98806000Y-105410000D03*
D59*
X127870000Y-113262400D03*
X124466400Y-114202200D03*
X109178400Y-81423200D03*
X109407000Y-85284000D03*
X105105200Y-88874600D03*
X132597200Y-70399600D03*
X135848400Y-76089200D03*
X125942400Y-76597200D03*
X133562400Y-79645200D03*
X100279200Y-114655600D03*
X100736400Y-101041200D03*
X108000800Y-101041200D03*
X99872800Y-99974400D03*
D58*
X147755531Y-64913200D03*
X148009531Y-68215200D03*
D59*
X145215531Y-64151200D03*
D58*
X140135531Y-65421200D03*
D59*
X121345000Y-97730000D03*
X123910400Y-90567200D03*
X128482400Y-95393200D03*
X125369200Y-88092400D03*
X124926400Y-96663200D03*
X125942400Y-93107200D03*
X131682800Y-73549200D03*
X122894400Y-60341200D03*
X127593400Y-65548200D03*
X127593400Y-73380213D03*
X130768400Y-68469200D03*
X130768400Y-73295200D03*
X124926400Y-66691200D03*
X123656400Y-61611200D03*
X123656400Y-64151200D03*
X125180400Y-63897200D03*
X123420900Y-62881200D03*
X124715900Y-62627200D03*
D60*
X117475000Y-112522000D02*
X117475000Y-112395000D01*
X117475000Y-112522000D02*
X117475000Y-113665000D01*
X117475000Y-112395000D02*
X116840000Y-111760000D01*
D61*
X104658300Y-77205700D02*
X104648000Y-77216000D01*
X114869200Y-89317100D02*
X114869200Y-91306100D01*
D62*
X115243008Y-111910156D02*
X113921244Y-111910156D01*
D61*
X119869200Y-66052500D02*
X119846400Y-66029700D01*
D60*
X126042400Y-45455200D02*
X125942400Y-45355200D01*
D61*
X120777000Y-66040000D02*
X120766700Y-66029700D01*
D62*
X123621600Y-98417200D02*
X123621600Y-99747100D01*
D63*
X102057200Y-78528700D02*
X101194700Y-78528700D01*
X103681400Y-78412200D02*
X102173700Y-78412200D01*
X123722400Y-58465200D02*
X123722400Y-58020700D01*
D62*
X113207800Y-117094000D02*
X114757200Y-117094000D01*
D61*
X105622400Y-77205700D02*
X104658300Y-77205700D01*
D64*
X122572700Y-96317200D02*
X121724900Y-95469400D01*
D61*
X126369200Y-66456500D02*
X126349900Y-66437200D01*
D63*
X128781700Y-69022500D02*
X128736400Y-68977200D01*
D61*
X114869200Y-91306100D02*
X114892300Y-91329200D01*
X105622400Y-72379700D02*
X104658300Y-72379700D01*
D60*
X139387600Y-74836000D02*
X139319000Y-74904600D01*
D64*
X121724900Y-95469400D02*
X121724900Y-94927900D01*
D61*
X130673300Y-79904600D02*
X130768400Y-79999700D01*
X107456700Y-89449200D02*
X107823000Y-89815500D01*
D63*
X122386400Y-56531200D02*
X123248900Y-57393700D01*
D61*
X107456700Y-87404600D02*
X107456700Y-89449200D01*
X104658300Y-72379700D02*
X104648000Y-72390000D01*
D60*
X98292900Y-82475700D02*
X98256400Y-82439200D01*
D61*
X126349900Y-65897900D02*
X125984000Y-65532000D01*
X114892300Y-93005600D02*
X114892300Y-93810300D01*
X109278900Y-65209900D02*
X109220000Y-65151000D01*
D62*
X138382931Y-58231300D02*
X138416831Y-58197400D01*
D61*
X119819900Y-91329200D02*
X119819900Y-92143100D01*
X117306400Y-65775700D02*
X118226700Y-65775700D01*
D63*
X122992400Y-58465200D02*
X122894400Y-58563200D01*
D61*
X131688700Y-79999700D02*
X131699000Y-80010000D01*
X123502900Y-99838200D02*
X124570800Y-99838200D01*
D62*
X136706531Y-68658200D02*
X136706531Y-70660300D01*
D60*
X98292900Y-84725200D02*
X98292900Y-82475700D01*
D61*
X119819900Y-92143100D02*
X119761000Y-92202000D01*
D63*
X124772900Y-92143100D02*
X124714000Y-92202000D01*
X128781700Y-69904600D02*
X128781700Y-69022500D01*
D62*
X138382931Y-59417400D02*
X138382931Y-58231300D01*
D61*
X107456700Y-72404600D02*
X105647300Y-72404600D01*
X124869200Y-91232900D02*
X124869200Y-89317100D01*
X107823000Y-89815500D02*
X107976500Y-89815500D01*
X130768400Y-79999700D02*
X131688700Y-79999700D01*
X128781700Y-79904600D02*
X130673300Y-79904600D01*
X107456700Y-77904600D02*
X106321300Y-77904600D01*
D64*
X123121600Y-96317200D02*
X122572700Y-96317200D01*
D61*
X115869200Y-67992100D02*
X115869200Y-65862500D01*
D63*
X123248900Y-57393700D02*
X123248900Y-57547200D01*
X124772900Y-91329200D02*
X124869200Y-91232900D01*
D64*
X121724900Y-94927900D02*
X121285000Y-94488000D01*
D61*
X126369200Y-67992100D02*
X126369200Y-66456500D01*
D63*
X123322400Y-58465200D02*
X122992400Y-58465200D01*
D61*
X106321300Y-77904600D02*
X105622400Y-77205700D01*
X114892300Y-93810300D02*
X114935000Y-93853000D01*
X115869200Y-65862500D02*
X115782400Y-65775700D01*
D63*
X128781700Y-87404600D02*
X129662100Y-87404600D01*
D62*
X112776000Y-116662200D02*
X113207800Y-117094000D01*
D63*
X123722400Y-58020700D02*
X123248900Y-57547200D01*
D61*
X109369200Y-66273500D02*
X109278900Y-66183200D01*
X107976500Y-89815500D02*
X108585000Y-90424000D01*
D62*
X136706531Y-70660300D02*
X136740431Y-70694200D01*
D61*
X109369200Y-67992100D02*
X109369200Y-66273500D01*
D62*
X113921244Y-111910156D02*
X112776000Y-113055400D01*
D61*
X114892300Y-91329200D02*
X114892300Y-93005600D01*
X105647300Y-72404600D02*
X105622400Y-72379700D01*
X119869200Y-67992100D02*
X119869200Y-66052500D01*
X109278900Y-66183200D02*
X109278900Y-65209900D01*
X115782400Y-65775700D02*
X117306400Y-65775700D01*
D63*
X129662100Y-87404600D02*
X130184200Y-87926700D01*
D60*
X126042400Y-47107200D02*
X126042400Y-45455200D01*
D62*
X112776000Y-113055400D02*
X112776000Y-116662200D01*
D60*
X143383000Y-74836000D02*
X139387600Y-74836000D01*
D61*
X118226700Y-65775700D02*
X118237000Y-65786000D01*
X126349900Y-66437200D02*
X126349900Y-65897900D01*
D63*
X101194700Y-78528700D02*
X101041200Y-78375200D01*
D61*
X120766700Y-66029700D02*
X119846400Y-66029700D01*
D63*
X124772900Y-91329200D02*
X124772900Y-92143100D01*
D61*
X119869200Y-91279900D02*
X119819900Y-91329200D01*
X119869200Y-89317100D02*
X119869200Y-91279900D01*
D63*
X102173700Y-78412200D02*
X102057200Y-78528700D01*
D62*
X130321731Y-65066900D02*
X130324931Y-65070100D01*
D60*
X128242400Y-45623200D02*
X127974400Y-45355200D01*
X123047800Y-112308600D02*
X122936000Y-112420400D01*
D63*
X94081600Y-102244400D02*
X95132400Y-102244400D01*
X119369200Y-87804000D02*
X119338400Y-87773200D01*
X94081600Y-109661200D02*
X95183200Y-109661200D01*
X108662300Y-91540500D02*
X108712000Y-91490800D01*
D62*
X108772000Y-87417600D02*
X108259000Y-86904600D01*
D60*
X143383000Y-69436000D02*
X141699000Y-69436000D01*
D63*
X95132400Y-102244400D02*
X95148400Y-102260400D01*
D60*
X113765200Y-109312600D02*
X112556400Y-109312600D01*
D63*
X127215000Y-80404600D02*
X127212400Y-80407200D01*
X106029900Y-82338700D02*
X106130400Y-82439200D01*
D62*
X113664800Y-63938600D02*
X113674200Y-63948000D01*
D63*
X103844400Y-87111700D02*
X102804100Y-87111700D01*
X101141700Y-80253700D02*
X101041200Y-80153200D01*
X108969800Y-77404600D02*
X109178400Y-77613200D01*
X102804100Y-87111700D02*
X102777600Y-87138200D01*
X96155200Y-106934000D02*
X97383600Y-106934000D01*
X109869200Y-69414000D02*
X109940400Y-69485200D01*
X105531400Y-79862200D02*
X105077400Y-79862200D01*
X105622400Y-70654700D02*
X105622400Y-69485200D01*
D60*
X128242400Y-47107200D02*
X128242400Y-45623200D01*
X119307008Y-112544056D02*
X119281608Y-112569456D01*
D61*
X118094900Y-91329200D02*
X118094900Y-92186900D01*
D63*
X103082400Y-81169200D02*
X102828400Y-81423200D01*
X107456700Y-83404600D02*
X108924200Y-83404600D01*
X95183200Y-111420400D02*
X95199200Y-111404400D01*
D61*
X119846400Y-64304700D02*
X120692700Y-64304700D01*
D63*
X127549000Y-85404600D02*
X127466400Y-85487200D01*
D61*
X113167300Y-91329200D02*
X112284200Y-91329200D01*
X113167300Y-93005600D02*
X112309600Y-93005600D01*
D63*
X114369200Y-87408400D02*
X114512400Y-87265200D01*
X132900900Y-85233200D02*
X132900900Y-86402700D01*
D62*
X130321731Y-63414600D02*
X130321731Y-65066900D01*
D60*
X115243008Y-113635156D02*
X115243008Y-114735008D01*
X117900400Y-52807200D02*
X117814400Y-52721200D01*
D61*
X112309600Y-93005600D02*
X112268000Y-92964000D01*
D63*
X121523900Y-57547200D02*
X121523900Y-56430700D01*
X141846731Y-63465400D02*
X141846731Y-62306400D01*
D60*
X124409200Y-112308600D02*
X123047800Y-112308600D01*
D61*
X115782400Y-64050700D02*
X115782400Y-63160600D01*
D60*
X132817400Y-44507200D02*
X133902400Y-44507200D01*
X141699000Y-69436000D02*
X141605000Y-69342000D01*
D63*
X128781700Y-85404600D02*
X127549000Y-85404600D01*
D60*
X121430700Y-116386600D02*
X121430700Y-114990148D01*
D63*
X135955800Y-80527200D02*
X136966000Y-80527200D01*
D62*
X135436531Y-68658200D02*
X135436531Y-70194700D01*
D63*
X105114400Y-82338700D02*
X106029900Y-82338700D01*
D61*
X115782400Y-63160600D02*
X115824000Y-63119000D01*
X130768400Y-77384600D02*
X130810000Y-77343000D01*
D60*
X132817400Y-52807200D02*
X133984400Y-52807200D01*
X132143408Y-115998456D02*
X133454808Y-115998456D01*
X119307008Y-111399956D02*
X119307008Y-112544056D01*
D64*
X117942500Y-97222000D02*
X117942500Y-96156300D01*
D60*
X133984400Y-52807200D02*
X134070400Y-52721200D01*
D63*
X119369200Y-89317100D02*
X119369200Y-87804000D01*
X105622400Y-75480700D02*
X104452900Y-75480700D01*
D61*
X117306400Y-64050700D02*
X117306400Y-63160600D01*
D63*
X124369200Y-87724000D02*
X124164400Y-87519200D01*
X116369200Y-69406400D02*
X116290400Y-69485200D01*
X126674400Y-59041200D02*
X126704400Y-59071200D01*
D61*
X107553900Y-65293100D02*
X107569000Y-65278000D01*
X128074900Y-66437200D02*
X129015800Y-66437200D01*
X112284200Y-91329200D02*
X112268000Y-91313000D01*
D63*
X144599200Y-66621200D02*
X144272000Y-66294000D01*
D60*
X112556400Y-109312600D02*
X111674800Y-109312600D01*
D63*
X132900900Y-86402700D02*
X132800400Y-86503200D01*
D61*
X117306400Y-63160600D02*
X117348000Y-63119000D01*
D63*
X116369200Y-67992100D02*
X116369200Y-69406400D01*
D64*
X117942500Y-96156300D02*
X117916000Y-96129800D01*
D63*
X124722400Y-59041200D02*
X126674400Y-59041200D01*
X102928900Y-82338700D02*
X102828400Y-82439200D01*
X121523900Y-56430700D02*
X121370400Y-56277200D01*
D61*
X118094900Y-92186900D02*
X118110000Y-92202000D01*
D60*
X122231200Y-111407100D02*
X121843800Y-111794500D01*
D63*
X114369200Y-89317100D02*
X114369200Y-87408400D01*
X104452900Y-75480700D02*
X104352400Y-75581200D01*
X126869200Y-67992100D02*
X126869200Y-69066400D01*
X120369200Y-67992100D02*
X120369200Y-69470400D01*
D64*
X119999900Y-95469400D02*
X118855800Y-95469400D01*
D60*
X115243008Y-114735008D02*
X115316000Y-114808000D01*
D63*
X121777900Y-99838200D02*
X121777900Y-98975700D01*
X128781700Y-80404600D02*
X127215000Y-80404600D01*
X105114400Y-87849400D02*
X105114400Y-87111700D01*
X97332800Y-99923600D02*
X97383600Y-99974400D01*
D64*
X123121600Y-97517200D02*
X124046600Y-97517200D01*
D61*
X123047900Y-92186900D02*
X123063000Y-92202000D01*
D63*
X120369200Y-69470400D02*
X120354400Y-69485200D01*
X95183200Y-109661200D02*
X95199200Y-109677200D01*
X145215531Y-66621200D02*
X144599200Y-66621200D01*
X103844400Y-82338700D02*
X102928900Y-82338700D01*
X121777900Y-98975700D02*
X121573600Y-98771400D01*
D60*
X119067400Y-52807200D02*
X117900400Y-52807200D01*
D63*
X107456700Y-77404600D02*
X108969800Y-77404600D01*
D60*
X133902400Y-44507200D02*
X134070400Y-44339200D01*
D63*
X105077400Y-79862200D02*
X104606400Y-79391200D01*
D62*
X108259000Y-86904600D02*
X107456700Y-86904600D01*
D63*
X97383600Y-106934000D02*
X97434400Y-106984800D01*
D60*
X119067400Y-44507200D02*
X117728400Y-44507200D01*
X117728400Y-44507200D02*
X117560400Y-44339200D01*
D64*
X126103200Y-98417200D02*
X125621600Y-98417200D01*
D63*
X107823000Y-91540500D02*
X108662300Y-91540500D01*
D64*
X126238000Y-98552000D02*
X126103200Y-98417200D01*
D63*
X94081600Y-111420400D02*
X95183200Y-111420400D01*
D61*
X130768400Y-78274700D02*
X130768400Y-77384600D01*
X107553900Y-66183200D02*
X107553900Y-65293100D01*
D63*
X141846731Y-62306400D02*
X141659531Y-62119200D01*
D60*
X121843800Y-111794500D02*
X121843800Y-112395000D01*
D63*
X108924200Y-83404600D02*
X108924400Y-83404400D01*
X103997900Y-81169200D02*
X103082400Y-81169200D01*
D61*
X120692700Y-64304700D02*
X120777000Y-64389000D01*
D63*
X102057200Y-80253700D02*
X101141700Y-80253700D01*
X136966000Y-80527200D02*
X137007600Y-80568800D01*
D61*
X129015800Y-66437200D02*
X129032000Y-66421000D01*
D64*
X126121600Y-97517200D02*
X125196600Y-97517200D01*
D62*
X112378800Y-63938600D02*
X113664800Y-63938600D01*
D63*
X109869200Y-67992100D02*
X109869200Y-69414000D01*
D60*
X145412700Y-122844600D02*
X145412700Y-123878100D01*
D63*
X104927400Y-88036400D02*
X105114400Y-87849400D01*
X96155200Y-114503200D02*
X97332800Y-114503200D01*
X124369200Y-89317100D02*
X124369200Y-87724000D01*
X126869200Y-69066400D02*
X126704400Y-69231200D01*
D60*
X120863208Y-111407100D02*
X120863208Y-112314456D01*
D63*
X96155200Y-99923600D02*
X97332800Y-99923600D01*
D61*
X123047900Y-91329200D02*
X123047900Y-92186900D01*
D62*
X120863208Y-109682100D02*
X120863208Y-104886608D01*
X120863208Y-104886608D02*
X120370600Y-104394000D01*
D61*
X98815200Y-98561200D02*
X98806000Y-98552000D01*
X98815200Y-106284000D02*
X98815200Y-105419200D01*
X98815200Y-113039200D02*
X98806000Y-113030000D01*
D60*
X132121200Y-112588600D02*
X132121200Y-114117856D01*
D61*
X98815200Y-105419200D02*
X98806000Y-105410000D01*
D60*
X132029200Y-112496600D02*
X132121200Y-112588600D01*
X116765200Y-111685200D02*
X116765200Y-109312600D01*
D61*
X98815200Y-113853200D02*
X98815200Y-113039200D01*
D60*
X116840000Y-111760000D02*
X116765200Y-111685200D01*
D61*
X98815200Y-99273600D02*
X98815200Y-98561200D01*
X107456700Y-84404600D02*
X106096500Y-84404600D01*
X105273500Y-83904600D02*
X105114400Y-84063700D01*
X103844400Y-84063700D02*
X103844400Y-85386700D01*
X107456700Y-83904600D02*
X105273500Y-83904600D01*
X106096500Y-84404600D02*
X105114400Y-85386700D01*
X103844400Y-85386700D02*
X105114400Y-85386700D01*
D63*
X131276400Y-84471200D02*
X130709800Y-83904600D01*
X128781700Y-86904600D02*
X130621000Y-86904600D01*
X131276400Y-86249200D02*
X131276400Y-84471200D01*
X130709800Y-83904600D02*
X128781700Y-83904600D01*
X130621000Y-86904600D02*
X131276400Y-86249200D01*
X108659800Y-80904600D02*
X109178400Y-81423200D01*
X105987500Y-80904600D02*
X107456700Y-80904600D01*
X105722900Y-81169200D02*
X105987500Y-80904600D01*
X107456700Y-80904600D02*
X108659800Y-80904600D01*
D64*
X119772300Y-97117200D02*
X119667500Y-97222000D01*
X123121600Y-97117200D02*
X119772300Y-97117200D01*
D63*
X104292400Y-89886000D02*
X104292400Y-89687400D01*
X104292400Y-89687400D02*
X105105200Y-88874600D01*
X107456700Y-84904600D02*
X109027600Y-84904600D01*
X109027600Y-84904600D02*
X109407000Y-85284000D01*
D64*
X105865920Y-88313687D02*
X105864360Y-88315248D01*
X106771800Y-85404600D02*
X105865920Y-86310480D01*
X107456700Y-85404600D02*
X106771800Y-85404600D01*
X105865920Y-86310480D02*
X105865920Y-88313687D01*
X105864360Y-88315248D02*
X105864360Y-97931240D01*
X105864360Y-97931240D02*
X102479600Y-101316000D01*
D63*
X132597200Y-70399600D02*
X131555800Y-70399600D01*
X135955800Y-77867200D02*
X135955800Y-76196600D01*
X135955800Y-76196600D02*
X135848400Y-76089200D01*
X131555800Y-70399600D02*
X131550800Y-70404600D01*
X136378400Y-77444600D02*
X135955800Y-77867200D01*
X131550800Y-70404600D02*
X128781700Y-70404600D01*
X139319000Y-77444600D02*
X136378400Y-77444600D01*
X134444400Y-80527200D02*
X133562400Y-79645200D01*
X125869200Y-67992100D02*
X125869200Y-76524000D01*
X125869200Y-76524000D02*
X125942400Y-76597200D01*
X134655800Y-80527200D02*
X134444400Y-80527200D01*
X134655800Y-81077200D02*
X134655800Y-80527200D01*
X136103200Y-82524600D02*
X134655800Y-81077200D01*
X139319000Y-82524600D02*
X136103200Y-82524600D01*
D62*
X124123920Y-57193142D02*
X124123920Y-58465200D01*
X122742400Y-47107200D02*
X122742400Y-55811622D01*
X122742400Y-55811622D02*
X124123920Y-57193142D01*
X124522400Y-58465200D02*
X124522400Y-57059142D01*
X123910400Y-56447142D02*
X123910400Y-47175200D01*
X123910400Y-47175200D02*
X123842400Y-47107200D01*
X124522400Y-57059142D02*
X123910400Y-56447142D01*
X124942400Y-58445200D02*
X124922400Y-58465200D01*
X124942400Y-47107200D02*
X124942400Y-58445200D01*
X127142400Y-53807200D02*
X127142400Y-47107200D01*
X125322400Y-55627200D02*
X127142400Y-53807200D01*
X125322400Y-58465200D02*
X125322400Y-55627200D01*
X125722400Y-58465200D02*
X125722400Y-57005200D01*
X129342400Y-53385200D02*
X129342400Y-47107200D01*
X125722400Y-57005200D02*
X129342400Y-53385200D01*
X126122400Y-58465200D02*
X126122400Y-57875200D01*
X126122400Y-57875200D02*
X130442400Y-53555200D01*
X130442400Y-53555200D02*
X130442400Y-47107200D01*
X112369200Y-65948200D02*
X112378800Y-65938600D01*
X112369200Y-67992100D02*
X112369200Y-65948200D01*
D63*
X94081600Y-115128800D02*
X94081600Y-113420400D01*
X94081600Y-113420400D02*
X95722400Y-113420400D01*
X95722400Y-113420400D02*
X96155200Y-113853200D01*
X95925600Y-106054400D02*
X96155200Y-106284000D01*
X94081600Y-106054400D02*
X95925600Y-106054400D01*
X94081600Y-106054400D02*
X94081600Y-107661200D01*
X99781600Y-115153200D02*
X100279200Y-114655600D01*
X100736400Y-101041200D02*
X100736400Y-93692000D01*
X103242400Y-91186000D02*
X104292400Y-91186000D01*
X96155200Y-115153200D02*
X98815200Y-115153200D01*
X98815200Y-115153200D02*
X99781600Y-115153200D01*
X100736400Y-93692000D02*
X103242400Y-91186000D01*
X96155200Y-107584000D02*
X98815200Y-107584000D01*
X100939600Y-106527600D02*
X100939600Y-103652978D01*
X100939600Y-103652978D02*
X101976578Y-102616000D01*
X101976578Y-102616000D02*
X102479600Y-102616000D01*
X99883200Y-107584000D02*
X100939600Y-106527600D01*
X98815200Y-107584000D02*
X99883200Y-107584000D01*
X90765400Y-117128800D02*
X88279200Y-114642600D01*
X94081600Y-117128800D02*
X90765400Y-117128800D01*
X91867400Y-104054400D02*
X94081600Y-104054400D01*
X88279200Y-107642600D02*
X91867400Y-104054400D01*
X106086400Y-111658400D02*
X106476800Y-111658400D01*
X96155200Y-100573600D02*
X98815200Y-100573600D01*
X108000800Y-110134400D02*
X108000800Y-101041200D01*
X99872800Y-99974400D02*
X99414400Y-99974400D01*
X106476800Y-111658400D02*
X108000800Y-110134400D01*
X99414400Y-99974400D02*
X98815200Y-100573600D01*
X136706531Y-63708200D02*
X136579531Y-63581200D01*
X146165531Y-62169200D02*
X146231531Y-62103200D01*
X147755531Y-64913200D02*
X147063531Y-64221200D01*
X136579531Y-63581200D02*
X136579531Y-57293200D01*
X140135531Y-65421200D02*
X137087531Y-65421200D01*
X146165531Y-64221200D02*
X145285531Y-64221200D01*
X148249531Y-68455200D02*
X151174869Y-68455200D01*
X145285531Y-64221200D02*
X145215531Y-64151200D01*
X147063531Y-64221200D02*
X146165531Y-64221200D01*
X146165531Y-64221200D02*
X146165531Y-62169200D01*
X148009531Y-68215200D02*
X148249531Y-68455200D01*
X137087531Y-65421200D02*
X136706531Y-65040200D01*
X136706531Y-65040200D02*
X136706531Y-63708200D01*
X106697701Y-79904600D02*
X105531400Y-78738299D01*
X107456700Y-79904600D02*
X106697701Y-79904600D01*
X105531400Y-78738299D02*
X105531400Y-78412200D01*
D64*
X121532200Y-97917200D02*
X121345000Y-97730000D01*
D63*
X123869200Y-90526000D02*
X123910400Y-90567200D01*
X123869200Y-89317100D02*
X123869200Y-90526000D01*
D64*
X123121600Y-97917200D02*
X121532200Y-97917200D01*
D62*
X127158400Y-96717200D02*
X128482400Y-95393200D01*
X125369200Y-88092400D02*
X125369200Y-89317100D01*
X126121600Y-96717200D02*
X127158400Y-96717200D01*
X126073880Y-88149720D02*
X125869200Y-88354400D01*
X127720400Y-88535200D02*
X127334920Y-88149720D01*
X126121600Y-96317200D02*
X126528871Y-96317200D01*
X125869200Y-88354400D02*
X125869200Y-89317100D01*
X126528871Y-96317200D02*
X127720400Y-95125671D01*
X127334920Y-88149720D02*
X126073880Y-88149720D01*
X127720400Y-95125671D02*
X127720400Y-88535200D01*
D63*
X126369200Y-92680400D02*
X126369200Y-89317100D01*
X123121600Y-96717200D02*
X124872400Y-96717200D01*
X124872400Y-96717200D02*
X124926400Y-96663200D01*
X125942400Y-93107200D02*
X126369200Y-92680400D01*
D62*
X126869200Y-95330000D02*
X126869200Y-89317100D01*
X126282000Y-95917200D02*
X126869200Y-95330000D01*
X126121600Y-95917200D02*
X126282000Y-95917200D01*
D64*
X122894400Y-60341200D02*
X122640400Y-60087200D01*
X122640400Y-60087200D02*
X122640400Y-59833200D01*
X122640400Y-59833200D02*
X122857400Y-59616200D01*
X130827400Y-74404600D02*
X131682800Y-73549200D01*
X122857400Y-59616200D02*
X123322400Y-59616200D01*
X128781700Y-74404600D02*
X130827400Y-74404600D01*
X128781700Y-73904600D02*
X128117787Y-73904600D01*
X128117787Y-73904600D02*
X127593400Y-73380213D01*
X127593400Y-65548200D02*
X125722400Y-63677200D01*
X125722400Y-63677200D02*
X125722400Y-59616200D01*
X130768400Y-66945200D02*
X126122400Y-62299200D01*
X130659000Y-73404600D02*
X128781700Y-73404600D01*
X126122400Y-62299200D02*
X126122400Y-59616200D01*
X130768400Y-68469200D02*
X130768400Y-66945200D01*
X130768400Y-73295200D02*
X130659000Y-73404600D01*
D63*
X137708131Y-71404600D02*
X137976531Y-71136200D01*
X137976531Y-71136200D02*
X137976531Y-68658200D01*
X128781700Y-71404600D02*
X137708131Y-71404600D01*
X134166531Y-70628200D02*
X134166531Y-68658200D01*
X133818620Y-70976111D02*
X134166531Y-70628200D01*
X128781700Y-70904600D02*
X128853211Y-70976111D01*
X128853211Y-70976111D02*
X133818620Y-70976111D01*
X90127400Y-100642600D02*
X94081600Y-96688400D01*
X88279200Y-100642600D02*
X90127400Y-100642600D01*
D64*
X124869200Y-66748400D02*
X124926400Y-66691200D01*
X124869200Y-67992100D02*
X124869200Y-66748400D01*
X124122400Y-61145200D02*
X124122400Y-59616200D01*
X123656400Y-61611200D02*
X124122400Y-61145200D01*
D62*
X124522400Y-59616200D02*
X124522400Y-61525155D01*
X124164400Y-61883155D02*
X124164400Y-63879245D01*
X124522400Y-61525155D02*
X124164400Y-61883155D01*
X124369200Y-64084045D02*
X124369200Y-67992100D01*
X124164400Y-63879245D02*
X124369200Y-64084045D01*
X123402400Y-64405200D02*
X123402400Y-66691200D01*
X123402400Y-66691200D02*
X123869200Y-67158000D01*
X125322400Y-63755200D02*
X125322400Y-59616200D01*
X125180400Y-63897200D02*
X125322400Y-63755200D01*
X123656400Y-64151200D02*
X123402400Y-64405200D01*
X123869200Y-67158000D02*
X123869200Y-67992100D01*
X124922400Y-62420700D02*
X124715900Y-62627200D01*
X122369200Y-63932900D02*
X122369200Y-67992100D01*
X124922400Y-59616200D02*
X124922400Y-62420700D01*
X123420900Y-62881200D02*
X122369200Y-63932900D01*
D63*
X147114531Y-67070200D02*
X144265531Y-64221200D01*
X144265531Y-64221200D02*
X144265531Y-60656200D01*
X142303531Y-66183200D02*
X135817531Y-66183200D01*
X135436531Y-63708200D02*
X135436531Y-60468200D01*
X135817531Y-66183200D02*
X135436531Y-65802200D01*
X135436531Y-65802200D02*
X135436531Y-63708200D01*
X147114531Y-67070200D02*
X154014869Y-67070200D01*
X144265531Y-60656200D02*
X141664531Y-58055200D01*
X135309531Y-60341200D02*
X135055531Y-60341200D01*
X135436531Y-60468200D02*
X135309531Y-60341200D01*
X144265531Y-64221200D02*
X142303531Y-66183200D01*
X146231531Y-60103200D02*
X146231531Y-60082200D01*
X146231531Y-60082200D02*
X144204531Y-58055200D01*
D62*
X104292400Y-92601300D02*
X104292400Y-95441500D01*
X102479600Y-103916000D02*
X102479600Y-107365800D01*
X102479600Y-107365800D02*
X102454200Y-107391200D01*
D64*
X106792787Y-85904600D02*
X107456700Y-85904600D01*
X106248200Y-86449187D02*
X106792787Y-85904600D01*
X106248200Y-110196600D02*
X106248200Y-86449187D01*
D62*
X106086400Y-112958400D02*
X109799400Y-112958400D01*
X109799400Y-112958400D02*
X109820200Y-112979200D01*
D63*
X95792800Y-98688400D02*
X94081600Y-98688400D01*
X96155200Y-99273600D02*
X96155200Y-99050800D01*
X96155200Y-99050800D02*
X95792800Y-98688400D01*
X94081600Y-98688400D02*
X94081600Y-100244400D01*
D60*
X149841200Y-120944600D02*
X150091200Y-121194600D01*
X145412700Y-120944600D02*
X149841200Y-120944600D01*
G04 #@! TA.AperFunction,Conductor*
G36*
X130918181Y-113359283D02*
G01*
X130921608Y-113367556D01*
X130921608Y-116722356D01*
X130918181Y-116730629D01*
X130909908Y-116734056D01*
X129409308Y-116734056D01*
X129401035Y-116730629D01*
X129397608Y-116722356D01*
X129397608Y-115387856D01*
X128889608Y-114625856D01*
X126615308Y-114625856D01*
X126607035Y-114622429D01*
X126603608Y-114614156D01*
X126603608Y-113875556D01*
X126607035Y-113867283D01*
X126615308Y-113863856D01*
X129397608Y-113863856D01*
X129397608Y-113367556D01*
X129401035Y-113359283D01*
X129409308Y-113355856D01*
X130909908Y-113355856D01*
X130918181Y-113359283D01*
G37*
G04 #@! TD.AperFunction*
G04 #@! TA.AperFunction,Conductor*
G36*
X105539121Y-83399002D02*
G01*
X105585614Y-83452658D01*
X105597000Y-83505000D01*
X105597000Y-84497600D01*
X105576998Y-84565721D01*
X105523342Y-84612214D01*
X105471000Y-84623600D01*
X102015600Y-84623600D01*
X102015600Y-85945400D01*
X101995598Y-86013521D01*
X101941942Y-86060014D01*
X101889600Y-86071400D01*
X100668400Y-86071400D01*
X100600279Y-86051398D01*
X100553786Y-85997742D01*
X100542400Y-85945400D01*
X100542400Y-83505000D01*
X100562402Y-83436879D01*
X100616058Y-83390386D01*
X100668400Y-83379000D01*
X105471000Y-83379000D01*
X105539121Y-83399002D01*
G37*
G04 #@! TD.AperFunction*
G04 #@! TA.AperFunction,Conductor*
G36*
X130609773Y-108897027D02*
G01*
X130613200Y-108905300D01*
X130613200Y-111142500D01*
X130609773Y-111150773D01*
X130601500Y-111154200D01*
X126549200Y-111154200D01*
X126549200Y-113606300D01*
X126545773Y-113614573D01*
X126537500Y-113618000D01*
X123258900Y-113618000D01*
X123250627Y-113614573D01*
X123247200Y-113606300D01*
X123247200Y-112858230D01*
X123250627Y-112849957D01*
X123252467Y-112848578D01*
X123252422Y-112848513D01*
X123252920Y-112848167D01*
X123253465Y-112847867D01*
X123261249Y-112841149D01*
X123262871Y-112839527D01*
X123271144Y-112836100D01*
X124445402Y-112836100D01*
X124484765Y-112830708D01*
X124486354Y-112830600D01*
X125685600Y-112830600D01*
X125685600Y-108905300D01*
X125689027Y-108897027D01*
X125697300Y-108893600D01*
X130601500Y-108893600D01*
X130609773Y-108897027D01*
G37*
G04 #@! TD.AperFunction*
G04 #@! TA.AperFunction,Conductor*
G36*
X144290321Y-118612602D02*
G01*
X144336814Y-118666258D01*
X144348200Y-118718600D01*
X144348200Y-124562600D01*
X144328198Y-124630721D01*
X144274542Y-124677214D01*
X144222200Y-124688600D01*
X136981200Y-124688600D01*
X136913079Y-124668598D01*
X136866586Y-124614942D01*
X136855200Y-124562600D01*
X136855200Y-118718600D01*
X136875202Y-118650479D01*
X136928858Y-118603986D01*
X136981200Y-118592600D01*
X144222200Y-118592600D01*
X144290321Y-118612602D01*
G37*
G04 #@! TD.AperFunction*
G04 #@! TA.AperFunction,Conductor*
G36*
X130638781Y-111352683D02*
G01*
X130642208Y-111360956D01*
X130642208Y-112658356D01*
X130638781Y-112666629D01*
X130630508Y-112670056D01*
X126818508Y-112670056D01*
X126810235Y-112666629D01*
X126806808Y-112658356D01*
X126806808Y-111953300D01*
X126810235Y-111945027D01*
X126818508Y-111941600D01*
X129597200Y-111941600D01*
X129597200Y-111360956D01*
X129600627Y-111352683D01*
X129608900Y-111349256D01*
X130630508Y-111349256D01*
X130638781Y-111352683D01*
G37*
G04 #@! TD.AperFunction*
G04 #@! TA.AperFunction,Conductor*
G36*
X134432652Y-62702502D02*
G01*
X134479145Y-62756158D01*
X134490531Y-62808500D01*
X134490531Y-64613900D01*
X134470529Y-64682021D01*
X134416873Y-64728514D01*
X134364531Y-64739900D01*
X133956131Y-64739900D01*
X133888010Y-64719898D01*
X133841517Y-64666242D01*
X133830131Y-64613900D01*
X133830131Y-64130300D01*
X131822531Y-64130300D01*
X131754410Y-64110298D01*
X131707917Y-64056642D01*
X131696531Y-64004300D01*
X131696531Y-62808500D01*
X131716533Y-62740379D01*
X131770189Y-62693886D01*
X131822531Y-62682500D01*
X134364531Y-62682500D01*
X134432652Y-62702502D01*
G37*
G04 #@! TD.AperFunction*
G04 #@! TA.AperFunction,Conductor*
G36*
X126009088Y-113842926D02*
G01*
X126012618Y-113851291D01*
X126016530Y-118321614D01*
X126021933Y-124494294D01*
X126021978Y-124546261D01*
X126018558Y-124554537D01*
X126009997Y-124557968D01*
X124764274Y-124528059D01*
X123357955Y-124494294D01*
X123349767Y-124490669D01*
X123346536Y-124482566D01*
X123374170Y-113883526D01*
X123377618Y-113875262D01*
X123385726Y-113871858D01*
X126000774Y-113839602D01*
X126009088Y-113842926D01*
G37*
G04 #@! TD.AperFunction*
G04 #@! TA.AperFunction,Conductor*
G36*
X117283704Y-108156627D02*
G01*
X117287130Y-108164748D01*
X117297200Y-108940600D01*
X123374200Y-108893600D01*
X125115100Y-108893600D01*
X125123373Y-108897027D01*
X125126800Y-108905300D01*
X125126800Y-111218700D01*
X125123373Y-111226973D01*
X125115100Y-111230400D01*
X123462100Y-111230400D01*
X123453827Y-111226973D01*
X123450400Y-111218700D01*
X123450400Y-110366800D01*
X123448048Y-110366820D01*
X118369536Y-110410436D01*
X118367208Y-110410456D01*
X118367208Y-110932013D01*
X118363781Y-110940286D01*
X118355366Y-110943712D01*
X116292757Y-110918597D01*
X116284527Y-110915070D01*
X116281200Y-110906898D01*
X116281200Y-108164900D01*
X116284627Y-108156627D01*
X116292900Y-108153200D01*
X117275431Y-108153200D01*
X117283704Y-108156627D01*
G37*
G04 #@! TD.AperFunction*
G04 #@! TA.AperFunction,Conductor*
G36*
X116121181Y-101569202D02*
G01*
X116167674Y-101622858D01*
X116179059Y-101675738D01*
X116154200Y-107492800D01*
X116154200Y-107874800D01*
X116134198Y-107942921D01*
X116080542Y-107989414D01*
X116028200Y-108000800D01*
X115773200Y-108000800D01*
X115773200Y-112421400D01*
X115753198Y-112489521D01*
X115699542Y-112536014D01*
X115647200Y-112547400D01*
X114807266Y-112547400D01*
X114739145Y-112527398D01*
X114692652Y-112473742D01*
X114681266Y-112421135D01*
X114690534Y-108018915D01*
X114690572Y-108000800D01*
X114502200Y-108000800D01*
X114434079Y-107980798D01*
X114387586Y-107927142D01*
X114376200Y-107874800D01*
X114376200Y-101675200D01*
X114396202Y-101607079D01*
X114449858Y-101560586D01*
X114502200Y-101549200D01*
X116053060Y-101549200D01*
X116121181Y-101569202D01*
G37*
G04 #@! TD.AperFunction*
G04 #@! TA.AperFunction,Conductor*
G36*
X139087052Y-60767602D02*
G01*
X139133545Y-60821258D01*
X139144931Y-60873600D01*
X139144931Y-62728800D01*
X140339731Y-62728800D01*
X140407852Y-62748802D01*
X140454345Y-62802458D01*
X140465731Y-62854800D01*
X140465731Y-64076000D01*
X140445729Y-64144121D01*
X140392073Y-64190614D01*
X140339731Y-64202000D01*
X138332131Y-64202000D01*
X138332131Y-64634800D01*
X138312129Y-64702921D01*
X138258473Y-64749414D01*
X138206131Y-64760800D01*
X137721531Y-64760800D01*
X137653410Y-64740798D01*
X137606917Y-64687142D01*
X137595531Y-64634800D01*
X137595531Y-60873600D01*
X137615533Y-60805479D01*
X137669189Y-60758986D01*
X137721531Y-60747600D01*
X139018931Y-60747600D01*
X139087052Y-60767602D01*
G37*
G04 #@! TD.AperFunction*
M02*
