G04 #@! TF.GenerationSoftware,KiCad,Pcbnew,(6.0.0-0)*
G04 #@! TF.CreationDate,2023-02-02T14:04:45-07:00*
G04 #@! TF.ProjectId,EVCU,45564355-2e6b-4696-9361-645f70636258,rev?*
G04 #@! TF.SameCoordinates,Original*
G04 #@! TF.FileFunction,Legend,Bot*
G04 #@! TF.FilePolarity,Positive*
%FSLAX46Y46*%
G04 Gerber Fmt 4.6, Leading zero omitted, Abs format (unit mm)*
G04 Created by KiCad (PCBNEW (6.0.0-0)) date 2023-02-02 14:04:45*
%MOMM*%
%LPD*%
G01*
G04 APERTURE LIST*
G04 Aperture macros list*
%AMRoundRect*
0 Rectangle with rounded corners*
0 $1 Rounding radius*
0 $2 $3 $4 $5 $6 $7 $8 $9 X,Y pos of 4 corners*
0 Add a 4 corners polygon primitive as box body*
4,1,4,$2,$3,$4,$5,$6,$7,$8,$9,$2,$3,0*
0 Add four circle primitives for the rounded corners*
1,1,$1+$1,$2,$3*
1,1,$1+$1,$4,$5*
1,1,$1+$1,$6,$7*
1,1,$1+$1,$8,$9*
0 Add four rect primitives between the rounded corners*
20,1,$1+$1,$2,$3,$4,$5,0*
20,1,$1+$1,$4,$5,$6,$7,0*
20,1,$1+$1,$6,$7,$8,$9,0*
20,1,$1+$1,$8,$9,$2,$3,0*%
G04 Aperture macros list end*
%ADD10C,0.150000*%
%ADD11C,0.120000*%
%ADD12R,2.400000X2.400000*%
%ADD13C,2.400000*%
%ADD14C,2.235200*%
%ADD15R,1.700000X1.700000*%
%ADD16O,1.700000X1.700000*%
%ADD17C,4.000000*%
%ADD18R,1.600000X1.600000*%
%ADD19C,1.600000*%
%ADD20RoundRect,0.237500X-0.300000X-0.237500X0.300000X-0.237500X0.300000X0.237500X-0.300000X0.237500X0*%
%ADD21RoundRect,0.250001X-0.462499X-1.074999X0.462499X-1.074999X0.462499X1.074999X-0.462499X1.074999X0*%
%ADD22RoundRect,0.237500X0.237500X-0.300000X0.237500X0.300000X-0.237500X0.300000X-0.237500X-0.300000X0*%
%ADD23RoundRect,0.237500X0.300000X0.237500X-0.300000X0.237500X-0.300000X-0.237500X0.300000X-0.237500X0*%
%ADD24RoundRect,0.250000X0.450000X-0.350000X0.450000X0.350000X-0.450000X0.350000X-0.450000X-0.350000X0*%
%ADD25RoundRect,0.250000X-0.450000X0.350000X-0.450000X-0.350000X0.450000X-0.350000X0.450000X0.350000X0*%
%ADD26RoundRect,0.250000X-0.350000X-0.450000X0.350000X-0.450000X0.350000X0.450000X-0.350000X0.450000X0*%
%ADD27RoundRect,0.237500X-0.237500X0.300000X-0.237500X-0.300000X0.237500X-0.300000X0.237500X0.300000X0*%
%ADD28R,0.800000X0.900000*%
%ADD29RoundRect,0.250000X0.350000X0.450000X-0.350000X0.450000X-0.350000X-0.450000X0.350000X-0.450000X0*%
G04 APERTURE END LIST*
D10*
X60459857Y-51748942D02*
X60507476Y-51796561D01*
X60650333Y-51844180D01*
X60745571Y-51844180D01*
X60888428Y-51796561D01*
X60983666Y-51701323D01*
X61031285Y-51606085D01*
X61078904Y-51415609D01*
X61078904Y-51272752D01*
X61031285Y-51082276D01*
X60983666Y-50987038D01*
X60888428Y-50891800D01*
X60745571Y-50844180D01*
X60650333Y-50844180D01*
X60507476Y-50891800D01*
X60459857Y-50939419D01*
X59507476Y-51844180D02*
X60078904Y-51844180D01*
X59793190Y-51844180D02*
X59793190Y-50844180D01*
X59888428Y-50987038D01*
X59983666Y-51082276D01*
X60078904Y-51129895D01*
X59031285Y-51844180D02*
X58840809Y-51844180D01*
X58745571Y-51796561D01*
X58697952Y-51748942D01*
X58602714Y-51606085D01*
X58555095Y-51415609D01*
X58555095Y-51034657D01*
X58602714Y-50939419D01*
X58650333Y-50891800D01*
X58745571Y-50844180D01*
X58936047Y-50844180D01*
X59031285Y-50891800D01*
X59078904Y-50939419D01*
X59126523Y-51034657D01*
X59126523Y-51272752D01*
X59078904Y-51367990D01*
X59031285Y-51415609D01*
X58936047Y-51463228D01*
X58745571Y-51463228D01*
X58650333Y-51415609D01*
X58602714Y-51367990D01*
X58555095Y-51272752D01*
X43219666Y-68340580D02*
X43695857Y-68340580D01*
X43695857Y-67340580D01*
X42362523Y-68340580D02*
X42933952Y-68340580D01*
X42648238Y-68340580D02*
X42648238Y-67340580D01*
X42743476Y-67483438D01*
X42838714Y-67578676D01*
X42933952Y-67626295D01*
X68258942Y-58666142D02*
X68306561Y-58618523D01*
X68354180Y-58475666D01*
X68354180Y-58380428D01*
X68306561Y-58237571D01*
X68211323Y-58142333D01*
X68116085Y-58094714D01*
X67925609Y-58047095D01*
X67782752Y-58047095D01*
X67592276Y-58094714D01*
X67497038Y-58142333D01*
X67401800Y-58237571D01*
X67354180Y-58380428D01*
X67354180Y-58475666D01*
X67401800Y-58618523D01*
X67449419Y-58666142D01*
X68354180Y-59618523D02*
X68354180Y-59047095D01*
X68354180Y-59332809D02*
X67354180Y-59332809D01*
X67497038Y-59237571D01*
X67592276Y-59142333D01*
X67639895Y-59047095D01*
X67782752Y-60189952D02*
X67735133Y-60094714D01*
X67687514Y-60047095D01*
X67592276Y-59999476D01*
X67544657Y-59999476D01*
X67449419Y-60047095D01*
X67401800Y-60094714D01*
X67354180Y-60189952D01*
X67354180Y-60380428D01*
X67401800Y-60475666D01*
X67449419Y-60523285D01*
X67544657Y-60570904D01*
X67592276Y-60570904D01*
X67687514Y-60523285D01*
X67735133Y-60475666D01*
X67782752Y-60380428D01*
X67782752Y-60189952D01*
X67830371Y-60094714D01*
X67877990Y-60047095D01*
X67973228Y-59999476D01*
X68163704Y-59999476D01*
X68258942Y-60047095D01*
X68306561Y-60094714D01*
X68354180Y-60189952D01*
X68354180Y-60380428D01*
X68306561Y-60475666D01*
X68258942Y-60523285D01*
X68163704Y-60570904D01*
X67973228Y-60570904D01*
X67877990Y-60523285D01*
X67830371Y-60475666D01*
X67782752Y-60380428D01*
X50020457Y-51774342D02*
X50068076Y-51821961D01*
X50210933Y-51869580D01*
X50306171Y-51869580D01*
X50449028Y-51821961D01*
X50544266Y-51726723D01*
X50591885Y-51631485D01*
X50639504Y-51441009D01*
X50639504Y-51298152D01*
X50591885Y-51107676D01*
X50544266Y-51012438D01*
X50449028Y-50917200D01*
X50306171Y-50869580D01*
X50210933Y-50869580D01*
X50068076Y-50917200D01*
X50020457Y-50964819D01*
X49687123Y-50869580D02*
X49068076Y-50869580D01*
X49401409Y-51250533D01*
X49258552Y-51250533D01*
X49163314Y-51298152D01*
X49115695Y-51345771D01*
X49068076Y-51441009D01*
X49068076Y-51679104D01*
X49115695Y-51774342D01*
X49163314Y-51821961D01*
X49258552Y-51869580D01*
X49544266Y-51869580D01*
X49639504Y-51821961D01*
X49687123Y-51774342D01*
X48115695Y-51869580D02*
X48687123Y-51869580D01*
X48401409Y-51869580D02*
X48401409Y-50869580D01*
X48496647Y-51012438D01*
X48591885Y-51107676D01*
X48687123Y-51155295D01*
X54624266Y-53366942D02*
X54671885Y-53414561D01*
X54814742Y-53462180D01*
X54909980Y-53462180D01*
X55052838Y-53414561D01*
X55148076Y-53319323D01*
X55195695Y-53224085D01*
X55243314Y-53033609D01*
X55243314Y-52890752D01*
X55195695Y-52700276D01*
X55148076Y-52605038D01*
X55052838Y-52509800D01*
X54909980Y-52462180D01*
X54814742Y-52462180D01*
X54671885Y-52509800D01*
X54624266Y-52557419D01*
X54052838Y-52890752D02*
X54148076Y-52843133D01*
X54195695Y-52795514D01*
X54243314Y-52700276D01*
X54243314Y-52652657D01*
X54195695Y-52557419D01*
X54148076Y-52509800D01*
X54052838Y-52462180D01*
X53862361Y-52462180D01*
X53767123Y-52509800D01*
X53719504Y-52557419D01*
X53671885Y-52652657D01*
X53671885Y-52700276D01*
X53719504Y-52795514D01*
X53767123Y-52843133D01*
X53862361Y-52890752D01*
X54052838Y-52890752D01*
X54148076Y-52938371D01*
X54195695Y-52985990D01*
X54243314Y-53081228D01*
X54243314Y-53271704D01*
X54195695Y-53366942D01*
X54148076Y-53414561D01*
X54052838Y-53462180D01*
X53862361Y-53462180D01*
X53767123Y-53414561D01*
X53719504Y-53366942D01*
X53671885Y-53271704D01*
X53671885Y-53081228D01*
X53719504Y-52985990D01*
X53767123Y-52938371D01*
X53862361Y-52890752D01*
X63685657Y-67126142D02*
X63733276Y-67173761D01*
X63876133Y-67221380D01*
X63971371Y-67221380D01*
X64114228Y-67173761D01*
X64209466Y-67078523D01*
X64257085Y-66983285D01*
X64304704Y-66792809D01*
X64304704Y-66649952D01*
X64257085Y-66459476D01*
X64209466Y-66364238D01*
X64114228Y-66269000D01*
X63971371Y-66221380D01*
X63876133Y-66221380D01*
X63733276Y-66269000D01*
X63685657Y-66316619D01*
X62733276Y-67221380D02*
X63304704Y-67221380D01*
X63018990Y-67221380D02*
X63018990Y-66221380D01*
X63114228Y-66364238D01*
X63209466Y-66459476D01*
X63304704Y-66507095D01*
X61828514Y-66221380D02*
X62304704Y-66221380D01*
X62352323Y-66697571D01*
X62304704Y-66649952D01*
X62209466Y-66602333D01*
X61971371Y-66602333D01*
X61876133Y-66649952D01*
X61828514Y-66697571D01*
X61780895Y-66792809D01*
X61780895Y-67030904D01*
X61828514Y-67126142D01*
X61876133Y-67173761D01*
X61971371Y-67221380D01*
X62209466Y-67221380D01*
X62304704Y-67173761D01*
X62352323Y-67126142D01*
X32776180Y-69765942D02*
X32299990Y-69432609D01*
X32776180Y-69194514D02*
X31776180Y-69194514D01*
X31776180Y-69575466D01*
X31823800Y-69670704D01*
X31871419Y-69718323D01*
X31966657Y-69765942D01*
X32109514Y-69765942D01*
X32204752Y-69718323D01*
X32252371Y-69670704D01*
X32299990Y-69575466D01*
X32299990Y-69194514D01*
X32776180Y-70718323D02*
X32776180Y-70146895D01*
X32776180Y-70432609D02*
X31776180Y-70432609D01*
X31919038Y-70337371D01*
X32014276Y-70242133D01*
X32061895Y-70146895D01*
X31776180Y-71623085D02*
X31776180Y-71146895D01*
X32252371Y-71099276D01*
X32204752Y-71146895D01*
X32157133Y-71242133D01*
X32157133Y-71480228D01*
X32204752Y-71575466D01*
X32252371Y-71623085D01*
X32347609Y-71670704D01*
X32585704Y-71670704D01*
X32680942Y-71623085D01*
X32728561Y-71575466D01*
X32776180Y-71480228D01*
X32776180Y-71242133D01*
X32728561Y-71146895D01*
X32680942Y-71099276D01*
X53278066Y-67100742D02*
X53325685Y-67148361D01*
X53468542Y-67195980D01*
X53563780Y-67195980D01*
X53706638Y-67148361D01*
X53801876Y-67053123D01*
X53849495Y-66957885D01*
X53897114Y-66767409D01*
X53897114Y-66624552D01*
X53849495Y-66434076D01*
X53801876Y-66338838D01*
X53706638Y-66243600D01*
X53563780Y-66195980D01*
X53468542Y-66195980D01*
X53325685Y-66243600D01*
X53278066Y-66291219D01*
X52801876Y-67195980D02*
X52611400Y-67195980D01*
X52516161Y-67148361D01*
X52468542Y-67100742D01*
X52373304Y-66957885D01*
X52325685Y-66767409D01*
X52325685Y-66386457D01*
X52373304Y-66291219D01*
X52420923Y-66243600D01*
X52516161Y-66195980D01*
X52706638Y-66195980D01*
X52801876Y-66243600D01*
X52849495Y-66291219D01*
X52897114Y-66386457D01*
X52897114Y-66624552D01*
X52849495Y-66719790D01*
X52801876Y-66767409D01*
X52706638Y-66815028D01*
X52516161Y-66815028D01*
X52420923Y-66767409D01*
X52373304Y-66719790D01*
X52325685Y-66624552D01*
X28587180Y-82338942D02*
X28110990Y-82005609D01*
X28587180Y-81767514D02*
X27587180Y-81767514D01*
X27587180Y-82148466D01*
X27634800Y-82243704D01*
X27682419Y-82291323D01*
X27777657Y-82338942D01*
X27920514Y-82338942D01*
X28015752Y-82291323D01*
X28063371Y-82243704D01*
X28110990Y-82148466D01*
X28110990Y-81767514D01*
X28587180Y-83291323D02*
X28587180Y-82719895D01*
X28587180Y-83005609D02*
X27587180Y-83005609D01*
X27730038Y-82910371D01*
X27825276Y-82815133D01*
X27872895Y-82719895D01*
X27587180Y-84148466D02*
X27587180Y-83957990D01*
X27634800Y-83862752D01*
X27682419Y-83815133D01*
X27825276Y-83719895D01*
X28015752Y-83672276D01*
X28396704Y-83672276D01*
X28491942Y-83719895D01*
X28539561Y-83767514D01*
X28587180Y-83862752D01*
X28587180Y-84053228D01*
X28539561Y-84148466D01*
X28491942Y-84196085D01*
X28396704Y-84243704D01*
X28158609Y-84243704D01*
X28063371Y-84196085D01*
X28015752Y-84148466D01*
X27968133Y-84053228D01*
X27968133Y-83862752D01*
X28015752Y-83767514D01*
X28063371Y-83719895D01*
X28158609Y-83672276D01*
X53278066Y-65424342D02*
X53325685Y-65471961D01*
X53468542Y-65519580D01*
X53563780Y-65519580D01*
X53706638Y-65471961D01*
X53801876Y-65376723D01*
X53849495Y-65281485D01*
X53897114Y-65091009D01*
X53897114Y-64948152D01*
X53849495Y-64757676D01*
X53801876Y-64662438D01*
X53706638Y-64567200D01*
X53563780Y-64519580D01*
X53468542Y-64519580D01*
X53325685Y-64567200D01*
X53278066Y-64614819D01*
X52325685Y-65519580D02*
X52897114Y-65519580D01*
X52611400Y-65519580D02*
X52611400Y-64519580D01*
X52706638Y-64662438D01*
X52801876Y-64757676D01*
X52897114Y-64805295D01*
X58681857Y-67126142D02*
X58729476Y-67173761D01*
X58872333Y-67221380D01*
X58967571Y-67221380D01*
X59110428Y-67173761D01*
X59205666Y-67078523D01*
X59253285Y-66983285D01*
X59300904Y-66792809D01*
X59300904Y-66649952D01*
X59253285Y-66459476D01*
X59205666Y-66364238D01*
X59110428Y-66269000D01*
X58967571Y-66221380D01*
X58872333Y-66221380D01*
X58729476Y-66269000D01*
X58681857Y-66316619D01*
X57729476Y-67221380D02*
X58300904Y-67221380D01*
X58015190Y-67221380D02*
X58015190Y-66221380D01*
X58110428Y-66364238D01*
X58205666Y-66459476D01*
X58300904Y-66507095D01*
X56777095Y-67221380D02*
X57348523Y-67221380D01*
X57062809Y-67221380D02*
X57062809Y-66221380D01*
X57158047Y-66364238D01*
X57253285Y-66459476D01*
X57348523Y-66507095D01*
X32623780Y-89527142D02*
X32147590Y-89193809D01*
X32623780Y-88955714D02*
X31623780Y-88955714D01*
X31623780Y-89336666D01*
X31671400Y-89431904D01*
X31719019Y-89479523D01*
X31814257Y-89527142D01*
X31957114Y-89527142D01*
X32052352Y-89479523D01*
X32099971Y-89431904D01*
X32147590Y-89336666D01*
X32147590Y-88955714D01*
X31719019Y-89908095D02*
X31671400Y-89955714D01*
X31623780Y-90050952D01*
X31623780Y-90289047D01*
X31671400Y-90384285D01*
X31719019Y-90431904D01*
X31814257Y-90479523D01*
X31909495Y-90479523D01*
X32052352Y-90431904D01*
X32623780Y-89860476D01*
X32623780Y-90479523D01*
X32623780Y-91431904D02*
X32623780Y-90860476D01*
X32623780Y-91146190D02*
X31623780Y-91146190D01*
X31766638Y-91050952D01*
X31861876Y-90955714D01*
X31909495Y-90860476D01*
X51747657Y-50293542D02*
X51795276Y-50341161D01*
X51938133Y-50388780D01*
X52033371Y-50388780D01*
X52176228Y-50341161D01*
X52271466Y-50245923D01*
X52319085Y-50150685D01*
X52366704Y-49960209D01*
X52366704Y-49817352D01*
X52319085Y-49626876D01*
X52271466Y-49531638D01*
X52176228Y-49436400D01*
X52033371Y-49388780D01*
X51938133Y-49388780D01*
X51795276Y-49436400D01*
X51747657Y-49484019D01*
X50795276Y-50388780D02*
X51366704Y-50388780D01*
X51080990Y-50388780D02*
X51080990Y-49388780D01*
X51176228Y-49531638D01*
X51271466Y-49626876D01*
X51366704Y-49674495D01*
X50176228Y-49388780D02*
X50080990Y-49388780D01*
X49985752Y-49436400D01*
X49938133Y-49484019D01*
X49890514Y-49579257D01*
X49842895Y-49769733D01*
X49842895Y-50007828D01*
X49890514Y-50198304D01*
X49938133Y-50293542D01*
X49985752Y-50341161D01*
X50080990Y-50388780D01*
X50176228Y-50388780D01*
X50271466Y-50341161D01*
X50319085Y-50293542D01*
X50366704Y-50198304D01*
X50414323Y-50007828D01*
X50414323Y-49769733D01*
X50366704Y-49579257D01*
X50319085Y-49484019D01*
X50271466Y-49436400D01*
X50176228Y-49388780D01*
X66200257Y-63214542D02*
X66247876Y-63262161D01*
X66390733Y-63309780D01*
X66485971Y-63309780D01*
X66628828Y-63262161D01*
X66724066Y-63166923D01*
X66771685Y-63071685D01*
X66819304Y-62881209D01*
X66819304Y-62738352D01*
X66771685Y-62547876D01*
X66724066Y-62452638D01*
X66628828Y-62357400D01*
X66485971Y-62309780D01*
X66390733Y-62309780D01*
X66247876Y-62357400D01*
X66200257Y-62405019D01*
X65247876Y-63309780D02*
X65819304Y-63309780D01*
X65533590Y-63309780D02*
X65533590Y-62309780D01*
X65628828Y-62452638D01*
X65724066Y-62547876D01*
X65819304Y-62595495D01*
X64390733Y-62643114D02*
X64390733Y-63309780D01*
X64628828Y-62262161D02*
X64866923Y-62976447D01*
X64247876Y-62976447D01*
X101546857Y-43292680D02*
X101880190Y-42816490D01*
X102118285Y-43292680D02*
X102118285Y-42292680D01*
X101737333Y-42292680D01*
X101642095Y-42340300D01*
X101594476Y-42387919D01*
X101546857Y-42483157D01*
X101546857Y-42626014D01*
X101594476Y-42721252D01*
X101642095Y-42768871D01*
X101737333Y-42816490D01*
X102118285Y-42816490D01*
X100594476Y-43292680D02*
X101165904Y-43292680D01*
X100880190Y-43292680D02*
X100880190Y-42292680D01*
X100975428Y-42435538D01*
X101070666Y-42530776D01*
X101165904Y-42578395D01*
X100118285Y-43292680D02*
X99927809Y-43292680D01*
X99832571Y-43245061D01*
X99784952Y-43197442D01*
X99689714Y-43054585D01*
X99642095Y-42864109D01*
X99642095Y-42483157D01*
X99689714Y-42387919D01*
X99737333Y-42340300D01*
X99832571Y-42292680D01*
X100023047Y-42292680D01*
X100118285Y-42340300D01*
X100165904Y-42387919D01*
X100213523Y-42483157D01*
X100213523Y-42721252D01*
X100165904Y-42816490D01*
X100118285Y-42864109D01*
X100023047Y-42911728D01*
X99832571Y-42911728D01*
X99737333Y-42864109D01*
X99689714Y-42816490D01*
X99642095Y-42721252D01*
X72880457Y-37187142D02*
X72928076Y-37234761D01*
X73070933Y-37282380D01*
X73166171Y-37282380D01*
X73309028Y-37234761D01*
X73404266Y-37139523D01*
X73451885Y-37044285D01*
X73499504Y-36853809D01*
X73499504Y-36710952D01*
X73451885Y-36520476D01*
X73404266Y-36425238D01*
X73309028Y-36330000D01*
X73166171Y-36282380D01*
X73070933Y-36282380D01*
X72928076Y-36330000D01*
X72880457Y-36377619D01*
X72499504Y-36377619D02*
X72451885Y-36330000D01*
X72356647Y-36282380D01*
X72118552Y-36282380D01*
X72023314Y-36330000D01*
X71975695Y-36377619D01*
X71928076Y-36472857D01*
X71928076Y-36568095D01*
X71975695Y-36710952D01*
X72547123Y-37282380D01*
X71928076Y-37282380D01*
X71451885Y-37282380D02*
X71261409Y-37282380D01*
X71166171Y-37234761D01*
X71118552Y-37187142D01*
X71023314Y-37044285D01*
X70975695Y-36853809D01*
X70975695Y-36472857D01*
X71023314Y-36377619D01*
X71070933Y-36330000D01*
X71166171Y-36282380D01*
X71356647Y-36282380D01*
X71451885Y-36330000D01*
X71499504Y-36377619D01*
X71547123Y-36472857D01*
X71547123Y-36710952D01*
X71499504Y-36806190D01*
X71451885Y-36853809D01*
X71356647Y-36901428D01*
X71166171Y-36901428D01*
X71070933Y-36853809D01*
X71023314Y-36806190D01*
X70975695Y-36710952D01*
X49664857Y-59953142D02*
X49712476Y-60000761D01*
X49855333Y-60048380D01*
X49950571Y-60048380D01*
X50093428Y-60000761D01*
X50188666Y-59905523D01*
X50236285Y-59810285D01*
X50283904Y-59619809D01*
X50283904Y-59476952D01*
X50236285Y-59286476D01*
X50188666Y-59191238D01*
X50093428Y-59096000D01*
X49950571Y-59048380D01*
X49855333Y-59048380D01*
X49712476Y-59096000D01*
X49664857Y-59143619D01*
X48712476Y-60048380D02*
X49283904Y-60048380D01*
X48998190Y-60048380D02*
X48998190Y-59048380D01*
X49093428Y-59191238D01*
X49188666Y-59286476D01*
X49283904Y-59334095D01*
X48379142Y-59048380D02*
X47712476Y-59048380D01*
X48141047Y-60048380D01*
X31367457Y-82544180D02*
X31700790Y-82067990D01*
X31938885Y-82544180D02*
X31938885Y-81544180D01*
X31557933Y-81544180D01*
X31462695Y-81591800D01*
X31415076Y-81639419D01*
X31367457Y-81734657D01*
X31367457Y-81877514D01*
X31415076Y-81972752D01*
X31462695Y-82020371D01*
X31557933Y-82067990D01*
X31938885Y-82067990D01*
X30415076Y-82544180D02*
X30986504Y-82544180D01*
X30700790Y-82544180D02*
X30700790Y-81544180D01*
X30796028Y-81687038D01*
X30891266Y-81782276D01*
X30986504Y-81829895D01*
X29557933Y-81877514D02*
X29557933Y-82544180D01*
X29796028Y-81496561D02*
X30034123Y-82210847D01*
X29415076Y-82210847D01*
X50426857Y-63102742D02*
X50474476Y-63150361D01*
X50617333Y-63197980D01*
X50712571Y-63197980D01*
X50855428Y-63150361D01*
X50950666Y-63055123D01*
X50998285Y-62959885D01*
X51045904Y-62769409D01*
X51045904Y-62626552D01*
X50998285Y-62436076D01*
X50950666Y-62340838D01*
X50855428Y-62245600D01*
X50712571Y-62197980D01*
X50617333Y-62197980D01*
X50474476Y-62245600D01*
X50426857Y-62293219D01*
X50045904Y-62293219D02*
X49998285Y-62245600D01*
X49903047Y-62197980D01*
X49664952Y-62197980D01*
X49569714Y-62245600D01*
X49522095Y-62293219D01*
X49474476Y-62388457D01*
X49474476Y-62483695D01*
X49522095Y-62626552D01*
X50093523Y-63197980D01*
X49474476Y-63197980D01*
X48522095Y-63197980D02*
X49093523Y-63197980D01*
X48807809Y-63197980D02*
X48807809Y-62197980D01*
X48903047Y-62340838D01*
X48998285Y-62436076D01*
X49093523Y-62483695D01*
X44941742Y-62140633D02*
X44989361Y-62093014D01*
X45036980Y-61950157D01*
X45036980Y-61854919D01*
X44989361Y-61712061D01*
X44894123Y-61616823D01*
X44798885Y-61569204D01*
X44608409Y-61521585D01*
X44465552Y-61521585D01*
X44275076Y-61569204D01*
X44179838Y-61616823D01*
X44084600Y-61712061D01*
X44036980Y-61854919D01*
X44036980Y-61950157D01*
X44084600Y-62093014D01*
X44132219Y-62140633D01*
X44036980Y-63045395D02*
X44036980Y-62569204D01*
X44513171Y-62521585D01*
X44465552Y-62569204D01*
X44417933Y-62664442D01*
X44417933Y-62902538D01*
X44465552Y-62997776D01*
X44513171Y-63045395D01*
X44608409Y-63093014D01*
X44846504Y-63093014D01*
X44941742Y-63045395D01*
X44989361Y-62997776D01*
X45036980Y-62902538D01*
X45036980Y-62664442D01*
X44989361Y-62569204D01*
X44941742Y-62521585D01*
X44362666Y-51632142D02*
X44410285Y-51679761D01*
X44553142Y-51727380D01*
X44648380Y-51727380D01*
X44791238Y-51679761D01*
X44886476Y-51584523D01*
X44934095Y-51489285D01*
X44981714Y-51298809D01*
X44981714Y-51155952D01*
X44934095Y-50965476D01*
X44886476Y-50870238D01*
X44791238Y-50775000D01*
X44648380Y-50727380D01*
X44553142Y-50727380D01*
X44410285Y-50775000D01*
X44362666Y-50822619D01*
X43505523Y-51060714D02*
X43505523Y-51727380D01*
X43743619Y-50679761D02*
X43981714Y-51394047D01*
X43362666Y-51394047D01*
X45612342Y-69556333D02*
X45659961Y-69508714D01*
X45707580Y-69365857D01*
X45707580Y-69270619D01*
X45659961Y-69127761D01*
X45564723Y-69032523D01*
X45469485Y-68984904D01*
X45279009Y-68937285D01*
X45136152Y-68937285D01*
X44945676Y-68984904D01*
X44850438Y-69032523D01*
X44755200Y-69127761D01*
X44707580Y-69270619D01*
X44707580Y-69365857D01*
X44755200Y-69508714D01*
X44802819Y-69556333D01*
X44707580Y-69889666D02*
X44707580Y-70556333D01*
X45707580Y-70127761D01*
X46516542Y-62140633D02*
X46564161Y-62093014D01*
X46611780Y-61950157D01*
X46611780Y-61854919D01*
X46564161Y-61712061D01*
X46468923Y-61616823D01*
X46373685Y-61569204D01*
X46183209Y-61521585D01*
X46040352Y-61521585D01*
X45849876Y-61569204D01*
X45754638Y-61616823D01*
X45659400Y-61712061D01*
X45611780Y-61854919D01*
X45611780Y-61950157D01*
X45659400Y-62093014D01*
X45707019Y-62140633D01*
X45611780Y-62997776D02*
X45611780Y-62807300D01*
X45659400Y-62712061D01*
X45707019Y-62664442D01*
X45849876Y-62569204D01*
X46040352Y-62521585D01*
X46421304Y-62521585D01*
X46516542Y-62569204D01*
X46564161Y-62616823D01*
X46611780Y-62712061D01*
X46611780Y-62902538D01*
X46564161Y-62997776D01*
X46516542Y-63045395D01*
X46421304Y-63093014D01*
X46183209Y-63093014D01*
X46087971Y-63045395D01*
X46040352Y-62997776D01*
X45992733Y-62902538D01*
X45992733Y-62712061D01*
X46040352Y-62616823D01*
X46087971Y-62569204D01*
X46183209Y-62521585D01*
X104968380Y-45686195D02*
X105777904Y-45686195D01*
X105873142Y-45733814D01*
X105920761Y-45781433D01*
X105968380Y-45876671D01*
X105968380Y-46067147D01*
X105920761Y-46162385D01*
X105873142Y-46210004D01*
X105777904Y-46257623D01*
X104968380Y-46257623D01*
X105968380Y-46781433D02*
X105968380Y-46971909D01*
X105920761Y-47067147D01*
X105873142Y-47114766D01*
X105730285Y-47210004D01*
X105539809Y-47257623D01*
X105158857Y-47257623D01*
X105063619Y-47210004D01*
X105016000Y-47162385D01*
X104968380Y-47067147D01*
X104968380Y-46876671D01*
X105016000Y-46781433D01*
X105063619Y-46733814D01*
X105158857Y-46686195D01*
X105396952Y-46686195D01*
X105492190Y-46733814D01*
X105539809Y-46781433D01*
X105587428Y-46876671D01*
X105587428Y-47067147D01*
X105539809Y-47162385D01*
X105492190Y-47210004D01*
X105396952Y-47257623D01*
X31418257Y-75356980D02*
X31751590Y-74880790D01*
X31989685Y-75356980D02*
X31989685Y-74356980D01*
X31608733Y-74356980D01*
X31513495Y-74404600D01*
X31465876Y-74452219D01*
X31418257Y-74547457D01*
X31418257Y-74690314D01*
X31465876Y-74785552D01*
X31513495Y-74833171D01*
X31608733Y-74880790D01*
X31989685Y-74880790D01*
X30465876Y-75356980D02*
X31037304Y-75356980D01*
X30751590Y-75356980D02*
X30751590Y-74356980D01*
X30846828Y-74499838D01*
X30942066Y-74595076D01*
X31037304Y-74642695D01*
X30132542Y-74356980D02*
X29513495Y-74356980D01*
X29846828Y-74737933D01*
X29703971Y-74737933D01*
X29608733Y-74785552D01*
X29561114Y-74833171D01*
X29513495Y-74928409D01*
X29513495Y-75166504D01*
X29561114Y-75261742D01*
X29608733Y-75309361D01*
X29703971Y-75356980D01*
X29989685Y-75356980D01*
X30084923Y-75309361D01*
X30132542Y-75261742D01*
X64459142Y-50257642D02*
X64506761Y-50210023D01*
X64554380Y-50067166D01*
X64554380Y-49971928D01*
X64506761Y-49829071D01*
X64411523Y-49733833D01*
X64316285Y-49686214D01*
X64125809Y-49638595D01*
X63982952Y-49638595D01*
X63792476Y-49686214D01*
X63697238Y-49733833D01*
X63602000Y-49829071D01*
X63554380Y-49971928D01*
X63554380Y-50067166D01*
X63602000Y-50210023D01*
X63649619Y-50257642D01*
X64554380Y-51210023D02*
X64554380Y-50638595D01*
X64554380Y-50924309D02*
X63554380Y-50924309D01*
X63697238Y-50829071D01*
X63792476Y-50733833D01*
X63840095Y-50638595D01*
X63554380Y-52067166D02*
X63554380Y-51876690D01*
X63602000Y-51781452D01*
X63649619Y-51733833D01*
X63792476Y-51638595D01*
X63982952Y-51590976D01*
X64363904Y-51590976D01*
X64459142Y-51638595D01*
X64506761Y-51686214D01*
X64554380Y-51781452D01*
X64554380Y-51971928D01*
X64506761Y-52067166D01*
X64459142Y-52114785D01*
X64363904Y-52162404D01*
X64125809Y-52162404D01*
X64030571Y-52114785D01*
X63982952Y-52067166D01*
X63935333Y-51971928D01*
X63935333Y-51781452D01*
X63982952Y-51686214D01*
X64030571Y-51638595D01*
X64125809Y-51590976D01*
X30224457Y-91664780D02*
X30557790Y-91188590D01*
X30795885Y-91664780D02*
X30795885Y-90664780D01*
X30414933Y-90664780D01*
X30319695Y-90712400D01*
X30272076Y-90760019D01*
X30224457Y-90855257D01*
X30224457Y-90998114D01*
X30272076Y-91093352D01*
X30319695Y-91140971D01*
X30414933Y-91188590D01*
X30795885Y-91188590D01*
X29843504Y-90760019D02*
X29795885Y-90712400D01*
X29700647Y-90664780D01*
X29462552Y-90664780D01*
X29367314Y-90712400D01*
X29319695Y-90760019D01*
X29272076Y-90855257D01*
X29272076Y-90950495D01*
X29319695Y-91093352D01*
X29891123Y-91664780D01*
X29272076Y-91664780D01*
X28653028Y-90664780D02*
X28557790Y-90664780D01*
X28462552Y-90712400D01*
X28414933Y-90760019D01*
X28367314Y-90855257D01*
X28319695Y-91045733D01*
X28319695Y-91283828D01*
X28367314Y-91474304D01*
X28414933Y-91569542D01*
X28462552Y-91617161D01*
X28557790Y-91664780D01*
X28653028Y-91664780D01*
X28748266Y-91617161D01*
X28795885Y-91569542D01*
X28843504Y-91474304D01*
X28891123Y-91283828D01*
X28891123Y-91045733D01*
X28843504Y-90855257D01*
X28795885Y-90760019D01*
X28748266Y-90712400D01*
X28653028Y-90664780D01*
D11*
X59670733Y-49451800D02*
X59963267Y-49451800D01*
X59670733Y-50471800D02*
X59963267Y-50471800D01*
X42450936Y-64248200D02*
X43655064Y-64248200D01*
X42450936Y-66968200D02*
X43655064Y-66968200D01*
X65961800Y-59455267D02*
X65961800Y-59162733D01*
X66981800Y-59455267D02*
X66981800Y-59162733D01*
X49231333Y-50497200D02*
X49523867Y-50497200D01*
X49231333Y-49477200D02*
X49523867Y-49477200D01*
X54273667Y-50950400D02*
X53981133Y-50950400D01*
X54273667Y-51970400D02*
X53981133Y-51970400D01*
X63189067Y-68709000D02*
X62896533Y-68709000D01*
X63189067Y-67689000D02*
X62896533Y-67689000D01*
X31408800Y-70635864D02*
X31408800Y-70181736D01*
X29938800Y-70635864D02*
X29938800Y-70181736D01*
X53257667Y-68683600D02*
X52965133Y-68683600D01*
X53257667Y-67663600D02*
X52965133Y-67663600D01*
X30519800Y-82754736D02*
X30519800Y-83208864D01*
X29049800Y-82754736D02*
X29049800Y-83208864D01*
X53257667Y-67007200D02*
X52965133Y-67007200D01*
X53257667Y-65987200D02*
X52965133Y-65987200D01*
X58185267Y-67689000D02*
X57892733Y-67689000D01*
X58185267Y-68709000D02*
X57892733Y-68709000D01*
X31256400Y-90397064D02*
X31256400Y-89942936D01*
X29786400Y-90397064D02*
X29786400Y-89942936D01*
X54248267Y-49375600D02*
X53955733Y-49375600D01*
X54248267Y-50395600D02*
X53955733Y-50395600D01*
X65703667Y-63777400D02*
X65411133Y-63777400D01*
X65703667Y-64797400D02*
X65411133Y-64797400D01*
X100676936Y-40455300D02*
X101131064Y-40455300D01*
X100676936Y-41925300D02*
X101131064Y-41925300D01*
X69234267Y-36959000D02*
X68941733Y-36959000D01*
X69234267Y-35939000D02*
X68941733Y-35939000D01*
X48875733Y-58676000D02*
X49168267Y-58676000D01*
X48875733Y-57656000D02*
X49168267Y-57656000D01*
X30497536Y-79706800D02*
X30951664Y-79706800D01*
X30497536Y-81176800D02*
X30951664Y-81176800D01*
X49637733Y-61825600D02*
X49930267Y-61825600D01*
X49637733Y-60805600D02*
X49930267Y-60805600D01*
X42644600Y-62453567D02*
X42644600Y-62161033D01*
X43664600Y-62453567D02*
X43664600Y-62161033D01*
X44342267Y-53215000D02*
X44049733Y-53215000D01*
X44342267Y-52195000D02*
X44049733Y-52195000D01*
X46175200Y-69576733D02*
X46175200Y-69869267D01*
X47195200Y-69576733D02*
X47195200Y-69869267D01*
X44219400Y-62453567D02*
X44219400Y-62161033D01*
X45239400Y-62453567D02*
X45239400Y-62161033D01*
X109666000Y-47398100D02*
X108616000Y-47398100D01*
X109666000Y-45598100D02*
X109666000Y-47398100D01*
X106366000Y-44998100D02*
X106366000Y-47398100D01*
X106366000Y-47398100D02*
X107416000Y-47398100D01*
X29859464Y-72594800D02*
X29405336Y-72594800D01*
X29859464Y-74064800D02*
X29405336Y-74064800D01*
X65022000Y-50754233D02*
X65022000Y-51046767D01*
X66042000Y-50754233D02*
X66042000Y-51046767D01*
X29808664Y-93597400D02*
X29354536Y-93597400D01*
X29808664Y-92127400D02*
X29354536Y-92127400D01*
%LPC*%
D12*
X77425008Y-101176056D03*
D13*
X80925008Y-101176056D03*
D14*
X70132608Y-102993656D03*
X70132608Y-99691656D03*
X56670608Y-102993656D03*
X56670608Y-99691656D03*
D12*
X99862600Y-34738700D03*
D13*
X103362600Y-34738700D03*
D15*
X90551000Y-61188600D03*
D16*
X90551000Y-63728600D03*
X90551000Y-66268600D03*
X90551000Y-68808600D03*
X90551000Y-71348600D03*
X90551000Y-73888600D03*
D15*
X18837800Y-90170400D03*
D16*
X18837800Y-87630400D03*
X18837800Y-85090400D03*
X18837800Y-82550400D03*
X18837800Y-80010400D03*
X18837800Y-77470400D03*
D17*
X116162500Y-59116900D03*
X116162500Y-34116900D03*
D18*
X114742500Y-52156900D03*
D19*
X114742500Y-49386900D03*
X114742500Y-46616900D03*
X114742500Y-43846900D03*
X114742500Y-41076900D03*
X117582500Y-50771900D03*
X117582500Y-48001900D03*
X117582500Y-45231900D03*
X117582500Y-42461900D03*
D20*
X58954500Y-49961800D03*
X60679500Y-49961800D03*
D21*
X41565500Y-65608200D03*
X44540500Y-65608200D03*
D22*
X66471800Y-60171500D03*
X66471800Y-58446500D03*
D20*
X48515100Y-49987200D03*
X50240100Y-49987200D03*
D23*
X54989900Y-51460400D03*
X53264900Y-51460400D03*
X63905300Y-68199000D03*
X62180300Y-68199000D03*
D24*
X30673800Y-71408800D03*
X30673800Y-69408800D03*
D23*
X53973900Y-68173600D03*
X52248900Y-68173600D03*
D25*
X29784800Y-81981800D03*
X29784800Y-83981800D03*
D23*
X53973900Y-66497200D03*
X52248900Y-66497200D03*
X58901500Y-68199000D03*
X57176500Y-68199000D03*
D24*
X30521400Y-91170000D03*
X30521400Y-89170000D03*
D23*
X54964500Y-49885600D03*
X53239500Y-49885600D03*
X66419900Y-64287400D03*
X64694900Y-64287400D03*
D26*
X99904000Y-41190300D03*
X101904000Y-41190300D03*
D23*
X69950500Y-36449000D03*
X68225500Y-36449000D03*
D20*
X48159500Y-58166000D03*
X49884500Y-58166000D03*
D26*
X29724600Y-80441800D03*
X31724600Y-80441800D03*
D20*
X48921500Y-61315600D03*
X50646500Y-61315600D03*
D22*
X43154600Y-63169800D03*
X43154600Y-61444800D03*
D23*
X45058500Y-52705000D03*
X43333500Y-52705000D03*
D27*
X46685200Y-68860500D03*
X46685200Y-70585500D03*
D22*
X44729400Y-63169800D03*
X44729400Y-61444800D03*
D28*
X107066000Y-45248100D03*
X108966000Y-45248100D03*
X108016000Y-47648100D03*
D29*
X30632400Y-73329800D03*
X28632400Y-73329800D03*
D27*
X65532000Y-50038000D03*
X65532000Y-51763000D03*
D29*
X30581600Y-92862400D03*
X28581600Y-92862400D03*
M02*
