G04 #@! TF.GenerationSoftware,KiCad,Pcbnew,(6.0.5)*
G04 #@! TF.CreationDate,2023-02-13T01:00:26-07:00*
G04 #@! TF.ProjectId,EVCU,45564355-2e6b-4696-9361-645f70636258,rev?*
G04 #@! TF.SameCoordinates,Original*
G04 #@! TF.FileFunction,Copper,L1,Top*
G04 #@! TF.FilePolarity,Positive*
%FSLAX46Y46*%
G04 Gerber Fmt 4.6, Leading zero omitted, Abs format (unit mm)*
G04 Created by KiCad (PCBNEW (6.0.5)) date 2023-02-13 01:00:26*
%MOMM*%
%LPD*%
G01*
G04 APERTURE LIST*
G04 Aperture macros list*
%AMRoundRect*
0 Rectangle with rounded corners*
0 $1 Rounding radius*
0 $2 $3 $4 $5 $6 $7 $8 $9 X,Y pos of 4 corners*
0 Add a 4 corners polygon primitive as box body*
4,1,4,$2,$3,$4,$5,$6,$7,$8,$9,$2,$3,0*
0 Add four circle primitives for the rounded corners*
1,1,$1+$1,$2,$3*
1,1,$1+$1,$4,$5*
1,1,$1+$1,$6,$7*
1,1,$1+$1,$8,$9*
0 Add four rect primitives between the rounded corners*
20,1,$1+$1,$2,$3,$4,$5,0*
20,1,$1+$1,$4,$5,$6,$7,0*
20,1,$1+$1,$6,$7,$8,$9,0*
20,1,$1+$1,$8,$9,$2,$3,0*%
%AMFreePoly0*
4,1,14,0.266715,0.088284,0.363284,-0.008285,0.375000,-0.036569,0.375000,-0.060000,0.363284,-0.088284,0.335000,-0.100000,-0.335000,-0.100000,-0.363284,-0.088284,-0.375000,-0.060000,-0.375000,0.060000,-0.363284,0.088284,-0.335000,0.100000,0.238431,0.100000,0.266715,0.088284,0.266715,0.088284,$1*%
%AMFreePoly1*
4,1,14,0.363284,0.088284,0.375000,0.060000,0.375000,0.036569,0.363284,0.008285,0.266715,-0.088284,0.238431,-0.100000,-0.335000,-0.100000,-0.363284,-0.088284,-0.375000,-0.060000,-0.375000,0.060000,-0.363284,0.088284,-0.335000,0.100000,0.335000,0.100000,0.363284,0.088284,0.363284,0.088284,$1*%
%AMFreePoly2*
4,1,14,0.088284,0.363284,0.100000,0.335000,0.100000,-0.335000,0.088284,-0.363284,0.060000,-0.375000,-0.060000,-0.375000,-0.088284,-0.363284,-0.100000,-0.335000,-0.100000,0.238431,-0.088284,0.266715,0.008285,0.363284,0.036569,0.375000,0.060000,0.375000,0.088284,0.363284,0.088284,0.363284,$1*%
%AMFreePoly3*
4,1,14,-0.008285,0.363284,0.088284,0.266715,0.100000,0.238431,0.100000,-0.335000,0.088284,-0.363284,0.060000,-0.375000,-0.060000,-0.375000,-0.088284,-0.363284,-0.100000,-0.335000,-0.100000,0.335000,-0.088284,0.363284,-0.060000,0.375000,-0.036569,0.375000,-0.008285,0.363284,-0.008285,0.363284,$1*%
%AMFreePoly4*
4,1,14,0.363284,0.088284,0.375000,0.060000,0.375000,-0.060000,0.363284,-0.088284,0.335000,-0.100000,-0.238431,-0.100000,-0.266715,-0.088284,-0.363284,0.008285,-0.375000,0.036569,-0.375000,0.060000,-0.363284,0.088284,-0.335000,0.100000,0.335000,0.100000,0.363284,0.088284,0.363284,0.088284,$1*%
%AMFreePoly5*
4,1,14,0.363284,0.088284,0.375000,0.060000,0.375000,-0.060000,0.363284,-0.088284,0.335000,-0.100000,-0.335000,-0.100000,-0.363284,-0.088284,-0.375000,-0.060000,-0.375000,-0.036569,-0.363284,-0.008285,-0.266715,0.088284,-0.238431,0.100000,0.335000,0.100000,0.363284,0.088284,0.363284,0.088284,$1*%
%AMFreePoly6*
4,1,14,0.088284,0.363284,0.100000,0.335000,0.100000,-0.238431,0.088284,-0.266715,-0.008285,-0.363284,-0.036569,-0.375000,-0.060000,-0.375000,-0.088284,-0.363284,-0.100000,-0.335000,-0.100000,0.335000,-0.088284,0.363284,-0.060000,0.375000,0.060000,0.375000,0.088284,0.363284,0.088284,0.363284,$1*%
%AMFreePoly7*
4,1,14,0.088284,0.363284,0.100000,0.335000,0.100000,-0.335000,0.088284,-0.363284,0.060000,-0.375000,0.036569,-0.375000,0.008285,-0.363284,-0.088284,-0.266715,-0.100000,-0.238431,-0.100000,0.335000,-0.088284,0.363284,-0.060000,0.375000,0.060000,0.375000,0.088284,0.363284,0.088284,0.363284,$1*%
%AMFreePoly8*
4,1,9,5.362500,-0.866500,1.237500,-0.866500,1.237500,-0.450000,-1.237500,-0.450000,-1.237500,0.450000,1.237500,0.450000,1.237500,0.866500,5.362500,0.866500,5.362500,-0.866500,5.362500,-0.866500,$1*%
G04 Aperture macros list end*
G04 #@! TA.AperFunction,SMDPad,CuDef*
%ADD10R,1.500000X1.500000*%
G04 #@! TD*
G04 #@! TA.AperFunction,SMDPad,CuDef*
%ADD11RoundRect,0.237500X0.300000X0.237500X-0.300000X0.237500X-0.300000X-0.237500X0.300000X-0.237500X0*%
G04 #@! TD*
G04 #@! TA.AperFunction,SMDPad,CuDef*
%ADD12RoundRect,0.237500X0.237500X-0.300000X0.237500X0.300000X-0.237500X0.300000X-0.237500X-0.300000X0*%
G04 #@! TD*
G04 #@! TA.AperFunction,SMDPad,CuDef*
%ADD13R,0.400000X1.500000*%
G04 #@! TD*
G04 #@! TA.AperFunction,SMDPad,CuDef*
%ADD14R,1.000000X1.500000*%
G04 #@! TD*
G04 #@! TA.AperFunction,SMDPad,CuDef*
%ADD15FreePoly0,270.000000*%
G04 #@! TD*
G04 #@! TA.AperFunction,SMDPad,CuDef*
%ADD16RoundRect,0.050000X-0.050000X0.325000X-0.050000X-0.325000X0.050000X-0.325000X0.050000X0.325000X0*%
G04 #@! TD*
G04 #@! TA.AperFunction,SMDPad,CuDef*
%ADD17FreePoly1,270.000000*%
G04 #@! TD*
G04 #@! TA.AperFunction,SMDPad,CuDef*
%ADD18FreePoly2,270.000000*%
G04 #@! TD*
G04 #@! TA.AperFunction,SMDPad,CuDef*
%ADD19RoundRect,0.050000X-0.325000X0.050000X-0.325000X-0.050000X0.325000X-0.050000X0.325000X0.050000X0*%
G04 #@! TD*
G04 #@! TA.AperFunction,SMDPad,CuDef*
%ADD20FreePoly3,270.000000*%
G04 #@! TD*
G04 #@! TA.AperFunction,SMDPad,CuDef*
%ADD21FreePoly4,270.000000*%
G04 #@! TD*
G04 #@! TA.AperFunction,SMDPad,CuDef*
%ADD22FreePoly5,270.000000*%
G04 #@! TD*
G04 #@! TA.AperFunction,SMDPad,CuDef*
%ADD23FreePoly6,270.000000*%
G04 #@! TD*
G04 #@! TA.AperFunction,SMDPad,CuDef*
%ADD24FreePoly7,270.000000*%
G04 #@! TD*
G04 #@! TA.AperFunction,WasherPad*
%ADD25C,4.000000*%
G04 #@! TD*
G04 #@! TA.AperFunction,SMDPad,CuDef*
%ADD26RoundRect,0.250001X0.462499X0.849999X-0.462499X0.849999X-0.462499X-0.849999X0.462499X-0.849999X0*%
G04 #@! TD*
G04 #@! TA.AperFunction,SMDPad,CuDef*
%ADD27RoundRect,0.237500X-0.237500X0.300000X-0.237500X-0.300000X0.237500X-0.300000X0.237500X0.300000X0*%
G04 #@! TD*
G04 #@! TA.AperFunction,SMDPad,CuDef*
%ADD28R,0.900000X2.300000*%
G04 #@! TD*
G04 #@! TA.AperFunction,SMDPad,CuDef*
%ADD29FreePoly8,90.000000*%
G04 #@! TD*
G04 #@! TA.AperFunction,SMDPad,CuDef*
%ADD30RoundRect,0.250000X0.450000X-0.350000X0.450000X0.350000X-0.450000X0.350000X-0.450000X-0.350000X0*%
G04 #@! TD*
G04 #@! TA.AperFunction,SMDPad,CuDef*
%ADD31RoundRect,0.250000X0.350000X0.450000X-0.350000X0.450000X-0.350000X-0.450000X0.350000X-0.450000X0*%
G04 #@! TD*
G04 #@! TA.AperFunction,SMDPad,CuDef*
%ADD32R,1.500000X1.000000*%
G04 #@! TD*
G04 #@! TA.AperFunction,SMDPad,CuDef*
%ADD33RoundRect,0.250000X0.412500X0.650000X-0.412500X0.650000X-0.412500X-0.650000X0.412500X-0.650000X0*%
G04 #@! TD*
G04 #@! TA.AperFunction,SMDPad,CuDef*
%ADD34R,2.000000X0.650000*%
G04 #@! TD*
G04 #@! TA.AperFunction,SMDPad,CuDef*
%ADD35RoundRect,0.150000X-0.150000X0.825000X-0.150000X-0.825000X0.150000X-0.825000X0.150000X0.825000X0*%
G04 #@! TD*
G04 #@! TA.AperFunction,SMDPad,CuDef*
%ADD36R,3.000000X2.290000*%
G04 #@! TD*
G04 #@! TA.AperFunction,SMDPad,CuDef*
%ADD37RoundRect,0.250000X-0.450000X0.350000X-0.450000X-0.350000X0.450000X-0.350000X0.450000X0.350000X0*%
G04 #@! TD*
G04 #@! TA.AperFunction,ComponentPad*
%ADD38R,2.400000X2.400000*%
G04 #@! TD*
G04 #@! TA.AperFunction,ComponentPad*
%ADD39C,2.400000*%
G04 #@! TD*
G04 #@! TA.AperFunction,ComponentPad*
%ADD40C,2.235200*%
G04 #@! TD*
G04 #@! TA.AperFunction,SMDPad,CuDef*
%ADD41RoundRect,0.075000X-0.662500X-0.075000X0.662500X-0.075000X0.662500X0.075000X-0.662500X0.075000X0*%
G04 #@! TD*
G04 #@! TA.AperFunction,SMDPad,CuDef*
%ADD42RoundRect,0.075000X-0.075000X-0.662500X0.075000X-0.662500X0.075000X0.662500X-0.075000X0.662500X0*%
G04 #@! TD*
G04 #@! TA.AperFunction,SMDPad,CuDef*
%ADD43RoundRect,0.150000X0.587500X0.150000X-0.587500X0.150000X-0.587500X-0.150000X0.587500X-0.150000X0*%
G04 #@! TD*
G04 #@! TA.AperFunction,ComponentPad*
%ADD44R,1.700000X1.700000*%
G04 #@! TD*
G04 #@! TA.AperFunction,ComponentPad*
%ADD45O,1.700000X1.700000*%
G04 #@! TD*
G04 #@! TA.AperFunction,SMDPad,CuDef*
%ADD46R,3.500000X2.300000*%
G04 #@! TD*
G04 #@! TA.AperFunction,SMDPad,CuDef*
%ADD47RoundRect,0.150000X-0.825000X-0.150000X0.825000X-0.150000X0.825000X0.150000X-0.825000X0.150000X0*%
G04 #@! TD*
G04 #@! TA.AperFunction,SMDPad,CuDef*
%ADD48R,0.800000X1.500000*%
G04 #@! TD*
G04 #@! TA.AperFunction,SMDPad,CuDef*
%ADD49R,1.450000X2.000000*%
G04 #@! TD*
G04 #@! TA.AperFunction,ComponentPad*
%ADD50C,4.000000*%
G04 #@! TD*
G04 #@! TA.AperFunction,ComponentPad*
%ADD51R,1.600000X1.600000*%
G04 #@! TD*
G04 #@! TA.AperFunction,ComponentPad*
%ADD52C,1.600000*%
G04 #@! TD*
G04 #@! TA.AperFunction,SMDPad,CuDef*
%ADD53RoundRect,0.200000X0.200000X0.250000X-0.200000X0.250000X-0.200000X-0.250000X0.200000X-0.250000X0*%
G04 #@! TD*
G04 #@! TA.AperFunction,SMDPad,CuDef*
%ADD54RoundRect,0.250000X-0.350000X-0.450000X0.350000X-0.450000X0.350000X0.450000X-0.350000X0.450000X0*%
G04 #@! TD*
G04 #@! TA.AperFunction,SMDPad,CuDef*
%ADD55R,0.450000X0.200000*%
G04 #@! TD*
G04 #@! TA.AperFunction,SMDPad,CuDef*
%ADD56R,0.300000X2.800000*%
G04 #@! TD*
G04 #@! TA.AperFunction,ViaPad*
%ADD57C,0.600000*%
G04 #@! TD*
G04 #@! TA.AperFunction,ViaPad*
%ADD58C,0.800000*%
G04 #@! TD*
G04 #@! TA.AperFunction,Conductor*
%ADD59C,0.250000*%
G04 #@! TD*
G04 #@! TA.AperFunction,Conductor*
%ADD60C,0.200000*%
G04 #@! TD*
G04 #@! TA.AperFunction,Conductor*
%ADD61C,0.300000*%
G04 #@! TD*
G04 #@! TA.AperFunction,Conductor*
%ADD62C,0.800000*%
G04 #@! TD*
G04 APERTURE END LIST*
D10*
X94041500Y-52918900D03*
X93838300Y-41514300D03*
D11*
X31282300Y-67132200D03*
X29557300Y-67132200D03*
D12*
X62084000Y-91620500D03*
X62084000Y-89895500D03*
D13*
X87187800Y-64151200D03*
X86537800Y-64151200D03*
X85887800Y-64151200D03*
X85887800Y-66811200D03*
X87187800Y-66811200D03*
D14*
X34361400Y-65024000D03*
X33061400Y-65024000D03*
X31761400Y-65024000D03*
D15*
X64703200Y-73023600D03*
D16*
X64303200Y-73023600D03*
X63903200Y-73023600D03*
X63503200Y-73023600D03*
X63103200Y-73023600D03*
D17*
X62703200Y-73023600D03*
D18*
X62203200Y-73523600D03*
D19*
X62203200Y-73923600D03*
X62203200Y-74323600D03*
X62203200Y-74723600D03*
X62203200Y-75123600D03*
D20*
X62203200Y-75523600D03*
D21*
X62703200Y-76023600D03*
D16*
X63103200Y-76023600D03*
X63503200Y-76023600D03*
X63903200Y-76023600D03*
X64303200Y-76023600D03*
D22*
X64703200Y-76023600D03*
D23*
X65203200Y-75523600D03*
D19*
X65203200Y-75123600D03*
X65203200Y-74723600D03*
X65203200Y-74323600D03*
X65203200Y-73923600D03*
D24*
X65203200Y-73523600D03*
D25*
X132080000Y-25400000D03*
D26*
X58674500Y-89742000D03*
X56349500Y-89742000D03*
D27*
X62611000Y-77445700D03*
X62611000Y-79170700D03*
D28*
X45744000Y-89018000D03*
D29*
X47244000Y-88930500D03*
D28*
X48744000Y-89018000D03*
D10*
X41799000Y-92684600D03*
D27*
X47221808Y-91615556D03*
X47221808Y-93340556D03*
D30*
X29708600Y-71332600D03*
X29708600Y-69332600D03*
D31*
X33299400Y-71170800D03*
X31299400Y-71170800D03*
X64100000Y-93823256D03*
X62100000Y-93823256D03*
D32*
X34458400Y-81021400D03*
X34458400Y-82321400D03*
X34458400Y-83621400D03*
D33*
X56534500Y-96092000D03*
X53409500Y-96092000D03*
D31*
X30480000Y-80518000D03*
X28480000Y-80518000D03*
D30*
X97500400Y-43358700D03*
X97500400Y-41358700D03*
D34*
X56388000Y-92014000D03*
X56388000Y-92964000D03*
X56388000Y-93914000D03*
X59808000Y-93914000D03*
X59808000Y-92964000D03*
X59808000Y-92014000D03*
D35*
X32172400Y-73242400D03*
X30902400Y-73242400D03*
X29632400Y-73242400D03*
X28362400Y-73242400D03*
X28362400Y-78192400D03*
X29632400Y-78192400D03*
X30902400Y-78192400D03*
X32172400Y-78192400D03*
D36*
X30267400Y-75717400D03*
D10*
X28194000Y-65024000D03*
D37*
X97449600Y-50883700D03*
X97449600Y-52883700D03*
D32*
X38065200Y-90063800D03*
X38065200Y-91363800D03*
X38065200Y-92663800D03*
D25*
X15240000Y-106680000D03*
D38*
X82070000Y-100900000D03*
D39*
X85570000Y-100900000D03*
D10*
X46736000Y-96799400D03*
D35*
X32045400Y-92800400D03*
X30775400Y-92800400D03*
X29505400Y-92800400D03*
X28235400Y-92800400D03*
X28235400Y-97750400D03*
X29505400Y-97750400D03*
X30775400Y-97750400D03*
X32045400Y-97750400D03*
D36*
X30140400Y-95275400D03*
D40*
X70132608Y-102993656D03*
X70132608Y-99691656D03*
X56670608Y-102993656D03*
X56670608Y-99691656D03*
D41*
X46538300Y-50203400D03*
X46538300Y-50703400D03*
X46538300Y-51203400D03*
X46538300Y-51703400D03*
X46538300Y-52203400D03*
X46538300Y-52703400D03*
X46538300Y-53203400D03*
X46538300Y-53703400D03*
X46538300Y-54203400D03*
X46538300Y-54703400D03*
X46538300Y-55203400D03*
X46538300Y-55703400D03*
X46538300Y-56203400D03*
X46538300Y-56703400D03*
X46538300Y-57203400D03*
X46538300Y-57703400D03*
X46538300Y-58203400D03*
X46538300Y-58703400D03*
X46538300Y-59203400D03*
X46538300Y-59703400D03*
X46538300Y-60203400D03*
X46538300Y-60703400D03*
X46538300Y-61203400D03*
X46538300Y-61703400D03*
X46538300Y-62203400D03*
X46538300Y-62703400D03*
X46538300Y-63203400D03*
X46538300Y-63703400D03*
X46538300Y-64203400D03*
X46538300Y-64703400D03*
X46538300Y-65203400D03*
X46538300Y-65703400D03*
X46538300Y-66203400D03*
X46538300Y-66703400D03*
X46538300Y-67203400D03*
X46538300Y-67703400D03*
D42*
X48450800Y-69615900D03*
X48950800Y-69615900D03*
X49450800Y-69615900D03*
X49950800Y-69615900D03*
X50450800Y-69615900D03*
X50950800Y-69615900D03*
X51450800Y-69615900D03*
X51950800Y-69615900D03*
X52450800Y-69615900D03*
X52950800Y-69615900D03*
X53450800Y-69615900D03*
X53950800Y-69615900D03*
X54450800Y-69615900D03*
X54950800Y-69615900D03*
X55450800Y-69615900D03*
X55950800Y-69615900D03*
X56450800Y-69615900D03*
X56950800Y-69615900D03*
X57450800Y-69615900D03*
X57950800Y-69615900D03*
X58450800Y-69615900D03*
X58950800Y-69615900D03*
X59450800Y-69615900D03*
X59950800Y-69615900D03*
X60450800Y-69615900D03*
X60950800Y-69615900D03*
X61450800Y-69615900D03*
X61950800Y-69615900D03*
X62450800Y-69615900D03*
X62950800Y-69615900D03*
X63450800Y-69615900D03*
X63950800Y-69615900D03*
X64450800Y-69615900D03*
X64950800Y-69615900D03*
X65450800Y-69615900D03*
X65950800Y-69615900D03*
D41*
X67863300Y-67703400D03*
X67863300Y-67203400D03*
X67863300Y-66703400D03*
X67863300Y-66203400D03*
X67863300Y-65703400D03*
X67863300Y-65203400D03*
X67863300Y-64703400D03*
X67863300Y-64203400D03*
X67863300Y-63703400D03*
X67863300Y-63203400D03*
X67863300Y-62703400D03*
X67863300Y-62203400D03*
X67863300Y-61703400D03*
X67863300Y-61203400D03*
X67863300Y-60703400D03*
X67863300Y-60203400D03*
X67863300Y-59703400D03*
X67863300Y-59203400D03*
X67863300Y-58703400D03*
X67863300Y-58203400D03*
X67863300Y-57703400D03*
X67863300Y-57203400D03*
X67863300Y-56703400D03*
X67863300Y-56203400D03*
X67863300Y-55703400D03*
X67863300Y-55203400D03*
X67863300Y-54703400D03*
X67863300Y-54203400D03*
X67863300Y-53703400D03*
X67863300Y-53203400D03*
X67863300Y-52703400D03*
X67863300Y-52203400D03*
X67863300Y-51703400D03*
X67863300Y-51203400D03*
X67863300Y-50703400D03*
X67863300Y-50203400D03*
D42*
X65950800Y-48290900D03*
X65450800Y-48290900D03*
X64950800Y-48290900D03*
X64450800Y-48290900D03*
X63950800Y-48290900D03*
X63450800Y-48290900D03*
X62950800Y-48290900D03*
X62450800Y-48290900D03*
X61950800Y-48290900D03*
X61450800Y-48290900D03*
X60950800Y-48290900D03*
X60450800Y-48290900D03*
X59950800Y-48290900D03*
X59450800Y-48290900D03*
X58950800Y-48290900D03*
X58450800Y-48290900D03*
X57950800Y-48290900D03*
X57450800Y-48290900D03*
X56950800Y-48290900D03*
X56450800Y-48290900D03*
X55950800Y-48290900D03*
X55450800Y-48290900D03*
X54950800Y-48290900D03*
X54450800Y-48290900D03*
X53950800Y-48290900D03*
X53450800Y-48290900D03*
X52950800Y-48290900D03*
X52450800Y-48290900D03*
X51950800Y-48290900D03*
X51450800Y-48290900D03*
X50950800Y-48290900D03*
X50450800Y-48290900D03*
X49950800Y-48290900D03*
X49450800Y-48290900D03*
X48950800Y-48290900D03*
X48450800Y-48290900D03*
D38*
X104620000Y-29656000D03*
D39*
X101120000Y-29656000D03*
D43*
X77391500Y-102550000D03*
X77391500Y-100650000D03*
X75516500Y-101600000D03*
D31*
X32969200Y-90652600D03*
X30969200Y-90652600D03*
D11*
X60806500Y-73075800D03*
X59081500Y-73075800D03*
D44*
X90551000Y-61188600D03*
D45*
X90551000Y-63728600D03*
X90551000Y-66268600D03*
X90551000Y-68808600D03*
X90551000Y-71348600D03*
X90551000Y-73888600D03*
D37*
X33163000Y-67224400D03*
X33163000Y-69224400D03*
D31*
X26720800Y-80518000D03*
X24720800Y-80518000D03*
D27*
X51285808Y-89380356D03*
X51285808Y-91105356D03*
X52842008Y-89387500D03*
X52842008Y-91112500D03*
D44*
X18796000Y-90170000D03*
D45*
X18796000Y-87630000D03*
X18796000Y-85090000D03*
X18796000Y-82550000D03*
X18796000Y-80010000D03*
X18796000Y-77470000D03*
D10*
X34433000Y-87096600D03*
D46*
X95344000Y-58928000D03*
X100744000Y-58928000D03*
D10*
X52349400Y-84099400D03*
D47*
X92256800Y-45203500D03*
X92256800Y-46473500D03*
X92256800Y-47743500D03*
X92256800Y-49013500D03*
X97206800Y-49013500D03*
X97206800Y-47743500D03*
X97206800Y-46473500D03*
X97206800Y-45203500D03*
D30*
X29327600Y-90763600D03*
X29327600Y-88763600D03*
D48*
X72922200Y-35331400D03*
X74022200Y-35331400D03*
X75122200Y-35331400D03*
X76222200Y-35331400D03*
X77322200Y-35331400D03*
X78422200Y-35331400D03*
X79522200Y-35331400D03*
X80622200Y-35331400D03*
D49*
X82997200Y-32731400D03*
X69247200Y-32731400D03*
X69247200Y-41031400D03*
X82997200Y-41031400D03*
D30*
X32045400Y-82407000D03*
X32045400Y-80407000D03*
D11*
X58749100Y-74828400D03*
X57024100Y-74828400D03*
D12*
X35677600Y-91210300D03*
X35677600Y-89485300D03*
D30*
X51460400Y-46237400D03*
X51460400Y-44237400D03*
D50*
X116162500Y-59116900D03*
X116162500Y-34116900D03*
D51*
X114742500Y-52156900D03*
D52*
X114742500Y-49386900D03*
X114742500Y-46616900D03*
X114742500Y-43846900D03*
X114742500Y-41076900D03*
X117582500Y-50771900D03*
X117582500Y-48001900D03*
X117582500Y-45231900D03*
X117582500Y-42461900D03*
D53*
X44616200Y-61377000D03*
X44616200Y-59527000D03*
X43166200Y-59527000D03*
X43166200Y-61377000D03*
D11*
X30240900Y-82296000D03*
X28515900Y-82296000D03*
D25*
X132080000Y-106680000D03*
D31*
X35610800Y-92938600D03*
X33610800Y-92938600D03*
D11*
X41807300Y-61391800D03*
X40082300Y-61391800D03*
D54*
X62122208Y-95703856D03*
X64122208Y-95703856D03*
D55*
X65825200Y-36394400D03*
X65825200Y-36794400D03*
X65825200Y-37194400D03*
X65825200Y-37594400D03*
X65825200Y-37994400D03*
X65825200Y-38394400D03*
X65825200Y-38794400D03*
X65825200Y-39194400D03*
X66976200Y-39194400D03*
X66976200Y-38794400D03*
X66976200Y-38394400D03*
X66976200Y-37994400D03*
X66976200Y-37594400D03*
X66976200Y-37194400D03*
X66976200Y-36794400D03*
X66976200Y-36394400D03*
D56*
X66400200Y-37794400D03*
D27*
X54210000Y-89387500D03*
X54210000Y-91112500D03*
D25*
X15240000Y-25400000D03*
D31*
X101497600Y-49419900D03*
X99497600Y-49419900D03*
D57*
X66471800Y-60171500D03*
D58*
X47244000Y-88823200D03*
D57*
X45058500Y-52705000D03*
X90220800Y-47777400D03*
D58*
X47244000Y-85223200D03*
D57*
X58901500Y-68199000D03*
X58954500Y-49961800D03*
X63905300Y-68199000D03*
X66979800Y-35306000D03*
X41173400Y-60223400D03*
X76222200Y-33782000D03*
D58*
X47244000Y-84023200D03*
D57*
X59029600Y-71678800D03*
X46685200Y-68860500D03*
D58*
X47244000Y-87623200D03*
D57*
X48159500Y-58166000D03*
X33274000Y-97713800D03*
X53973900Y-66497200D03*
X69265800Y-68225500D03*
X40106600Y-66167000D03*
X65532000Y-50038000D03*
X54989900Y-51460400D03*
X61468000Y-77393800D03*
X68225500Y-36449000D03*
X102717600Y-49453800D03*
X48515100Y-49987200D03*
X33477200Y-78181200D03*
X67818000Y-49276000D03*
D58*
X47244000Y-86423200D03*
D57*
X59486800Y-46736000D03*
X40055800Y-60325000D03*
X103606600Y-58928000D03*
X51130200Y-68173600D03*
X45135800Y-57658000D03*
X48133000Y-62992000D03*
X66548000Y-65786000D03*
D58*
X90720300Y-46473500D03*
D57*
X65278000Y-46228000D03*
X64278200Y-75123600D03*
X29353000Y-87706200D03*
X47853600Y-67716400D03*
X24892000Y-71120000D03*
X53409500Y-94695548D03*
X88239600Y-66852800D03*
D58*
X54210000Y-91112500D03*
D57*
X49860200Y-57099200D03*
X69265800Y-60629800D03*
X51260408Y-92274856D03*
X43653600Y-89018000D03*
X27473400Y-92786200D03*
X27448000Y-82270600D03*
X28311600Y-71602600D03*
D58*
X95844900Y-41361900D03*
D57*
X83031000Y-32570100D03*
X48996600Y-66903600D03*
X63017400Y-71526400D03*
X56032400Y-68173600D03*
X65433608Y-95703856D03*
X53162200Y-70993000D03*
X27914600Y-68503800D03*
X52146200Y-51409600D03*
X61874400Y-49936400D03*
D58*
X97449600Y-52848900D03*
D57*
X55448200Y-46761400D03*
D58*
X54311600Y-92713800D03*
D57*
X44535200Y-89018000D03*
X24704800Y-79273400D03*
X69162600Y-32519300D03*
X48339408Y-93341656D03*
X28565600Y-67157600D03*
X50241200Y-50952400D03*
X45542200Y-70612000D03*
D58*
X77391500Y-103583500D03*
D57*
X52171600Y-49860200D03*
X48945800Y-46786800D03*
X63500000Y-51308000D03*
X33315400Y-79527400D03*
X44602400Y-58521600D03*
X43256200Y-53771800D03*
X49276000Y-65379600D03*
X78422200Y-33823000D03*
X27432000Y-91186000D03*
X61010800Y-68173600D03*
X51130200Y-66497200D03*
X52842008Y-92019856D03*
X82904000Y-41053700D03*
X50647600Y-60325000D03*
X52755800Y-44246800D03*
X65913000Y-76555600D03*
X69951600Y-35407600D03*
X108011500Y-48677100D03*
X58089800Y-71018400D03*
X67741800Y-40843200D03*
X69264200Y-41079100D03*
X42240200Y-60274200D03*
X64770000Y-65786000D03*
X34560000Y-89331800D03*
X65379600Y-58420000D03*
X57937400Y-73075800D03*
X63128200Y-75123600D03*
X56997600Y-73736200D03*
X61620400Y-79146400D03*
X54210000Y-89488000D03*
D58*
X64297408Y-94128056D03*
X48742600Y-89204800D03*
D57*
X59848800Y-92967800D03*
X56445200Y-93907600D03*
X44526200Y-64592200D03*
X49479200Y-63703200D03*
X66419900Y-64287400D03*
X48921500Y-61315600D03*
X78536800Y-49885600D03*
X87187800Y-64151200D03*
X65201800Y-56108600D03*
X85887800Y-66811200D03*
X30911800Y-73228200D03*
X29632400Y-78232000D03*
X97206800Y-47743500D03*
X61188600Y-71348600D03*
X60426600Y-75336400D03*
X64135000Y-71221600D03*
X67564000Y-73406000D03*
X66502300Y-71551800D03*
X64924300Y-70967600D03*
X60502800Y-74142600D03*
X63747395Y-72233995D03*
X66065400Y-35788600D03*
X70764400Y-53848000D03*
X69392800Y-49479200D03*
X69240400Y-53721000D03*
X63855600Y-37211000D03*
X64185800Y-46101000D03*
X64693800Y-37467900D03*
X64712300Y-43789600D03*
X108966000Y-45248100D03*
X100330000Y-39878000D03*
X30800800Y-92887800D03*
D59*
X48450800Y-48290900D02*
X48450800Y-49922900D01*
X47221808Y-91615556D02*
X45900044Y-91615556D01*
X62703200Y-77353500D02*
X62611000Y-77445700D01*
X62703200Y-76023600D02*
X62703200Y-77353500D01*
X46538300Y-52703400D02*
X45060100Y-52703400D01*
X45060100Y-52703400D02*
X45058500Y-52705000D01*
X32045400Y-97750400D02*
X33237400Y-97750400D01*
X45186600Y-96799400D02*
X46736000Y-96799400D01*
X54950800Y-48290900D02*
X54950800Y-51421300D01*
D60*
X60426600Y-73075800D02*
X59029600Y-71678800D01*
X61654300Y-73923600D02*
X60806500Y-73075800D01*
D59*
X61519900Y-77445700D02*
X61468000Y-77393800D01*
D61*
X66503700Y-60203400D02*
X66471800Y-60171500D01*
D60*
X67880100Y-36794400D02*
X68225500Y-36449000D01*
D61*
X65450800Y-48290900D02*
X65450800Y-49956800D01*
X67863300Y-49321300D02*
X67818000Y-49276000D01*
D60*
X66976200Y-36794400D02*
X67880100Y-36794400D01*
D59*
X62611000Y-77445700D02*
X61519900Y-77445700D01*
X43166200Y-61377000D02*
X41822100Y-61377000D01*
X46538300Y-67703400D02*
X46538300Y-68713600D01*
D61*
X58950800Y-68248300D02*
X58901500Y-68199000D01*
D62*
X76222200Y-35331400D02*
X76222200Y-33782000D01*
D61*
X65450800Y-49956800D02*
X65532000Y-50038000D01*
D59*
X33466000Y-78192400D02*
X33477200Y-78181200D01*
X102683700Y-49419900D02*
X102717600Y-49453800D01*
X32172400Y-78192400D02*
X33466000Y-78192400D01*
D61*
X58950800Y-49958100D02*
X58954500Y-49961800D01*
D59*
X92256800Y-47743500D02*
X90254700Y-47743500D01*
X54950800Y-51421300D02*
X54989900Y-51460400D01*
X46538300Y-68713600D02*
X46685200Y-68860500D01*
D62*
X90551000Y-59817000D02*
X91440000Y-58928000D01*
D61*
X67863300Y-50203400D02*
X67863300Y-49321300D01*
X67863300Y-60203400D02*
X66503700Y-60203400D01*
D59*
X101497600Y-49419900D02*
X102683700Y-49419900D01*
D62*
X90551000Y-61188600D02*
X90551000Y-59817000D01*
D60*
X62203200Y-73923600D02*
X61654300Y-73923600D01*
D61*
X63950800Y-69615900D02*
X63950800Y-68244500D01*
D59*
X33237400Y-97750400D02*
X33274000Y-97713800D01*
D61*
X67863300Y-67703400D02*
X68743700Y-67703400D01*
X48122100Y-58203400D02*
X48159500Y-58166000D01*
D59*
X44754800Y-96367600D02*
X45186600Y-96799400D01*
X90254700Y-47743500D02*
X90220800Y-47777400D01*
D61*
X46538300Y-58203400D02*
X48122100Y-58203400D01*
D59*
X45900044Y-91615556D02*
X44754800Y-92760800D01*
D60*
X66979800Y-35306000D02*
X66976200Y-35309600D01*
D61*
X63950800Y-68244500D02*
X63905300Y-68199000D01*
X58950800Y-48290900D02*
X58950800Y-49958100D01*
D62*
X91440000Y-58928000D02*
X95344000Y-58928000D01*
D59*
X41807300Y-60857300D02*
X41173400Y-60223400D01*
D61*
X53950800Y-69615900D02*
X53950800Y-66520300D01*
D60*
X60806500Y-73075800D02*
X60426600Y-73075800D01*
D59*
X41807300Y-61391800D02*
X41807300Y-60857300D01*
D61*
X68743700Y-67703400D02*
X69265800Y-68225500D01*
X53950800Y-66520300D02*
X53973900Y-66497200D01*
D59*
X44754800Y-92760800D02*
X44754800Y-96367600D01*
X48450800Y-49922900D02*
X48515100Y-49987200D01*
D61*
X58950800Y-69615900D02*
X58950800Y-68248300D01*
D60*
X66976200Y-35309600D02*
X66976200Y-36394400D01*
D59*
X41822100Y-61377000D02*
X41807300Y-61391800D01*
X95848100Y-41358700D02*
X95844900Y-41361900D01*
X58450800Y-69615900D02*
X58450800Y-70657400D01*
D60*
X61644700Y-79170700D02*
X61620400Y-79146400D01*
D62*
X48338308Y-93340556D02*
X48339408Y-93341656D01*
D59*
X45181200Y-57703400D02*
X45135800Y-57658000D01*
X29327600Y-88763600D02*
X29327600Y-87731600D01*
D62*
X100744000Y-58928000D02*
X103606600Y-58928000D01*
D59*
X35677600Y-89485300D02*
X34713500Y-89485300D01*
X47853600Y-67716400D02*
X47340600Y-67203400D01*
D62*
X45744000Y-89018000D02*
X44535200Y-89018000D01*
D59*
X44616200Y-59527000D02*
X44616200Y-58535400D01*
X52746400Y-44237400D02*
X52755800Y-44246800D01*
D60*
X62611000Y-79170700D02*
X61644700Y-79170700D01*
D59*
X55450800Y-48290900D02*
X55450800Y-46764000D01*
X44616200Y-58535400D02*
X44602400Y-58521600D01*
X28591000Y-67132200D02*
X28565600Y-67157600D01*
X46538300Y-57703400D02*
X45181200Y-57703400D01*
X34713500Y-89485300D02*
X34560000Y-89331800D01*
X24720800Y-79289400D02*
X24704800Y-79273400D01*
X47421600Y-63703400D02*
X46538300Y-63703400D01*
X53450800Y-70704400D02*
X53162200Y-70993000D01*
D62*
X51285808Y-92249456D02*
X51260408Y-92274856D01*
X55011400Y-92014000D02*
X54311600Y-92713800D01*
D59*
X28235400Y-92800400D02*
X27487600Y-92800400D01*
X28362400Y-71653400D02*
X28311600Y-71602600D01*
X28515900Y-82296000D02*
X27473400Y-82296000D01*
D61*
X66630600Y-65703400D02*
X66548000Y-65786000D01*
D59*
X97500400Y-41358700D02*
X95848100Y-41358700D01*
X69192200Y-60703400D02*
X69265800Y-60629800D01*
D61*
X67863300Y-65703400D02*
X66630600Y-65703400D01*
D62*
X53409500Y-96092000D02*
X53409500Y-94695548D01*
X78422200Y-35331400D02*
X78422200Y-33823000D01*
D59*
X48950800Y-48290900D02*
X48950800Y-46791800D01*
X55450800Y-46764000D02*
X55448200Y-46761400D01*
D61*
X87187800Y-66811200D02*
X88198000Y-66811200D01*
D59*
X92256800Y-46473500D02*
X90720300Y-46473500D01*
D62*
X64122208Y-95703856D02*
X65433608Y-95703856D01*
D59*
X24720800Y-80518000D02*
X24720800Y-79289400D01*
D62*
X51285808Y-91105356D02*
X51285808Y-92249456D01*
D59*
X67863300Y-60703400D02*
X69192200Y-60703400D01*
X58450800Y-70657400D02*
X58089800Y-71018400D01*
D60*
X57024100Y-74828400D02*
X57024100Y-73762700D01*
D59*
X27473400Y-82296000D02*
X27448000Y-82270600D01*
X65950800Y-46900800D02*
X65278000Y-46228000D01*
X67741800Y-40843200D02*
X66400200Y-39501600D01*
D62*
X47221808Y-93340556D02*
X48338308Y-93340556D01*
D61*
X28743400Y-69332600D02*
X27914600Y-68503800D01*
D59*
X29327600Y-87731600D02*
X29353000Y-87706200D01*
D62*
X44535200Y-89018000D02*
X43653600Y-89018000D01*
D59*
X63450800Y-69615900D02*
X63450800Y-71093000D01*
X59450800Y-48290900D02*
X59450800Y-46772000D01*
D60*
X57024100Y-73762700D02*
X56997600Y-73736200D01*
D59*
X40082300Y-60351500D02*
X40055800Y-60325000D01*
X28362400Y-73242400D02*
X28362400Y-71653400D01*
D60*
X59081500Y-73075800D02*
X57937400Y-73075800D01*
D59*
X27487600Y-92800400D02*
X27473400Y-92786200D01*
D60*
X62203200Y-75123600D02*
X63128200Y-75123600D01*
D59*
X48950800Y-46791800D02*
X48945800Y-46786800D01*
D61*
X29708600Y-69332600D02*
X28743400Y-69332600D01*
D59*
X40082300Y-61391800D02*
X40082300Y-60351500D01*
X59450800Y-46772000D02*
X59486800Y-46736000D01*
X47340600Y-67203400D02*
X46538300Y-67203400D01*
X48133000Y-62992000D02*
X47421600Y-63703400D01*
D60*
X65381000Y-76023600D02*
X65913000Y-76555600D01*
D59*
X29557300Y-67132200D02*
X28591000Y-67132200D01*
D62*
X56388000Y-92014000D02*
X55011400Y-92014000D01*
D61*
X88198000Y-66811200D02*
X88239600Y-66852800D01*
D60*
X65203200Y-75123600D02*
X64278200Y-75123600D01*
D59*
X51460400Y-44237400D02*
X52746400Y-44237400D01*
X66400200Y-39501600D02*
X66400200Y-37794400D01*
D60*
X64703200Y-76023600D02*
X65381000Y-76023600D01*
D62*
X77391500Y-102550000D02*
X77391500Y-103583500D01*
D59*
X63450800Y-71093000D02*
X63017400Y-71526400D01*
X53450800Y-69615900D02*
X53450800Y-70704400D01*
X65950800Y-48290900D02*
X65950800Y-46900800D01*
D62*
X52842008Y-91112500D02*
X52842008Y-92019856D01*
D59*
X52842008Y-89387500D02*
X52842008Y-84592008D01*
X52842008Y-84592008D02*
X52349400Y-84099400D01*
X46538300Y-64203400D02*
X49283800Y-64203400D01*
X44637400Y-64703400D02*
X44526200Y-64592200D01*
X49283800Y-64203400D02*
X49479200Y-64008000D01*
X49479200Y-64008000D02*
X49479200Y-63703200D01*
X46538300Y-64703400D02*
X44637400Y-64703400D01*
D61*
X70358000Y-64770000D02*
X69791400Y-64203400D01*
X66503900Y-64203400D02*
X66419900Y-64287400D01*
X67863300Y-67203400D02*
X69702600Y-67203400D01*
X70358000Y-66548000D02*
X70358000Y-64770000D01*
X69791400Y-64203400D02*
X67863300Y-64203400D01*
X69702600Y-67203400D02*
X70358000Y-66548000D01*
X67863300Y-64203400D02*
X66503900Y-64203400D01*
D59*
X46538300Y-61203400D02*
X48809300Y-61203400D01*
X48809300Y-61203400D02*
X48921500Y-61315600D01*
D60*
X58853900Y-74723600D02*
X58749100Y-74828400D01*
X62203200Y-74723600D02*
X58853900Y-74723600D01*
D59*
X46538300Y-65203400D02*
X34540800Y-65203400D01*
X34540800Y-65203400D02*
X34361400Y-65024000D01*
X43770600Y-65703400D02*
X34458400Y-75015600D01*
X34458400Y-75015600D02*
X34458400Y-81021400D01*
X46538300Y-65703400D02*
X43770600Y-65703400D01*
D60*
X71170800Y-50165000D02*
X71450200Y-49885600D01*
D61*
X90551000Y-63728600D02*
X90128400Y-64151200D01*
D60*
X71450200Y-49885600D02*
X78536800Y-49885600D01*
D61*
X90128400Y-64151200D02*
X87187800Y-64151200D01*
D60*
X70632400Y-50703400D02*
X71170800Y-50165000D01*
X67863300Y-50703400D02*
X70632400Y-50703400D01*
X64950800Y-55857600D02*
X65201800Y-56108600D01*
X64950800Y-48290900D02*
X64950800Y-55857600D01*
D61*
X90551000Y-68808600D02*
X86766400Y-68808600D01*
X85887800Y-67930000D02*
X85887800Y-66811200D01*
X86766400Y-68808600D02*
X85887800Y-67930000D01*
D60*
X71059200Y-37194400D02*
X66976200Y-37194400D01*
X72922200Y-35331400D02*
X71059200Y-37194400D01*
X66976200Y-37594400D02*
X72709200Y-37594400D01*
X72709200Y-37594400D02*
X74022200Y-36281400D01*
X74022200Y-36281400D02*
X74022200Y-35331400D01*
X75122200Y-35834422D02*
X75122200Y-35331400D01*
X72962222Y-37994400D02*
X75122200Y-35834422D01*
X66976200Y-37994400D02*
X72962222Y-37994400D01*
X77322200Y-35834422D02*
X77322200Y-35331400D01*
X66976200Y-38394400D02*
X74762222Y-38394400D01*
X74762222Y-38394400D02*
X77322200Y-35834422D01*
X66976200Y-38794400D02*
X77009200Y-38794400D01*
X79522200Y-36281400D02*
X79522200Y-35331400D01*
X77009200Y-38794400D02*
X79522200Y-36281400D01*
X80622200Y-36281400D02*
X80622200Y-35331400D01*
X66976200Y-39194400D02*
X77709200Y-39194400D01*
X77709200Y-39194400D02*
X80622200Y-36281400D01*
D59*
X51450800Y-46247000D02*
X51460400Y-46237400D01*
X51450800Y-48290900D02*
X51450800Y-46247000D01*
X95483100Y-47743500D02*
X94041500Y-49185100D01*
X94041500Y-49185100D02*
X94041500Y-52918900D01*
X97206800Y-47743500D02*
X95483100Y-47743500D01*
X43867720Y-60228520D02*
X43166200Y-59527000D01*
X46538300Y-60203400D02*
X46513180Y-60228520D01*
X46513180Y-60228520D02*
X43867720Y-60228520D01*
X45289800Y-60703400D02*
X44616200Y-61377000D01*
X46538300Y-60703400D02*
X45289800Y-60703400D01*
D60*
X62331600Y-71348600D02*
X62950800Y-70729400D01*
X60613800Y-75523600D02*
X60426600Y-75336400D01*
X61188600Y-71348600D02*
X62331600Y-71348600D01*
X62950800Y-70729400D02*
X62950800Y-69615900D01*
X62203200Y-75523600D02*
X60613800Y-75523600D01*
X66646400Y-74323600D02*
X65203200Y-74323600D01*
X67564000Y-73406000D02*
X66646400Y-74323600D01*
X64135000Y-71221600D02*
X64135000Y-71012300D01*
X64450800Y-70696500D02*
X64450800Y-69615900D01*
X64135000Y-71012300D02*
X64450800Y-70696500D01*
D59*
X64924300Y-69642400D02*
X64950800Y-69615900D01*
X64924300Y-70967600D02*
X64924300Y-69642400D01*
X65203200Y-73923600D02*
X65610471Y-73923600D01*
X65610471Y-73923600D02*
X66502300Y-73031771D01*
X66502300Y-73031771D02*
X66502300Y-71551800D01*
D60*
X64697405Y-72233995D02*
X65450800Y-71480600D01*
X63747395Y-72233995D02*
X64697405Y-72233995D01*
X60683800Y-74323600D02*
X60502800Y-74142600D01*
X65450800Y-71480600D02*
X65450800Y-69615900D01*
X62203200Y-74323600D02*
X60683800Y-74323600D01*
D59*
X65363600Y-73523600D02*
X65950800Y-72936400D01*
X65203200Y-73523600D02*
X65363600Y-73523600D01*
X65950800Y-72936400D02*
X65950800Y-69615900D01*
D60*
X65278000Y-36271200D02*
X65401200Y-36394400D01*
X65278000Y-35915600D02*
X65278000Y-36271200D01*
X65405000Y-35788600D02*
X65278000Y-35915600D01*
X66065400Y-35788600D02*
X65405000Y-35788600D01*
X65401200Y-36394400D02*
X65825200Y-36394400D01*
X69909000Y-54703400D02*
X70764400Y-53848000D01*
X67863300Y-54703400D02*
X69909000Y-54703400D01*
X66675000Y-53679013D02*
X67199387Y-54203400D01*
X66675000Y-45847000D02*
X66675000Y-53679013D01*
X67199387Y-54203400D02*
X67863300Y-54203400D01*
X65373689Y-44545689D02*
X66675000Y-45847000D01*
X65825200Y-38794400D02*
X65447178Y-38794400D01*
X65447178Y-38794400D02*
X65373689Y-38867889D01*
X65373689Y-38867889D02*
X65373689Y-44545689D01*
X65825200Y-39194400D02*
X65825200Y-43981200D01*
X69392800Y-47548800D02*
X69392800Y-49479200D01*
X69240400Y-53721000D02*
X67880900Y-53721000D01*
X65825200Y-43981200D02*
X69392800Y-47548800D01*
X67880900Y-53721000D02*
X67863300Y-53703400D01*
D61*
X81900600Y-51703400D02*
X84582000Y-49022000D01*
X92248300Y-49022000D02*
X92256800Y-49013500D01*
X84582000Y-49022000D02*
X92248300Y-49022000D01*
X67863300Y-51703400D02*
X81900600Y-51703400D01*
X67863300Y-51203400D02*
X78844600Y-51203400D01*
X84844500Y-45203500D02*
X92256800Y-45203500D01*
X78844600Y-51203400D02*
X84844500Y-45203500D01*
D60*
X64185800Y-47391987D02*
X63950800Y-47626987D01*
X65447178Y-37194400D02*
X65825200Y-37194400D01*
X64160400Y-36906200D02*
X65158978Y-36906200D01*
X63950800Y-47626987D02*
X63950800Y-48290900D01*
X63855600Y-37211000D02*
X64160400Y-36906200D01*
X65158978Y-36906200D02*
X65447178Y-37194400D01*
X64185800Y-46101000D02*
X64185800Y-47391987D01*
X63450800Y-48290900D02*
X63450800Y-45051100D01*
X65825200Y-37594400D02*
X64820300Y-37594400D01*
X64820300Y-37594400D02*
X64693800Y-37467900D01*
X63450800Y-45051100D02*
X64712300Y-43789600D01*
X65825200Y-38394400D02*
X63993000Y-38394400D01*
X62950800Y-39436600D02*
X62950800Y-48290900D01*
X63993000Y-38394400D02*
X62950800Y-39436600D01*
X62767400Y-37994400D02*
X61450800Y-39311000D01*
X61450800Y-39311000D02*
X61450800Y-48290900D01*
X65825200Y-37994400D02*
X62767400Y-37994400D01*
D59*
X97206800Y-46473500D02*
X94708100Y-46473500D01*
X108487900Y-46473500D02*
X108966000Y-45995400D01*
X94708100Y-46473500D02*
X93838300Y-45603700D01*
X93838300Y-45603700D02*
X93838300Y-41514300D01*
X97206800Y-46473500D02*
X108487900Y-46473500D01*
X108966000Y-45995400D02*
X108966000Y-45248100D01*
X100330000Y-39878000D02*
X104620000Y-35588000D01*
X104620000Y-35588000D02*
X104620000Y-29656000D01*
X31646100Y-65024000D02*
X28805900Y-65024000D01*
X34458400Y-83621400D02*
X34458400Y-87071200D01*
X34458400Y-87071200D02*
X34433000Y-87096600D01*
X45839031Y-66203400D02*
X38065200Y-73977231D01*
X38065200Y-73977231D02*
X38065200Y-90063800D01*
X46538300Y-66203400D02*
X45839031Y-66203400D01*
X38065200Y-92663800D02*
X41778200Y-92663800D01*
X41778200Y-92663800D02*
X41799000Y-92684600D01*
D62*
X81820000Y-100650000D02*
X82070000Y-100900000D01*
X77391500Y-100650000D02*
X81820000Y-100650000D01*
G04 #@! TA.AperFunction,Conductor*
G36*
X62896981Y-93064683D02*
G01*
X62900408Y-93072956D01*
X62900408Y-96427756D01*
X62896981Y-96436029D01*
X62888708Y-96439456D01*
X61388108Y-96439456D01*
X61379835Y-96436029D01*
X61376408Y-96427756D01*
X61376408Y-95093256D01*
X60868408Y-94331256D01*
X58594108Y-94331256D01*
X58585835Y-94327829D01*
X58582408Y-94319556D01*
X58582408Y-93580956D01*
X58585835Y-93572683D01*
X58594108Y-93569256D01*
X61376408Y-93569256D01*
X61376408Y-93072956D01*
X61379835Y-93064683D01*
X61388108Y-93061256D01*
X62888708Y-93061256D01*
X62896981Y-93064683D01*
G37*
G04 #@! TD.AperFunction*
G04 #@! TA.AperFunction,Conductor*
G36*
X31555721Y-89961402D02*
G01*
X31602214Y-90015058D01*
X31613600Y-90067400D01*
X31613600Y-91288600D01*
X31593598Y-91356721D01*
X31539942Y-91403214D01*
X31487600Y-91414600D01*
X29810200Y-91414600D01*
X29810200Y-93676200D01*
X29790198Y-93744321D01*
X29736542Y-93790814D01*
X29684200Y-93802200D01*
X29326600Y-93802200D01*
X29258479Y-93782198D01*
X29211986Y-93728542D01*
X29200600Y-93676200D01*
X29200600Y-91389200D01*
X28742400Y-91389200D01*
X28674279Y-91369198D01*
X28627786Y-91315542D01*
X28616400Y-91263200D01*
X28616400Y-90067400D01*
X28636402Y-89999279D01*
X28690058Y-89952786D01*
X28742400Y-89941400D01*
X31487600Y-89941400D01*
X31555721Y-89961402D01*
G37*
G04 #@! TD.AperFunction*
G04 #@! TA.AperFunction,Conductor*
G36*
X36171140Y-90654545D02*
G01*
X37303200Y-90855800D01*
X38701200Y-90855800D01*
X38769321Y-90875802D01*
X38815814Y-90929458D01*
X38827200Y-90981800D01*
X38827200Y-91745800D01*
X38807198Y-91813921D01*
X38753542Y-91860414D01*
X38701200Y-91871800D01*
X36261800Y-91871800D01*
X36261613Y-91884889D01*
X36238174Y-93525600D01*
X36217201Y-93593428D01*
X36162887Y-93639150D01*
X36112187Y-93649800D01*
X35117800Y-93649800D01*
X35049679Y-93629798D01*
X35003186Y-93576142D01*
X34991800Y-93523800D01*
X34991800Y-92278001D01*
X35001492Y-92229539D01*
X35114003Y-91959514D01*
X35114003Y-91959512D01*
X35118800Y-91948000D01*
X35118800Y-90778600D01*
X35138802Y-90710479D01*
X35192458Y-90663986D01*
X35244800Y-90652600D01*
X36149087Y-90652600D01*
X36171140Y-90654545D01*
G37*
G04 #@! TD.AperFunction*
G04 #@! TA.AperFunction,Conductor*
G36*
X62588573Y-88602427D02*
G01*
X62592000Y-88610700D01*
X62592000Y-90847900D01*
X62588573Y-90856173D01*
X62580300Y-90859600D01*
X58528000Y-90859600D01*
X58528000Y-93311700D01*
X58524573Y-93319973D01*
X58516300Y-93323400D01*
X55237700Y-93323400D01*
X55229427Y-93319973D01*
X55226000Y-93311700D01*
X55226000Y-92553200D01*
X55229427Y-92544927D01*
X55237700Y-92541500D01*
X56424202Y-92541500D01*
X56463565Y-92536108D01*
X56465154Y-92536000D01*
X57664400Y-92536000D01*
X57664400Y-88610700D01*
X57667827Y-88602427D01*
X57676100Y-88599000D01*
X62580300Y-88599000D01*
X62588573Y-88602427D01*
G37*
G04 #@! TD.AperFunction*
G04 #@! TA.AperFunction,Conductor*
G36*
X76269121Y-98318002D02*
G01*
X76315614Y-98371658D01*
X76327000Y-98424000D01*
X76327000Y-104268000D01*
X76306998Y-104336121D01*
X76253342Y-104382614D01*
X76201000Y-104394000D01*
X68960000Y-104394000D01*
X68891879Y-104373998D01*
X68845386Y-104320342D01*
X68834000Y-104268000D01*
X68834000Y-98424000D01*
X68854002Y-98355879D01*
X68907658Y-98309386D01*
X68960000Y-98298000D01*
X76201000Y-98298000D01*
X76269121Y-98318002D01*
G37*
G04 #@! TD.AperFunction*
G04 #@! TA.AperFunction,Conductor*
G36*
X31149321Y-77236002D02*
G01*
X31195814Y-77289658D01*
X31207200Y-77342000D01*
X31207200Y-79781400D01*
X32656000Y-79781400D01*
X32724121Y-79801402D01*
X32770614Y-79855058D01*
X32782000Y-79907400D01*
X32782000Y-81103200D01*
X32761998Y-81171321D01*
X32708342Y-81217814D01*
X32656000Y-81229200D01*
X29987000Y-81229200D01*
X29918879Y-81209198D01*
X29872386Y-81155542D01*
X29861000Y-81103200D01*
X29861000Y-79932800D01*
X29881002Y-79864679D01*
X29934658Y-79818186D01*
X29987000Y-79806800D01*
X30597600Y-79806800D01*
X30597600Y-77342000D01*
X30617602Y-77273879D01*
X30671258Y-77227386D01*
X30723600Y-77216000D01*
X31081200Y-77216000D01*
X31149321Y-77236002D01*
G37*
G04 #@! TD.AperFunction*
G04 #@! TA.AperFunction,Conductor*
G36*
X62617581Y-91058083D02*
G01*
X62621008Y-91066356D01*
X62621008Y-92363756D01*
X62617581Y-92372029D01*
X62609308Y-92375456D01*
X58797308Y-92375456D01*
X58789035Y-92372029D01*
X58785608Y-92363756D01*
X58785608Y-91658700D01*
X58789035Y-91650427D01*
X58797308Y-91647000D01*
X61576000Y-91647000D01*
X61576000Y-91066356D01*
X61579427Y-91058083D01*
X61587700Y-91054656D01*
X62609308Y-91054656D01*
X62617581Y-91058083D01*
G37*
G04 #@! TD.AperFunction*
G04 #@! TA.AperFunction,Conductor*
G36*
X98174621Y-42753502D02*
G01*
X98221114Y-42807158D01*
X98232500Y-42859500D01*
X98232500Y-45401500D01*
X98212498Y-45469621D01*
X98158842Y-45516114D01*
X98106500Y-45527500D01*
X96301100Y-45527500D01*
X96232979Y-45507498D01*
X96186486Y-45453842D01*
X96175100Y-45401500D01*
X96175100Y-44993100D01*
X96195102Y-44924979D01*
X96248758Y-44878486D01*
X96301100Y-44867100D01*
X96784700Y-44867100D01*
X96784700Y-42859500D01*
X96804702Y-42791379D01*
X96858358Y-42744886D01*
X96910700Y-42733500D01*
X98106500Y-42733500D01*
X98174621Y-42753502D01*
G37*
G04 #@! TD.AperFunction*
G04 #@! TA.AperFunction,Conductor*
G36*
X33867121Y-68625402D02*
G01*
X33913614Y-68679058D01*
X33925000Y-68731400D01*
X33925000Y-71846459D01*
X33906428Y-71912301D01*
X33695079Y-72257135D01*
X32514070Y-74184043D01*
X32461419Y-74231670D01*
X32406642Y-74244200D01*
X31993600Y-74244200D01*
X31925479Y-74224198D01*
X31878986Y-74170542D01*
X31867600Y-74118200D01*
X31867600Y-72389000D01*
X31887602Y-72320879D01*
X31941258Y-72274386D01*
X31993600Y-72263000D01*
X32680400Y-72263000D01*
X32680400Y-70485000D01*
X32458266Y-69818598D01*
X32451800Y-69778753D01*
X32451800Y-68731400D01*
X32471802Y-68663279D01*
X32525458Y-68616786D01*
X32577800Y-68605400D01*
X33799000Y-68605400D01*
X33867121Y-68625402D01*
G37*
G04 #@! TD.AperFunction*
G04 #@! TA.AperFunction,Conductor*
G36*
X57987888Y-93548326D02*
G01*
X57991418Y-93556691D01*
X57995330Y-98027014D01*
X58000733Y-104199694D01*
X58000778Y-104251661D01*
X57997358Y-104259937D01*
X57988797Y-104263368D01*
X56743074Y-104233459D01*
X55336755Y-104199694D01*
X55328567Y-104196069D01*
X55325336Y-104187966D01*
X55352970Y-93588926D01*
X55356418Y-93580662D01*
X55364526Y-93577258D01*
X57979574Y-93545002D01*
X57987888Y-93548326D01*
G37*
G04 #@! TD.AperFunction*
G04 #@! TA.AperFunction,Conductor*
G36*
X49262504Y-87862027D02*
G01*
X49265930Y-87870148D01*
X49276000Y-88646000D01*
X55353000Y-88599000D01*
X57093900Y-88599000D01*
X57102173Y-88602427D01*
X57105600Y-88610700D01*
X57105600Y-90924100D01*
X57102173Y-90932373D01*
X57093900Y-90935800D01*
X55440900Y-90935800D01*
X55432627Y-90932373D01*
X55429200Y-90924100D01*
X55429200Y-90072200D01*
X55426848Y-90072220D01*
X50348336Y-90115836D01*
X50346008Y-90115856D01*
X50346008Y-90637413D01*
X50342581Y-90645686D01*
X50334166Y-90649112D01*
X48271557Y-90623997D01*
X48263327Y-90620470D01*
X48260000Y-90612298D01*
X48260000Y-87870300D01*
X48263427Y-87862027D01*
X48271700Y-87858600D01*
X49254231Y-87858600D01*
X49262504Y-87862027D01*
G37*
G04 #@! TD.AperFunction*
G04 #@! TA.AperFunction,Conductor*
G36*
X33536921Y-89936002D02*
G01*
X33583414Y-89989658D01*
X33594800Y-90042000D01*
X33594800Y-91389200D01*
X33603082Y-91395707D01*
X34257846Y-91910165D01*
X34299052Y-91967979D01*
X34306000Y-92009241D01*
X34306000Y-93676200D01*
X34285998Y-93744321D01*
X34232342Y-93790814D01*
X34180000Y-93802200D01*
X31841200Y-93802200D01*
X31773079Y-93782198D01*
X31726586Y-93728542D01*
X31715200Y-93676200D01*
X31715200Y-91947000D01*
X31735202Y-91878879D01*
X31788858Y-91832386D01*
X31841200Y-91821000D01*
X32172400Y-91821000D01*
X32172400Y-90042000D01*
X32192402Y-89973879D01*
X32246058Y-89927386D01*
X32298400Y-89916000D01*
X33468800Y-89916000D01*
X33536921Y-89936002D01*
G37*
G04 #@! TD.AperFunction*
G04 #@! TA.AperFunction,Conductor*
G36*
X29041121Y-77210602D02*
G01*
X29087614Y-77264258D01*
X29099000Y-77316600D01*
X29099000Y-81154000D01*
X29078998Y-81222121D01*
X29025342Y-81268614D01*
X28973000Y-81280000D01*
X26227800Y-81280000D01*
X26159679Y-81259998D01*
X26113186Y-81206342D01*
X26101800Y-81154000D01*
X26101800Y-79932800D01*
X26121802Y-79864679D01*
X26175458Y-79818186D01*
X26227800Y-79806800D01*
X28006800Y-79806800D01*
X28006800Y-77316600D01*
X28026802Y-77248479D01*
X28080458Y-77201986D01*
X28132800Y-77190600D01*
X28973000Y-77190600D01*
X29041121Y-77210602D01*
G37*
G04 #@! TD.AperFunction*
G04 #@! TA.AperFunction,Conductor*
G36*
X35162521Y-81808002D02*
G01*
X35209014Y-81861658D01*
X35220400Y-81914000D01*
X35220400Y-82703400D01*
X35200398Y-82771521D01*
X35146742Y-82818014D01*
X35094400Y-82829400D01*
X33721800Y-82829400D01*
X33070749Y-82962949D01*
X32743729Y-83030030D01*
X32718410Y-83032600D01*
X31513672Y-83032600D01*
X31445551Y-83012598D01*
X31400974Y-82962949D01*
X31316901Y-82794802D01*
X31308800Y-82778600D01*
X29809200Y-82778600D01*
X29741079Y-82758598D01*
X29694586Y-82704942D01*
X29683200Y-82652600D01*
X29683200Y-81914000D01*
X29703202Y-81845879D01*
X29756858Y-81799386D01*
X29809200Y-81788000D01*
X35094400Y-81788000D01*
X35162521Y-81808002D01*
G37*
G04 #@! TD.AperFunction*
G04 #@! TA.AperFunction,Conductor*
G36*
X48099643Y-83560602D02*
G01*
X48146136Y-83614258D01*
X48157519Y-83667475D01*
X48133000Y-87198200D01*
X48133000Y-87580200D01*
X48112998Y-87648321D01*
X48059342Y-87694814D01*
X48007000Y-87706200D01*
X47752000Y-87706200D01*
X47752000Y-92126800D01*
X47731998Y-92194921D01*
X47678342Y-92241414D01*
X47626000Y-92252800D01*
X46786066Y-92252800D01*
X46717945Y-92232798D01*
X46671452Y-92179142D01*
X46660066Y-92126535D01*
X46669334Y-87724315D01*
X46669372Y-87706200D01*
X46481000Y-87706200D01*
X46412879Y-87686198D01*
X46366386Y-87632542D01*
X46355000Y-87580200D01*
X46355000Y-83666600D01*
X46375002Y-83598479D01*
X46428658Y-83551986D01*
X46481000Y-83540600D01*
X48031522Y-83540600D01*
X48099643Y-83560602D01*
G37*
G04 #@! TD.AperFunction*
G04 #@! TA.AperFunction,Conductor*
G36*
X33536921Y-64282002D02*
G01*
X33583414Y-64335658D01*
X33594800Y-64388000D01*
X33594800Y-65786000D01*
X33598198Y-65795885D01*
X33867357Y-66578893D01*
X33874200Y-66619853D01*
X33874200Y-67717400D01*
X33854198Y-67785521D01*
X33800542Y-67832014D01*
X33748200Y-67843400D01*
X30850600Y-67843400D01*
X30782479Y-67823398D01*
X30735986Y-67769742D01*
X30724600Y-67717400D01*
X30724600Y-66775600D01*
X30744602Y-66707479D01*
X30798258Y-66660986D01*
X30850600Y-66649600D01*
X32223200Y-66649600D01*
X32553400Y-65786000D01*
X32553400Y-64388000D01*
X32573402Y-64319879D01*
X32627058Y-64273386D01*
X32679400Y-64262000D01*
X33468800Y-64262000D01*
X33536921Y-64282002D01*
G37*
G04 #@! TD.AperFunction*
G04 #@! TA.AperFunction,Conductor*
G36*
X31860521Y-70479602D02*
G01*
X31907014Y-70533258D01*
X31918400Y-70585600D01*
X31918400Y-71832200D01*
X31898398Y-71900321D01*
X31844742Y-71946814D01*
X31792400Y-71958200D01*
X29937200Y-71958200D01*
X29937200Y-74092800D01*
X29917198Y-74160921D01*
X29863542Y-74207414D01*
X29811200Y-74218800D01*
X29453600Y-74218800D01*
X29385479Y-74198798D01*
X29338986Y-74145142D01*
X29327600Y-74092800D01*
X29327600Y-72212200D01*
X29034305Y-71918905D01*
X29000279Y-71856593D01*
X28997400Y-71829810D01*
X28997400Y-70585600D01*
X29017402Y-70517479D01*
X29071058Y-70470986D01*
X29123400Y-70459600D01*
X31792400Y-70459600D01*
X31860521Y-70479602D01*
G37*
G04 #@! TD.AperFunction*
G04 #@! TA.AperFunction,Conductor*
G36*
X100109521Y-48652502D02*
G01*
X100156014Y-48706158D01*
X100167400Y-48758500D01*
X100167400Y-50055900D01*
X100147398Y-50124021D01*
X100093742Y-50170514D01*
X100041400Y-50181900D01*
X98186200Y-50181900D01*
X98186200Y-51376700D01*
X98166198Y-51444821D01*
X98112542Y-51491314D01*
X98060200Y-51502700D01*
X96839000Y-51502700D01*
X96770879Y-51482698D01*
X96724386Y-51429042D01*
X96713000Y-51376700D01*
X96713000Y-49369100D01*
X96280200Y-49369100D01*
X96212079Y-49349098D01*
X96165586Y-49295442D01*
X96154200Y-49243100D01*
X96154200Y-48758500D01*
X96174202Y-48690379D01*
X96227858Y-48643886D01*
X96280200Y-48632500D01*
X100041400Y-48632500D01*
X100109521Y-48652502D01*
G37*
G04 #@! TD.AperFunction*
M02*
