G04 #@! TF.GenerationSoftware,KiCad,Pcbnew,(6.0.0-0)*
G04 #@! TF.CreationDate,2023-02-02T14:04:45-07:00*
G04 #@! TF.ProjectId,EVCU,45564355-2e6b-4696-9361-645f70636258,rev?*
G04 #@! TF.SameCoordinates,Original*
G04 #@! TF.FileFunction,Legend,Top*
G04 #@! TF.FilePolarity,Positive*
%FSLAX46Y46*%
G04 Gerber Fmt 4.6, Leading zero omitted, Abs format (unit mm)*
G04 Created by KiCad (PCBNEW (6.0.0-0)) date 2023-02-02 14:04:45*
%MOMM*%
%LPD*%
G01*
G04 APERTURE LIST*
G04 Aperture macros list*
%AMRoundRect*
0 Rectangle with rounded corners*
0 $1 Rounding radius*
0 $2 $3 $4 $5 $6 $7 $8 $9 X,Y pos of 4 corners*
0 Add a 4 corners polygon primitive as box body*
4,1,4,$2,$3,$4,$5,$6,$7,$8,$9,$2,$3,0*
0 Add four circle primitives for the rounded corners*
1,1,$1+$1,$2,$3*
1,1,$1+$1,$4,$5*
1,1,$1+$1,$6,$7*
1,1,$1+$1,$8,$9*
0 Add four rect primitives between the rounded corners*
20,1,$1+$1,$2,$3,$4,$5,0*
20,1,$1+$1,$4,$5,$6,$7,0*
20,1,$1+$1,$6,$7,$8,$9,0*
20,1,$1+$1,$8,$9,$2,$3,0*%
%AMFreePoly0*
4,1,14,0.266715,0.088284,0.363284,-0.008285,0.375000,-0.036569,0.375000,-0.060000,0.363284,-0.088284,0.335000,-0.100000,-0.335000,-0.100000,-0.363284,-0.088284,-0.375000,-0.060000,-0.375000,0.060000,-0.363284,0.088284,-0.335000,0.100000,0.238431,0.100000,0.266715,0.088284,0.266715,0.088284,$1*%
%AMFreePoly1*
4,1,14,0.363284,0.088284,0.375000,0.060000,0.375000,0.036569,0.363284,0.008285,0.266715,-0.088284,0.238431,-0.100000,-0.335000,-0.100000,-0.363284,-0.088284,-0.375000,-0.060000,-0.375000,0.060000,-0.363284,0.088284,-0.335000,0.100000,0.335000,0.100000,0.363284,0.088284,0.363284,0.088284,$1*%
%AMFreePoly2*
4,1,14,0.088284,0.363284,0.100000,0.335000,0.100000,-0.335000,0.088284,-0.363284,0.060000,-0.375000,-0.060000,-0.375000,-0.088284,-0.363284,-0.100000,-0.335000,-0.100000,0.238431,-0.088284,0.266715,0.008285,0.363284,0.036569,0.375000,0.060000,0.375000,0.088284,0.363284,0.088284,0.363284,$1*%
%AMFreePoly3*
4,1,14,-0.008285,0.363284,0.088284,0.266715,0.100000,0.238431,0.100000,-0.335000,0.088284,-0.363284,0.060000,-0.375000,-0.060000,-0.375000,-0.088284,-0.363284,-0.100000,-0.335000,-0.100000,0.335000,-0.088284,0.363284,-0.060000,0.375000,-0.036569,0.375000,-0.008285,0.363284,-0.008285,0.363284,$1*%
%AMFreePoly4*
4,1,14,0.363284,0.088284,0.375000,0.060000,0.375000,-0.060000,0.363284,-0.088284,0.335000,-0.100000,-0.238431,-0.100000,-0.266715,-0.088284,-0.363284,0.008285,-0.375000,0.036569,-0.375000,0.060000,-0.363284,0.088284,-0.335000,0.100000,0.335000,0.100000,0.363284,0.088284,0.363284,0.088284,$1*%
%AMFreePoly5*
4,1,14,0.363284,0.088284,0.375000,0.060000,0.375000,-0.060000,0.363284,-0.088284,0.335000,-0.100000,-0.335000,-0.100000,-0.363284,-0.088284,-0.375000,-0.060000,-0.375000,-0.036569,-0.363284,-0.008285,-0.266715,0.088284,-0.238431,0.100000,0.335000,0.100000,0.363284,0.088284,0.363284,0.088284,$1*%
%AMFreePoly6*
4,1,14,0.088284,0.363284,0.100000,0.335000,0.100000,-0.238431,0.088284,-0.266715,-0.008285,-0.363284,-0.036569,-0.375000,-0.060000,-0.375000,-0.088284,-0.363284,-0.100000,-0.335000,-0.100000,0.335000,-0.088284,0.363284,-0.060000,0.375000,0.060000,0.375000,0.088284,0.363284,0.088284,0.363284,$1*%
%AMFreePoly7*
4,1,14,0.088284,0.363284,0.100000,0.335000,0.100000,-0.335000,0.088284,-0.363284,0.060000,-0.375000,0.036569,-0.375000,0.008285,-0.363284,-0.088284,-0.266715,-0.100000,-0.238431,-0.100000,0.335000,-0.088284,0.363284,-0.060000,0.375000,0.060000,0.375000,0.088284,0.363284,0.088284,0.363284,$1*%
%AMFreePoly8*
4,1,9,5.362500,-0.866500,1.237500,-0.866500,1.237500,-0.450000,-1.237500,-0.450000,-1.237500,0.450000,1.237500,0.450000,1.237500,0.866500,5.362500,0.866500,5.362500,-0.866500,5.362500,-0.866500,$1*%
G04 Aperture macros list end*
%ADD10C,0.300000*%
%ADD11C,0.150000*%
%ADD12C,0.120000*%
%ADD13R,1.500000X1.500000*%
%ADD14FreePoly0,270.000000*%
%ADD15RoundRect,0.050000X-0.050000X0.325000X-0.050000X-0.325000X0.050000X-0.325000X0.050000X0.325000X0*%
%ADD16FreePoly1,270.000000*%
%ADD17FreePoly2,270.000000*%
%ADD18RoundRect,0.050000X-0.325000X0.050000X-0.325000X-0.050000X0.325000X-0.050000X0.325000X0.050000X0*%
%ADD19FreePoly3,270.000000*%
%ADD20FreePoly4,270.000000*%
%ADD21FreePoly5,270.000000*%
%ADD22FreePoly6,270.000000*%
%ADD23FreePoly7,270.000000*%
%ADD24R,1.600000X1.750000*%
%ADD25RoundRect,0.237500X0.300000X0.237500X-0.300000X0.237500X-0.300000X-0.237500X0.300000X-0.237500X0*%
%ADD26RoundRect,0.237500X0.237500X-0.300000X0.237500X0.300000X-0.237500X0.300000X-0.237500X-0.300000X0*%
%ADD27R,0.400000X1.500000*%
%ADD28R,1.000000X1.500000*%
%ADD29RoundRect,0.250001X0.462499X0.849999X-0.462499X0.849999X-0.462499X-0.849999X0.462499X-0.849999X0*%
%ADD30RoundRect,0.237500X-0.237500X0.300000X-0.237500X-0.300000X0.237500X-0.300000X0.237500X0.300000X0*%
%ADD31R,0.900000X2.300000*%
%ADD32FreePoly8,90.000000*%
%ADD33RoundRect,0.250000X0.450000X-0.350000X0.450000X0.350000X-0.450000X0.350000X-0.450000X-0.350000X0*%
%ADD34RoundRect,0.250000X0.350000X0.450000X-0.350000X0.450000X-0.350000X-0.450000X0.350000X-0.450000X0*%
%ADD35R,1.500000X1.000000*%
%ADD36RoundRect,0.250000X0.412500X0.650000X-0.412500X0.650000X-0.412500X-0.650000X0.412500X-0.650000X0*%
%ADD37R,2.000000X0.650000*%
%ADD38RoundRect,0.150000X-0.150000X0.825000X-0.150000X-0.825000X0.150000X-0.825000X0.150000X0.825000X0*%
%ADD39R,3.000000X2.290000*%
%ADD40RoundRect,0.250000X-0.450000X0.350000X-0.450000X-0.350000X0.450000X-0.350000X0.450000X0.350000X0*%
%ADD41R,2.400000X2.400000*%
%ADD42C,2.400000*%
%ADD43C,2.235200*%
%ADD44RoundRect,0.075000X-0.662500X-0.075000X0.662500X-0.075000X0.662500X0.075000X-0.662500X0.075000X0*%
%ADD45RoundRect,0.075000X-0.075000X-0.662500X0.075000X-0.662500X0.075000X0.662500X-0.075000X0.662500X0*%
%ADD46R,1.700000X1.700000*%
%ADD47O,1.700000X1.700000*%
%ADD48R,3.500000X2.300000*%
%ADD49RoundRect,0.150000X-0.825000X-0.150000X0.825000X-0.150000X0.825000X0.150000X-0.825000X0.150000X0*%
%ADD50R,0.800000X1.500000*%
%ADD51R,1.450000X2.000000*%
%ADD52C,4.000000*%
%ADD53R,1.600000X1.600000*%
%ADD54C,1.600000*%
%ADD55RoundRect,0.200000X0.200000X0.250000X-0.200000X0.250000X-0.200000X-0.250000X0.200000X-0.250000X0*%
%ADD56RoundRect,0.250000X-0.350000X-0.450000X0.350000X-0.450000X0.350000X0.450000X-0.350000X0.450000X0*%
%ADD57R,0.450000X0.200000*%
%ADD58R,0.300000X2.800000*%
G04 APERTURE END LIST*
D10*
X20934771Y-19242571D02*
X21434771Y-20742571D01*
X21934771Y-19242571D01*
X23291914Y-20742571D02*
X22791914Y-20028285D01*
X22434771Y-20742571D02*
X22434771Y-19242571D01*
X23006199Y-19242571D01*
X23149057Y-19314000D01*
X23220485Y-19385428D01*
X23291914Y-19528285D01*
X23291914Y-19742571D01*
X23220485Y-19885428D01*
X23149057Y-19956857D01*
X23006199Y-20028285D01*
X22434771Y-20028285D01*
X23934771Y-19956857D02*
X24434771Y-19956857D01*
X24649057Y-20742571D02*
X23934771Y-20742571D01*
X23934771Y-19242571D01*
X24649057Y-19242571D01*
X25791914Y-19956857D02*
X25291914Y-19956857D01*
X25291914Y-20742571D02*
X25291914Y-19242571D01*
X26006199Y-19242571D01*
X26577628Y-20171142D02*
X27720485Y-20171142D01*
X27149057Y-20742571D02*
X27149057Y-19599714D01*
X30220485Y-20671142D02*
X30077628Y-20742571D01*
X29791914Y-20742571D01*
X29649057Y-20671142D01*
X29577628Y-20599714D01*
X29506199Y-20456857D01*
X29506199Y-20028285D01*
X29577628Y-19885428D01*
X29649057Y-19814000D01*
X29791914Y-19742571D01*
X30077628Y-19742571D01*
X30220485Y-19814000D01*
X31506199Y-20742571D02*
X31506199Y-19956857D01*
X31434771Y-19814000D01*
X31291914Y-19742571D01*
X31006199Y-19742571D01*
X30863342Y-19814000D01*
X31506199Y-20671142D02*
X31363342Y-20742571D01*
X31006199Y-20742571D01*
X30863342Y-20671142D01*
X30791914Y-20528285D01*
X30791914Y-20385428D01*
X30863342Y-20242571D01*
X31006199Y-20171142D01*
X31363342Y-20171142D01*
X31506199Y-20099714D01*
X32220485Y-19742571D02*
X32220485Y-21242571D01*
X32220485Y-19814000D02*
X32363342Y-19742571D01*
X32649057Y-19742571D01*
X32791914Y-19814000D01*
X32863342Y-19885428D01*
X32934771Y-20028285D01*
X32934771Y-20456857D01*
X32863342Y-20599714D01*
X32791914Y-20671142D01*
X32649057Y-20742571D01*
X32363342Y-20742571D01*
X32220485Y-20671142D01*
X34220485Y-20742571D02*
X34220485Y-19956857D01*
X34149057Y-19814000D01*
X34006199Y-19742571D01*
X33720485Y-19742571D01*
X33577628Y-19814000D01*
X34220485Y-20671142D02*
X34077628Y-20742571D01*
X33720485Y-20742571D01*
X33577628Y-20671142D01*
X33506199Y-20528285D01*
X33506199Y-20385428D01*
X33577628Y-20242571D01*
X33720485Y-20171142D01*
X34077628Y-20171142D01*
X34220485Y-20099714D01*
X35577628Y-20671142D02*
X35434771Y-20742571D01*
X35149057Y-20742571D01*
X35006199Y-20671142D01*
X34934771Y-20599714D01*
X34863342Y-20456857D01*
X34863342Y-20028285D01*
X34934771Y-19885428D01*
X35006199Y-19814000D01*
X35149057Y-19742571D01*
X35434771Y-19742571D01*
X35577628Y-19814000D01*
X36220485Y-20742571D02*
X36220485Y-19742571D01*
X36220485Y-19242571D02*
X36149057Y-19314000D01*
X36220485Y-19385428D01*
X36291914Y-19314000D01*
X36220485Y-19242571D01*
X36220485Y-19385428D01*
X36720485Y-19742571D02*
X37291914Y-19742571D01*
X36934771Y-19242571D02*
X36934771Y-20528285D01*
X37006199Y-20671142D01*
X37149057Y-20742571D01*
X37291914Y-20742571D01*
X38006199Y-20742571D02*
X37863342Y-20671142D01*
X37791914Y-20599714D01*
X37720485Y-20456857D01*
X37720485Y-20028285D01*
X37791914Y-19885428D01*
X37863342Y-19814000D01*
X38006199Y-19742571D01*
X38220485Y-19742571D01*
X38363342Y-19814000D01*
X38434771Y-19885428D01*
X38506199Y-20028285D01*
X38506199Y-20456857D01*
X38434771Y-20599714D01*
X38363342Y-20671142D01*
X38220485Y-20742571D01*
X38006199Y-20742571D01*
X39149057Y-20742571D02*
X39149057Y-19742571D01*
X39149057Y-20028285D02*
X39220485Y-19885428D01*
X39291914Y-19814000D01*
X39434771Y-19742571D01*
X39577628Y-19742571D01*
X40006199Y-20671142D02*
X40149057Y-20742571D01*
X40434771Y-20742571D01*
X40577628Y-20671142D01*
X40649057Y-20528285D01*
X40649057Y-20456857D01*
X40577628Y-20314000D01*
X40434771Y-20242571D01*
X40220485Y-20242571D01*
X40077628Y-20171142D01*
X40006199Y-20028285D01*
X40006199Y-19956857D01*
X40077628Y-19814000D01*
X40220485Y-19742571D01*
X40434771Y-19742571D01*
X40577628Y-19814000D01*
X41363342Y-20671142D02*
X41363342Y-20742571D01*
X41291914Y-20885428D01*
X41220485Y-20956857D01*
X42506199Y-19956857D02*
X42006199Y-19956857D01*
X42006199Y-20742571D02*
X42006199Y-19242571D01*
X42720485Y-19242571D01*
X44077628Y-20742571D02*
X43220485Y-20742571D01*
X43649057Y-20742571D02*
X43649057Y-19242571D01*
X43506199Y-19456857D01*
X43363342Y-19599714D01*
X43220485Y-19671142D01*
X45863342Y-19742571D02*
X45863342Y-20742571D01*
X45863342Y-19885428D02*
X45934771Y-19814000D01*
X46077628Y-19742571D01*
X46291914Y-19742571D01*
X46434771Y-19814000D01*
X46506199Y-19956857D01*
X46506199Y-20742571D01*
X47791914Y-20671142D02*
X47649057Y-20742571D01*
X47363342Y-20742571D01*
X47220485Y-20671142D01*
X47149057Y-20528285D01*
X47149057Y-19956857D01*
X47220485Y-19814000D01*
X47363342Y-19742571D01*
X47649057Y-19742571D01*
X47791914Y-19814000D01*
X47863342Y-19956857D01*
X47863342Y-20099714D01*
X47149057Y-20242571D01*
X49077628Y-20671142D02*
X48934771Y-20742571D01*
X48649057Y-20742571D01*
X48506199Y-20671142D01*
X48434771Y-20528285D01*
X48434771Y-19956857D01*
X48506199Y-19814000D01*
X48649057Y-19742571D01*
X48934771Y-19742571D01*
X49077628Y-19814000D01*
X49149057Y-19956857D01*
X49149057Y-20099714D01*
X48434771Y-20242571D01*
X50434771Y-20742571D02*
X50434771Y-19242571D01*
X50434771Y-20671142D02*
X50291914Y-20742571D01*
X50006199Y-20742571D01*
X49863342Y-20671142D01*
X49791914Y-20599714D01*
X49720485Y-20456857D01*
X49720485Y-20028285D01*
X49791914Y-19885428D01*
X49863342Y-19814000D01*
X50006199Y-19742571D01*
X50291914Y-19742571D01*
X50434771Y-19814000D01*
X51077628Y-20671142D02*
X51220485Y-20742571D01*
X51506199Y-20742571D01*
X51649057Y-20671142D01*
X51720485Y-20528285D01*
X51720485Y-20456857D01*
X51649057Y-20314000D01*
X51506199Y-20242571D01*
X51291914Y-20242571D01*
X51149057Y-20171142D01*
X51077628Y-20028285D01*
X51077628Y-19956857D01*
X51149057Y-19814000D01*
X51291914Y-19742571D01*
X51506199Y-19742571D01*
X51649057Y-19814000D01*
X53291914Y-19742571D02*
X53863342Y-19742571D01*
X53506199Y-19242571D02*
X53506199Y-20528285D01*
X53577628Y-20671142D01*
X53720485Y-20742571D01*
X53863342Y-20742571D01*
X54577628Y-20742571D02*
X54434771Y-20671142D01*
X54363342Y-20599714D01*
X54291914Y-20456857D01*
X54291914Y-20028285D01*
X54363342Y-19885428D01*
X54434771Y-19814000D01*
X54577628Y-19742571D01*
X54791914Y-19742571D01*
X54934771Y-19814000D01*
X55006199Y-19885428D01*
X55077628Y-20028285D01*
X55077628Y-20456857D01*
X55006199Y-20599714D01*
X54934771Y-20671142D01*
X54791914Y-20742571D01*
X54577628Y-20742571D01*
X56863342Y-20742571D02*
X56863342Y-19242571D01*
X56863342Y-19814000D02*
X57006199Y-19742571D01*
X57291914Y-19742571D01*
X57434771Y-19814000D01*
X57506199Y-19885428D01*
X57577628Y-20028285D01*
X57577628Y-20456857D01*
X57506199Y-20599714D01*
X57434771Y-20671142D01*
X57291914Y-20742571D01*
X57006199Y-20742571D01*
X56863342Y-20671142D01*
X58791914Y-20671142D02*
X58649057Y-20742571D01*
X58363342Y-20742571D01*
X58220485Y-20671142D01*
X58149057Y-20528285D01*
X58149057Y-19956857D01*
X58220485Y-19814000D01*
X58363342Y-19742571D01*
X58649057Y-19742571D01*
X58791914Y-19814000D01*
X58863342Y-19956857D01*
X58863342Y-20099714D01*
X58149057Y-20242571D01*
X60434771Y-19742571D02*
X61006199Y-19742571D01*
X60649057Y-20742571D02*
X60649057Y-19456857D01*
X60720485Y-19314000D01*
X60863342Y-19242571D01*
X61006199Y-19242571D01*
X61506199Y-20742571D02*
X61506199Y-19742571D01*
X61506199Y-19242571D02*
X61434771Y-19314000D01*
X61506199Y-19385428D01*
X61577628Y-19314000D01*
X61506199Y-19242571D01*
X61506199Y-19385428D01*
X62077628Y-20742571D02*
X62863342Y-19742571D01*
X62077628Y-19742571D02*
X62863342Y-20742571D01*
X64006199Y-20671142D02*
X63863342Y-20742571D01*
X63577628Y-20742571D01*
X63434771Y-20671142D01*
X63363342Y-20528285D01*
X63363342Y-19956857D01*
X63434771Y-19814000D01*
X63577628Y-19742571D01*
X63863342Y-19742571D01*
X64006199Y-19814000D01*
X64077628Y-19956857D01*
X64077628Y-20099714D01*
X63363342Y-20242571D01*
X65363342Y-20742571D02*
X65363342Y-19242571D01*
X65363342Y-20671142D02*
X65220485Y-20742571D01*
X64934771Y-20742571D01*
X64791914Y-20671142D01*
X64720485Y-20599714D01*
X64649057Y-20456857D01*
X64649057Y-20028285D01*
X64720485Y-19885428D01*
X64791914Y-19814000D01*
X64934771Y-19742571D01*
X65220485Y-19742571D01*
X65363342Y-19814000D01*
X24220485Y-23157571D02*
X23506199Y-23157571D01*
X23506199Y-21657571D01*
X25363342Y-23157571D02*
X25363342Y-22371857D01*
X25291914Y-22229000D01*
X25149057Y-22157571D01*
X24863342Y-22157571D01*
X24720485Y-22229000D01*
X25363342Y-23086142D02*
X25220485Y-23157571D01*
X24863342Y-23157571D01*
X24720485Y-23086142D01*
X24649057Y-22943285D01*
X24649057Y-22800428D01*
X24720485Y-22657571D01*
X24863342Y-22586142D01*
X25220485Y-22586142D01*
X25363342Y-22514714D01*
X26077628Y-23157571D02*
X26077628Y-21657571D01*
X26077628Y-22229000D02*
X26220485Y-22157571D01*
X26506199Y-22157571D01*
X26649057Y-22229000D01*
X26720485Y-22300428D01*
X26791914Y-22443285D01*
X26791914Y-22871857D01*
X26720485Y-23014714D01*
X26649057Y-23086142D01*
X26506199Y-23157571D01*
X26220485Y-23157571D01*
X26077628Y-23086142D01*
X28006199Y-23086142D02*
X27863342Y-23157571D01*
X27577628Y-23157571D01*
X27434771Y-23086142D01*
X27363342Y-22943285D01*
X27363342Y-22371857D01*
X27434771Y-22229000D01*
X27577628Y-22157571D01*
X27863342Y-22157571D01*
X28006199Y-22229000D01*
X28077628Y-22371857D01*
X28077628Y-22514714D01*
X27363342Y-22657571D01*
X28934771Y-23157571D02*
X28791914Y-23086142D01*
X28720485Y-22943285D01*
X28720485Y-21657571D01*
X29506199Y-23157571D02*
X29506199Y-22157571D01*
X29506199Y-21657571D02*
X29434771Y-21729000D01*
X29506199Y-21800428D01*
X29577628Y-21729000D01*
X29506199Y-21657571D01*
X29506199Y-21800428D01*
X30220485Y-22157571D02*
X30220485Y-23157571D01*
X30220485Y-22300428D02*
X30291914Y-22229000D01*
X30434771Y-22157571D01*
X30649057Y-22157571D01*
X30791914Y-22229000D01*
X30863342Y-22371857D01*
X30863342Y-23157571D01*
X32220485Y-22157571D02*
X32220485Y-23371857D01*
X32149057Y-23514714D01*
X32077628Y-23586142D01*
X31934771Y-23657571D01*
X31720485Y-23657571D01*
X31577628Y-23586142D01*
X32220485Y-23086142D02*
X32077628Y-23157571D01*
X31791914Y-23157571D01*
X31649057Y-23086142D01*
X31577628Y-23014714D01*
X31506199Y-22871857D01*
X31506199Y-22443285D01*
X31577628Y-22300428D01*
X31649057Y-22229000D01*
X31791914Y-22157571D01*
X32077628Y-22157571D01*
X32220485Y-22229000D01*
X33863342Y-22157571D02*
X34434771Y-22157571D01*
X34077628Y-21657571D02*
X34077628Y-22943285D01*
X34149057Y-23086142D01*
X34291914Y-23157571D01*
X34434771Y-23157571D01*
X35506199Y-23086142D02*
X35363342Y-23157571D01*
X35077628Y-23157571D01*
X34934771Y-23086142D01*
X34863342Y-22943285D01*
X34863342Y-22371857D01*
X34934771Y-22229000D01*
X35077628Y-22157571D01*
X35363342Y-22157571D01*
X35506199Y-22229000D01*
X35577628Y-22371857D01*
X35577628Y-22514714D01*
X34863342Y-22657571D01*
X36149057Y-23086142D02*
X36291914Y-23157571D01*
X36577628Y-23157571D01*
X36720485Y-23086142D01*
X36791914Y-22943285D01*
X36791914Y-22871857D01*
X36720485Y-22729000D01*
X36577628Y-22657571D01*
X36363342Y-22657571D01*
X36220485Y-22586142D01*
X36149057Y-22443285D01*
X36149057Y-22371857D01*
X36220485Y-22229000D01*
X36363342Y-22157571D01*
X36577628Y-22157571D01*
X36720485Y-22229000D01*
X37220485Y-22157571D02*
X37791914Y-22157571D01*
X37434771Y-21657571D02*
X37434771Y-22943285D01*
X37506199Y-23086142D01*
X37649057Y-23157571D01*
X37791914Y-23157571D01*
X39434771Y-22157571D02*
X39434771Y-23657571D01*
X39434771Y-22229000D02*
X39577628Y-22157571D01*
X39863342Y-22157571D01*
X40006199Y-22229000D01*
X40077628Y-22300428D01*
X40149057Y-22443285D01*
X40149057Y-22871857D01*
X40077628Y-23014714D01*
X40006199Y-23086142D01*
X39863342Y-23157571D01*
X39577628Y-23157571D01*
X39434771Y-23086142D01*
X41006199Y-23157571D02*
X40863342Y-23086142D01*
X40791914Y-23014714D01*
X40720485Y-22871857D01*
X40720485Y-22443285D01*
X40791914Y-22300428D01*
X40863342Y-22229000D01*
X41006199Y-22157571D01*
X41220485Y-22157571D01*
X41363342Y-22229000D01*
X41434771Y-22300428D01*
X41506199Y-22443285D01*
X41506199Y-22871857D01*
X41434771Y-23014714D01*
X41363342Y-23086142D01*
X41220485Y-23157571D01*
X41006199Y-23157571D01*
X42149057Y-23157571D02*
X42149057Y-22157571D01*
X42149057Y-21657571D02*
X42077628Y-21729000D01*
X42149057Y-21800428D01*
X42220485Y-21729000D01*
X42149057Y-21657571D01*
X42149057Y-21800428D01*
X42863342Y-22157571D02*
X42863342Y-23157571D01*
X42863342Y-22300428D02*
X42934771Y-22229000D01*
X43077628Y-22157571D01*
X43291914Y-22157571D01*
X43434771Y-22229000D01*
X43506199Y-22371857D01*
X43506199Y-23157571D01*
X44006199Y-22157571D02*
X44577628Y-22157571D01*
X44220485Y-21657571D02*
X44220485Y-22943285D01*
X44291914Y-23086142D01*
X44434771Y-23157571D01*
X44577628Y-23157571D01*
X45006200Y-23086142D02*
X45149057Y-23157571D01*
X45434771Y-23157571D01*
X45577628Y-23086142D01*
X45649057Y-22943285D01*
X45649057Y-22871857D01*
X45577628Y-22729000D01*
X45434771Y-22657571D01*
X45220485Y-22657571D01*
X45077628Y-22586142D01*
X45006200Y-22443285D01*
X45006200Y-22371857D01*
X45077628Y-22229000D01*
X45220485Y-22157571D01*
X45434771Y-22157571D01*
X45577628Y-22229000D01*
X46363342Y-23086142D02*
X46363342Y-23157571D01*
X46291914Y-23300428D01*
X46220485Y-23371857D01*
X48077628Y-23086142D02*
X48291914Y-23157571D01*
X48649057Y-23157571D01*
X48791914Y-23086142D01*
X48863342Y-23014714D01*
X48934771Y-22871857D01*
X48934771Y-22729000D01*
X48863342Y-22586142D01*
X48791914Y-22514714D01*
X48649057Y-22443285D01*
X48363342Y-22371857D01*
X48220485Y-22300428D01*
X48149057Y-22229000D01*
X48077628Y-22086142D01*
X48077628Y-21943285D01*
X48149057Y-21800428D01*
X48220485Y-21729000D01*
X48363342Y-21657571D01*
X48720485Y-21657571D01*
X48934771Y-21729000D01*
X49434771Y-21657571D02*
X49791914Y-23157571D01*
X50077628Y-22086142D01*
X50363342Y-23157571D01*
X50720485Y-21657571D01*
X53077628Y-23157571D02*
X53077628Y-21657571D01*
X53077628Y-23086142D02*
X52934771Y-23157571D01*
X52649057Y-23157571D01*
X52506199Y-23086142D01*
X52434771Y-23014714D01*
X52363342Y-22871857D01*
X52363342Y-22443285D01*
X52434771Y-22300428D01*
X52506199Y-22229000D01*
X52649057Y-22157571D01*
X52934771Y-22157571D01*
X53077628Y-22229000D01*
X54363342Y-23086142D02*
X54220485Y-23157571D01*
X53934771Y-23157571D01*
X53791914Y-23086142D01*
X53720485Y-22943285D01*
X53720485Y-22371857D01*
X53791914Y-22229000D01*
X53934771Y-22157571D01*
X54220485Y-22157571D01*
X54363342Y-22229000D01*
X54434771Y-22371857D01*
X54434771Y-22514714D01*
X53720485Y-22657571D01*
X55077628Y-23157571D02*
X55077628Y-21657571D01*
X55077628Y-22229000D02*
X55220485Y-22157571D01*
X55506199Y-22157571D01*
X55649057Y-22229000D01*
X55720485Y-22300428D01*
X55791914Y-22443285D01*
X55791914Y-22871857D01*
X55720485Y-23014714D01*
X55649057Y-23086142D01*
X55506199Y-23157571D01*
X55220485Y-23157571D01*
X55077628Y-23086142D01*
X57077628Y-22157571D02*
X57077628Y-23157571D01*
X56434771Y-22157571D02*
X56434771Y-22943285D01*
X56506199Y-23086142D01*
X56649057Y-23157571D01*
X56863342Y-23157571D01*
X57006199Y-23086142D01*
X57077628Y-23014714D01*
X58434771Y-22157571D02*
X58434771Y-23371857D01*
X58363342Y-23514714D01*
X58291914Y-23586142D01*
X58149057Y-23657571D01*
X57934771Y-23657571D01*
X57791914Y-23586142D01*
X58434771Y-23086142D02*
X58291914Y-23157571D01*
X58006200Y-23157571D01*
X57863342Y-23086142D01*
X57791914Y-23014714D01*
X57720485Y-22871857D01*
X57720485Y-22443285D01*
X57791914Y-22300428D01*
X57863342Y-22229000D01*
X58006200Y-22157571D01*
X58291914Y-22157571D01*
X58434771Y-22229000D01*
X60863342Y-23086142D02*
X60720485Y-23157571D01*
X60434771Y-23157571D01*
X60291914Y-23086142D01*
X60220485Y-22943285D01*
X60220485Y-22371857D01*
X60291914Y-22229000D01*
X60434771Y-22157571D01*
X60720485Y-22157571D01*
X60863342Y-22229000D01*
X60934771Y-22371857D01*
X60934771Y-22514714D01*
X60220485Y-22657571D01*
X61363342Y-22157571D02*
X61934771Y-22157571D01*
X61577628Y-21657571D02*
X61577628Y-22943285D01*
X61649057Y-23086142D01*
X61791914Y-23157571D01*
X61934771Y-23157571D01*
X63077628Y-23086142D02*
X62934771Y-23157571D01*
X62649057Y-23157571D01*
X62506199Y-23086142D01*
X62434771Y-23014714D01*
X62363342Y-22871857D01*
X62363342Y-22443285D01*
X62434771Y-22300428D01*
X62506199Y-22229000D01*
X62649057Y-22157571D01*
X62934771Y-22157571D01*
X63077628Y-22229000D01*
X16434771Y-24072571D02*
X16791914Y-25572571D01*
X17077628Y-24501142D01*
X17363342Y-25572571D01*
X17720485Y-24072571D01*
X18291914Y-25572571D02*
X18291914Y-24572571D01*
X18291914Y-24072571D02*
X18220485Y-24144000D01*
X18291914Y-24215428D01*
X18363342Y-24144000D01*
X18291914Y-24072571D01*
X18291914Y-24215428D01*
X19220485Y-25572571D02*
X19077628Y-25501142D01*
X19006200Y-25358285D01*
X19006200Y-24072571D01*
X20006199Y-25572571D02*
X19863342Y-25501142D01*
X19791914Y-25358285D01*
X19791914Y-24072571D01*
X21720485Y-25572571D02*
X21720485Y-24072571D01*
X22363342Y-25572571D02*
X22363342Y-24786857D01*
X22291914Y-24644000D01*
X22149057Y-24572571D01*
X21934771Y-24572571D01*
X21791914Y-24644000D01*
X21720485Y-24715428D01*
X23720485Y-25572571D02*
X23720485Y-24786857D01*
X23649057Y-24644000D01*
X23506199Y-24572571D01*
X23220485Y-24572571D01*
X23077628Y-24644000D01*
X23720485Y-25501142D02*
X23577628Y-25572571D01*
X23220485Y-25572571D01*
X23077628Y-25501142D01*
X23006199Y-25358285D01*
X23006199Y-25215428D01*
X23077628Y-25072571D01*
X23220485Y-25001142D01*
X23577628Y-25001142D01*
X23720485Y-24929714D01*
X24291914Y-24572571D02*
X24649057Y-25572571D01*
X25006200Y-24572571D01*
X26149057Y-25501142D02*
X26006200Y-25572571D01*
X25720485Y-25572571D01*
X25577628Y-25501142D01*
X25506200Y-25358285D01*
X25506200Y-24786857D01*
X25577628Y-24644000D01*
X25720485Y-24572571D01*
X26006200Y-24572571D01*
X26149057Y-24644000D01*
X26220485Y-24786857D01*
X26220485Y-24929714D01*
X25506200Y-25072571D01*
X27791914Y-24572571D02*
X28363342Y-24572571D01*
X28006200Y-24072571D02*
X28006200Y-25358285D01*
X28077628Y-25501142D01*
X28220485Y-25572571D01*
X28363342Y-25572571D01*
X29077628Y-25572571D02*
X28934771Y-25501142D01*
X28863342Y-25429714D01*
X28791914Y-25286857D01*
X28791914Y-24858285D01*
X28863342Y-24715428D01*
X28934771Y-24644000D01*
X29077628Y-24572571D01*
X29291914Y-24572571D01*
X29434771Y-24644000D01*
X29506200Y-24715428D01*
X29577628Y-24858285D01*
X29577628Y-25286857D01*
X29506200Y-25429714D01*
X29434771Y-25501142D01*
X29291914Y-25572571D01*
X29077628Y-25572571D01*
X31363342Y-25572571D02*
X31363342Y-24072571D01*
X31363342Y-24644000D02*
X31506199Y-24572571D01*
X31791914Y-24572571D01*
X31934771Y-24644000D01*
X32006199Y-24715428D01*
X32077628Y-24858285D01*
X32077628Y-25286857D01*
X32006199Y-25429714D01*
X31934771Y-25501142D01*
X31791914Y-25572571D01*
X31506199Y-25572571D01*
X31363342Y-25501142D01*
X33291914Y-25501142D02*
X33149057Y-25572571D01*
X32863342Y-25572571D01*
X32720485Y-25501142D01*
X32649057Y-25358285D01*
X32649057Y-24786857D01*
X32720485Y-24644000D01*
X32863342Y-24572571D01*
X33149057Y-24572571D01*
X33291914Y-24644000D01*
X33363342Y-24786857D01*
X33363342Y-24929714D01*
X32649057Y-25072571D01*
X35149057Y-25572571D02*
X35149057Y-24572571D01*
X35149057Y-24858285D02*
X35220485Y-24715428D01*
X35291914Y-24644000D01*
X35434771Y-24572571D01*
X35577628Y-24572571D01*
X36649057Y-25501142D02*
X36506200Y-25572571D01*
X36220485Y-25572571D01*
X36077628Y-25501142D01*
X36006200Y-25358285D01*
X36006200Y-24786857D01*
X36077628Y-24644000D01*
X36220485Y-24572571D01*
X36506200Y-24572571D01*
X36649057Y-24644000D01*
X36720485Y-24786857D01*
X36720485Y-24929714D01*
X36006200Y-25072571D01*
X37577628Y-25572571D02*
X37434771Y-25501142D01*
X37363342Y-25358285D01*
X37363342Y-24072571D01*
X38791914Y-25572571D02*
X38791914Y-24786857D01*
X38720485Y-24644000D01*
X38577628Y-24572571D01*
X38291914Y-24572571D01*
X38149057Y-24644000D01*
X38791914Y-25501142D02*
X38649057Y-25572571D01*
X38291914Y-25572571D01*
X38149057Y-25501142D01*
X38077628Y-25358285D01*
X38077628Y-25215428D01*
X38149057Y-25072571D01*
X38291914Y-25001142D01*
X38649057Y-25001142D01*
X38791914Y-24929714D01*
X39506200Y-25572571D02*
X39506200Y-24572571D01*
X39506200Y-24072571D02*
X39434771Y-24144000D01*
X39506200Y-24215428D01*
X39577628Y-24144000D01*
X39506200Y-24072571D01*
X39506200Y-24215428D01*
X40863342Y-25572571D02*
X40863342Y-24072571D01*
X40863342Y-25501142D02*
X40720485Y-25572571D01*
X40434771Y-25572571D01*
X40291914Y-25501142D01*
X40220485Y-25429714D01*
X40149057Y-25286857D01*
X40149057Y-24858285D01*
X40220485Y-24715428D01*
X40291914Y-24644000D01*
X40434771Y-24572571D01*
X40720485Y-24572571D01*
X40863342Y-24644000D01*
X42506200Y-24572571D02*
X43077628Y-24572571D01*
X42720485Y-25572571D02*
X42720485Y-24286857D01*
X42791914Y-24144000D01*
X42934771Y-24072571D01*
X43077628Y-24072571D01*
X43791914Y-25572571D02*
X43649057Y-25501142D01*
X43577628Y-25429714D01*
X43506200Y-25286857D01*
X43506200Y-24858285D01*
X43577628Y-24715428D01*
X43649057Y-24644000D01*
X43791914Y-24572571D01*
X44006200Y-24572571D01*
X44149057Y-24644000D01*
X44220485Y-24715428D01*
X44291914Y-24858285D01*
X44291914Y-25286857D01*
X44220485Y-25429714D01*
X44149057Y-25501142D01*
X44006200Y-25572571D01*
X43791914Y-25572571D01*
X44934771Y-25572571D02*
X44934771Y-24572571D01*
X44934771Y-24858285D02*
X45006200Y-24715428D01*
X45077628Y-24644000D01*
X45220485Y-24572571D01*
X45363342Y-24572571D01*
X47006200Y-25572571D02*
X47006200Y-24572571D01*
X47006200Y-24715428D02*
X47077628Y-24644000D01*
X47220485Y-24572571D01*
X47434771Y-24572571D01*
X47577628Y-24644000D01*
X47649057Y-24786857D01*
X47649057Y-25572571D01*
X47649057Y-24786857D02*
X47720485Y-24644000D01*
X47863342Y-24572571D01*
X48077628Y-24572571D01*
X48220485Y-24644000D01*
X48291914Y-24786857D01*
X48291914Y-25572571D01*
X49220485Y-25572571D02*
X49077628Y-25501142D01*
X49006200Y-25429714D01*
X48934771Y-25286857D01*
X48934771Y-24858285D01*
X49006200Y-24715428D01*
X49077628Y-24644000D01*
X49220485Y-24572571D01*
X49434771Y-24572571D01*
X49577628Y-24644000D01*
X49649057Y-24715428D01*
X49720485Y-24858285D01*
X49720485Y-25286857D01*
X49649057Y-25429714D01*
X49577628Y-25501142D01*
X49434771Y-25572571D01*
X49220485Y-25572571D01*
X50363342Y-25572571D02*
X50363342Y-24572571D01*
X50363342Y-24858285D02*
X50434771Y-24715428D01*
X50506200Y-24644000D01*
X50649057Y-24572571D01*
X50791914Y-24572571D01*
X51863342Y-25501142D02*
X51720485Y-25572571D01*
X51434771Y-25572571D01*
X51291914Y-25501142D01*
X51220485Y-25358285D01*
X51220485Y-24786857D01*
X51291914Y-24644000D01*
X51434771Y-24572571D01*
X51720485Y-24572571D01*
X51863342Y-24644000D01*
X51934771Y-24786857D01*
X51934771Y-24929714D01*
X51220485Y-25072571D01*
X54363342Y-25501142D02*
X54220485Y-25572571D01*
X53934771Y-25572571D01*
X53791914Y-25501142D01*
X53720485Y-25429714D01*
X53649057Y-25286857D01*
X53649057Y-24858285D01*
X53720485Y-24715428D01*
X53791914Y-24644000D01*
X53934771Y-24572571D01*
X54220485Y-24572571D01*
X54363342Y-24644000D01*
X55649057Y-24572571D02*
X55649057Y-25572571D01*
X55006199Y-24572571D02*
X55006199Y-25358285D01*
X55077628Y-25501142D01*
X55220485Y-25572571D01*
X55434771Y-25572571D01*
X55577628Y-25501142D01*
X55649057Y-25429714D01*
X56291914Y-25501142D02*
X56434771Y-25572571D01*
X56720485Y-25572571D01*
X56863342Y-25501142D01*
X56934771Y-25358285D01*
X56934771Y-25286857D01*
X56863342Y-25144000D01*
X56720485Y-25072571D01*
X56506199Y-25072571D01*
X56363342Y-25001142D01*
X56291914Y-24858285D01*
X56291914Y-24786857D01*
X56363342Y-24644000D01*
X56506199Y-24572571D01*
X56720485Y-24572571D01*
X56863342Y-24644000D01*
X57363342Y-24572571D02*
X57934771Y-24572571D01*
X57577628Y-24072571D02*
X57577628Y-25358285D01*
X57649057Y-25501142D01*
X57791914Y-25572571D01*
X57934771Y-25572571D01*
X58649057Y-25572571D02*
X58506199Y-25501142D01*
X58434771Y-25429714D01*
X58363342Y-25286857D01*
X58363342Y-24858285D01*
X58434771Y-24715428D01*
X58506199Y-24644000D01*
X58649057Y-24572571D01*
X58863342Y-24572571D01*
X59006199Y-24644000D01*
X59077628Y-24715428D01*
X59149057Y-24858285D01*
X59149057Y-25286857D01*
X59077628Y-25429714D01*
X59006199Y-25501142D01*
X58863342Y-25572571D01*
X58649057Y-25572571D01*
X59791914Y-25572571D02*
X59791914Y-24572571D01*
X59791914Y-24715428D02*
X59863342Y-24644000D01*
X60006200Y-24572571D01*
X60220485Y-24572571D01*
X60363342Y-24644000D01*
X60434771Y-24786857D01*
X60434771Y-25572571D01*
X60434771Y-24786857D02*
X60506200Y-24644000D01*
X60649057Y-24572571D01*
X60863342Y-24572571D01*
X61006200Y-24644000D01*
X61077628Y-24786857D01*
X61077628Y-25572571D01*
X61791914Y-25572571D02*
X61791914Y-24572571D01*
X61791914Y-24072571D02*
X61720485Y-24144000D01*
X61791914Y-24215428D01*
X61863342Y-24144000D01*
X61791914Y-24072571D01*
X61791914Y-24215428D01*
X62434771Y-25501142D02*
X62577628Y-25572571D01*
X62863342Y-25572571D01*
X63006200Y-25501142D01*
X63077628Y-25358285D01*
X63077628Y-25286857D01*
X63006200Y-25144000D01*
X62863342Y-25072571D01*
X62649057Y-25072571D01*
X62506200Y-25001142D01*
X62434771Y-24858285D01*
X62434771Y-24786857D01*
X62506200Y-24644000D01*
X62649057Y-24572571D01*
X62863342Y-24572571D01*
X63006200Y-24644000D01*
X64363342Y-25572571D02*
X64363342Y-24786857D01*
X64291914Y-24644000D01*
X64149057Y-24572571D01*
X63863342Y-24572571D01*
X63720485Y-24644000D01*
X64363342Y-25501142D02*
X64220485Y-25572571D01*
X63863342Y-25572571D01*
X63720485Y-25501142D01*
X63649057Y-25358285D01*
X63649057Y-25215428D01*
X63720485Y-25072571D01*
X63863342Y-25001142D01*
X64220485Y-25001142D01*
X64363342Y-24929714D01*
X65077628Y-25572571D02*
X65077628Y-24072571D01*
X65077628Y-24644000D02*
X65220485Y-24572571D01*
X65506200Y-24572571D01*
X65649057Y-24644000D01*
X65720485Y-24715428D01*
X65791914Y-24858285D01*
X65791914Y-25286857D01*
X65720485Y-25429714D01*
X65649057Y-25501142D01*
X65506200Y-25572571D01*
X65220485Y-25572571D01*
X65077628Y-25501142D01*
X66434771Y-25572571D02*
X66434771Y-24572571D01*
X66434771Y-24072571D02*
X66363342Y-24144000D01*
X66434771Y-24215428D01*
X66506200Y-24144000D01*
X66434771Y-24072571D01*
X66434771Y-24215428D01*
X67363342Y-25572571D02*
X67220485Y-25501142D01*
X67149057Y-25358285D01*
X67149057Y-24072571D01*
X67934771Y-25572571D02*
X67934771Y-24572571D01*
X67934771Y-24072571D02*
X67863342Y-24144000D01*
X67934771Y-24215428D01*
X68006200Y-24144000D01*
X67934771Y-24072571D01*
X67934771Y-24215428D01*
X68434771Y-24572571D02*
X69006200Y-24572571D01*
X68649057Y-24072571D02*
X68649057Y-25358285D01*
X68720485Y-25501142D01*
X68863342Y-25572571D01*
X69006200Y-25572571D01*
X69363342Y-24572571D02*
X69720485Y-25572571D01*
X70077628Y-24572571D02*
X69720485Y-25572571D01*
X69577628Y-25929714D01*
X69506200Y-26001142D01*
X69363342Y-26072571D01*
D11*
X92779595Y-50723280D02*
X93351023Y-50723280D01*
X93065309Y-51723280D02*
X93065309Y-50723280D01*
X93684357Y-51723280D02*
X93684357Y-50723280D01*
X94065309Y-50723280D01*
X94160547Y-50770900D01*
X94208166Y-50818519D01*
X94255785Y-50913757D01*
X94255785Y-51056614D01*
X94208166Y-51151852D01*
X94160547Y-51199471D01*
X94065309Y-51247090D01*
X93684357Y-51247090D01*
X95112928Y-51056614D02*
X95112928Y-51723280D01*
X94874833Y-50675661D02*
X94636738Y-51389947D01*
X95255785Y-51389947D01*
X92576395Y-39318680D02*
X93147823Y-39318680D01*
X92862109Y-40318680D02*
X92862109Y-39318680D01*
X93481157Y-40318680D02*
X93481157Y-39318680D01*
X93862109Y-39318680D01*
X93957347Y-39366300D01*
X94004966Y-39413919D01*
X94052585Y-39509157D01*
X94052585Y-39652014D01*
X94004966Y-39747252D01*
X93957347Y-39794871D01*
X93862109Y-39842490D01*
X93481157Y-39842490D01*
X94385919Y-39318680D02*
X95004966Y-39318680D01*
X94671633Y-39699633D01*
X94814490Y-39699633D01*
X94909728Y-39747252D01*
X94957347Y-39794871D01*
X95004966Y-39890109D01*
X95004966Y-40128204D01*
X94957347Y-40223442D01*
X94909728Y-40271061D01*
X94814490Y-40318680D01*
X94528776Y-40318680D01*
X94433538Y-40271061D01*
X94385919Y-40223442D01*
X65975580Y-75285504D02*
X66785104Y-75285504D01*
X66880342Y-75237885D01*
X66927961Y-75190266D01*
X66975580Y-75095028D01*
X66975580Y-74904552D01*
X66927961Y-74809314D01*
X66880342Y-74761695D01*
X66785104Y-74714076D01*
X65975580Y-74714076D01*
X65975580Y-73761695D02*
X65975580Y-74237885D01*
X66451771Y-74285504D01*
X66404152Y-74237885D01*
X66356533Y-74142647D01*
X66356533Y-73904552D01*
X66404152Y-73809314D01*
X66451771Y-73761695D01*
X66547009Y-73714076D01*
X66785104Y-73714076D01*
X66880342Y-73761695D01*
X66927961Y-73809314D01*
X66975580Y-73904552D01*
X66975580Y-74142647D01*
X66927961Y-74237885D01*
X66880342Y-74285504D01*
X29853142Y-66092342D02*
X29805523Y-66139961D01*
X29662666Y-66187580D01*
X29567428Y-66187580D01*
X29424571Y-66139961D01*
X29329333Y-66044723D01*
X29281714Y-65949485D01*
X29234095Y-65759009D01*
X29234095Y-65616152D01*
X29281714Y-65425676D01*
X29329333Y-65330438D01*
X29424571Y-65235200D01*
X29567428Y-65187580D01*
X29662666Y-65187580D01*
X29805523Y-65235200D01*
X29853142Y-65282819D01*
X30234095Y-65282819D02*
X30281714Y-65235200D01*
X30376952Y-65187580D01*
X30615047Y-65187580D01*
X30710285Y-65235200D01*
X30757904Y-65282819D01*
X30805523Y-65378057D01*
X30805523Y-65473295D01*
X30757904Y-65616152D01*
X30186476Y-66187580D01*
X30805523Y-66187580D01*
X31710285Y-65187580D02*
X31234095Y-65187580D01*
X31186476Y-65663771D01*
X31234095Y-65616152D01*
X31329333Y-65568533D01*
X31567428Y-65568533D01*
X31662666Y-65616152D01*
X31710285Y-65663771D01*
X31757904Y-65759009D01*
X31757904Y-65997104D01*
X31710285Y-66092342D01*
X31662666Y-66139961D01*
X31567428Y-66187580D01*
X31329333Y-66187580D01*
X31234095Y-66139961D01*
X31186476Y-66092342D01*
X63965142Y-91547124D02*
X64012761Y-91594743D01*
X64060380Y-91737600D01*
X64060380Y-91832838D01*
X64012761Y-91975695D01*
X63917523Y-92070933D01*
X63822285Y-92118552D01*
X63631809Y-92166171D01*
X63488952Y-92166171D01*
X63298476Y-92118552D01*
X63203238Y-92070933D01*
X63108000Y-91975695D01*
X63060380Y-91832838D01*
X63060380Y-91737600D01*
X63108000Y-91594743D01*
X63155619Y-91547124D01*
X63155619Y-91166171D02*
X63108000Y-91118552D01*
X63060380Y-91023314D01*
X63060380Y-90785219D01*
X63108000Y-90689981D01*
X63155619Y-90642362D01*
X63250857Y-90594743D01*
X63346095Y-90594743D01*
X63488952Y-90642362D01*
X64060380Y-91213790D01*
X64060380Y-90594743D01*
X63155619Y-90213790D02*
X63108000Y-90166171D01*
X63060380Y-90070933D01*
X63060380Y-89832838D01*
X63108000Y-89737600D01*
X63155619Y-89689981D01*
X63250857Y-89642362D01*
X63346095Y-89642362D01*
X63488952Y-89689981D01*
X64060380Y-90261409D01*
X64060380Y-89642362D01*
X87990180Y-66719295D02*
X88799704Y-66719295D01*
X88894942Y-66671676D01*
X88942561Y-66624057D01*
X88990180Y-66528819D01*
X88990180Y-66338342D01*
X88942561Y-66243104D01*
X88894942Y-66195485D01*
X88799704Y-66147866D01*
X87990180Y-66147866D01*
X88990180Y-65147866D02*
X88990180Y-65719295D01*
X88990180Y-65433580D02*
X87990180Y-65433580D01*
X88133038Y-65528819D01*
X88228276Y-65624057D01*
X88275895Y-65719295D01*
X88990180Y-64195485D02*
X88990180Y-64766914D01*
X88990180Y-64481200D02*
X87990180Y-64481200D01*
X88133038Y-64576438D01*
X88228276Y-64671676D01*
X88275895Y-64766914D01*
X32228066Y-66276380D02*
X32228066Y-66990666D01*
X32180447Y-67133523D01*
X32085209Y-67228761D01*
X31942352Y-67276380D01*
X31847114Y-67276380D01*
X32704257Y-67276380D02*
X32704257Y-66276380D01*
X33085209Y-66276380D01*
X33180447Y-66324000D01*
X33228066Y-66371619D01*
X33275685Y-66466857D01*
X33275685Y-66609714D01*
X33228066Y-66704952D01*
X33180447Y-66752571D01*
X33085209Y-66800190D01*
X32704257Y-66800190D01*
X34228066Y-67276380D02*
X33656638Y-67276380D01*
X33942352Y-67276380D02*
X33942352Y-66276380D01*
X33847114Y-66419238D01*
X33751876Y-66514476D01*
X33656638Y-66562095D01*
X34531466Y-68362580D02*
X35150514Y-68362580D01*
X34817180Y-68743533D01*
X34960038Y-68743533D01*
X35055276Y-68791152D01*
X35102895Y-68838771D01*
X35150514Y-68934009D01*
X35150514Y-69172104D01*
X35102895Y-69267342D01*
X35055276Y-69314961D01*
X34960038Y-69362580D01*
X34674323Y-69362580D01*
X34579085Y-69314961D01*
X34531466Y-69267342D01*
X35947114Y-65476380D02*
X35375685Y-65476380D01*
X35661400Y-65476380D02*
X35661400Y-64476380D01*
X35566161Y-64619238D01*
X35470923Y-64714476D01*
X35375685Y-64762095D01*
X57345333Y-88162380D02*
X56869142Y-88162380D01*
X56869142Y-87162380D01*
X57631047Y-87257619D02*
X57678666Y-87210000D01*
X57773904Y-87162380D01*
X58012000Y-87162380D01*
X58107238Y-87210000D01*
X58154857Y-87257619D01*
X58202476Y-87352857D01*
X58202476Y-87448095D01*
X58154857Y-87590952D01*
X57583428Y-88162380D01*
X58202476Y-88162380D01*
X64398142Y-78951057D02*
X64445761Y-78998676D01*
X64493380Y-79141533D01*
X64493380Y-79236771D01*
X64445761Y-79379628D01*
X64350523Y-79474866D01*
X64255285Y-79522485D01*
X64064809Y-79570104D01*
X63921952Y-79570104D01*
X63731476Y-79522485D01*
X63636238Y-79474866D01*
X63541000Y-79379628D01*
X63493380Y-79236771D01*
X63493380Y-79141533D01*
X63541000Y-78998676D01*
X63588619Y-78951057D01*
X63588619Y-78570104D02*
X63541000Y-78522485D01*
X63493380Y-78427247D01*
X63493380Y-78189152D01*
X63541000Y-78093914D01*
X63588619Y-78046295D01*
X63683857Y-77998676D01*
X63779095Y-77998676D01*
X63921952Y-78046295D01*
X64493380Y-78617723D01*
X64493380Y-77998676D01*
X63921952Y-77427247D02*
X63874333Y-77522485D01*
X63826714Y-77570104D01*
X63731476Y-77617723D01*
X63683857Y-77617723D01*
X63588619Y-77570104D01*
X63541000Y-77522485D01*
X63493380Y-77427247D01*
X63493380Y-77236771D01*
X63541000Y-77141533D01*
X63588619Y-77093914D01*
X63683857Y-77046295D01*
X63731476Y-77046295D01*
X63826714Y-77093914D01*
X63874333Y-77141533D01*
X63921952Y-77236771D01*
X63921952Y-77427247D01*
X63969571Y-77522485D01*
X64017190Y-77570104D01*
X64112428Y-77617723D01*
X64302904Y-77617723D01*
X64398142Y-77570104D01*
X64445761Y-77522485D01*
X64493380Y-77427247D01*
X64493380Y-77236771D01*
X64445761Y-77141533D01*
X64398142Y-77093914D01*
X64302904Y-77046295D01*
X64112428Y-77046295D01*
X64017190Y-77093914D01*
X63969571Y-77141533D01*
X63921952Y-77236771D01*
X43196380Y-87329904D02*
X44005904Y-87329904D01*
X44101142Y-87282285D01*
X44148761Y-87234666D01*
X44196380Y-87139428D01*
X44196380Y-86948952D01*
X44148761Y-86853714D01*
X44101142Y-86806095D01*
X44005904Y-86758476D01*
X43196380Y-86758476D01*
X44196380Y-85758476D02*
X44196380Y-86329904D01*
X44196380Y-86044190D02*
X43196380Y-86044190D01*
X43339238Y-86139428D01*
X43434476Y-86234666D01*
X43482095Y-86329904D01*
X42899380Y-93946504D02*
X42899380Y-93375076D01*
X43899380Y-93660790D02*
X42899380Y-93660790D01*
X43899380Y-93041742D02*
X42899380Y-93041742D01*
X42899380Y-92660790D01*
X42947000Y-92565552D01*
X42994619Y-92517933D01*
X43089857Y-92470314D01*
X43232714Y-92470314D01*
X43327952Y-92517933D01*
X43375571Y-92565552D01*
X43423190Y-92660790D01*
X43423190Y-93041742D01*
X42899380Y-92136980D02*
X42899380Y-91470314D01*
X43899380Y-91898885D01*
X45699350Y-91800113D02*
X45746969Y-91847732D01*
X45794588Y-91990589D01*
X45794588Y-92085827D01*
X45746969Y-92228684D01*
X45651731Y-92323922D01*
X45556493Y-92371541D01*
X45366017Y-92419160D01*
X45223160Y-92419160D01*
X45032684Y-92371541D01*
X44937446Y-92323922D01*
X44842208Y-92228684D01*
X44794588Y-92085827D01*
X44794588Y-91990589D01*
X44842208Y-91847732D01*
X44889827Y-91800113D01*
X45794588Y-90847732D02*
X45794588Y-91419160D01*
X45794588Y-91133446D02*
X44794588Y-91133446D01*
X44937446Y-91228684D01*
X45032684Y-91323922D01*
X45080303Y-91419160D01*
X44889827Y-90466779D02*
X44842208Y-90419160D01*
X44794588Y-90323922D01*
X44794588Y-90085827D01*
X44842208Y-89990589D01*
X44889827Y-89942970D01*
X44985065Y-89895351D01*
X45080303Y-89895351D01*
X45223160Y-89942970D01*
X45794588Y-90514398D01*
X45794588Y-89895351D01*
X28510980Y-70975457D02*
X28034790Y-71308790D01*
X28510980Y-71546885D02*
X27510980Y-71546885D01*
X27510980Y-71165933D01*
X27558600Y-71070695D01*
X27606219Y-71023076D01*
X27701457Y-70975457D01*
X27844314Y-70975457D01*
X27939552Y-71023076D01*
X27987171Y-71070695D01*
X28034790Y-71165933D01*
X28034790Y-71546885D01*
X28510980Y-70023076D02*
X28510980Y-70594504D01*
X28510980Y-70308790D02*
X27510980Y-70308790D01*
X27653838Y-70404028D01*
X27749076Y-70499266D01*
X27796695Y-70594504D01*
X27510980Y-69689742D02*
X27510980Y-69023076D01*
X28510980Y-69451647D01*
X31656542Y-73273180D02*
X31323209Y-72796990D01*
X31085114Y-73273180D02*
X31085114Y-72273180D01*
X31466066Y-72273180D01*
X31561304Y-72320800D01*
X31608923Y-72368419D01*
X31656542Y-72463657D01*
X31656542Y-72606514D01*
X31608923Y-72701752D01*
X31561304Y-72749371D01*
X31466066Y-72796990D01*
X31085114Y-72796990D01*
X32608923Y-73273180D02*
X32037495Y-73273180D01*
X32323209Y-73273180D02*
X32323209Y-72273180D01*
X32227971Y-72416038D01*
X32132733Y-72511276D01*
X32037495Y-72558895D01*
X33561304Y-73273180D02*
X32989876Y-73273180D01*
X33275590Y-73273180D02*
X33275590Y-72273180D01*
X33180352Y-72416038D01*
X33085114Y-72511276D01*
X32989876Y-72558895D01*
X65857941Y-94292892D02*
X65524608Y-93816702D01*
X65286512Y-94292892D02*
X65286512Y-93292892D01*
X65667465Y-93292892D01*
X65762703Y-93340512D01*
X65810322Y-93388131D01*
X65857941Y-93483369D01*
X65857941Y-93626226D01*
X65810322Y-93721464D01*
X65762703Y-93769083D01*
X65667465Y-93816702D01*
X65286512Y-93816702D01*
X66238893Y-93388131D02*
X66286512Y-93340512D01*
X66381750Y-93292892D01*
X66619846Y-93292892D01*
X66715084Y-93340512D01*
X66762703Y-93388131D01*
X66810322Y-93483369D01*
X66810322Y-93578607D01*
X66762703Y-93721464D01*
X66191274Y-94292892D01*
X66810322Y-94292892D01*
X35710780Y-83154733D02*
X36425066Y-83154733D01*
X36567923Y-83202352D01*
X36663161Y-83297590D01*
X36710780Y-83440447D01*
X36710780Y-83535685D01*
X36710780Y-82678542D02*
X35710780Y-82678542D01*
X35710780Y-82297590D01*
X35758400Y-82202352D01*
X35806019Y-82154733D01*
X35901257Y-82107114D01*
X36044114Y-82107114D01*
X36139352Y-82154733D01*
X36186971Y-82202352D01*
X36234590Y-82297590D01*
X36234590Y-82678542D01*
X35806019Y-81726161D02*
X35758400Y-81678542D01*
X35710780Y-81583304D01*
X35710780Y-81345209D01*
X35758400Y-81249971D01*
X35806019Y-81202352D01*
X35901257Y-81154733D01*
X35996495Y-81154733D01*
X36139352Y-81202352D01*
X36710780Y-81773780D01*
X36710780Y-81154733D01*
X34545780Y-85550333D02*
X34545780Y-84931285D01*
X34926733Y-85264619D01*
X34926733Y-85121761D01*
X34974352Y-85026523D01*
X35021971Y-84978904D01*
X35117209Y-84931285D01*
X35355304Y-84931285D01*
X35450542Y-84978904D01*
X35498161Y-85026523D01*
X35545780Y-85121761D01*
X35545780Y-85407476D01*
X35498161Y-85502714D01*
X35450542Y-85550333D01*
X34910780Y-79435685D02*
X34910780Y-80007114D01*
X34910780Y-79721400D02*
X33910780Y-79721400D01*
X34053638Y-79816638D01*
X34148876Y-79911876D01*
X34196495Y-80007114D01*
X58205741Y-96594398D02*
X58158122Y-96642017D01*
X58015265Y-96689636D01*
X57920027Y-96689636D01*
X57777169Y-96642017D01*
X57681931Y-96546779D01*
X57634312Y-96451541D01*
X57586693Y-96261065D01*
X57586693Y-96118208D01*
X57634312Y-95927732D01*
X57681931Y-95832494D01*
X57777169Y-95737256D01*
X57920027Y-95689636D01*
X58015265Y-95689636D01*
X58158122Y-95737256D01*
X58205741Y-95784875D01*
X58539074Y-95689636D02*
X59158122Y-95689636D01*
X58824788Y-96070589D01*
X58967646Y-96070589D01*
X59062884Y-96118208D01*
X59110503Y-96165827D01*
X59158122Y-96261065D01*
X59158122Y-96499160D01*
X59110503Y-96594398D01*
X59062884Y-96642017D01*
X58967646Y-96689636D01*
X58681931Y-96689636D01*
X58586693Y-96642017D01*
X58539074Y-96594398D01*
X28684742Y-83942180D02*
X28351409Y-83465990D01*
X28113314Y-83942180D02*
X28113314Y-82942180D01*
X28494266Y-82942180D01*
X28589504Y-82989800D01*
X28637123Y-83037419D01*
X28684742Y-83132657D01*
X28684742Y-83275514D01*
X28637123Y-83370752D01*
X28589504Y-83418371D01*
X28494266Y-83465990D01*
X28113314Y-83465990D01*
X29637123Y-83942180D02*
X29065695Y-83942180D01*
X29351409Y-83942180D02*
X29351409Y-82942180D01*
X29256171Y-83085038D01*
X29160933Y-83180276D01*
X29065695Y-83227895D01*
X30018076Y-83037419D02*
X30065695Y-82989800D01*
X30160933Y-82942180D01*
X30399028Y-82942180D01*
X30494266Y-82989800D01*
X30541885Y-83037419D01*
X30589504Y-83132657D01*
X30589504Y-83227895D01*
X30541885Y-83370752D01*
X29970457Y-83942180D01*
X30589504Y-83942180D01*
X99650080Y-42944557D02*
X99173890Y-43277890D01*
X99650080Y-43515985D02*
X98650080Y-43515985D01*
X98650080Y-43135033D01*
X98697700Y-43039795D01*
X98745319Y-42992176D01*
X98840557Y-42944557D01*
X98983414Y-42944557D01*
X99078652Y-42992176D01*
X99126271Y-43039795D01*
X99173890Y-43135033D01*
X99173890Y-43515985D01*
X99650080Y-41992176D02*
X99650080Y-42563604D01*
X99650080Y-42277890D02*
X98650080Y-42277890D01*
X98792938Y-42373128D01*
X98888176Y-42468366D01*
X98935795Y-42563604D01*
X98650080Y-41373128D02*
X98650080Y-41277890D01*
X98697700Y-41182652D01*
X98745319Y-41135033D01*
X98840557Y-41087414D01*
X99031033Y-41039795D01*
X99269128Y-41039795D01*
X99459604Y-41087414D01*
X99554842Y-41135033D01*
X99602461Y-41182652D01*
X99650080Y-41277890D01*
X99650080Y-41373128D01*
X99602461Y-41468366D01*
X99554842Y-41515985D01*
X99459604Y-41563604D01*
X99269128Y-41611223D01*
X99031033Y-41611223D01*
X98840557Y-41563604D01*
X98745319Y-41515985D01*
X98697700Y-41468366D01*
X98650080Y-41373128D01*
X59413903Y-95130836D02*
X59413903Y-95940360D01*
X59461522Y-96035598D01*
X59509141Y-96083217D01*
X59604379Y-96130836D01*
X59794855Y-96130836D01*
X59890093Y-96083217D01*
X59937712Y-96035598D01*
X59985331Y-95940360D01*
X59985331Y-95130836D01*
X60413903Y-95226075D02*
X60461522Y-95178456D01*
X60556760Y-95130836D01*
X60794855Y-95130836D01*
X60890093Y-95178456D01*
X60937712Y-95226075D01*
X60985331Y-95321313D01*
X60985331Y-95416551D01*
X60937712Y-95559408D01*
X60366284Y-96130836D01*
X60985331Y-96130836D01*
X33119780Y-76479304D02*
X33929304Y-76479304D01*
X34024542Y-76431685D01*
X34072161Y-76384066D01*
X34119780Y-76288828D01*
X34119780Y-76098352D01*
X34072161Y-76003114D01*
X34024542Y-75955495D01*
X33929304Y-75907876D01*
X33119780Y-75907876D01*
X33453114Y-75003114D02*
X34119780Y-75003114D01*
X33072161Y-75241209D02*
X33786447Y-75479304D01*
X33786447Y-74860257D01*
X29294380Y-66285904D02*
X29294380Y-65714476D01*
X30294380Y-66000190D02*
X29294380Y-66000190D01*
X30294380Y-65381142D02*
X29294380Y-65381142D01*
X29294380Y-65000190D01*
X29342000Y-64904952D01*
X29389619Y-64857333D01*
X29484857Y-64809714D01*
X29627714Y-64809714D01*
X29722952Y-64857333D01*
X29770571Y-64904952D01*
X29818190Y-65000190D01*
X29818190Y-65381142D01*
X29294380Y-63904952D02*
X29294380Y-64381142D01*
X29770571Y-64428761D01*
X29722952Y-64381142D01*
X29675333Y-64285904D01*
X29675333Y-64047809D01*
X29722952Y-63952571D01*
X29770571Y-63904952D01*
X29865809Y-63857333D01*
X30103904Y-63857333D01*
X30199142Y-63904952D01*
X30246761Y-63952571D01*
X30294380Y-64047809D01*
X30294380Y-64285904D01*
X30246761Y-64381142D01*
X30199142Y-64428761D01*
X99551980Y-52050366D02*
X99075790Y-52383700D01*
X99551980Y-52621795D02*
X98551980Y-52621795D01*
X98551980Y-52240842D01*
X98599600Y-52145604D01*
X98647219Y-52097985D01*
X98742457Y-52050366D01*
X98885314Y-52050366D01*
X98980552Y-52097985D01*
X99028171Y-52145604D01*
X99075790Y-52240842D01*
X99075790Y-52621795D01*
X98551980Y-51717033D02*
X98551980Y-51050366D01*
X99551980Y-51478938D01*
X39317580Y-92197133D02*
X40031866Y-92197133D01*
X40174723Y-92244752D01*
X40269961Y-92339990D01*
X40317580Y-92482847D01*
X40317580Y-92578085D01*
X40317580Y-91720942D02*
X39317580Y-91720942D01*
X39317580Y-91339990D01*
X39365200Y-91244752D01*
X39412819Y-91197133D01*
X39508057Y-91149514D01*
X39650914Y-91149514D01*
X39746152Y-91197133D01*
X39793771Y-91244752D01*
X39841390Y-91339990D01*
X39841390Y-91720942D01*
X39317580Y-90816180D02*
X39317580Y-90197133D01*
X39698533Y-90530466D01*
X39698533Y-90387609D01*
X39746152Y-90292371D01*
X39793771Y-90244752D01*
X39889009Y-90197133D01*
X40127104Y-90197133D01*
X40222342Y-90244752D01*
X40269961Y-90292371D01*
X40317580Y-90387609D01*
X40317580Y-90673323D01*
X40269961Y-90768561D01*
X40222342Y-90816180D01*
X38517580Y-88478085D02*
X38517580Y-89049514D01*
X38517580Y-88763800D02*
X37517580Y-88763800D01*
X37660438Y-88859038D01*
X37755676Y-88954276D01*
X37803295Y-89049514D01*
X37517580Y-94297133D02*
X37517580Y-93678085D01*
X37898533Y-94011419D01*
X37898533Y-93868561D01*
X37946152Y-93773323D01*
X37993771Y-93725704D01*
X38089009Y-93678085D01*
X38327104Y-93678085D01*
X38422342Y-93725704D01*
X38469961Y-93773323D01*
X38517580Y-93868561D01*
X38517580Y-94154276D01*
X38469961Y-94249514D01*
X38422342Y-94297133D01*
X78841674Y-96468436D02*
X78841674Y-97182722D01*
X78794055Y-97325579D01*
X78698817Y-97420817D01*
X78555960Y-97468436D01*
X78460722Y-97468436D01*
X79270246Y-96563675D02*
X79317865Y-96516056D01*
X79413103Y-96468436D01*
X79651198Y-96468436D01*
X79746436Y-96516056D01*
X79794055Y-96563675D01*
X79841674Y-96658913D01*
X79841674Y-96754151D01*
X79794055Y-96897008D01*
X79222627Y-97468436D01*
X79841674Y-97468436D01*
X45474095Y-94603780D02*
X46045523Y-94603780D01*
X45759809Y-95603780D02*
X45759809Y-94603780D01*
X46378857Y-95603780D02*
X46378857Y-94603780D01*
X46759809Y-94603780D01*
X46855047Y-94651400D01*
X46902666Y-94699019D01*
X46950285Y-94794257D01*
X46950285Y-94937114D01*
X46902666Y-95032352D01*
X46855047Y-95079971D01*
X46759809Y-95127590D01*
X46378857Y-95127590D01*
X47902666Y-95603780D02*
X47331238Y-95603780D01*
X47616952Y-95603780D02*
X47616952Y-94603780D01*
X47521714Y-94746638D01*
X47426476Y-94841876D01*
X47331238Y-94889495D01*
X32992780Y-96037304D02*
X33802304Y-96037304D01*
X33897542Y-95989685D01*
X33945161Y-95942066D01*
X33992780Y-95846828D01*
X33992780Y-95656352D01*
X33945161Y-95561114D01*
X33897542Y-95513495D01*
X33802304Y-95465876D01*
X32992780Y-95465876D01*
X32992780Y-95084923D02*
X32992780Y-94418257D01*
X33992780Y-94846828D01*
X64968574Y-102874827D02*
X64635241Y-102874827D01*
X64635241Y-103398636D02*
X64635241Y-102398636D01*
X65111431Y-102398636D01*
X66016193Y-103398636D02*
X65444765Y-103398636D01*
X65730479Y-103398636D02*
X65730479Y-102398636D01*
X65635241Y-102541494D01*
X65540003Y-102636732D01*
X65444765Y-102684351D01*
X56438895Y-46055780D02*
X56438895Y-46865304D01*
X56486514Y-46960542D01*
X56534133Y-47008161D01*
X56629371Y-47055780D01*
X56819847Y-47055780D01*
X56915085Y-47008161D01*
X56962704Y-46960542D01*
X57010323Y-46865304D01*
X57010323Y-46055780D01*
X57391276Y-46055780D02*
X58010323Y-46055780D01*
X57676990Y-46436733D01*
X57819847Y-46436733D01*
X57915085Y-46484352D01*
X57962704Y-46531971D01*
X58010323Y-46627209D01*
X58010323Y-46865304D01*
X57962704Y-46960542D01*
X57915085Y-47008161D01*
X57819847Y-47055780D01*
X57534133Y-47055780D01*
X57438895Y-47008161D01*
X57391276Y-46960542D01*
X101279266Y-30031080D02*
X101279266Y-30745366D01*
X101231647Y-30888223D01*
X101136409Y-30983461D01*
X100993552Y-31031080D01*
X100898314Y-31031080D01*
X102184028Y-30031080D02*
X101993552Y-30031080D01*
X101898314Y-30078700D01*
X101850695Y-30126319D01*
X101755457Y-30269176D01*
X101707838Y-30459652D01*
X101707838Y-30840604D01*
X101755457Y-30935842D01*
X101803076Y-30983461D01*
X101898314Y-31031080D01*
X102088790Y-31031080D01*
X102184028Y-30983461D01*
X102231647Y-30935842D01*
X102279266Y-30840604D01*
X102279266Y-30602509D01*
X102231647Y-30507271D01*
X102184028Y-30459652D01*
X102088790Y-30412033D01*
X101898314Y-30412033D01*
X101803076Y-30459652D01*
X101755457Y-30507271D01*
X101707838Y-30602509D01*
X32361333Y-89580980D02*
X32028000Y-89104790D01*
X31789904Y-89580980D02*
X31789904Y-88580980D01*
X32170857Y-88580980D01*
X32266095Y-88628600D01*
X32313714Y-88676219D01*
X32361333Y-88771457D01*
X32361333Y-88914314D01*
X32313714Y-89009552D01*
X32266095Y-89057171D01*
X32170857Y-89104790D01*
X31789904Y-89104790D01*
X33266095Y-88580980D02*
X32789904Y-88580980D01*
X32742285Y-89057171D01*
X32789904Y-89009552D01*
X32885142Y-88961933D01*
X33123238Y-88961933D01*
X33218476Y-89009552D01*
X33266095Y-89057171D01*
X33313714Y-89152409D01*
X33313714Y-89390504D01*
X33266095Y-89485742D01*
X33218476Y-89533361D01*
X33123238Y-89580980D01*
X32885142Y-89580980D01*
X32789904Y-89533361D01*
X32742285Y-89485742D01*
X58894742Y-72086742D02*
X58847123Y-72134361D01*
X58704266Y-72181980D01*
X58609028Y-72181980D01*
X58466171Y-72134361D01*
X58370933Y-72039123D01*
X58323314Y-71943885D01*
X58275695Y-71753409D01*
X58275695Y-71610552D01*
X58323314Y-71420076D01*
X58370933Y-71324838D01*
X58466171Y-71229600D01*
X58609028Y-71181980D01*
X58704266Y-71181980D01*
X58847123Y-71229600D01*
X58894742Y-71277219D01*
X59275695Y-71277219D02*
X59323314Y-71229600D01*
X59418552Y-71181980D01*
X59656647Y-71181980D01*
X59751885Y-71229600D01*
X59799504Y-71277219D01*
X59847123Y-71372457D01*
X59847123Y-71467695D01*
X59799504Y-71610552D01*
X59228076Y-72181980D01*
X59847123Y-72181980D01*
X60180457Y-71181980D02*
X60847123Y-71181980D01*
X60418552Y-72181980D01*
X90217666Y-58310980D02*
X90217666Y-59025266D01*
X90170047Y-59168123D01*
X90074809Y-59263361D01*
X89931952Y-59310980D01*
X89836714Y-59310980D01*
X91217666Y-59310980D02*
X90646238Y-59310980D01*
X90931952Y-59310980D02*
X90931952Y-58310980D01*
X90836714Y-58453838D01*
X90741476Y-58549076D01*
X90646238Y-58596695D01*
X35265380Y-68391066D02*
X34789190Y-68724400D01*
X35265380Y-68962495D02*
X34265380Y-68962495D01*
X34265380Y-68581542D01*
X34313000Y-68486304D01*
X34360619Y-68438685D01*
X34455857Y-68391066D01*
X34598714Y-68391066D01*
X34693952Y-68438685D01*
X34741571Y-68486304D01*
X34789190Y-68581542D01*
X34789190Y-68962495D01*
X34693952Y-67819638D02*
X34646333Y-67914876D01*
X34598714Y-67962495D01*
X34503476Y-68010114D01*
X34455857Y-68010114D01*
X34360619Y-67962495D01*
X34313000Y-67914876D01*
X34265380Y-67819638D01*
X34265380Y-67629161D01*
X34313000Y-67533923D01*
X34360619Y-67486304D01*
X34455857Y-67438685D01*
X34503476Y-67438685D01*
X34598714Y-67486304D01*
X34646333Y-67533923D01*
X34693952Y-67629161D01*
X34693952Y-67819638D01*
X34741571Y-67914876D01*
X34789190Y-67962495D01*
X34884428Y-68010114D01*
X35074904Y-68010114D01*
X35170142Y-67962495D01*
X35217761Y-67914876D01*
X35265380Y-67819638D01*
X35265380Y-67629161D01*
X35217761Y-67533923D01*
X35170142Y-67486304D01*
X35074904Y-67438685D01*
X34884428Y-67438685D01*
X34789190Y-67486304D01*
X34741571Y-67533923D01*
X34693952Y-67629161D01*
X25077942Y-82620380D02*
X24744609Y-82144190D01*
X24506514Y-82620380D02*
X24506514Y-81620380D01*
X24887466Y-81620380D01*
X24982704Y-81668000D01*
X25030323Y-81715619D01*
X25077942Y-81810857D01*
X25077942Y-81953714D01*
X25030323Y-82048952D01*
X24982704Y-82096571D01*
X24887466Y-82144190D01*
X24506514Y-82144190D01*
X26030323Y-82620380D02*
X25458895Y-82620380D01*
X25744609Y-82620380D02*
X25744609Y-81620380D01*
X25649371Y-81763238D01*
X25554133Y-81858476D01*
X25458895Y-81906095D01*
X26601752Y-82048952D02*
X26506514Y-82001333D01*
X26458895Y-81953714D01*
X26411276Y-81858476D01*
X26411276Y-81810857D01*
X26458895Y-81715619D01*
X26506514Y-81668000D01*
X26601752Y-81620380D01*
X26792228Y-81620380D01*
X26887466Y-81668000D01*
X26935085Y-81715619D01*
X26982704Y-81810857D01*
X26982704Y-81858476D01*
X26935085Y-81953714D01*
X26887466Y-82001333D01*
X26792228Y-82048952D01*
X26601752Y-82048952D01*
X26506514Y-82096571D01*
X26458895Y-82144190D01*
X26411276Y-82239428D01*
X26411276Y-82429904D01*
X26458895Y-82525142D01*
X26506514Y-82572761D01*
X26601752Y-82620380D01*
X26792228Y-82620380D01*
X26887466Y-82572761D01*
X26935085Y-82525142D01*
X26982704Y-82429904D01*
X26982704Y-82239428D01*
X26935085Y-82144190D01*
X26887466Y-82096571D01*
X26792228Y-82048952D01*
X51668350Y-93051122D02*
X51715969Y-93098741D01*
X51763588Y-93241598D01*
X51763588Y-93336836D01*
X51715969Y-93479694D01*
X51620731Y-93574932D01*
X51525493Y-93622551D01*
X51335017Y-93670170D01*
X51192160Y-93670170D01*
X51001684Y-93622551D01*
X50906446Y-93574932D01*
X50811208Y-93479694D01*
X50763588Y-93336836D01*
X50763588Y-93241598D01*
X50811208Y-93098741D01*
X50858827Y-93051122D01*
X50858827Y-92670170D02*
X50811208Y-92622551D01*
X50763588Y-92527313D01*
X50763588Y-92289217D01*
X50811208Y-92193979D01*
X50858827Y-92146360D01*
X50954065Y-92098741D01*
X51049303Y-92098741D01*
X51192160Y-92146360D01*
X51763588Y-92717789D01*
X51763588Y-92098741D01*
X18504466Y-92392780D02*
X18504466Y-93107066D01*
X18456847Y-93249923D01*
X18361609Y-93345161D01*
X18218752Y-93392780D01*
X18123514Y-93392780D01*
X18885419Y-92392780D02*
X19504466Y-92392780D01*
X19171133Y-92773733D01*
X19313990Y-92773733D01*
X19409228Y-92821352D01*
X19456847Y-92868971D01*
X19504466Y-92964209D01*
X19504466Y-93202304D01*
X19456847Y-93297542D01*
X19409228Y-93345161D01*
X19313990Y-93392780D01*
X19028276Y-93392780D01*
X18933038Y-93345161D01*
X18885419Y-93297542D01*
X51675150Y-90892857D02*
X51722769Y-90940476D01*
X51770388Y-91083333D01*
X51770388Y-91178571D01*
X51722769Y-91321428D01*
X51627531Y-91416666D01*
X51532293Y-91464285D01*
X51341817Y-91511904D01*
X51198960Y-91511904D01*
X51008484Y-91464285D01*
X50913246Y-91416666D01*
X50818008Y-91321428D01*
X50770388Y-91178571D01*
X50770388Y-91083333D01*
X50818008Y-90940476D01*
X50865627Y-90892857D01*
X50865627Y-90511904D02*
X50818008Y-90464285D01*
X50770388Y-90369047D01*
X50770388Y-90130952D01*
X50818008Y-90035714D01*
X50865627Y-89988095D01*
X50960865Y-89940476D01*
X51056103Y-89940476D01*
X51198960Y-89988095D01*
X51770388Y-90559523D01*
X51770388Y-89940476D01*
X50770388Y-89607142D02*
X50770388Y-88988095D01*
X51151341Y-89321428D01*
X51151341Y-89178571D01*
X51198960Y-89083333D01*
X51246579Y-89035714D01*
X51341817Y-88988095D01*
X51579912Y-88988095D01*
X51675150Y-89035714D01*
X51722769Y-89083333D01*
X51770388Y-89178571D01*
X51770388Y-89464285D01*
X51722769Y-89559523D01*
X51675150Y-89607142D01*
X35533380Y-88358504D02*
X35533380Y-87787076D01*
X36533380Y-88072790D02*
X35533380Y-88072790D01*
X36533380Y-87453742D02*
X35533380Y-87453742D01*
X35533380Y-87072790D01*
X35581000Y-86977552D01*
X35628619Y-86929933D01*
X35723857Y-86882314D01*
X35866714Y-86882314D01*
X35961952Y-86929933D01*
X36009571Y-86977552D01*
X36057190Y-87072790D01*
X36057190Y-87453742D01*
X35533380Y-86025171D02*
X35533380Y-86215647D01*
X35581000Y-86310885D01*
X35628619Y-86358504D01*
X35771476Y-86453742D01*
X35961952Y-86501361D01*
X36342904Y-86501361D01*
X36438142Y-86453742D01*
X36485761Y-86406123D01*
X36533380Y-86310885D01*
X36533380Y-86120409D01*
X36485761Y-86025171D01*
X36438142Y-85977552D01*
X36342904Y-85929933D01*
X36104809Y-85929933D01*
X36009571Y-85977552D01*
X35961952Y-86025171D01*
X35914333Y-86120409D01*
X35914333Y-86310885D01*
X35961952Y-86406123D01*
X36009571Y-86453742D01*
X36104809Y-86501361D01*
X96620104Y-58818780D02*
X96620104Y-57818780D01*
X96858200Y-57818780D01*
X97001057Y-57866400D01*
X97096295Y-57961638D01*
X97143914Y-58056876D01*
X97191533Y-58247352D01*
X97191533Y-58390209D01*
X97143914Y-58580685D01*
X97096295Y-58675923D01*
X97001057Y-58771161D01*
X96858200Y-58818780D01*
X96620104Y-58818780D01*
X98143914Y-58818780D02*
X97572485Y-58818780D01*
X97858200Y-58818780D02*
X97858200Y-57818780D01*
X97762961Y-57961638D01*
X97667723Y-58056876D01*
X97572485Y-58104495D01*
X51148303Y-84871236D02*
X51719731Y-84871236D01*
X51434017Y-85871236D02*
X51434017Y-84871236D01*
X52053065Y-85871236D02*
X52053065Y-84871236D01*
X52434017Y-84871236D01*
X52529255Y-84918856D01*
X52576874Y-84966475D01*
X52624493Y-85061713D01*
X52624493Y-85204570D01*
X52576874Y-85299808D01*
X52529255Y-85347427D01*
X52434017Y-85395046D01*
X52053065Y-85395046D01*
X53005446Y-84966475D02*
X53053065Y-84918856D01*
X53148303Y-84871236D01*
X53386398Y-84871236D01*
X53481636Y-84918856D01*
X53529255Y-84966475D01*
X53576874Y-85061713D01*
X53576874Y-85156951D01*
X53529255Y-85299808D01*
X52957827Y-85871236D01*
X53576874Y-85871236D01*
X91196795Y-43176480D02*
X91196795Y-43986004D01*
X91244414Y-44081242D01*
X91292033Y-44128861D01*
X91387271Y-44176480D01*
X91577747Y-44176480D01*
X91672985Y-44128861D01*
X91720604Y-44081242D01*
X91768223Y-43986004D01*
X91768223Y-43176480D01*
X92672985Y-43176480D02*
X92482509Y-43176480D01*
X92387271Y-43224100D01*
X92339652Y-43271719D01*
X92244414Y-43414576D01*
X92196795Y-43605052D01*
X92196795Y-43986004D01*
X92244414Y-44081242D01*
X92292033Y-44128861D01*
X92387271Y-44176480D01*
X92577747Y-44176480D01*
X92672985Y-44128861D01*
X92720604Y-44081242D01*
X92768223Y-43986004D01*
X92768223Y-43747909D01*
X92720604Y-43652671D01*
X92672985Y-43605052D01*
X92577747Y-43557433D01*
X92387271Y-43557433D01*
X92292033Y-43605052D01*
X92244414Y-43652671D01*
X92196795Y-43747909D01*
X28735542Y-87777580D02*
X28402209Y-87301390D01*
X28164114Y-87777580D02*
X28164114Y-86777580D01*
X28545066Y-86777580D01*
X28640304Y-86825200D01*
X28687923Y-86872819D01*
X28735542Y-86968057D01*
X28735542Y-87110914D01*
X28687923Y-87206152D01*
X28640304Y-87253771D01*
X28545066Y-87301390D01*
X28164114Y-87301390D01*
X29116495Y-86872819D02*
X29164114Y-86825200D01*
X29259352Y-86777580D01*
X29497447Y-86777580D01*
X29592685Y-86825200D01*
X29640304Y-86872819D01*
X29687923Y-86968057D01*
X29687923Y-87063295D01*
X29640304Y-87206152D01*
X29068876Y-87777580D01*
X29687923Y-87777580D01*
X30068876Y-86872819D02*
X30116495Y-86825200D01*
X30211733Y-86777580D01*
X30449828Y-86777580D01*
X30545066Y-86825200D01*
X30592685Y-86872819D01*
X30640304Y-86968057D01*
X30640304Y-87063295D01*
X30592685Y-87206152D01*
X30021257Y-87777580D01*
X30640304Y-87777580D01*
X75788866Y-28343780D02*
X75788866Y-29058066D01*
X75741247Y-29200923D01*
X75646009Y-29296161D01*
X75503152Y-29343780D01*
X75407914Y-29343780D01*
X76693628Y-28677114D02*
X76693628Y-29343780D01*
X76455533Y-28296161D02*
X76217438Y-29010447D01*
X76836485Y-29010447D01*
X30847780Y-81573666D02*
X30371590Y-81907000D01*
X30847780Y-82145095D02*
X29847780Y-82145095D01*
X29847780Y-81764142D01*
X29895400Y-81668904D01*
X29943019Y-81621285D01*
X30038257Y-81573666D01*
X30181114Y-81573666D01*
X30276352Y-81621285D01*
X30323971Y-81668904D01*
X30371590Y-81764142D01*
X30371590Y-82145095D01*
X30847780Y-81097476D02*
X30847780Y-80907000D01*
X30800161Y-80811761D01*
X30752542Y-80764142D01*
X30609685Y-80668904D01*
X30419209Y-80621285D01*
X30038257Y-80621285D01*
X29943019Y-80668904D01*
X29895400Y-80716523D01*
X29847780Y-80811761D01*
X29847780Y-81002238D01*
X29895400Y-81097476D01*
X29943019Y-81145095D01*
X30038257Y-81192714D01*
X30276352Y-81192714D01*
X30371590Y-81145095D01*
X30419209Y-81097476D01*
X30466828Y-81002238D01*
X30466828Y-80811761D01*
X30419209Y-80716523D01*
X30371590Y-80668904D01*
X30276352Y-80621285D01*
X57065942Y-76760342D02*
X57018323Y-76807961D01*
X56875466Y-76855580D01*
X56780228Y-76855580D01*
X56637371Y-76807961D01*
X56542133Y-76712723D01*
X56494514Y-76617485D01*
X56446895Y-76427009D01*
X56446895Y-76284152D01*
X56494514Y-76093676D01*
X56542133Y-75998438D01*
X56637371Y-75903200D01*
X56780228Y-75855580D01*
X56875466Y-75855580D01*
X57018323Y-75903200D01*
X57065942Y-75950819D01*
X57446895Y-75950819D02*
X57494514Y-75903200D01*
X57589752Y-75855580D01*
X57827847Y-75855580D01*
X57923085Y-75903200D01*
X57970704Y-75950819D01*
X58018323Y-76046057D01*
X58018323Y-76141295D01*
X57970704Y-76284152D01*
X57399276Y-76855580D01*
X58018323Y-76855580D01*
X58875466Y-76188914D02*
X58875466Y-76855580D01*
X58637371Y-75807961D02*
X58399276Y-76522247D01*
X59018323Y-76522247D01*
X34604742Y-90990657D02*
X34652361Y-91038276D01*
X34699980Y-91181133D01*
X34699980Y-91276371D01*
X34652361Y-91419228D01*
X34557123Y-91514466D01*
X34461885Y-91562085D01*
X34271409Y-91609704D01*
X34128552Y-91609704D01*
X33938076Y-91562085D01*
X33842838Y-91514466D01*
X33747600Y-91419228D01*
X33699980Y-91276371D01*
X33699980Y-91181133D01*
X33747600Y-91038276D01*
X33795219Y-90990657D01*
X33699980Y-90657323D02*
X33699980Y-90038276D01*
X34080933Y-90371609D01*
X34080933Y-90228752D01*
X34128552Y-90133514D01*
X34176171Y-90085895D01*
X34271409Y-90038276D01*
X34509504Y-90038276D01*
X34604742Y-90085895D01*
X34652361Y-90133514D01*
X34699980Y-90228752D01*
X34699980Y-90514466D01*
X34652361Y-90609704D01*
X34604742Y-90657323D01*
X33699980Y-89419228D02*
X33699980Y-89323990D01*
X33747600Y-89228752D01*
X33795219Y-89181133D01*
X33890457Y-89133514D01*
X34080933Y-89085895D01*
X34319028Y-89085895D01*
X34509504Y-89133514D01*
X34604742Y-89181133D01*
X34652361Y-89228752D01*
X34699980Y-89323990D01*
X34699980Y-89419228D01*
X34652361Y-89514466D01*
X34604742Y-89562085D01*
X34509504Y-89609704D01*
X34319028Y-89657323D01*
X34080933Y-89657323D01*
X33890457Y-89609704D01*
X33795219Y-89562085D01*
X33747600Y-89514466D01*
X33699980Y-89419228D01*
X50262780Y-45404066D02*
X49786590Y-45737400D01*
X50262780Y-45975495D02*
X49262780Y-45975495D01*
X49262780Y-45594542D01*
X49310400Y-45499304D01*
X49358019Y-45451685D01*
X49453257Y-45404066D01*
X49596114Y-45404066D01*
X49691352Y-45451685D01*
X49738971Y-45499304D01*
X49786590Y-45594542D01*
X49786590Y-45975495D01*
X50262780Y-44451685D02*
X50262780Y-45023114D01*
X50262780Y-44737400D02*
X49262780Y-44737400D01*
X49405638Y-44832638D01*
X49500876Y-44927876D01*
X49548495Y-45023114D01*
X119401880Y-63869433D02*
X120116166Y-63869433D01*
X120259023Y-63917052D01*
X120354261Y-64012290D01*
X120401880Y-64155147D01*
X120401880Y-64250385D01*
X119401880Y-62917052D02*
X119401880Y-63393242D01*
X119878071Y-63440861D01*
X119830452Y-63393242D01*
X119782833Y-63298004D01*
X119782833Y-63059909D01*
X119830452Y-62964671D01*
X119878071Y-62917052D01*
X119973309Y-62869433D01*
X120211404Y-62869433D01*
X120306642Y-62917052D01*
X120354261Y-62964671D01*
X120401880Y-63059909D01*
X120401880Y-63298004D01*
X120354261Y-63393242D01*
X120306642Y-63440861D01*
X43081676Y-62404380D02*
X43748342Y-63404380D01*
X43748342Y-62404380D02*
X43081676Y-63404380D01*
X44653104Y-63404380D02*
X44081676Y-63404380D01*
X44367390Y-63404380D02*
X44367390Y-62404380D01*
X44272152Y-62547238D01*
X44176914Y-62642476D01*
X44081676Y-62690095D01*
X28735542Y-84083142D02*
X28687923Y-84130761D01*
X28545066Y-84178380D01*
X28449828Y-84178380D01*
X28306971Y-84130761D01*
X28211733Y-84035523D01*
X28164114Y-83940285D01*
X28116495Y-83749809D01*
X28116495Y-83606952D01*
X28164114Y-83416476D01*
X28211733Y-83321238D01*
X28306971Y-83226000D01*
X28449828Y-83178380D01*
X28545066Y-83178380D01*
X28687923Y-83226000D01*
X28735542Y-83273619D01*
X29116495Y-83273619D02*
X29164114Y-83226000D01*
X29259352Y-83178380D01*
X29497447Y-83178380D01*
X29592685Y-83226000D01*
X29640304Y-83273619D01*
X29687923Y-83368857D01*
X29687923Y-83464095D01*
X29640304Y-83606952D01*
X29068876Y-84178380D01*
X29687923Y-84178380D01*
X30545066Y-83178380D02*
X30354590Y-83178380D01*
X30259352Y-83226000D01*
X30211733Y-83273619D01*
X30116495Y-83416476D01*
X30068876Y-83606952D01*
X30068876Y-83987904D01*
X30116495Y-84083142D01*
X30164114Y-84130761D01*
X30259352Y-84178380D01*
X30449828Y-84178380D01*
X30545066Y-84130761D01*
X30592685Y-84083142D01*
X30640304Y-83987904D01*
X30640304Y-83749809D01*
X30592685Y-83654571D01*
X30545066Y-83606952D01*
X30449828Y-83559333D01*
X30259352Y-83559333D01*
X30164114Y-83606952D01*
X30116495Y-83654571D01*
X30068876Y-83749809D01*
X34444133Y-95040980D02*
X34110800Y-94564790D01*
X33872704Y-95040980D02*
X33872704Y-94040980D01*
X34253657Y-94040980D01*
X34348895Y-94088600D01*
X34396514Y-94136219D01*
X34444133Y-94231457D01*
X34444133Y-94374314D01*
X34396514Y-94469552D01*
X34348895Y-94517171D01*
X34253657Y-94564790D01*
X33872704Y-94564790D01*
X35301276Y-94374314D02*
X35301276Y-95040980D01*
X35063180Y-93993361D02*
X34825085Y-94707647D01*
X35444133Y-94707647D01*
X40301942Y-63178942D02*
X40254323Y-63226561D01*
X40111466Y-63274180D01*
X40016228Y-63274180D01*
X39873371Y-63226561D01*
X39778133Y-63131323D01*
X39730514Y-63036085D01*
X39682895Y-62845609D01*
X39682895Y-62702752D01*
X39730514Y-62512276D01*
X39778133Y-62417038D01*
X39873371Y-62321800D01*
X40016228Y-62274180D01*
X40111466Y-62274180D01*
X40254323Y-62321800D01*
X40301942Y-62369419D01*
X40682895Y-62369419D02*
X40730514Y-62321800D01*
X40825752Y-62274180D01*
X41063847Y-62274180D01*
X41159085Y-62321800D01*
X41206704Y-62369419D01*
X41254323Y-62464657D01*
X41254323Y-62559895D01*
X41206704Y-62702752D01*
X40635276Y-63274180D01*
X41254323Y-63274180D01*
X41873371Y-62274180D02*
X41968609Y-62274180D01*
X42063847Y-62321800D01*
X42111466Y-62369419D01*
X42159085Y-62464657D01*
X42206704Y-62655133D01*
X42206704Y-62893228D01*
X42159085Y-63083704D01*
X42111466Y-63178942D01*
X42063847Y-63226561D01*
X41968609Y-63274180D01*
X41873371Y-63274180D01*
X41778133Y-63226561D01*
X41730514Y-63178942D01*
X41682895Y-63083704D01*
X41635276Y-62893228D01*
X41635276Y-62655133D01*
X41682895Y-62464657D01*
X41730514Y-62369419D01*
X41778133Y-62321800D01*
X41873371Y-62274180D01*
X62955541Y-94506236D02*
X62622208Y-94030046D01*
X62384112Y-94506236D02*
X62384112Y-93506236D01*
X62765065Y-93506236D01*
X62860303Y-93553856D01*
X62907922Y-93601475D01*
X62955541Y-93696713D01*
X62955541Y-93839570D01*
X62907922Y-93934808D01*
X62860303Y-93982427D01*
X62765065Y-94030046D01*
X62384112Y-94030046D01*
X63288874Y-93506236D02*
X63907922Y-93506236D01*
X63574588Y-93887189D01*
X63717446Y-93887189D01*
X63812684Y-93934808D01*
X63860303Y-93982427D01*
X63907922Y-94077665D01*
X63907922Y-94315760D01*
X63860303Y-94410998D01*
X63812684Y-94458617D01*
X63717446Y-94506236D01*
X63431731Y-94506236D01*
X63336493Y-94458617D01*
X63288874Y-94410998D01*
X64878104Y-39685980D02*
X64878104Y-40495504D01*
X64925723Y-40590742D01*
X64973342Y-40638361D01*
X65068580Y-40685980D01*
X65259057Y-40685980D01*
X65354295Y-40638361D01*
X65401914Y-40590742D01*
X65449533Y-40495504D01*
X65449533Y-39685980D01*
X66449533Y-40685980D02*
X65878104Y-40685980D01*
X66163819Y-40685980D02*
X66163819Y-39685980D01*
X66068580Y-39828838D01*
X65973342Y-39924076D01*
X65878104Y-39971695D01*
X67068580Y-39685980D02*
X67163819Y-39685980D01*
X67259057Y-39733600D01*
X67306676Y-39781219D01*
X67354295Y-39876457D01*
X67401914Y-40066933D01*
X67401914Y-40305028D01*
X67354295Y-40495504D01*
X67306676Y-40590742D01*
X67259057Y-40638361D01*
X67163819Y-40685980D01*
X67068580Y-40685980D01*
X66973342Y-40638361D01*
X66925723Y-40590742D01*
X66878104Y-40495504D01*
X66830485Y-40305028D01*
X66830485Y-40066933D01*
X66878104Y-39876457D01*
X66925723Y-39781219D01*
X66973342Y-39733600D01*
X67068580Y-39685980D01*
X53313142Y-88321142D02*
X53265523Y-88368761D01*
X53122666Y-88416380D01*
X53027428Y-88416380D01*
X52884571Y-88368761D01*
X52789333Y-88273523D01*
X52741714Y-88178285D01*
X52694095Y-87987809D01*
X52694095Y-87844952D01*
X52741714Y-87654476D01*
X52789333Y-87559238D01*
X52884571Y-87464000D01*
X53027428Y-87416380D01*
X53122666Y-87416380D01*
X53265523Y-87464000D01*
X53313142Y-87511619D01*
X54265523Y-88416380D02*
X53694095Y-88416380D01*
X53979809Y-88416380D02*
X53979809Y-87416380D01*
X53884571Y-87559238D01*
X53789333Y-87654476D01*
X53694095Y-87702095D01*
X54598857Y-87416380D02*
X55217904Y-87416380D01*
X54884571Y-87797333D01*
X55027428Y-87797333D01*
X55122666Y-87844952D01*
X55170285Y-87892571D01*
X55217904Y-87987809D01*
X55217904Y-88225904D01*
X55170285Y-88321142D01*
X55122666Y-88368761D01*
X55027428Y-88416380D01*
X54741714Y-88416380D01*
X54646476Y-88368761D01*
X54598857Y-88321142D01*
X100330933Y-51522280D02*
X99997600Y-51046090D01*
X99759504Y-51522280D02*
X99759504Y-50522280D01*
X100140457Y-50522280D01*
X100235695Y-50569900D01*
X100283314Y-50617519D01*
X100330933Y-50712757D01*
X100330933Y-50855614D01*
X100283314Y-50950852D01*
X100235695Y-50998471D01*
X100140457Y-51046090D01*
X99759504Y-51046090D01*
X101188076Y-50522280D02*
X100997600Y-50522280D01*
X100902361Y-50569900D01*
X100854742Y-50617519D01*
X100759504Y-50760376D01*
X100711885Y-50950852D01*
X100711885Y-51331804D01*
X100759504Y-51427042D01*
X100807123Y-51474661D01*
X100902361Y-51522280D01*
X101092838Y-51522280D01*
X101188076Y-51474661D01*
X101235695Y-51427042D01*
X101283314Y-51331804D01*
X101283314Y-51093709D01*
X101235695Y-50998471D01*
X101188076Y-50950852D01*
X101092838Y-50903233D01*
X100902361Y-50903233D01*
X100807123Y-50950852D01*
X100759504Y-50998471D01*
X100711885Y-51093709D01*
D12*
X93091500Y-51968900D02*
X94991500Y-51968900D01*
X93091500Y-53868900D02*
X93091500Y-51968900D01*
X94991500Y-53868900D02*
X93091500Y-53868900D01*
X94991500Y-51968900D02*
X94991500Y-53868900D01*
X94788300Y-40564300D02*
X94788300Y-42464300D01*
X92888300Y-40564300D02*
X94788300Y-40564300D01*
X94788300Y-42464300D02*
X92888300Y-42464300D01*
X92888300Y-42464300D02*
X92888300Y-40564300D01*
X62093200Y-76133600D02*
X62343200Y-76133600D01*
X62093200Y-73163600D02*
X62093200Y-72913600D01*
X65313200Y-76133600D02*
X65063200Y-76133600D01*
X65313200Y-75883600D02*
X65313200Y-76133600D01*
X62093200Y-72913600D02*
X62343200Y-72913600D01*
X62093200Y-75883600D02*
X62093200Y-76133600D01*
X65313200Y-73163600D02*
X65313200Y-72913600D01*
X30566067Y-66622200D02*
X30273533Y-66622200D01*
X30566067Y-67642200D02*
X30273533Y-67642200D01*
X61574000Y-90904267D02*
X61574000Y-90611733D01*
X62594000Y-90904267D02*
X62594000Y-90611733D01*
X87697800Y-66181200D02*
X87697800Y-64281200D01*
X85377800Y-64781200D02*
X85377800Y-66181200D01*
X35111400Y-64024000D02*
X35111400Y-66024000D01*
X31011400Y-66024000D02*
X31011400Y-64024000D01*
X31011400Y-64024000D02*
X35111400Y-64024000D01*
X35111400Y-66024000D02*
X31011400Y-66024000D01*
X57773252Y-88632000D02*
X57250748Y-88632000D01*
X57773252Y-90852000D02*
X57250748Y-90852000D01*
X62101000Y-78161933D02*
X62101000Y-78454467D01*
X63121000Y-78161933D02*
X63121000Y-78454467D01*
X44884000Y-85208000D02*
X46194000Y-85208000D01*
X45114000Y-89068000D02*
X45114000Y-87928000D01*
X49604000Y-85208000D02*
X49604000Y-87928000D01*
X44884000Y-87928000D02*
X45114000Y-87928000D01*
X49604000Y-87928000D02*
X49374000Y-87928000D01*
X48294000Y-85208000D02*
X49604000Y-85208000D01*
X44884000Y-87928000D02*
X44884000Y-85208000D01*
X42749000Y-91734600D02*
X42749000Y-93634600D01*
X42749000Y-93634600D02*
X40849000Y-93634600D01*
X40849000Y-93634600D02*
X40849000Y-91734600D01*
X40849000Y-91734600D02*
X42749000Y-91734600D01*
X46711808Y-92331789D02*
X46711808Y-92624323D01*
X47731808Y-92331789D02*
X47731808Y-92624323D01*
X30443600Y-70559664D02*
X30443600Y-70105536D01*
X28973600Y-70559664D02*
X28973600Y-70105536D01*
X32526464Y-70435800D02*
X32072336Y-70435800D01*
X32526464Y-71905800D02*
X32072336Y-71905800D01*
X63327064Y-93088256D02*
X62872936Y-93088256D01*
X63327064Y-94558256D02*
X62872936Y-94558256D01*
X33458400Y-84371400D02*
X33458400Y-80271400D01*
X35458400Y-80271400D02*
X35458400Y-84371400D01*
X35458400Y-84371400D02*
X33458400Y-84371400D01*
X33458400Y-80271400D02*
X35458400Y-80271400D01*
X55683252Y-95182000D02*
X54260748Y-95182000D01*
X55683252Y-97002000D02*
X54260748Y-97002000D01*
X29707064Y-81253000D02*
X29252936Y-81253000D01*
X29707064Y-79783000D02*
X29252936Y-79783000D01*
X98235400Y-42585764D02*
X98235400Y-42131636D01*
X96765400Y-42585764D02*
X96765400Y-42131636D01*
X57218000Y-94524000D02*
X58978000Y-94524000D01*
X58978000Y-91454000D02*
X56548000Y-91454000D01*
X27707400Y-75717400D02*
X27707400Y-77667400D01*
X32827400Y-75717400D02*
X32827400Y-77667400D01*
X27707400Y-75717400D02*
X27707400Y-73767400D01*
X32827400Y-75717400D02*
X32827400Y-72267400D01*
X29144000Y-64074000D02*
X29144000Y-65974000D01*
X27244000Y-64074000D02*
X29144000Y-64074000D01*
X29144000Y-65974000D02*
X27244000Y-65974000D01*
X27244000Y-65974000D02*
X27244000Y-64074000D01*
X96714600Y-51656636D02*
X96714600Y-52110764D01*
X98184600Y-51656636D02*
X98184600Y-52110764D01*
X39065200Y-93413800D02*
X37065200Y-93413800D01*
X37065200Y-93413800D02*
X37065200Y-89313800D01*
X39065200Y-89313800D02*
X39065200Y-93413800D01*
X37065200Y-89313800D02*
X39065200Y-89313800D01*
X82735008Y-98016056D02*
X82735008Y-105736056D01*
X75615008Y-105276056D02*
X82735008Y-105276056D01*
X75615008Y-98016056D02*
X82735008Y-98016056D01*
X82200008Y-100107056D02*
X82071008Y-100235056D01*
X79780008Y-102117056D02*
X79651008Y-102245056D01*
X75615008Y-98016056D02*
X75615008Y-105736056D01*
X75615008Y-104176056D02*
X82735008Y-104176056D01*
X75615008Y-105736056D02*
X82735008Y-105736056D01*
X79950008Y-102357056D02*
X79856008Y-102450056D01*
X81995008Y-99901056D02*
X81901008Y-99995056D01*
X75375008Y-105976056D02*
X75775008Y-105976056D01*
X75375008Y-105336056D02*
X75375008Y-105976056D01*
X78291008Y-99736055D02*
G75*
G03*
X76535114Y-99750698I-866000J-1439999D01*
G01*
X77425008Y-102856056D02*
G75*
G03*
X78315272Y-102600777I3J1679990D01*
G01*
X78850008Y-102067056D02*
G75*
G03*
X78850512Y-100285863I-1425003J891000D01*
G01*
X76559008Y-102616056D02*
G75*
G03*
X77453682Y-102856155I866003J1440014D01*
G01*
X75985007Y-100310056D02*
G75*
G03*
X75999650Y-102065950I1439999J-866000D01*
G01*
X82605008Y-101176056D02*
G75*
G03*
X82605008Y-101176056I-1680000J0D01*
G01*
X45786000Y-97749400D02*
X45786000Y-95849400D01*
X47686000Y-95849400D02*
X47686000Y-97749400D01*
X45786000Y-95849400D02*
X47686000Y-95849400D01*
X47686000Y-97749400D02*
X45786000Y-97749400D01*
X32700400Y-95275400D02*
X32700400Y-91825400D01*
X32700400Y-95275400D02*
X32700400Y-97225400D01*
X27580400Y-95275400D02*
X27580400Y-97225400D01*
X27580400Y-95275400D02*
X27580400Y-93325400D01*
X53305108Y-97786656D02*
X53305108Y-104898656D01*
X73498108Y-97786656D02*
X53305108Y-97786656D01*
X73498108Y-104898656D02*
X73498108Y-97786656D01*
X53305108Y-104898656D02*
X73498108Y-104898656D01*
X67310800Y-69063400D02*
X67310800Y-68113400D01*
X48040800Y-48843400D02*
X47090800Y-48843400D01*
X48040800Y-69063400D02*
X47090800Y-69063400D01*
X47090800Y-69063400D02*
X47090800Y-68113400D01*
X47090800Y-49793400D02*
X45800800Y-49793400D01*
X66360800Y-48843400D02*
X67310800Y-48843400D01*
X67310800Y-48843400D02*
X67310800Y-49793400D01*
X47090800Y-48843400D02*
X47090800Y-49793400D01*
X66360800Y-69063400D02*
X67310800Y-69063400D01*
X98052600Y-37738700D02*
X105172600Y-37738700D01*
X98052600Y-38838700D02*
X105172600Y-38838700D01*
X102217600Y-35679700D02*
X102088600Y-35807700D01*
X98052600Y-31578700D02*
X98052600Y-39298700D01*
X98052600Y-31578700D02*
X105172600Y-31578700D01*
X105172600Y-31578700D02*
X105172600Y-39298700D01*
X102387600Y-35919700D02*
X102293600Y-36012700D01*
X98052600Y-39298700D02*
X105172600Y-39298700D01*
X97812600Y-39538700D02*
X98212600Y-39538700D01*
X97812600Y-38898700D02*
X97812600Y-39538700D01*
X104637600Y-33669700D02*
X104508600Y-33797700D01*
X104432600Y-33463700D02*
X104338600Y-33557700D01*
X98996600Y-36178700D02*
G75*
G03*
X99891274Y-36418799I866003J1440014D01*
G01*
X100728600Y-33298699D02*
G75*
G03*
X98972706Y-33313342I-866000J-1439999D01*
G01*
X101287600Y-35629700D02*
G75*
G03*
X101288104Y-33848507I-1425003J891000D01*
G01*
X99862600Y-36418700D02*
G75*
G03*
X100752864Y-36163421I3J1679990D01*
G01*
X98422599Y-33872700D02*
G75*
G03*
X98437242Y-35628594I1439999J-866000D01*
G01*
X105042600Y-34738700D02*
G75*
G03*
X105042600Y-34738700I-1680000J0D01*
G01*
X32196264Y-91387600D02*
X31742136Y-91387600D01*
X32196264Y-89917600D02*
X31742136Y-89917600D01*
X60090267Y-72565800D02*
X59797733Y-72565800D01*
X60090267Y-73585800D02*
X59797733Y-73585800D01*
X89221000Y-75218600D02*
X91881000Y-75218600D01*
X91881000Y-62458600D02*
X91881000Y-75218600D01*
X89221000Y-61188600D02*
X89221000Y-59858600D01*
X89221000Y-59858600D02*
X90551000Y-59858600D01*
X89221000Y-62458600D02*
X91881000Y-62458600D01*
X89221000Y-62458600D02*
X89221000Y-75218600D01*
X32428000Y-67997336D02*
X32428000Y-68451464D01*
X33898000Y-67997336D02*
X33898000Y-68451464D01*
X25947864Y-81253000D02*
X25493736Y-81253000D01*
X25947864Y-79783000D02*
X25493736Y-79783000D01*
X51795808Y-90096589D02*
X51795808Y-90389123D01*
X50775808Y-90096589D02*
X50775808Y-90389123D01*
X17507800Y-91500400D02*
X17507800Y-90170400D01*
X17507800Y-88900400D02*
X17507800Y-76140400D01*
X20167800Y-76140400D02*
X17507800Y-76140400D01*
X20167800Y-88900400D02*
X20167800Y-76140400D01*
X20167800Y-88900400D02*
X17507800Y-88900400D01*
X18837800Y-91500400D02*
X17507800Y-91500400D01*
X52332008Y-90103733D02*
X52332008Y-90396267D01*
X53352008Y-90103733D02*
X53352008Y-90396267D01*
X33483000Y-86146600D02*
X35383000Y-86146600D01*
X35383000Y-86146600D02*
X35383000Y-88046600D01*
X35383000Y-88046600D02*
X33483000Y-88046600D01*
X33483000Y-88046600D02*
X33483000Y-86146600D01*
X92758200Y-63516400D02*
X100058200Y-63516400D01*
X92758200Y-59216400D02*
X100058200Y-59216400D01*
X92758200Y-59216400D02*
X92758200Y-63516400D01*
X51460208Y-88016856D02*
X51460208Y-86116856D01*
X53360208Y-86116856D02*
X53360208Y-88016856D01*
X51460208Y-86116856D02*
X53360208Y-86116856D01*
X53360208Y-88016856D02*
X51460208Y-88016856D01*
X94731800Y-49668500D02*
X92781800Y-49668500D01*
X94731800Y-44548500D02*
X91281800Y-44548500D01*
X94731800Y-49668500D02*
X96681800Y-49668500D01*
X94731800Y-44548500D02*
X96681800Y-44548500D01*
X28592600Y-89990664D02*
X28592600Y-89536536D01*
X30062600Y-89990664D02*
X30062600Y-89536536D01*
X83032200Y-31071400D02*
X83032200Y-31471400D01*
X83032200Y-33991400D02*
X83032200Y-39771400D01*
X78322200Y-30771400D02*
X79822200Y-30571400D01*
X69212200Y-31071400D02*
X69212200Y-31471400D01*
X69212200Y-33991400D02*
X69212200Y-39771400D01*
X71422200Y-30371400D02*
X73122200Y-30671400D01*
X77022200Y-30871400D02*
X78322200Y-30771400D01*
X81122200Y-30271400D02*
X81622200Y-30171400D01*
X70622200Y-31071400D02*
X70622200Y-30071400D01*
X73922200Y-30771400D02*
X75222200Y-30871400D01*
X73122200Y-30671400D02*
X73922200Y-30771400D01*
X71122200Y-29571400D02*
X81122200Y-29571400D01*
X83032200Y-44991400D02*
X69212200Y-44991400D01*
X83032200Y-42291400D02*
X83032200Y-44991400D01*
X79822200Y-30571400D02*
X81122200Y-30271400D01*
X70622200Y-30171400D02*
X71422200Y-30371400D01*
X75222200Y-30871400D02*
X77022200Y-30871400D01*
X81622200Y-31071400D02*
X81622200Y-30071400D01*
X69212200Y-42291400D02*
X69212200Y-44991400D01*
X69212200Y-31071400D02*
X83032200Y-31071400D01*
X81622200Y-30071400D02*
G75*
G03*
X81122200Y-29571400I-500001J-1D01*
G01*
X71122200Y-29571400D02*
G75*
G03*
X70622200Y-30071400I1J-500001D01*
G01*
X32780400Y-81634064D02*
X32780400Y-81179936D01*
X31310400Y-81634064D02*
X31310400Y-81179936D01*
X58032867Y-75338400D02*
X57740333Y-75338400D01*
X58032867Y-74318400D02*
X57740333Y-74318400D01*
X35167600Y-90494067D02*
X35167600Y-90201533D01*
X36187600Y-90494067D02*
X36187600Y-90201533D01*
X50725400Y-45464464D02*
X50725400Y-45010336D01*
X52195400Y-45464464D02*
X52195400Y-45010336D01*
X112882500Y-62101900D02*
X112882500Y-31131900D01*
X111988162Y-51906900D02*
X112421175Y-52156900D01*
X111988162Y-52406900D02*
X111988162Y-51906900D01*
X112882500Y-31131900D02*
X125222500Y-31131900D01*
X112421175Y-52156900D02*
X111988162Y-52406900D01*
X125222500Y-62101900D02*
X112882500Y-62101900D01*
X45001200Y-60132000D02*
X45001200Y-60772000D01*
X44051200Y-61812000D02*
X43721200Y-61812000D01*
X44061200Y-59092000D02*
X43721200Y-59092000D01*
X44271200Y-62012000D02*
X44961200Y-62012000D01*
X42781200Y-60132000D02*
X42781200Y-60772000D01*
X44051199Y-61812000D02*
G75*
G03*
X44271200Y-62012000I310002J120002D01*
G01*
X29524667Y-82806000D02*
X29232133Y-82806000D01*
X29524667Y-81786000D02*
X29232133Y-81786000D01*
X34837864Y-92203600D02*
X34383736Y-92203600D01*
X34837864Y-93673600D02*
X34383736Y-93673600D01*
X41091067Y-60881800D02*
X40798533Y-60881800D01*
X41091067Y-61901800D02*
X40798533Y-61901800D01*
X62895144Y-94968856D02*
X63349272Y-94968856D01*
X62895144Y-96438856D02*
X63349272Y-96438856D01*
X54720000Y-90103733D02*
X54720000Y-90396267D01*
X53700000Y-90103733D02*
X53700000Y-90396267D01*
X100724664Y-50154900D02*
X100270536Y-50154900D01*
X100724664Y-48684900D02*
X100270536Y-48684900D01*
%LPC*%
D13*
X94041500Y-52918900D03*
X93838300Y-41514300D03*
D14*
X64703200Y-73023600D03*
D15*
X64303200Y-73023600D03*
X63903200Y-73023600D03*
X63503200Y-73023600D03*
X63103200Y-73023600D03*
D16*
X62703200Y-73023600D03*
D17*
X62203200Y-73523600D03*
D18*
X62203200Y-73923600D03*
X62203200Y-74323600D03*
X62203200Y-74723600D03*
X62203200Y-75123600D03*
D19*
X62203200Y-75523600D03*
D20*
X62703200Y-76023600D03*
D15*
X63103200Y-76023600D03*
X63503200Y-76023600D03*
X63903200Y-76023600D03*
X64303200Y-76023600D03*
D21*
X64703200Y-76023600D03*
D22*
X65203200Y-75523600D03*
D18*
X65203200Y-75123600D03*
X65203200Y-74723600D03*
X65203200Y-74323600D03*
X65203200Y-73923600D03*
D23*
X65203200Y-73523600D03*
D24*
X63703200Y-74523600D03*
D25*
X31282300Y-67132200D03*
X29557300Y-67132200D03*
D26*
X62084000Y-91620500D03*
X62084000Y-89895500D03*
D27*
X87187800Y-64151200D03*
X86537800Y-64151200D03*
X85887800Y-64151200D03*
X85887800Y-66811200D03*
X87187800Y-66811200D03*
D28*
X34361400Y-65024000D03*
X33061400Y-65024000D03*
X31761400Y-65024000D03*
D29*
X58674500Y-89742000D03*
X56349500Y-89742000D03*
D30*
X62611000Y-77445700D03*
X62611000Y-79170700D03*
D31*
X45744000Y-89018000D03*
D32*
X47244000Y-88930500D03*
D31*
X48744000Y-89018000D03*
D13*
X41799000Y-92684600D03*
D30*
X47221808Y-91615556D03*
X47221808Y-93340556D03*
D33*
X29708600Y-71332600D03*
X29708600Y-69332600D03*
D34*
X33299400Y-71170800D03*
X31299400Y-71170800D03*
X64100000Y-93823256D03*
X62100000Y-93823256D03*
D35*
X34458400Y-81021400D03*
X34458400Y-82321400D03*
X34458400Y-83621400D03*
D36*
X56534500Y-96092000D03*
X53409500Y-96092000D03*
D34*
X30480000Y-80518000D03*
X28480000Y-80518000D03*
D33*
X97500400Y-43358700D03*
X97500400Y-41358700D03*
D37*
X56388000Y-92014000D03*
X56388000Y-92964000D03*
X56388000Y-93914000D03*
X59808000Y-93914000D03*
X59808000Y-92964000D03*
X59808000Y-92014000D03*
D38*
X32172400Y-73242400D03*
X30902400Y-73242400D03*
X29632400Y-73242400D03*
X28362400Y-73242400D03*
X28362400Y-78192400D03*
X29632400Y-78192400D03*
X30902400Y-78192400D03*
X32172400Y-78192400D03*
D39*
X30267400Y-75717400D03*
D13*
X28194000Y-65024000D03*
D40*
X97449600Y-50883700D03*
X97449600Y-52883700D03*
D35*
X38065200Y-90063800D03*
X38065200Y-91363800D03*
X38065200Y-92663800D03*
D41*
X77425008Y-101176056D03*
D42*
X80925008Y-101176056D03*
D13*
X46736000Y-96799400D03*
D38*
X32045400Y-92800400D03*
X30775400Y-92800400D03*
X29505400Y-92800400D03*
X28235400Y-92800400D03*
X28235400Y-97750400D03*
X29505400Y-97750400D03*
X30775400Y-97750400D03*
X32045400Y-97750400D03*
D39*
X30140400Y-95275400D03*
D43*
X70132608Y-102993656D03*
X70132608Y-99691656D03*
X56670608Y-102993656D03*
X56670608Y-99691656D03*
D44*
X46538300Y-50203400D03*
X46538300Y-50703400D03*
X46538300Y-51203400D03*
X46538300Y-51703400D03*
X46538300Y-52203400D03*
X46538300Y-52703400D03*
X46538300Y-53203400D03*
X46538300Y-53703400D03*
X46538300Y-54203400D03*
X46538300Y-54703400D03*
X46538300Y-55203400D03*
X46538300Y-55703400D03*
X46538300Y-56203400D03*
X46538300Y-56703400D03*
X46538300Y-57203400D03*
X46538300Y-57703400D03*
X46538300Y-58203400D03*
X46538300Y-58703400D03*
X46538300Y-59203400D03*
X46538300Y-59703400D03*
X46538300Y-60203400D03*
X46538300Y-60703400D03*
X46538300Y-61203400D03*
X46538300Y-61703400D03*
X46538300Y-62203400D03*
X46538300Y-62703400D03*
X46538300Y-63203400D03*
X46538300Y-63703400D03*
X46538300Y-64203400D03*
X46538300Y-64703400D03*
X46538300Y-65203400D03*
X46538300Y-65703400D03*
X46538300Y-66203400D03*
X46538300Y-66703400D03*
X46538300Y-67203400D03*
X46538300Y-67703400D03*
D45*
X48450800Y-69615900D03*
X48950800Y-69615900D03*
X49450800Y-69615900D03*
X49950800Y-69615900D03*
X50450800Y-69615900D03*
X50950800Y-69615900D03*
X51450800Y-69615900D03*
X51950800Y-69615900D03*
X52450800Y-69615900D03*
X52950800Y-69615900D03*
X53450800Y-69615900D03*
X53950800Y-69615900D03*
X54450800Y-69615900D03*
X54950800Y-69615900D03*
X55450800Y-69615900D03*
X55950800Y-69615900D03*
X56450800Y-69615900D03*
X56950800Y-69615900D03*
X57450800Y-69615900D03*
X57950800Y-69615900D03*
X58450800Y-69615900D03*
X58950800Y-69615900D03*
X59450800Y-69615900D03*
X59950800Y-69615900D03*
X60450800Y-69615900D03*
X60950800Y-69615900D03*
X61450800Y-69615900D03*
X61950800Y-69615900D03*
X62450800Y-69615900D03*
X62950800Y-69615900D03*
X63450800Y-69615900D03*
X63950800Y-69615900D03*
X64450800Y-69615900D03*
X64950800Y-69615900D03*
X65450800Y-69615900D03*
X65950800Y-69615900D03*
D44*
X67863300Y-67703400D03*
X67863300Y-67203400D03*
X67863300Y-66703400D03*
X67863300Y-66203400D03*
X67863300Y-65703400D03*
X67863300Y-65203400D03*
X67863300Y-64703400D03*
X67863300Y-64203400D03*
X67863300Y-63703400D03*
X67863300Y-63203400D03*
X67863300Y-62703400D03*
X67863300Y-62203400D03*
X67863300Y-61703400D03*
X67863300Y-61203400D03*
X67863300Y-60703400D03*
X67863300Y-60203400D03*
X67863300Y-59703400D03*
X67863300Y-59203400D03*
X67863300Y-58703400D03*
X67863300Y-58203400D03*
X67863300Y-57703400D03*
X67863300Y-57203400D03*
X67863300Y-56703400D03*
X67863300Y-56203400D03*
X67863300Y-55703400D03*
X67863300Y-55203400D03*
X67863300Y-54703400D03*
X67863300Y-54203400D03*
X67863300Y-53703400D03*
X67863300Y-53203400D03*
X67863300Y-52703400D03*
X67863300Y-52203400D03*
X67863300Y-51703400D03*
X67863300Y-51203400D03*
X67863300Y-50703400D03*
X67863300Y-50203400D03*
D45*
X65950800Y-48290900D03*
X65450800Y-48290900D03*
X64950800Y-48290900D03*
X64450800Y-48290900D03*
X63950800Y-48290900D03*
X63450800Y-48290900D03*
X62950800Y-48290900D03*
X62450800Y-48290900D03*
X61950800Y-48290900D03*
X61450800Y-48290900D03*
X60950800Y-48290900D03*
X60450800Y-48290900D03*
X59950800Y-48290900D03*
X59450800Y-48290900D03*
X58950800Y-48290900D03*
X58450800Y-48290900D03*
X57950800Y-48290900D03*
X57450800Y-48290900D03*
X56950800Y-48290900D03*
X56450800Y-48290900D03*
X55950800Y-48290900D03*
X55450800Y-48290900D03*
X54950800Y-48290900D03*
X54450800Y-48290900D03*
X53950800Y-48290900D03*
X53450800Y-48290900D03*
X52950800Y-48290900D03*
X52450800Y-48290900D03*
X51950800Y-48290900D03*
X51450800Y-48290900D03*
X50950800Y-48290900D03*
X50450800Y-48290900D03*
X49950800Y-48290900D03*
X49450800Y-48290900D03*
X48950800Y-48290900D03*
X48450800Y-48290900D03*
D41*
X99862600Y-34738700D03*
D42*
X103362600Y-34738700D03*
D34*
X32969200Y-90652600D03*
X30969200Y-90652600D03*
D25*
X60806500Y-73075800D03*
X59081500Y-73075800D03*
D46*
X90551000Y-61188600D03*
D47*
X90551000Y-63728600D03*
X90551000Y-66268600D03*
X90551000Y-68808600D03*
X90551000Y-71348600D03*
X90551000Y-73888600D03*
D40*
X33163000Y-67224400D03*
X33163000Y-69224400D03*
D34*
X26720800Y-80518000D03*
X24720800Y-80518000D03*
D30*
X51285808Y-89380356D03*
X51285808Y-91105356D03*
D46*
X18837800Y-90170400D03*
D47*
X18837800Y-87630400D03*
X18837800Y-85090400D03*
X18837800Y-82550400D03*
X18837800Y-80010400D03*
X18837800Y-77470400D03*
D30*
X52842008Y-89387500D03*
X52842008Y-91112500D03*
D13*
X34433000Y-87096600D03*
D48*
X94658200Y-61366400D03*
X100058200Y-61366400D03*
D13*
X52410208Y-87066856D03*
D49*
X92256800Y-45203500D03*
X92256800Y-46473500D03*
X92256800Y-47743500D03*
X92256800Y-49013500D03*
X97206800Y-49013500D03*
X97206800Y-47743500D03*
X97206800Y-46473500D03*
X97206800Y-45203500D03*
D33*
X29327600Y-90763600D03*
X29327600Y-88763600D03*
D50*
X72922200Y-35331400D03*
X74022200Y-35331400D03*
X75122200Y-35331400D03*
X76222200Y-35331400D03*
X77322200Y-35331400D03*
X78422200Y-35331400D03*
X79522200Y-35331400D03*
X80622200Y-35331400D03*
D51*
X82997200Y-32731400D03*
X69247200Y-32731400D03*
X69247200Y-41031400D03*
X82997200Y-41031400D03*
D33*
X32045400Y-82407000D03*
X32045400Y-80407000D03*
D25*
X58749100Y-74828400D03*
X57024100Y-74828400D03*
D26*
X35677600Y-91210300D03*
X35677600Y-89485300D03*
D33*
X51460400Y-46237400D03*
X51460400Y-44237400D03*
D52*
X116162500Y-59116900D03*
X116162500Y-34116900D03*
D53*
X114742500Y-52156900D03*
D54*
X114742500Y-49386900D03*
X114742500Y-46616900D03*
X114742500Y-43846900D03*
X114742500Y-41076900D03*
X117582500Y-50771900D03*
X117582500Y-48001900D03*
X117582500Y-45231900D03*
X117582500Y-42461900D03*
D55*
X44616200Y-61377000D03*
X44616200Y-59527000D03*
X43166200Y-59527000D03*
X43166200Y-61377000D03*
D25*
X30240900Y-82296000D03*
X28515900Y-82296000D03*
D34*
X35610800Y-92938600D03*
X33610800Y-92938600D03*
D25*
X41807300Y-61391800D03*
X40082300Y-61391800D03*
D56*
X62122208Y-95703856D03*
X64122208Y-95703856D03*
D57*
X65825200Y-36394400D03*
X65825200Y-36794400D03*
X65825200Y-37194400D03*
X65825200Y-37594400D03*
X65825200Y-37994400D03*
X65825200Y-38394400D03*
X65825200Y-38794400D03*
X65825200Y-39194400D03*
X66976200Y-39194400D03*
X66976200Y-38794400D03*
X66976200Y-38394400D03*
X66976200Y-37994400D03*
X66976200Y-37594400D03*
X66976200Y-37194400D03*
X66976200Y-36794400D03*
X66976200Y-36394400D03*
D58*
X66400200Y-37794400D03*
D30*
X54210000Y-89387500D03*
X54210000Y-91112500D03*
D34*
X101497600Y-49419900D03*
X99497600Y-49419900D03*
M02*
