G04 #@! TF.GenerationSoftware,KiCad,Pcbnew,(6.0.5)*
G04 #@! TF.CreationDate,2023-02-13T01:00:26-07:00*
G04 #@! TF.ProjectId,EVCU,45564355-2e6b-4696-9361-645f70636258,rev?*
G04 #@! TF.SameCoordinates,Original*
G04 #@! TF.FileFunction,Legend,Top*
G04 #@! TF.FilePolarity,Positive*
%FSLAX46Y46*%
G04 Gerber Fmt 4.6, Leading zero omitted, Abs format (unit mm)*
G04 Created by KiCad (PCBNEW (6.0.5)) date 2023-02-13 01:00:26*
%MOMM*%
%LPD*%
G01*
G04 APERTURE LIST*
G04 Aperture macros list*
%AMRoundRect*
0 Rectangle with rounded corners*
0 $1 Rounding radius*
0 $2 $3 $4 $5 $6 $7 $8 $9 X,Y pos of 4 corners*
0 Add a 4 corners polygon primitive as box body*
4,1,4,$2,$3,$4,$5,$6,$7,$8,$9,$2,$3,0*
0 Add four circle primitives for the rounded corners*
1,1,$1+$1,$2,$3*
1,1,$1+$1,$4,$5*
1,1,$1+$1,$6,$7*
1,1,$1+$1,$8,$9*
0 Add four rect primitives between the rounded corners*
20,1,$1+$1,$2,$3,$4,$5,0*
20,1,$1+$1,$4,$5,$6,$7,0*
20,1,$1+$1,$6,$7,$8,$9,0*
20,1,$1+$1,$8,$9,$2,$3,0*%
%AMFreePoly0*
4,1,14,0.266715,0.088284,0.363284,-0.008285,0.375000,-0.036569,0.375000,-0.060000,0.363284,-0.088284,0.335000,-0.100000,-0.335000,-0.100000,-0.363284,-0.088284,-0.375000,-0.060000,-0.375000,0.060000,-0.363284,0.088284,-0.335000,0.100000,0.238431,0.100000,0.266715,0.088284,0.266715,0.088284,$1*%
%AMFreePoly1*
4,1,14,0.363284,0.088284,0.375000,0.060000,0.375000,0.036569,0.363284,0.008285,0.266715,-0.088284,0.238431,-0.100000,-0.335000,-0.100000,-0.363284,-0.088284,-0.375000,-0.060000,-0.375000,0.060000,-0.363284,0.088284,-0.335000,0.100000,0.335000,0.100000,0.363284,0.088284,0.363284,0.088284,$1*%
%AMFreePoly2*
4,1,14,0.088284,0.363284,0.100000,0.335000,0.100000,-0.335000,0.088284,-0.363284,0.060000,-0.375000,-0.060000,-0.375000,-0.088284,-0.363284,-0.100000,-0.335000,-0.100000,0.238431,-0.088284,0.266715,0.008285,0.363284,0.036569,0.375000,0.060000,0.375000,0.088284,0.363284,0.088284,0.363284,$1*%
%AMFreePoly3*
4,1,14,-0.008285,0.363284,0.088284,0.266715,0.100000,0.238431,0.100000,-0.335000,0.088284,-0.363284,0.060000,-0.375000,-0.060000,-0.375000,-0.088284,-0.363284,-0.100000,-0.335000,-0.100000,0.335000,-0.088284,0.363284,-0.060000,0.375000,-0.036569,0.375000,-0.008285,0.363284,-0.008285,0.363284,$1*%
%AMFreePoly4*
4,1,14,0.363284,0.088284,0.375000,0.060000,0.375000,-0.060000,0.363284,-0.088284,0.335000,-0.100000,-0.238431,-0.100000,-0.266715,-0.088284,-0.363284,0.008285,-0.375000,0.036569,-0.375000,0.060000,-0.363284,0.088284,-0.335000,0.100000,0.335000,0.100000,0.363284,0.088284,0.363284,0.088284,$1*%
%AMFreePoly5*
4,1,14,0.363284,0.088284,0.375000,0.060000,0.375000,-0.060000,0.363284,-0.088284,0.335000,-0.100000,-0.335000,-0.100000,-0.363284,-0.088284,-0.375000,-0.060000,-0.375000,-0.036569,-0.363284,-0.008285,-0.266715,0.088284,-0.238431,0.100000,0.335000,0.100000,0.363284,0.088284,0.363284,0.088284,$1*%
%AMFreePoly6*
4,1,14,0.088284,0.363284,0.100000,0.335000,0.100000,-0.238431,0.088284,-0.266715,-0.008285,-0.363284,-0.036569,-0.375000,-0.060000,-0.375000,-0.088284,-0.363284,-0.100000,-0.335000,-0.100000,0.335000,-0.088284,0.363284,-0.060000,0.375000,0.060000,0.375000,0.088284,0.363284,0.088284,0.363284,$1*%
%AMFreePoly7*
4,1,14,0.088284,0.363284,0.100000,0.335000,0.100000,-0.335000,0.088284,-0.363284,0.060000,-0.375000,0.036569,-0.375000,0.008285,-0.363284,-0.088284,-0.266715,-0.100000,-0.238431,-0.100000,0.335000,-0.088284,0.363284,-0.060000,0.375000,0.060000,0.375000,0.088284,0.363284,0.088284,0.363284,$1*%
%AMFreePoly8*
4,1,9,5.362500,-0.866500,1.237500,-0.866500,1.237500,-0.450000,-1.237500,-0.450000,-1.237500,0.450000,1.237500,0.450000,1.237500,0.866500,5.362500,0.866500,5.362500,-0.866500,5.362500,-0.866500,$1*%
G04 Aperture macros list end*
%ADD10C,0.150000*%
%ADD11C,0.300000*%
%ADD12C,0.120000*%
%ADD13R,1.500000X1.500000*%
%ADD14RoundRect,0.237500X0.300000X0.237500X-0.300000X0.237500X-0.300000X-0.237500X0.300000X-0.237500X0*%
%ADD15RoundRect,0.237500X0.237500X-0.300000X0.237500X0.300000X-0.237500X0.300000X-0.237500X-0.300000X0*%
%ADD16R,0.400000X1.500000*%
%ADD17R,1.000000X1.500000*%
%ADD18FreePoly0,270.000000*%
%ADD19RoundRect,0.050000X-0.050000X0.325000X-0.050000X-0.325000X0.050000X-0.325000X0.050000X0.325000X0*%
%ADD20FreePoly1,270.000000*%
%ADD21FreePoly2,270.000000*%
%ADD22RoundRect,0.050000X-0.325000X0.050000X-0.325000X-0.050000X0.325000X-0.050000X0.325000X0.050000X0*%
%ADD23FreePoly3,270.000000*%
%ADD24FreePoly4,270.000000*%
%ADD25FreePoly5,270.000000*%
%ADD26FreePoly6,270.000000*%
%ADD27FreePoly7,270.000000*%
%ADD28C,4.000000*%
%ADD29RoundRect,0.250001X0.462499X0.849999X-0.462499X0.849999X-0.462499X-0.849999X0.462499X-0.849999X0*%
%ADD30RoundRect,0.237500X-0.237500X0.300000X-0.237500X-0.300000X0.237500X-0.300000X0.237500X0.300000X0*%
%ADD31R,0.900000X2.300000*%
%ADD32FreePoly8,90.000000*%
%ADD33RoundRect,0.250000X0.450000X-0.350000X0.450000X0.350000X-0.450000X0.350000X-0.450000X-0.350000X0*%
%ADD34RoundRect,0.250000X0.350000X0.450000X-0.350000X0.450000X-0.350000X-0.450000X0.350000X-0.450000X0*%
%ADD35R,1.500000X1.000000*%
%ADD36RoundRect,0.250000X0.412500X0.650000X-0.412500X0.650000X-0.412500X-0.650000X0.412500X-0.650000X0*%
%ADD37R,2.000000X0.650000*%
%ADD38RoundRect,0.150000X-0.150000X0.825000X-0.150000X-0.825000X0.150000X-0.825000X0.150000X0.825000X0*%
%ADD39R,3.000000X2.290000*%
%ADD40RoundRect,0.250000X-0.450000X0.350000X-0.450000X-0.350000X0.450000X-0.350000X0.450000X0.350000X0*%
%ADD41R,2.400000X2.400000*%
%ADD42C,2.400000*%
%ADD43C,2.235200*%
%ADD44RoundRect,0.075000X-0.662500X-0.075000X0.662500X-0.075000X0.662500X0.075000X-0.662500X0.075000X0*%
%ADD45RoundRect,0.075000X-0.075000X-0.662500X0.075000X-0.662500X0.075000X0.662500X-0.075000X0.662500X0*%
%ADD46RoundRect,0.150000X0.587500X0.150000X-0.587500X0.150000X-0.587500X-0.150000X0.587500X-0.150000X0*%
%ADD47R,1.700000X1.700000*%
%ADD48O,1.700000X1.700000*%
%ADD49R,3.500000X2.300000*%
%ADD50RoundRect,0.150000X-0.825000X-0.150000X0.825000X-0.150000X0.825000X0.150000X-0.825000X0.150000X0*%
%ADD51R,0.800000X1.500000*%
%ADD52R,1.450000X2.000000*%
%ADD53R,1.600000X1.600000*%
%ADD54C,1.600000*%
%ADD55RoundRect,0.200000X0.200000X0.250000X-0.200000X0.250000X-0.200000X-0.250000X0.200000X-0.250000X0*%
%ADD56RoundRect,0.250000X-0.350000X-0.450000X0.350000X-0.450000X0.350000X0.450000X-0.350000X0.450000X0*%
%ADD57R,0.450000X0.200000*%
%ADD58R,0.300000X2.800000*%
G04 APERTURE END LIST*
D10*
X81407047Y-106497428D02*
X82168952Y-106497428D01*
X81788000Y-106878380D02*
X81788000Y-106116476D01*
X13501904Y-82002380D02*
X13835238Y-83002380D01*
X14168571Y-82002380D01*
X14501904Y-83002380D02*
X14501904Y-82002380D01*
X14882857Y-82002380D01*
X14978095Y-82050000D01*
X15025714Y-82097619D01*
X15073333Y-82192857D01*
X15073333Y-82335714D01*
X15025714Y-82430952D01*
X14978095Y-82478571D01*
X14882857Y-82526190D01*
X14501904Y-82526190D01*
X15454285Y-82716666D02*
X15930476Y-82716666D01*
X15359047Y-83002380D02*
X15692380Y-82002380D01*
X16025714Y-83002380D01*
X16311428Y-82097619D02*
X16359047Y-82050000D01*
X16454285Y-82002380D01*
X16692380Y-82002380D01*
X16787619Y-82050000D01*
X16835238Y-82097619D01*
X16882857Y-82192857D01*
X16882857Y-82288095D01*
X16835238Y-82430952D01*
X16263809Y-83002380D01*
X16882857Y-83002380D01*
X14486095Y-76922380D02*
X14819428Y-77922380D01*
X15152761Y-76922380D01*
X15486095Y-77922380D02*
X15486095Y-76922380D01*
X15867047Y-76922380D01*
X15962285Y-76970000D01*
X16009904Y-77017619D01*
X16057523Y-77112857D01*
X16057523Y-77255714D01*
X16009904Y-77350952D01*
X15962285Y-77398571D01*
X15867047Y-77446190D01*
X15486095Y-77446190D01*
X16438476Y-77636666D02*
X16914666Y-77636666D01*
X16343238Y-77922380D02*
X16676571Y-76922380D01*
X17009904Y-77922380D01*
X92988095Y-69238761D02*
X93130952Y-69286380D01*
X93369047Y-69286380D01*
X93464285Y-69238761D01*
X93511904Y-69191142D01*
X93559523Y-69095904D01*
X93559523Y-69000666D01*
X93511904Y-68905428D01*
X93464285Y-68857809D01*
X93369047Y-68810190D01*
X93178571Y-68762571D01*
X93083333Y-68714952D01*
X93035714Y-68667333D01*
X92988095Y-68572095D01*
X92988095Y-68476857D01*
X93035714Y-68381619D01*
X93083333Y-68334000D01*
X93178571Y-68286380D01*
X93416666Y-68286380D01*
X93559523Y-68334000D01*
X93892857Y-68286380D02*
X94130952Y-69286380D01*
X94321428Y-68572095D01*
X94511904Y-69286380D01*
X94750000Y-68286380D01*
X95702380Y-69191142D02*
X95654761Y-69238761D01*
X95511904Y-69286380D01*
X95416666Y-69286380D01*
X95273809Y-69238761D01*
X95178571Y-69143523D01*
X95130952Y-69048285D01*
X95083333Y-68857809D01*
X95083333Y-68714952D01*
X95130952Y-68524476D01*
X95178571Y-68429238D01*
X95273809Y-68334000D01*
X95416666Y-68286380D01*
X95511904Y-68286380D01*
X95654761Y-68334000D01*
X95702380Y-68381619D01*
X96607142Y-69286380D02*
X96130952Y-69286380D01*
X96130952Y-68286380D01*
X96940476Y-69286380D02*
X96940476Y-68286380D01*
X97511904Y-69286380D02*
X97083333Y-68714952D01*
X97511904Y-68286380D02*
X96940476Y-68857809D01*
X84836095Y-106180000D02*
X84740857Y-106132380D01*
X84598000Y-106132380D01*
X84455142Y-106180000D01*
X84359904Y-106275238D01*
X84312285Y-106370476D01*
X84264666Y-106560952D01*
X84264666Y-106703809D01*
X84312285Y-106894285D01*
X84359904Y-106989523D01*
X84455142Y-107084761D01*
X84598000Y-107132380D01*
X84693238Y-107132380D01*
X84836095Y-107084761D01*
X84883714Y-107037142D01*
X84883714Y-106703809D01*
X84693238Y-106703809D01*
X85312285Y-107132380D02*
X85312285Y-106132380D01*
X85883714Y-107132380D01*
X85883714Y-106132380D01*
X86359904Y-107132380D02*
X86359904Y-106132380D01*
X86598000Y-106132380D01*
X86740857Y-106180000D01*
X86836095Y-106275238D01*
X86883714Y-106370476D01*
X86931333Y-106560952D01*
X86931333Y-106703809D01*
X86883714Y-106894285D01*
X86836095Y-106989523D01*
X86740857Y-107084761D01*
X86598000Y-107132380D01*
X86359904Y-107132380D01*
X92876952Y-64158761D02*
X93019809Y-64206380D01*
X93257904Y-64206380D01*
X93353142Y-64158761D01*
X93400761Y-64111142D01*
X93448380Y-64015904D01*
X93448380Y-63920666D01*
X93400761Y-63825428D01*
X93353142Y-63777809D01*
X93257904Y-63730190D01*
X93067428Y-63682571D01*
X92972190Y-63634952D01*
X92924571Y-63587333D01*
X92876952Y-63492095D01*
X92876952Y-63396857D01*
X92924571Y-63301619D01*
X92972190Y-63254000D01*
X93067428Y-63206380D01*
X93305523Y-63206380D01*
X93448380Y-63254000D01*
X93781714Y-63206380D02*
X94019809Y-64206380D01*
X94210285Y-63492095D01*
X94400761Y-64206380D01*
X94638857Y-63206380D01*
X95019809Y-64206380D02*
X95019809Y-63206380D01*
X95257904Y-63206380D01*
X95400761Y-63254000D01*
X95496000Y-63349238D01*
X95543619Y-63444476D01*
X95591238Y-63634952D01*
X95591238Y-63777809D01*
X95543619Y-63968285D01*
X95496000Y-64063523D01*
X95400761Y-64158761D01*
X95257904Y-64206380D01*
X95019809Y-64206380D01*
X96019809Y-64206380D02*
X96019809Y-63206380D01*
X96686476Y-63206380D02*
X96876952Y-63206380D01*
X96972190Y-63254000D01*
X97067428Y-63349238D01*
X97115047Y-63539714D01*
X97115047Y-63873047D01*
X97067428Y-64063523D01*
X96972190Y-64158761D01*
X96876952Y-64206380D01*
X96686476Y-64206380D01*
X96591238Y-64158761D01*
X96496000Y-64063523D01*
X96448380Y-63873047D01*
X96448380Y-63539714D01*
X96496000Y-63349238D01*
X96591238Y-63254000D01*
X96686476Y-63206380D01*
X106838571Y-23518857D02*
X106886190Y-23471238D01*
X107029047Y-23423619D01*
X107124285Y-23423619D01*
X107267142Y-23471238D01*
X107362380Y-23566476D01*
X107410000Y-23661714D01*
X107457619Y-23852190D01*
X107457619Y-23995047D01*
X107410000Y-24185523D01*
X107362380Y-24280761D01*
X107267142Y-24376000D01*
X107124285Y-24423619D01*
X107029047Y-24423619D01*
X106886190Y-24376000D01*
X106838571Y-24328380D01*
X106457619Y-23709333D02*
X105981428Y-23709333D01*
X106552857Y-23423619D02*
X106219523Y-24423619D01*
X105886190Y-23423619D01*
X105552857Y-23423619D02*
X105552857Y-24423619D01*
X104981428Y-23423619D01*
X104981428Y-24423619D01*
X103267142Y-23423619D02*
X103743333Y-23423619D01*
X103743333Y-24423619D01*
X101623619Y-23518857D02*
X101671238Y-23471238D01*
X101814095Y-23423619D01*
X101909333Y-23423619D01*
X102052190Y-23471238D01*
X102147428Y-23566476D01*
X102195047Y-23661714D01*
X102242666Y-23852190D01*
X102242666Y-23995047D01*
X102195047Y-24185523D01*
X102147428Y-24280761D01*
X102052190Y-24376000D01*
X101909333Y-24423619D01*
X101814095Y-24423619D01*
X101671238Y-24376000D01*
X101623619Y-24328380D01*
X101242666Y-23709333D02*
X100766476Y-23709333D01*
X101337904Y-23423619D02*
X101004571Y-24423619D01*
X100671238Y-23423619D01*
X100337904Y-23423619D02*
X100337904Y-24423619D01*
X99766476Y-23423619D01*
X99766476Y-24423619D01*
X98528380Y-23423619D02*
X98528380Y-24423619D01*
X98528380Y-23947428D02*
X97956952Y-23947428D01*
X97956952Y-23423619D02*
X97956952Y-24423619D01*
X93099142Y-74366380D02*
X93099142Y-73366380D01*
X93670571Y-74366380D01*
X93670571Y-73366380D01*
X94718190Y-74366380D02*
X94384857Y-73890190D01*
X94146761Y-74366380D02*
X94146761Y-73366380D01*
X94527714Y-73366380D01*
X94622952Y-73414000D01*
X94670571Y-73461619D01*
X94718190Y-73556857D01*
X94718190Y-73699714D01*
X94670571Y-73794952D01*
X94622952Y-73842571D01*
X94527714Y-73890190D01*
X94146761Y-73890190D01*
X95099142Y-74318761D02*
X95242000Y-74366380D01*
X95480095Y-74366380D01*
X95575333Y-74318761D01*
X95622952Y-74271142D01*
X95670571Y-74175904D01*
X95670571Y-74080666D01*
X95622952Y-73985428D01*
X95575333Y-73937809D01*
X95480095Y-73890190D01*
X95289619Y-73842571D01*
X95194380Y-73794952D01*
X95146761Y-73747333D01*
X95099142Y-73652095D01*
X95099142Y-73556857D01*
X95146761Y-73461619D01*
X95194380Y-73414000D01*
X95289619Y-73366380D01*
X95527714Y-73366380D01*
X95670571Y-73414000D01*
X95956285Y-73366380D02*
X96527714Y-73366380D01*
X96242000Y-74366380D02*
X96242000Y-73366380D01*
X93472095Y-70620000D02*
X93376857Y-70572380D01*
X93234000Y-70572380D01*
X93091142Y-70620000D01*
X92995904Y-70715238D01*
X92948285Y-70810476D01*
X92900666Y-71000952D01*
X92900666Y-71143809D01*
X92948285Y-71334285D01*
X92995904Y-71429523D01*
X93091142Y-71524761D01*
X93234000Y-71572380D01*
X93329238Y-71572380D01*
X93472095Y-71524761D01*
X93519714Y-71477142D01*
X93519714Y-71143809D01*
X93329238Y-71143809D01*
X93948285Y-71572380D02*
X93948285Y-70572380D01*
X94519714Y-71572380D01*
X94519714Y-70572380D01*
X94995904Y-71572380D02*
X94995904Y-70572380D01*
X95234000Y-70572380D01*
X95376857Y-70620000D01*
X95472095Y-70715238D01*
X95519714Y-70810476D01*
X95567333Y-71000952D01*
X95567333Y-71143809D01*
X95519714Y-71334285D01*
X95472095Y-71429523D01*
X95376857Y-71524761D01*
X95234000Y-71572380D01*
X94995904Y-71572380D01*
D11*
X14762571Y7554428D02*
X15262571Y6054428D01*
X15762571Y7554428D01*
X17119714Y6054428D02*
X16619714Y6768714D01*
X16262571Y6054428D02*
X16262571Y7554428D01*
X16833999Y7554428D01*
X16976857Y7483000D01*
X17048285Y7411571D01*
X17119714Y7268714D01*
X17119714Y7054428D01*
X17048285Y6911571D01*
X16976857Y6840142D01*
X16833999Y6768714D01*
X16262571Y6768714D01*
X17762571Y6840142D02*
X18262571Y6840142D01*
X18476857Y6054428D02*
X17762571Y6054428D01*
X17762571Y7554428D01*
X18476857Y7554428D01*
X19619714Y6840142D02*
X19119714Y6840142D01*
X19119714Y6054428D02*
X19119714Y7554428D01*
X19833999Y7554428D01*
X20405428Y6625857D02*
X21548285Y6625857D01*
X20976857Y6054428D02*
X20976857Y7197285D01*
X24048285Y6125857D02*
X23905428Y6054428D01*
X23619714Y6054428D01*
X23476857Y6125857D01*
X23405428Y6197285D01*
X23333999Y6340142D01*
X23333999Y6768714D01*
X23405428Y6911571D01*
X23476857Y6983000D01*
X23619714Y7054428D01*
X23905428Y7054428D01*
X24048285Y6983000D01*
X25333999Y6054428D02*
X25333999Y6840142D01*
X25262571Y6983000D01*
X25119714Y7054428D01*
X24833999Y7054428D01*
X24691142Y6983000D01*
X25333999Y6125857D02*
X25191142Y6054428D01*
X24833999Y6054428D01*
X24691142Y6125857D01*
X24619714Y6268714D01*
X24619714Y6411571D01*
X24691142Y6554428D01*
X24833999Y6625857D01*
X25191142Y6625857D01*
X25333999Y6697285D01*
X26048285Y7054428D02*
X26048285Y5554428D01*
X26048285Y6983000D02*
X26191142Y7054428D01*
X26476857Y7054428D01*
X26619714Y6983000D01*
X26691142Y6911571D01*
X26762571Y6768714D01*
X26762571Y6340142D01*
X26691142Y6197285D01*
X26619714Y6125857D01*
X26476857Y6054428D01*
X26191142Y6054428D01*
X26048285Y6125857D01*
X28048285Y6054428D02*
X28048285Y6840142D01*
X27976857Y6983000D01*
X27833999Y7054428D01*
X27548285Y7054428D01*
X27405428Y6983000D01*
X28048285Y6125857D02*
X27905428Y6054428D01*
X27548285Y6054428D01*
X27405428Y6125857D01*
X27333999Y6268714D01*
X27333999Y6411571D01*
X27405428Y6554428D01*
X27548285Y6625857D01*
X27905428Y6625857D01*
X28048285Y6697285D01*
X29405428Y6125857D02*
X29262571Y6054428D01*
X28976857Y6054428D01*
X28833999Y6125857D01*
X28762571Y6197285D01*
X28691142Y6340142D01*
X28691142Y6768714D01*
X28762571Y6911571D01*
X28833999Y6983000D01*
X28976857Y7054428D01*
X29262571Y7054428D01*
X29405428Y6983000D01*
X30048285Y6054428D02*
X30048285Y7054428D01*
X30048285Y7554428D02*
X29976857Y7483000D01*
X30048285Y7411571D01*
X30119714Y7483000D01*
X30048285Y7554428D01*
X30048285Y7411571D01*
X30548285Y7054428D02*
X31119714Y7054428D01*
X30762571Y7554428D02*
X30762571Y6268714D01*
X30833999Y6125857D01*
X30976857Y6054428D01*
X31119714Y6054428D01*
X31833999Y6054428D02*
X31691142Y6125857D01*
X31619714Y6197285D01*
X31548285Y6340142D01*
X31548285Y6768714D01*
X31619714Y6911571D01*
X31691142Y6983000D01*
X31833999Y7054428D01*
X32048285Y7054428D01*
X32191142Y6983000D01*
X32262571Y6911571D01*
X32333999Y6768714D01*
X32333999Y6340142D01*
X32262571Y6197285D01*
X32191142Y6125857D01*
X32048285Y6054428D01*
X31833999Y6054428D01*
X32976857Y6054428D02*
X32976857Y7054428D01*
X32976857Y6768714D02*
X33048285Y6911571D01*
X33119714Y6983000D01*
X33262571Y7054428D01*
X33405428Y7054428D01*
X33833999Y6125857D02*
X33976857Y6054428D01*
X34262571Y6054428D01*
X34405428Y6125857D01*
X34476857Y6268714D01*
X34476857Y6340142D01*
X34405428Y6483000D01*
X34262571Y6554428D01*
X34048285Y6554428D01*
X33905428Y6625857D01*
X33833999Y6768714D01*
X33833999Y6840142D01*
X33905428Y6983000D01*
X34048285Y7054428D01*
X34262571Y7054428D01*
X34405428Y6983000D01*
X35191142Y6125857D02*
X35191142Y6054428D01*
X35119714Y5911571D01*
X35048285Y5840142D01*
X36333999Y6840142D02*
X35833999Y6840142D01*
X35833999Y6054428D02*
X35833999Y7554428D01*
X36548285Y7554428D01*
X37905428Y6054428D02*
X37048285Y6054428D01*
X37476857Y6054428D02*
X37476857Y7554428D01*
X37333999Y7340142D01*
X37191142Y7197285D01*
X37048285Y7125857D01*
X39691142Y7054428D02*
X39691142Y6054428D01*
X39691142Y6911571D02*
X39762571Y6983000D01*
X39905428Y7054428D01*
X40119714Y7054428D01*
X40262571Y6983000D01*
X40333999Y6840142D01*
X40333999Y6054428D01*
X41619714Y6125857D02*
X41476857Y6054428D01*
X41191142Y6054428D01*
X41048285Y6125857D01*
X40976857Y6268714D01*
X40976857Y6840142D01*
X41048285Y6983000D01*
X41191142Y7054428D01*
X41476857Y7054428D01*
X41619714Y6983000D01*
X41691142Y6840142D01*
X41691142Y6697285D01*
X40976857Y6554428D01*
X42905428Y6125857D02*
X42762571Y6054428D01*
X42476857Y6054428D01*
X42333999Y6125857D01*
X42262571Y6268714D01*
X42262571Y6840142D01*
X42333999Y6983000D01*
X42476857Y7054428D01*
X42762571Y7054428D01*
X42905428Y6983000D01*
X42976857Y6840142D01*
X42976857Y6697285D01*
X42262571Y6554428D01*
X44262571Y6054428D02*
X44262571Y7554428D01*
X44262571Y6125857D02*
X44119714Y6054428D01*
X43833999Y6054428D01*
X43691142Y6125857D01*
X43619714Y6197285D01*
X43548285Y6340142D01*
X43548285Y6768714D01*
X43619714Y6911571D01*
X43691142Y6983000D01*
X43833999Y7054428D01*
X44119714Y7054428D01*
X44262571Y6983000D01*
X44905428Y6125857D02*
X45048285Y6054428D01*
X45333999Y6054428D01*
X45476857Y6125857D01*
X45548285Y6268714D01*
X45548285Y6340142D01*
X45476857Y6483000D01*
X45333999Y6554428D01*
X45119714Y6554428D01*
X44976857Y6625857D01*
X44905428Y6768714D01*
X44905428Y6840142D01*
X44976857Y6983000D01*
X45119714Y7054428D01*
X45333999Y7054428D01*
X45476857Y6983000D01*
X47119714Y7054428D02*
X47691142Y7054428D01*
X47333999Y7554428D02*
X47333999Y6268714D01*
X47405428Y6125857D01*
X47548285Y6054428D01*
X47691142Y6054428D01*
X48405428Y6054428D02*
X48262571Y6125857D01*
X48191142Y6197285D01*
X48119714Y6340142D01*
X48119714Y6768714D01*
X48191142Y6911571D01*
X48262571Y6983000D01*
X48405428Y7054428D01*
X48619714Y7054428D01*
X48762571Y6983000D01*
X48833999Y6911571D01*
X48905428Y6768714D01*
X48905428Y6340142D01*
X48833999Y6197285D01*
X48762571Y6125857D01*
X48619714Y6054428D01*
X48405428Y6054428D01*
X50691142Y6054428D02*
X50691142Y7554428D01*
X50691142Y6983000D02*
X50833999Y7054428D01*
X51119714Y7054428D01*
X51262571Y6983000D01*
X51333999Y6911571D01*
X51405428Y6768714D01*
X51405428Y6340142D01*
X51333999Y6197285D01*
X51262571Y6125857D01*
X51119714Y6054428D01*
X50833999Y6054428D01*
X50691142Y6125857D01*
X52619714Y6125857D02*
X52476857Y6054428D01*
X52191142Y6054428D01*
X52048285Y6125857D01*
X51976857Y6268714D01*
X51976857Y6840142D01*
X52048285Y6983000D01*
X52191142Y7054428D01*
X52476857Y7054428D01*
X52619714Y6983000D01*
X52691142Y6840142D01*
X52691142Y6697285D01*
X51976857Y6554428D01*
X54262571Y7054428D02*
X54833999Y7054428D01*
X54476857Y6054428D02*
X54476857Y7340142D01*
X54548285Y7483000D01*
X54691142Y7554428D01*
X54833999Y7554428D01*
X55333999Y6054428D02*
X55333999Y7054428D01*
X55333999Y7554428D02*
X55262571Y7483000D01*
X55333999Y7411571D01*
X55405428Y7483000D01*
X55333999Y7554428D01*
X55333999Y7411571D01*
X55905428Y6054428D02*
X56691142Y7054428D01*
X55905428Y7054428D02*
X56691142Y6054428D01*
X57833999Y6125857D02*
X57691142Y6054428D01*
X57405428Y6054428D01*
X57262571Y6125857D01*
X57191142Y6268714D01*
X57191142Y6840142D01*
X57262571Y6983000D01*
X57405428Y7054428D01*
X57691142Y7054428D01*
X57833999Y6983000D01*
X57905428Y6840142D01*
X57905428Y6697285D01*
X57191142Y6554428D01*
X59191142Y6054428D02*
X59191142Y7554428D01*
X59191142Y6125857D02*
X59048285Y6054428D01*
X58762571Y6054428D01*
X58619714Y6125857D01*
X58548285Y6197285D01*
X58476857Y6340142D01*
X58476857Y6768714D01*
X58548285Y6911571D01*
X58619714Y6983000D01*
X58762571Y7054428D01*
X59048285Y7054428D01*
X59191142Y6983000D01*
X18048285Y3639428D02*
X17333999Y3639428D01*
X17333999Y5139428D01*
X19191142Y3639428D02*
X19191142Y4425142D01*
X19119714Y4568000D01*
X18976857Y4639428D01*
X18691142Y4639428D01*
X18548285Y4568000D01*
X19191142Y3710857D02*
X19048285Y3639428D01*
X18691142Y3639428D01*
X18548285Y3710857D01*
X18476857Y3853714D01*
X18476857Y3996571D01*
X18548285Y4139428D01*
X18691142Y4210857D01*
X19048285Y4210857D01*
X19191142Y4282285D01*
X19905428Y3639428D02*
X19905428Y5139428D01*
X19905428Y4568000D02*
X20048285Y4639428D01*
X20333999Y4639428D01*
X20476857Y4568000D01*
X20548285Y4496571D01*
X20619714Y4353714D01*
X20619714Y3925142D01*
X20548285Y3782285D01*
X20476857Y3710857D01*
X20333999Y3639428D01*
X20048285Y3639428D01*
X19905428Y3710857D01*
X21833999Y3710857D02*
X21691142Y3639428D01*
X21405428Y3639428D01*
X21262571Y3710857D01*
X21191142Y3853714D01*
X21191142Y4425142D01*
X21262571Y4568000D01*
X21405428Y4639428D01*
X21691142Y4639428D01*
X21833999Y4568000D01*
X21905428Y4425142D01*
X21905428Y4282285D01*
X21191142Y4139428D01*
X22762571Y3639428D02*
X22619714Y3710857D01*
X22548285Y3853714D01*
X22548285Y5139428D01*
X23333999Y3639428D02*
X23333999Y4639428D01*
X23333999Y5139428D02*
X23262571Y5068000D01*
X23333999Y4996571D01*
X23405428Y5068000D01*
X23333999Y5139428D01*
X23333999Y4996571D01*
X24048285Y4639428D02*
X24048285Y3639428D01*
X24048285Y4496571D02*
X24119714Y4568000D01*
X24262571Y4639428D01*
X24476857Y4639428D01*
X24619714Y4568000D01*
X24691142Y4425142D01*
X24691142Y3639428D01*
X26048285Y4639428D02*
X26048285Y3425142D01*
X25976857Y3282285D01*
X25905428Y3210857D01*
X25762571Y3139428D01*
X25548285Y3139428D01*
X25405428Y3210857D01*
X26048285Y3710857D02*
X25905428Y3639428D01*
X25619714Y3639428D01*
X25476857Y3710857D01*
X25405428Y3782285D01*
X25333999Y3925142D01*
X25333999Y4353714D01*
X25405428Y4496571D01*
X25476857Y4568000D01*
X25619714Y4639428D01*
X25905428Y4639428D01*
X26048285Y4568000D01*
X27691142Y4639428D02*
X28262571Y4639428D01*
X27905428Y5139428D02*
X27905428Y3853714D01*
X27976857Y3710857D01*
X28119714Y3639428D01*
X28262571Y3639428D01*
X29333999Y3710857D02*
X29191142Y3639428D01*
X28905428Y3639428D01*
X28762571Y3710857D01*
X28691142Y3853714D01*
X28691142Y4425142D01*
X28762571Y4568000D01*
X28905428Y4639428D01*
X29191142Y4639428D01*
X29333999Y4568000D01*
X29405428Y4425142D01*
X29405428Y4282285D01*
X28691142Y4139428D01*
X29976857Y3710857D02*
X30119714Y3639428D01*
X30405428Y3639428D01*
X30548285Y3710857D01*
X30619714Y3853714D01*
X30619714Y3925142D01*
X30548285Y4068000D01*
X30405428Y4139428D01*
X30191142Y4139428D01*
X30048285Y4210857D01*
X29976857Y4353714D01*
X29976857Y4425142D01*
X30048285Y4568000D01*
X30191142Y4639428D01*
X30405428Y4639428D01*
X30548285Y4568000D01*
X31048285Y4639428D02*
X31619714Y4639428D01*
X31262571Y5139428D02*
X31262571Y3853714D01*
X31333999Y3710857D01*
X31476857Y3639428D01*
X31619714Y3639428D01*
X33262571Y4639428D02*
X33262571Y3139428D01*
X33262571Y4568000D02*
X33405428Y4639428D01*
X33691142Y4639428D01*
X33833999Y4568000D01*
X33905428Y4496571D01*
X33976857Y4353714D01*
X33976857Y3925142D01*
X33905428Y3782285D01*
X33833999Y3710857D01*
X33691142Y3639428D01*
X33405428Y3639428D01*
X33262571Y3710857D01*
X34833999Y3639428D02*
X34691142Y3710857D01*
X34619714Y3782285D01*
X34548285Y3925142D01*
X34548285Y4353714D01*
X34619714Y4496571D01*
X34691142Y4568000D01*
X34833999Y4639428D01*
X35048285Y4639428D01*
X35191142Y4568000D01*
X35262571Y4496571D01*
X35333999Y4353714D01*
X35333999Y3925142D01*
X35262571Y3782285D01*
X35191142Y3710857D01*
X35048285Y3639428D01*
X34833999Y3639428D01*
X35976857Y3639428D02*
X35976857Y4639428D01*
X35976857Y5139428D02*
X35905428Y5068000D01*
X35976857Y4996571D01*
X36048285Y5068000D01*
X35976857Y5139428D01*
X35976857Y4996571D01*
X36691142Y4639428D02*
X36691142Y3639428D01*
X36691142Y4496571D02*
X36762571Y4568000D01*
X36905428Y4639428D01*
X37119714Y4639428D01*
X37262571Y4568000D01*
X37333999Y4425142D01*
X37333999Y3639428D01*
X37833999Y4639428D02*
X38405428Y4639428D01*
X38048285Y5139428D02*
X38048285Y3853714D01*
X38119714Y3710857D01*
X38262571Y3639428D01*
X38405428Y3639428D01*
X38834000Y3710857D02*
X38976857Y3639428D01*
X39262571Y3639428D01*
X39405428Y3710857D01*
X39476857Y3853714D01*
X39476857Y3925142D01*
X39405428Y4068000D01*
X39262571Y4139428D01*
X39048285Y4139428D01*
X38905428Y4210857D01*
X38834000Y4353714D01*
X38834000Y4425142D01*
X38905428Y4568000D01*
X39048285Y4639428D01*
X39262571Y4639428D01*
X39405428Y4568000D01*
X40191142Y3710857D02*
X40191142Y3639428D01*
X40119714Y3496571D01*
X40048285Y3425142D01*
X41905428Y3710857D02*
X42119714Y3639428D01*
X42476857Y3639428D01*
X42619714Y3710857D01*
X42691142Y3782285D01*
X42762571Y3925142D01*
X42762571Y4068000D01*
X42691142Y4210857D01*
X42619714Y4282285D01*
X42476857Y4353714D01*
X42191142Y4425142D01*
X42048285Y4496571D01*
X41976857Y4568000D01*
X41905428Y4710857D01*
X41905428Y4853714D01*
X41976857Y4996571D01*
X42048285Y5068000D01*
X42191142Y5139428D01*
X42548285Y5139428D01*
X42762571Y5068000D01*
X43262571Y5139428D02*
X43619714Y3639428D01*
X43905428Y4710857D01*
X44191142Y3639428D01*
X44548285Y5139428D01*
X46905428Y3639428D02*
X46905428Y5139428D01*
X46905428Y3710857D02*
X46762571Y3639428D01*
X46476857Y3639428D01*
X46333999Y3710857D01*
X46262571Y3782285D01*
X46191142Y3925142D01*
X46191142Y4353714D01*
X46262571Y4496571D01*
X46333999Y4568000D01*
X46476857Y4639428D01*
X46762571Y4639428D01*
X46905428Y4568000D01*
X48191142Y3710857D02*
X48048285Y3639428D01*
X47762571Y3639428D01*
X47619714Y3710857D01*
X47548285Y3853714D01*
X47548285Y4425142D01*
X47619714Y4568000D01*
X47762571Y4639428D01*
X48048285Y4639428D01*
X48191142Y4568000D01*
X48262571Y4425142D01*
X48262571Y4282285D01*
X47548285Y4139428D01*
X48905428Y3639428D02*
X48905428Y5139428D01*
X48905428Y4568000D02*
X49048285Y4639428D01*
X49333999Y4639428D01*
X49476857Y4568000D01*
X49548285Y4496571D01*
X49619714Y4353714D01*
X49619714Y3925142D01*
X49548285Y3782285D01*
X49476857Y3710857D01*
X49333999Y3639428D01*
X49048285Y3639428D01*
X48905428Y3710857D01*
X50905428Y4639428D02*
X50905428Y3639428D01*
X50262571Y4639428D02*
X50262571Y3853714D01*
X50333999Y3710857D01*
X50476857Y3639428D01*
X50691142Y3639428D01*
X50833999Y3710857D01*
X50905428Y3782285D01*
X52262571Y4639428D02*
X52262571Y3425142D01*
X52191142Y3282285D01*
X52119714Y3210857D01*
X51976857Y3139428D01*
X51762571Y3139428D01*
X51619714Y3210857D01*
X52262571Y3710857D02*
X52119714Y3639428D01*
X51834000Y3639428D01*
X51691142Y3710857D01*
X51619714Y3782285D01*
X51548285Y3925142D01*
X51548285Y4353714D01*
X51619714Y4496571D01*
X51691142Y4568000D01*
X51834000Y4639428D01*
X52119714Y4639428D01*
X52262571Y4568000D01*
X54691142Y3710857D02*
X54548285Y3639428D01*
X54262571Y3639428D01*
X54119714Y3710857D01*
X54048285Y3853714D01*
X54048285Y4425142D01*
X54119714Y4568000D01*
X54262571Y4639428D01*
X54548285Y4639428D01*
X54691142Y4568000D01*
X54762571Y4425142D01*
X54762571Y4282285D01*
X54048285Y4139428D01*
X55191142Y4639428D02*
X55762571Y4639428D01*
X55405428Y5139428D02*
X55405428Y3853714D01*
X55476857Y3710857D01*
X55619714Y3639428D01*
X55762571Y3639428D01*
X56905428Y3710857D02*
X56762571Y3639428D01*
X56476857Y3639428D01*
X56333999Y3710857D01*
X56262571Y3782285D01*
X56191142Y3925142D01*
X56191142Y4353714D01*
X56262571Y4496571D01*
X56333999Y4568000D01*
X56476857Y4639428D01*
X56762571Y4639428D01*
X56905428Y4568000D01*
X10262571Y2724428D02*
X10619714Y1224428D01*
X10905428Y2295857D01*
X11191142Y1224428D01*
X11548285Y2724428D01*
X12119714Y1224428D02*
X12119714Y2224428D01*
X12119714Y2724428D02*
X12048285Y2653000D01*
X12119714Y2581571D01*
X12191142Y2653000D01*
X12119714Y2724428D01*
X12119714Y2581571D01*
X13048285Y1224428D02*
X12905428Y1295857D01*
X12834000Y1438714D01*
X12834000Y2724428D01*
X13834000Y1224428D02*
X13691142Y1295857D01*
X13619714Y1438714D01*
X13619714Y2724428D01*
X15548285Y1224428D02*
X15548285Y2724428D01*
X16191142Y1224428D02*
X16191142Y2010142D01*
X16119714Y2153000D01*
X15976857Y2224428D01*
X15762571Y2224428D01*
X15619714Y2153000D01*
X15548285Y2081571D01*
X17548285Y1224428D02*
X17548285Y2010142D01*
X17476857Y2153000D01*
X17333999Y2224428D01*
X17048285Y2224428D01*
X16905428Y2153000D01*
X17548285Y1295857D02*
X17405428Y1224428D01*
X17048285Y1224428D01*
X16905428Y1295857D01*
X16833999Y1438714D01*
X16833999Y1581571D01*
X16905428Y1724428D01*
X17048285Y1795857D01*
X17405428Y1795857D01*
X17548285Y1867285D01*
X18119714Y2224428D02*
X18476857Y1224428D01*
X18834000Y2224428D01*
X19976857Y1295857D02*
X19834000Y1224428D01*
X19548285Y1224428D01*
X19405428Y1295857D01*
X19334000Y1438714D01*
X19334000Y2010142D01*
X19405428Y2153000D01*
X19548285Y2224428D01*
X19834000Y2224428D01*
X19976857Y2153000D01*
X20048285Y2010142D01*
X20048285Y1867285D01*
X19334000Y1724428D01*
X21619714Y2224428D02*
X22191142Y2224428D01*
X21834000Y2724428D02*
X21834000Y1438714D01*
X21905428Y1295857D01*
X22048285Y1224428D01*
X22191142Y1224428D01*
X22905428Y1224428D02*
X22762571Y1295857D01*
X22691142Y1367285D01*
X22619714Y1510142D01*
X22619714Y1938714D01*
X22691142Y2081571D01*
X22762571Y2153000D01*
X22905428Y2224428D01*
X23119714Y2224428D01*
X23262571Y2153000D01*
X23334000Y2081571D01*
X23405428Y1938714D01*
X23405428Y1510142D01*
X23334000Y1367285D01*
X23262571Y1295857D01*
X23119714Y1224428D01*
X22905428Y1224428D01*
X25191142Y1224428D02*
X25191142Y2724428D01*
X25191142Y2153000D02*
X25333999Y2224428D01*
X25619714Y2224428D01*
X25762571Y2153000D01*
X25833999Y2081571D01*
X25905428Y1938714D01*
X25905428Y1510142D01*
X25833999Y1367285D01*
X25762571Y1295857D01*
X25619714Y1224428D01*
X25333999Y1224428D01*
X25191142Y1295857D01*
X27119714Y1295857D02*
X26976857Y1224428D01*
X26691142Y1224428D01*
X26548285Y1295857D01*
X26476857Y1438714D01*
X26476857Y2010142D01*
X26548285Y2153000D01*
X26691142Y2224428D01*
X26976857Y2224428D01*
X27119714Y2153000D01*
X27191142Y2010142D01*
X27191142Y1867285D01*
X26476857Y1724428D01*
X28976857Y1224428D02*
X28976857Y2224428D01*
X28976857Y1938714D02*
X29048285Y2081571D01*
X29119714Y2153000D01*
X29262571Y2224428D01*
X29405428Y2224428D01*
X30476857Y1295857D02*
X30333999Y1224428D01*
X30048285Y1224428D01*
X29905428Y1295857D01*
X29833999Y1438714D01*
X29833999Y2010142D01*
X29905428Y2153000D01*
X30048285Y2224428D01*
X30333999Y2224428D01*
X30476857Y2153000D01*
X30548285Y2010142D01*
X30548285Y1867285D01*
X29833999Y1724428D01*
X31405428Y1224428D02*
X31262571Y1295857D01*
X31191142Y1438714D01*
X31191142Y2724428D01*
X32619714Y1224428D02*
X32619714Y2010142D01*
X32548285Y2153000D01*
X32405428Y2224428D01*
X32119714Y2224428D01*
X31976857Y2153000D01*
X32619714Y1295857D02*
X32476857Y1224428D01*
X32119714Y1224428D01*
X31976857Y1295857D01*
X31905428Y1438714D01*
X31905428Y1581571D01*
X31976857Y1724428D01*
X32119714Y1795857D01*
X32476857Y1795857D01*
X32619714Y1867285D01*
X33334000Y1224428D02*
X33334000Y2224428D01*
X33334000Y2724428D02*
X33262571Y2653000D01*
X33334000Y2581571D01*
X33405428Y2653000D01*
X33334000Y2724428D01*
X33334000Y2581571D01*
X34691142Y1224428D02*
X34691142Y2724428D01*
X34691142Y1295857D02*
X34548285Y1224428D01*
X34262571Y1224428D01*
X34119714Y1295857D01*
X34048285Y1367285D01*
X33976857Y1510142D01*
X33976857Y1938714D01*
X34048285Y2081571D01*
X34119714Y2153000D01*
X34262571Y2224428D01*
X34548285Y2224428D01*
X34691142Y2153000D01*
X36334000Y2224428D02*
X36905428Y2224428D01*
X36548285Y1224428D02*
X36548285Y2510142D01*
X36619714Y2653000D01*
X36762571Y2724428D01*
X36905428Y2724428D01*
X37619714Y1224428D02*
X37476857Y1295857D01*
X37405428Y1367285D01*
X37334000Y1510142D01*
X37334000Y1938714D01*
X37405428Y2081571D01*
X37476857Y2153000D01*
X37619714Y2224428D01*
X37834000Y2224428D01*
X37976857Y2153000D01*
X38048285Y2081571D01*
X38119714Y1938714D01*
X38119714Y1510142D01*
X38048285Y1367285D01*
X37976857Y1295857D01*
X37834000Y1224428D01*
X37619714Y1224428D01*
X38762571Y1224428D02*
X38762571Y2224428D01*
X38762571Y1938714D02*
X38834000Y2081571D01*
X38905428Y2153000D01*
X39048285Y2224428D01*
X39191142Y2224428D01*
X40834000Y1224428D02*
X40834000Y2224428D01*
X40834000Y2081571D02*
X40905428Y2153000D01*
X41048285Y2224428D01*
X41262571Y2224428D01*
X41405428Y2153000D01*
X41476857Y2010142D01*
X41476857Y1224428D01*
X41476857Y2010142D02*
X41548285Y2153000D01*
X41691142Y2224428D01*
X41905428Y2224428D01*
X42048285Y2153000D01*
X42119714Y2010142D01*
X42119714Y1224428D01*
X43048285Y1224428D02*
X42905428Y1295857D01*
X42834000Y1367285D01*
X42762571Y1510142D01*
X42762571Y1938714D01*
X42834000Y2081571D01*
X42905428Y2153000D01*
X43048285Y2224428D01*
X43262571Y2224428D01*
X43405428Y2153000D01*
X43476857Y2081571D01*
X43548285Y1938714D01*
X43548285Y1510142D01*
X43476857Y1367285D01*
X43405428Y1295857D01*
X43262571Y1224428D01*
X43048285Y1224428D01*
X44191142Y1224428D02*
X44191142Y2224428D01*
X44191142Y1938714D02*
X44262571Y2081571D01*
X44334000Y2153000D01*
X44476857Y2224428D01*
X44619714Y2224428D01*
X45691142Y1295857D02*
X45548285Y1224428D01*
X45262571Y1224428D01*
X45119714Y1295857D01*
X45048285Y1438714D01*
X45048285Y2010142D01*
X45119714Y2153000D01*
X45262571Y2224428D01*
X45548285Y2224428D01*
X45691142Y2153000D01*
X45762571Y2010142D01*
X45762571Y1867285D01*
X45048285Y1724428D01*
X48191142Y1295857D02*
X48048285Y1224428D01*
X47762571Y1224428D01*
X47619714Y1295857D01*
X47548285Y1367285D01*
X47476857Y1510142D01*
X47476857Y1938714D01*
X47548285Y2081571D01*
X47619714Y2153000D01*
X47762571Y2224428D01*
X48048285Y2224428D01*
X48191142Y2153000D01*
X49476857Y2224428D02*
X49476857Y1224428D01*
X48833999Y2224428D02*
X48833999Y1438714D01*
X48905428Y1295857D01*
X49048285Y1224428D01*
X49262571Y1224428D01*
X49405428Y1295857D01*
X49476857Y1367285D01*
X50119714Y1295857D02*
X50262571Y1224428D01*
X50548285Y1224428D01*
X50691142Y1295857D01*
X50762571Y1438714D01*
X50762571Y1510142D01*
X50691142Y1653000D01*
X50548285Y1724428D01*
X50333999Y1724428D01*
X50191142Y1795857D01*
X50119714Y1938714D01*
X50119714Y2010142D01*
X50191142Y2153000D01*
X50333999Y2224428D01*
X50548285Y2224428D01*
X50691142Y2153000D01*
X51191142Y2224428D02*
X51762571Y2224428D01*
X51405428Y2724428D02*
X51405428Y1438714D01*
X51476857Y1295857D01*
X51619714Y1224428D01*
X51762571Y1224428D01*
X52476857Y1224428D02*
X52333999Y1295857D01*
X52262571Y1367285D01*
X52191142Y1510142D01*
X52191142Y1938714D01*
X52262571Y2081571D01*
X52333999Y2153000D01*
X52476857Y2224428D01*
X52691142Y2224428D01*
X52833999Y2153000D01*
X52905428Y2081571D01*
X52976857Y1938714D01*
X52976857Y1510142D01*
X52905428Y1367285D01*
X52833999Y1295857D01*
X52691142Y1224428D01*
X52476857Y1224428D01*
X53619714Y1224428D02*
X53619714Y2224428D01*
X53619714Y2081571D02*
X53691142Y2153000D01*
X53834000Y2224428D01*
X54048285Y2224428D01*
X54191142Y2153000D01*
X54262571Y2010142D01*
X54262571Y1224428D01*
X54262571Y2010142D02*
X54334000Y2153000D01*
X54476857Y2224428D01*
X54691142Y2224428D01*
X54834000Y2153000D01*
X54905428Y2010142D01*
X54905428Y1224428D01*
X55619714Y1224428D02*
X55619714Y2224428D01*
X55619714Y2724428D02*
X55548285Y2653000D01*
X55619714Y2581571D01*
X55691142Y2653000D01*
X55619714Y2724428D01*
X55619714Y2581571D01*
X56262571Y1295857D02*
X56405428Y1224428D01*
X56691142Y1224428D01*
X56834000Y1295857D01*
X56905428Y1438714D01*
X56905428Y1510142D01*
X56834000Y1653000D01*
X56691142Y1724428D01*
X56476857Y1724428D01*
X56334000Y1795857D01*
X56262571Y1938714D01*
X56262571Y2010142D01*
X56334000Y2153000D01*
X56476857Y2224428D01*
X56691142Y2224428D01*
X56834000Y2153000D01*
X58191142Y1224428D02*
X58191142Y2010142D01*
X58119714Y2153000D01*
X57976857Y2224428D01*
X57691142Y2224428D01*
X57548285Y2153000D01*
X58191142Y1295857D02*
X58048285Y1224428D01*
X57691142Y1224428D01*
X57548285Y1295857D01*
X57476857Y1438714D01*
X57476857Y1581571D01*
X57548285Y1724428D01*
X57691142Y1795857D01*
X58048285Y1795857D01*
X58191142Y1867285D01*
X58905428Y1224428D02*
X58905428Y2724428D01*
X58905428Y2153000D02*
X59048285Y2224428D01*
X59334000Y2224428D01*
X59476857Y2153000D01*
X59548285Y2081571D01*
X59619714Y1938714D01*
X59619714Y1510142D01*
X59548285Y1367285D01*
X59476857Y1295857D01*
X59334000Y1224428D01*
X59048285Y1224428D01*
X58905428Y1295857D01*
X60262571Y1224428D02*
X60262571Y2224428D01*
X60262571Y2724428D02*
X60191142Y2653000D01*
X60262571Y2581571D01*
X60334000Y2653000D01*
X60262571Y2724428D01*
X60262571Y2581571D01*
X61191142Y1224428D02*
X61048285Y1295857D01*
X60976857Y1438714D01*
X60976857Y2724428D01*
X61762571Y1224428D02*
X61762571Y2224428D01*
X61762571Y2724428D02*
X61691142Y2653000D01*
X61762571Y2581571D01*
X61834000Y2653000D01*
X61762571Y2724428D01*
X61762571Y2581571D01*
X62262571Y2224428D02*
X62834000Y2224428D01*
X62476857Y2724428D02*
X62476857Y1438714D01*
X62548285Y1295857D01*
X62691142Y1224428D01*
X62834000Y1224428D01*
X63191142Y2224428D02*
X63548285Y1224428D01*
X63905428Y2224428D02*
X63548285Y1224428D01*
X63405428Y867285D01*
X63334000Y795857D01*
X63191142Y724428D01*
D10*
X15938523Y-89622380D02*
X15462333Y-89622380D01*
X15414714Y-90098571D01*
X15462333Y-90050952D01*
X15557571Y-90003333D01*
X15795666Y-90003333D01*
X15890904Y-90050952D01*
X15938523Y-90098571D01*
X15986142Y-90193809D01*
X15986142Y-90431904D01*
X15938523Y-90527142D01*
X15890904Y-90574761D01*
X15795666Y-90622380D01*
X15557571Y-90622380D01*
X15462333Y-90574761D01*
X15414714Y-90527142D01*
X16271857Y-89622380D02*
X16605190Y-90622380D01*
X16938523Y-89622380D01*
X14986095Y-79510000D02*
X14890857Y-79462380D01*
X14748000Y-79462380D01*
X14605142Y-79510000D01*
X14509904Y-79605238D01*
X14462285Y-79700476D01*
X14414666Y-79890952D01*
X14414666Y-80033809D01*
X14462285Y-80224285D01*
X14509904Y-80319523D01*
X14605142Y-80414761D01*
X14748000Y-80462380D01*
X14843238Y-80462380D01*
X14986095Y-80414761D01*
X15033714Y-80367142D01*
X15033714Y-80033809D01*
X14843238Y-80033809D01*
X15462285Y-80462380D02*
X15462285Y-79462380D01*
X16033714Y-80462380D01*
X16033714Y-79462380D01*
X16509904Y-80462380D02*
X16509904Y-79462380D01*
X16748000Y-79462380D01*
X16890857Y-79510000D01*
X16986095Y-79605238D01*
X17033714Y-79700476D01*
X17081333Y-79890952D01*
X17081333Y-80033809D01*
X17033714Y-80224285D01*
X16986095Y-80319523D01*
X16890857Y-80414761D01*
X16748000Y-80462380D01*
X16509904Y-80462380D01*
X14986095Y-84590000D02*
X14890857Y-84542380D01*
X14748000Y-84542380D01*
X14605142Y-84590000D01*
X14509904Y-84685238D01*
X14462285Y-84780476D01*
X14414666Y-84970952D01*
X14414666Y-85113809D01*
X14462285Y-85304285D01*
X14509904Y-85399523D01*
X14605142Y-85494761D01*
X14748000Y-85542380D01*
X14843238Y-85542380D01*
X14986095Y-85494761D01*
X15033714Y-85447142D01*
X15033714Y-85113809D01*
X14843238Y-85113809D01*
X15462285Y-85542380D02*
X15462285Y-84542380D01*
X16033714Y-85542380D01*
X16033714Y-84542380D01*
X16509904Y-85542380D02*
X16509904Y-84542380D01*
X16748000Y-84542380D01*
X16890857Y-84590000D01*
X16986095Y-84685238D01*
X17033714Y-84780476D01*
X17081333Y-84970952D01*
X17081333Y-85113809D01*
X17033714Y-85304285D01*
X16986095Y-85399523D01*
X16890857Y-85494761D01*
X16748000Y-85542380D01*
X16509904Y-85542380D01*
X14890857Y-87558571D02*
X15033714Y-87606190D01*
X15081333Y-87653809D01*
X15128952Y-87749047D01*
X15128952Y-87891904D01*
X15081333Y-87987142D01*
X15033714Y-88034761D01*
X14938476Y-88082380D01*
X14557523Y-88082380D01*
X14557523Y-87082380D01*
X14890857Y-87082380D01*
X14986095Y-87130000D01*
X15033714Y-87177619D01*
X15081333Y-87272857D01*
X15081333Y-87368095D01*
X15033714Y-87463333D01*
X14986095Y-87510952D01*
X14890857Y-87558571D01*
X14557523Y-87558571D01*
X15509904Y-88034761D02*
X15652761Y-88082380D01*
X15890857Y-88082380D01*
X15986095Y-88034761D01*
X16033714Y-87987142D01*
X16081333Y-87891904D01*
X16081333Y-87796666D01*
X16033714Y-87701428D01*
X15986095Y-87653809D01*
X15890857Y-87606190D01*
X15700380Y-87558571D01*
X15605142Y-87510952D01*
X15557523Y-87463333D01*
X15509904Y-87368095D01*
X15509904Y-87272857D01*
X15557523Y-87177619D01*
X15605142Y-87130000D01*
X15700380Y-87082380D01*
X15938476Y-87082380D01*
X16081333Y-87130000D01*
X16509904Y-87558571D02*
X16843238Y-87558571D01*
X16986095Y-88082380D02*
X16509904Y-88082380D01*
X16509904Y-87082380D01*
X16986095Y-87082380D01*
X93472095Y-65794000D02*
X93376857Y-65746380D01*
X93234000Y-65746380D01*
X93091142Y-65794000D01*
X92995904Y-65889238D01*
X92948285Y-65984476D01*
X92900666Y-66174952D01*
X92900666Y-66317809D01*
X92948285Y-66508285D01*
X92995904Y-66603523D01*
X93091142Y-66698761D01*
X93234000Y-66746380D01*
X93329238Y-66746380D01*
X93472095Y-66698761D01*
X93519714Y-66651142D01*
X93519714Y-66317809D01*
X93329238Y-66317809D01*
X93948285Y-66746380D02*
X93948285Y-65746380D01*
X94519714Y-66746380D01*
X94519714Y-65746380D01*
X94995904Y-66746380D02*
X94995904Y-65746380D01*
X95234000Y-65746380D01*
X95376857Y-65794000D01*
X95472095Y-65889238D01*
X95519714Y-65984476D01*
X95567333Y-66174952D01*
X95567333Y-66317809D01*
X95519714Y-66508285D01*
X95472095Y-66603523D01*
X95376857Y-66698761D01*
X95234000Y-66746380D01*
X94995904Y-66746380D01*
X92779595Y-50723280D02*
X93351023Y-50723280D01*
X93065309Y-51723280D02*
X93065309Y-50723280D01*
X93684357Y-51723280D02*
X93684357Y-50723280D01*
X94065309Y-50723280D01*
X94160547Y-50770900D01*
X94208166Y-50818519D01*
X94255785Y-50913757D01*
X94255785Y-51056614D01*
X94208166Y-51151852D01*
X94160547Y-51199471D01*
X94065309Y-51247090D01*
X93684357Y-51247090D01*
X95112928Y-51056614D02*
X95112928Y-51723280D01*
X94874833Y-50675661D02*
X94636738Y-51389947D01*
X95255785Y-51389947D01*
X92576395Y-39318680D02*
X93147823Y-39318680D01*
X92862109Y-40318680D02*
X92862109Y-39318680D01*
X93481157Y-40318680D02*
X93481157Y-39318680D01*
X93862109Y-39318680D01*
X93957347Y-39366300D01*
X94004966Y-39413919D01*
X94052585Y-39509157D01*
X94052585Y-39652014D01*
X94004966Y-39747252D01*
X93957347Y-39794871D01*
X93862109Y-39842490D01*
X93481157Y-39842490D01*
X94385919Y-39318680D02*
X95004966Y-39318680D01*
X94671633Y-39699633D01*
X94814490Y-39699633D01*
X94909728Y-39747252D01*
X94957347Y-39794871D01*
X95004966Y-39890109D01*
X95004966Y-40128204D01*
X94957347Y-40223442D01*
X94909728Y-40271061D01*
X94814490Y-40318680D01*
X94528776Y-40318680D01*
X94433538Y-40271061D01*
X94385919Y-40223442D01*
X26027142Y-67667142D02*
X25979523Y-67714761D01*
X25836666Y-67762380D01*
X25741428Y-67762380D01*
X25598571Y-67714761D01*
X25503333Y-67619523D01*
X25455714Y-67524285D01*
X25408095Y-67333809D01*
X25408095Y-67190952D01*
X25455714Y-67000476D01*
X25503333Y-66905238D01*
X25598571Y-66810000D01*
X25741428Y-66762380D01*
X25836666Y-66762380D01*
X25979523Y-66810000D01*
X26027142Y-66857619D01*
X26408095Y-66857619D02*
X26455714Y-66810000D01*
X26550952Y-66762380D01*
X26789047Y-66762380D01*
X26884285Y-66810000D01*
X26931904Y-66857619D01*
X26979523Y-66952857D01*
X26979523Y-67048095D01*
X26931904Y-67190952D01*
X26360476Y-67762380D01*
X26979523Y-67762380D01*
X27884285Y-66762380D02*
X27408095Y-66762380D01*
X27360476Y-67238571D01*
X27408095Y-67190952D01*
X27503333Y-67143333D01*
X27741428Y-67143333D01*
X27836666Y-67190952D01*
X27884285Y-67238571D01*
X27931904Y-67333809D01*
X27931904Y-67571904D01*
X27884285Y-67667142D01*
X27836666Y-67714761D01*
X27741428Y-67762380D01*
X27503333Y-67762380D01*
X27408095Y-67714761D01*
X27360476Y-67667142D01*
X63965142Y-91547124D02*
X64012761Y-91594743D01*
X64060380Y-91737600D01*
X64060380Y-91832838D01*
X64012761Y-91975695D01*
X63917523Y-92070933D01*
X63822285Y-92118552D01*
X63631809Y-92166171D01*
X63488952Y-92166171D01*
X63298476Y-92118552D01*
X63203238Y-92070933D01*
X63108000Y-91975695D01*
X63060380Y-91832838D01*
X63060380Y-91737600D01*
X63108000Y-91594743D01*
X63155619Y-91547124D01*
X63155619Y-91166171D02*
X63108000Y-91118552D01*
X63060380Y-91023314D01*
X63060380Y-90785219D01*
X63108000Y-90689981D01*
X63155619Y-90642362D01*
X63250857Y-90594743D01*
X63346095Y-90594743D01*
X63488952Y-90642362D01*
X64060380Y-91213790D01*
X64060380Y-90594743D01*
X63155619Y-90213790D02*
X63108000Y-90166171D01*
X63060380Y-90070933D01*
X63060380Y-89832838D01*
X63108000Y-89737600D01*
X63155619Y-89689981D01*
X63250857Y-89642362D01*
X63346095Y-89642362D01*
X63488952Y-89689981D01*
X64060380Y-90261409D01*
X64060380Y-89642362D01*
X87990180Y-66719295D02*
X88799704Y-66719295D01*
X88894942Y-66671676D01*
X88942561Y-66624057D01*
X88990180Y-66528819D01*
X88990180Y-66338342D01*
X88942561Y-66243104D01*
X88894942Y-66195485D01*
X88799704Y-66147866D01*
X87990180Y-66147866D01*
X88990180Y-65147866D02*
X88990180Y-65719295D01*
X88990180Y-65433580D02*
X87990180Y-65433580D01*
X88133038Y-65528819D01*
X88228276Y-65624057D01*
X88275895Y-65719295D01*
X88990180Y-64195485D02*
X88990180Y-64766914D01*
X88990180Y-64481200D02*
X87990180Y-64481200D01*
X88133038Y-64576438D01*
X88228276Y-64671676D01*
X88275895Y-64766914D01*
X34472666Y-62444380D02*
X34472666Y-63158666D01*
X34425047Y-63301523D01*
X34329809Y-63396761D01*
X34186952Y-63444380D01*
X34091714Y-63444380D01*
X34948857Y-63444380D02*
X34948857Y-62444380D01*
X35329809Y-62444380D01*
X35425047Y-62492000D01*
X35472666Y-62539619D01*
X35520285Y-62634857D01*
X35520285Y-62777714D01*
X35472666Y-62872952D01*
X35425047Y-62920571D01*
X35329809Y-62968190D01*
X34948857Y-62968190D01*
X36472666Y-63444380D02*
X35901238Y-63444380D01*
X36186952Y-63444380D02*
X36186952Y-62444380D01*
X36091714Y-62587238D01*
X35996476Y-62682476D01*
X35901238Y-62730095D01*
X32686666Y-62444380D02*
X33305714Y-62444380D01*
X32972380Y-62825333D01*
X33115238Y-62825333D01*
X33210476Y-62872952D01*
X33258095Y-62920571D01*
X33305714Y-63015809D01*
X33305714Y-63253904D01*
X33258095Y-63349142D01*
X33210476Y-63396761D01*
X33115238Y-63444380D01*
X32829523Y-63444380D01*
X32734285Y-63396761D01*
X32686666Y-63349142D01*
X35947114Y-65476380D02*
X35375685Y-65476380D01*
X35661400Y-65476380D02*
X35661400Y-64476380D01*
X35566161Y-64619238D01*
X35470923Y-64714476D01*
X35375685Y-64762095D01*
X65975580Y-75285504D02*
X66785104Y-75285504D01*
X66880342Y-75237885D01*
X66927961Y-75190266D01*
X66975580Y-75095028D01*
X66975580Y-74904552D01*
X66927961Y-74809314D01*
X66880342Y-74761695D01*
X66785104Y-74714076D01*
X65975580Y-74714076D01*
X65975580Y-73761695D02*
X65975580Y-74237885D01*
X66451771Y-74285504D01*
X66404152Y-74237885D01*
X66356533Y-74142647D01*
X66356533Y-73904552D01*
X66404152Y-73809314D01*
X66451771Y-73761695D01*
X66547009Y-73714076D01*
X66785104Y-73714076D01*
X66880342Y-73761695D01*
X66927961Y-73809314D01*
X66975580Y-73904552D01*
X66975580Y-74142647D01*
X66927961Y-74237885D01*
X66880342Y-74285504D01*
X127762095Y-25598380D02*
X127762095Y-24598380D01*
X127762095Y-25074571D02*
X128333523Y-25074571D01*
X128333523Y-25598380D02*
X128333523Y-24598380D01*
X128714476Y-24598380D02*
X129333523Y-24598380D01*
X129000190Y-24979333D01*
X129143047Y-24979333D01*
X129238285Y-25026952D01*
X129285904Y-25074571D01*
X129333523Y-25169809D01*
X129333523Y-25407904D01*
X129285904Y-25503142D01*
X129238285Y-25550761D01*
X129143047Y-25598380D01*
X128857333Y-25598380D01*
X128762095Y-25550761D01*
X128714476Y-25503142D01*
X57345333Y-88162380D02*
X56869142Y-88162380D01*
X56869142Y-87162380D01*
X57631047Y-87257619D02*
X57678666Y-87210000D01*
X57773904Y-87162380D01*
X58012000Y-87162380D01*
X58107238Y-87210000D01*
X58154857Y-87257619D01*
X58202476Y-87352857D01*
X58202476Y-87448095D01*
X58154857Y-87590952D01*
X57583428Y-88162380D01*
X58202476Y-88162380D01*
X64398142Y-78951057D02*
X64445761Y-78998676D01*
X64493380Y-79141533D01*
X64493380Y-79236771D01*
X64445761Y-79379628D01*
X64350523Y-79474866D01*
X64255285Y-79522485D01*
X64064809Y-79570104D01*
X63921952Y-79570104D01*
X63731476Y-79522485D01*
X63636238Y-79474866D01*
X63541000Y-79379628D01*
X63493380Y-79236771D01*
X63493380Y-79141533D01*
X63541000Y-78998676D01*
X63588619Y-78951057D01*
X63588619Y-78570104D02*
X63541000Y-78522485D01*
X63493380Y-78427247D01*
X63493380Y-78189152D01*
X63541000Y-78093914D01*
X63588619Y-78046295D01*
X63683857Y-77998676D01*
X63779095Y-77998676D01*
X63921952Y-78046295D01*
X64493380Y-78617723D01*
X64493380Y-77998676D01*
X63921952Y-77427247D02*
X63874333Y-77522485D01*
X63826714Y-77570104D01*
X63731476Y-77617723D01*
X63683857Y-77617723D01*
X63588619Y-77570104D01*
X63541000Y-77522485D01*
X63493380Y-77427247D01*
X63493380Y-77236771D01*
X63541000Y-77141533D01*
X63588619Y-77093914D01*
X63683857Y-77046295D01*
X63731476Y-77046295D01*
X63826714Y-77093914D01*
X63874333Y-77141533D01*
X63921952Y-77236771D01*
X63921952Y-77427247D01*
X63969571Y-77522485D01*
X64017190Y-77570104D01*
X64112428Y-77617723D01*
X64302904Y-77617723D01*
X64398142Y-77570104D01*
X64445761Y-77522485D01*
X64493380Y-77427247D01*
X64493380Y-77236771D01*
X64445761Y-77141533D01*
X64398142Y-77093914D01*
X64302904Y-77046295D01*
X64112428Y-77046295D01*
X64017190Y-77093914D01*
X63969571Y-77141533D01*
X63921952Y-77236771D01*
X43196380Y-87329904D02*
X44005904Y-87329904D01*
X44101142Y-87282285D01*
X44148761Y-87234666D01*
X44196380Y-87139428D01*
X44196380Y-86948952D01*
X44148761Y-86853714D01*
X44101142Y-86806095D01*
X44005904Y-86758476D01*
X43196380Y-86758476D01*
X44196380Y-85758476D02*
X44196380Y-86329904D01*
X44196380Y-86044190D02*
X43196380Y-86044190D01*
X43339238Y-86139428D01*
X43434476Y-86234666D01*
X43482095Y-86329904D01*
X42899380Y-93946504D02*
X42899380Y-93375076D01*
X43899380Y-93660790D02*
X42899380Y-93660790D01*
X43899380Y-93041742D02*
X42899380Y-93041742D01*
X42899380Y-92660790D01*
X42947000Y-92565552D01*
X42994619Y-92517933D01*
X43089857Y-92470314D01*
X43232714Y-92470314D01*
X43327952Y-92517933D01*
X43375571Y-92565552D01*
X43423190Y-92660790D01*
X43423190Y-93041742D01*
X42899380Y-92136980D02*
X42899380Y-91470314D01*
X43899380Y-91898885D01*
X49760142Y-93378257D02*
X49807761Y-93425876D01*
X49855380Y-93568733D01*
X49855380Y-93663971D01*
X49807761Y-93806828D01*
X49712523Y-93902066D01*
X49617285Y-93949685D01*
X49426809Y-93997304D01*
X49283952Y-93997304D01*
X49093476Y-93949685D01*
X48998238Y-93902066D01*
X48903000Y-93806828D01*
X48855380Y-93663971D01*
X48855380Y-93568733D01*
X48903000Y-93425876D01*
X48950619Y-93378257D01*
X49855380Y-92425876D02*
X49855380Y-92997304D01*
X49855380Y-92711590D02*
X48855380Y-92711590D01*
X48998238Y-92806828D01*
X49093476Y-92902066D01*
X49141095Y-92997304D01*
X48950619Y-92044923D02*
X48903000Y-91997304D01*
X48855380Y-91902066D01*
X48855380Y-91663971D01*
X48903000Y-91568733D01*
X48950619Y-91521114D01*
X49045857Y-91473495D01*
X49141095Y-91473495D01*
X49283952Y-91521114D01*
X49855380Y-92092542D01*
X49855380Y-91473495D01*
X28510980Y-70975457D02*
X28034790Y-71308790D01*
X28510980Y-71546885D02*
X27510980Y-71546885D01*
X27510980Y-71165933D01*
X27558600Y-71070695D01*
X27606219Y-71023076D01*
X27701457Y-70975457D01*
X27844314Y-70975457D01*
X27939552Y-71023076D01*
X27987171Y-71070695D01*
X28034790Y-71165933D01*
X28034790Y-71546885D01*
X28510980Y-70023076D02*
X28510980Y-70594504D01*
X28510980Y-70308790D02*
X27510980Y-70308790D01*
X27653838Y-70404028D01*
X27749076Y-70499266D01*
X27796695Y-70594504D01*
X27510980Y-69689742D02*
X27510980Y-69023076D01*
X28510980Y-69451647D01*
X34866342Y-71597780D02*
X34533009Y-71121590D01*
X34294914Y-71597780D02*
X34294914Y-70597780D01*
X34675866Y-70597780D01*
X34771104Y-70645400D01*
X34818723Y-70693019D01*
X34866342Y-70788257D01*
X34866342Y-70931114D01*
X34818723Y-71026352D01*
X34771104Y-71073971D01*
X34675866Y-71121590D01*
X34294914Y-71121590D01*
X35818723Y-71597780D02*
X35247295Y-71597780D01*
X35533009Y-71597780D02*
X35533009Y-70597780D01*
X35437771Y-70740638D01*
X35342533Y-70835876D01*
X35247295Y-70883495D01*
X36771104Y-71597780D02*
X36199676Y-71597780D01*
X36485390Y-71597780D02*
X36485390Y-70597780D01*
X36390152Y-70740638D01*
X36294914Y-70835876D01*
X36199676Y-70883495D01*
X65857941Y-94292892D02*
X65524608Y-93816702D01*
X65286512Y-94292892D02*
X65286512Y-93292892D01*
X65667465Y-93292892D01*
X65762703Y-93340512D01*
X65810322Y-93388131D01*
X65857941Y-93483369D01*
X65857941Y-93626226D01*
X65810322Y-93721464D01*
X65762703Y-93769083D01*
X65667465Y-93816702D01*
X65286512Y-93816702D01*
X66238893Y-93388131D02*
X66286512Y-93340512D01*
X66381750Y-93292892D01*
X66619846Y-93292892D01*
X66715084Y-93340512D01*
X66762703Y-93388131D01*
X66810322Y-93483369D01*
X66810322Y-93578607D01*
X66762703Y-93721464D01*
X66191274Y-94292892D01*
X66810322Y-94292892D01*
X35710780Y-83154733D02*
X36425066Y-83154733D01*
X36567923Y-83202352D01*
X36663161Y-83297590D01*
X36710780Y-83440447D01*
X36710780Y-83535685D01*
X36710780Y-82678542D02*
X35710780Y-82678542D01*
X35710780Y-82297590D01*
X35758400Y-82202352D01*
X35806019Y-82154733D01*
X35901257Y-82107114D01*
X36044114Y-82107114D01*
X36139352Y-82154733D01*
X36186971Y-82202352D01*
X36234590Y-82297590D01*
X36234590Y-82678542D01*
X35806019Y-81726161D02*
X35758400Y-81678542D01*
X35710780Y-81583304D01*
X35710780Y-81345209D01*
X35758400Y-81249971D01*
X35806019Y-81202352D01*
X35901257Y-81154733D01*
X35996495Y-81154733D01*
X36139352Y-81202352D01*
X36710780Y-81773780D01*
X36710780Y-81154733D01*
X34545780Y-85550333D02*
X34545780Y-84931285D01*
X34926733Y-85264619D01*
X34926733Y-85121761D01*
X34974352Y-85026523D01*
X35021971Y-84978904D01*
X35117209Y-84931285D01*
X35355304Y-84931285D01*
X35450542Y-84978904D01*
X35498161Y-85026523D01*
X35545780Y-85121761D01*
X35545780Y-85407476D01*
X35498161Y-85502714D01*
X35450542Y-85550333D01*
X34910780Y-79435685D02*
X34910780Y-80007114D01*
X34910780Y-79721400D02*
X33910780Y-79721400D01*
X34053638Y-79816638D01*
X34148876Y-79911876D01*
X34196495Y-80007114D01*
X58205741Y-96594398D02*
X58158122Y-96642017D01*
X58015265Y-96689636D01*
X57920027Y-96689636D01*
X57777169Y-96642017D01*
X57681931Y-96546779D01*
X57634312Y-96451541D01*
X57586693Y-96261065D01*
X57586693Y-96118208D01*
X57634312Y-95927732D01*
X57681931Y-95832494D01*
X57777169Y-95737256D01*
X57920027Y-95689636D01*
X58015265Y-95689636D01*
X58158122Y-95737256D01*
X58205741Y-95784875D01*
X58539074Y-95689636D02*
X59158122Y-95689636D01*
X58824788Y-96070589D01*
X58967646Y-96070589D01*
X59062884Y-96118208D01*
X59110503Y-96165827D01*
X59158122Y-96261065D01*
X59158122Y-96499160D01*
X59110503Y-96594398D01*
X59062884Y-96642017D01*
X58967646Y-96689636D01*
X58681931Y-96689636D01*
X58586693Y-96642017D01*
X58539074Y-96594398D01*
X24757142Y-84272380D02*
X24423809Y-83796190D01*
X24185714Y-84272380D02*
X24185714Y-83272380D01*
X24566666Y-83272380D01*
X24661904Y-83320000D01*
X24709523Y-83367619D01*
X24757142Y-83462857D01*
X24757142Y-83605714D01*
X24709523Y-83700952D01*
X24661904Y-83748571D01*
X24566666Y-83796190D01*
X24185714Y-83796190D01*
X25709523Y-84272380D02*
X25138095Y-84272380D01*
X25423809Y-84272380D02*
X25423809Y-83272380D01*
X25328571Y-83415238D01*
X25233333Y-83510476D01*
X25138095Y-83558095D01*
X26090476Y-83367619D02*
X26138095Y-83320000D01*
X26233333Y-83272380D01*
X26471428Y-83272380D01*
X26566666Y-83320000D01*
X26614285Y-83367619D01*
X26661904Y-83462857D01*
X26661904Y-83558095D01*
X26614285Y-83700952D01*
X26042857Y-84272380D01*
X26661904Y-84272380D01*
X99650080Y-42944557D02*
X99173890Y-43277890D01*
X99650080Y-43515985D02*
X98650080Y-43515985D01*
X98650080Y-43135033D01*
X98697700Y-43039795D01*
X98745319Y-42992176D01*
X98840557Y-42944557D01*
X98983414Y-42944557D01*
X99078652Y-42992176D01*
X99126271Y-43039795D01*
X99173890Y-43135033D01*
X99173890Y-43515985D01*
X99650080Y-41992176D02*
X99650080Y-42563604D01*
X99650080Y-42277890D02*
X98650080Y-42277890D01*
X98792938Y-42373128D01*
X98888176Y-42468366D01*
X98935795Y-42563604D01*
X98650080Y-41373128D02*
X98650080Y-41277890D01*
X98697700Y-41182652D01*
X98745319Y-41135033D01*
X98840557Y-41087414D01*
X99031033Y-41039795D01*
X99269128Y-41039795D01*
X99459604Y-41087414D01*
X99554842Y-41135033D01*
X99602461Y-41182652D01*
X99650080Y-41277890D01*
X99650080Y-41373128D01*
X99602461Y-41468366D01*
X99554842Y-41515985D01*
X99459604Y-41563604D01*
X99269128Y-41611223D01*
X99031033Y-41611223D01*
X98840557Y-41563604D01*
X98745319Y-41515985D01*
X98697700Y-41468366D01*
X98650080Y-41373128D01*
X59413903Y-95130836D02*
X59413903Y-95940360D01*
X59461522Y-96035598D01*
X59509141Y-96083217D01*
X59604379Y-96130836D01*
X59794855Y-96130836D01*
X59890093Y-96083217D01*
X59937712Y-96035598D01*
X59985331Y-95940360D01*
X59985331Y-95130836D01*
X60413903Y-95226075D02*
X60461522Y-95178456D01*
X60556760Y-95130836D01*
X60794855Y-95130836D01*
X60890093Y-95178456D01*
X60937712Y-95226075D01*
X60985331Y-95321313D01*
X60985331Y-95416551D01*
X60937712Y-95559408D01*
X60366284Y-96130836D01*
X60985331Y-96130836D01*
X33119780Y-76479304D02*
X33929304Y-76479304D01*
X34024542Y-76431685D01*
X34072161Y-76384066D01*
X34119780Y-76288828D01*
X34119780Y-76098352D01*
X34072161Y-76003114D01*
X34024542Y-75955495D01*
X33929304Y-75907876D01*
X33119780Y-75907876D01*
X33453114Y-75003114D02*
X34119780Y-75003114D01*
X33072161Y-75241209D02*
X33786447Y-75479304D01*
X33786447Y-74860257D01*
X29294380Y-66285904D02*
X29294380Y-65714476D01*
X30294380Y-66000190D02*
X29294380Y-66000190D01*
X30294380Y-65381142D02*
X29294380Y-65381142D01*
X29294380Y-65000190D01*
X29342000Y-64904952D01*
X29389619Y-64857333D01*
X29484857Y-64809714D01*
X29627714Y-64809714D01*
X29722952Y-64857333D01*
X29770571Y-64904952D01*
X29818190Y-65000190D01*
X29818190Y-65381142D01*
X29294380Y-63904952D02*
X29294380Y-64381142D01*
X29770571Y-64428761D01*
X29722952Y-64381142D01*
X29675333Y-64285904D01*
X29675333Y-64047809D01*
X29722952Y-63952571D01*
X29770571Y-63904952D01*
X29865809Y-63857333D01*
X30103904Y-63857333D01*
X30199142Y-63904952D01*
X30246761Y-63952571D01*
X30294380Y-64047809D01*
X30294380Y-64285904D01*
X30246761Y-64381142D01*
X30199142Y-64428761D01*
X99551980Y-52050366D02*
X99075790Y-52383700D01*
X99551980Y-52621795D02*
X98551980Y-52621795D01*
X98551980Y-52240842D01*
X98599600Y-52145604D01*
X98647219Y-52097985D01*
X98742457Y-52050366D01*
X98885314Y-52050366D01*
X98980552Y-52097985D01*
X99028171Y-52145604D01*
X99075790Y-52240842D01*
X99075790Y-52621795D01*
X98551980Y-51717033D02*
X98551980Y-51050366D01*
X99551980Y-51478938D01*
X39317580Y-92197133D02*
X40031866Y-92197133D01*
X40174723Y-92244752D01*
X40269961Y-92339990D01*
X40317580Y-92482847D01*
X40317580Y-92578085D01*
X40317580Y-91720942D02*
X39317580Y-91720942D01*
X39317580Y-91339990D01*
X39365200Y-91244752D01*
X39412819Y-91197133D01*
X39508057Y-91149514D01*
X39650914Y-91149514D01*
X39746152Y-91197133D01*
X39793771Y-91244752D01*
X39841390Y-91339990D01*
X39841390Y-91720942D01*
X39317580Y-90816180D02*
X39317580Y-90197133D01*
X39698533Y-90530466D01*
X39698533Y-90387609D01*
X39746152Y-90292371D01*
X39793771Y-90244752D01*
X39889009Y-90197133D01*
X40127104Y-90197133D01*
X40222342Y-90244752D01*
X40269961Y-90292371D01*
X40317580Y-90387609D01*
X40317580Y-90673323D01*
X40269961Y-90768561D01*
X40222342Y-90816180D01*
X38517580Y-88478085D02*
X38517580Y-89049514D01*
X38517580Y-88763800D02*
X37517580Y-88763800D01*
X37660438Y-88859038D01*
X37755676Y-88954276D01*
X37803295Y-89049514D01*
X37517580Y-94297133D02*
X37517580Y-93678085D01*
X37898533Y-94011419D01*
X37898533Y-93868561D01*
X37946152Y-93773323D01*
X37993771Y-93725704D01*
X38089009Y-93678085D01*
X38327104Y-93678085D01*
X38422342Y-93725704D01*
X38469961Y-93773323D01*
X38517580Y-93868561D01*
X38517580Y-94154276D01*
X38469961Y-94249514D01*
X38422342Y-94297133D01*
X14478095Y-103932380D02*
X14478095Y-102932380D01*
X14478095Y-103408571D02*
X15049523Y-103408571D01*
X15049523Y-103932380D02*
X15049523Y-102932380D01*
X15478095Y-103027619D02*
X15525714Y-102980000D01*
X15620952Y-102932380D01*
X15859047Y-102932380D01*
X15954285Y-102980000D01*
X16001904Y-103027619D01*
X16049523Y-103122857D01*
X16049523Y-103218095D01*
X16001904Y-103360952D01*
X15430476Y-103932380D01*
X16049523Y-103932380D01*
X83486666Y-96192380D02*
X83486666Y-96906666D01*
X83439047Y-97049523D01*
X83343809Y-97144761D01*
X83200952Y-97192380D01*
X83105714Y-97192380D01*
X83915238Y-96287619D02*
X83962857Y-96240000D01*
X84058095Y-96192380D01*
X84296190Y-96192380D01*
X84391428Y-96240000D01*
X84439047Y-96287619D01*
X84486666Y-96382857D01*
X84486666Y-96478095D01*
X84439047Y-96620952D01*
X83867619Y-97192380D01*
X84486666Y-97192380D01*
X45474095Y-94603780D02*
X46045523Y-94603780D01*
X45759809Y-95603780D02*
X45759809Y-94603780D01*
X46378857Y-95603780D02*
X46378857Y-94603780D01*
X46759809Y-94603780D01*
X46855047Y-94651400D01*
X46902666Y-94699019D01*
X46950285Y-94794257D01*
X46950285Y-94937114D01*
X46902666Y-95032352D01*
X46855047Y-95079971D01*
X46759809Y-95127590D01*
X46378857Y-95127590D01*
X47902666Y-95603780D02*
X47331238Y-95603780D01*
X47616952Y-95603780D02*
X47616952Y-94603780D01*
X47521714Y-94746638D01*
X47426476Y-94841876D01*
X47331238Y-94889495D01*
X32992780Y-96037304D02*
X33802304Y-96037304D01*
X33897542Y-95989685D01*
X33945161Y-95942066D01*
X33992780Y-95846828D01*
X33992780Y-95656352D01*
X33945161Y-95561114D01*
X33897542Y-95513495D01*
X33802304Y-95465876D01*
X32992780Y-95465876D01*
X32992780Y-95084923D02*
X32992780Y-94418257D01*
X33992780Y-94846828D01*
X71370866Y-96931171D02*
X71037533Y-96931171D01*
X71037533Y-97454980D02*
X71037533Y-96454980D01*
X71513723Y-96454980D01*
X72418485Y-97454980D02*
X71847057Y-97454980D01*
X72132771Y-97454980D02*
X72132771Y-96454980D01*
X72037533Y-96597838D01*
X71942295Y-96693076D01*
X71847057Y-96740695D01*
X56438895Y-46055780D02*
X56438895Y-46865304D01*
X56486514Y-46960542D01*
X56534133Y-47008161D01*
X56629371Y-47055780D01*
X56819847Y-47055780D01*
X56915085Y-47008161D01*
X56962704Y-46960542D01*
X57010323Y-46865304D01*
X57010323Y-46055780D01*
X57391276Y-46055780D02*
X58010323Y-46055780D01*
X57676990Y-46436733D01*
X57819847Y-46436733D01*
X57915085Y-46484352D01*
X57962704Y-46531971D01*
X58010323Y-46627209D01*
X58010323Y-46865304D01*
X57962704Y-46960542D01*
X57915085Y-47008161D01*
X57819847Y-47055780D01*
X57534133Y-47055780D01*
X57438895Y-47008161D01*
X57391276Y-46960542D01*
X107616666Y-27392380D02*
X107616666Y-28106666D01*
X107569047Y-28249523D01*
X107473809Y-28344761D01*
X107330952Y-28392380D01*
X107235714Y-28392380D01*
X108521428Y-27392380D02*
X108330952Y-27392380D01*
X108235714Y-27440000D01*
X108188095Y-27487619D01*
X108092857Y-27630476D01*
X108045238Y-27820952D01*
X108045238Y-28201904D01*
X108092857Y-28297142D01*
X108140476Y-28344761D01*
X108235714Y-28392380D01*
X108426190Y-28392380D01*
X108521428Y-28344761D01*
X108569047Y-28297142D01*
X108616666Y-28201904D01*
X108616666Y-27963809D01*
X108569047Y-27868571D01*
X108521428Y-27820952D01*
X108426190Y-27773333D01*
X108235714Y-27773333D01*
X108140476Y-27820952D01*
X108092857Y-27868571D01*
X108045238Y-27963809D01*
X75977761Y-104560619D02*
X75882523Y-104513000D01*
X75787285Y-104417761D01*
X75644428Y-104274904D01*
X75549190Y-104227285D01*
X75453952Y-104227285D01*
X75501571Y-104465380D02*
X75406333Y-104417761D01*
X75311095Y-104322523D01*
X75263476Y-104132047D01*
X75263476Y-103798714D01*
X75311095Y-103608238D01*
X75406333Y-103513000D01*
X75501571Y-103465380D01*
X75692047Y-103465380D01*
X75787285Y-103513000D01*
X75882523Y-103608238D01*
X75930142Y-103798714D01*
X75930142Y-104132047D01*
X75882523Y-104322523D01*
X75787285Y-104417761D01*
X75692047Y-104465380D01*
X75501571Y-104465380D01*
X76882523Y-104465380D02*
X76311095Y-104465380D01*
X76596809Y-104465380D02*
X76596809Y-103465380D01*
X76501571Y-103608238D01*
X76406333Y-103703476D01*
X76311095Y-103751095D01*
X32361333Y-89580980D02*
X32028000Y-89104790D01*
X31789904Y-89580980D02*
X31789904Y-88580980D01*
X32170857Y-88580980D01*
X32266095Y-88628600D01*
X32313714Y-88676219D01*
X32361333Y-88771457D01*
X32361333Y-88914314D01*
X32313714Y-89009552D01*
X32266095Y-89057171D01*
X32170857Y-89104790D01*
X31789904Y-89104790D01*
X33266095Y-88580980D02*
X32789904Y-88580980D01*
X32742285Y-89057171D01*
X32789904Y-89009552D01*
X32885142Y-88961933D01*
X33123238Y-88961933D01*
X33218476Y-89009552D01*
X33266095Y-89057171D01*
X33313714Y-89152409D01*
X33313714Y-89390504D01*
X33266095Y-89485742D01*
X33218476Y-89533361D01*
X33123238Y-89580980D01*
X32885142Y-89580980D01*
X32789904Y-89533361D01*
X32742285Y-89485742D01*
X58894742Y-72086742D02*
X58847123Y-72134361D01*
X58704266Y-72181980D01*
X58609028Y-72181980D01*
X58466171Y-72134361D01*
X58370933Y-72039123D01*
X58323314Y-71943885D01*
X58275695Y-71753409D01*
X58275695Y-71610552D01*
X58323314Y-71420076D01*
X58370933Y-71324838D01*
X58466171Y-71229600D01*
X58609028Y-71181980D01*
X58704266Y-71181980D01*
X58847123Y-71229600D01*
X58894742Y-71277219D01*
X59275695Y-71277219D02*
X59323314Y-71229600D01*
X59418552Y-71181980D01*
X59656647Y-71181980D01*
X59751885Y-71229600D01*
X59799504Y-71277219D01*
X59847123Y-71372457D01*
X59847123Y-71467695D01*
X59799504Y-71610552D01*
X59228076Y-72181980D01*
X59847123Y-72181980D01*
X60180457Y-71181980D02*
X60847123Y-71181980D01*
X60418552Y-72181980D01*
X90217666Y-57870980D02*
X90217666Y-58585266D01*
X90170047Y-58728123D01*
X90074809Y-58823361D01*
X89931952Y-58870980D01*
X89836714Y-58870980D01*
X91217666Y-58870980D02*
X90646238Y-58870980D01*
X90931952Y-58870980D02*
X90931952Y-57870980D01*
X90836714Y-58013838D01*
X90741476Y-58109076D01*
X90646238Y-58156695D01*
X35504380Y-68492666D02*
X35028190Y-68826000D01*
X35504380Y-69064095D02*
X34504380Y-69064095D01*
X34504380Y-68683142D01*
X34552000Y-68587904D01*
X34599619Y-68540285D01*
X34694857Y-68492666D01*
X34837714Y-68492666D01*
X34932952Y-68540285D01*
X34980571Y-68587904D01*
X35028190Y-68683142D01*
X35028190Y-69064095D01*
X34932952Y-67921238D02*
X34885333Y-68016476D01*
X34837714Y-68064095D01*
X34742476Y-68111714D01*
X34694857Y-68111714D01*
X34599619Y-68064095D01*
X34552000Y-68016476D01*
X34504380Y-67921238D01*
X34504380Y-67730761D01*
X34552000Y-67635523D01*
X34599619Y-67587904D01*
X34694857Y-67540285D01*
X34742476Y-67540285D01*
X34837714Y-67587904D01*
X34885333Y-67635523D01*
X34932952Y-67730761D01*
X34932952Y-67921238D01*
X34980571Y-68016476D01*
X35028190Y-68064095D01*
X35123428Y-68111714D01*
X35313904Y-68111714D01*
X35409142Y-68064095D01*
X35456761Y-68016476D01*
X35504380Y-67921238D01*
X35504380Y-67730761D01*
X35456761Y-67635523D01*
X35409142Y-67587904D01*
X35313904Y-67540285D01*
X35123428Y-67540285D01*
X35028190Y-67587904D01*
X34980571Y-67635523D01*
X34932952Y-67730761D01*
X25077942Y-82620380D02*
X24744609Y-82144190D01*
X24506514Y-82620380D02*
X24506514Y-81620380D01*
X24887466Y-81620380D01*
X24982704Y-81668000D01*
X25030323Y-81715619D01*
X25077942Y-81810857D01*
X25077942Y-81953714D01*
X25030323Y-82048952D01*
X24982704Y-82096571D01*
X24887466Y-82144190D01*
X24506514Y-82144190D01*
X26030323Y-82620380D02*
X25458895Y-82620380D01*
X25744609Y-82620380D02*
X25744609Y-81620380D01*
X25649371Y-81763238D01*
X25554133Y-81858476D01*
X25458895Y-81906095D01*
X26601752Y-82048952D02*
X26506514Y-82001333D01*
X26458895Y-81953714D01*
X26411276Y-81858476D01*
X26411276Y-81810857D01*
X26458895Y-81715619D01*
X26506514Y-81668000D01*
X26601752Y-81620380D01*
X26792228Y-81620380D01*
X26887466Y-81668000D01*
X26935085Y-81715619D01*
X26982704Y-81810857D01*
X26982704Y-81858476D01*
X26935085Y-81953714D01*
X26887466Y-82001333D01*
X26792228Y-82048952D01*
X26601752Y-82048952D01*
X26506514Y-82096571D01*
X26458895Y-82144190D01*
X26411276Y-82239428D01*
X26411276Y-82429904D01*
X26458895Y-82525142D01*
X26506514Y-82572761D01*
X26601752Y-82620380D01*
X26792228Y-82620380D01*
X26887466Y-82572761D01*
X26935085Y-82525142D01*
X26982704Y-82429904D01*
X26982704Y-82239428D01*
X26935085Y-82144190D01*
X26887466Y-82096571D01*
X26792228Y-82048952D01*
X51588942Y-87771266D02*
X51636561Y-87818885D01*
X51684180Y-87961742D01*
X51684180Y-88056980D01*
X51636561Y-88199838D01*
X51541323Y-88295076D01*
X51446085Y-88342695D01*
X51255609Y-88390314D01*
X51112752Y-88390314D01*
X50922276Y-88342695D01*
X50827038Y-88295076D01*
X50731800Y-88199838D01*
X50684180Y-88056980D01*
X50684180Y-87961742D01*
X50731800Y-87818885D01*
X50779419Y-87771266D01*
X50779419Y-87390314D02*
X50731800Y-87342695D01*
X50684180Y-87247457D01*
X50684180Y-87009361D01*
X50731800Y-86914123D01*
X50779419Y-86866504D01*
X50874657Y-86818885D01*
X50969895Y-86818885D01*
X51112752Y-86866504D01*
X51684180Y-87437933D01*
X51684180Y-86818885D01*
X53163742Y-87790257D02*
X53211361Y-87837876D01*
X53258980Y-87980733D01*
X53258980Y-88075971D01*
X53211361Y-88218828D01*
X53116123Y-88314066D01*
X53020885Y-88361685D01*
X52830409Y-88409304D01*
X52687552Y-88409304D01*
X52497076Y-88361685D01*
X52401838Y-88314066D01*
X52306600Y-88218828D01*
X52258980Y-88075971D01*
X52258980Y-87980733D01*
X52306600Y-87837876D01*
X52354219Y-87790257D01*
X52354219Y-87409304D02*
X52306600Y-87361685D01*
X52258980Y-87266447D01*
X52258980Y-87028352D01*
X52306600Y-86933114D01*
X52354219Y-86885495D01*
X52449457Y-86837876D01*
X52544695Y-86837876D01*
X52687552Y-86885495D01*
X53258980Y-87456923D01*
X53258980Y-86837876D01*
X52258980Y-86504542D02*
X52258980Y-85885495D01*
X52639933Y-86218828D01*
X52639933Y-86075971D01*
X52687552Y-85980733D01*
X52735171Y-85933114D01*
X52830409Y-85885495D01*
X53068504Y-85885495D01*
X53163742Y-85933114D01*
X53211361Y-85980733D01*
X53258980Y-86075971D01*
X53258980Y-86361685D01*
X53211361Y-86456923D01*
X53163742Y-86504542D01*
X18462666Y-92392380D02*
X18462666Y-93106666D01*
X18415047Y-93249523D01*
X18319809Y-93344761D01*
X18176952Y-93392380D01*
X18081714Y-93392380D01*
X18843619Y-92392380D02*
X19462666Y-92392380D01*
X19129333Y-92773333D01*
X19272190Y-92773333D01*
X19367428Y-92820952D01*
X19415047Y-92868571D01*
X19462666Y-92963809D01*
X19462666Y-93201904D01*
X19415047Y-93297142D01*
X19367428Y-93344761D01*
X19272190Y-93392380D01*
X18986476Y-93392380D01*
X18891238Y-93344761D01*
X18843619Y-93297142D01*
X35533380Y-88358504D02*
X35533380Y-87787076D01*
X36533380Y-88072790D02*
X35533380Y-88072790D01*
X36533380Y-87453742D02*
X35533380Y-87453742D01*
X35533380Y-87072790D01*
X35581000Y-86977552D01*
X35628619Y-86929933D01*
X35723857Y-86882314D01*
X35866714Y-86882314D01*
X35961952Y-86929933D01*
X36009571Y-86977552D01*
X36057190Y-87072790D01*
X36057190Y-87453742D01*
X35533380Y-86025171D02*
X35533380Y-86215647D01*
X35581000Y-86310885D01*
X35628619Y-86358504D01*
X35771476Y-86453742D01*
X35961952Y-86501361D01*
X36342904Y-86501361D01*
X36438142Y-86453742D01*
X36485761Y-86406123D01*
X36533380Y-86310885D01*
X36533380Y-86120409D01*
X36485761Y-86025171D01*
X36438142Y-85977552D01*
X36342904Y-85929933D01*
X36104809Y-85929933D01*
X36009571Y-85977552D01*
X35961952Y-86025171D01*
X35914333Y-86120409D01*
X35914333Y-86310885D01*
X35961952Y-86406123D01*
X36009571Y-86453742D01*
X36104809Y-86501361D01*
X97305904Y-56380380D02*
X97305904Y-55380380D01*
X97544000Y-55380380D01*
X97686857Y-55428000D01*
X97782095Y-55523238D01*
X97829714Y-55618476D01*
X97877333Y-55808952D01*
X97877333Y-55951809D01*
X97829714Y-56142285D01*
X97782095Y-56237523D01*
X97686857Y-56332761D01*
X97544000Y-56380380D01*
X97305904Y-56380380D01*
X98829714Y-56380380D02*
X98258285Y-56380380D01*
X98544000Y-56380380D02*
X98544000Y-55380380D01*
X98448761Y-55523238D01*
X98353523Y-55618476D01*
X98258285Y-55666095D01*
X51087495Y-81903780D02*
X51658923Y-81903780D01*
X51373209Y-82903780D02*
X51373209Y-81903780D01*
X51992257Y-82903780D02*
X51992257Y-81903780D01*
X52373209Y-81903780D01*
X52468447Y-81951400D01*
X52516066Y-81999019D01*
X52563685Y-82094257D01*
X52563685Y-82237114D01*
X52516066Y-82332352D01*
X52468447Y-82379971D01*
X52373209Y-82427590D01*
X51992257Y-82427590D01*
X52944638Y-81999019D02*
X52992257Y-81951400D01*
X53087495Y-81903780D01*
X53325590Y-81903780D01*
X53420828Y-81951400D01*
X53468447Y-81999019D01*
X53516066Y-82094257D01*
X53516066Y-82189495D01*
X53468447Y-82332352D01*
X52897019Y-82903780D01*
X53516066Y-82903780D01*
X91196795Y-43176480D02*
X91196795Y-43986004D01*
X91244414Y-44081242D01*
X91292033Y-44128861D01*
X91387271Y-44176480D01*
X91577747Y-44176480D01*
X91672985Y-44128861D01*
X91720604Y-44081242D01*
X91768223Y-43986004D01*
X91768223Y-43176480D01*
X92672985Y-43176480D02*
X92482509Y-43176480D01*
X92387271Y-43224100D01*
X92339652Y-43271719D01*
X92244414Y-43414576D01*
X92196795Y-43605052D01*
X92196795Y-43986004D01*
X92244414Y-44081242D01*
X92292033Y-44128861D01*
X92387271Y-44176480D01*
X92577747Y-44176480D01*
X92672985Y-44128861D01*
X92720604Y-44081242D01*
X92768223Y-43986004D01*
X92768223Y-43747909D01*
X92720604Y-43652671D01*
X92672985Y-43605052D01*
X92577747Y-43557433D01*
X92387271Y-43557433D01*
X92292033Y-43605052D01*
X92244414Y-43652671D01*
X92196795Y-43747909D01*
X28735542Y-87777580D02*
X28402209Y-87301390D01*
X28164114Y-87777580D02*
X28164114Y-86777580D01*
X28545066Y-86777580D01*
X28640304Y-86825200D01*
X28687923Y-86872819D01*
X28735542Y-86968057D01*
X28735542Y-87110914D01*
X28687923Y-87206152D01*
X28640304Y-87253771D01*
X28545066Y-87301390D01*
X28164114Y-87301390D01*
X29116495Y-86872819D02*
X29164114Y-86825200D01*
X29259352Y-86777580D01*
X29497447Y-86777580D01*
X29592685Y-86825200D01*
X29640304Y-86872819D01*
X29687923Y-86968057D01*
X29687923Y-87063295D01*
X29640304Y-87206152D01*
X29068876Y-87777580D01*
X29687923Y-87777580D01*
X30068876Y-86872819D02*
X30116495Y-86825200D01*
X30211733Y-86777580D01*
X30449828Y-86777580D01*
X30545066Y-86825200D01*
X30592685Y-86872819D01*
X30640304Y-86968057D01*
X30640304Y-87063295D01*
X30592685Y-87206152D01*
X30021257Y-87777580D01*
X30640304Y-87777580D01*
X75079266Y-45985180D02*
X75079266Y-46699466D01*
X75031647Y-46842323D01*
X74936409Y-46937561D01*
X74793552Y-46985180D01*
X74698314Y-46985180D01*
X75984028Y-46318514D02*
X75984028Y-46985180D01*
X75745933Y-45937561D02*
X75507838Y-46651847D01*
X76126885Y-46651847D01*
X27122380Y-78906666D02*
X26646190Y-79240000D01*
X27122380Y-79478095D02*
X26122380Y-79478095D01*
X26122380Y-79097142D01*
X26170000Y-79001904D01*
X26217619Y-78954285D01*
X26312857Y-78906666D01*
X26455714Y-78906666D01*
X26550952Y-78954285D01*
X26598571Y-79001904D01*
X26646190Y-79097142D01*
X26646190Y-79478095D01*
X27122380Y-78430476D02*
X27122380Y-78240000D01*
X27074761Y-78144761D01*
X27027142Y-78097142D01*
X26884285Y-78001904D01*
X26693809Y-77954285D01*
X26312857Y-77954285D01*
X26217619Y-78001904D01*
X26170000Y-78049523D01*
X26122380Y-78144761D01*
X26122380Y-78335238D01*
X26170000Y-78430476D01*
X26217619Y-78478095D01*
X26312857Y-78525714D01*
X26550952Y-78525714D01*
X26646190Y-78478095D01*
X26693809Y-78430476D01*
X26741428Y-78335238D01*
X26741428Y-78144761D01*
X26693809Y-78049523D01*
X26646190Y-78001904D01*
X26550952Y-77954285D01*
X57065942Y-76760342D02*
X57018323Y-76807961D01*
X56875466Y-76855580D01*
X56780228Y-76855580D01*
X56637371Y-76807961D01*
X56542133Y-76712723D01*
X56494514Y-76617485D01*
X56446895Y-76427009D01*
X56446895Y-76284152D01*
X56494514Y-76093676D01*
X56542133Y-75998438D01*
X56637371Y-75903200D01*
X56780228Y-75855580D01*
X56875466Y-75855580D01*
X57018323Y-75903200D01*
X57065942Y-75950819D01*
X57446895Y-75950819D02*
X57494514Y-75903200D01*
X57589752Y-75855580D01*
X57827847Y-75855580D01*
X57923085Y-75903200D01*
X57970704Y-75950819D01*
X58018323Y-76046057D01*
X58018323Y-76141295D01*
X57970704Y-76284152D01*
X57399276Y-76855580D01*
X58018323Y-76855580D01*
X58875466Y-76188914D02*
X58875466Y-76855580D01*
X58637371Y-75807961D02*
X58399276Y-76522247D01*
X59018323Y-76522247D01*
X34604742Y-90990657D02*
X34652361Y-91038276D01*
X34699980Y-91181133D01*
X34699980Y-91276371D01*
X34652361Y-91419228D01*
X34557123Y-91514466D01*
X34461885Y-91562085D01*
X34271409Y-91609704D01*
X34128552Y-91609704D01*
X33938076Y-91562085D01*
X33842838Y-91514466D01*
X33747600Y-91419228D01*
X33699980Y-91276371D01*
X33699980Y-91181133D01*
X33747600Y-91038276D01*
X33795219Y-90990657D01*
X33699980Y-90657323D02*
X33699980Y-90038276D01*
X34080933Y-90371609D01*
X34080933Y-90228752D01*
X34128552Y-90133514D01*
X34176171Y-90085895D01*
X34271409Y-90038276D01*
X34509504Y-90038276D01*
X34604742Y-90085895D01*
X34652361Y-90133514D01*
X34699980Y-90228752D01*
X34699980Y-90514466D01*
X34652361Y-90609704D01*
X34604742Y-90657323D01*
X33699980Y-89419228D02*
X33699980Y-89323990D01*
X33747600Y-89228752D01*
X33795219Y-89181133D01*
X33890457Y-89133514D01*
X34080933Y-89085895D01*
X34319028Y-89085895D01*
X34509504Y-89133514D01*
X34604742Y-89181133D01*
X34652361Y-89228752D01*
X34699980Y-89323990D01*
X34699980Y-89419228D01*
X34652361Y-89514466D01*
X34604742Y-89562085D01*
X34509504Y-89609704D01*
X34319028Y-89657323D01*
X34080933Y-89657323D01*
X33890457Y-89609704D01*
X33795219Y-89562085D01*
X33747600Y-89514466D01*
X33699980Y-89419228D01*
X50262780Y-45404066D02*
X49786590Y-45737400D01*
X50262780Y-45975495D02*
X49262780Y-45975495D01*
X49262780Y-45594542D01*
X49310400Y-45499304D01*
X49358019Y-45451685D01*
X49453257Y-45404066D01*
X49596114Y-45404066D01*
X49691352Y-45451685D01*
X49738971Y-45499304D01*
X49786590Y-45594542D01*
X49786590Y-45975495D01*
X50262780Y-44451685D02*
X50262780Y-45023114D01*
X50262780Y-44737400D02*
X49262780Y-44737400D01*
X49405638Y-44832638D01*
X49500876Y-44927876D01*
X49548495Y-45023114D01*
X119401880Y-63869433D02*
X120116166Y-63869433D01*
X120259023Y-63917052D01*
X120354261Y-64012290D01*
X120401880Y-64155147D01*
X120401880Y-64250385D01*
X119401880Y-62917052D02*
X119401880Y-63393242D01*
X119878071Y-63440861D01*
X119830452Y-63393242D01*
X119782833Y-63298004D01*
X119782833Y-63059909D01*
X119830452Y-62964671D01*
X119878071Y-62917052D01*
X119973309Y-62869433D01*
X120211404Y-62869433D01*
X120306642Y-62917052D01*
X120354261Y-62964671D01*
X120401880Y-63059909D01*
X120401880Y-63298004D01*
X120354261Y-63393242D01*
X120306642Y-63440861D01*
X43081676Y-62404380D02*
X43748342Y-63404380D01*
X43748342Y-62404380D02*
X43081676Y-63404380D01*
X44653104Y-63404380D02*
X44081676Y-63404380D01*
X44367390Y-63404380D02*
X44367390Y-62404380D01*
X44272152Y-62547238D01*
X44176914Y-62642476D01*
X44081676Y-62690095D01*
X28516342Y-84177142D02*
X28468723Y-84224761D01*
X28325866Y-84272380D01*
X28230628Y-84272380D01*
X28087771Y-84224761D01*
X27992533Y-84129523D01*
X27944914Y-84034285D01*
X27897295Y-83843809D01*
X27897295Y-83700952D01*
X27944914Y-83510476D01*
X27992533Y-83415238D01*
X28087771Y-83320000D01*
X28230628Y-83272380D01*
X28325866Y-83272380D01*
X28468723Y-83320000D01*
X28516342Y-83367619D01*
X28897295Y-83367619D02*
X28944914Y-83320000D01*
X29040152Y-83272380D01*
X29278247Y-83272380D01*
X29373485Y-83320000D01*
X29421104Y-83367619D01*
X29468723Y-83462857D01*
X29468723Y-83558095D01*
X29421104Y-83700952D01*
X28849676Y-84272380D01*
X29468723Y-84272380D01*
X30325866Y-83272380D02*
X30135390Y-83272380D01*
X30040152Y-83320000D01*
X29992533Y-83367619D01*
X29897295Y-83510476D01*
X29849676Y-83700952D01*
X29849676Y-84081904D01*
X29897295Y-84177142D01*
X29944914Y-84224761D01*
X30040152Y-84272380D01*
X30230628Y-84272380D01*
X30325866Y-84224761D01*
X30373485Y-84177142D01*
X30421104Y-84081904D01*
X30421104Y-83843809D01*
X30373485Y-83748571D01*
X30325866Y-83700952D01*
X30230628Y-83653333D01*
X30040152Y-83653333D01*
X29944914Y-83700952D01*
X29897295Y-83748571D01*
X29849676Y-83843809D01*
X131318095Y-103932380D02*
X131318095Y-102932380D01*
X131318095Y-103408571D02*
X131889523Y-103408571D01*
X131889523Y-103932380D02*
X131889523Y-102932380D01*
X132794285Y-103265714D02*
X132794285Y-103932380D01*
X132556190Y-102884761D02*
X132318095Y-103599047D01*
X132937142Y-103599047D01*
X35469533Y-95092780D02*
X35136200Y-94616590D01*
X34898104Y-95092780D02*
X34898104Y-94092780D01*
X35279057Y-94092780D01*
X35374295Y-94140400D01*
X35421914Y-94188019D01*
X35469533Y-94283257D01*
X35469533Y-94426114D01*
X35421914Y-94521352D01*
X35374295Y-94568971D01*
X35279057Y-94616590D01*
X34898104Y-94616590D01*
X36326676Y-94426114D02*
X36326676Y-95092780D01*
X36088580Y-94045161D02*
X35850485Y-94759447D01*
X36469533Y-94759447D01*
X40301942Y-63178942D02*
X40254323Y-63226561D01*
X40111466Y-63274180D01*
X40016228Y-63274180D01*
X39873371Y-63226561D01*
X39778133Y-63131323D01*
X39730514Y-63036085D01*
X39682895Y-62845609D01*
X39682895Y-62702752D01*
X39730514Y-62512276D01*
X39778133Y-62417038D01*
X39873371Y-62321800D01*
X40016228Y-62274180D01*
X40111466Y-62274180D01*
X40254323Y-62321800D01*
X40301942Y-62369419D01*
X40682895Y-62369419D02*
X40730514Y-62321800D01*
X40825752Y-62274180D01*
X41063847Y-62274180D01*
X41159085Y-62321800D01*
X41206704Y-62369419D01*
X41254323Y-62464657D01*
X41254323Y-62559895D01*
X41206704Y-62702752D01*
X40635276Y-63274180D01*
X41254323Y-63274180D01*
X41873371Y-62274180D02*
X41968609Y-62274180D01*
X42063847Y-62321800D01*
X42111466Y-62369419D01*
X42159085Y-62464657D01*
X42206704Y-62655133D01*
X42206704Y-62893228D01*
X42159085Y-63083704D01*
X42111466Y-63178942D01*
X42063847Y-63226561D01*
X41968609Y-63274180D01*
X41873371Y-63274180D01*
X41778133Y-63226561D01*
X41730514Y-63178942D01*
X41682895Y-63083704D01*
X41635276Y-62893228D01*
X41635276Y-62655133D01*
X41682895Y-62464657D01*
X41730514Y-62369419D01*
X41778133Y-62321800D01*
X41873371Y-62274180D01*
X66635333Y-96159580D02*
X66302000Y-95683390D01*
X66063904Y-96159580D02*
X66063904Y-95159580D01*
X66444857Y-95159580D01*
X66540095Y-95207200D01*
X66587714Y-95254819D01*
X66635333Y-95350057D01*
X66635333Y-95492914D01*
X66587714Y-95588152D01*
X66540095Y-95635771D01*
X66444857Y-95683390D01*
X66063904Y-95683390D01*
X66968666Y-95159580D02*
X67587714Y-95159580D01*
X67254380Y-95540533D01*
X67397238Y-95540533D01*
X67492476Y-95588152D01*
X67540095Y-95635771D01*
X67587714Y-95731009D01*
X67587714Y-95969104D01*
X67540095Y-96064342D01*
X67492476Y-96111961D01*
X67397238Y-96159580D01*
X67111523Y-96159580D01*
X67016285Y-96111961D01*
X66968666Y-96064342D01*
X64878104Y-39685980D02*
X64878104Y-40495504D01*
X64925723Y-40590742D01*
X64973342Y-40638361D01*
X65068580Y-40685980D01*
X65259057Y-40685980D01*
X65354295Y-40638361D01*
X65401914Y-40590742D01*
X65449533Y-40495504D01*
X65449533Y-39685980D01*
X66449533Y-40685980D02*
X65878104Y-40685980D01*
X66163819Y-40685980D02*
X66163819Y-39685980D01*
X66068580Y-39828838D01*
X65973342Y-39924076D01*
X65878104Y-39971695D01*
X67068580Y-39685980D02*
X67163819Y-39685980D01*
X67259057Y-39733600D01*
X67306676Y-39781219D01*
X67354295Y-39876457D01*
X67401914Y-40066933D01*
X67401914Y-40305028D01*
X67354295Y-40495504D01*
X67306676Y-40590742D01*
X67259057Y-40638361D01*
X67163819Y-40685980D01*
X67068580Y-40685980D01*
X66973342Y-40638361D01*
X66925723Y-40590742D01*
X66878104Y-40495504D01*
X66830485Y-40305028D01*
X66830485Y-40066933D01*
X66878104Y-39876457D01*
X66925723Y-39781219D01*
X66973342Y-39733600D01*
X67068580Y-39685980D01*
X54713142Y-87714057D02*
X54760761Y-87761676D01*
X54808380Y-87904533D01*
X54808380Y-87999771D01*
X54760761Y-88142628D01*
X54665523Y-88237866D01*
X54570285Y-88285485D01*
X54379809Y-88333104D01*
X54236952Y-88333104D01*
X54046476Y-88285485D01*
X53951238Y-88237866D01*
X53856000Y-88142628D01*
X53808380Y-87999771D01*
X53808380Y-87904533D01*
X53856000Y-87761676D01*
X53903619Y-87714057D01*
X54808380Y-86761676D02*
X54808380Y-87333104D01*
X54808380Y-87047390D02*
X53808380Y-87047390D01*
X53951238Y-87142628D01*
X54046476Y-87237866D01*
X54094095Y-87333104D01*
X53808380Y-86428342D02*
X53808380Y-85809295D01*
X54189333Y-86142628D01*
X54189333Y-85999771D01*
X54236952Y-85904533D01*
X54284571Y-85856914D01*
X54379809Y-85809295D01*
X54617904Y-85809295D01*
X54713142Y-85856914D01*
X54760761Y-85904533D01*
X54808380Y-85999771D01*
X54808380Y-86285485D01*
X54760761Y-86380723D01*
X54713142Y-86428342D01*
X14478095Y-29408380D02*
X14478095Y-28408380D01*
X14478095Y-28884571D02*
X15049523Y-28884571D01*
X15049523Y-29408380D02*
X15049523Y-28408380D01*
X16049523Y-29408380D02*
X15478095Y-29408380D01*
X15763809Y-29408380D02*
X15763809Y-28408380D01*
X15668571Y-28551238D01*
X15573333Y-28646476D01*
X15478095Y-28694095D01*
X100330933Y-51522280D02*
X99997600Y-51046090D01*
X99759504Y-51522280D02*
X99759504Y-50522280D01*
X100140457Y-50522280D01*
X100235695Y-50569900D01*
X100283314Y-50617519D01*
X100330933Y-50712757D01*
X100330933Y-50855614D01*
X100283314Y-50950852D01*
X100235695Y-50998471D01*
X100140457Y-51046090D01*
X99759504Y-51046090D01*
X101188076Y-50522280D02*
X100997600Y-50522280D01*
X100902361Y-50569900D01*
X100854742Y-50617519D01*
X100759504Y-50760376D01*
X100711885Y-50950852D01*
X100711885Y-51331804D01*
X100759504Y-51427042D01*
X100807123Y-51474661D01*
X100902361Y-51522280D01*
X101092838Y-51522280D01*
X101188076Y-51474661D01*
X101235695Y-51427042D01*
X101283314Y-51331804D01*
X101283314Y-51093709D01*
X101235695Y-50998471D01*
X101188076Y-50950852D01*
X101092838Y-50903233D01*
X100902361Y-50903233D01*
X100807123Y-50950852D01*
X100759504Y-50998471D01*
X100711885Y-51093709D01*
D12*
X93091500Y-51968900D02*
X94991500Y-51968900D01*
X93091500Y-53868900D02*
X93091500Y-51968900D01*
X94991500Y-53868900D02*
X93091500Y-53868900D01*
X94991500Y-51968900D02*
X94991500Y-53868900D01*
X94788300Y-40564300D02*
X94788300Y-42464300D01*
X92888300Y-40564300D02*
X94788300Y-40564300D01*
X94788300Y-42464300D02*
X92888300Y-42464300D01*
X92888300Y-42464300D02*
X92888300Y-40564300D01*
X30566067Y-66622200D02*
X30273533Y-66622200D01*
X30566067Y-67642200D02*
X30273533Y-67642200D01*
X61574000Y-90904267D02*
X61574000Y-90611733D01*
X62594000Y-90904267D02*
X62594000Y-90611733D01*
X87697800Y-66181200D02*
X87697800Y-64281200D01*
X85377800Y-64781200D02*
X85377800Y-66181200D01*
X35111400Y-64024000D02*
X35111400Y-66024000D01*
X31011400Y-66024000D02*
X31011400Y-64024000D01*
X31011400Y-64024000D02*
X35111400Y-64024000D01*
X35111400Y-66024000D02*
X31011400Y-66024000D01*
X62093200Y-76133600D02*
X62343200Y-76133600D01*
X65313200Y-76133600D02*
X65063200Y-76133600D01*
X62093200Y-75883600D02*
X62093200Y-76133600D01*
X65313200Y-75883600D02*
X65313200Y-76133600D01*
X62093200Y-73163600D02*
X62093200Y-72913600D01*
X62093200Y-72913600D02*
X62343200Y-72913600D01*
X65313200Y-73163600D02*
X65313200Y-72913600D01*
X57773252Y-88632000D02*
X57250748Y-88632000D01*
X57773252Y-90852000D02*
X57250748Y-90852000D01*
X62101000Y-78161933D02*
X62101000Y-78454467D01*
X63121000Y-78161933D02*
X63121000Y-78454467D01*
X44884000Y-85208000D02*
X46194000Y-85208000D01*
X45114000Y-89068000D02*
X45114000Y-87928000D01*
X49604000Y-85208000D02*
X49604000Y-87928000D01*
X44884000Y-87928000D02*
X45114000Y-87928000D01*
X49604000Y-87928000D02*
X49374000Y-87928000D01*
X48294000Y-85208000D02*
X49604000Y-85208000D01*
X44884000Y-87928000D02*
X44884000Y-85208000D01*
X42749000Y-91734600D02*
X42749000Y-93634600D01*
X42749000Y-93634600D02*
X40849000Y-93634600D01*
X40849000Y-93634600D02*
X40849000Y-91734600D01*
X40849000Y-91734600D02*
X42749000Y-91734600D01*
X46711808Y-92331789D02*
X46711808Y-92624323D01*
X47731808Y-92331789D02*
X47731808Y-92624323D01*
X30443600Y-70559664D02*
X30443600Y-70105536D01*
X28973600Y-70559664D02*
X28973600Y-70105536D01*
X32526464Y-70435800D02*
X32072336Y-70435800D01*
X32526464Y-71905800D02*
X32072336Y-71905800D01*
X63327064Y-93088256D02*
X62872936Y-93088256D01*
X63327064Y-94558256D02*
X62872936Y-94558256D01*
X33458400Y-84371400D02*
X33458400Y-80271400D01*
X35458400Y-80271400D02*
X35458400Y-84371400D01*
X35458400Y-84371400D02*
X33458400Y-84371400D01*
X33458400Y-80271400D02*
X35458400Y-80271400D01*
X55683252Y-95182000D02*
X54260748Y-95182000D01*
X55683252Y-97002000D02*
X54260748Y-97002000D01*
X29707064Y-81253000D02*
X29252936Y-81253000D01*
X29707064Y-79783000D02*
X29252936Y-79783000D01*
X98235400Y-42585764D02*
X98235400Y-42131636D01*
X96765400Y-42585764D02*
X96765400Y-42131636D01*
X57218000Y-94524000D02*
X58978000Y-94524000D01*
X58978000Y-91454000D02*
X56548000Y-91454000D01*
X27707400Y-75717400D02*
X27707400Y-77667400D01*
X32827400Y-75717400D02*
X32827400Y-77667400D01*
X27707400Y-75717400D02*
X27707400Y-73767400D01*
X32827400Y-75717400D02*
X32827400Y-72267400D01*
X29144000Y-64074000D02*
X29144000Y-65974000D01*
X27244000Y-64074000D02*
X29144000Y-64074000D01*
X29144000Y-65974000D02*
X27244000Y-65974000D01*
X27244000Y-65974000D02*
X27244000Y-64074000D01*
X96714600Y-51656636D02*
X96714600Y-52110764D01*
X98184600Y-51656636D02*
X98184600Y-52110764D01*
X39065200Y-93413800D02*
X37065200Y-93413800D01*
X37065200Y-93413800D02*
X37065200Y-89313800D01*
X39065200Y-89313800D02*
X39065200Y-93413800D01*
X37065200Y-89313800D02*
X39065200Y-89313800D01*
X87380000Y-97740000D02*
X87380000Y-105460000D01*
X80260000Y-105000000D02*
X87380000Y-105000000D01*
X80260000Y-97740000D02*
X87380000Y-97740000D01*
X86845000Y-99831000D02*
X86716000Y-99959000D01*
X84425000Y-101841000D02*
X84296000Y-101969000D01*
X80260000Y-97740000D02*
X80260000Y-105460000D01*
X80260000Y-103900000D02*
X87380000Y-103900000D01*
X80260000Y-105460000D02*
X87380000Y-105460000D01*
X84595000Y-102081000D02*
X84501000Y-102174000D01*
X86640000Y-99625000D02*
X86546000Y-99719000D01*
X80020000Y-105700000D02*
X80420000Y-105700000D01*
X80020000Y-105060000D02*
X80020000Y-105700000D01*
X82936000Y-99459999D02*
G75*
G03*
X81180106Y-99474642I-866000J-1439999D01*
G01*
X82070000Y-102580000D02*
G75*
G03*
X82960264Y-102324721I3J1679990D01*
G01*
X83495000Y-101791000D02*
G75*
G03*
X83495504Y-100009807I-1425003J891000D01*
G01*
X81204000Y-102340000D02*
G75*
G03*
X82098674Y-102580099I866003J1440014D01*
G01*
X80629999Y-100034000D02*
G75*
G03*
X80644642Y-101789894I1439999J-866000D01*
G01*
X87250000Y-100900000D02*
G75*
G03*
X87250000Y-100900000I-1680000J0D01*
G01*
X45786000Y-97749400D02*
X45786000Y-95849400D01*
X47686000Y-95849400D02*
X47686000Y-97749400D01*
X45786000Y-95849400D02*
X47686000Y-95849400D01*
X47686000Y-97749400D02*
X45786000Y-97749400D01*
G36*
X109791681Y-85723196D02*
G01*
X109865914Y-85732678D01*
X109855511Y-85746237D01*
X109759980Y-85762039D01*
X109647631Y-85773005D01*
X109520291Y-85786527D01*
X109455175Y-85811696D01*
X109428792Y-85866585D01*
X109419402Y-85948584D01*
X109406063Y-86106430D01*
X109602059Y-86106430D01*
X109736488Y-86117236D01*
X109791955Y-86142749D01*
X109766993Y-86172613D01*
X109660138Y-86196470D01*
X109615397Y-86200659D01*
X109500935Y-86213115D01*
X109448294Y-86243209D01*
X109433472Y-86313323D01*
X109432741Y-86370973D01*
X109424608Y-86483267D01*
X109404623Y-86555331D01*
X109400507Y-86560792D01*
X109387180Y-86534986D01*
X109376536Y-86439519D01*
X109369875Y-86290672D01*
X109368274Y-86156571D01*
X109368274Y-85719628D01*
X109633305Y-85719628D01*
X109791681Y-85723196D01*
G37*
G36*
X105476015Y-85793180D02*
G01*
X105490587Y-85911021D01*
X105498988Y-86074491D01*
X105500254Y-86173433D01*
X105495942Y-86365172D01*
X105483946Y-86502783D01*
X105465675Y-86572965D01*
X105457276Y-86579188D01*
X105437345Y-86538312D01*
X105422925Y-86423880D01*
X105415238Y-86248185D01*
X105414298Y-86146871D01*
X105418276Y-85935820D01*
X105429873Y-85799054D01*
X105448577Y-85741391D01*
X105457276Y-85741117D01*
X105476015Y-85793180D01*
G37*
G36*
X99291902Y-85801403D02*
G01*
X99306166Y-85902130D01*
X99311575Y-86041293D01*
X99308469Y-86195395D01*
X99297187Y-86340943D01*
X99278070Y-86454441D01*
X99257699Y-86505927D01*
X99178747Y-86565166D01*
X99067147Y-86604900D01*
X98955295Y-86610086D01*
X98863816Y-86561978D01*
X98820023Y-86521477D01*
X98762659Y-86455133D01*
X98729437Y-86382405D01*
X98713946Y-86278031D01*
X98709775Y-86116747D01*
X98709729Y-86086894D01*
X98715032Y-85923754D01*
X98729400Y-85809958D01*
X98750520Y-85762962D01*
X98752707Y-85762606D01*
X98774137Y-85802734D01*
X98789148Y-85911933D01*
X98795589Y-86073422D01*
X98795685Y-86097834D01*
X98802137Y-86299364D01*
X98826093Y-86429669D01*
X98874454Y-86502828D01*
X98954118Y-86532914D01*
X99010575Y-86536210D01*
X99109364Y-86523048D01*
X99173239Y-86474177D01*
X99209101Y-86375522D01*
X99223850Y-86213007D01*
X99225465Y-86097834D01*
X99230610Y-85930678D01*
X99244610Y-85813591D01*
X99265313Y-85763352D01*
X99268443Y-85762606D01*
X99291902Y-85801403D01*
G37*
G36*
X116107957Y-87606353D02*
G01*
X116287551Y-87609745D01*
X116417745Y-87614806D01*
X116482135Y-87621049D01*
X116485901Y-87622590D01*
X116479363Y-87666920D01*
X116451930Y-87782744D01*
X116406519Y-87958966D01*
X116346051Y-88184490D01*
X116273443Y-88448220D01*
X116199708Y-88710558D01*
X116114166Y-89012191D01*
X116033359Y-89297281D01*
X115961201Y-89552005D01*
X115901606Y-89762540D01*
X115858489Y-89915065D01*
X115838725Y-89985195D01*
X115781410Y-90189340D01*
X116597883Y-90189340D01*
X116881602Y-90189830D01*
X117090202Y-90191988D01*
X117234517Y-90196851D01*
X117325383Y-90205451D01*
X117373635Y-90218826D01*
X117390106Y-90238007D01*
X117385632Y-90264032D01*
X117385434Y-90264552D01*
X117359532Y-90341280D01*
X117318207Y-90473450D01*
X117269920Y-90633932D01*
X117264781Y-90651354D01*
X117173051Y-90962944D01*
X115763386Y-90962944D01*
X115425071Y-90962505D01*
X115115904Y-90961258D01*
X114845932Y-90959310D01*
X114625201Y-90956768D01*
X114463759Y-90953740D01*
X114371652Y-90950331D01*
X114353722Y-90947947D01*
X114365160Y-90901504D01*
X114397391Y-90783397D01*
X114447294Y-90604519D01*
X114511749Y-90375769D01*
X114587634Y-90108041D01*
X114671828Y-89812233D01*
X114761209Y-89499241D01*
X114852657Y-89179961D01*
X114943051Y-88865289D01*
X115029268Y-88566123D01*
X115108188Y-88293357D01*
X115176689Y-88057888D01*
X115231651Y-87870614D01*
X115269952Y-87742429D01*
X115288471Y-87684230D01*
X115288929Y-87683099D01*
X115310565Y-87651295D01*
X115352924Y-87629454D01*
X115430192Y-87615750D01*
X115556559Y-87608360D01*
X115746213Y-87605459D01*
X115895367Y-87605114D01*
X116107957Y-87606353D01*
G37*
G36*
X110923291Y-86074196D02*
G01*
X110984761Y-85915795D01*
X111039158Y-85793898D01*
X111077934Y-85726939D01*
X111087696Y-85719628D01*
X111118023Y-85756953D01*
X111168080Y-85856337D01*
X111228684Y-85998891D01*
X111249630Y-86052707D01*
X111330897Y-86268566D01*
X111383781Y-86416776D01*
X111411675Y-86509554D01*
X111417969Y-86559119D01*
X111406057Y-86577688D01*
X111395795Y-86579188D01*
X111355772Y-86542731D01*
X111327613Y-86471743D01*
X111301785Y-86406686D01*
X111250346Y-86374880D01*
X111147979Y-86364816D01*
X111091234Y-86364298D01*
X110963215Y-86369172D01*
X110895628Y-86391468D01*
X110863155Y-86442695D01*
X110854855Y-86471743D01*
X110818751Y-86552280D01*
X110781131Y-86579188D01*
X110754747Y-86547545D01*
X110764205Y-86503976D01*
X110792050Y-86430609D01*
X110840413Y-86300234D01*
X110856168Y-86257332D01*
X110961627Y-86257332D01*
X111004758Y-86308919D01*
X111084858Y-86321320D01*
X111181019Y-86311509D01*
X111229553Y-86289086D01*
X111226903Y-86233421D01*
X111200336Y-86125502D01*
X111173699Y-86041963D01*
X111099549Y-85827073D01*
X111029004Y-85993489D01*
X110970309Y-86155709D01*
X110961627Y-86257332D01*
X110856168Y-86257332D01*
X110900489Y-86136645D01*
X110923291Y-86074196D01*
G37*
G36*
X101996504Y-85799013D02*
G01*
X101982671Y-85894618D01*
X101949433Y-86028996D01*
X101903278Y-86181722D01*
X101850695Y-86332372D01*
X101798173Y-86460520D01*
X101752201Y-86545742D01*
X101728377Y-86568629D01*
X101692373Y-86538898D01*
X101643523Y-86443896D01*
X101590889Y-86301470D01*
X101587810Y-86291812D01*
X101519716Y-86075315D01*
X101474648Y-85927594D01*
X101449439Y-85835557D01*
X101440923Y-85786110D01*
X101445934Y-85766161D01*
X101459817Y-85762606D01*
X101490069Y-85800323D01*
X101535529Y-85899628D01*
X101586801Y-86039749D01*
X101591070Y-86052707D01*
X101642079Y-86201089D01*
X101686414Y-86316433D01*
X101714854Y-86374827D01*
X101715696Y-86375826D01*
X101741229Y-86353951D01*
X101782678Y-86266616D01*
X101832280Y-86130990D01*
X101846878Y-86085724D01*
X101898671Y-85934161D01*
X101945554Y-85820713D01*
X101979116Y-85765140D01*
X101984443Y-85762606D01*
X101996504Y-85799013D01*
G37*
G36*
X106875129Y-85755067D02*
G01*
X106935032Y-85845509D01*
X106970628Y-85913029D01*
X107029201Y-86023911D01*
X107075201Y-86093874D01*
X107090440Y-86106430D01*
X107122223Y-86071247D01*
X107176079Y-85980905D01*
X107216789Y-85902284D01*
X107274679Y-85797745D01*
X107318172Y-85743052D01*
X107333687Y-85743786D01*
X107324107Y-85804718D01*
X107281858Y-85911931D01*
X107241753Y-85993184D01*
X107154939Y-86219853D01*
X107133418Y-86388061D01*
X107124786Y-86502610D01*
X107102974Y-86570846D01*
X107090440Y-86579188D01*
X107063605Y-86541042D01*
X107048605Y-86445673D01*
X107047462Y-86406050D01*
X107020771Y-86238439D01*
X106946886Y-86036806D01*
X106917909Y-85976270D01*
X106859142Y-85848083D01*
X106828300Y-85756080D01*
X106831837Y-85719659D01*
X106832512Y-85719628D01*
X106875129Y-85755067D01*
G37*
G36*
X112985152Y-85720286D02*
G01*
X113123605Y-85726240D01*
X113228553Y-85740775D01*
X113262735Y-85752519D01*
X113327428Y-85840072D01*
X113339317Y-85956605D01*
X113306206Y-86041785D01*
X113268636Y-86113384D01*
X113293340Y-86169012D01*
X113306004Y-86182279D01*
X113360943Y-86291447D01*
X113339332Y-86417486D01*
X113310353Y-86465893D01*
X113238688Y-86515928D01*
X113126520Y-86548790D01*
X113000818Y-86562669D01*
X112888551Y-86555752D01*
X112816690Y-86526229D01*
X112804167Y-86499889D01*
X112804080Y-86498174D01*
X112849492Y-86498174D01*
X113027772Y-86484958D01*
X113173147Y-86454726D01*
X113253186Y-86396531D01*
X113278027Y-86297875D01*
X113226282Y-86218860D01*
X113106691Y-86168748D01*
X113027772Y-86157681D01*
X112849492Y-86144465D01*
X112849492Y-86498174D01*
X112804080Y-86498174D01*
X112800371Y-86425349D01*
X112792382Y-86290712D01*
X112783175Y-86144465D01*
X112781738Y-86121646D01*
X112778659Y-86074196D01*
X112767664Y-85905866D01*
X112849492Y-85905866D01*
X112856803Y-86028471D01*
X112891435Y-86088926D01*
X112972439Y-86100425D01*
X113100716Y-86079823D01*
X113212723Y-86028348D01*
X113266555Y-85943595D01*
X113250558Y-85847746D01*
X113234583Y-85825010D01*
X113158691Y-85783475D01*
X113038412Y-85763117D01*
X113016142Y-85762606D01*
X112908252Y-85767748D01*
X112861149Y-85797568D01*
X112849720Y-85873653D01*
X112849492Y-85905866D01*
X112767664Y-85905866D01*
X112755499Y-85719628D01*
X112985152Y-85720286D01*
G37*
G36*
X101007835Y-85803329D02*
G01*
X101022396Y-85916701D01*
X101029856Y-86089521D01*
X101030541Y-86170897D01*
X101026255Y-86363482D01*
X101014321Y-86501810D01*
X100996129Y-86572682D01*
X100987563Y-86579188D01*
X100967291Y-86538464D01*
X100952730Y-86425092D01*
X100945270Y-86252273D01*
X100944585Y-86170897D01*
X100948872Y-85978312D01*
X100960806Y-85839984D01*
X100978997Y-85769112D01*
X100987563Y-85762606D01*
X101007835Y-85803329D01*
G37*
G36*
X106355372Y-85725700D02*
G01*
X106455318Y-85741786D01*
X106488748Y-85762606D01*
X106451401Y-85792782D01*
X106361418Y-85805580D01*
X106359814Y-85805584D01*
X106230880Y-85805584D01*
X106230880Y-86192386D01*
X106226372Y-86377725D01*
X106213893Y-86509934D01*
X106195011Y-86574903D01*
X106187902Y-86579188D01*
X106167308Y-86538616D01*
X106152618Y-86426307D01*
X106145400Y-86256370D01*
X106144924Y-86192386D01*
X106144068Y-86009281D01*
X106138438Y-85895591D01*
X106123440Y-85834775D01*
X106094478Y-85810292D01*
X106046957Y-85805603D01*
X106037479Y-85805584D01*
X105956710Y-85790872D01*
X105930034Y-85762606D01*
X105969504Y-85740147D01*
X106074064Y-85724771D01*
X106209391Y-85719628D01*
X106355372Y-85725700D01*
G37*
G36*
X120618715Y-84456656D02*
G01*
X120607022Y-85256628D01*
X120363610Y-85331905D01*
X120197924Y-85391550D01*
X120040112Y-85461859D01*
X119967935Y-85501287D01*
X119872309Y-85572982D01*
X119755704Y-85677923D01*
X119635404Y-85798061D01*
X119528691Y-85915350D01*
X119452849Y-86011741D01*
X119425127Y-86068100D01*
X119384661Y-86081603D01*
X119273298Y-86093022D01*
X119106089Y-86101438D01*
X118898084Y-86105932D01*
X118797163Y-86106430D01*
X118169198Y-86106430D01*
X118199370Y-85945262D01*
X118265094Y-85722571D01*
X118371814Y-85496946D01*
X118501878Y-85301595D01*
X118593305Y-85204170D01*
X118679748Y-85122950D01*
X118727629Y-85067369D01*
X118731247Y-85054868D01*
X118686331Y-85048746D01*
X118566845Y-85038397D01*
X118384031Y-85024555D01*
X118149134Y-85007955D01*
X117873395Y-84989331D01*
X117568057Y-84969417D01*
X117244364Y-84948946D01*
X116913559Y-84928654D01*
X116586883Y-84909273D01*
X116275580Y-84891538D01*
X116008375Y-84877094D01*
X115765315Y-84863329D01*
X115595202Y-84849385D01*
X115485093Y-84831768D01*
X115422043Y-84806984D01*
X115393109Y-84771536D01*
X115385346Y-84721930D01*
X115385194Y-84708826D01*
X115391095Y-84648758D01*
X115422521Y-84616864D01*
X115500061Y-84604243D01*
X115632318Y-84602001D01*
X115736900Y-84599971D01*
X115914460Y-84594320D01*
X116152122Y-84585553D01*
X116437006Y-84574172D01*
X116756235Y-84560681D01*
X117096930Y-84545586D01*
X117233249Y-84539354D01*
X117758846Y-84515200D01*
X118205338Y-84494699D01*
X118579471Y-84477268D01*
X118887992Y-84462325D01*
X119137646Y-84449289D01*
X119335181Y-84437577D01*
X119487342Y-84426608D01*
X119600876Y-84415800D01*
X119682529Y-84404571D01*
X119739048Y-84392340D01*
X119777179Y-84378525D01*
X119803669Y-84362543D01*
X119825263Y-84343814D01*
X119848709Y-84321754D01*
X119858858Y-84312923D01*
X119998894Y-84153869D01*
X120113818Y-83946176D01*
X120171962Y-83774873D01*
X120196409Y-83704404D01*
X120242207Y-83669423D01*
X120334593Y-83657679D01*
X120415388Y-83656684D01*
X120630407Y-83656684D01*
X120618715Y-84456656D01*
G37*
G36*
X99889500Y-85797165D02*
G01*
X99963042Y-85887992D01*
X100056600Y-86019265D01*
X100106514Y-86094350D01*
X100321404Y-86424985D01*
X100333957Y-86093795D01*
X100346842Y-85903981D01*
X100365570Y-85796761D01*
X100386631Y-85769286D01*
X100406515Y-85818703D01*
X100421715Y-85942162D01*
X100428722Y-86136812D01*
X100428849Y-86170897D01*
X100424736Y-86355578D01*
X100413480Y-86493785D01*
X100396703Y-86569615D01*
X100387181Y-86579188D01*
X100346349Y-86545850D01*
X100271259Y-86456389D01*
X100174675Y-86326635D01*
X100118568Y-86246108D01*
X99891624Y-85913029D01*
X99868942Y-86278342D01*
X99846261Y-86643655D01*
X99825964Y-86203037D01*
X99820063Y-85987156D01*
X99824964Y-85840094D01*
X99840308Y-85768828D01*
X99848646Y-85763067D01*
X99889500Y-85797165D01*
G37*
G36*
X110800158Y-87696616D02*
G01*
X110780871Y-87769067D01*
X110741701Y-87910112D01*
X110686597Y-88105758D01*
X110619505Y-88342012D01*
X110544372Y-88604881D01*
X110521351Y-88685110D01*
X110428962Y-89007363D01*
X110328681Y-89358111D01*
X110228692Y-89708657D01*
X110137185Y-90030302D01*
X110070769Y-90264552D01*
X109873228Y-90962944D01*
X109276927Y-90962944D01*
X109061691Y-90960760D01*
X108880971Y-90954764D01*
X108750224Y-90945792D01*
X108684904Y-90934679D01*
X108680341Y-90930711D01*
X108691463Y-90874696D01*
X108721659Y-90755100D01*
X108765695Y-90590790D01*
X108818338Y-90400631D01*
X108874356Y-90203491D01*
X108928515Y-90018236D01*
X108975582Y-89863733D01*
X108981344Y-89845516D01*
X109019631Y-89715627D01*
X109041141Y-89623251D01*
X109042440Y-89593162D01*
X109006972Y-89613491D01*
X108921905Y-89680900D01*
X108800837Y-89784211D01*
X108687330Y-89885079D01*
X108346345Y-90192971D01*
X107992381Y-90180411D01*
X107638418Y-90167851D01*
X107452526Y-89825677D01*
X107362550Y-89670180D01*
X107293748Y-89571795D01*
X107252526Y-89539160D01*
X107245240Y-89546320D01*
X107225353Y-89611220D01*
X107187701Y-89739422D01*
X107137939Y-89911524D01*
X107089185Y-90081895D01*
X107027688Y-90295810D01*
X106967537Y-90501617D01*
X106916760Y-90672024D01*
X106890094Y-90758799D01*
X106825664Y-90962944D01*
X106224529Y-90962944D01*
X105986474Y-90962159D01*
X105821850Y-90958716D01*
X105718142Y-90950986D01*
X105662832Y-90937341D01*
X105643401Y-90916150D01*
X105646718Y-90887733D01*
X105663457Y-90830323D01*
X105700862Y-90699936D01*
X105756164Y-90506294D01*
X105826592Y-90259120D01*
X105909375Y-89968134D01*
X106001745Y-89643061D01*
X106100930Y-89293621D01*
X106102864Y-89286802D01*
X106202145Y-88936935D01*
X106294636Y-88611195D01*
X106377570Y-88319312D01*
X106448178Y-88071019D01*
X106503693Y-87876047D01*
X106541349Y-87744128D01*
X106558377Y-87684993D01*
X106558480Y-87684647D01*
X106575256Y-87653493D01*
X106612976Y-87632728D01*
X106685705Y-87620805D01*
X106807509Y-87616176D01*
X106992453Y-87617294D01*
X107144366Y-87620180D01*
X107707458Y-87632149D01*
X107968407Y-88263602D01*
X108059401Y-88480838D01*
X108140947Y-88670011D01*
X108206688Y-88816795D01*
X108250265Y-88906862D01*
X108263130Y-88927720D01*
X108301907Y-88908267D01*
X108391812Y-88835681D01*
X108523758Y-88718170D01*
X108688657Y-88563939D01*
X108877423Y-88381195D01*
X108972267Y-88287325D01*
X109647631Y-87614267D01*
X110825925Y-87589171D01*
X110800158Y-87696616D01*
G37*
G36*
X114325184Y-85717269D02*
G01*
X114353801Y-85730372D01*
X114315084Y-85748764D01*
X114216183Y-85760434D01*
X114138832Y-85762606D01*
X113923942Y-85762606D01*
X113923942Y-86113003D01*
X114094024Y-86100722D01*
X114209619Y-86099945D01*
X114285505Y-86113274D01*
X114294588Y-86118925D01*
X114274914Y-86136583D01*
X114190804Y-86147587D01*
X114124506Y-86149408D01*
X113923942Y-86149408D01*
X113923942Y-86493232D01*
X114138832Y-86493232D01*
X114261437Y-86499032D01*
X114339241Y-86513862D01*
X114353722Y-86525465D01*
X114314674Y-86542467D01*
X114213179Y-86554147D01*
X114095854Y-86557699D01*
X113837986Y-86557699D01*
X113837986Y-85727262D01*
X114095933Y-85712701D01*
X114231764Y-85709897D01*
X114325184Y-85717269D01*
G37*
G36*
X93079611Y-87647721D02*
G01*
X93080548Y-88029322D01*
X93083232Y-88378105D01*
X93087468Y-88685462D01*
X93093061Y-88942786D01*
X93099817Y-89141471D01*
X93107542Y-89272909D01*
X93116042Y-89328493D01*
X93117582Y-89329780D01*
X93135330Y-89314357D01*
X93151415Y-89263799D01*
X93166305Y-89171674D01*
X93180466Y-89031549D01*
X93194365Y-88836993D01*
X93208467Y-88581571D01*
X93223241Y-88258853D01*
X93239153Y-87862406D01*
X93254778Y-87438748D01*
X93267204Y-87104350D01*
X93279508Y-86796445D01*
X93291190Y-86525850D01*
X93301750Y-86303380D01*
X93310689Y-86139854D01*
X93317505Y-86046088D01*
X93319931Y-86028846D01*
X93369631Y-85992403D01*
X93492945Y-85983583D01*
X93541186Y-85985868D01*
X93745770Y-85998985D01*
X93749906Y-86536210D01*
X93754481Y-86950938D01*
X93761176Y-87279794D01*
X93770023Y-87522839D01*
X93781052Y-87680130D01*
X93794295Y-87751728D01*
X93809781Y-87737691D01*
X93827543Y-87638078D01*
X93847610Y-87452950D01*
X93870014Y-87182364D01*
X93894786Y-86826380D01*
X93895489Y-86815567D01*
X93913405Y-86565567D01*
X93932388Y-86345255D01*
X93950944Y-86168994D01*
X93967574Y-86051147D01*
X93979755Y-86006797D01*
X94041150Y-85987383D01*
X94150536Y-85983442D01*
X94180631Y-85985308D01*
X94347462Y-85998985D01*
X94368951Y-86407276D01*
X94380872Y-86576489D01*
X94395588Y-86701850D01*
X94410863Y-86767343D01*
X94419709Y-86770744D01*
X94436243Y-86709795D01*
X94455170Y-86585737D01*
X94473264Y-86421236D01*
X94479342Y-86351709D01*
X94509705Y-85977496D01*
X94793897Y-85979367D01*
X95093075Y-85994081D01*
X95329416Y-86036933D01*
X95522787Y-86112654D01*
X95630254Y-86178492D01*
X95736372Y-86271233D01*
X95844632Y-86394010D01*
X95936249Y-86521939D01*
X95992435Y-86630135D01*
X96001408Y-86670113D01*
X95962531Y-86686124D01*
X95859766Y-86702977D01*
X95715071Y-86717106D01*
X95710002Y-86717473D01*
X95345636Y-86784022D01*
X95016940Y-86927141D01*
X94727007Y-87143859D01*
X94478931Y-87431201D01*
X94275804Y-87786196D01*
X94120722Y-88205869D01*
X94105819Y-88259207D01*
X94073442Y-88378804D01*
X94044952Y-88483735D01*
X94017626Y-88583731D01*
X93988741Y-88688520D01*
X93955577Y-88807831D01*
X93915410Y-88951393D01*
X93865519Y-89128935D01*
X93803181Y-89350187D01*
X93725674Y-89624877D01*
X93630277Y-89962734D01*
X93514267Y-90373488D01*
X93513023Y-90377890D01*
X93413870Y-90727805D01*
X93321421Y-91051863D01*
X93238398Y-91340698D01*
X93167519Y-91584942D01*
X93111504Y-91775228D01*
X93073072Y-91902188D01*
X93054943Y-91956457D01*
X93054479Y-91957332D01*
X92992141Y-91986754D01*
X92874704Y-91993055D01*
X92729234Y-91978365D01*
X92582795Y-91944813D01*
X92499408Y-91913667D01*
X92256942Y-91756617D01*
X92067949Y-91538247D01*
X91999953Y-91414213D01*
X91982300Y-91370968D01*
X91967477Y-91319768D01*
X91955239Y-91253162D01*
X91945334Y-91163699D01*
X91937516Y-91043929D01*
X91931536Y-90886401D01*
X91927144Y-90683663D01*
X91924093Y-90428266D01*
X91922134Y-90112758D01*
X91921018Y-89729689D01*
X91920498Y-89271608D01*
X91920388Y-89028934D01*
X91921053Y-88546275D01*
X91923289Y-88103443D01*
X91926978Y-87707186D01*
X91932003Y-87364252D01*
X91938245Y-87081390D01*
X91945589Y-86865347D01*
X91953915Y-86722872D01*
X91961539Y-86665144D01*
X92046892Y-86480812D01*
X92187944Y-86299600D01*
X92358885Y-86151931D01*
X92435917Y-86105932D01*
X92577557Y-86051524D01*
X92752434Y-86007698D01*
X92840051Y-85993817D01*
X93079611Y-85965661D01*
X93079611Y-87647721D01*
G37*
G36*
X116854007Y-86000584D02*
G01*
X116914330Y-85860897D01*
X116964099Y-85757694D01*
X116994830Y-85711986D01*
X116996870Y-85711362D01*
X117029584Y-85748514D01*
X117079837Y-85846309D01*
X117139398Y-85983387D01*
X117200037Y-86138388D01*
X117253526Y-86289953D01*
X117291635Y-86416721D01*
X117306134Y-86497333D01*
X117304484Y-86509784D01*
X117279063Y-86510085D01*
X117241910Y-86445602D01*
X117239435Y-86439509D01*
X117199235Y-86365306D01*
X117137633Y-86330793D01*
X117025058Y-86321450D01*
X116998752Y-86321320D01*
X116876257Y-86327236D01*
X116812924Y-86353575D01*
X116782290Y-86413227D01*
X116778139Y-86428765D01*
X116745821Y-86500843D01*
X116705332Y-86539509D01*
X116678604Y-86528478D01*
X116676834Y-86503976D01*
X116694542Y-86428452D01*
X116735629Y-86305372D01*
X116764894Y-86227155D01*
X116854403Y-86227155D01*
X116891419Y-86267245D01*
X116982424Y-86278254D01*
X116996870Y-86278342D01*
X117111056Y-86262641D01*
X117147293Y-86219123D01*
X117131296Y-86144144D01*
X117091425Y-86029936D01*
X117076486Y-85993489D01*
X117005679Y-85827073D01*
X116927190Y-85998985D01*
X116867590Y-86142798D01*
X116854403Y-86227155D01*
X116764894Y-86227155D01*
X116791612Y-86155746D01*
X116854007Y-86000584D01*
G37*
G36*
X108380208Y-85802432D02*
G01*
X108492449Y-85731647D01*
X108588009Y-85719628D01*
X108714134Y-85744062D01*
X108796558Y-85823447D01*
X108840801Y-85966910D01*
X108852538Y-86156875D01*
X108846181Y-86327148D01*
X108823744Y-86434730D01*
X108780180Y-86502177D01*
X108773942Y-86508060D01*
X108647399Y-86570335D01*
X108504339Y-86564828D01*
X108379780Y-86493232D01*
X108327283Y-86417819D01*
X108300841Y-86309389D01*
X108293824Y-86149408D01*
X108294446Y-86143249D01*
X108379780Y-86143249D01*
X108388289Y-86287161D01*
X108410233Y-86398761D01*
X108431353Y-86441658D01*
X108526590Y-86488054D01*
X108642654Y-86486931D01*
X108739344Y-86442092D01*
X108765070Y-86410101D01*
X108804618Y-86276582D01*
X108809787Y-86115265D01*
X108783224Y-85962019D01*
X108727579Y-85852710D01*
X108723604Y-85848562D01*
X108641840Y-85779199D01*
X108574094Y-85772272D01*
X108481997Y-85824836D01*
X108475299Y-85829510D01*
X108418994Y-85883622D01*
X108390002Y-85961956D01*
X108380196Y-86091202D01*
X108379780Y-86143249D01*
X108294446Y-86143249D01*
X108314946Y-85940303D01*
X108380208Y-85802432D01*
G37*
G36*
X97162521Y-92853976D02*
G01*
X97159193Y-93001477D01*
X97144376Y-93078980D01*
X97110816Y-93102339D01*
X97055076Y-93088858D01*
X97001299Y-93081173D01*
X96874743Y-93068703D01*
X96688385Y-93052551D01*
X96455202Y-93033821D01*
X96188168Y-93013617D01*
X96066582Y-93004780D01*
X95764011Y-92983017D01*
X95466297Y-92961525D01*
X95192585Y-92941695D01*
X94962021Y-92924912D01*
X94793752Y-92912565D01*
X94766497Y-92910545D01*
X94411929Y-92884187D01*
X94411929Y-92596108D01*
X97162521Y-92596108D01*
X97162521Y-92853976D01*
G37*
G36*
X117238967Y-91899958D02*
G01*
X117478284Y-91970788D01*
X117679751Y-92085887D01*
X117787900Y-92192414D01*
X117863991Y-92309842D01*
X117868483Y-92383216D01*
X117799587Y-92418630D01*
X117719881Y-92424196D01*
X117590295Y-92405109D01*
X117488363Y-92333863D01*
X117451268Y-92292697D01*
X117301842Y-92176769D01*
X117109221Y-92113421D01*
X116898978Y-92103658D01*
X116696680Y-92148483D01*
X116527898Y-92248901D01*
X116520022Y-92256126D01*
X116472374Y-92307403D01*
X116442118Y-92366084D01*
X116425350Y-92451909D01*
X116418168Y-92584616D01*
X116416666Y-92778818D01*
X116417852Y-92974729D01*
X116424549Y-93105368D01*
X116441473Y-93191415D01*
X116473335Y-93253550D01*
X116524849Y-93312452D01*
X116542294Y-93330040D01*
X116624045Y-93401519D01*
X116707098Y-93439362D01*
X116823346Y-93453871D01*
X116931231Y-93455668D01*
X117187269Y-93431413D01*
X117373593Y-93359035D01*
X117489332Y-93239119D01*
X117533621Y-93072248D01*
X117534095Y-93050203D01*
X117529529Y-92990943D01*
X117502876Y-92957938D01*
X117434698Y-92943516D01*
X117305561Y-92940005D01*
X117254738Y-92939932D01*
X117104567Y-92938048D01*
X117020924Y-92927417D01*
X116984389Y-92900569D01*
X116975542Y-92850036D01*
X116975381Y-92832487D01*
X116975381Y-92725042D01*
X117930910Y-92725042D01*
X117912772Y-93009889D01*
X117898680Y-93169131D01*
X117873200Y-93273111D01*
X117823880Y-93352517D01*
X117739475Y-93436928D01*
X117527518Y-93578045D01*
X117266690Y-93669534D01*
X116981268Y-93706913D01*
X116695529Y-93685698D01*
X116566189Y-93653635D01*
X116359763Y-93575166D01*
X116212204Y-93479672D01*
X116114548Y-93352495D01*
X116057832Y-93178976D01*
X116033094Y-92944455D01*
X116029864Y-92776510D01*
X116032266Y-92572038D01*
X116042020Y-92431210D01*
X116062950Y-92331785D01*
X116098881Y-92251525D01*
X116128151Y-92204917D01*
X116276640Y-92056513D01*
X116480637Y-91951674D01*
X116721472Y-91890541D01*
X116980472Y-91873256D01*
X117238967Y-91899958D01*
G37*
G36*
X98250167Y-87599202D02*
G01*
X98424659Y-87603181D01*
X98545468Y-87610071D01*
X98620657Y-87620145D01*
X98658291Y-87633678D01*
X98666782Y-87647612D01*
X98639361Y-87705767D01*
X98566953Y-87805706D01*
X98464295Y-87927390D01*
X98446877Y-87946631D01*
X98333020Y-88077625D01*
X98239214Y-88197160D01*
X98184383Y-88280998D01*
X98182110Y-88285736D01*
X98163911Y-88320446D01*
X98137450Y-88345865D01*
X98090480Y-88363442D01*
X98010751Y-88374621D01*
X97886017Y-88380851D01*
X97704027Y-88383577D01*
X97452535Y-88384247D01*
X97347960Y-88384264D01*
X96558701Y-88384264D01*
X96519595Y-88487120D01*
X96484330Y-88601920D01*
X96452592Y-88738764D01*
X96451409Y-88744989D01*
X96422329Y-88900000D01*
X97930058Y-88900000D01*
X97847135Y-89189965D01*
X97805005Y-89350808D01*
X97775154Y-89490582D01*
X97764213Y-89576767D01*
X97764213Y-89673604D01*
X96182399Y-89673604D01*
X96095516Y-89963706D01*
X96040053Y-90153375D01*
X95975903Y-90379362D01*
X95916333Y-90594881D01*
X95912675Y-90608376D01*
X95816718Y-90962944D01*
X95221768Y-90962944D01*
X94970082Y-90959912D01*
X94782033Y-90951181D01*
X94665133Y-90937297D01*
X94626819Y-90919664D01*
X94638248Y-90869304D01*
X94670684Y-90746377D01*
X94721344Y-90560913D01*
X94787450Y-90322944D01*
X94866222Y-90042501D01*
X94954878Y-89729616D01*
X95016907Y-89512134D01*
X95135334Y-89101242D01*
X95235280Y-88764671D01*
X95320564Y-88493730D01*
X95395008Y-88279726D01*
X95462433Y-88113970D01*
X95526660Y-87987769D01*
X95591511Y-87892432D01*
X95660806Y-87819268D01*
X95738366Y-87759586D01*
X95805936Y-87717460D01*
X95856842Y-87688783D01*
X95907616Y-87665911D01*
X95968316Y-87648081D01*
X96048999Y-87634526D01*
X96159723Y-87624483D01*
X96310545Y-87617185D01*
X96511522Y-87611868D01*
X96772711Y-87607768D01*
X97104171Y-87604118D01*
X97323958Y-87601988D01*
X97707880Y-87598879D01*
X98013928Y-87597859D01*
X98250167Y-87599202D01*
G37*
G36*
X98224370Y-89451912D02*
G01*
X98297915Y-89146075D01*
X98391303Y-88846651D01*
X98500071Y-88574557D01*
X98525137Y-88521435D01*
X98712323Y-88232281D01*
X98966389Y-87984292D01*
X99274402Y-87786714D01*
X99623430Y-87648795D01*
X99805668Y-87605765D01*
X100046131Y-87578163D01*
X100323808Y-87573049D01*
X100610541Y-87588572D01*
X100878174Y-87622883D01*
X101098550Y-87674132D01*
X101156232Y-87694497D01*
X101440798Y-87841541D01*
X101660866Y-88027375D01*
X101810456Y-88244733D01*
X101883592Y-88486347D01*
X101890101Y-88586529D01*
X101877363Y-88717954D01*
X101842732Y-88908715D01*
X101791588Y-89136632D01*
X101729309Y-89379525D01*
X101661273Y-89615215D01*
X101592858Y-89821520D01*
X101586296Y-89839428D01*
X101415994Y-90188625D01*
X101186530Y-90475667D01*
X100897511Y-90700881D01*
X100548542Y-90864598D01*
X100262570Y-90944023D01*
X99976189Y-90985513D01*
X99663545Y-90999255D01*
X99361089Y-90985188D01*
X99116239Y-90945973D01*
X98821716Y-90847916D01*
X98566906Y-90710899D01*
X98363929Y-90544465D01*
X98224904Y-90358159D01*
X98167400Y-90198740D01*
X98154652Y-89999162D01*
X98159967Y-89932742D01*
X99356906Y-89932742D01*
X99367763Y-90033240D01*
X99429609Y-90102665D01*
X99542777Y-90169417D01*
X99673776Y-90216839D01*
X99762690Y-90229692D01*
X99853415Y-90212813D01*
X99979795Y-90169503D01*
X100030415Y-90147917D01*
X100174277Y-90053745D01*
X100298922Y-89906583D01*
X100408177Y-89698721D01*
X100505864Y-89422449D01*
X100595808Y-89070059D01*
X100619234Y-88960997D01*
X100655391Y-88747770D01*
X100657574Y-88598286D01*
X100622589Y-88496031D01*
X100547241Y-88424491D01*
X100511477Y-88404032D01*
X100316239Y-88348467D01*
X100109541Y-88366419D01*
X99913265Y-88452179D01*
X99749290Y-88600037D01*
X99746438Y-88603654D01*
X99676448Y-88722928D01*
X99602647Y-88898171D01*
X99530189Y-89109920D01*
X99464231Y-89338714D01*
X99409928Y-89565090D01*
X99372435Y-89769587D01*
X99356906Y-89932742D01*
X98159967Y-89932742D01*
X98175129Y-89743247D01*
X98224370Y-89451912D01*
G37*
G36*
X116197334Y-85682722D02*
G01*
X116297280Y-85698808D01*
X116330710Y-85719628D01*
X116293401Y-85749950D01*
X116203666Y-85762606D01*
X116076068Y-85762606D01*
X116061886Y-86160152D01*
X116047704Y-86557699D01*
X116038784Y-86160152D01*
X116029864Y-85762606D01*
X115900930Y-85762606D01*
X115810402Y-85750157D01*
X115772006Y-85720162D01*
X115771996Y-85719628D01*
X115811467Y-85697169D01*
X115916027Y-85681793D01*
X116051353Y-85676650D01*
X116197334Y-85682722D01*
G37*
G36*
X112329409Y-91871874D02*
G01*
X112412300Y-91901227D01*
X112496660Y-91968807D01*
X112596663Y-92075144D01*
X112698846Y-92186630D01*
X112842676Y-92340571D01*
X113010006Y-92517674D01*
X113182687Y-92698644D01*
X113204061Y-92720906D01*
X113623096Y-93157005D01*
X113623096Y-91865482D01*
X114009898Y-91865482D01*
X114009898Y-93713536D01*
X113857811Y-93713536D01*
X113801983Y-93711418D01*
X113749836Y-93700314D01*
X113693030Y-93673099D01*
X113623227Y-93622651D01*
X113532088Y-93541844D01*
X113411276Y-93423554D01*
X113252451Y-93260658D01*
X113047276Y-93046031D01*
X112920781Y-92912965D01*
X112762956Y-92749773D01*
X112625867Y-92613593D01*
X112520143Y-92514549D01*
X112456417Y-92462763D01*
X112443098Y-92458115D01*
X112434763Y-92507229D01*
X112427739Y-92626345D01*
X112422608Y-92799511D01*
X112419952Y-93010777D01*
X112419712Y-93099259D01*
X112419712Y-93717018D01*
X112246483Y-93706797D01*
X112132576Y-93695788D01*
X112061249Y-93680892D01*
X112053082Y-93676404D01*
X112047054Y-93629299D01*
X112041745Y-93509227D01*
X112037441Y-93329175D01*
X112034427Y-93102130D01*
X112032991Y-92841080D01*
X112032910Y-92760857D01*
X112032910Y-91865482D01*
X112220605Y-91865482D01*
X112329409Y-91871874D01*
G37*
G36*
X121372038Y-85980311D02*
G01*
X121449935Y-85999402D01*
X121458583Y-86007531D01*
X121471856Y-86065525D01*
X121487499Y-86189566D01*
X121503316Y-86359866D01*
X121514079Y-86507686D01*
X121529226Y-86694406D01*
X121547252Y-86844456D01*
X121565667Y-86940246D01*
X121578949Y-86965990D01*
X121593973Y-86925872D01*
X121608084Y-86816957D01*
X121619600Y-86656396D01*
X121626342Y-86482487D01*
X121638494Y-85998985D01*
X121800007Y-85985625D01*
X121926508Y-85990547D01*
X121980792Y-86028603D01*
X121988593Y-86083294D01*
X122001310Y-86208227D01*
X122017704Y-86387911D01*
X122036534Y-86606852D01*
X122056560Y-86849558D01*
X122076541Y-87100537D01*
X122095237Y-87344296D01*
X122111406Y-87565343D01*
X122123809Y-87748185D01*
X122131205Y-87877330D01*
X122132741Y-87926198D01*
X122153999Y-87987626D01*
X122175719Y-87997462D01*
X122190586Y-87955174D01*
X122202487Y-87830977D01*
X122211252Y-87628873D01*
X122216710Y-87352865D01*
X122218692Y-87006954D01*
X122218697Y-86987479D01*
X122218697Y-85977496D01*
X122388073Y-85977496D01*
X122501810Y-85986562D01*
X122573812Y-86009088D01*
X122581620Y-86016606D01*
X122588907Y-86067739D01*
X122598121Y-86194120D01*
X122608742Y-86385075D01*
X122620247Y-86629931D01*
X122632116Y-86918016D01*
X122643827Y-87238655D01*
X122649293Y-87402647D01*
X122664672Y-87860455D01*
X122678818Y-88238550D01*
X122692165Y-88543155D01*
X122705150Y-88780496D01*
X122718207Y-88956799D01*
X122731772Y-89078289D01*
X122746279Y-89151191D01*
X122762164Y-89181730D01*
X122773655Y-89181678D01*
X122780720Y-89135533D01*
X122786352Y-89013136D01*
X122790455Y-88824183D01*
X122792930Y-88578369D01*
X122793681Y-88285388D01*
X122792611Y-87954935D01*
X122789621Y-87596705D01*
X122789602Y-87594917D01*
X122785634Y-87143249D01*
X122784472Y-86773225D01*
X122786197Y-86480575D01*
X122790892Y-86261032D01*
X122798640Y-86110326D01*
X122809521Y-86024189D01*
X122820305Y-85999037D01*
X122886170Y-85987861D01*
X123007616Y-85989258D01*
X123122319Y-85999111D01*
X123406428Y-86072435D01*
X123651953Y-86217497D01*
X123846053Y-86426080D01*
X123885013Y-86487146D01*
X124002284Y-86686633D01*
X124015393Y-88942978D01*
X124017419Y-89381647D01*
X124018343Y-89799190D01*
X124018214Y-90186777D01*
X124017082Y-90535579D01*
X124014996Y-90836766D01*
X124012006Y-91081508D01*
X124008161Y-91260977D01*
X124003510Y-91366343D01*
X124001744Y-91383793D01*
X123935977Y-91576133D01*
X123808637Y-91756350D01*
X123642486Y-91895725D01*
X123563811Y-91936351D01*
X123431942Y-91976080D01*
X123298332Y-91992933D01*
X123192647Y-91985212D01*
X123148082Y-91960107D01*
X123126316Y-91910025D01*
X123079945Y-91793939D01*
X123014620Y-91626300D01*
X122935992Y-91421559D01*
X122883373Y-91283203D01*
X122786603Y-91028550D01*
X122669366Y-90721161D01*
X122542158Y-90388486D01*
X122415473Y-90057976D01*
X122317306Y-89802538D01*
X122200119Y-89497388D01*
X122074566Y-89169295D01*
X121950850Y-88845000D01*
X121839176Y-88551248D01*
X121760865Y-88344277D01*
X121622725Y-87999512D01*
X121492950Y-87725473D01*
X121363326Y-87508548D01*
X121225639Y-87335120D01*
X121071676Y-87191575D01*
X121059571Y-87181894D01*
X120831848Y-87032007D01*
X120572091Y-86909200D01*
X120316377Y-86829301D01*
X120216735Y-86812089D01*
X120051635Y-86790906D01*
X119958120Y-86768584D01*
X119922502Y-86733160D01*
X119931094Y-86672671D01*
X119963649Y-86590904D01*
X120106822Y-86356422D01*
X120316671Y-86166330D01*
X120431360Y-86098052D01*
X120539587Y-86060019D01*
X120695207Y-86026885D01*
X120877242Y-86000498D01*
X121064712Y-85982707D01*
X121236637Y-85975362D01*
X121372038Y-85980311D01*
G37*
G36*
X115019881Y-85676650D02*
G01*
X115189806Y-85703000D01*
X115311576Y-85772645D01*
X115375991Y-85871476D01*
X115373854Y-85985383D01*
X115296035Y-86100189D01*
X115206877Y-86183254D01*
X115296909Y-86359732D01*
X115341123Y-86462952D01*
X115352073Y-86526497D01*
X115342531Y-86536210D01*
X115299868Y-86500753D01*
X115239795Y-86410179D01*
X115203218Y-86340871D01*
X115138309Y-86222546D01*
X115081596Y-86167264D01*
X115012910Y-86156927D01*
X114999632Y-86158215D01*
X114933224Y-86176042D01*
X114895499Y-86224980D01*
X114872876Y-86328068D01*
X114865466Y-86385787D01*
X114854116Y-86457795D01*
X114845454Y-86455035D01*
X114839042Y-86374155D01*
X114834443Y-86211801D01*
X114833232Y-86138663D01*
X114829794Y-85903395D01*
X114869458Y-85903395D01*
X114877768Y-86011155D01*
X114897990Y-86077296D01*
X114900156Y-86079823D01*
X114973927Y-86103453D01*
X115085901Y-86095474D01*
X115197598Y-86063117D01*
X115270539Y-86013613D01*
X115273177Y-86009729D01*
X115297993Y-85911063D01*
X115246224Y-85832045D01*
X115126614Y-85781937D01*
X115047738Y-85770879D01*
X114935166Y-85766173D01*
X114884023Y-85786507D01*
X114870067Y-85849901D01*
X114869458Y-85903395D01*
X114829794Y-85903395D01*
X114826480Y-85676650D01*
X115019881Y-85676650D01*
G37*
G36*
X109969966Y-92763422D02*
G01*
X109969246Y-93067411D01*
X109966557Y-93296220D01*
X109961107Y-93460615D01*
X109952103Y-93571366D01*
X109938755Y-93639238D01*
X109920269Y-93675000D01*
X109901984Y-93687449D01*
X109796259Y-93709984D01*
X109685770Y-93709517D01*
X109613461Y-93686427D01*
X109611816Y-93684884D01*
X109603246Y-93635153D01*
X109595698Y-93512617D01*
X109589582Y-93330425D01*
X109585305Y-93101727D01*
X109583274Y-92839672D01*
X109583164Y-92760857D01*
X109583164Y-91865482D01*
X109969966Y-91865482D01*
X109969966Y-92763422D01*
G37*
G36*
X104770593Y-85741329D02*
G01*
X104872400Y-85775310D01*
X104893813Y-85806577D01*
X104839965Y-85823806D01*
X104735611Y-85818526D01*
X104595320Y-85825621D01*
X104505752Y-85877440D01*
X104471494Y-85953745D01*
X104497133Y-86034295D01*
X104587257Y-86098851D01*
X104667189Y-86120406D01*
X104787587Y-86150814D01*
X104875770Y-86191609D01*
X104880907Y-86195568D01*
X104929275Y-86282663D01*
X104938262Y-86401420D01*
X104906629Y-86506473D01*
X104889966Y-86527614D01*
X104804953Y-86565770D01*
X104677452Y-86578473D01*
X104545083Y-86566768D01*
X104445463Y-86531700D01*
X104425804Y-86514721D01*
X104392366Y-86462755D01*
X104420415Y-86455930D01*
X104516113Y-86493281D01*
X104528057Y-86498686D01*
X104651925Y-86525988D01*
X104744969Y-86519357D01*
X104827775Y-86478149D01*
X104854884Y-86393283D01*
X104855584Y-86366375D01*
X104850412Y-86293274D01*
X104822055Y-86247267D01*
X104751250Y-86214521D01*
X104618732Y-86181204D01*
X104588212Y-86174384D01*
X104464699Y-86111712D01*
X104407865Y-86003458D01*
X104423335Y-85876542D01*
X104504328Y-85770360D01*
X104638590Y-85728751D01*
X104770593Y-85741329D01*
G37*
G36*
X102384348Y-92750066D02*
G01*
X102857106Y-91866337D01*
X103007529Y-91866096D01*
X103066504Y-91868161D01*
X103114569Y-91882156D01*
X103160687Y-91919467D01*
X103213819Y-91991474D01*
X103282929Y-92109560D01*
X103376978Y-92285107D01*
X103455577Y-92435128D01*
X103579550Y-92671033D01*
X103707731Y-92912868D01*
X103826376Y-93134831D01*
X103921745Y-93311121D01*
X103935878Y-93336921D01*
X104013973Y-93486177D01*
X104068469Y-93604376D01*
X104091533Y-93673795D01*
X104089522Y-93684423D01*
X104026623Y-93691940D01*
X103906846Y-93689152D01*
X103758562Y-93676758D01*
X103753113Y-93676148D01*
X103704170Y-93637588D01*
X103641280Y-93547781D01*
X103620041Y-93509391D01*
X103536478Y-93348223D01*
X102999729Y-93336248D01*
X102462980Y-93324272D01*
X102385895Y-93495216D01*
X102309468Y-93622000D01*
X102219242Y-93680076D01*
X102196156Y-93685284D01*
X102040740Y-93704069D01*
X101935975Y-93701249D01*
X101896986Y-93677538D01*
X101898085Y-93671203D01*
X101921419Y-93624133D01*
X101979539Y-93512419D01*
X102066586Y-93347157D01*
X102176704Y-93139443D01*
X102212181Y-93072833D01*
X102620727Y-93072833D01*
X102660499Y-93090012D01*
X102767033Y-93103331D01*
X102921156Y-93110857D01*
X103007529Y-93111844D01*
X103206112Y-93108104D01*
X103328842Y-93095971D01*
X103385538Y-93074072D01*
X103392173Y-93058122D01*
X103372638Y-92998225D01*
X103322044Y-92882249D01*
X103249371Y-92730177D01*
X103206005Y-92643800D01*
X103021995Y-92283200D01*
X102936393Y-92428910D01*
X102856427Y-92571476D01*
X102774457Y-92727992D01*
X102700961Y-92877081D01*
X102646421Y-92997365D01*
X102621314Y-93067468D01*
X102620727Y-93072833D01*
X102212181Y-93072833D01*
X102304035Y-92900372D01*
X102384348Y-92750066D01*
G37*
G36*
X118063363Y-89155728D02*
G01*
X118159957Y-88839465D01*
X118252453Y-88537908D01*
X118337590Y-88261762D01*
X118412111Y-88021731D01*
X118472757Y-87828521D01*
X118516269Y-87692836D01*
X118539389Y-87625380D01*
X118541938Y-87619963D01*
X118589275Y-87613744D01*
X118706401Y-87609413D01*
X118877163Y-87607279D01*
X119085408Y-87607650D01*
X119151959Y-87608287D01*
X119433307Y-87614820D01*
X119645916Y-87630252D01*
X119806898Y-87659258D01*
X119933366Y-87706513D01*
X120042433Y-87776694D01*
X120151211Y-87874476D01*
X120160675Y-87883893D01*
X120249854Y-87998493D01*
X120355555Y-88173830D01*
X120466913Y-88389162D01*
X120573064Y-88623750D01*
X120647916Y-88814044D01*
X120681538Y-88900491D01*
X120742314Y-89050819D01*
X120823962Y-89249724D01*
X120920197Y-89481900D01*
X121024737Y-89732042D01*
X121027267Y-89738071D01*
X121134886Y-89995193D01*
X121237247Y-90241063D01*
X121327259Y-90458545D01*
X121397829Y-90630507D01*
X121440879Y-90737310D01*
X121529795Y-90962944D01*
X120075961Y-90962944D01*
X120023217Y-90727259D01*
X119993560Y-90614202D01*
X119954192Y-90535344D01*
X119890909Y-90485215D01*
X119789509Y-90458350D01*
X119635790Y-90449280D01*
X119415548Y-90452539D01*
X119317682Y-90455662D01*
X118930880Y-90468697D01*
X118868331Y-90715821D01*
X118805781Y-90962944D01*
X118169938Y-90962944D01*
X117947233Y-90960890D01*
X117758587Y-90955233D01*
X117618956Y-90946733D01*
X117543299Y-90936148D01*
X117534095Y-90930678D01*
X117546166Y-90882139D01*
X117580209Y-90762667D01*
X117632963Y-90582967D01*
X117701171Y-90353746D01*
X117781574Y-90085706D01*
X117870913Y-89789554D01*
X117929766Y-89595334D01*
X119130289Y-89595334D01*
X119133304Y-89666867D01*
X119185054Y-89702735D01*
X119299162Y-89715206D01*
X119429725Y-89716582D01*
X119596932Y-89712267D01*
X119689400Y-89697968D01*
X119717976Y-89671652D01*
X119716373Y-89662860D01*
X119639418Y-89448197D01*
X119562470Y-89242723D01*
X119491611Y-89061698D01*
X119432923Y-88920381D01*
X119392489Y-88834030D01*
X119378209Y-88814457D01*
X119354478Y-88852156D01*
X119317212Y-88951147D01*
X119276638Y-89082656D01*
X119230003Y-89245642D01*
X119186977Y-89393454D01*
X119162388Y-89475872D01*
X119130289Y-89595334D01*
X117929766Y-89595334D01*
X117965929Y-89475993D01*
X118063363Y-89155728D01*
G37*
G36*
X103429176Y-85783292D02*
G01*
X103460872Y-85742725D01*
X103515499Y-85727026D01*
X103518151Y-85726645D01*
X103708562Y-85724258D01*
X103854141Y-85769812D01*
X103945071Y-85853476D01*
X103971532Y-85965422D01*
X103923706Y-86095818D01*
X103908624Y-86117574D01*
X103850825Y-86206294D01*
X103842269Y-86275946D01*
X103878985Y-86371577D01*
X103885093Y-86384512D01*
X103936475Y-86511110D01*
X103943868Y-86571261D01*
X103915527Y-86566775D01*
X103859705Y-86499462D01*
X103784657Y-86371133D01*
X103779646Y-86361382D01*
X103705626Y-86245489D01*
X103629121Y-86196864D01*
X103589214Y-86192386D01*
X103525284Y-86201524D01*
X103491594Y-86243782D01*
X103475249Y-86341426D01*
X103470983Y-86396531D01*
X103456969Y-86600677D01*
X103423105Y-86450254D01*
X103406996Y-86325257D01*
X103400137Y-86156422D01*
X103402531Y-86020474D01*
X103405332Y-85977496D01*
X103480287Y-85977496D01*
X103485298Y-86087693D01*
X103512934Y-86136678D01*
X103582096Y-86149115D01*
X103612047Y-86149408D01*
X103736288Y-86134900D01*
X103826937Y-86104918D01*
X103897930Y-86026423D01*
X103900490Y-85924702D01*
X103858494Y-85857157D01*
X103783919Y-85823209D01*
X103666764Y-85806082D01*
X103643604Y-85805584D01*
X103539064Y-85810102D01*
X103492611Y-85840197D01*
X103480676Y-85920678D01*
X103480287Y-85977496D01*
X103405332Y-85977496D01*
X103412399Y-85869088D01*
X103429176Y-85783292D01*
G37*
G36*
X99042809Y-91873395D02*
G01*
X99307143Y-91881229D01*
X99501874Y-91890932D01*
X99643352Y-91904644D01*
X99747929Y-91924504D01*
X99831958Y-91952653D01*
X99901483Y-91985765D01*
X100053624Y-92096482D01*
X100163690Y-92236661D01*
X100212966Y-92381331D01*
X100213959Y-92402707D01*
X100174376Y-92554073D01*
X100067290Y-92696077D01*
X99910200Y-92806568D01*
X99885944Y-92817939D01*
X99767258Y-92879959D01*
X99725516Y-92929047D01*
X99733727Y-92953851D01*
X99825526Y-93071222D01*
X99931725Y-93212293D01*
X100039968Y-93359920D01*
X100137899Y-93496958D01*
X100213161Y-93606265D01*
X100253399Y-93670697D01*
X100256937Y-93679784D01*
X100219789Y-93699660D01*
X100129143Y-93705984D01*
X100016196Y-93699870D01*
X99912145Y-93682433D01*
X99864452Y-93665757D01*
X99810059Y-93616960D01*
X99720990Y-93514920D01*
X99611773Y-93376869D01*
X99543368Y-93284953D01*
X99292434Y-92939932D01*
X98752707Y-92939932D01*
X98752707Y-93326734D01*
X98752485Y-93513360D01*
X98744426Y-93628789D01*
X98717439Y-93687720D01*
X98660437Y-93704850D01*
X98562328Y-93694879D01*
X98484095Y-93682753D01*
X98365905Y-93664849D01*
X98365905Y-92682064D01*
X98748605Y-92682064D01*
X99174640Y-92682064D01*
X99379060Y-92679639D01*
X99518082Y-92670108D01*
X99612184Y-92650089D01*
X99681843Y-92616200D01*
X99713916Y-92592989D01*
X99807478Y-92478631D01*
X99817434Y-92356525D01*
X99743844Y-92238641D01*
X99712055Y-92210962D01*
X99648046Y-92168318D01*
X99574564Y-92142625D01*
X99470458Y-92130737D01*
X99314582Y-92129507D01*
X99185575Y-92132631D01*
X98774196Y-92144839D01*
X98761401Y-92413452D01*
X98748605Y-92682064D01*
X98365905Y-92682064D01*
X98365905Y-91856476D01*
X99042809Y-91873395D01*
G37*
G36*
X95823129Y-83900557D02*
G01*
X95921968Y-84117403D01*
X96057677Y-84279856D01*
X96238494Y-84458259D01*
X97355922Y-84509245D01*
X97715686Y-84525069D01*
X98100391Y-84540967D01*
X98485080Y-84555977D01*
X98844794Y-84569138D01*
X99154575Y-84579489D01*
X99268443Y-84582901D01*
X99543381Y-84591600D01*
X99808950Y-84601557D01*
X100045037Y-84611904D01*
X100231533Y-84621772D01*
X100332149Y-84628795D01*
X100479039Y-84644172D01*
X100559701Y-84664237D01*
X100593740Y-84698278D01*
X100600761Y-84755583D01*
X100600761Y-84756043D01*
X100587997Y-84835196D01*
X100564596Y-84860068D01*
X100509502Y-84862884D01*
X100380723Y-84870797D01*
X100190327Y-84882999D01*
X99950384Y-84898685D01*
X99672961Y-84917050D01*
X99370126Y-84937286D01*
X99053949Y-84958589D01*
X98736498Y-84980152D01*
X98429841Y-85001169D01*
X98146046Y-85020835D01*
X97931161Y-85035932D01*
X97217059Y-85086518D01*
X97386875Y-85256334D01*
X97517535Y-85413777D01*
X97632974Y-85600683D01*
X97719046Y-85789578D01*
X97761601Y-85952989D01*
X97763793Y-85988240D01*
X97764213Y-86106430D01*
X97151776Y-86106406D01*
X96539340Y-86106382D01*
X96290980Y-85828654D01*
X96090301Y-85628602D01*
X95889710Y-85484327D01*
X95769100Y-85420387D01*
X95622534Y-85354913D01*
X95499769Y-85308066D01*
X95427069Y-85289852D01*
X95426512Y-85289848D01*
X95402022Y-85281383D01*
X95384028Y-85248547D01*
X95371560Y-85180176D01*
X95363649Y-85065105D01*
X95359326Y-84892173D01*
X95357620Y-84650214D01*
X95357445Y-84494755D01*
X95357445Y-83699662D01*
X95769397Y-83699662D01*
X95823129Y-83900557D01*
G37*
G36*
X111883011Y-85767239D02*
G01*
X111897482Y-85873544D01*
X111903759Y-86054536D01*
X111903976Y-86103893D01*
X111903976Y-86493232D01*
X112142892Y-86493232D01*
X112281897Y-86500078D01*
X112351295Y-86519287D01*
X112355245Y-86536210D01*
X112301118Y-86559127D01*
X112192898Y-86573670D01*
X112062122Y-86578951D01*
X111940325Y-86574081D01*
X111859043Y-86558172D01*
X111846672Y-86550536D01*
X111830545Y-86493011D01*
X111821171Y-86375842D01*
X111818121Y-86223201D01*
X111820968Y-86059262D01*
X111829284Y-85908195D01*
X111842641Y-85794175D01*
X111860611Y-85741372D01*
X111860998Y-85741117D01*
X111883011Y-85767239D01*
G37*
G36*
X114425313Y-87589728D02*
G01*
X114589880Y-87592655D01*
X114694033Y-87599838D01*
X114750543Y-87613163D01*
X114772181Y-87634516D01*
X114771718Y-87665781D01*
X114769701Y-87675127D01*
X114733396Y-87819944D01*
X114678892Y-88020668D01*
X114610305Y-88263595D01*
X114531745Y-88535021D01*
X114447328Y-88821242D01*
X114361167Y-89108556D01*
X114277374Y-89383259D01*
X114200065Y-89631646D01*
X114133350Y-89840014D01*
X114081346Y-89994659D01*
X114048164Y-90081879D01*
X114045739Y-90086970D01*
X113899797Y-90308518D01*
X113696787Y-90521501D01*
X113463739Y-90699569D01*
X113351643Y-90763640D01*
X113044897Y-90882793D01*
X112688473Y-90962244D01*
X112310609Y-90998592D01*
X111939541Y-90988437D01*
X111732236Y-90958671D01*
X111390534Y-90862562D01*
X111114110Y-90718434D01*
X110893587Y-90520872D01*
X110825704Y-90435112D01*
X110765332Y-90339842D01*
X110723767Y-90239145D01*
X110702057Y-90123174D01*
X110701253Y-89982084D01*
X110722405Y-89806028D01*
X110766563Y-89585160D01*
X110834776Y-89309634D01*
X110928096Y-88969603D01*
X111013819Y-88671055D01*
X111323773Y-87604039D01*
X111903052Y-87604577D01*
X112116257Y-87607314D01*
X112295966Y-87614442D01*
X112426071Y-87624956D01*
X112490460Y-87637853D01*
X112494431Y-87641415D01*
X112486235Y-87690988D01*
X112456862Y-87811587D01*
X112409383Y-87991772D01*
X112346870Y-88220105D01*
X112272393Y-88485147D01*
X112202369Y-88729382D01*
X112118872Y-89022239D01*
X112043834Y-89293378D01*
X111980581Y-89530137D01*
X111932436Y-89719853D01*
X111902725Y-89849863D01*
X111894468Y-89902166D01*
X111926028Y-90047033D01*
X112027274Y-90146016D01*
X112192648Y-90194782D01*
X112275698Y-90199258D01*
X112528334Y-90168920D01*
X112730166Y-90080808D01*
X112871572Y-89939279D01*
X112880059Y-89925658D01*
X112914983Y-89845783D01*
X112968450Y-89695762D01*
X113036378Y-89488375D01*
X113114686Y-89236403D01*
X113199294Y-88952624D01*
X113276179Y-88685110D01*
X113585650Y-87589171D01*
X114187563Y-87589171D01*
X114425313Y-87589728D01*
G37*
G36*
X102898345Y-85730331D02*
G01*
X102939395Y-85755203D01*
X102906809Y-85784571D01*
X102804885Y-85808176D01*
X102740041Y-85814043D01*
X102513282Y-85827073D01*
X102513282Y-85977496D01*
X102518472Y-86070457D01*
X102549495Y-86118177D01*
X102629536Y-86141597D01*
X102706683Y-86152187D01*
X102900084Y-86176456D01*
X102706683Y-86195165D01*
X102587933Y-86210499D01*
X102531614Y-86239551D01*
X102514458Y-86302669D01*
X102513282Y-86364298D01*
X102513282Y-86514721D01*
X102986040Y-86565177D01*
X102717428Y-86572182D01*
X102448815Y-86579188D01*
X102448815Y-86175909D01*
X102451210Y-85974284D01*
X102465794Y-85843303D01*
X102503670Y-85767663D01*
X102575937Y-85732059D01*
X102693698Y-85721187D01*
X102779358Y-85720215D01*
X102898345Y-85730331D01*
G37*
G36*
X102315674Y-88534665D02*
G01*
X102396721Y-88257956D01*
X102467694Y-88018304D01*
X102525499Y-87826491D01*
X102567041Y-87693302D01*
X102589223Y-87629520D01*
X102591316Y-87625746D01*
X102638143Y-87620327D01*
X102759309Y-87615758D01*
X102943200Y-87612207D01*
X103178201Y-87609846D01*
X103452698Y-87608843D01*
X103720077Y-87609229D01*
X104828191Y-87613360D01*
X105110500Y-87751688D01*
X105355863Y-87902486D01*
X105524952Y-88081240D01*
X105625575Y-88298054D01*
X105657413Y-88459457D01*
X105653660Y-88720281D01*
X105573960Y-88954917D01*
X105414165Y-89173366D01*
X105325405Y-89259791D01*
X105179299Y-89375932D01*
X105021812Y-89478193D01*
X104920372Y-89529602D01*
X104807784Y-89585112D01*
X104737975Y-89637257D01*
X104726811Y-89658168D01*
X104744434Y-89711903D01*
X104793239Y-89828794D01*
X104866958Y-89994627D01*
X104959324Y-90195188D01*
X105025779Y-90336154D01*
X105324909Y-90965109D01*
X104655617Y-90953282D01*
X103986326Y-90941455D01*
X103861265Y-90619120D01*
X103751316Y-90336194D01*
X103666804Y-90123328D01*
X103601776Y-89970560D01*
X103550281Y-89867928D01*
X103506370Y-89805472D01*
X103464090Y-89773229D01*
X103417491Y-89761240D01*
X103360621Y-89759541D01*
X103347755Y-89759560D01*
X103181916Y-89759560D01*
X103096511Y-90049662D01*
X103037311Y-90250661D01*
X102970112Y-90478681D01*
X102919852Y-90649130D01*
X102828596Y-90958497D01*
X102230345Y-90971465D01*
X102014803Y-90974985D01*
X101833775Y-90975744D01*
X101702672Y-90973850D01*
X101636904Y-90969407D01*
X101632164Y-90967361D01*
X101643697Y-90913209D01*
X101676111Y-90788274D01*
X101726310Y-90603340D01*
X101791199Y-90369190D01*
X101867682Y-90096608D01*
X101952664Y-89796379D01*
X102043049Y-89479286D01*
X102135743Y-89156114D01*
X102194151Y-88953722D01*
X103425465Y-88953722D01*
X103477327Y-88973755D01*
X103590430Y-88983857D01*
X103740700Y-88984588D01*
X103904065Y-88976507D01*
X104056451Y-88960174D01*
X104173090Y-88936356D01*
X104327729Y-88859096D01*
X104426438Y-88745571D01*
X104456183Y-88612943D01*
X104449735Y-88572097D01*
X104402939Y-88485820D01*
X104306309Y-88428245D01*
X104148783Y-88395663D01*
X103919300Y-88384366D01*
X103889512Y-88384264D01*
X103573705Y-88384264D01*
X103491127Y-88652876D01*
X103451204Y-88795158D01*
X103427712Y-88904028D01*
X103425465Y-88953722D01*
X102194151Y-88953722D01*
X102227650Y-88837645D01*
X102315674Y-88534665D01*
G37*
G36*
X121617005Y-92884214D02*
G01*
X121262436Y-92911764D01*
X121110758Y-92923177D01*
X120892477Y-92939098D01*
X120626745Y-92958156D01*
X120332714Y-92978980D01*
X120029535Y-93000197D01*
X119962352Y-93004862D01*
X119682326Y-93024779D01*
X119428314Y-93043801D01*
X119213873Y-93060835D01*
X119052562Y-93074787D01*
X118957937Y-93084567D01*
X118941624Y-93087104D01*
X118899340Y-93085434D01*
X118876526Y-93044613D01*
X118867530Y-92946818D01*
X118866413Y-92849953D01*
X118866413Y-92596108D01*
X121617005Y-92596108D01*
X121617005Y-92884214D01*
G37*
G36*
X106891205Y-91884901D02*
G01*
X107141983Y-91943250D01*
X107360888Y-92044390D01*
X107528702Y-92184891D01*
X107581377Y-92258255D01*
X107633830Y-92355815D01*
X107632947Y-92404930D01*
X107566981Y-92422185D01*
X107463835Y-92424196D01*
X107333021Y-92413389D01*
X107247278Y-92368986D01*
X107184401Y-92296898D01*
X107049819Y-92181231D01*
X106865152Y-92111753D01*
X106657641Y-92097113D01*
X106584811Y-92106517D01*
X106400739Y-92161226D01*
X106272395Y-92253569D01*
X106192202Y-92395314D01*
X106152581Y-92598224D01*
X106144924Y-92789509D01*
X106161773Y-93047780D01*
X106217562Y-93234694D01*
X106320153Y-93359040D01*
X106477409Y-93429601D01*
X106697193Y-93455165D01*
X106741070Y-93455668D01*
X106892644Y-93451212D01*
X106992387Y-93429547D01*
X107074290Y-93378234D01*
X107152042Y-93305245D01*
X107265649Y-93207414D01*
X107370917Y-93163395D01*
X107476913Y-93154822D01*
X107651361Y-93154822D01*
X107585836Y-93281535D01*
X107450646Y-93454350D01*
X107255120Y-93586148D01*
X107016759Y-93672372D01*
X106753066Y-93708465D01*
X106481544Y-93689870D01*
X106257151Y-93627460D01*
X106053301Y-93528541D01*
X105909045Y-93407003D01*
X105817144Y-93249097D01*
X105770358Y-93041080D01*
X105761448Y-92769204D01*
X105764206Y-92691493D01*
X105786356Y-92457090D01*
X105835789Y-92285740D01*
X105924187Y-92155973D01*
X106063229Y-92046313D01*
X106139842Y-92000917D01*
X106370915Y-91910304D01*
X106627777Y-91872776D01*
X106891205Y-91884901D01*
G37*
X32700400Y-95275400D02*
X32700400Y-91825400D01*
X32700400Y-95275400D02*
X32700400Y-97225400D01*
X27580400Y-95275400D02*
X27580400Y-97225400D01*
X27580400Y-95275400D02*
X27580400Y-93325400D01*
X53305108Y-97786656D02*
X53305108Y-104898656D01*
X73498108Y-97786656D02*
X53305108Y-97786656D01*
X73498108Y-104898656D02*
X73498108Y-97786656D01*
X53305108Y-104898656D02*
X73498108Y-104898656D01*
X67310800Y-69063400D02*
X67310800Y-68113400D01*
X48040800Y-48843400D02*
X47090800Y-48843400D01*
X48040800Y-69063400D02*
X47090800Y-69063400D01*
X47090800Y-69063400D02*
X47090800Y-68113400D01*
X47090800Y-49793400D02*
X45800800Y-49793400D01*
X66360800Y-48843400D02*
X67310800Y-48843400D01*
X67310800Y-48843400D02*
X67310800Y-49793400D01*
X47090800Y-48843400D02*
X47090800Y-49793400D01*
X66360800Y-69063400D02*
X67310800Y-69063400D01*
X106430000Y-26656000D02*
X99310000Y-26656000D01*
X106430000Y-25556000D02*
X99310000Y-25556000D01*
X102265000Y-28715000D02*
X102394000Y-28587000D01*
X106430000Y-32816000D02*
X106430000Y-25096000D01*
X106430000Y-32816000D02*
X99310000Y-32816000D01*
X99310000Y-32816000D02*
X99310000Y-25096000D01*
X102095000Y-28475000D02*
X102189000Y-28382000D01*
X106430000Y-25096000D02*
X99310000Y-25096000D01*
X106670000Y-24856000D02*
X106270000Y-24856000D01*
X106670000Y-25496000D02*
X106670000Y-24856000D01*
X99845000Y-30725000D02*
X99974000Y-30597000D01*
X100050000Y-30931000D02*
X100144000Y-30837000D01*
X105486000Y-28216000D02*
G75*
G03*
X104591326Y-27975901I-866003J-1440014D01*
G01*
X103754000Y-31096001D02*
G75*
G03*
X105509894Y-31081358I866000J1439999D01*
G01*
X103195000Y-28765000D02*
G75*
G03*
X103194496Y-30546193I1425003J-891000D01*
G01*
X104620000Y-27976000D02*
G75*
G03*
X103729736Y-28231279I-3J-1679990D01*
G01*
X106060001Y-30522000D02*
G75*
G03*
X106045358Y-28766106I-1439999J866000D01*
G01*
X102800000Y-29656000D02*
G75*
G03*
X102800000Y-29656000I-1680000J0D01*
G01*
X76454000Y-100040000D02*
X77104000Y-100040000D01*
X76454000Y-103160000D02*
X75804000Y-103160000D01*
X76454000Y-103160000D02*
X78129000Y-103160000D01*
X76454000Y-100040000D02*
X75804000Y-100040000D01*
X32196264Y-91387600D02*
X31742136Y-91387600D01*
X32196264Y-89917600D02*
X31742136Y-89917600D01*
X60090267Y-72565800D02*
X59797733Y-72565800D01*
X60090267Y-73585800D02*
X59797733Y-73585800D01*
X91881000Y-59858600D02*
X91881000Y-61188600D01*
X91881000Y-62458600D02*
X91881000Y-75218600D01*
X89221000Y-62458600D02*
X91881000Y-62458600D01*
X90551000Y-59858600D02*
X91881000Y-59858600D01*
X89221000Y-75218600D02*
X91881000Y-75218600D01*
X89221000Y-62458600D02*
X89221000Y-75218600D01*
X32428000Y-67997336D02*
X32428000Y-68451464D01*
X33898000Y-67997336D02*
X33898000Y-68451464D01*
X25947864Y-81253000D02*
X25493736Y-81253000D01*
X25947864Y-79783000D02*
X25493736Y-79783000D01*
X51795808Y-90096589D02*
X51795808Y-90389123D01*
X50775808Y-90096589D02*
X50775808Y-90389123D01*
X52332008Y-90103733D02*
X52332008Y-90396267D01*
X53352008Y-90103733D02*
X53352008Y-90396267D01*
X17466000Y-88900000D02*
X17466000Y-76140000D01*
X20126000Y-88900000D02*
X20126000Y-76140000D01*
X20126000Y-76140000D02*
X17466000Y-76140000D01*
X20126000Y-88900000D02*
X17466000Y-88900000D01*
X18796000Y-91500000D02*
X17466000Y-91500000D01*
X17466000Y-91500000D02*
X17466000Y-90170000D01*
X33483000Y-86146600D02*
X35383000Y-86146600D01*
X35383000Y-86146600D02*
X35383000Y-88046600D01*
X35383000Y-88046600D02*
X33483000Y-88046600D01*
X33483000Y-88046600D02*
X33483000Y-86146600D01*
X93444000Y-61078000D02*
X100744000Y-61078000D01*
X93444000Y-56778000D02*
X100744000Y-56778000D01*
X93444000Y-56778000D02*
X93444000Y-61078000D01*
X51399400Y-85049400D02*
X51399400Y-83149400D01*
X53299400Y-83149400D02*
X53299400Y-85049400D01*
X51399400Y-83149400D02*
X53299400Y-83149400D01*
X53299400Y-85049400D02*
X51399400Y-85049400D01*
X94731800Y-49668500D02*
X92781800Y-49668500D01*
X94731800Y-44548500D02*
X91281800Y-44548500D01*
X94731800Y-49668500D02*
X96681800Y-49668500D01*
X94731800Y-44548500D02*
X96681800Y-44548500D01*
X28592600Y-89990664D02*
X28592600Y-89536536D01*
X30062600Y-89990664D02*
X30062600Y-89536536D01*
X83032200Y-31071400D02*
X83032200Y-31471400D01*
X83032200Y-33991400D02*
X83032200Y-39771400D01*
X78322200Y-30771400D02*
X79822200Y-30571400D01*
X69212200Y-31071400D02*
X69212200Y-31471400D01*
X69212200Y-33991400D02*
X69212200Y-39771400D01*
X71422200Y-30371400D02*
X73122200Y-30671400D01*
X77022200Y-30871400D02*
X78322200Y-30771400D01*
X81122200Y-30271400D02*
X81622200Y-30171400D01*
X70622200Y-31071400D02*
X70622200Y-30071400D01*
X73922200Y-30771400D02*
X75222200Y-30871400D01*
X73122200Y-30671400D02*
X73922200Y-30771400D01*
X71122200Y-29571400D02*
X81122200Y-29571400D01*
X83032200Y-44991400D02*
X69212200Y-44991400D01*
X83032200Y-42291400D02*
X83032200Y-44991400D01*
X79822200Y-30571400D02*
X81122200Y-30271400D01*
X70622200Y-30171400D02*
X71422200Y-30371400D01*
X75222200Y-30871400D02*
X77022200Y-30871400D01*
X81622200Y-31071400D02*
X81622200Y-30071400D01*
X69212200Y-42291400D02*
X69212200Y-44991400D01*
X69212200Y-31071400D02*
X83032200Y-31071400D01*
X81622200Y-30071400D02*
G75*
G03*
X81122200Y-29571400I-500000J0D01*
G01*
X71122200Y-29571400D02*
G75*
G03*
X70622200Y-30071400I1J-500001D01*
G01*
X32780400Y-81634064D02*
X32780400Y-81179936D01*
X31310400Y-81634064D02*
X31310400Y-81179936D01*
X58032867Y-75338400D02*
X57740333Y-75338400D01*
X58032867Y-74318400D02*
X57740333Y-74318400D01*
X35167600Y-90494067D02*
X35167600Y-90201533D01*
X36187600Y-90494067D02*
X36187600Y-90201533D01*
X50725400Y-45464464D02*
X50725400Y-45010336D01*
X52195400Y-45464464D02*
X52195400Y-45010336D01*
X112882500Y-62101900D02*
X112882500Y-31131900D01*
X111988162Y-51906900D02*
X112421175Y-52156900D01*
X111988162Y-52406900D02*
X111988162Y-51906900D01*
X112882500Y-31131900D02*
X125222500Y-31131900D01*
X112421175Y-52156900D02*
X111988162Y-52406900D01*
X125222500Y-62101900D02*
X112882500Y-62101900D01*
X45001200Y-60132000D02*
X45001200Y-60772000D01*
X44051200Y-61812000D02*
X43721200Y-61812000D01*
X44061200Y-59092000D02*
X43721200Y-59092000D01*
X44271200Y-62012000D02*
X44961200Y-62012000D01*
X42781200Y-60132000D02*
X42781200Y-60772000D01*
X44051199Y-61812000D02*
G75*
G03*
X44271200Y-62012000I310002J120002D01*
G01*
X29524667Y-82806000D02*
X29232133Y-82806000D01*
X29524667Y-81786000D02*
X29232133Y-81786000D01*
X34837864Y-92203600D02*
X34383736Y-92203600D01*
X34837864Y-93673600D02*
X34383736Y-93673600D01*
X41091067Y-60881800D02*
X40798533Y-60881800D01*
X41091067Y-61901800D02*
X40798533Y-61901800D01*
X62895144Y-94968856D02*
X63349272Y-94968856D01*
X62895144Y-96438856D02*
X63349272Y-96438856D01*
X54720000Y-90103733D02*
X54720000Y-90396267D01*
X53700000Y-90103733D02*
X53700000Y-90396267D01*
X100724664Y-50154900D02*
X100270536Y-50154900D01*
X100724664Y-48684900D02*
X100270536Y-48684900D01*
%LPC*%
D13*
X94041500Y-52918900D03*
X93838300Y-41514300D03*
D14*
X31282300Y-67132200D03*
X29557300Y-67132200D03*
D15*
X62084000Y-91620500D03*
X62084000Y-89895500D03*
D16*
X87187800Y-64151200D03*
X86537800Y-64151200D03*
X85887800Y-64151200D03*
X85887800Y-66811200D03*
X87187800Y-66811200D03*
D17*
X34361400Y-65024000D03*
X33061400Y-65024000D03*
X31761400Y-65024000D03*
D18*
X64703200Y-73023600D03*
D19*
X64303200Y-73023600D03*
X63903200Y-73023600D03*
X63503200Y-73023600D03*
X63103200Y-73023600D03*
D20*
X62703200Y-73023600D03*
D21*
X62203200Y-73523600D03*
D22*
X62203200Y-73923600D03*
X62203200Y-74323600D03*
X62203200Y-74723600D03*
X62203200Y-75123600D03*
D23*
X62203200Y-75523600D03*
D24*
X62703200Y-76023600D03*
D19*
X63103200Y-76023600D03*
X63503200Y-76023600D03*
X63903200Y-76023600D03*
X64303200Y-76023600D03*
D25*
X64703200Y-76023600D03*
D26*
X65203200Y-75523600D03*
D22*
X65203200Y-75123600D03*
X65203200Y-74723600D03*
X65203200Y-74323600D03*
X65203200Y-73923600D03*
D27*
X65203200Y-73523600D03*
D28*
X132080000Y-25400000D03*
D29*
X58674500Y-89742000D03*
X56349500Y-89742000D03*
D30*
X62611000Y-77445700D03*
X62611000Y-79170700D03*
D31*
X45744000Y-89018000D03*
D32*
X47244000Y-88930500D03*
D31*
X48744000Y-89018000D03*
D13*
X41799000Y-92684600D03*
D30*
X47221808Y-91615556D03*
X47221808Y-93340556D03*
D33*
X29708600Y-71332600D03*
X29708600Y-69332600D03*
D34*
X33299400Y-71170800D03*
X31299400Y-71170800D03*
X64100000Y-93823256D03*
X62100000Y-93823256D03*
D35*
X34458400Y-81021400D03*
X34458400Y-82321400D03*
X34458400Y-83621400D03*
D36*
X56534500Y-96092000D03*
X53409500Y-96092000D03*
D34*
X30480000Y-80518000D03*
X28480000Y-80518000D03*
D33*
X97500400Y-43358700D03*
X97500400Y-41358700D03*
D37*
X56388000Y-92014000D03*
X56388000Y-92964000D03*
X56388000Y-93914000D03*
X59808000Y-93914000D03*
X59808000Y-92964000D03*
X59808000Y-92014000D03*
D38*
X32172400Y-73242400D03*
X30902400Y-73242400D03*
X29632400Y-73242400D03*
X28362400Y-73242400D03*
X28362400Y-78192400D03*
X29632400Y-78192400D03*
X30902400Y-78192400D03*
X32172400Y-78192400D03*
D39*
X30267400Y-75717400D03*
D13*
X28194000Y-65024000D03*
D40*
X97449600Y-50883700D03*
X97449600Y-52883700D03*
D35*
X38065200Y-90063800D03*
X38065200Y-91363800D03*
X38065200Y-92663800D03*
D28*
X15240000Y-106680000D03*
D41*
X82070000Y-100900000D03*
D42*
X85570000Y-100900000D03*
D13*
X46736000Y-96799400D03*
D38*
X32045400Y-92800400D03*
X30775400Y-92800400D03*
X29505400Y-92800400D03*
X28235400Y-92800400D03*
X28235400Y-97750400D03*
X29505400Y-97750400D03*
X30775400Y-97750400D03*
X32045400Y-97750400D03*
D39*
X30140400Y-95275400D03*
D43*
X70132608Y-102993656D03*
X70132608Y-99691656D03*
X56670608Y-102993656D03*
X56670608Y-99691656D03*
D44*
X46538300Y-50203400D03*
X46538300Y-50703400D03*
X46538300Y-51203400D03*
X46538300Y-51703400D03*
X46538300Y-52203400D03*
X46538300Y-52703400D03*
X46538300Y-53203400D03*
X46538300Y-53703400D03*
X46538300Y-54203400D03*
X46538300Y-54703400D03*
X46538300Y-55203400D03*
X46538300Y-55703400D03*
X46538300Y-56203400D03*
X46538300Y-56703400D03*
X46538300Y-57203400D03*
X46538300Y-57703400D03*
X46538300Y-58203400D03*
X46538300Y-58703400D03*
X46538300Y-59203400D03*
X46538300Y-59703400D03*
X46538300Y-60203400D03*
X46538300Y-60703400D03*
X46538300Y-61203400D03*
X46538300Y-61703400D03*
X46538300Y-62203400D03*
X46538300Y-62703400D03*
X46538300Y-63203400D03*
X46538300Y-63703400D03*
X46538300Y-64203400D03*
X46538300Y-64703400D03*
X46538300Y-65203400D03*
X46538300Y-65703400D03*
X46538300Y-66203400D03*
X46538300Y-66703400D03*
X46538300Y-67203400D03*
X46538300Y-67703400D03*
D45*
X48450800Y-69615900D03*
X48950800Y-69615900D03*
X49450800Y-69615900D03*
X49950800Y-69615900D03*
X50450800Y-69615900D03*
X50950800Y-69615900D03*
X51450800Y-69615900D03*
X51950800Y-69615900D03*
X52450800Y-69615900D03*
X52950800Y-69615900D03*
X53450800Y-69615900D03*
X53950800Y-69615900D03*
X54450800Y-69615900D03*
X54950800Y-69615900D03*
X55450800Y-69615900D03*
X55950800Y-69615900D03*
X56450800Y-69615900D03*
X56950800Y-69615900D03*
X57450800Y-69615900D03*
X57950800Y-69615900D03*
X58450800Y-69615900D03*
X58950800Y-69615900D03*
X59450800Y-69615900D03*
X59950800Y-69615900D03*
X60450800Y-69615900D03*
X60950800Y-69615900D03*
X61450800Y-69615900D03*
X61950800Y-69615900D03*
X62450800Y-69615900D03*
X62950800Y-69615900D03*
X63450800Y-69615900D03*
X63950800Y-69615900D03*
X64450800Y-69615900D03*
X64950800Y-69615900D03*
X65450800Y-69615900D03*
X65950800Y-69615900D03*
D44*
X67863300Y-67703400D03*
X67863300Y-67203400D03*
X67863300Y-66703400D03*
X67863300Y-66203400D03*
X67863300Y-65703400D03*
X67863300Y-65203400D03*
X67863300Y-64703400D03*
X67863300Y-64203400D03*
X67863300Y-63703400D03*
X67863300Y-63203400D03*
X67863300Y-62703400D03*
X67863300Y-62203400D03*
X67863300Y-61703400D03*
X67863300Y-61203400D03*
X67863300Y-60703400D03*
X67863300Y-60203400D03*
X67863300Y-59703400D03*
X67863300Y-59203400D03*
X67863300Y-58703400D03*
X67863300Y-58203400D03*
X67863300Y-57703400D03*
X67863300Y-57203400D03*
X67863300Y-56703400D03*
X67863300Y-56203400D03*
X67863300Y-55703400D03*
X67863300Y-55203400D03*
X67863300Y-54703400D03*
X67863300Y-54203400D03*
X67863300Y-53703400D03*
X67863300Y-53203400D03*
X67863300Y-52703400D03*
X67863300Y-52203400D03*
X67863300Y-51703400D03*
X67863300Y-51203400D03*
X67863300Y-50703400D03*
X67863300Y-50203400D03*
D45*
X65950800Y-48290900D03*
X65450800Y-48290900D03*
X64950800Y-48290900D03*
X64450800Y-48290900D03*
X63950800Y-48290900D03*
X63450800Y-48290900D03*
X62950800Y-48290900D03*
X62450800Y-48290900D03*
X61950800Y-48290900D03*
X61450800Y-48290900D03*
X60950800Y-48290900D03*
X60450800Y-48290900D03*
X59950800Y-48290900D03*
X59450800Y-48290900D03*
X58950800Y-48290900D03*
X58450800Y-48290900D03*
X57950800Y-48290900D03*
X57450800Y-48290900D03*
X56950800Y-48290900D03*
X56450800Y-48290900D03*
X55950800Y-48290900D03*
X55450800Y-48290900D03*
X54950800Y-48290900D03*
X54450800Y-48290900D03*
X53950800Y-48290900D03*
X53450800Y-48290900D03*
X52950800Y-48290900D03*
X52450800Y-48290900D03*
X51950800Y-48290900D03*
X51450800Y-48290900D03*
X50950800Y-48290900D03*
X50450800Y-48290900D03*
X49950800Y-48290900D03*
X49450800Y-48290900D03*
X48950800Y-48290900D03*
X48450800Y-48290900D03*
D41*
X104620000Y-29656000D03*
D42*
X101120000Y-29656000D03*
D46*
X77391500Y-102550000D03*
X77391500Y-100650000D03*
X75516500Y-101600000D03*
D34*
X32969200Y-90652600D03*
X30969200Y-90652600D03*
D14*
X60806500Y-73075800D03*
X59081500Y-73075800D03*
D47*
X90551000Y-61188600D03*
D48*
X90551000Y-63728600D03*
X90551000Y-66268600D03*
X90551000Y-68808600D03*
X90551000Y-71348600D03*
X90551000Y-73888600D03*
D40*
X33163000Y-67224400D03*
X33163000Y-69224400D03*
D34*
X26720800Y-80518000D03*
X24720800Y-80518000D03*
D30*
X51285808Y-89380356D03*
X51285808Y-91105356D03*
X52842008Y-89387500D03*
X52842008Y-91112500D03*
D47*
X18796000Y-90170000D03*
D48*
X18796000Y-87630000D03*
X18796000Y-85090000D03*
X18796000Y-82550000D03*
X18796000Y-80010000D03*
X18796000Y-77470000D03*
D13*
X34433000Y-87096600D03*
D49*
X95344000Y-58928000D03*
X100744000Y-58928000D03*
D13*
X52349400Y-84099400D03*
D50*
X92256800Y-45203500D03*
X92256800Y-46473500D03*
X92256800Y-47743500D03*
X92256800Y-49013500D03*
X97206800Y-49013500D03*
X97206800Y-47743500D03*
X97206800Y-46473500D03*
X97206800Y-45203500D03*
D33*
X29327600Y-90763600D03*
X29327600Y-88763600D03*
D51*
X72922200Y-35331400D03*
X74022200Y-35331400D03*
X75122200Y-35331400D03*
X76222200Y-35331400D03*
X77322200Y-35331400D03*
X78422200Y-35331400D03*
X79522200Y-35331400D03*
X80622200Y-35331400D03*
D52*
X82997200Y-32731400D03*
X69247200Y-32731400D03*
X69247200Y-41031400D03*
X82997200Y-41031400D03*
D33*
X32045400Y-82407000D03*
X32045400Y-80407000D03*
D14*
X58749100Y-74828400D03*
X57024100Y-74828400D03*
D15*
X35677600Y-91210300D03*
X35677600Y-89485300D03*
D33*
X51460400Y-46237400D03*
X51460400Y-44237400D03*
D28*
X116162500Y-59116900D03*
X116162500Y-34116900D03*
D53*
X114742500Y-52156900D03*
D54*
X114742500Y-49386900D03*
X114742500Y-46616900D03*
X114742500Y-43846900D03*
X114742500Y-41076900D03*
X117582500Y-50771900D03*
X117582500Y-48001900D03*
X117582500Y-45231900D03*
X117582500Y-42461900D03*
D55*
X44616200Y-61377000D03*
X44616200Y-59527000D03*
X43166200Y-59527000D03*
X43166200Y-61377000D03*
D14*
X30240900Y-82296000D03*
X28515900Y-82296000D03*
D28*
X132080000Y-106680000D03*
D34*
X35610800Y-92938600D03*
X33610800Y-92938600D03*
D14*
X41807300Y-61391800D03*
X40082300Y-61391800D03*
D56*
X62122208Y-95703856D03*
X64122208Y-95703856D03*
D57*
X65825200Y-36394400D03*
X65825200Y-36794400D03*
X65825200Y-37194400D03*
X65825200Y-37594400D03*
X65825200Y-37994400D03*
X65825200Y-38394400D03*
X65825200Y-38794400D03*
X65825200Y-39194400D03*
X66976200Y-39194400D03*
X66976200Y-38794400D03*
X66976200Y-38394400D03*
X66976200Y-37994400D03*
X66976200Y-37594400D03*
X66976200Y-37194400D03*
X66976200Y-36794400D03*
X66976200Y-36394400D03*
D58*
X66400200Y-37794400D03*
D30*
X54210000Y-89387500D03*
X54210000Y-91112500D03*
D28*
X15240000Y-25400000D03*
D34*
X101497600Y-49419900D03*
X99497600Y-49419900D03*
M02*
