G04 #@! TF.GenerationSoftware,KiCad,Pcbnew,(6.0.0-0)*
G04 #@! TF.CreationDate,2023-02-02T14:04:44-07:00*
G04 #@! TF.ProjectId,EVCU,45564355-2e6b-4696-9361-645f70636258,rev?*
G04 #@! TF.SameCoordinates,Original*
G04 #@! TF.FileFunction,Copper,L2,Inr*
G04 #@! TF.FilePolarity,Positive*
%FSLAX46Y46*%
G04 Gerber Fmt 4.6, Leading zero omitted, Abs format (unit mm)*
G04 Created by KiCad (PCBNEW (6.0.0-0)) date 2023-02-02 14:04:44*
%MOMM*%
%LPD*%
G01*
G04 APERTURE LIST*
G04 #@! TA.AperFunction,ComponentPad*
%ADD10C,0.500000*%
G04 #@! TD*
G04 #@! TA.AperFunction,ComponentPad*
%ADD11R,2.400000X2.400000*%
G04 #@! TD*
G04 #@! TA.AperFunction,ComponentPad*
%ADD12C,2.400000*%
G04 #@! TD*
G04 #@! TA.AperFunction,ComponentPad*
%ADD13C,2.235200*%
G04 #@! TD*
G04 #@! TA.AperFunction,ComponentPad*
%ADD14R,1.700000X1.700000*%
G04 #@! TD*
G04 #@! TA.AperFunction,ComponentPad*
%ADD15O,1.700000X1.700000*%
G04 #@! TD*
G04 #@! TA.AperFunction,ComponentPad*
%ADD16C,4.000000*%
G04 #@! TD*
G04 #@! TA.AperFunction,ComponentPad*
%ADD17R,1.600000X1.600000*%
G04 #@! TD*
G04 #@! TA.AperFunction,ComponentPad*
%ADD18C,1.600000*%
G04 #@! TD*
G04 #@! TA.AperFunction,ViaPad*
%ADD19C,0.600000*%
G04 #@! TD*
G04 #@! TA.AperFunction,ViaPad*
%ADD20C,0.800000*%
G04 #@! TD*
G04 APERTURE END LIST*
D10*
X64253200Y-73898600D03*
X63153200Y-73898600D03*
X63153200Y-75148600D03*
X64253200Y-75148600D03*
D11*
X77425008Y-101176056D03*
D12*
X80925008Y-101176056D03*
D13*
X70132608Y-102993656D03*
X70132608Y-99691656D03*
X56670608Y-102993656D03*
X56670608Y-99691656D03*
D11*
X99862600Y-34738700D03*
D12*
X103362600Y-34738700D03*
D14*
X90551000Y-61188600D03*
D15*
X90551000Y-63728600D03*
X90551000Y-66268600D03*
X90551000Y-68808600D03*
X90551000Y-71348600D03*
X90551000Y-73888600D03*
D14*
X18837800Y-90170400D03*
D15*
X18837800Y-87630400D03*
X18837800Y-85090400D03*
X18837800Y-82550400D03*
X18837800Y-80010400D03*
X18837800Y-77470400D03*
D16*
X116162500Y-59116900D03*
X116162500Y-34116900D03*
D17*
X114742500Y-52156900D03*
D18*
X114742500Y-49386900D03*
X114742500Y-46616900D03*
X114742500Y-43846900D03*
X114742500Y-41076900D03*
X117582500Y-50771900D03*
X117582500Y-48001900D03*
X117582500Y-45231900D03*
X117582500Y-42461900D03*
D19*
X66471800Y-60171500D03*
D20*
X47244000Y-88823200D03*
D19*
X45058500Y-52705000D03*
X90220800Y-47777400D03*
D20*
X47244000Y-85223200D03*
D19*
X58901500Y-68199000D03*
X58954500Y-49961800D03*
X63905300Y-68199000D03*
X66979800Y-35890200D03*
X41173400Y-60223400D03*
X76222200Y-33782000D03*
D20*
X47244000Y-84023200D03*
D19*
X59029600Y-71678800D03*
X46685200Y-68860500D03*
D20*
X47244000Y-87623200D03*
D19*
X48159500Y-58166000D03*
X33274000Y-97713800D03*
X53973900Y-66497200D03*
X69265800Y-68225500D03*
X40106600Y-66167000D03*
X65532000Y-50038000D03*
X54989900Y-51460400D03*
X61468000Y-77393800D03*
X68225500Y-36449000D03*
X102717600Y-49453800D03*
X48515100Y-49987200D03*
X33477200Y-78181200D03*
X67818000Y-49276000D03*
D20*
X47244000Y-86423200D03*
D19*
X59486800Y-46736000D03*
X40055800Y-60325000D03*
X29708600Y-68072000D03*
X102920800Y-61366400D03*
X51130200Y-68173600D03*
X45135800Y-57658000D03*
X47752000Y-63703200D03*
X66548000Y-65786000D03*
D20*
X90720300Y-46473500D03*
D19*
X29353000Y-87706200D03*
X47802800Y-67233800D03*
X53409500Y-94695548D03*
X88239600Y-66852800D03*
D20*
X54210000Y-91112500D03*
D19*
X49860200Y-57099200D03*
X69265800Y-60629800D03*
X51260408Y-92274856D03*
X43653600Y-89018000D03*
X27473400Y-92786200D03*
X27448000Y-82270600D03*
X27448000Y-73304400D03*
X28311600Y-71602600D03*
D20*
X95844900Y-41361900D03*
D19*
X83031000Y-32570100D03*
X63017400Y-71526400D03*
X56032400Y-68173600D03*
X65433608Y-95703856D03*
X53162200Y-70993000D03*
X52146200Y-51409600D03*
X61874400Y-49936400D03*
D20*
X97449600Y-52848900D03*
D19*
X55448200Y-46761400D03*
D20*
X54311600Y-92713800D03*
D19*
X44535200Y-89018000D03*
X24704800Y-79273400D03*
X69162600Y-32519300D03*
X48339408Y-93341656D03*
X28565600Y-67157600D03*
X50241200Y-50952400D03*
X45542200Y-70612000D03*
X52171600Y-49860200D03*
X48945800Y-46786800D03*
X33315400Y-79527400D03*
X44602400Y-58521600D03*
X43256200Y-53771800D03*
X78422200Y-33823000D03*
X61010800Y-68173600D03*
X51130200Y-66497200D03*
X52842008Y-92019856D03*
X82904000Y-41053700D03*
X50647600Y-60325000D03*
X52755800Y-44246800D03*
X65913000Y-76555600D03*
X69951600Y-35407600D03*
X108011500Y-48677100D03*
X58089800Y-71018400D03*
X67564000Y-40665400D03*
X69264200Y-41079100D03*
X42240200Y-60274200D03*
X64770000Y-65786000D03*
X34560000Y-89331800D03*
X65379600Y-58420000D03*
X57937400Y-73075800D03*
X56997600Y-73736200D03*
X61620400Y-79146400D03*
X54210000Y-89488000D03*
D20*
X64297408Y-94128056D03*
X49501808Y-89337456D03*
D19*
X59848800Y-92967800D03*
X56445200Y-93907600D03*
X44526200Y-64592200D03*
X66419900Y-64287400D03*
X48921500Y-61315600D03*
X78536800Y-49885600D03*
X87187800Y-64151200D03*
X65201800Y-56108600D03*
X85887800Y-66811200D03*
X30902400Y-73253600D03*
X29632400Y-78232000D03*
X101904000Y-41190300D03*
X97206800Y-47743500D03*
X61188600Y-71348600D03*
X60426600Y-75336400D03*
X64135000Y-71221600D03*
X66598800Y-73863200D03*
X66502300Y-71551800D03*
X64924300Y-70967600D03*
X60502800Y-74142600D03*
X63747395Y-72233995D03*
X66065400Y-35788600D03*
X70764400Y-53848000D03*
X69392800Y-49479200D03*
X69240400Y-53721000D03*
X63855600Y-37211000D03*
X64185800Y-46101000D03*
X63477300Y-46863000D03*
X64693800Y-37467900D03*
X64712300Y-43789600D03*
X108966000Y-45248100D03*
X30800800Y-92887800D03*
G04 #@! TA.AperFunction,Conductor*
G36*
X134053985Y-30856325D02*
G01*
X134100547Y-30909921D01*
X134112000Y-30962410D01*
X134112000Y-105894409D01*
X134091998Y-105962530D01*
X134038342Y-106009023D01*
X133986163Y-106020409D01*
X15874161Y-106171190D01*
X15806015Y-106151275D01*
X15759453Y-106097679D01*
X15748000Y-106045190D01*
X15748000Y-102993656D01*
X55039480Y-102993656D01*
X55059562Y-103248821D01*
X55119313Y-103497702D01*
X55217262Y-103734173D01*
X55350998Y-103952409D01*
X55517226Y-104147038D01*
X55711855Y-104313266D01*
X55930091Y-104447002D01*
X55934661Y-104448895D01*
X55934663Y-104448896D01*
X56161989Y-104543057D01*
X56166562Y-104544951D01*
X56253035Y-104565711D01*
X56410630Y-104603547D01*
X56410636Y-104603548D01*
X56415443Y-104604702D01*
X56670608Y-104624784D01*
X56925773Y-104604702D01*
X56930580Y-104603548D01*
X56930586Y-104603547D01*
X57088181Y-104565711D01*
X57174654Y-104544951D01*
X57179227Y-104543057D01*
X57406553Y-104448896D01*
X57406555Y-104448895D01*
X57411125Y-104447002D01*
X57629361Y-104313266D01*
X57823990Y-104147038D01*
X57990218Y-103952409D01*
X58123954Y-103734173D01*
X58221903Y-103497702D01*
X58281654Y-103248821D01*
X58301736Y-102993656D01*
X68501480Y-102993656D01*
X68521562Y-103248821D01*
X68581313Y-103497702D01*
X68679262Y-103734173D01*
X68812998Y-103952409D01*
X68979226Y-104147038D01*
X69173855Y-104313266D01*
X69392091Y-104447002D01*
X69396661Y-104448895D01*
X69396663Y-104448896D01*
X69623989Y-104543057D01*
X69628562Y-104544951D01*
X69715035Y-104565711D01*
X69872630Y-104603547D01*
X69872636Y-104603548D01*
X69877443Y-104604702D01*
X70132608Y-104624784D01*
X70387773Y-104604702D01*
X70392580Y-104603548D01*
X70392586Y-104603547D01*
X70550181Y-104565711D01*
X70636654Y-104544951D01*
X70641227Y-104543057D01*
X70868553Y-104448896D01*
X70868555Y-104448895D01*
X70873125Y-104447002D01*
X71091361Y-104313266D01*
X71285990Y-104147038D01*
X71452218Y-103952409D01*
X71585954Y-103734173D01*
X71683903Y-103497702D01*
X71743654Y-103248821D01*
X71763736Y-102993656D01*
X71743654Y-102738491D01*
X71683903Y-102489610D01*
X71679308Y-102478516D01*
X71656806Y-102424190D01*
X75716508Y-102424190D01*
X75723263Y-102486372D01*
X75774393Y-102622761D01*
X75861747Y-102739317D01*
X75978303Y-102826671D01*
X76114692Y-102877801D01*
X76176874Y-102884556D01*
X78673142Y-102884556D01*
X78735324Y-102877801D01*
X78871713Y-102826671D01*
X78988269Y-102739317D01*
X79075623Y-102622761D01*
X79103119Y-102549415D01*
X79916394Y-102549415D01*
X79925107Y-102560935D01*
X80013594Y-102625816D01*
X80021513Y-102630764D01*
X80237885Y-102744603D01*
X80246459Y-102748331D01*
X80477290Y-102828941D01*
X80486299Y-102831355D01*
X80726526Y-102876964D01*
X80735783Y-102878018D01*
X80980115Y-102887619D01*
X80989428Y-102887293D01*
X81232486Y-102860674D01*
X81241663Y-102858973D01*
X81478115Y-102796721D01*
X81486934Y-102793684D01*
X81711592Y-102697163D01*
X81719864Y-102692856D01*
X81927785Y-102564191D01*
X81929628Y-102562852D01*
X81937046Y-102551597D01*
X81930982Y-102541240D01*
X80937820Y-101548078D01*
X80923876Y-101540464D01*
X80922043Y-101540595D01*
X80915428Y-101544846D01*
X79923052Y-102537222D01*
X79916394Y-102549415D01*
X79103119Y-102549415D01*
X79126753Y-102486372D01*
X79133508Y-102424190D01*
X79133508Y-101951337D01*
X79153510Y-101883216D01*
X79207166Y-101836723D01*
X79277440Y-101826619D01*
X79342020Y-101856113D01*
X79370500Y-101891699D01*
X79478242Y-102092216D01*
X79483253Y-102100083D01*
X79540181Y-102176319D01*
X79551439Y-102184768D01*
X79563858Y-102177996D01*
X80552986Y-101188868D01*
X80559364Y-101177188D01*
X81289416Y-101177188D01*
X81289547Y-101179021D01*
X81293798Y-101185636D01*
X82288740Y-102180578D01*
X82301120Y-102187338D01*
X82309461Y-102181094D01*
X82427708Y-101997258D01*
X82432155Y-101989067D01*
X82532580Y-101766132D01*
X82535775Y-101757354D01*
X82602143Y-101522029D01*
X82604001Y-101512900D01*
X82635052Y-101268826D01*
X82635533Y-101262539D01*
X82637714Y-101179216D01*
X82637563Y-101172907D01*
X82619329Y-100927542D01*
X82617952Y-100918336D01*
X82563987Y-100679842D01*
X82561263Y-100670931D01*
X82472641Y-100443039D01*
X82468627Y-100434623D01*
X82347292Y-100222332D01*
X82342082Y-100214609D01*
X82310795Y-100174921D01*
X82298871Y-100166451D01*
X82287336Y-100172938D01*
X81297030Y-101163244D01*
X81289416Y-101177188D01*
X80559364Y-101177188D01*
X80560600Y-101174924D01*
X80560469Y-101173091D01*
X80556218Y-101166476D01*
X79561836Y-100172094D01*
X79548528Y-100164827D01*
X79538489Y-100171949D01*
X79533589Y-100177840D01*
X79528176Y-100185429D01*
X79401330Y-100394465D01*
X79397090Y-100402786D01*
X79375705Y-100453784D01*
X79330917Y-100508870D01*
X79263456Y-100530997D01*
X79194742Y-100513139D01*
X79146591Y-100460967D01*
X79133508Y-100405059D01*
X79133508Y-99927922D01*
X79126753Y-99865740D01*
X79102473Y-99800973D01*
X79914338Y-99800973D01*
X79918911Y-99810749D01*
X80912196Y-100804034D01*
X80926140Y-100811648D01*
X80927973Y-100811517D01*
X80934588Y-100807266D01*
X81927496Y-99814358D01*
X81933880Y-99802668D01*
X81924468Y-99790558D01*
X81798152Y-99702929D01*
X81790124Y-99698201D01*
X81570818Y-99590051D01*
X81562185Y-99586563D01*
X81329296Y-99512014D01*
X81320246Y-99509841D01*
X81078899Y-99470536D01*
X81069610Y-99469724D01*
X80825122Y-99466523D01*
X80815811Y-99467093D01*
X80573530Y-99500066D01*
X80564411Y-99502004D01*
X80329676Y-99570423D01*
X80320923Y-99573695D01*
X80098877Y-99676060D01*
X80090722Y-99680580D01*
X79923476Y-99790231D01*
X79914338Y-99800973D01*
X79102473Y-99800973D01*
X79075623Y-99729351D01*
X78988269Y-99612795D01*
X78871713Y-99525441D01*
X78735324Y-99474311D01*
X78673142Y-99467556D01*
X76176874Y-99467556D01*
X76114692Y-99474311D01*
X75978303Y-99525441D01*
X75861747Y-99612795D01*
X75774393Y-99729351D01*
X75723263Y-99865740D01*
X75716508Y-99927922D01*
X75716508Y-102424190D01*
X71656806Y-102424190D01*
X71587848Y-102257711D01*
X71587847Y-102257709D01*
X71585954Y-102253139D01*
X71452218Y-102034903D01*
X71285990Y-101840274D01*
X71091361Y-101674046D01*
X70873125Y-101540310D01*
X70868555Y-101538417D01*
X70868553Y-101538416D01*
X70676981Y-101459065D01*
X70621700Y-101414517D01*
X70599279Y-101347154D01*
X70616837Y-101278362D01*
X70668799Y-101229984D01*
X70676981Y-101226247D01*
X70868553Y-101146896D01*
X70868555Y-101146895D01*
X70873125Y-101145002D01*
X71091361Y-101011266D01*
X71285990Y-100845038D01*
X71452218Y-100650409D01*
X71585954Y-100432173D01*
X71598127Y-100402786D01*
X71682009Y-100200275D01*
X71682010Y-100200273D01*
X71683903Y-100195702D01*
X71743654Y-99946821D01*
X71763736Y-99691656D01*
X71743654Y-99436491D01*
X71683903Y-99187610D01*
X71585954Y-98951139D01*
X71452218Y-98732903D01*
X71285990Y-98538274D01*
X71091361Y-98372046D01*
X70873125Y-98238310D01*
X70868555Y-98236417D01*
X70868553Y-98236416D01*
X70641227Y-98142255D01*
X70641225Y-98142254D01*
X70636654Y-98140361D01*
X70550181Y-98119601D01*
X70392586Y-98081765D01*
X70392580Y-98081764D01*
X70387773Y-98080610D01*
X70132608Y-98060528D01*
X69877443Y-98080610D01*
X69872636Y-98081764D01*
X69872630Y-98081765D01*
X69715035Y-98119601D01*
X69628562Y-98140361D01*
X69623991Y-98142254D01*
X69623989Y-98142255D01*
X69396663Y-98236416D01*
X69396661Y-98236417D01*
X69392091Y-98238310D01*
X69173855Y-98372046D01*
X68979226Y-98538274D01*
X68812998Y-98732903D01*
X68679262Y-98951139D01*
X68581313Y-99187610D01*
X68521562Y-99436491D01*
X68501480Y-99691656D01*
X68521562Y-99946821D01*
X68581313Y-100195702D01*
X68583206Y-100200273D01*
X68583207Y-100200275D01*
X68667090Y-100402786D01*
X68679262Y-100432173D01*
X68812998Y-100650409D01*
X68979226Y-100845038D01*
X69173855Y-101011266D01*
X69392091Y-101145002D01*
X69396661Y-101146895D01*
X69396663Y-101146896D01*
X69588235Y-101226247D01*
X69643516Y-101270795D01*
X69665937Y-101338158D01*
X69648379Y-101406950D01*
X69596417Y-101455328D01*
X69588235Y-101459065D01*
X69396663Y-101538416D01*
X69396661Y-101538417D01*
X69392091Y-101540310D01*
X69173855Y-101674046D01*
X68979226Y-101840274D01*
X68812998Y-102034903D01*
X68679262Y-102253139D01*
X68677369Y-102257709D01*
X68677368Y-102257711D01*
X68585908Y-102478516D01*
X68581313Y-102489610D01*
X68521562Y-102738491D01*
X68501480Y-102993656D01*
X58301736Y-102993656D01*
X58281654Y-102738491D01*
X58221903Y-102489610D01*
X58217308Y-102478516D01*
X58125848Y-102257711D01*
X58125847Y-102257709D01*
X58123954Y-102253139D01*
X57990218Y-102034903D01*
X57823990Y-101840274D01*
X57629361Y-101674046D01*
X57411125Y-101540310D01*
X57406555Y-101538417D01*
X57406553Y-101538416D01*
X57214981Y-101459065D01*
X57159700Y-101414517D01*
X57137279Y-101347154D01*
X57154837Y-101278362D01*
X57206799Y-101229984D01*
X57214981Y-101226247D01*
X57406553Y-101146896D01*
X57406555Y-101146895D01*
X57411125Y-101145002D01*
X57629361Y-101011266D01*
X57823990Y-100845038D01*
X57990218Y-100650409D01*
X58123954Y-100432173D01*
X58136127Y-100402786D01*
X58220009Y-100200275D01*
X58220010Y-100200273D01*
X58221903Y-100195702D01*
X58281654Y-99946821D01*
X58301736Y-99691656D01*
X58281654Y-99436491D01*
X58221903Y-99187610D01*
X58123954Y-98951139D01*
X57990218Y-98732903D01*
X57823990Y-98538274D01*
X57629361Y-98372046D01*
X57411125Y-98238310D01*
X57406555Y-98236417D01*
X57406553Y-98236416D01*
X57179227Y-98142255D01*
X57179225Y-98142254D01*
X57174654Y-98140361D01*
X57088181Y-98119601D01*
X56930586Y-98081765D01*
X56930580Y-98081764D01*
X56925773Y-98080610D01*
X56670608Y-98060528D01*
X56415443Y-98080610D01*
X56410636Y-98081764D01*
X56410630Y-98081765D01*
X56253035Y-98119601D01*
X56166562Y-98140361D01*
X56161991Y-98142254D01*
X56161989Y-98142255D01*
X55934663Y-98236416D01*
X55934661Y-98236417D01*
X55930091Y-98238310D01*
X55711855Y-98372046D01*
X55517226Y-98538274D01*
X55350998Y-98732903D01*
X55217262Y-98951139D01*
X55119313Y-99187610D01*
X55059562Y-99436491D01*
X55039480Y-99691656D01*
X55059562Y-99946821D01*
X55119313Y-100195702D01*
X55121206Y-100200273D01*
X55121207Y-100200275D01*
X55205090Y-100402786D01*
X55217262Y-100432173D01*
X55350998Y-100650409D01*
X55517226Y-100845038D01*
X55711855Y-101011266D01*
X55930091Y-101145002D01*
X55934661Y-101146895D01*
X55934663Y-101146896D01*
X56126235Y-101226247D01*
X56181516Y-101270795D01*
X56203937Y-101338158D01*
X56186379Y-101406950D01*
X56134417Y-101455328D01*
X56126235Y-101459065D01*
X55934663Y-101538416D01*
X55934661Y-101538417D01*
X55930091Y-101540310D01*
X55711855Y-101674046D01*
X55517226Y-101840274D01*
X55350998Y-102034903D01*
X55217262Y-102253139D01*
X55215369Y-102257709D01*
X55215368Y-102257711D01*
X55123908Y-102478516D01*
X55119313Y-102489610D01*
X55059562Y-102738491D01*
X55039480Y-102993656D01*
X15748000Y-102993656D01*
X15748000Y-97702440D01*
X32460463Y-97702440D01*
X32478163Y-97882960D01*
X32535418Y-98055073D01*
X32539065Y-98061095D01*
X32539066Y-98061097D01*
X32550884Y-98080610D01*
X32629380Y-98210224D01*
X32634269Y-98215287D01*
X32634270Y-98215288D01*
X32659002Y-98240898D01*
X32755382Y-98340702D01*
X32907159Y-98440022D01*
X32913763Y-98442478D01*
X32913765Y-98442479D01*
X33070558Y-98500790D01*
X33070560Y-98500790D01*
X33077168Y-98503248D01*
X33160995Y-98514433D01*
X33249980Y-98526307D01*
X33249984Y-98526307D01*
X33256961Y-98527238D01*
X33263972Y-98526600D01*
X33263976Y-98526600D01*
X33406459Y-98513632D01*
X33437600Y-98510798D01*
X33444302Y-98508620D01*
X33444304Y-98508620D01*
X33603409Y-98456924D01*
X33603412Y-98456923D01*
X33610108Y-98454747D01*
X33765912Y-98361869D01*
X33897266Y-98236782D01*
X33997643Y-98085702D01*
X34062055Y-97916138D01*
X34063035Y-97909166D01*
X34086748Y-97740439D01*
X34086748Y-97740436D01*
X34087299Y-97736517D01*
X34087616Y-97713800D01*
X34067397Y-97533545D01*
X34065080Y-97526891D01*
X34010064Y-97368906D01*
X34010062Y-97368903D01*
X34007745Y-97362248D01*
X33911626Y-97208424D01*
X33897941Y-97194643D01*
X33788778Y-97084715D01*
X33788774Y-97084712D01*
X33783815Y-97079718D01*
X33772697Y-97072662D01*
X33724538Y-97042100D01*
X33630666Y-96982527D01*
X33601463Y-96972128D01*
X33466425Y-96924043D01*
X33466420Y-96924042D01*
X33459790Y-96921681D01*
X33452802Y-96920848D01*
X33452799Y-96920847D01*
X33329698Y-96906168D01*
X33279680Y-96900204D01*
X33272677Y-96900940D01*
X33272676Y-96900940D01*
X33106288Y-96918428D01*
X33106286Y-96918429D01*
X33099288Y-96919164D01*
X32927579Y-96977618D01*
X32921575Y-96981312D01*
X32779095Y-97068966D01*
X32779092Y-97068968D01*
X32773088Y-97072662D01*
X32768053Y-97077593D01*
X32768050Y-97077595D01*
X32648525Y-97194643D01*
X32643493Y-97199571D01*
X32545235Y-97352038D01*
X32542826Y-97358658D01*
X32542824Y-97358661D01*
X32485606Y-97515866D01*
X32483197Y-97522485D01*
X32460463Y-97702440D01*
X15748000Y-97702440D01*
X15748000Y-93896240D01*
X55631663Y-93896240D01*
X55649363Y-94076760D01*
X55706618Y-94248873D01*
X55710265Y-94254895D01*
X55710266Y-94254897D01*
X55748473Y-94317984D01*
X55800580Y-94404024D01*
X55926582Y-94534502D01*
X56078359Y-94633822D01*
X56084963Y-94636278D01*
X56084965Y-94636279D01*
X56241758Y-94694590D01*
X56241760Y-94694590D01*
X56248368Y-94697048D01*
X56332195Y-94708233D01*
X56421180Y-94720107D01*
X56421184Y-94720107D01*
X56428161Y-94721038D01*
X56435172Y-94720400D01*
X56435176Y-94720400D01*
X56577659Y-94707432D01*
X56608800Y-94704598D01*
X56615502Y-94702420D01*
X56615504Y-94702420D01*
X56774609Y-94650724D01*
X56774612Y-94650723D01*
X56781308Y-94648547D01*
X56937112Y-94555669D01*
X57068466Y-94430582D01*
X57168843Y-94279502D01*
X57226373Y-94128056D01*
X63383904Y-94128056D01*
X63403866Y-94317984D01*
X63462881Y-94499612D01*
X63558368Y-94665000D01*
X63562786Y-94669907D01*
X63562787Y-94669908D01*
X63608250Y-94720400D01*
X63686155Y-94806922D01*
X63840656Y-94919174D01*
X63846684Y-94921858D01*
X63846686Y-94921859D01*
X64009089Y-94994165D01*
X64015120Y-94996850D01*
X64108520Y-95016703D01*
X64195464Y-95035184D01*
X64195469Y-95035184D01*
X64201921Y-95036556D01*
X64392895Y-95036556D01*
X64399347Y-95035184D01*
X64399352Y-95035184D01*
X64486296Y-95016703D01*
X64579696Y-94996850D01*
X64585727Y-94994165D01*
X64748130Y-94921859D01*
X64748132Y-94921858D01*
X64754160Y-94919174D01*
X64908661Y-94806922D01*
X64986566Y-94720400D01*
X65032029Y-94669908D01*
X65032030Y-94669907D01*
X65036448Y-94665000D01*
X65131935Y-94499612D01*
X65190950Y-94317984D01*
X65210912Y-94128056D01*
X65190950Y-93938128D01*
X65131935Y-93756500D01*
X65112753Y-93723275D01*
X65084760Y-93674790D01*
X65036448Y-93591112D01*
X64990348Y-93539912D01*
X64913083Y-93454101D01*
X64913082Y-93454100D01*
X64908661Y-93449190D01*
X64754160Y-93336938D01*
X64748132Y-93334254D01*
X64748130Y-93334253D01*
X64585727Y-93261947D01*
X64585726Y-93261947D01*
X64579696Y-93259262D01*
X64486296Y-93239409D01*
X64399352Y-93220928D01*
X64399347Y-93220928D01*
X64392895Y-93219556D01*
X64201921Y-93219556D01*
X64195469Y-93220928D01*
X64195464Y-93220928D01*
X64108520Y-93239409D01*
X64015120Y-93259262D01*
X64009090Y-93261947D01*
X64009089Y-93261947D01*
X63846686Y-93334253D01*
X63846684Y-93334254D01*
X63840656Y-93336938D01*
X63686155Y-93449190D01*
X63681734Y-93454100D01*
X63681733Y-93454101D01*
X63604469Y-93539912D01*
X63558368Y-93591112D01*
X63510056Y-93674790D01*
X63482064Y-93723275D01*
X63462881Y-93756500D01*
X63403866Y-93938128D01*
X63383904Y-94128056D01*
X57226373Y-94128056D01*
X57230755Y-94116520D01*
X57230756Y-94116518D01*
X57233255Y-94109938D01*
X57234235Y-94102966D01*
X57257948Y-93934239D01*
X57257948Y-93934236D01*
X57258499Y-93930317D01*
X57258816Y-93907600D01*
X57238597Y-93727345D01*
X57236280Y-93720691D01*
X57181264Y-93562706D01*
X57181262Y-93562703D01*
X57178945Y-93556048D01*
X57082826Y-93402224D01*
X56990323Y-93309073D01*
X56959978Y-93278515D01*
X56959974Y-93278512D01*
X56955015Y-93273518D01*
X56943897Y-93266462D01*
X56869984Y-93219556D01*
X56801866Y-93176327D01*
X56772663Y-93165928D01*
X56637625Y-93117843D01*
X56637620Y-93117842D01*
X56630990Y-93115481D01*
X56624002Y-93114648D01*
X56623999Y-93114647D01*
X56500898Y-93099968D01*
X56450880Y-93094004D01*
X56443877Y-93094740D01*
X56443876Y-93094740D01*
X56277488Y-93112228D01*
X56277486Y-93112229D01*
X56270488Y-93112964D01*
X56098779Y-93171418D01*
X56092775Y-93175112D01*
X55950295Y-93262766D01*
X55950292Y-93262768D01*
X55944288Y-93266462D01*
X55939253Y-93271393D01*
X55939250Y-93271395D01*
X55819725Y-93388443D01*
X55814693Y-93393371D01*
X55716435Y-93545838D01*
X55714026Y-93552458D01*
X55714024Y-93552461D01*
X55656806Y-93709666D01*
X55654397Y-93716285D01*
X55631663Y-93896240D01*
X15748000Y-93896240D01*
X15748000Y-92876440D01*
X29987263Y-92876440D01*
X30004963Y-93056960D01*
X30062218Y-93229073D01*
X30065865Y-93235095D01*
X30065866Y-93235097D01*
X30129217Y-93339702D01*
X30156180Y-93384224D01*
X30161069Y-93389287D01*
X30161070Y-93389288D01*
X30218917Y-93449190D01*
X30282182Y-93514702D01*
X30339884Y-93552461D01*
X30410331Y-93598560D01*
X30433959Y-93614022D01*
X30440563Y-93616478D01*
X30440565Y-93616479D01*
X30597358Y-93674790D01*
X30597360Y-93674790D01*
X30603968Y-93677248D01*
X30687795Y-93688433D01*
X30776780Y-93700307D01*
X30776784Y-93700307D01*
X30783761Y-93701238D01*
X30790772Y-93700600D01*
X30790776Y-93700600D01*
X30933259Y-93687632D01*
X30964400Y-93684798D01*
X30971102Y-93682620D01*
X30971104Y-93682620D01*
X31130209Y-93630924D01*
X31130212Y-93630923D01*
X31136908Y-93628747D01*
X31247693Y-93562706D01*
X31286660Y-93539477D01*
X31286662Y-93539476D01*
X31292712Y-93535869D01*
X31424066Y-93410782D01*
X31524443Y-93259702D01*
X31588855Y-93090138D01*
X31589835Y-93083166D01*
X31607645Y-92956440D01*
X59035263Y-92956440D01*
X59052963Y-93136960D01*
X59110218Y-93309073D01*
X59113865Y-93315095D01*
X59113866Y-93315097D01*
X59192724Y-93445307D01*
X59204180Y-93464224D01*
X59330182Y-93594702D01*
X59355105Y-93611011D01*
X59468840Y-93685437D01*
X59481959Y-93694022D01*
X59488563Y-93696478D01*
X59488565Y-93696479D01*
X59645358Y-93754790D01*
X59645360Y-93754790D01*
X59651968Y-93757248D01*
X59735795Y-93768433D01*
X59824780Y-93780307D01*
X59824784Y-93780307D01*
X59831761Y-93781238D01*
X59838772Y-93780600D01*
X59838776Y-93780600D01*
X59981259Y-93767632D01*
X60012400Y-93764798D01*
X60019102Y-93762620D01*
X60019104Y-93762620D01*
X60178209Y-93710924D01*
X60178212Y-93710923D01*
X60184908Y-93708747D01*
X60340712Y-93615869D01*
X60472066Y-93490782D01*
X60572443Y-93339702D01*
X60617006Y-93222390D01*
X60634355Y-93176720D01*
X60634356Y-93176718D01*
X60636855Y-93170138D01*
X60637835Y-93163166D01*
X60661548Y-92994439D01*
X60661548Y-92994436D01*
X60662099Y-92990517D01*
X60662416Y-92967800D01*
X60642197Y-92787545D01*
X60639880Y-92780891D01*
X60584864Y-92622906D01*
X60584862Y-92622903D01*
X60582545Y-92616248D01*
X60486426Y-92462424D01*
X60412915Y-92388398D01*
X60363578Y-92338715D01*
X60363574Y-92338712D01*
X60358615Y-92333718D01*
X60347497Y-92326662D01*
X60299338Y-92296100D01*
X60205466Y-92236527D01*
X60176263Y-92226128D01*
X60041225Y-92178043D01*
X60041220Y-92178042D01*
X60034590Y-92175681D01*
X60027602Y-92174848D01*
X60027599Y-92174847D01*
X59904498Y-92160168D01*
X59854480Y-92154204D01*
X59847477Y-92154940D01*
X59847476Y-92154940D01*
X59681088Y-92172428D01*
X59681086Y-92172429D01*
X59674088Y-92173164D01*
X59502379Y-92231618D01*
X59469907Y-92251595D01*
X59353895Y-92322966D01*
X59353892Y-92322968D01*
X59347888Y-92326662D01*
X59342853Y-92331593D01*
X59342850Y-92331595D01*
X59284845Y-92388398D01*
X59218293Y-92453571D01*
X59120035Y-92606038D01*
X59117626Y-92612658D01*
X59117624Y-92612661D01*
X59083089Y-92707545D01*
X59057997Y-92776485D01*
X59035263Y-92956440D01*
X31607645Y-92956440D01*
X31613548Y-92914439D01*
X31613548Y-92914436D01*
X31614099Y-92910517D01*
X31614416Y-92887800D01*
X31594197Y-92707545D01*
X31591880Y-92700891D01*
X31536864Y-92542906D01*
X31536862Y-92542903D01*
X31534545Y-92536248D01*
X31438426Y-92382424D01*
X31390059Y-92333718D01*
X31315578Y-92258715D01*
X31315574Y-92258712D01*
X31310615Y-92253718D01*
X31299497Y-92246662D01*
X31251338Y-92216100D01*
X31157466Y-92156527D01*
X31128263Y-92146128D01*
X30993225Y-92098043D01*
X30993220Y-92098042D01*
X30986590Y-92095681D01*
X30979602Y-92094848D01*
X30979599Y-92094847D01*
X30856498Y-92080168D01*
X30806480Y-92074204D01*
X30799477Y-92074940D01*
X30799476Y-92074940D01*
X30633088Y-92092428D01*
X30633086Y-92092429D01*
X30626088Y-92093164D01*
X30454379Y-92151618D01*
X30411426Y-92178043D01*
X30305895Y-92242966D01*
X30305892Y-92242968D01*
X30299888Y-92246662D01*
X30294853Y-92251593D01*
X30294850Y-92251595D01*
X30175325Y-92368643D01*
X30170293Y-92373571D01*
X30072035Y-92526038D01*
X30069626Y-92532658D01*
X30069624Y-92532661D01*
X30012406Y-92689866D01*
X30009997Y-92696485D01*
X29987263Y-92876440D01*
X15748000Y-92876440D01*
X15748000Y-87597095D01*
X17475051Y-87597095D01*
X17475348Y-87602248D01*
X17475348Y-87602251D01*
X17480811Y-87696990D01*
X17487910Y-87820115D01*
X17489047Y-87825161D01*
X17489048Y-87825167D01*
X17508919Y-87913339D01*
X17537022Y-88038039D01*
X17575261Y-88132211D01*
X17612208Y-88223200D01*
X17621066Y-88245016D01*
X17737787Y-88435488D01*
X17884050Y-88604338D01*
X17888030Y-88607642D01*
X17892781Y-88611587D01*
X17932416Y-88670490D01*
X17933913Y-88741471D01*
X17896797Y-88801993D01*
X17856524Y-88826512D01*
X17741095Y-88869785D01*
X17624539Y-88957139D01*
X17537185Y-89073695D01*
X17486055Y-89210084D01*
X17479300Y-89272266D01*
X17479300Y-91068534D01*
X17486055Y-91130716D01*
X17537185Y-91267105D01*
X17624539Y-91383661D01*
X17741095Y-91471015D01*
X17877484Y-91522145D01*
X17939666Y-91528900D01*
X19735934Y-91528900D01*
X19798116Y-91522145D01*
X19934505Y-91471015D01*
X20051061Y-91383661D01*
X20138415Y-91267105D01*
X20189545Y-91130716D01*
X20196300Y-91068534D01*
X20196300Y-89272266D01*
X20189545Y-89210084D01*
X20138415Y-89073695D01*
X20051061Y-88957139D01*
X19934505Y-88869785D01*
X19921932Y-88865072D01*
X19816003Y-88825360D01*
X19813128Y-88823200D01*
X46330496Y-88823200D01*
X46331186Y-88829765D01*
X46345804Y-88968843D01*
X46350458Y-89013128D01*
X46409473Y-89194756D01*
X46412776Y-89200478D01*
X46412777Y-89200479D01*
X46422858Y-89217940D01*
X46504960Y-89360144D01*
X46632747Y-89502066D01*
X46787248Y-89614318D01*
X46793276Y-89617002D01*
X46793278Y-89617003D01*
X46942333Y-89683366D01*
X46961712Y-89691994D01*
X47041775Y-89709012D01*
X47142056Y-89730328D01*
X47142061Y-89730328D01*
X47148513Y-89731700D01*
X47339487Y-89731700D01*
X47345939Y-89730328D01*
X47345944Y-89730328D01*
X47446225Y-89709012D01*
X47526288Y-89691994D01*
X47545667Y-89683366D01*
X47694722Y-89617003D01*
X47694724Y-89617002D01*
X47700752Y-89614318D01*
X47855253Y-89502066D01*
X47983040Y-89360144D01*
X47996139Y-89337456D01*
X48588304Y-89337456D01*
X48588994Y-89344021D01*
X48604127Y-89488000D01*
X48608266Y-89527384D01*
X48667281Y-89709012D01*
X48762768Y-89874400D01*
X48767186Y-89879307D01*
X48767187Y-89879308D01*
X48885747Y-90010982D01*
X48890555Y-90016322D01*
X49045056Y-90128574D01*
X49051084Y-90131258D01*
X49051086Y-90131259D01*
X49213489Y-90203565D01*
X49219520Y-90206250D01*
X49309331Y-90225340D01*
X49399864Y-90244584D01*
X49399869Y-90244584D01*
X49406321Y-90245956D01*
X49597295Y-90245956D01*
X49603747Y-90244584D01*
X49603752Y-90244584D01*
X49694285Y-90225340D01*
X49784096Y-90206250D01*
X49790127Y-90203565D01*
X49952530Y-90131259D01*
X49952532Y-90131258D01*
X49958560Y-90128574D01*
X50113061Y-90016322D01*
X50117869Y-90010982D01*
X50236429Y-89879308D01*
X50236430Y-89879307D01*
X50240848Y-89874400D01*
X50336335Y-89709012D01*
X50395350Y-89527384D01*
X50399490Y-89488000D01*
X50400684Y-89476640D01*
X53396463Y-89476640D01*
X53414163Y-89657160D01*
X53471418Y-89829273D01*
X53475065Y-89835295D01*
X53475066Y-89835297D01*
X53498748Y-89874400D01*
X53565380Y-89984424D01*
X53570269Y-89989487D01*
X53570270Y-89989488D01*
X53647121Y-90069068D01*
X53691382Y-90114902D01*
X53843159Y-90214222D01*
X53849763Y-90216678D01*
X53849765Y-90216679D01*
X54006558Y-90274990D01*
X54006560Y-90274990D01*
X54013168Y-90277448D01*
X54096995Y-90288633D01*
X54185980Y-90300507D01*
X54185984Y-90300507D01*
X54192961Y-90301438D01*
X54199972Y-90300800D01*
X54199976Y-90300800D01*
X54342459Y-90287832D01*
X54373600Y-90284998D01*
X54380302Y-90282820D01*
X54380304Y-90282820D01*
X54539409Y-90231124D01*
X54539412Y-90231123D01*
X54546108Y-90228947D01*
X54701912Y-90136069D01*
X54833266Y-90010982D01*
X54933643Y-89859902D01*
X54982864Y-89730328D01*
X54995555Y-89696920D01*
X54995556Y-89696918D01*
X54998055Y-89690338D01*
X54999035Y-89683366D01*
X55022748Y-89514639D01*
X55022748Y-89514636D01*
X55023299Y-89510717D01*
X55023616Y-89488000D01*
X55003397Y-89307745D01*
X55001080Y-89301091D01*
X54946064Y-89143106D01*
X54946062Y-89143103D01*
X54943745Y-89136448D01*
X54847626Y-88982624D01*
X54833941Y-88968843D01*
X54724778Y-88858915D01*
X54724774Y-88858912D01*
X54719815Y-88853918D01*
X54708697Y-88846862D01*
X54635660Y-88800512D01*
X54566666Y-88756727D01*
X54523822Y-88741471D01*
X54402425Y-88698243D01*
X54402420Y-88698242D01*
X54395790Y-88695881D01*
X54388802Y-88695048D01*
X54388799Y-88695047D01*
X54265698Y-88680368D01*
X54215680Y-88674404D01*
X54208677Y-88675140D01*
X54208676Y-88675140D01*
X54042288Y-88692628D01*
X54042286Y-88692629D01*
X54035288Y-88693364D01*
X53863579Y-88751818D01*
X53857575Y-88755512D01*
X53715095Y-88843166D01*
X53715092Y-88843168D01*
X53709088Y-88846862D01*
X53704053Y-88851793D01*
X53704050Y-88851795D01*
X53584525Y-88968843D01*
X53579493Y-88973771D01*
X53481235Y-89126238D01*
X53478826Y-89132858D01*
X53478824Y-89132861D01*
X53473486Y-89147528D01*
X53419197Y-89296685D01*
X53396463Y-89476640D01*
X50400684Y-89476640D01*
X50414622Y-89344021D01*
X50415312Y-89337456D01*
X50410331Y-89290066D01*
X50396040Y-89154091D01*
X50396040Y-89154089D01*
X50395350Y-89147528D01*
X50336335Y-88965900D01*
X50240848Y-88800512D01*
X50204827Y-88760506D01*
X50117483Y-88663501D01*
X50117482Y-88663500D01*
X50113061Y-88658590D01*
X49958560Y-88546338D01*
X49952532Y-88543654D01*
X49952530Y-88543653D01*
X49790127Y-88471347D01*
X49790126Y-88471347D01*
X49784096Y-88468662D01*
X49677109Y-88445921D01*
X49603752Y-88430328D01*
X49603747Y-88430328D01*
X49597295Y-88428956D01*
X49406321Y-88428956D01*
X49399869Y-88430328D01*
X49399864Y-88430328D01*
X49326507Y-88445921D01*
X49219520Y-88468662D01*
X49213490Y-88471347D01*
X49213489Y-88471347D01*
X49051086Y-88543653D01*
X49051084Y-88543654D01*
X49045056Y-88546338D01*
X48890555Y-88658590D01*
X48886134Y-88663500D01*
X48886133Y-88663501D01*
X48798790Y-88760506D01*
X48762768Y-88800512D01*
X48667281Y-88965900D01*
X48608266Y-89147528D01*
X48607576Y-89154089D01*
X48607576Y-89154091D01*
X48593285Y-89290066D01*
X48588304Y-89337456D01*
X47996139Y-89337456D01*
X48065142Y-89217940D01*
X48075223Y-89200479D01*
X48075224Y-89200478D01*
X48078527Y-89194756D01*
X48137542Y-89013128D01*
X48142197Y-88968843D01*
X48156814Y-88829765D01*
X48157504Y-88823200D01*
X48150915Y-88760506D01*
X48138232Y-88639835D01*
X48138232Y-88639833D01*
X48137542Y-88633272D01*
X48078527Y-88451644D01*
X47983040Y-88286256D01*
X47985777Y-88284676D01*
X47966351Y-88230853D01*
X47982178Y-88161643D01*
X47983114Y-88160187D01*
X47983040Y-88160144D01*
X48075223Y-88000479D01*
X48075224Y-88000478D01*
X48078527Y-87994756D01*
X48137542Y-87813128D01*
X48149749Y-87696990D01*
X48156814Y-87629765D01*
X48157504Y-87623200D01*
X48137542Y-87433272D01*
X48078527Y-87251644D01*
X47983040Y-87086256D01*
X47985777Y-87084676D01*
X47966351Y-87030853D01*
X47982178Y-86961643D01*
X47983114Y-86960187D01*
X47983040Y-86960144D01*
X48075223Y-86800479D01*
X48075224Y-86800478D01*
X48078527Y-86794756D01*
X48137542Y-86613128D01*
X48157504Y-86423200D01*
X48143047Y-86285648D01*
X48138232Y-86239835D01*
X48138232Y-86239833D01*
X48137542Y-86233272D01*
X48078527Y-86051644D01*
X47983040Y-85886256D01*
X47985777Y-85884676D01*
X47966351Y-85830853D01*
X47982178Y-85761643D01*
X47983114Y-85760187D01*
X47983040Y-85760144D01*
X48075223Y-85600479D01*
X48075224Y-85600478D01*
X48078527Y-85594756D01*
X48137542Y-85413128D01*
X48144369Y-85348178D01*
X48156814Y-85229765D01*
X48157504Y-85223200D01*
X48137542Y-85033272D01*
X48078527Y-84851644D01*
X47983040Y-84686256D01*
X47985777Y-84684676D01*
X47966351Y-84630853D01*
X47982178Y-84561643D01*
X47983114Y-84560187D01*
X47983040Y-84560144D01*
X48075223Y-84400479D01*
X48075224Y-84400478D01*
X48078527Y-84394756D01*
X48137542Y-84213128D01*
X48150419Y-84090615D01*
X48156814Y-84029765D01*
X48157504Y-84023200D01*
X48137542Y-83833272D01*
X48078527Y-83651644D01*
X47983040Y-83486256D01*
X47868810Y-83359390D01*
X47859675Y-83349245D01*
X47859674Y-83349244D01*
X47855253Y-83344334D01*
X47700752Y-83232082D01*
X47694724Y-83229398D01*
X47694722Y-83229397D01*
X47532319Y-83157091D01*
X47532318Y-83157091D01*
X47526288Y-83154406D01*
X47432887Y-83134553D01*
X47345944Y-83116072D01*
X47345939Y-83116072D01*
X47339487Y-83114700D01*
X47148513Y-83114700D01*
X47142061Y-83116072D01*
X47142056Y-83116072D01*
X47055113Y-83134553D01*
X46961712Y-83154406D01*
X46955682Y-83157091D01*
X46955681Y-83157091D01*
X46793278Y-83229397D01*
X46793276Y-83229398D01*
X46787248Y-83232082D01*
X46632747Y-83344334D01*
X46628326Y-83349244D01*
X46628325Y-83349245D01*
X46619191Y-83359390D01*
X46504960Y-83486256D01*
X46409473Y-83651644D01*
X46350458Y-83833272D01*
X46330496Y-84023200D01*
X46331186Y-84029765D01*
X46337582Y-84090615D01*
X46350458Y-84213128D01*
X46409473Y-84394756D01*
X46412776Y-84400478D01*
X46412777Y-84400479D01*
X46504960Y-84560144D01*
X46502223Y-84561724D01*
X46521649Y-84615547D01*
X46505822Y-84684757D01*
X46504886Y-84686213D01*
X46504960Y-84686256D01*
X46409473Y-84851644D01*
X46350458Y-85033272D01*
X46330496Y-85223200D01*
X46331186Y-85229765D01*
X46343632Y-85348178D01*
X46350458Y-85413128D01*
X46409473Y-85594756D01*
X46412776Y-85600478D01*
X46412777Y-85600479D01*
X46504960Y-85760144D01*
X46502223Y-85761724D01*
X46521649Y-85815547D01*
X46505822Y-85884757D01*
X46504886Y-85886213D01*
X46504960Y-85886256D01*
X46409473Y-86051644D01*
X46350458Y-86233272D01*
X46349768Y-86239833D01*
X46349768Y-86239835D01*
X46344953Y-86285648D01*
X46330496Y-86423200D01*
X46350458Y-86613128D01*
X46409473Y-86794756D01*
X46412776Y-86800478D01*
X46412777Y-86800479D01*
X46504960Y-86960144D01*
X46502223Y-86961724D01*
X46521649Y-87015547D01*
X46505822Y-87084757D01*
X46504886Y-87086213D01*
X46504960Y-87086256D01*
X46409473Y-87251644D01*
X46350458Y-87433272D01*
X46330496Y-87623200D01*
X46331186Y-87629765D01*
X46338252Y-87696990D01*
X46350458Y-87813128D01*
X46409473Y-87994756D01*
X46412776Y-88000478D01*
X46412777Y-88000479D01*
X46504960Y-88160144D01*
X46502223Y-88161724D01*
X46521649Y-88215547D01*
X46505822Y-88284757D01*
X46504886Y-88286213D01*
X46504960Y-88286256D01*
X46409473Y-88451644D01*
X46350458Y-88633272D01*
X46349768Y-88639833D01*
X46349768Y-88639835D01*
X46337085Y-88760506D01*
X46330496Y-88823200D01*
X19813128Y-88823200D01*
X19759239Y-88782718D01*
X19734539Y-88716156D01*
X19749747Y-88646808D01*
X19771293Y-88618127D01*
X19872235Y-88517537D01*
X19875896Y-88513889D01*
X19935394Y-88431089D01*
X20003235Y-88336677D01*
X20006253Y-88332477D01*
X20056479Y-88230853D01*
X20102936Y-88136853D01*
X20102937Y-88136851D01*
X20105230Y-88132211D01*
X20170170Y-87918469D01*
X20199329Y-87696990D01*
X20200956Y-87630400D01*
X20182652Y-87407761D01*
X20128231Y-87191102D01*
X20039154Y-86986240D01*
X19917814Y-86798677D01*
X19767470Y-86633451D01*
X19763419Y-86630252D01*
X19763415Y-86630248D01*
X19596214Y-86498200D01*
X19596210Y-86498198D01*
X19592159Y-86494998D01*
X19550369Y-86471929D01*
X19500398Y-86421497D01*
X19485626Y-86352054D01*
X19510742Y-86285648D01*
X19538094Y-86259041D01*
X19713128Y-86134192D01*
X19721000Y-86127539D01*
X19871852Y-85977212D01*
X19878530Y-85969365D01*
X20002803Y-85796420D01*
X20008113Y-85787583D01*
X20102470Y-85596667D01*
X20106269Y-85587072D01*
X20168177Y-85383310D01*
X20170355Y-85373237D01*
X20171786Y-85362362D01*
X20169575Y-85348178D01*
X20156417Y-85344400D01*
X17521025Y-85344400D01*
X17507494Y-85348373D01*
X17506057Y-85358366D01*
X17536365Y-85492846D01*
X17539445Y-85502675D01*
X17619570Y-85700003D01*
X17624213Y-85709194D01*
X17735494Y-85890788D01*
X17741577Y-85899099D01*
X17881013Y-86060067D01*
X17888380Y-86067283D01*
X18052234Y-86203316D01*
X18060681Y-86209231D01*
X18129769Y-86249603D01*
X18178493Y-86301242D01*
X18191564Y-86371025D01*
X18164833Y-86436796D01*
X18124384Y-86470152D01*
X18111407Y-86476907D01*
X18107274Y-86480010D01*
X18107271Y-86480012D01*
X18083047Y-86498200D01*
X17932765Y-86611035D01*
X17778429Y-86772538D01*
X17652543Y-86957080D01*
X17636803Y-86990990D01*
X17593278Y-87084757D01*
X17558488Y-87159705D01*
X17498789Y-87374970D01*
X17475051Y-87597095D01*
X15748000Y-87597095D01*
X15748000Y-82517095D01*
X17475051Y-82517095D01*
X17475348Y-82522248D01*
X17475348Y-82522251D01*
X17480811Y-82616990D01*
X17487910Y-82740115D01*
X17489047Y-82745161D01*
X17489048Y-82745167D01*
X17508919Y-82833339D01*
X17537022Y-82958039D01*
X17575261Y-83052211D01*
X17616201Y-83153034D01*
X17621066Y-83165016D01*
X17737787Y-83355488D01*
X17884050Y-83524338D01*
X18055926Y-83667032D01*
X18129755Y-83710174D01*
X18178479Y-83761812D01*
X18191550Y-83831595D01*
X18164819Y-83897367D01*
X18124362Y-83930727D01*
X18116257Y-83934946D01*
X18107538Y-83940436D01*
X17937233Y-84068305D01*
X17929526Y-84075148D01*
X17782390Y-84229117D01*
X17775904Y-84237127D01*
X17655898Y-84413049D01*
X17650800Y-84422023D01*
X17561138Y-84615183D01*
X17557575Y-84624870D01*
X17502189Y-84824583D01*
X17503712Y-84833007D01*
X17516092Y-84836400D01*
X20156144Y-84836400D01*
X20169675Y-84832427D01*
X20170980Y-84823347D01*
X20129014Y-84656275D01*
X20125694Y-84646524D01*
X20040772Y-84451214D01*
X20035905Y-84442139D01*
X19920226Y-84263326D01*
X19913936Y-84255157D01*
X19770606Y-84097640D01*
X19763073Y-84090615D01*
X19595939Y-83958622D01*
X19587356Y-83952920D01*
X19550402Y-83932520D01*
X19500431Y-83882087D01*
X19485659Y-83812645D01*
X19510775Y-83746239D01*
X19538127Y-83719632D01*
X19561597Y-83702891D01*
X19717660Y-83591573D01*
X19875896Y-83433889D01*
X19935394Y-83351089D01*
X20003235Y-83256677D01*
X20006253Y-83252477D01*
X20053396Y-83157091D01*
X20102936Y-83056853D01*
X20102937Y-83056851D01*
X20105230Y-83052211D01*
X20170170Y-82838469D01*
X20199329Y-82616990D01*
X20200956Y-82550400D01*
X20182652Y-82327761D01*
X20128231Y-82111102D01*
X20039154Y-81906240D01*
X19917814Y-81718677D01*
X19767470Y-81553451D01*
X19763419Y-81550252D01*
X19763415Y-81550248D01*
X19596214Y-81418200D01*
X19596210Y-81418198D01*
X19592159Y-81414998D01*
X19550369Y-81391929D01*
X19500398Y-81341497D01*
X19485626Y-81272054D01*
X19510742Y-81205648D01*
X19538094Y-81179041D01*
X19713128Y-81054192D01*
X19721000Y-81047539D01*
X19871852Y-80897212D01*
X19878530Y-80889365D01*
X20002803Y-80716420D01*
X20008113Y-80707583D01*
X20102470Y-80516667D01*
X20106269Y-80507072D01*
X20168177Y-80303310D01*
X20170355Y-80293237D01*
X20171786Y-80282362D01*
X20169575Y-80268178D01*
X20156417Y-80264400D01*
X17521025Y-80264400D01*
X17507494Y-80268373D01*
X17506057Y-80278366D01*
X17536365Y-80412846D01*
X17539445Y-80422675D01*
X17619570Y-80620003D01*
X17624213Y-80629194D01*
X17735494Y-80810788D01*
X17741577Y-80819099D01*
X17881013Y-80980067D01*
X17888380Y-80987283D01*
X18052234Y-81123316D01*
X18060681Y-81129231D01*
X18129769Y-81169603D01*
X18178493Y-81221242D01*
X18191564Y-81291025D01*
X18164833Y-81356796D01*
X18124384Y-81390152D01*
X18111407Y-81396907D01*
X18107274Y-81400010D01*
X18107271Y-81400012D01*
X18083047Y-81418200D01*
X17932765Y-81531035D01*
X17778429Y-81692538D01*
X17652543Y-81877080D01*
X17558488Y-82079705D01*
X17498789Y-82294970D01*
X17475051Y-82517095D01*
X15748000Y-82517095D01*
X15748000Y-77437095D01*
X17475051Y-77437095D01*
X17475348Y-77442243D01*
X17475348Y-77442251D01*
X17483704Y-77587166D01*
X17487910Y-77660115D01*
X17489047Y-77665161D01*
X17489048Y-77665167D01*
X17504245Y-77732598D01*
X17537022Y-77878039D01*
X17575261Y-77972211D01*
X17605904Y-78047675D01*
X17621066Y-78085016D01*
X17642518Y-78120022D01*
X17725059Y-78254717D01*
X17737787Y-78275488D01*
X17884050Y-78444338D01*
X18055926Y-78587032D01*
X18073522Y-78597314D01*
X18129755Y-78630174D01*
X18178479Y-78681812D01*
X18191550Y-78751595D01*
X18164819Y-78817367D01*
X18124362Y-78850727D01*
X18116257Y-78854946D01*
X18107538Y-78860436D01*
X17937233Y-78988305D01*
X17929526Y-78995148D01*
X17782390Y-79149117D01*
X17775904Y-79157127D01*
X17655898Y-79333049D01*
X17650800Y-79342023D01*
X17561138Y-79535183D01*
X17557575Y-79544870D01*
X17502189Y-79744583D01*
X17503712Y-79753007D01*
X17516092Y-79756400D01*
X20156144Y-79756400D01*
X20169675Y-79752427D01*
X20170980Y-79743347D01*
X20129014Y-79576275D01*
X20125694Y-79566524D01*
X20040772Y-79371214D01*
X20035905Y-79362139D01*
X19920226Y-79183326D01*
X19913936Y-79175157D01*
X19770606Y-79017640D01*
X19763073Y-79010615D01*
X19595939Y-78878622D01*
X19587356Y-78872920D01*
X19550402Y-78852520D01*
X19500431Y-78802087D01*
X19485659Y-78732645D01*
X19510775Y-78666239D01*
X19538127Y-78639632D01*
X19597455Y-78597314D01*
X19717660Y-78511573D01*
X19875896Y-78353889D01*
X19935394Y-78271089D01*
X19971645Y-78220640D01*
X28818863Y-78220640D01*
X28836563Y-78401160D01*
X28893818Y-78573273D01*
X28897465Y-78579295D01*
X28897466Y-78579297D01*
X28973099Y-78704182D01*
X28987780Y-78728424D01*
X28992669Y-78733487D01*
X28992670Y-78733488D01*
X29060539Y-78803768D01*
X29113782Y-78858902D01*
X29146129Y-78880069D01*
X29210431Y-78922147D01*
X29265559Y-78958222D01*
X29272163Y-78960678D01*
X29272165Y-78960679D01*
X29428958Y-79018990D01*
X29428960Y-79018990D01*
X29435568Y-79021448D01*
X29519395Y-79032633D01*
X29608380Y-79044507D01*
X29608384Y-79044507D01*
X29615361Y-79045438D01*
X29622372Y-79044800D01*
X29622376Y-79044800D01*
X29764859Y-79031832D01*
X29796000Y-79028998D01*
X29802702Y-79026820D01*
X29802704Y-79026820D01*
X29961809Y-78975124D01*
X29961812Y-78975123D01*
X29968508Y-78972947D01*
X30124312Y-78880069D01*
X30255666Y-78754982D01*
X30356043Y-78603902D01*
X30415402Y-78447640D01*
X30417955Y-78440920D01*
X30417956Y-78440918D01*
X30420455Y-78434338D01*
X30421435Y-78427366D01*
X30445148Y-78258639D01*
X30445148Y-78258636D01*
X30445699Y-78254717D01*
X30446016Y-78232000D01*
X30439044Y-78169840D01*
X32663663Y-78169840D01*
X32681363Y-78350360D01*
X32738618Y-78522473D01*
X32742265Y-78528495D01*
X32742266Y-78528497D01*
X32787933Y-78603902D01*
X32832580Y-78677624D01*
X32837469Y-78682687D01*
X32837470Y-78682688D01*
X32886528Y-78733488D01*
X32958582Y-78808102D01*
X33110359Y-78907422D01*
X33116963Y-78909878D01*
X33116965Y-78909879D01*
X33273758Y-78968190D01*
X33273760Y-78968190D01*
X33280368Y-78970648D01*
X33364195Y-78981833D01*
X33453180Y-78993707D01*
X33453184Y-78993707D01*
X33460161Y-78994638D01*
X33467172Y-78994000D01*
X33467176Y-78994000D01*
X33609659Y-78981032D01*
X33640800Y-78978198D01*
X33647502Y-78976020D01*
X33647504Y-78976020D01*
X33806609Y-78924324D01*
X33806612Y-78924323D01*
X33813308Y-78922147D01*
X33969112Y-78829269D01*
X34100466Y-78704182D01*
X34200843Y-78553102D01*
X34258561Y-78401160D01*
X34262755Y-78390120D01*
X34262756Y-78390118D01*
X34265255Y-78383538D01*
X34268909Y-78357537D01*
X34289948Y-78207839D01*
X34289948Y-78207836D01*
X34290499Y-78203917D01*
X34290682Y-78190798D01*
X34290761Y-78185162D01*
X34290761Y-78185157D01*
X34290816Y-78181200D01*
X34270597Y-78000945D01*
X34268280Y-77994291D01*
X34213264Y-77836306D01*
X34213262Y-77836303D01*
X34210945Y-77829648D01*
X34174656Y-77771573D01*
X34118559Y-77681798D01*
X34114826Y-77675824D01*
X34101141Y-77662043D01*
X33991978Y-77552115D01*
X33991974Y-77552112D01*
X33987015Y-77547118D01*
X33976285Y-77540308D01*
X33912000Y-77499512D01*
X33833866Y-77449927D01*
X33798585Y-77437364D01*
X33669625Y-77391443D01*
X33669620Y-77391442D01*
X33662990Y-77389081D01*
X33656002Y-77388248D01*
X33655999Y-77388247D01*
X33607300Y-77382440D01*
X60654463Y-77382440D01*
X60672163Y-77562960D01*
X60729418Y-77735073D01*
X60733065Y-77741095D01*
X60733066Y-77741097D01*
X60816001Y-77878039D01*
X60823380Y-77890224D01*
X60949382Y-78020702D01*
X61101159Y-78120022D01*
X61107763Y-78122478D01*
X61107765Y-78122479D01*
X61264558Y-78180790D01*
X61264560Y-78180790D01*
X61271168Y-78183248D01*
X61354995Y-78194433D01*
X61443980Y-78206307D01*
X61443984Y-78206307D01*
X61450961Y-78207238D01*
X61457972Y-78206600D01*
X61457976Y-78206600D01*
X61600459Y-78193632D01*
X61631600Y-78190798D01*
X61638302Y-78188620D01*
X61638304Y-78188620D01*
X61797409Y-78136924D01*
X61797412Y-78136923D01*
X61804108Y-78134747D01*
X61943345Y-78051745D01*
X61953860Y-78045477D01*
X61953862Y-78045476D01*
X61959912Y-78041869D01*
X62091266Y-77916782D01*
X62191643Y-77765702D01*
X62256055Y-77596138D01*
X62257316Y-77587166D01*
X62280748Y-77420439D01*
X62280748Y-77420436D01*
X62281299Y-77416517D01*
X62281616Y-77393800D01*
X62261397Y-77213545D01*
X62259080Y-77206891D01*
X62204064Y-77048906D01*
X62204062Y-77048903D01*
X62201745Y-77042248D01*
X62105626Y-76888424D01*
X62091941Y-76874643D01*
X61982778Y-76764715D01*
X61982774Y-76764712D01*
X61977815Y-76759718D01*
X61966697Y-76752662D01*
X61918538Y-76722100D01*
X61824666Y-76662527D01*
X61795463Y-76652128D01*
X61660425Y-76604043D01*
X61660420Y-76604042D01*
X61653790Y-76601681D01*
X61646802Y-76600848D01*
X61646799Y-76600847D01*
X61523698Y-76586168D01*
X61473680Y-76580204D01*
X61466677Y-76580940D01*
X61466676Y-76580940D01*
X61300288Y-76598428D01*
X61300286Y-76598429D01*
X61293288Y-76599164D01*
X61121579Y-76657618D01*
X61115575Y-76661312D01*
X60973095Y-76748966D01*
X60973092Y-76748968D01*
X60967088Y-76752662D01*
X60962053Y-76757593D01*
X60962050Y-76757595D01*
X60887102Y-76830990D01*
X60837493Y-76879571D01*
X60739235Y-77032038D01*
X60736826Y-77038658D01*
X60736824Y-77038661D01*
X60679606Y-77195866D01*
X60677197Y-77202485D01*
X60654463Y-77382440D01*
X33607300Y-77382440D01*
X33532898Y-77373568D01*
X33482880Y-77367604D01*
X33475877Y-77368340D01*
X33475876Y-77368340D01*
X33309488Y-77385828D01*
X33309486Y-77385829D01*
X33302488Y-77386564D01*
X33130779Y-77445018D01*
X33084052Y-77473765D01*
X32982295Y-77536366D01*
X32982292Y-77536368D01*
X32976288Y-77540062D01*
X32971253Y-77544993D01*
X32971250Y-77544995D01*
X32858971Y-77654947D01*
X32846693Y-77666971D01*
X32748435Y-77819438D01*
X32746026Y-77826058D01*
X32746024Y-77826061D01*
X32715141Y-77910911D01*
X32686397Y-77989885D01*
X32663663Y-78169840D01*
X30439044Y-78169840D01*
X30425797Y-78051745D01*
X30422358Y-78041869D01*
X30368464Y-77887106D01*
X30368462Y-77887103D01*
X30366145Y-77880448D01*
X30279070Y-77741097D01*
X30273759Y-77732598D01*
X30270026Y-77726624D01*
X30225512Y-77681798D01*
X30147178Y-77602915D01*
X30147174Y-77602912D01*
X30142215Y-77597918D01*
X30131097Y-77590862D01*
X30051048Y-77540062D01*
X29989066Y-77500727D01*
X29903898Y-77470400D01*
X29824825Y-77442243D01*
X29824820Y-77442242D01*
X29818190Y-77439881D01*
X29811202Y-77439048D01*
X29811199Y-77439047D01*
X29688098Y-77424368D01*
X29638080Y-77418404D01*
X29631077Y-77419140D01*
X29631076Y-77419140D01*
X29464688Y-77436628D01*
X29464686Y-77436629D01*
X29457688Y-77437364D01*
X29285979Y-77495818D01*
X29279975Y-77499512D01*
X29137495Y-77587166D01*
X29137492Y-77587168D01*
X29131488Y-77590862D01*
X29126453Y-77595793D01*
X29126450Y-77595795D01*
X29038627Y-77681798D01*
X29001893Y-77717771D01*
X28903635Y-77870238D01*
X28901226Y-77876858D01*
X28901224Y-77876861D01*
X28856061Y-78000945D01*
X28841597Y-78040685D01*
X28818863Y-78220640D01*
X19971645Y-78220640D01*
X20003235Y-78176677D01*
X20006253Y-78172477D01*
X20023825Y-78136924D01*
X20102936Y-77976853D01*
X20102937Y-77976851D01*
X20105230Y-77972211D01*
X20166189Y-77771573D01*
X20168665Y-77763423D01*
X20168665Y-77763421D01*
X20170170Y-77758469D01*
X20199329Y-77536990D01*
X20200335Y-77495818D01*
X20200874Y-77473765D01*
X20200874Y-77473761D01*
X20200956Y-77470400D01*
X20182652Y-77247761D01*
X20128231Y-77031102D01*
X20039154Y-76826240D01*
X19935688Y-76666306D01*
X19920622Y-76643017D01*
X19920620Y-76643014D01*
X19917814Y-76638677D01*
X19767470Y-76473451D01*
X19763419Y-76470252D01*
X19763415Y-76470248D01*
X19596214Y-76338200D01*
X19596210Y-76338198D01*
X19592159Y-76334998D01*
X19396589Y-76227038D01*
X19391720Y-76225314D01*
X19391716Y-76225312D01*
X19190887Y-76154195D01*
X19190883Y-76154194D01*
X19186012Y-76152469D01*
X19180919Y-76151562D01*
X19180916Y-76151561D01*
X18971173Y-76114200D01*
X18971167Y-76114199D01*
X18966084Y-76113294D01*
X18892252Y-76112392D01*
X18747881Y-76110628D01*
X18747879Y-76110628D01*
X18742711Y-76110565D01*
X18521891Y-76144355D01*
X18309556Y-76213757D01*
X18111407Y-76316907D01*
X18107274Y-76320010D01*
X18107271Y-76320012D01*
X18083047Y-76338200D01*
X17932765Y-76451035D01*
X17929193Y-76454773D01*
X17791210Y-76599164D01*
X17778429Y-76612538D01*
X17775515Y-76616810D01*
X17775514Y-76616811D01*
X17745942Y-76660162D01*
X17652543Y-76797080D01*
X17558488Y-76999705D01*
X17498789Y-77214970D01*
X17475051Y-77437095D01*
X15748000Y-77437095D01*
X15748000Y-75325040D01*
X59613063Y-75325040D01*
X59630763Y-75505560D01*
X59688018Y-75677673D01*
X59691665Y-75683695D01*
X59691666Y-75683697D01*
X59702578Y-75701714D01*
X59781980Y-75832824D01*
X59786869Y-75837887D01*
X59786870Y-75837888D01*
X59794166Y-75845443D01*
X59907982Y-75963302D01*
X60059759Y-76062622D01*
X60066363Y-76065078D01*
X60066365Y-76065079D01*
X60223158Y-76123390D01*
X60223160Y-76123390D01*
X60229768Y-76125848D01*
X60313595Y-76137033D01*
X60402580Y-76148907D01*
X60402584Y-76148907D01*
X60409561Y-76149838D01*
X60416572Y-76149200D01*
X60416576Y-76149200D01*
X60559059Y-76136232D01*
X60590200Y-76133398D01*
X60596902Y-76131220D01*
X60596904Y-76131220D01*
X60756009Y-76079524D01*
X60756012Y-76079523D01*
X60762708Y-76077347D01*
X60918512Y-75984469D01*
X61049866Y-75859382D01*
X61067039Y-75833534D01*
X62827439Y-75833534D01*
X62830222Y-75837252D01*
X62962057Y-75886281D01*
X62975648Y-75889670D01*
X63130244Y-75910297D01*
X63144240Y-75910591D01*
X63299560Y-75896455D01*
X63313285Y-75893638D01*
X63461615Y-75845443D01*
X63470255Y-75841524D01*
X63477663Y-75833534D01*
X63927439Y-75833534D01*
X63930222Y-75837252D01*
X64062057Y-75886281D01*
X64075648Y-75889670D01*
X64230244Y-75910297D01*
X64244240Y-75910591D01*
X64399560Y-75896455D01*
X64413285Y-75893638D01*
X64561615Y-75845443D01*
X64570255Y-75841524D01*
X64578630Y-75832491D01*
X64575125Y-75824078D01*
X64266012Y-75514965D01*
X64252068Y-75507351D01*
X64250235Y-75507482D01*
X64243620Y-75511733D01*
X63934199Y-75821154D01*
X63927439Y-75833534D01*
X63477663Y-75833534D01*
X63478630Y-75832491D01*
X63475125Y-75824078D01*
X63166012Y-75514965D01*
X63152068Y-75507351D01*
X63150235Y-75507482D01*
X63143620Y-75511733D01*
X62834199Y-75821154D01*
X62827439Y-75833534D01*
X61067039Y-75833534D01*
X61150243Y-75708302D01*
X61214655Y-75538738D01*
X61217996Y-75514965D01*
X61239348Y-75363039D01*
X61239348Y-75363036D01*
X61239899Y-75359117D01*
X61240216Y-75336400D01*
X61219997Y-75156145D01*
X61217680Y-75149491D01*
X61216103Y-75144962D01*
X62391166Y-75144962D01*
X62406386Y-75300185D01*
X62409297Y-75313880D01*
X62458527Y-75461870D01*
X62460929Y-75467068D01*
X62468917Y-75474372D01*
X62477538Y-75470709D01*
X62786835Y-75161412D01*
X62793213Y-75149732D01*
X63511951Y-75149732D01*
X63512082Y-75151565D01*
X63516333Y-75158180D01*
X63690388Y-75332235D01*
X63704332Y-75339849D01*
X63706165Y-75339718D01*
X63712780Y-75335467D01*
X63886835Y-75161412D01*
X63893213Y-75149732D01*
X64611951Y-75149732D01*
X64612082Y-75151565D01*
X64616333Y-75158180D01*
X64925378Y-75467225D01*
X64937758Y-75473985D01*
X64941574Y-75471128D01*
X64989531Y-75344883D01*
X64993011Y-75331327D01*
X65015148Y-75173821D01*
X65015754Y-75165938D01*
X65015941Y-75152562D01*
X65015554Y-75144662D01*
X64997825Y-74986603D01*
X64994723Y-74972950D01*
X64943900Y-74827007D01*
X64938341Y-74822067D01*
X64929288Y-74826065D01*
X64619565Y-75135788D01*
X64611951Y-75149732D01*
X63893213Y-75149732D01*
X63894449Y-75147468D01*
X63894318Y-75145635D01*
X63890067Y-75139020D01*
X63716012Y-74964965D01*
X63702068Y-74957351D01*
X63700235Y-74957482D01*
X63693620Y-74961733D01*
X63519565Y-75135788D01*
X63511951Y-75149732D01*
X62793213Y-75149732D01*
X62794449Y-75147468D01*
X62794318Y-75145635D01*
X62790067Y-75139020D01*
X62480239Y-74829192D01*
X62467859Y-74822432D01*
X62464237Y-74825143D01*
X62414201Y-74962616D01*
X62410909Y-74976225D01*
X62391362Y-75130956D01*
X62391166Y-75144962D01*
X61216103Y-75144962D01*
X61162664Y-74991506D01*
X61162662Y-74991503D01*
X61160345Y-74984848D01*
X61076939Y-74851369D01*
X61057804Y-74783001D01*
X61078670Y-74715140D01*
X61096901Y-74693356D01*
X61120963Y-74670442D01*
X61120965Y-74670440D01*
X61126066Y-74665582D01*
X61219646Y-74524732D01*
X62886951Y-74524732D01*
X62887082Y-74526565D01*
X62891333Y-74533180D01*
X63140388Y-74782235D01*
X63154332Y-74789849D01*
X63156165Y-74789718D01*
X63162780Y-74785467D01*
X63411835Y-74536412D01*
X63418213Y-74524732D01*
X63986951Y-74524732D01*
X63987082Y-74526565D01*
X63991333Y-74533180D01*
X64240388Y-74782235D01*
X64254332Y-74789849D01*
X64256165Y-74789718D01*
X64262780Y-74785467D01*
X64511835Y-74536412D01*
X64519449Y-74522468D01*
X64519318Y-74520635D01*
X64515067Y-74514020D01*
X64266012Y-74264965D01*
X64252068Y-74257351D01*
X64250235Y-74257482D01*
X64243620Y-74261733D01*
X63994565Y-74510788D01*
X63986951Y-74524732D01*
X63418213Y-74524732D01*
X63419449Y-74522468D01*
X63419318Y-74520635D01*
X63415067Y-74514020D01*
X63166012Y-74264965D01*
X63152068Y-74257351D01*
X63150235Y-74257482D01*
X63143620Y-74261733D01*
X62894565Y-74510788D01*
X62886951Y-74524732D01*
X61219646Y-74524732D01*
X61226443Y-74514502D01*
X61283353Y-74364688D01*
X61288355Y-74351520D01*
X61288356Y-74351518D01*
X61290855Y-74344938D01*
X61291835Y-74337966D01*
X61315548Y-74169239D01*
X61315548Y-74169236D01*
X61316099Y-74165317D01*
X61316416Y-74142600D01*
X61296197Y-73962345D01*
X61293880Y-73955691D01*
X61272732Y-73894962D01*
X62391166Y-73894962D01*
X62406386Y-74050185D01*
X62409297Y-74063880D01*
X62458527Y-74211870D01*
X62460929Y-74217068D01*
X62468917Y-74224372D01*
X62477538Y-74220709D01*
X62786835Y-73911412D01*
X62793213Y-73899732D01*
X63511951Y-73899732D01*
X63512082Y-73901565D01*
X63516333Y-73908180D01*
X63690388Y-74082235D01*
X63704332Y-74089849D01*
X63706165Y-74089718D01*
X63712780Y-74085467D01*
X63886835Y-73911412D01*
X63893213Y-73899732D01*
X64611951Y-73899732D01*
X64612082Y-73901565D01*
X64616333Y-73908180D01*
X64925378Y-74217225D01*
X64937758Y-74223985D01*
X64941574Y-74221128D01*
X64989531Y-74094883D01*
X64993011Y-74081327D01*
X65015148Y-73923821D01*
X65015754Y-73915938D01*
X65015941Y-73902562D01*
X65015554Y-73894662D01*
X65010751Y-73851840D01*
X65785263Y-73851840D01*
X65802963Y-74032360D01*
X65860218Y-74204473D01*
X65863865Y-74210495D01*
X65863866Y-74210497D01*
X65941064Y-74337966D01*
X65954180Y-74359624D01*
X65959069Y-74364687D01*
X65959070Y-74364688D01*
X66035921Y-74444268D01*
X66080182Y-74490102D01*
X66231959Y-74589422D01*
X66238563Y-74591878D01*
X66238565Y-74591879D01*
X66395358Y-74650190D01*
X66395360Y-74650190D01*
X66401968Y-74652648D01*
X66485795Y-74663833D01*
X66574780Y-74675707D01*
X66574784Y-74675707D01*
X66581761Y-74676638D01*
X66588772Y-74676000D01*
X66588776Y-74676000D01*
X66731259Y-74663032D01*
X66762400Y-74660198D01*
X66769102Y-74658020D01*
X66769104Y-74658020D01*
X66928209Y-74606324D01*
X66928212Y-74606323D01*
X66934908Y-74604147D01*
X67071926Y-74522468D01*
X67084660Y-74514877D01*
X67084662Y-74514876D01*
X67090712Y-74511269D01*
X67222066Y-74386182D01*
X67322443Y-74235102D01*
X67379285Y-74085467D01*
X67384355Y-74072120D01*
X67384356Y-74072118D01*
X67386855Y-74065538D01*
X67390361Y-74040590D01*
X67411548Y-73889839D01*
X67411548Y-73889836D01*
X67412099Y-73885917D01*
X67412416Y-73863200D01*
X67411529Y-73855295D01*
X89188251Y-73855295D01*
X89188548Y-73860448D01*
X89188548Y-73860451D01*
X89199130Y-74043980D01*
X89201110Y-74078315D01*
X89202247Y-74083361D01*
X89202248Y-74083367D01*
X89220717Y-74165317D01*
X89250222Y-74296239D01*
X89286744Y-74386182D01*
X89330508Y-74493960D01*
X89334266Y-74503216D01*
X89384729Y-74585564D01*
X89433764Y-74665582D01*
X89450987Y-74693688D01*
X89597250Y-74862538D01*
X89769126Y-75005232D01*
X89962000Y-75117938D01*
X89966825Y-75119780D01*
X89966826Y-75119781D01*
X90008744Y-75135788D01*
X90170692Y-75197630D01*
X90175760Y-75198661D01*
X90175763Y-75198662D01*
X90283017Y-75220483D01*
X90389597Y-75242167D01*
X90394772Y-75242357D01*
X90394774Y-75242357D01*
X90607673Y-75250164D01*
X90607677Y-75250164D01*
X90612837Y-75250353D01*
X90617957Y-75249697D01*
X90617959Y-75249697D01*
X90829288Y-75222625D01*
X90829289Y-75222625D01*
X90834416Y-75221968D01*
X90839366Y-75220483D01*
X91043429Y-75159261D01*
X91043434Y-75159259D01*
X91048384Y-75157774D01*
X91248994Y-75059496D01*
X91430860Y-74929773D01*
X91589096Y-74772089D01*
X91641593Y-74699032D01*
X91716435Y-74594877D01*
X91719453Y-74590677D01*
X91746273Y-74536412D01*
X91816136Y-74395053D01*
X91816137Y-74395051D01*
X91818430Y-74390411D01*
X91856544Y-74264965D01*
X91881865Y-74181623D01*
X91881865Y-74181621D01*
X91883370Y-74176669D01*
X91912529Y-73955190D01*
X91912611Y-73951840D01*
X91914074Y-73891965D01*
X91914074Y-73891961D01*
X91914156Y-73888600D01*
X91895852Y-73665961D01*
X91841431Y-73449302D01*
X91752354Y-73244440D01*
X91701275Y-73165484D01*
X91633822Y-73061217D01*
X91633820Y-73061214D01*
X91631014Y-73056877D01*
X91480670Y-72891651D01*
X91476619Y-72888452D01*
X91476615Y-72888448D01*
X91309414Y-72756400D01*
X91309410Y-72756398D01*
X91305359Y-72753198D01*
X91287297Y-72743227D01*
X91268270Y-72732724D01*
X91263569Y-72730129D01*
X91213598Y-72679697D01*
X91198826Y-72610254D01*
X91223942Y-72543848D01*
X91251294Y-72517241D01*
X91426328Y-72392392D01*
X91434200Y-72385739D01*
X91585052Y-72235412D01*
X91591730Y-72227565D01*
X91716003Y-72054620D01*
X91721313Y-72045783D01*
X91815670Y-71854867D01*
X91819469Y-71845272D01*
X91881377Y-71641510D01*
X91883555Y-71631437D01*
X91884986Y-71620562D01*
X91882775Y-71606378D01*
X91869617Y-71602600D01*
X89234225Y-71602600D01*
X89220694Y-71606573D01*
X89219257Y-71616566D01*
X89249565Y-71751046D01*
X89252645Y-71760875D01*
X89332770Y-71958203D01*
X89337413Y-71967394D01*
X89448694Y-72148988D01*
X89454777Y-72157299D01*
X89594213Y-72318267D01*
X89601580Y-72325483D01*
X89765434Y-72461516D01*
X89773881Y-72467431D01*
X89842969Y-72507803D01*
X89891693Y-72559442D01*
X89904764Y-72629225D01*
X89878033Y-72694996D01*
X89837584Y-72728352D01*
X89824607Y-72735107D01*
X89820474Y-72738210D01*
X89820471Y-72738212D01*
X89650100Y-72866130D01*
X89645965Y-72869235D01*
X89491629Y-73030738D01*
X89488715Y-73035010D01*
X89488714Y-73035011D01*
X89427500Y-73124747D01*
X89365743Y-73215280D01*
X89339249Y-73272357D01*
X89296804Y-73363798D01*
X89271688Y-73417905D01*
X89211989Y-73633170D01*
X89188251Y-73855295D01*
X67411529Y-73855295D01*
X67392197Y-73682945D01*
X67389880Y-73676291D01*
X67334864Y-73518306D01*
X67334862Y-73518303D01*
X67332545Y-73511648D01*
X67273968Y-73417905D01*
X67240159Y-73363798D01*
X67236426Y-73357824D01*
X67208635Y-73329838D01*
X67113578Y-73234115D01*
X67113574Y-73234112D01*
X67108615Y-73229118D01*
X67102442Y-73225200D01*
X67021159Y-73173617D01*
X66955466Y-73131927D01*
X66878577Y-73104548D01*
X66791225Y-73073443D01*
X66791220Y-73073442D01*
X66784590Y-73071081D01*
X66777602Y-73070248D01*
X66777599Y-73070247D01*
X66633437Y-73053057D01*
X66604480Y-73049604D01*
X66597477Y-73050340D01*
X66597476Y-73050340D01*
X66431088Y-73067828D01*
X66431086Y-73067829D01*
X66424088Y-73068564D01*
X66252379Y-73127018D01*
X66206694Y-73155124D01*
X66103895Y-73218366D01*
X66103892Y-73218368D01*
X66097888Y-73222062D01*
X66092853Y-73226993D01*
X66092850Y-73226995D01*
X65987931Y-73329740D01*
X65968293Y-73348971D01*
X65870035Y-73501438D01*
X65867626Y-73508058D01*
X65867624Y-73508061D01*
X65820218Y-73638307D01*
X65807997Y-73671885D01*
X65785263Y-73851840D01*
X65010751Y-73851840D01*
X64997825Y-73736603D01*
X64994723Y-73722950D01*
X64943900Y-73577007D01*
X64938341Y-73572067D01*
X64929288Y-73576065D01*
X64619565Y-73885788D01*
X64611951Y-73899732D01*
X63893213Y-73899732D01*
X63894449Y-73897468D01*
X63894318Y-73895635D01*
X63890067Y-73889020D01*
X63716012Y-73714965D01*
X63702068Y-73707351D01*
X63700235Y-73707482D01*
X63693620Y-73711733D01*
X63519565Y-73885788D01*
X63511951Y-73899732D01*
X62793213Y-73899732D01*
X62794449Y-73897468D01*
X62794318Y-73895635D01*
X62790067Y-73889020D01*
X62480239Y-73579192D01*
X62467859Y-73572432D01*
X62464237Y-73575143D01*
X62414201Y-73712616D01*
X62410909Y-73726225D01*
X62391362Y-73880956D01*
X62391166Y-73894962D01*
X61272732Y-73894962D01*
X61238864Y-73797706D01*
X61238862Y-73797703D01*
X61236545Y-73791048D01*
X61202524Y-73736603D01*
X61144159Y-73643198D01*
X61140426Y-73637224D01*
X61126741Y-73623443D01*
X61017578Y-73513515D01*
X61017574Y-73513512D01*
X61012615Y-73508518D01*
X61001497Y-73501462D01*
X60953338Y-73470900D01*
X60859466Y-73411327D01*
X60830263Y-73400928D01*
X60695225Y-73352843D01*
X60695220Y-73352842D01*
X60688590Y-73350481D01*
X60681602Y-73349648D01*
X60681599Y-73349647D01*
X60558498Y-73334968D01*
X60508480Y-73329004D01*
X60501477Y-73329740D01*
X60501476Y-73329740D01*
X60335088Y-73347228D01*
X60335086Y-73347229D01*
X60328088Y-73347964D01*
X60156379Y-73406418D01*
X60129816Y-73422760D01*
X60007895Y-73497766D01*
X60007892Y-73497768D01*
X60001888Y-73501462D01*
X59996853Y-73506393D01*
X59996850Y-73506395D01*
X59913324Y-73588190D01*
X59872293Y-73628371D01*
X59774035Y-73780838D01*
X59771626Y-73787458D01*
X59771624Y-73787461D01*
X59724862Y-73915938D01*
X59711997Y-73951285D01*
X59689263Y-74131240D01*
X59706963Y-74311760D01*
X59764218Y-74483873D01*
X59767865Y-74489895D01*
X59767866Y-74489897D01*
X59852958Y-74630402D01*
X59871137Y-74699032D01*
X59849326Y-74766595D01*
X59833345Y-74785691D01*
X59796093Y-74822171D01*
X59697835Y-74974638D01*
X59695426Y-74981258D01*
X59695424Y-74981261D01*
X59639181Y-75135788D01*
X59635797Y-75145085D01*
X59613063Y-75325040D01*
X15748000Y-75325040D01*
X15748000Y-73242240D01*
X30088863Y-73242240D01*
X30106563Y-73422760D01*
X30163818Y-73594873D01*
X30167465Y-73600895D01*
X30167466Y-73600897D01*
X30241384Y-73722950D01*
X30257780Y-73750024D01*
X30383782Y-73880502D01*
X30437934Y-73915938D01*
X30502632Y-73958275D01*
X30535559Y-73979822D01*
X30542163Y-73982278D01*
X30542165Y-73982279D01*
X30698958Y-74040590D01*
X30698960Y-74040590D01*
X30705568Y-74043048D01*
X30789395Y-74054233D01*
X30878380Y-74066107D01*
X30878384Y-74066107D01*
X30885361Y-74067038D01*
X30892372Y-74066400D01*
X30892376Y-74066400D01*
X31034859Y-74053432D01*
X31066000Y-74050598D01*
X31072702Y-74048420D01*
X31072704Y-74048420D01*
X31231809Y-73996724D01*
X31231812Y-73996723D01*
X31238508Y-73994547D01*
X31394312Y-73901669D01*
X31525666Y-73776582D01*
X31626043Y-73625502D01*
X31690455Y-73455938D01*
X31692055Y-73444554D01*
X31715148Y-73280239D01*
X31715148Y-73280236D01*
X31715699Y-73276317D01*
X31716016Y-73253600D01*
X31711563Y-73213902D01*
X62827060Y-73213902D01*
X62830884Y-73222731D01*
X63140388Y-73532235D01*
X63154332Y-73539849D01*
X63156165Y-73539718D01*
X63162780Y-73535467D01*
X63473047Y-73225200D01*
X63480661Y-73211256D01*
X63479293Y-73192125D01*
X63469356Y-73165484D01*
X63484447Y-73096110D01*
X63534648Y-73045907D01*
X63604022Y-73030815D01*
X63611699Y-73031601D01*
X63723374Y-73046502D01*
X63723379Y-73046502D01*
X63730356Y-73047433D01*
X63737367Y-73046795D01*
X63737372Y-73046795D01*
X63794662Y-73041581D01*
X63864315Y-73055327D01*
X63915479Y-73104548D01*
X63931910Y-73173617D01*
X63930421Y-73187445D01*
X63926352Y-73212266D01*
X63930884Y-73222731D01*
X64240388Y-73532235D01*
X64254332Y-73539849D01*
X64256165Y-73539718D01*
X64262780Y-73535467D01*
X64573047Y-73225200D01*
X64579807Y-73212820D01*
X64577222Y-73209366D01*
X64576922Y-73209206D01*
X64434020Y-73158320D01*
X64420395Y-73155124D01*
X64258525Y-73135823D01*
X64258780Y-73133681D01*
X64200753Y-73116196D01*
X64154641Y-73062214D01*
X64145033Y-72991870D01*
X64174982Y-72927499D01*
X64205104Y-72902453D01*
X64205784Y-72902048D01*
X64239307Y-72882064D01*
X64370661Y-72756977D01*
X64471038Y-72605897D01*
X64520216Y-72476437D01*
X64532950Y-72442915D01*
X64532951Y-72442913D01*
X64535450Y-72436333D01*
X64538288Y-72416140D01*
X64560143Y-72260634D01*
X64560143Y-72260631D01*
X64560694Y-72256712D01*
X64561011Y-72233995D01*
X64540792Y-72053740D01*
X64536309Y-72040867D01*
X64532798Y-71969958D01*
X64568181Y-71908406D01*
X64590785Y-71891205D01*
X64620857Y-71873279D01*
X64620860Y-71873277D01*
X64626912Y-71869669D01*
X64699283Y-71800750D01*
X64762405Y-71768259D01*
X64802835Y-71767104D01*
X64859620Y-71774681D01*
X64900281Y-71780107D01*
X64900284Y-71780107D01*
X64907261Y-71781038D01*
X64914272Y-71780400D01*
X64914276Y-71780400D01*
X65060365Y-71767104D01*
X65087900Y-71764598D01*
X65094602Y-71762420D01*
X65094604Y-71762420D01*
X65253709Y-71710724D01*
X65253712Y-71710723D01*
X65260408Y-71708547D01*
X65356813Y-71651078D01*
X65410160Y-71619277D01*
X65410162Y-71619276D01*
X65416212Y-71615669D01*
X65425764Y-71606573D01*
X65485152Y-71550019D01*
X65548277Y-71517526D01*
X65618947Y-71524319D01*
X65674727Y-71568242D01*
X65697443Y-71628968D01*
X65706463Y-71720960D01*
X65763718Y-71893073D01*
X65767365Y-71899095D01*
X65767366Y-71899097D01*
X65844280Y-72026097D01*
X65857680Y-72048224D01*
X65862569Y-72053287D01*
X65862570Y-72053288D01*
X65885738Y-72077279D01*
X65983682Y-72178702D01*
X66135459Y-72278022D01*
X66142063Y-72280478D01*
X66142065Y-72280479D01*
X66298858Y-72338790D01*
X66298860Y-72338790D01*
X66305468Y-72341248D01*
X66389295Y-72352433D01*
X66478280Y-72364307D01*
X66478284Y-72364307D01*
X66485261Y-72365238D01*
X66492272Y-72364600D01*
X66492276Y-72364600D01*
X66634759Y-72351632D01*
X66665900Y-72348798D01*
X66672602Y-72346620D01*
X66672604Y-72346620D01*
X66831709Y-72294924D01*
X66831712Y-72294923D01*
X66838408Y-72292747D01*
X66956022Y-72222635D01*
X66988160Y-72203477D01*
X66988162Y-72203476D01*
X66994212Y-72199869D01*
X67125566Y-72074782D01*
X67225943Y-71923702D01*
X67290355Y-71754138D01*
X67291335Y-71747166D01*
X67315048Y-71578439D01*
X67315048Y-71578436D01*
X67315599Y-71574517D01*
X67315916Y-71551800D01*
X67295697Y-71371545D01*
X67293380Y-71364891D01*
X67238364Y-71206906D01*
X67238362Y-71206903D01*
X67236045Y-71200248D01*
X67139926Y-71046424D01*
X67127555Y-71033966D01*
X67017078Y-70922715D01*
X67017074Y-70922712D01*
X67012115Y-70917718D01*
X67000997Y-70910662D01*
X66942254Y-70873383D01*
X66858966Y-70820527D01*
X66829763Y-70810128D01*
X66694725Y-70762043D01*
X66694720Y-70762042D01*
X66688090Y-70759681D01*
X66681102Y-70758848D01*
X66681099Y-70758847D01*
X66557998Y-70744168D01*
X66507980Y-70738204D01*
X66500977Y-70738940D01*
X66500976Y-70738940D01*
X66334588Y-70756428D01*
X66334586Y-70756429D01*
X66327588Y-70757164D01*
X66155879Y-70815618D01*
X66149875Y-70819312D01*
X66007395Y-70906966D01*
X66007392Y-70906968D01*
X66001388Y-70910662D01*
X65996353Y-70915593D01*
X65996350Y-70915595D01*
X65942814Y-70968022D01*
X65880149Y-71001393D01*
X65809390Y-70995587D01*
X65753003Y-70952448D01*
X65729441Y-70892044D01*
X65718482Y-70794344D01*
X65717697Y-70787345D01*
X65708886Y-70762043D01*
X65660364Y-70622706D01*
X65660362Y-70622703D01*
X65658045Y-70616048D01*
X65607925Y-70535838D01*
X65565659Y-70468198D01*
X65561926Y-70462224D01*
X65556964Y-70457227D01*
X65439078Y-70338515D01*
X65439074Y-70338512D01*
X65434115Y-70333518D01*
X65423065Y-70326505D01*
X65374838Y-70295900D01*
X65280966Y-70236327D01*
X65251763Y-70225928D01*
X65116725Y-70177843D01*
X65116720Y-70177842D01*
X65110090Y-70175481D01*
X65103102Y-70174648D01*
X65103099Y-70174647D01*
X64979998Y-70159968D01*
X64929980Y-70154004D01*
X64922977Y-70154740D01*
X64922976Y-70154740D01*
X64756588Y-70172228D01*
X64756586Y-70172229D01*
X64749588Y-70172964D01*
X64577879Y-70231418D01*
X64571875Y-70235112D01*
X64429390Y-70322769D01*
X64429387Y-70322771D01*
X64423388Y-70326462D01*
X64416183Y-70333518D01*
X64361603Y-70386966D01*
X64298938Y-70420336D01*
X64258528Y-70422056D01*
X64147674Y-70408838D01*
X64140680Y-70408004D01*
X64133677Y-70408740D01*
X64133676Y-70408740D01*
X63967288Y-70426228D01*
X63967286Y-70426229D01*
X63960288Y-70426964D01*
X63788579Y-70485418D01*
X63743165Y-70513357D01*
X63640095Y-70576766D01*
X63640092Y-70576768D01*
X63634088Y-70580462D01*
X63629053Y-70585393D01*
X63629050Y-70585395D01*
X63511674Y-70700339D01*
X63504493Y-70707371D01*
X63406235Y-70859838D01*
X63403826Y-70866458D01*
X63403824Y-70866461D01*
X63357600Y-70993461D01*
X63344197Y-71030285D01*
X63321463Y-71210240D01*
X63339163Y-71390760D01*
X63341387Y-71397445D01*
X63347703Y-71416432D01*
X63350226Y-71487384D01*
X63313989Y-71548436D01*
X63294170Y-71563520D01*
X63246483Y-71592857D01*
X63116888Y-71719766D01*
X63018630Y-71872233D01*
X63016221Y-71878853D01*
X63016219Y-71878856D01*
X62967253Y-72013390D01*
X62956592Y-72042680D01*
X62933858Y-72222635D01*
X62951558Y-72403155D01*
X63008813Y-72575268D01*
X63012460Y-72581290D01*
X63012461Y-72581292D01*
X63035612Y-72619518D01*
X63102775Y-72730419D01*
X63107664Y-72735482D01*
X63107665Y-72735483D01*
X63125738Y-72754198D01*
X63228777Y-72860897D01*
X63301837Y-72908706D01*
X63308665Y-72913174D01*
X63354713Y-72967211D01*
X63364237Y-73037566D01*
X63334213Y-73101901D01*
X63274172Y-73139791D01*
X63224753Y-73143720D01*
X63165518Y-73136657D01*
X63151521Y-73136559D01*
X62996407Y-73152862D01*
X62982733Y-73155868D01*
X62835084Y-73206132D01*
X62833313Y-73206966D01*
X62827060Y-73213902D01*
X31711563Y-73213902D01*
X31695797Y-73073345D01*
X31693480Y-73066691D01*
X31638464Y-72908706D01*
X31638462Y-72908703D01*
X31636145Y-72902048D01*
X31540026Y-72748224D01*
X31516364Y-72724396D01*
X31417178Y-72624515D01*
X31417174Y-72624512D01*
X31412215Y-72619518D01*
X31401097Y-72612462D01*
X31317550Y-72559442D01*
X31259066Y-72522327D01*
X31218278Y-72507803D01*
X31094825Y-72463843D01*
X31094820Y-72463842D01*
X31088190Y-72461481D01*
X31081202Y-72460648D01*
X31081199Y-72460647D01*
X30932492Y-72442915D01*
X30908080Y-72440004D01*
X30901077Y-72440740D01*
X30901076Y-72440740D01*
X30734688Y-72458228D01*
X30734686Y-72458229D01*
X30727688Y-72458964D01*
X30555979Y-72517418D01*
X30549975Y-72521112D01*
X30407495Y-72608766D01*
X30407492Y-72608768D01*
X30401488Y-72612462D01*
X30396453Y-72617393D01*
X30396450Y-72617395D01*
X30276925Y-72734443D01*
X30271893Y-72739371D01*
X30173635Y-72891838D01*
X30171226Y-72898458D01*
X30171224Y-72898461D01*
X30114006Y-73055666D01*
X30111597Y-73062285D01*
X30088863Y-73242240D01*
X15748000Y-73242240D01*
X15748000Y-71667440D01*
X58216063Y-71667440D01*
X58233763Y-71847960D01*
X58291018Y-72020073D01*
X58294665Y-72026095D01*
X58294666Y-72026097D01*
X58376431Y-72161107D01*
X58384980Y-72175224D01*
X58389869Y-72180287D01*
X58389870Y-72180288D01*
X58435525Y-72227565D01*
X58510982Y-72305702D01*
X58662759Y-72405022D01*
X58669363Y-72407478D01*
X58669365Y-72407479D01*
X58826158Y-72465790D01*
X58826160Y-72465790D01*
X58832768Y-72468248D01*
X58916595Y-72479433D01*
X59005580Y-72491307D01*
X59005584Y-72491307D01*
X59012561Y-72492238D01*
X59019572Y-72491600D01*
X59019576Y-72491600D01*
X59162059Y-72478632D01*
X59193200Y-72475798D01*
X59199902Y-72473620D01*
X59199904Y-72473620D01*
X59359009Y-72421924D01*
X59359012Y-72421923D01*
X59365708Y-72419747D01*
X59484726Y-72348798D01*
X59515460Y-72330477D01*
X59515462Y-72330476D01*
X59521512Y-72326869D01*
X59652866Y-72201782D01*
X59753243Y-72050702D01*
X59810833Y-71899097D01*
X59815155Y-71887720D01*
X59815156Y-71887718D01*
X59817655Y-71881138D01*
X59819267Y-71869669D01*
X59842348Y-71705439D01*
X59842348Y-71705436D01*
X59842899Y-71701517D01*
X59843052Y-71690538D01*
X59843161Y-71682762D01*
X59843161Y-71682757D01*
X59843216Y-71678800D01*
X59822997Y-71498545D01*
X59820224Y-71490582D01*
X59766825Y-71337240D01*
X60375063Y-71337240D01*
X60392763Y-71517760D01*
X60450018Y-71689873D01*
X60453665Y-71695895D01*
X60453666Y-71695897D01*
X60504843Y-71780400D01*
X60543980Y-71845024D01*
X60548869Y-71850087D01*
X60548870Y-71850088D01*
X60571266Y-71873279D01*
X60669982Y-71975502D01*
X60675878Y-71979360D01*
X60793872Y-72056573D01*
X60821759Y-72074822D01*
X60828363Y-72077278D01*
X60828365Y-72077279D01*
X60985158Y-72135590D01*
X60985160Y-72135590D01*
X60991768Y-72138048D01*
X61073758Y-72148988D01*
X61164580Y-72161107D01*
X61164584Y-72161107D01*
X61171561Y-72162038D01*
X61178572Y-72161400D01*
X61178576Y-72161400D01*
X61321059Y-72148432D01*
X61352200Y-72145598D01*
X61358902Y-72143420D01*
X61358904Y-72143420D01*
X61518009Y-72091724D01*
X61518012Y-72091723D01*
X61524708Y-72089547D01*
X61631146Y-72026097D01*
X61674460Y-72000277D01*
X61674462Y-72000276D01*
X61680512Y-71996669D01*
X61811866Y-71871582D01*
X61912243Y-71720502D01*
X61967698Y-71574517D01*
X61974155Y-71557520D01*
X61974156Y-71557518D01*
X61976655Y-71550938D01*
X61977635Y-71543966D01*
X62001348Y-71375239D01*
X62001348Y-71375236D01*
X62001899Y-71371317D01*
X62002216Y-71348600D01*
X61981997Y-71168345D01*
X61978967Y-71159643D01*
X61924664Y-71003706D01*
X61924662Y-71003703D01*
X61922345Y-70997048D01*
X61894476Y-70952448D01*
X61829959Y-70849198D01*
X61826226Y-70843224D01*
X61803687Y-70820527D01*
X61703378Y-70719515D01*
X61703374Y-70719512D01*
X61698415Y-70714518D01*
X61690373Y-70709414D01*
X61630234Y-70671249D01*
X61545266Y-70617327D01*
X61516063Y-70606928D01*
X61381025Y-70558843D01*
X61381020Y-70558842D01*
X61374390Y-70556481D01*
X61367402Y-70555648D01*
X61367399Y-70555647D01*
X61244298Y-70540968D01*
X61194280Y-70535004D01*
X61187277Y-70535740D01*
X61187276Y-70535740D01*
X61020888Y-70553228D01*
X61020886Y-70553229D01*
X61013888Y-70553964D01*
X60842179Y-70612418D01*
X60779709Y-70650850D01*
X60693695Y-70703766D01*
X60693692Y-70703768D01*
X60687688Y-70707462D01*
X60682653Y-70712393D01*
X60682650Y-70712395D01*
X60572230Y-70820527D01*
X60558093Y-70834371D01*
X60459835Y-70986838D01*
X60457426Y-70993458D01*
X60457424Y-70993461D01*
X60400206Y-71150666D01*
X60397797Y-71157285D01*
X60375063Y-71337240D01*
X59766825Y-71337240D01*
X59765664Y-71333906D01*
X59765662Y-71333903D01*
X59763345Y-71327248D01*
X59680251Y-71194269D01*
X59670959Y-71179398D01*
X59667226Y-71173424D01*
X59662264Y-71168427D01*
X59544378Y-71049715D01*
X59544374Y-71049712D01*
X59539415Y-71044718D01*
X59528297Y-71037662D01*
X59474790Y-71003706D01*
X59386266Y-70947527D01*
X59316586Y-70922715D01*
X59222025Y-70889043D01*
X59222020Y-70889042D01*
X59215390Y-70886681D01*
X59208402Y-70885848D01*
X59208399Y-70885847D01*
X59085298Y-70871168D01*
X59035280Y-70865204D01*
X59028277Y-70865940D01*
X59028276Y-70865940D01*
X58861888Y-70883428D01*
X58861886Y-70883429D01*
X58854888Y-70884164D01*
X58683179Y-70942618D01*
X58677175Y-70946312D01*
X58534695Y-71033966D01*
X58534692Y-71033968D01*
X58528688Y-71037662D01*
X58523653Y-71042593D01*
X58523650Y-71042595D01*
X58413292Y-71150666D01*
X58399093Y-71164571D01*
X58300835Y-71317038D01*
X58298426Y-71323658D01*
X58298424Y-71323661D01*
X58276553Y-71383751D01*
X58238797Y-71487485D01*
X58216063Y-71667440D01*
X15748000Y-71667440D01*
X15748000Y-68849140D01*
X45871663Y-68849140D01*
X45889363Y-69029660D01*
X45946618Y-69201773D01*
X45950265Y-69207795D01*
X45950266Y-69207797D01*
X46009411Y-69305457D01*
X46040580Y-69356924D01*
X46166582Y-69487402D01*
X46318359Y-69586722D01*
X46324963Y-69589178D01*
X46324965Y-69589179D01*
X46481758Y-69647490D01*
X46481760Y-69647490D01*
X46488368Y-69649948D01*
X46572195Y-69661133D01*
X46661180Y-69673007D01*
X46661184Y-69673007D01*
X46668161Y-69673938D01*
X46675172Y-69673300D01*
X46675176Y-69673300D01*
X46817659Y-69660332D01*
X46848800Y-69657498D01*
X46855502Y-69655320D01*
X46855504Y-69655320D01*
X47014609Y-69603624D01*
X47014612Y-69603623D01*
X47021308Y-69601447D01*
X47117713Y-69543978D01*
X47171060Y-69512177D01*
X47171062Y-69512176D01*
X47177112Y-69508569D01*
X47308466Y-69383482D01*
X47408843Y-69232402D01*
X47460404Y-69096669D01*
X47470755Y-69069420D01*
X47470756Y-69069418D01*
X47473255Y-69062838D01*
X47476745Y-69038007D01*
X47497948Y-68887139D01*
X47497948Y-68887136D01*
X47498499Y-68883217D01*
X47498658Y-68871840D01*
X47498761Y-68864462D01*
X47498761Y-68864457D01*
X47498816Y-68860500D01*
X47478597Y-68680245D01*
X47476280Y-68673591D01*
X47421264Y-68515606D01*
X47421262Y-68515603D01*
X47418945Y-68508948D01*
X47351707Y-68401344D01*
X47326559Y-68361098D01*
X47322826Y-68355124D01*
X47305727Y-68337905D01*
X47199978Y-68231415D01*
X47199974Y-68231412D01*
X47195015Y-68226418D01*
X47187608Y-68221717D01*
X47133911Y-68187640D01*
X58087963Y-68187640D01*
X58105663Y-68368160D01*
X58162918Y-68540273D01*
X58166565Y-68546295D01*
X58166566Y-68546297D01*
X58243658Y-68673591D01*
X58256880Y-68695424D01*
X58261769Y-68700487D01*
X58261770Y-68700488D01*
X58276857Y-68716111D01*
X58382882Y-68825902D01*
X58534659Y-68925222D01*
X58541263Y-68927678D01*
X58541265Y-68927679D01*
X58698058Y-68985990D01*
X58698060Y-68985990D01*
X58704668Y-68988448D01*
X58788495Y-68999633D01*
X58877480Y-69011507D01*
X58877484Y-69011507D01*
X58884461Y-69012438D01*
X58891472Y-69011800D01*
X58891476Y-69011800D01*
X59039641Y-68998315D01*
X59065100Y-68995998D01*
X59071802Y-68993820D01*
X59071804Y-68993820D01*
X59230909Y-68942124D01*
X59230912Y-68942123D01*
X59237608Y-68939947D01*
X59340673Y-68878508D01*
X59387360Y-68850677D01*
X59387362Y-68850676D01*
X59393412Y-68847069D01*
X59524766Y-68721982D01*
X59625143Y-68570902D01*
X59676988Y-68434420D01*
X59687055Y-68407920D01*
X59687056Y-68407918D01*
X59689555Y-68401338D01*
X59691479Y-68387651D01*
X59714248Y-68225639D01*
X59714248Y-68225636D01*
X59714799Y-68221717D01*
X59715116Y-68199000D01*
X59713842Y-68187640D01*
X63091763Y-68187640D01*
X63109463Y-68368160D01*
X63166718Y-68540273D01*
X63170365Y-68546295D01*
X63170366Y-68546297D01*
X63247458Y-68673591D01*
X63260680Y-68695424D01*
X63265569Y-68700487D01*
X63265570Y-68700488D01*
X63280657Y-68716111D01*
X63386682Y-68825902D01*
X63538459Y-68925222D01*
X63545063Y-68927678D01*
X63545065Y-68927679D01*
X63701858Y-68985990D01*
X63701860Y-68985990D01*
X63708468Y-68988448D01*
X63792295Y-68999633D01*
X63881280Y-69011507D01*
X63881284Y-69011507D01*
X63888261Y-69012438D01*
X63895272Y-69011800D01*
X63895276Y-69011800D01*
X64043441Y-68998315D01*
X64068900Y-68995998D01*
X64075602Y-68993820D01*
X64075604Y-68993820D01*
X64234709Y-68942124D01*
X64234712Y-68942123D01*
X64241408Y-68939947D01*
X64344473Y-68878508D01*
X64391160Y-68850677D01*
X64391162Y-68850676D01*
X64397212Y-68847069D01*
X64528566Y-68721982D01*
X64628943Y-68570902D01*
X64680788Y-68434420D01*
X64690855Y-68407920D01*
X64690856Y-68407918D01*
X64693355Y-68401338D01*
X64695279Y-68387651D01*
X64718048Y-68225639D01*
X64718048Y-68225636D01*
X64718599Y-68221717D01*
X64718705Y-68214140D01*
X68452263Y-68214140D01*
X68469963Y-68394660D01*
X68527218Y-68566773D01*
X68530865Y-68572795D01*
X68530866Y-68572797D01*
X68601484Y-68689401D01*
X68621180Y-68721924D01*
X68747182Y-68852402D01*
X68779529Y-68873569D01*
X68884292Y-68942124D01*
X68898959Y-68951722D01*
X68905563Y-68954178D01*
X68905565Y-68954179D01*
X69062358Y-69012490D01*
X69062360Y-69012490D01*
X69068968Y-69014948D01*
X69152795Y-69026133D01*
X69241780Y-69038007D01*
X69241784Y-69038007D01*
X69248761Y-69038938D01*
X69255772Y-69038300D01*
X69255776Y-69038300D01*
X69398259Y-69025332D01*
X69429400Y-69022498D01*
X69436102Y-69020320D01*
X69436104Y-69020320D01*
X69595209Y-68968624D01*
X69595212Y-68968623D01*
X69601908Y-68966447D01*
X69734948Y-68887139D01*
X69751660Y-68877177D01*
X69751662Y-68877176D01*
X69757712Y-68873569D01*
X69860910Y-68775295D01*
X89188251Y-68775295D01*
X89188548Y-68780448D01*
X89188548Y-68780451D01*
X89199398Y-68968624D01*
X89201110Y-68998315D01*
X89202247Y-69003361D01*
X89202248Y-69003367D01*
X89206069Y-69020320D01*
X89250222Y-69216239D01*
X89334266Y-69423216D01*
X89373599Y-69487402D01*
X89443486Y-69601447D01*
X89450987Y-69613688D01*
X89597250Y-69782538D01*
X89769126Y-69925232D01*
X89842955Y-69968374D01*
X89891679Y-70020012D01*
X89904750Y-70089795D01*
X89878019Y-70155567D01*
X89837562Y-70188927D01*
X89829457Y-70193146D01*
X89820738Y-70198636D01*
X89650433Y-70326505D01*
X89642726Y-70333348D01*
X89495590Y-70487317D01*
X89489104Y-70495327D01*
X89369098Y-70671249D01*
X89364000Y-70680223D01*
X89274338Y-70873383D01*
X89270775Y-70883070D01*
X89215389Y-71082783D01*
X89216912Y-71091207D01*
X89229292Y-71094600D01*
X91869344Y-71094600D01*
X91882875Y-71090627D01*
X91884180Y-71081547D01*
X91842214Y-70914475D01*
X91838894Y-70904724D01*
X91753972Y-70709414D01*
X91749105Y-70700339D01*
X91633426Y-70521526D01*
X91627136Y-70513357D01*
X91483806Y-70355840D01*
X91476273Y-70348815D01*
X91309139Y-70216822D01*
X91300556Y-70211120D01*
X91263602Y-70190720D01*
X91213631Y-70140287D01*
X91198859Y-70070845D01*
X91223975Y-70004439D01*
X91251327Y-69977832D01*
X91274797Y-69961091D01*
X91430860Y-69849773D01*
X91589096Y-69692089D01*
X91621144Y-69647490D01*
X91716435Y-69514877D01*
X91719453Y-69510677D01*
X91729050Y-69491260D01*
X91816136Y-69315053D01*
X91816137Y-69315051D01*
X91818430Y-69310411D01*
X91883370Y-69096669D01*
X91912529Y-68875190D01*
X91913128Y-68850677D01*
X91914074Y-68811965D01*
X91914074Y-68811961D01*
X91914156Y-68808600D01*
X91895852Y-68585961D01*
X91841431Y-68369302D01*
X91752354Y-68164440D01*
X91663806Y-68027566D01*
X91633822Y-67981217D01*
X91633820Y-67981214D01*
X91631014Y-67976877D01*
X91480670Y-67811651D01*
X91476619Y-67808452D01*
X91476615Y-67808448D01*
X91309414Y-67676400D01*
X91309410Y-67676398D01*
X91305359Y-67673198D01*
X91263569Y-67650129D01*
X91213598Y-67599697D01*
X91198826Y-67530254D01*
X91223942Y-67463848D01*
X91251294Y-67437241D01*
X91426328Y-67312392D01*
X91434200Y-67305739D01*
X91585052Y-67155412D01*
X91591730Y-67147565D01*
X91716003Y-66974620D01*
X91721313Y-66965783D01*
X91815670Y-66774867D01*
X91819469Y-66765272D01*
X91881377Y-66561510D01*
X91883555Y-66551437D01*
X91884986Y-66540562D01*
X91882775Y-66526378D01*
X91869617Y-66522600D01*
X89234225Y-66522600D01*
X89220694Y-66526573D01*
X89219257Y-66536566D01*
X89249565Y-66671046D01*
X89252645Y-66680875D01*
X89332770Y-66878203D01*
X89337413Y-66887394D01*
X89448694Y-67068988D01*
X89454777Y-67077299D01*
X89594213Y-67238267D01*
X89601580Y-67245483D01*
X89765434Y-67381516D01*
X89773881Y-67387431D01*
X89842969Y-67427803D01*
X89891693Y-67479442D01*
X89904764Y-67549225D01*
X89878033Y-67614996D01*
X89837584Y-67648352D01*
X89824607Y-67655107D01*
X89820474Y-67658210D01*
X89820471Y-67658212D01*
X89650100Y-67786130D01*
X89645965Y-67789235D01*
X89491629Y-67950738D01*
X89488715Y-67955010D01*
X89488714Y-67955011D01*
X89452782Y-68007685D01*
X89365743Y-68135280D01*
X89271688Y-68337905D01*
X89211989Y-68553170D01*
X89188251Y-68775295D01*
X69860910Y-68775295D01*
X69889066Y-68748482D01*
X69989443Y-68597402D01*
X70053855Y-68427838D01*
X70056654Y-68407920D01*
X70078548Y-68252139D01*
X70078548Y-68252136D01*
X70079099Y-68248217D01*
X70079252Y-68237238D01*
X70079361Y-68229462D01*
X70079361Y-68229457D01*
X70079416Y-68225500D01*
X70059197Y-68045245D01*
X70056880Y-68038591D01*
X70001864Y-67880606D01*
X70001862Y-67880603D01*
X69999545Y-67873948D01*
X69989462Y-67857812D01*
X69907159Y-67726098D01*
X69903426Y-67720124D01*
X69883043Y-67699598D01*
X69780578Y-67596415D01*
X69780574Y-67596412D01*
X69775615Y-67591418D01*
X69764497Y-67584362D01*
X69694402Y-67539879D01*
X69622466Y-67494227D01*
X69558658Y-67471506D01*
X69458225Y-67435743D01*
X69458220Y-67435742D01*
X69451590Y-67433381D01*
X69444602Y-67432548D01*
X69444599Y-67432547D01*
X69321498Y-67417868D01*
X69271480Y-67411904D01*
X69264477Y-67412640D01*
X69264476Y-67412640D01*
X69098088Y-67430128D01*
X69098086Y-67430129D01*
X69091088Y-67430864D01*
X68919379Y-67489318D01*
X68913375Y-67493012D01*
X68770895Y-67580666D01*
X68770892Y-67580668D01*
X68764888Y-67584362D01*
X68759853Y-67589293D01*
X68759850Y-67589295D01*
X68653313Y-67693624D01*
X68635293Y-67711271D01*
X68537035Y-67863738D01*
X68534626Y-67870358D01*
X68534624Y-67870361D01*
X68482098Y-68014675D01*
X68474997Y-68034185D01*
X68452263Y-68214140D01*
X64718705Y-68214140D01*
X64718916Y-68199000D01*
X64698697Y-68018745D01*
X64696380Y-68012091D01*
X64641364Y-67854106D01*
X64641362Y-67854103D01*
X64639045Y-67847448D01*
X64557653Y-67717193D01*
X64546659Y-67699598D01*
X64542926Y-67693624D01*
X64522642Y-67673198D01*
X64420078Y-67569915D01*
X64420074Y-67569912D01*
X64415115Y-67564918D01*
X64403997Y-67557862D01*
X64303723Y-67494227D01*
X64261966Y-67467727D01*
X64216378Y-67451494D01*
X64097725Y-67409243D01*
X64097720Y-67409242D01*
X64091090Y-67406881D01*
X64084102Y-67406048D01*
X64084099Y-67406047D01*
X63960998Y-67391368D01*
X63910980Y-67385404D01*
X63903977Y-67386140D01*
X63903976Y-67386140D01*
X63737588Y-67403628D01*
X63737586Y-67403629D01*
X63730588Y-67404364D01*
X63558879Y-67462818D01*
X63526797Y-67482555D01*
X63410395Y-67554166D01*
X63410392Y-67554168D01*
X63404388Y-67557862D01*
X63399353Y-67562793D01*
X63399350Y-67562795D01*
X63286611Y-67673198D01*
X63274793Y-67684771D01*
X63176535Y-67837238D01*
X63174126Y-67843858D01*
X63174124Y-67843861D01*
X63116906Y-68001066D01*
X63114497Y-68007685D01*
X63091763Y-68187640D01*
X59713842Y-68187640D01*
X59694897Y-68018745D01*
X59692580Y-68012091D01*
X59637564Y-67854106D01*
X59637562Y-67854103D01*
X59635245Y-67847448D01*
X59553853Y-67717193D01*
X59542859Y-67699598D01*
X59539126Y-67693624D01*
X59518842Y-67673198D01*
X59416278Y-67569915D01*
X59416274Y-67569912D01*
X59411315Y-67564918D01*
X59400197Y-67557862D01*
X59299923Y-67494227D01*
X59258166Y-67467727D01*
X59212578Y-67451494D01*
X59093925Y-67409243D01*
X59093920Y-67409242D01*
X59087290Y-67406881D01*
X59080302Y-67406048D01*
X59080299Y-67406047D01*
X58957198Y-67391368D01*
X58907180Y-67385404D01*
X58900177Y-67386140D01*
X58900176Y-67386140D01*
X58733788Y-67403628D01*
X58733786Y-67403629D01*
X58726788Y-67404364D01*
X58555079Y-67462818D01*
X58522997Y-67482555D01*
X58406595Y-67554166D01*
X58406592Y-67554168D01*
X58400588Y-67557862D01*
X58395553Y-67562793D01*
X58395550Y-67562795D01*
X58282811Y-67673198D01*
X58270993Y-67684771D01*
X58172735Y-67837238D01*
X58170326Y-67843858D01*
X58170324Y-67843861D01*
X58113106Y-68001066D01*
X58110697Y-68007685D01*
X58087963Y-68187640D01*
X47133911Y-68187640D01*
X47097353Y-68164440D01*
X47041866Y-68129227D01*
X47012663Y-68118828D01*
X46877625Y-68070743D01*
X46877620Y-68070742D01*
X46870990Y-68068381D01*
X46864002Y-68067548D01*
X46863999Y-68067547D01*
X46735662Y-68052244D01*
X46690880Y-68046904D01*
X46683877Y-68047640D01*
X46683876Y-68047640D01*
X46517488Y-68065128D01*
X46517486Y-68065129D01*
X46510488Y-68065864D01*
X46338779Y-68124318D01*
X46332775Y-68128012D01*
X46190295Y-68215666D01*
X46190292Y-68215668D01*
X46184288Y-68219362D01*
X46179253Y-68224293D01*
X46179250Y-68224295D01*
X46158866Y-68244257D01*
X46054693Y-68346271D01*
X45956435Y-68498738D01*
X45954026Y-68505358D01*
X45954024Y-68505361D01*
X45928032Y-68576773D01*
X45894397Y-68669185D01*
X45871663Y-68849140D01*
X15748000Y-68849140D01*
X15748000Y-66155640D01*
X39293063Y-66155640D01*
X39310763Y-66336160D01*
X39368018Y-66508273D01*
X39371665Y-66514295D01*
X39371666Y-66514297D01*
X39387573Y-66540562D01*
X39461980Y-66663424D01*
X39466869Y-66668487D01*
X39466870Y-66668488D01*
X39471270Y-66673044D01*
X39587982Y-66793902D01*
X39612905Y-66810211D01*
X39716808Y-66878203D01*
X39739759Y-66893222D01*
X39746363Y-66895678D01*
X39746365Y-66895679D01*
X39903158Y-66953990D01*
X39903160Y-66953990D01*
X39909768Y-66956448D01*
X39993595Y-66967633D01*
X40082580Y-66979507D01*
X40082584Y-66979507D01*
X40089561Y-66980438D01*
X40096572Y-66979800D01*
X40096576Y-66979800D01*
X40239059Y-66966832D01*
X40270200Y-66963998D01*
X40276902Y-66961820D01*
X40276904Y-66961820D01*
X40436009Y-66910124D01*
X40436012Y-66910123D01*
X40442708Y-66907947D01*
X40549146Y-66844497D01*
X40592460Y-66818677D01*
X40592462Y-66818676D01*
X40598512Y-66815069D01*
X40729866Y-66689982D01*
X40830243Y-66538902D01*
X40850400Y-66485840D01*
X53160363Y-66485840D01*
X53178063Y-66666360D01*
X53235318Y-66838473D01*
X53238965Y-66844495D01*
X53238966Y-66844497D01*
X53320731Y-66979507D01*
X53329280Y-66993624D01*
X53455282Y-67124102D01*
X53503129Y-67155412D01*
X53545444Y-67183102D01*
X53607059Y-67223422D01*
X53613663Y-67225878D01*
X53613665Y-67225879D01*
X53770458Y-67284190D01*
X53770460Y-67284190D01*
X53777068Y-67286648D01*
X53860895Y-67297833D01*
X53949880Y-67309707D01*
X53949884Y-67309707D01*
X53956861Y-67310638D01*
X53963872Y-67310000D01*
X53963876Y-67310000D01*
X54106359Y-67297032D01*
X54137500Y-67294198D01*
X54144202Y-67292020D01*
X54144204Y-67292020D01*
X54303309Y-67240324D01*
X54303312Y-67240323D01*
X54310008Y-67238147D01*
X54448797Y-67155412D01*
X54459760Y-67148877D01*
X54459762Y-67148876D01*
X54465812Y-67145269D01*
X54597166Y-67020182D01*
X54697543Y-66869102D01*
X54723853Y-66799840D01*
X85074263Y-66799840D01*
X85091963Y-66980360D01*
X85149218Y-67152473D01*
X85152865Y-67158495D01*
X85152866Y-67158497D01*
X85230477Y-67286648D01*
X85243180Y-67307624D01*
X85369182Y-67438102D01*
X85520959Y-67537422D01*
X85527563Y-67539878D01*
X85527565Y-67539879D01*
X85684358Y-67598190D01*
X85684360Y-67598190D01*
X85690968Y-67600648D01*
X85774795Y-67611833D01*
X85863780Y-67623707D01*
X85863784Y-67623707D01*
X85870761Y-67624638D01*
X85877772Y-67624000D01*
X85877776Y-67624000D01*
X86020259Y-67611032D01*
X86051400Y-67608198D01*
X86058102Y-67606020D01*
X86058104Y-67606020D01*
X86217209Y-67554324D01*
X86217212Y-67554323D01*
X86223908Y-67552147D01*
X86327038Y-67490669D01*
X86373660Y-67462877D01*
X86373662Y-67462876D01*
X86379712Y-67459269D01*
X86511066Y-67334182D01*
X86611443Y-67183102D01*
X86654791Y-67068988D01*
X86673355Y-67020120D01*
X86673356Y-67020118D01*
X86675855Y-67013538D01*
X86679500Y-66987601D01*
X86700548Y-66837839D01*
X86700548Y-66837836D01*
X86701099Y-66833917D01*
X86701416Y-66811200D01*
X86681197Y-66630945D01*
X86678880Y-66624291D01*
X86623864Y-66466306D01*
X86623862Y-66466303D01*
X86621545Y-66459648D01*
X86560757Y-66362366D01*
X86529159Y-66311798D01*
X86525426Y-66305824D01*
X86511741Y-66292043D01*
X86402578Y-66182115D01*
X86402574Y-66182112D01*
X86397615Y-66177118D01*
X86386497Y-66170062D01*
X86322600Y-66129512D01*
X86244466Y-66079927D01*
X86215263Y-66069528D01*
X86080225Y-66021443D01*
X86080220Y-66021442D01*
X86073590Y-66019081D01*
X86066602Y-66018248D01*
X86066599Y-66018247D01*
X85936912Y-66002783D01*
X85893480Y-65997604D01*
X85886477Y-65998340D01*
X85886476Y-65998340D01*
X85720088Y-66015828D01*
X85720086Y-66015829D01*
X85713088Y-66016564D01*
X85541379Y-66075018D01*
X85535375Y-66078712D01*
X85392895Y-66166366D01*
X85392892Y-66166368D01*
X85386888Y-66170062D01*
X85381853Y-66174993D01*
X85381850Y-66174995D01*
X85262325Y-66292043D01*
X85257293Y-66296971D01*
X85159035Y-66449438D01*
X85156626Y-66456058D01*
X85156624Y-66456061D01*
X85121910Y-66551437D01*
X85096997Y-66619885D01*
X85074263Y-66799840D01*
X54723853Y-66799840D01*
X54761955Y-66699538D01*
X54764578Y-66680875D01*
X54786648Y-66523839D01*
X54786648Y-66523836D01*
X54787199Y-66519917D01*
X54787352Y-66508938D01*
X54787461Y-66501162D01*
X54787461Y-66501157D01*
X54787516Y-66497200D01*
X54767297Y-66316945D01*
X54764980Y-66310291D01*
X54709964Y-66152306D01*
X54709962Y-66152303D01*
X54707645Y-66145648D01*
X54611526Y-65991824D01*
X54606564Y-65986827D01*
X54488678Y-65868115D01*
X54488674Y-65868112D01*
X54483715Y-65863118D01*
X54472597Y-65856062D01*
X54408599Y-65815448D01*
X54330566Y-65765927D01*
X54301363Y-65755528D01*
X54166325Y-65707443D01*
X54166320Y-65707442D01*
X54159690Y-65705081D01*
X54152702Y-65704248D01*
X54152699Y-65704247D01*
X54029598Y-65689568D01*
X53979580Y-65683604D01*
X53972577Y-65684340D01*
X53972576Y-65684340D01*
X53806188Y-65701828D01*
X53806186Y-65701829D01*
X53799188Y-65702564D01*
X53627479Y-65761018D01*
X53621475Y-65764712D01*
X53478995Y-65852366D01*
X53478992Y-65852368D01*
X53472988Y-65856062D01*
X53467953Y-65860993D01*
X53467950Y-65860995D01*
X53357592Y-65969066D01*
X53343393Y-65982971D01*
X53245135Y-66135438D01*
X53242726Y-66142058D01*
X53242724Y-66142061D01*
X53228146Y-66182115D01*
X53183097Y-66305885D01*
X53160363Y-66485840D01*
X40850400Y-66485840D01*
X40894655Y-66369338D01*
X40895635Y-66362366D01*
X40919348Y-66193639D01*
X40919348Y-66193636D01*
X40919899Y-66189717D01*
X40920075Y-66177118D01*
X40920161Y-66170962D01*
X40920161Y-66170957D01*
X40920216Y-66167000D01*
X40899997Y-65986745D01*
X40896967Y-65978043D01*
X40842664Y-65822106D01*
X40842662Y-65822103D01*
X40840345Y-65815448D01*
X40826557Y-65793383D01*
X40747959Y-65667598D01*
X40744226Y-65661624D01*
X40683252Y-65600223D01*
X40621378Y-65537915D01*
X40621374Y-65537912D01*
X40616415Y-65532918D01*
X40605297Y-65525862D01*
X40557138Y-65495300D01*
X40463266Y-65435727D01*
X40405976Y-65415327D01*
X40299025Y-65377243D01*
X40299020Y-65377242D01*
X40292390Y-65374881D01*
X40285402Y-65374048D01*
X40285399Y-65374047D01*
X40162298Y-65359368D01*
X40112280Y-65353404D01*
X40105277Y-65354140D01*
X40105276Y-65354140D01*
X39938888Y-65371628D01*
X39938886Y-65371629D01*
X39931888Y-65372364D01*
X39760179Y-65430818D01*
X39697709Y-65469250D01*
X39611695Y-65522166D01*
X39611692Y-65522168D01*
X39605688Y-65525862D01*
X39600653Y-65530793D01*
X39600650Y-65530795D01*
X39538917Y-65591249D01*
X39476093Y-65652771D01*
X39377835Y-65805238D01*
X39375426Y-65811858D01*
X39375424Y-65811861D01*
X39318206Y-65969066D01*
X39315797Y-65975685D01*
X39293063Y-66155640D01*
X15748000Y-66155640D01*
X15748000Y-64580840D01*
X43712663Y-64580840D01*
X43730363Y-64761360D01*
X43787618Y-64933473D01*
X43791265Y-64939495D01*
X43791266Y-64939497D01*
X43877702Y-65082220D01*
X43881580Y-65088624D01*
X43886469Y-65093687D01*
X43886470Y-65093688D01*
X43963321Y-65173268D01*
X44007582Y-65219102D01*
X44159359Y-65318422D01*
X44165963Y-65320878D01*
X44165965Y-65320879D01*
X44322758Y-65379190D01*
X44322760Y-65379190D01*
X44329368Y-65381648D01*
X44413195Y-65392833D01*
X44502180Y-65404707D01*
X44502184Y-65404707D01*
X44509161Y-65405638D01*
X44516172Y-65405000D01*
X44516176Y-65405000D01*
X44658659Y-65392032D01*
X44689800Y-65389198D01*
X44696502Y-65387020D01*
X44696504Y-65387020D01*
X44855609Y-65335324D01*
X44855612Y-65335323D01*
X44862308Y-65333147D01*
X45018112Y-65240269D01*
X45149466Y-65115182D01*
X45249843Y-64964102D01*
X45291623Y-64854117D01*
X45311755Y-64801120D01*
X45311756Y-64801118D01*
X45314255Y-64794538D01*
X45317314Y-64772771D01*
X45338948Y-64618839D01*
X45338948Y-64618836D01*
X45339499Y-64614917D01*
X45339816Y-64592200D01*
X45319597Y-64411945D01*
X45317280Y-64405291D01*
X45272270Y-64276040D01*
X65606363Y-64276040D01*
X65624063Y-64456560D01*
X65681318Y-64628673D01*
X65684965Y-64634695D01*
X65684966Y-64634697D01*
X65764564Y-64766129D01*
X65775280Y-64783824D01*
X65780169Y-64788887D01*
X65780170Y-64788888D01*
X65793679Y-64802877D01*
X65901282Y-64914302D01*
X65933629Y-64935469D01*
X66028841Y-64997774D01*
X66053059Y-65013622D01*
X66059663Y-65016078D01*
X66059665Y-65016079D01*
X66216458Y-65074390D01*
X66216460Y-65074390D01*
X66223068Y-65076848D01*
X66306895Y-65088033D01*
X66395880Y-65099907D01*
X66395884Y-65099907D01*
X66402861Y-65100838D01*
X66409872Y-65100200D01*
X66409876Y-65100200D01*
X66552359Y-65087232D01*
X66583500Y-65084398D01*
X66590202Y-65082220D01*
X66590204Y-65082220D01*
X66749309Y-65030524D01*
X66749312Y-65030523D01*
X66756008Y-65028347D01*
X66863951Y-64964000D01*
X66905760Y-64939077D01*
X66905762Y-64939076D01*
X66911812Y-64935469D01*
X67043166Y-64810382D01*
X67143543Y-64659302D01*
X67207955Y-64489738D01*
X67208935Y-64482766D01*
X67232648Y-64314039D01*
X67232648Y-64314036D01*
X67233199Y-64310117D01*
X67233516Y-64287400D01*
X67216964Y-64139840D01*
X86374263Y-64139840D01*
X86391963Y-64320360D01*
X86449218Y-64492473D01*
X86452865Y-64498495D01*
X86452866Y-64498497D01*
X86527656Y-64621990D01*
X86543180Y-64647624D01*
X86669182Y-64778102D01*
X86820959Y-64877422D01*
X86827563Y-64879878D01*
X86827565Y-64879879D01*
X86984358Y-64938190D01*
X86984360Y-64938190D01*
X86990968Y-64940648D01*
X87074795Y-64951833D01*
X87163780Y-64963707D01*
X87163784Y-64963707D01*
X87170761Y-64964638D01*
X87177772Y-64964000D01*
X87177776Y-64964000D01*
X87320259Y-64951032D01*
X87351400Y-64948198D01*
X87358102Y-64946020D01*
X87358104Y-64946020D01*
X87517209Y-64894324D01*
X87517212Y-64894323D01*
X87523908Y-64892147D01*
X87661070Y-64810382D01*
X87673660Y-64802877D01*
X87673662Y-64802876D01*
X87679712Y-64799269D01*
X87811066Y-64674182D01*
X87911443Y-64523102D01*
X87975855Y-64353538D01*
X87977306Y-64343216D01*
X88000548Y-64177839D01*
X88000548Y-64177836D01*
X88001099Y-64173917D01*
X88001416Y-64151200D01*
X87981197Y-63970945D01*
X87978470Y-63963115D01*
X87923864Y-63806306D01*
X87923862Y-63806303D01*
X87921545Y-63799648D01*
X87907410Y-63777027D01*
X87856339Y-63695295D01*
X89188251Y-63695295D01*
X89188548Y-63700448D01*
X89188548Y-63700451D01*
X89194293Y-63800081D01*
X89201110Y-63918315D01*
X89202247Y-63923361D01*
X89202248Y-63923367D01*
X89212971Y-63970945D01*
X89250222Y-64136239D01*
X89288461Y-64230411D01*
X89322419Y-64314039D01*
X89334266Y-64343216D01*
X89373889Y-64407875D01*
X89448098Y-64528973D01*
X89450987Y-64533688D01*
X89597250Y-64702538D01*
X89769126Y-64845232D01*
X89842955Y-64888374D01*
X89891679Y-64940012D01*
X89904750Y-65009795D01*
X89878019Y-65075567D01*
X89837562Y-65108927D01*
X89829457Y-65113146D01*
X89820738Y-65118636D01*
X89650433Y-65246505D01*
X89642726Y-65253348D01*
X89495590Y-65407317D01*
X89489104Y-65415327D01*
X89369098Y-65591249D01*
X89364000Y-65600223D01*
X89274338Y-65793383D01*
X89270775Y-65803070D01*
X89215389Y-66002783D01*
X89216912Y-66011207D01*
X89229292Y-66014600D01*
X91869344Y-66014600D01*
X91882875Y-66010627D01*
X91884180Y-66001547D01*
X91842214Y-65834475D01*
X91838894Y-65824724D01*
X91753972Y-65629414D01*
X91749105Y-65620339D01*
X91633426Y-65441526D01*
X91627136Y-65433357D01*
X91483806Y-65275840D01*
X91476273Y-65268815D01*
X91309139Y-65136822D01*
X91300556Y-65131120D01*
X91263602Y-65110720D01*
X91213631Y-65060287D01*
X91198859Y-64990845D01*
X91223975Y-64924439D01*
X91251327Y-64897832D01*
X91279941Y-64877422D01*
X91430860Y-64769773D01*
X91439303Y-64761360D01*
X91548355Y-64652688D01*
X91589096Y-64612089D01*
X91648594Y-64529289D01*
X91716435Y-64434877D01*
X91719453Y-64430677D01*
X91730723Y-64407875D01*
X91816136Y-64235053D01*
X91816137Y-64235051D01*
X91818430Y-64230411D01*
X91857903Y-64100491D01*
X91881865Y-64021623D01*
X91881865Y-64021621D01*
X91883370Y-64016669D01*
X91912529Y-63795190D01*
X91913067Y-63773171D01*
X91914074Y-63731965D01*
X91914074Y-63731961D01*
X91914156Y-63728600D01*
X91895852Y-63505961D01*
X91841431Y-63289302D01*
X91752354Y-63084440D01*
X91631014Y-62896877D01*
X91627532Y-62893050D01*
X91483798Y-62735088D01*
X91452746Y-62671242D01*
X91461141Y-62600743D01*
X91506317Y-62545975D01*
X91532761Y-62532306D01*
X91639297Y-62492367D01*
X91647705Y-62489215D01*
X91764261Y-62401861D01*
X91851615Y-62285305D01*
X91902745Y-62148916D01*
X91909500Y-62086734D01*
X91909500Y-60290466D01*
X91902745Y-60228284D01*
X91851615Y-60091895D01*
X91764261Y-59975339D01*
X91647705Y-59887985D01*
X91511316Y-59836855D01*
X91449134Y-59830100D01*
X89652866Y-59830100D01*
X89590684Y-59836855D01*
X89454295Y-59887985D01*
X89337739Y-59975339D01*
X89250385Y-60091895D01*
X89199255Y-60228284D01*
X89192500Y-60290466D01*
X89192500Y-62086734D01*
X89199255Y-62148916D01*
X89250385Y-62285305D01*
X89337739Y-62401861D01*
X89454295Y-62489215D01*
X89462704Y-62492367D01*
X89462705Y-62492368D01*
X89571451Y-62533135D01*
X89628216Y-62575776D01*
X89652916Y-62642338D01*
X89637709Y-62711687D01*
X89618316Y-62738168D01*
X89491629Y-62870738D01*
X89365743Y-63055280D01*
X89271688Y-63257905D01*
X89211989Y-63473170D01*
X89188251Y-63695295D01*
X87856339Y-63695295D01*
X87829159Y-63651798D01*
X87825426Y-63645824D01*
X87811741Y-63632043D01*
X87702578Y-63522115D01*
X87702574Y-63522112D01*
X87697615Y-63517118D01*
X87686497Y-63510062D01*
X87620513Y-63468188D01*
X87544466Y-63419927D01*
X87515263Y-63409528D01*
X87380225Y-63361443D01*
X87380220Y-63361442D01*
X87373590Y-63359081D01*
X87366602Y-63358248D01*
X87366599Y-63358247D01*
X87243498Y-63343568D01*
X87193480Y-63337604D01*
X87186477Y-63338340D01*
X87186476Y-63338340D01*
X87020088Y-63355828D01*
X87020086Y-63355829D01*
X87013088Y-63356564D01*
X86841379Y-63415018D01*
X86835375Y-63418712D01*
X86692895Y-63506366D01*
X86692892Y-63506368D01*
X86686888Y-63510062D01*
X86681853Y-63514993D01*
X86681850Y-63514995D01*
X86639848Y-63556127D01*
X86557293Y-63636971D01*
X86459035Y-63789438D01*
X86456626Y-63796058D01*
X86456624Y-63796061D01*
X86400208Y-63951062D01*
X86396997Y-63959885D01*
X86374263Y-64139840D01*
X67216964Y-64139840D01*
X67213297Y-64107145D01*
X67210980Y-64100491D01*
X67155964Y-63942506D01*
X67155962Y-63942503D01*
X67153645Y-63935848D01*
X67067236Y-63797564D01*
X67061259Y-63787998D01*
X67057526Y-63782024D01*
X67043841Y-63768243D01*
X66934678Y-63658315D01*
X66934674Y-63658312D01*
X66929715Y-63653318D01*
X66918597Y-63646262D01*
X66870438Y-63615700D01*
X66776566Y-63556127D01*
X66747363Y-63545728D01*
X66612325Y-63497643D01*
X66612320Y-63497642D01*
X66605690Y-63495281D01*
X66598702Y-63494448D01*
X66598699Y-63494447D01*
X66463343Y-63478307D01*
X66425580Y-63473804D01*
X66418577Y-63474540D01*
X66418576Y-63474540D01*
X66252188Y-63492028D01*
X66252186Y-63492029D01*
X66245188Y-63492764D01*
X66073479Y-63551218D01*
X66067475Y-63554912D01*
X65924995Y-63642566D01*
X65924992Y-63642568D01*
X65918988Y-63646262D01*
X65913953Y-63651193D01*
X65913950Y-63651195D01*
X65868917Y-63695295D01*
X65789393Y-63773171D01*
X65691135Y-63925638D01*
X65688726Y-63932258D01*
X65688724Y-63932261D01*
X65632468Y-64086824D01*
X65629097Y-64096085D01*
X65606363Y-64276040D01*
X45272270Y-64276040D01*
X45262264Y-64247306D01*
X45262262Y-64247303D01*
X45259945Y-64240648D01*
X45204052Y-64151200D01*
X45167559Y-64092798D01*
X45163826Y-64086824D01*
X45150141Y-64073043D01*
X45040978Y-63963115D01*
X45040974Y-63963112D01*
X45036015Y-63958118D01*
X45028370Y-63953266D01*
X44965152Y-63913147D01*
X44882866Y-63860927D01*
X44853663Y-63850528D01*
X44718625Y-63802443D01*
X44718620Y-63802442D01*
X44711990Y-63800081D01*
X44705002Y-63799248D01*
X44704999Y-63799247D01*
X44573039Y-63783512D01*
X44531880Y-63778604D01*
X44524877Y-63779340D01*
X44524876Y-63779340D01*
X44358488Y-63796828D01*
X44358486Y-63796829D01*
X44351488Y-63797564D01*
X44179779Y-63856018D01*
X44173775Y-63859712D01*
X44031295Y-63947366D01*
X44031292Y-63947368D01*
X44025288Y-63951062D01*
X44020253Y-63955993D01*
X44020250Y-63955995D01*
X43900725Y-64073043D01*
X43895693Y-64077971D01*
X43797435Y-64230438D01*
X43795026Y-64237058D01*
X43795024Y-64237061D01*
X43754784Y-64347620D01*
X43735397Y-64400885D01*
X43712663Y-64580840D01*
X15748000Y-64580840D01*
X15748000Y-61304240D01*
X48107963Y-61304240D01*
X48125663Y-61484760D01*
X48182918Y-61656873D01*
X48186565Y-61662895D01*
X48186566Y-61662897D01*
X48197478Y-61680914D01*
X48276880Y-61812024D01*
X48402882Y-61942502D01*
X48554659Y-62041822D01*
X48561263Y-62044278D01*
X48561265Y-62044279D01*
X48718058Y-62102590D01*
X48718060Y-62102590D01*
X48724668Y-62105048D01*
X48808495Y-62116233D01*
X48897480Y-62128107D01*
X48897484Y-62128107D01*
X48904461Y-62129038D01*
X48911472Y-62128400D01*
X48911476Y-62128400D01*
X49053959Y-62115432D01*
X49085100Y-62112598D01*
X49091802Y-62110420D01*
X49091804Y-62110420D01*
X49250909Y-62058724D01*
X49250912Y-62058723D01*
X49257608Y-62056547D01*
X49413412Y-61963669D01*
X49544766Y-61838582D01*
X49645143Y-61687502D01*
X49709555Y-61517938D01*
X49711248Y-61505890D01*
X49734248Y-61342239D01*
X49734248Y-61342236D01*
X49734799Y-61338317D01*
X49735116Y-61315600D01*
X49714897Y-61135345D01*
X49712580Y-61128691D01*
X49657564Y-60970706D01*
X49657562Y-60970703D01*
X49655245Y-60964048D01*
X49584169Y-60850302D01*
X49562859Y-60816198D01*
X49559126Y-60810224D01*
X49554164Y-60805227D01*
X49436278Y-60686515D01*
X49436274Y-60686512D01*
X49431315Y-60681518D01*
X49420197Y-60674462D01*
X49304711Y-60601173D01*
X49278166Y-60584327D01*
X49179723Y-60549273D01*
X49113925Y-60525843D01*
X49113920Y-60525842D01*
X49107290Y-60523481D01*
X49100302Y-60522648D01*
X49100299Y-60522647D01*
X48961446Y-60506090D01*
X48927180Y-60502004D01*
X48920177Y-60502740D01*
X48920176Y-60502740D01*
X48753788Y-60520228D01*
X48753786Y-60520229D01*
X48746788Y-60520964D01*
X48575079Y-60579418D01*
X48539717Y-60601173D01*
X48426595Y-60670766D01*
X48426592Y-60670768D01*
X48420588Y-60674462D01*
X48415553Y-60679393D01*
X48415550Y-60679395D01*
X48342184Y-60751241D01*
X48290993Y-60801371D01*
X48192735Y-60953838D01*
X48190326Y-60960458D01*
X48190324Y-60960461D01*
X48162525Y-61036838D01*
X48130697Y-61124285D01*
X48107963Y-61304240D01*
X15748000Y-61304240D01*
X15748000Y-60212040D01*
X40359863Y-60212040D01*
X40377563Y-60392560D01*
X40434818Y-60564673D01*
X40438465Y-60570695D01*
X40438466Y-60570697D01*
X40508608Y-60686515D01*
X40528780Y-60719824D01*
X40654782Y-60850302D01*
X40660678Y-60854160D01*
X40744238Y-60908840D01*
X40806559Y-60949622D01*
X40813163Y-60952078D01*
X40813165Y-60952079D01*
X40969958Y-61010390D01*
X40969960Y-61010390D01*
X40976568Y-61012848D01*
X41060395Y-61024033D01*
X41149380Y-61035907D01*
X41149384Y-61035907D01*
X41156361Y-61036838D01*
X41163372Y-61036200D01*
X41163376Y-61036200D01*
X41305859Y-61023232D01*
X41337000Y-61020398D01*
X41343702Y-61018220D01*
X41343704Y-61018220D01*
X41502809Y-60966524D01*
X41502812Y-60966523D01*
X41509508Y-60964347D01*
X41665312Y-60871469D01*
X41796666Y-60746382D01*
X41897043Y-60595302D01*
X41961455Y-60425738D01*
X41962435Y-60418766D01*
X41986148Y-60250039D01*
X41986148Y-60250036D01*
X41986699Y-60246117D01*
X41987016Y-60223400D01*
X41979920Y-60160140D01*
X65658263Y-60160140D01*
X65675963Y-60340660D01*
X65733218Y-60512773D01*
X65736865Y-60518795D01*
X65736866Y-60518797D01*
X65780548Y-60590924D01*
X65827180Y-60667924D01*
X65832069Y-60672987D01*
X65832070Y-60672988D01*
X65882190Y-60724888D01*
X65953182Y-60798402D01*
X66104959Y-60897722D01*
X66111563Y-60900178D01*
X66111565Y-60900179D01*
X66268358Y-60958490D01*
X66268360Y-60958490D01*
X66274968Y-60960948D01*
X66358795Y-60972133D01*
X66447780Y-60984007D01*
X66447784Y-60984007D01*
X66454761Y-60984938D01*
X66461772Y-60984300D01*
X66461776Y-60984300D01*
X66611139Y-60970706D01*
X66635400Y-60968498D01*
X66642102Y-60966320D01*
X66642104Y-60966320D01*
X66801209Y-60914624D01*
X66801212Y-60914623D01*
X66807908Y-60912447D01*
X66933663Y-60837482D01*
X66957660Y-60823177D01*
X66957662Y-60823176D01*
X66963712Y-60819569D01*
X67095066Y-60694482D01*
X67195443Y-60543402D01*
X67259855Y-60373838D01*
X67260835Y-60366866D01*
X67284548Y-60198139D01*
X67284548Y-60198136D01*
X67285099Y-60194217D01*
X67285416Y-60171500D01*
X67265197Y-59991245D01*
X67262158Y-59982519D01*
X67207864Y-59826606D01*
X67207862Y-59826603D01*
X67205545Y-59819948D01*
X67138734Y-59713027D01*
X67113159Y-59672098D01*
X67109426Y-59666124D01*
X67095741Y-59652343D01*
X66986578Y-59542415D01*
X66986574Y-59542412D01*
X66981615Y-59537418D01*
X66970497Y-59530362D01*
X66916202Y-59495906D01*
X66828466Y-59440227D01*
X66794008Y-59427957D01*
X66664225Y-59381743D01*
X66664220Y-59381742D01*
X66657590Y-59379381D01*
X66650602Y-59378548D01*
X66650599Y-59378547D01*
X66527498Y-59363868D01*
X66477480Y-59357904D01*
X66470477Y-59358640D01*
X66470476Y-59358640D01*
X66304088Y-59376128D01*
X66304086Y-59376129D01*
X66297088Y-59376864D01*
X66125379Y-59435318D01*
X66119375Y-59439012D01*
X65976895Y-59526666D01*
X65976892Y-59526668D01*
X65970888Y-59530362D01*
X65965853Y-59535293D01*
X65965850Y-59535295D01*
X65914539Y-59585543D01*
X65841293Y-59657271D01*
X65743035Y-59809738D01*
X65740626Y-59816358D01*
X65740624Y-59816361D01*
X65718005Y-59878506D01*
X65680997Y-59980185D01*
X65658263Y-60160140D01*
X41979920Y-60160140D01*
X41966797Y-60043145D01*
X41964480Y-60036491D01*
X41909464Y-59878506D01*
X41909462Y-59878503D01*
X41907145Y-59871848D01*
X41811026Y-59718024D01*
X41797341Y-59704243D01*
X41688178Y-59594315D01*
X41688174Y-59594312D01*
X41683215Y-59589318D01*
X41672097Y-59582262D01*
X41584491Y-59526666D01*
X41530066Y-59492127D01*
X41500863Y-59481728D01*
X41365825Y-59433643D01*
X41365820Y-59433642D01*
X41359190Y-59431281D01*
X41352202Y-59430448D01*
X41352199Y-59430447D01*
X41229098Y-59415768D01*
X41179080Y-59409804D01*
X41172077Y-59410540D01*
X41172076Y-59410540D01*
X41005688Y-59428028D01*
X41005686Y-59428029D01*
X40998688Y-59428764D01*
X40826979Y-59487218D01*
X40820975Y-59490912D01*
X40678495Y-59578566D01*
X40678492Y-59578568D01*
X40672488Y-59582262D01*
X40667453Y-59587193D01*
X40667450Y-59587195D01*
X40547925Y-59704243D01*
X40542893Y-59709171D01*
X40444635Y-59861638D01*
X40442226Y-59868258D01*
X40442224Y-59868261D01*
X40394914Y-59998244D01*
X40382597Y-60032085D01*
X40359863Y-60212040D01*
X15748000Y-60212040D01*
X15748000Y-59116900D01*
X113649040Y-59116900D01*
X113668859Y-59431920D01*
X113728005Y-59741972D01*
X113753341Y-59819948D01*
X113806164Y-59982519D01*
X113825544Y-60042166D01*
X113827231Y-60045752D01*
X113827233Y-60045756D01*
X113958250Y-60324183D01*
X113958254Y-60324190D01*
X113959938Y-60327769D01*
X114129068Y-60594275D01*
X114330267Y-60837482D01*
X114560360Y-61053554D01*
X114815721Y-61239084D01*
X114819190Y-61240991D01*
X114819193Y-61240993D01*
X114946995Y-61311253D01*
X115092321Y-61391147D01*
X115095990Y-61392600D01*
X115095995Y-61392602D01*
X115311057Y-61477751D01*
X115385798Y-61507343D01*
X115691525Y-61585840D01*
X116004679Y-61625400D01*
X116320321Y-61625400D01*
X116633475Y-61585840D01*
X116939202Y-61507343D01*
X117013943Y-61477751D01*
X117229005Y-61392602D01*
X117229010Y-61392600D01*
X117232679Y-61391147D01*
X117378005Y-61311253D01*
X117505807Y-61240993D01*
X117505810Y-61240991D01*
X117509279Y-61239084D01*
X117764640Y-61053554D01*
X117994733Y-60837482D01*
X118195932Y-60594275D01*
X118365062Y-60327769D01*
X118366746Y-60324190D01*
X118366750Y-60324183D01*
X118497767Y-60045756D01*
X118497769Y-60045752D01*
X118499456Y-60042166D01*
X118518837Y-59982519D01*
X118571659Y-59819948D01*
X118596995Y-59741972D01*
X118656141Y-59431920D01*
X118675960Y-59116900D01*
X118656141Y-58801880D01*
X118596995Y-58491828D01*
X118499456Y-58191634D01*
X118405866Y-57992744D01*
X118366750Y-57909617D01*
X118366746Y-57909610D01*
X118365062Y-57906031D01*
X118195932Y-57639525D01*
X117994733Y-57396318D01*
X117764640Y-57180246D01*
X117509279Y-56994716D01*
X117375919Y-56921400D01*
X117236148Y-56844560D01*
X117236147Y-56844559D01*
X117232679Y-56842653D01*
X117229010Y-56841200D01*
X117229005Y-56841198D01*
X116942872Y-56727910D01*
X116942871Y-56727910D01*
X116939202Y-56726457D01*
X116633475Y-56647960D01*
X116320321Y-56608400D01*
X116004679Y-56608400D01*
X115691525Y-56647960D01*
X115385798Y-56726457D01*
X115382129Y-56727910D01*
X115382128Y-56727910D01*
X115095995Y-56841198D01*
X115095990Y-56841200D01*
X115092321Y-56842653D01*
X115088853Y-56844559D01*
X115088852Y-56844560D01*
X114949082Y-56921400D01*
X114815721Y-56994716D01*
X114560360Y-57180246D01*
X114330267Y-57396318D01*
X114129068Y-57639525D01*
X113959938Y-57906031D01*
X113958254Y-57909610D01*
X113958250Y-57909617D01*
X113919134Y-57992744D01*
X113825544Y-58191634D01*
X113728005Y-58491828D01*
X113668859Y-58801880D01*
X113649040Y-59116900D01*
X15748000Y-59116900D01*
X15748000Y-58154640D01*
X47345963Y-58154640D01*
X47363663Y-58335160D01*
X47420918Y-58507273D01*
X47424565Y-58513295D01*
X47424566Y-58513297D01*
X47435478Y-58531314D01*
X47514880Y-58662424D01*
X47640882Y-58792902D01*
X47792659Y-58892222D01*
X47799263Y-58894678D01*
X47799265Y-58894679D01*
X47956058Y-58952990D01*
X47956060Y-58952990D01*
X47962668Y-58955448D01*
X48046495Y-58966633D01*
X48135480Y-58978507D01*
X48135484Y-58978507D01*
X48142461Y-58979438D01*
X48149472Y-58978800D01*
X48149476Y-58978800D01*
X48291959Y-58965832D01*
X48323100Y-58962998D01*
X48329802Y-58960820D01*
X48329804Y-58960820D01*
X48488909Y-58909124D01*
X48488912Y-58909123D01*
X48495608Y-58906947D01*
X48651412Y-58814069D01*
X48782766Y-58688982D01*
X48883143Y-58537902D01*
X48947555Y-58368338D01*
X48948535Y-58361366D01*
X48972248Y-58192639D01*
X48972248Y-58192636D01*
X48972799Y-58188717D01*
X48973116Y-58166000D01*
X48952897Y-57985745D01*
X48950580Y-57979091D01*
X48895564Y-57821106D01*
X48895562Y-57821103D01*
X48893245Y-57814448D01*
X48797126Y-57660624D01*
X48783441Y-57646843D01*
X48674278Y-57536915D01*
X48674274Y-57536912D01*
X48669315Y-57531918D01*
X48658197Y-57524862D01*
X48610038Y-57494300D01*
X48516166Y-57434727D01*
X48486963Y-57424328D01*
X48351925Y-57376243D01*
X48351920Y-57376242D01*
X48345290Y-57373881D01*
X48338302Y-57373048D01*
X48338299Y-57373047D01*
X48215198Y-57358368D01*
X48165180Y-57352404D01*
X48158177Y-57353140D01*
X48158176Y-57353140D01*
X47991788Y-57370628D01*
X47991786Y-57370629D01*
X47984788Y-57371364D01*
X47813079Y-57429818D01*
X47807075Y-57433512D01*
X47664595Y-57521166D01*
X47664592Y-57521168D01*
X47658588Y-57524862D01*
X47653553Y-57529793D01*
X47653550Y-57529795D01*
X47541498Y-57639525D01*
X47528993Y-57651771D01*
X47430735Y-57804238D01*
X47428326Y-57810858D01*
X47428324Y-57810861D01*
X47394903Y-57902684D01*
X47368697Y-57974685D01*
X47345963Y-58154640D01*
X15748000Y-58154640D01*
X15748000Y-56097240D01*
X64388263Y-56097240D01*
X64405963Y-56277760D01*
X64463218Y-56449873D01*
X64466865Y-56455895D01*
X64466866Y-56455897D01*
X64477778Y-56473914D01*
X64557180Y-56605024D01*
X64683182Y-56735502D01*
X64834959Y-56834822D01*
X64841563Y-56837278D01*
X64841565Y-56837279D01*
X64998358Y-56895590D01*
X64998360Y-56895590D01*
X65004968Y-56898048D01*
X65088795Y-56909233D01*
X65177780Y-56921107D01*
X65177784Y-56921107D01*
X65184761Y-56922038D01*
X65191772Y-56921400D01*
X65191776Y-56921400D01*
X65334259Y-56908432D01*
X65365400Y-56905598D01*
X65372102Y-56903420D01*
X65372104Y-56903420D01*
X65531209Y-56851724D01*
X65531212Y-56851723D01*
X65537908Y-56849547D01*
X65693712Y-56756669D01*
X65825066Y-56631582D01*
X65925443Y-56480502D01*
X65989855Y-56310938D01*
X65990835Y-56303966D01*
X66014548Y-56135239D01*
X66014548Y-56135236D01*
X66015099Y-56131317D01*
X66015416Y-56108600D01*
X65995197Y-55928345D01*
X65992880Y-55921691D01*
X65937864Y-55763706D01*
X65937862Y-55763703D01*
X65935545Y-55757048D01*
X65839426Y-55603224D01*
X65825741Y-55589443D01*
X65716578Y-55479515D01*
X65716574Y-55479512D01*
X65711615Y-55474518D01*
X65700497Y-55467462D01*
X65652338Y-55436900D01*
X65558466Y-55377327D01*
X65529263Y-55366928D01*
X65394225Y-55318843D01*
X65394220Y-55318842D01*
X65387590Y-55316481D01*
X65380602Y-55315648D01*
X65380599Y-55315647D01*
X65257498Y-55300968D01*
X65207480Y-55295004D01*
X65200477Y-55295740D01*
X65200476Y-55295740D01*
X65034088Y-55313228D01*
X65034086Y-55313229D01*
X65027088Y-55313964D01*
X64855379Y-55372418D01*
X64849375Y-55376112D01*
X64706895Y-55463766D01*
X64706892Y-55463768D01*
X64700888Y-55467462D01*
X64695853Y-55472393D01*
X64695850Y-55472395D01*
X64576325Y-55589443D01*
X64571293Y-55594371D01*
X64473035Y-55746838D01*
X64470626Y-55753458D01*
X64470624Y-55753461D01*
X64413406Y-55910666D01*
X64410997Y-55917285D01*
X64388263Y-56097240D01*
X15748000Y-56097240D01*
X15748000Y-53709640D01*
X68426863Y-53709640D01*
X68444563Y-53890160D01*
X68501818Y-54062273D01*
X68505465Y-54068295D01*
X68505466Y-54068297D01*
X68586722Y-54202467D01*
X68595780Y-54217424D01*
X68600669Y-54222487D01*
X68600670Y-54222488D01*
X68617483Y-54239898D01*
X68721782Y-54347902D01*
X68873559Y-54447222D01*
X68880163Y-54449678D01*
X68880165Y-54449679D01*
X69036958Y-54507990D01*
X69036960Y-54507990D01*
X69043568Y-54510448D01*
X69127395Y-54521633D01*
X69216380Y-54533507D01*
X69216384Y-54533507D01*
X69223361Y-54534438D01*
X69230372Y-54533800D01*
X69230376Y-54533800D01*
X69372859Y-54520832D01*
X69404000Y-54517998D01*
X69410702Y-54515820D01*
X69410704Y-54515820D01*
X69569809Y-54464124D01*
X69569812Y-54464123D01*
X69576508Y-54461947D01*
X69732312Y-54369069D01*
X69863666Y-54243982D01*
X69865036Y-54241920D01*
X69922639Y-54203595D01*
X69993627Y-54202467D01*
X70053955Y-54239898D01*
X70067829Y-54258642D01*
X70116130Y-54338398D01*
X70116133Y-54338401D01*
X70119780Y-54344424D01*
X70124669Y-54349487D01*
X70124670Y-54349488D01*
X70145427Y-54370982D01*
X70245782Y-54474902D01*
X70397559Y-54574222D01*
X70404163Y-54576678D01*
X70404165Y-54576679D01*
X70560958Y-54634990D01*
X70560960Y-54634990D01*
X70567568Y-54637448D01*
X70651395Y-54648633D01*
X70740380Y-54660507D01*
X70740384Y-54660507D01*
X70747361Y-54661438D01*
X70754372Y-54660800D01*
X70754376Y-54660800D01*
X70896859Y-54647832D01*
X70928000Y-54644998D01*
X70934702Y-54642820D01*
X70934704Y-54642820D01*
X71093809Y-54591124D01*
X71093812Y-54591123D01*
X71100508Y-54588947D01*
X71219526Y-54517998D01*
X71250260Y-54499677D01*
X71250262Y-54499676D01*
X71256312Y-54496069D01*
X71387666Y-54370982D01*
X71488043Y-54219902D01*
X71545633Y-54068297D01*
X71549955Y-54056920D01*
X71549956Y-54056918D01*
X71552455Y-54050338D01*
X71574027Y-53896844D01*
X71577148Y-53874639D01*
X71577148Y-53874636D01*
X71577699Y-53870717D01*
X71578016Y-53848000D01*
X71557797Y-53667745D01*
X71512154Y-53536675D01*
X71500464Y-53503106D01*
X71500462Y-53503103D01*
X71498145Y-53496448D01*
X71415764Y-53364609D01*
X71405759Y-53348598D01*
X71402026Y-53342624D01*
X71385063Y-53325542D01*
X71279178Y-53218915D01*
X71279174Y-53218912D01*
X71274215Y-53213918D01*
X71263097Y-53206862D01*
X71214938Y-53176300D01*
X71121066Y-53116727D01*
X71051386Y-53091915D01*
X70956825Y-53058243D01*
X70956820Y-53058242D01*
X70950190Y-53055881D01*
X70943202Y-53055048D01*
X70943199Y-53055047D01*
X70813571Y-53039590D01*
X70770080Y-53034404D01*
X70763077Y-53035140D01*
X70763076Y-53035140D01*
X70596688Y-53052628D01*
X70596686Y-53052629D01*
X70589688Y-53053364D01*
X70417979Y-53111818D01*
X70411975Y-53115512D01*
X70269495Y-53203166D01*
X70269492Y-53203168D01*
X70263488Y-53206862D01*
X70258453Y-53211793D01*
X70258450Y-53211795D01*
X70133893Y-53333771D01*
X70131895Y-53331731D01*
X70083958Y-53364609D01*
X70012994Y-53366737D01*
X69952144Y-53330161D01*
X69937998Y-53311600D01*
X69881759Y-53221598D01*
X69878026Y-53215624D01*
X69857741Y-53195197D01*
X69755178Y-53091915D01*
X69755174Y-53091912D01*
X69750215Y-53086918D01*
X69739097Y-53079862D01*
X69690938Y-53049300D01*
X69597066Y-52989727D01*
X69567863Y-52979328D01*
X69432825Y-52931243D01*
X69432820Y-52931242D01*
X69426190Y-52928881D01*
X69419202Y-52928048D01*
X69419199Y-52928047D01*
X69296098Y-52913368D01*
X69246080Y-52907404D01*
X69239077Y-52908140D01*
X69239076Y-52908140D01*
X69072688Y-52925628D01*
X69072686Y-52925629D01*
X69065688Y-52926364D01*
X68893979Y-52984818D01*
X68887975Y-52988512D01*
X68745495Y-53076166D01*
X68745492Y-53076168D01*
X68739488Y-53079862D01*
X68734453Y-53084793D01*
X68734450Y-53084795D01*
X68615353Y-53201424D01*
X68609893Y-53206771D01*
X68511635Y-53359238D01*
X68509226Y-53365858D01*
X68509224Y-53365861D01*
X68452006Y-53523066D01*
X68449597Y-53529685D01*
X68426863Y-53709640D01*
X15748000Y-53709640D01*
X15748000Y-52693640D01*
X44244963Y-52693640D01*
X44262663Y-52874160D01*
X44319918Y-53046273D01*
X44323565Y-53052295D01*
X44323566Y-53052297D01*
X44410109Y-53195197D01*
X44413880Y-53201424D01*
X44418769Y-53206487D01*
X44418770Y-53206488D01*
X44423895Y-53211795D01*
X44539882Y-53331902D01*
X44545778Y-53335760D01*
X44660248Y-53410667D01*
X44691659Y-53431222D01*
X44698263Y-53433678D01*
X44698265Y-53433679D01*
X44855058Y-53491990D01*
X44855060Y-53491990D01*
X44861668Y-53494448D01*
X44945495Y-53505633D01*
X45034480Y-53517507D01*
X45034484Y-53517507D01*
X45041461Y-53518438D01*
X45048472Y-53517800D01*
X45048476Y-53517800D01*
X45190959Y-53504832D01*
X45222100Y-53501998D01*
X45228802Y-53499820D01*
X45228804Y-53499820D01*
X45387909Y-53448124D01*
X45387912Y-53448123D01*
X45394608Y-53445947D01*
X45527484Y-53366737D01*
X45544360Y-53356677D01*
X45544362Y-53356676D01*
X45550412Y-53353069D01*
X45681766Y-53227982D01*
X45782143Y-53076902D01*
X45837474Y-52931243D01*
X45844055Y-52913920D01*
X45844056Y-52913918D01*
X45846555Y-52907338D01*
X45847535Y-52900366D01*
X45871248Y-52731639D01*
X45871248Y-52731636D01*
X45871799Y-52727717D01*
X45872116Y-52705000D01*
X45851897Y-52524745D01*
X45849580Y-52518091D01*
X45794564Y-52360106D01*
X45794562Y-52360103D01*
X45792245Y-52353448D01*
X45696126Y-52199624D01*
X45687335Y-52190771D01*
X45573278Y-52075915D01*
X45573274Y-52075912D01*
X45568315Y-52070918D01*
X45559665Y-52065428D01*
X45467810Y-52007136D01*
X45415166Y-51973727D01*
X45367697Y-51956824D01*
X45250925Y-51915243D01*
X45250920Y-51915242D01*
X45244290Y-51912881D01*
X45237302Y-51912048D01*
X45237299Y-51912047D01*
X45114198Y-51897368D01*
X45064180Y-51891404D01*
X45057177Y-51892140D01*
X45057176Y-51892140D01*
X44890788Y-51909628D01*
X44890786Y-51909629D01*
X44883788Y-51910364D01*
X44712079Y-51968818D01*
X44706075Y-51972512D01*
X44563595Y-52060166D01*
X44563592Y-52060168D01*
X44557588Y-52063862D01*
X44552553Y-52068793D01*
X44552550Y-52068795D01*
X44436169Y-52182764D01*
X44427993Y-52190771D01*
X44329735Y-52343238D01*
X44327326Y-52349858D01*
X44327324Y-52349861D01*
X44270106Y-52507066D01*
X44267697Y-52513685D01*
X44244963Y-52693640D01*
X15748000Y-52693640D01*
X15748000Y-51449040D01*
X54176363Y-51449040D01*
X54194063Y-51629560D01*
X54251318Y-51801673D01*
X54254965Y-51807695D01*
X54254966Y-51807697D01*
X54314398Y-51905831D01*
X54345280Y-51956824D01*
X54350169Y-51961887D01*
X54350170Y-51961888D01*
X54393866Y-52007136D01*
X54471282Y-52087302D01*
X54623059Y-52186622D01*
X54629663Y-52189078D01*
X54629665Y-52189079D01*
X54786458Y-52247390D01*
X54786460Y-52247390D01*
X54793068Y-52249848D01*
X54876895Y-52261033D01*
X54965880Y-52272907D01*
X54965884Y-52272907D01*
X54972861Y-52273838D01*
X54979872Y-52273200D01*
X54979876Y-52273200D01*
X55122359Y-52260232D01*
X55153500Y-52257398D01*
X55160202Y-52255220D01*
X55160204Y-52255220D01*
X55319309Y-52203524D01*
X55319312Y-52203523D01*
X55326008Y-52201347D01*
X55481812Y-52108469D01*
X55613166Y-51983382D01*
X55713543Y-51832302D01*
X55777955Y-51662738D01*
X55778935Y-51655766D01*
X55802648Y-51487039D01*
X55802648Y-51487036D01*
X55803199Y-51483117D01*
X55803516Y-51460400D01*
X55783297Y-51280145D01*
X55780980Y-51273491D01*
X55725964Y-51115506D01*
X55725962Y-51115503D01*
X55723645Y-51108848D01*
X55656142Y-51000819D01*
X55631259Y-50960998D01*
X55627526Y-50955024D01*
X55613841Y-50941243D01*
X55504678Y-50831315D01*
X55504674Y-50831312D01*
X55499715Y-50826318D01*
X55488597Y-50819262D01*
X55419386Y-50775340D01*
X55346566Y-50729127D01*
X55278596Y-50704924D01*
X55182325Y-50670643D01*
X55182320Y-50670642D01*
X55175690Y-50668281D01*
X55168702Y-50667448D01*
X55168699Y-50667447D01*
X55045598Y-50652768D01*
X54995580Y-50646804D01*
X54988577Y-50647540D01*
X54988576Y-50647540D01*
X54822188Y-50665028D01*
X54822186Y-50665029D01*
X54815188Y-50665764D01*
X54643479Y-50724218D01*
X54637475Y-50727912D01*
X54494995Y-50815566D01*
X54494992Y-50815568D01*
X54488988Y-50819262D01*
X54483953Y-50824193D01*
X54483950Y-50824195D01*
X54400123Y-50906285D01*
X54359393Y-50946171D01*
X54261135Y-51098638D01*
X54258726Y-51105258D01*
X54258724Y-51105261D01*
X54253868Y-51118603D01*
X54199097Y-51269085D01*
X54176363Y-51449040D01*
X15748000Y-51449040D01*
X15748000Y-49975840D01*
X47701563Y-49975840D01*
X47719263Y-50156360D01*
X47776518Y-50328473D01*
X47780165Y-50334495D01*
X47780166Y-50334497D01*
X47851450Y-50452201D01*
X47870480Y-50483624D01*
X47875369Y-50488687D01*
X47875370Y-50488688D01*
X47913721Y-50528401D01*
X47996482Y-50614102D01*
X48059167Y-50655122D01*
X48135273Y-50704924D01*
X48148259Y-50713422D01*
X48154863Y-50715878D01*
X48154865Y-50715879D01*
X48311658Y-50774190D01*
X48311660Y-50774190D01*
X48318268Y-50776648D01*
X48402095Y-50787833D01*
X48491080Y-50799707D01*
X48491084Y-50799707D01*
X48498061Y-50800638D01*
X48505072Y-50800000D01*
X48505076Y-50800000D01*
X48647559Y-50787032D01*
X48678700Y-50784198D01*
X48685402Y-50782020D01*
X48685404Y-50782020D01*
X48844509Y-50730324D01*
X48844512Y-50730323D01*
X48851208Y-50728147D01*
X48965804Y-50659834D01*
X49000960Y-50638877D01*
X49000962Y-50638876D01*
X49007012Y-50635269D01*
X49138366Y-50510182D01*
X49238743Y-50359102D01*
X49298587Y-50201564D01*
X49300655Y-50196120D01*
X49300656Y-50196118D01*
X49303155Y-50189538D01*
X49304147Y-50182479D01*
X49327848Y-50013839D01*
X49327848Y-50013836D01*
X49328399Y-50009917D01*
X49328716Y-49987200D01*
X49324593Y-49950440D01*
X58140963Y-49950440D01*
X58158663Y-50130960D01*
X58215918Y-50303073D01*
X58219565Y-50309095D01*
X58219566Y-50309097D01*
X58282759Y-50413441D01*
X58309880Y-50458224D01*
X58314769Y-50463287D01*
X58314770Y-50463288D01*
X58382737Y-50533669D01*
X58435882Y-50588702D01*
X58465686Y-50608205D01*
X58580347Y-50683237D01*
X58587659Y-50688022D01*
X58594263Y-50690478D01*
X58594265Y-50690479D01*
X58751058Y-50748790D01*
X58751060Y-50748790D01*
X58757668Y-50751248D01*
X58825988Y-50760364D01*
X58930480Y-50774307D01*
X58930484Y-50774307D01*
X58937461Y-50775238D01*
X58944472Y-50774600D01*
X58944476Y-50774600D01*
X59100893Y-50760364D01*
X59118100Y-50758798D01*
X59124802Y-50756620D01*
X59124804Y-50756620D01*
X59283909Y-50704924D01*
X59283912Y-50704923D01*
X59290608Y-50702747D01*
X59414783Y-50628724D01*
X59440360Y-50613477D01*
X59440362Y-50613476D01*
X59446412Y-50609869D01*
X59577766Y-50484782D01*
X59678143Y-50333702D01*
X59732298Y-50191140D01*
X59740055Y-50170720D01*
X59740056Y-50170718D01*
X59742555Y-50164138D01*
X59744633Y-50149351D01*
X59761879Y-50026640D01*
X64718463Y-50026640D01*
X64736163Y-50207160D01*
X64793418Y-50379273D01*
X64797065Y-50385295D01*
X64797066Y-50385297D01*
X64874104Y-50512502D01*
X64887380Y-50534424D01*
X64892269Y-50539487D01*
X64892270Y-50539488D01*
X64960237Y-50609869D01*
X65013382Y-50664902D01*
X65045729Y-50686069D01*
X65157847Y-50759437D01*
X65165159Y-50764222D01*
X65171763Y-50766678D01*
X65171765Y-50766679D01*
X65328558Y-50824990D01*
X65328560Y-50824990D01*
X65335168Y-50827448D01*
X65409941Y-50837425D01*
X65507980Y-50850507D01*
X65507984Y-50850507D01*
X65514961Y-50851438D01*
X65521972Y-50850800D01*
X65521976Y-50850800D01*
X65668933Y-50837425D01*
X65695600Y-50834998D01*
X65702302Y-50832820D01*
X65702304Y-50832820D01*
X65861409Y-50781124D01*
X65861412Y-50781123D01*
X65868108Y-50778947D01*
X65992283Y-50704924D01*
X66017860Y-50689677D01*
X66017862Y-50689676D01*
X66023912Y-50686069D01*
X66155266Y-50560982D01*
X66255643Y-50409902D01*
X66320055Y-50240338D01*
X66321339Y-50231200D01*
X66344748Y-50064639D01*
X66344748Y-50064636D01*
X66345299Y-50060717D01*
X66345616Y-50038000D01*
X66325397Y-49857745D01*
X66323080Y-49851091D01*
X66268064Y-49693106D01*
X66268062Y-49693103D01*
X66265745Y-49686448D01*
X66169626Y-49532624D01*
X66155941Y-49518843D01*
X66046778Y-49408915D01*
X66046774Y-49408912D01*
X66041815Y-49403918D01*
X66030697Y-49396862D01*
X65937251Y-49337560D01*
X65888666Y-49306727D01*
X65821505Y-49282812D01*
X65770473Y-49264640D01*
X67004463Y-49264640D01*
X67022163Y-49445160D01*
X67079418Y-49617273D01*
X67083065Y-49623295D01*
X67083066Y-49623297D01*
X67136995Y-49712344D01*
X67173380Y-49772424D01*
X67178269Y-49777487D01*
X67178270Y-49777488D01*
X67249348Y-49851091D01*
X67299382Y-49902902D01*
X67324305Y-49919211D01*
X67434258Y-49991162D01*
X67451159Y-50002222D01*
X67457763Y-50004678D01*
X67457765Y-50004679D01*
X67614558Y-50062990D01*
X67614560Y-50062990D01*
X67621168Y-50065448D01*
X67697507Y-50075634D01*
X67793980Y-50088507D01*
X67793984Y-50088507D01*
X67800961Y-50089438D01*
X67807972Y-50088800D01*
X67807976Y-50088800D01*
X67952636Y-50075634D01*
X67981600Y-50072998D01*
X67988302Y-50070820D01*
X67988304Y-50070820D01*
X68147409Y-50019124D01*
X68147412Y-50019123D01*
X68154108Y-50016947D01*
X68266037Y-49950224D01*
X68303860Y-49927677D01*
X68303862Y-49927676D01*
X68309912Y-49924069D01*
X68407042Y-49831573D01*
X68436162Y-49803843D01*
X68436164Y-49803840D01*
X68441266Y-49798982D01*
X68444913Y-49793493D01*
X68503870Y-49754266D01*
X68574857Y-49753138D01*
X68635186Y-49790568D01*
X68653583Y-49818565D01*
X68654218Y-49820473D01*
X68657865Y-49826495D01*
X68657866Y-49826497D01*
X68729150Y-49944201D01*
X68748180Y-49975624D01*
X68753069Y-49980687D01*
X68753070Y-49980688D01*
X68812242Y-50041962D01*
X68874182Y-50106102D01*
X68950070Y-50155762D01*
X69012973Y-50196924D01*
X69025959Y-50205422D01*
X69032563Y-50207878D01*
X69032565Y-50207879D01*
X69189358Y-50266190D01*
X69189360Y-50266190D01*
X69195968Y-50268648D01*
X69279795Y-50279833D01*
X69368780Y-50291707D01*
X69368784Y-50291707D01*
X69375761Y-50292638D01*
X69382772Y-50292000D01*
X69382776Y-50292000D01*
X69525259Y-50279032D01*
X69556400Y-50276198D01*
X69563102Y-50274020D01*
X69563104Y-50274020D01*
X69722209Y-50222324D01*
X69722212Y-50222323D01*
X69728908Y-50220147D01*
X69834559Y-50157166D01*
X69878660Y-50130877D01*
X69878662Y-50130876D01*
X69884712Y-50127269D01*
X70016066Y-50002182D01*
X70101070Y-49874240D01*
X77723263Y-49874240D01*
X77740963Y-50054760D01*
X77798218Y-50226873D01*
X77801865Y-50232895D01*
X77801866Y-50232897D01*
X77886467Y-50372590D01*
X77892180Y-50382024D01*
X77897069Y-50387087D01*
X77897070Y-50387088D01*
X77922519Y-50413441D01*
X78018182Y-50512502D01*
X78056042Y-50537277D01*
X78159551Y-50605011D01*
X78169959Y-50611822D01*
X78176563Y-50614278D01*
X78176565Y-50614279D01*
X78333358Y-50672590D01*
X78333360Y-50672590D01*
X78339968Y-50675048D01*
X78408288Y-50684164D01*
X78512780Y-50698107D01*
X78512784Y-50698107D01*
X78519761Y-50699038D01*
X78526772Y-50698400D01*
X78526776Y-50698400D01*
X78683193Y-50684164D01*
X78700400Y-50682598D01*
X78707102Y-50680420D01*
X78707104Y-50680420D01*
X78866209Y-50628724D01*
X78866212Y-50628723D01*
X78872908Y-50626547D01*
X79018951Y-50539488D01*
X79022660Y-50537277D01*
X79022662Y-50537276D01*
X79028712Y-50533669D01*
X79160066Y-50408582D01*
X79260443Y-50257502D01*
X79308544Y-50130877D01*
X79322355Y-50094520D01*
X79322356Y-50094518D01*
X79324855Y-50087938D01*
X79328016Y-50065448D01*
X79349548Y-49912239D01*
X79349548Y-49912236D01*
X79350099Y-49908317D01*
X79350416Y-49885600D01*
X79330197Y-49705345D01*
X79327756Y-49698334D01*
X79272864Y-49540706D01*
X79272862Y-49540703D01*
X79270545Y-49534048D01*
X79237047Y-49480439D01*
X79213303Y-49442440D01*
X101904063Y-49442440D01*
X101921763Y-49622960D01*
X101979018Y-49795073D01*
X101982665Y-49801095D01*
X101982666Y-49801097D01*
X102049976Y-49912239D01*
X102072980Y-49950224D01*
X102077869Y-49955287D01*
X102077870Y-49955288D01*
X102146775Y-50026640D01*
X102198982Y-50080702D01*
X102270144Y-50127269D01*
X102326486Y-50164138D01*
X102350759Y-50180022D01*
X102357363Y-50182478D01*
X102357365Y-50182479D01*
X102514158Y-50240790D01*
X102514160Y-50240790D01*
X102520768Y-50243248D01*
X102604595Y-50254433D01*
X102693580Y-50266307D01*
X102693584Y-50266307D01*
X102700561Y-50267238D01*
X102707572Y-50266600D01*
X102707576Y-50266600D01*
X102850059Y-50253632D01*
X102881200Y-50250798D01*
X102887902Y-50248620D01*
X102887904Y-50248620D01*
X103047009Y-50196924D01*
X103047012Y-50196923D01*
X103053708Y-50194747D01*
X103150113Y-50137278D01*
X103203460Y-50105477D01*
X103203462Y-50105476D01*
X103209512Y-50101869D01*
X103340866Y-49976782D01*
X103441243Y-49825702D01*
X103488509Y-49701275D01*
X103503155Y-49662720D01*
X103503156Y-49662718D01*
X103505655Y-49656138D01*
X103506748Y-49648360D01*
X103530348Y-49480439D01*
X103530348Y-49480436D01*
X103530899Y-49476517D01*
X103531216Y-49453800D01*
X103523712Y-49386900D01*
X113429002Y-49386900D01*
X113448957Y-49614987D01*
X113450381Y-49620300D01*
X113450381Y-49620302D01*
X113498259Y-49798982D01*
X113508216Y-49836143D01*
X113510539Y-49841124D01*
X113510539Y-49841125D01*
X113602651Y-50038662D01*
X113602654Y-50038667D01*
X113604977Y-50043649D01*
X113642342Y-50097011D01*
X113728593Y-50220190D01*
X113736302Y-50231200D01*
X113898200Y-50393098D01*
X113902708Y-50396255D01*
X113902711Y-50396257D01*
X113930583Y-50415773D01*
X114085751Y-50524423D01*
X114090733Y-50526746D01*
X114090738Y-50526749D01*
X114265423Y-50608205D01*
X114318708Y-50655122D01*
X114338169Y-50723399D01*
X114317627Y-50791359D01*
X114263605Y-50837425D01*
X114212173Y-50848400D01*
X113894366Y-50848400D01*
X113832184Y-50855155D01*
X113695795Y-50906285D01*
X113579239Y-50993639D01*
X113491885Y-51110195D01*
X113440755Y-51246584D01*
X113434000Y-51308766D01*
X113434000Y-53005034D01*
X113440755Y-53067216D01*
X113491885Y-53203605D01*
X113579239Y-53320161D01*
X113695795Y-53407515D01*
X113832184Y-53458645D01*
X113894366Y-53465400D01*
X115590634Y-53465400D01*
X115652816Y-53458645D01*
X115789205Y-53407515D01*
X115905761Y-53320161D01*
X115993115Y-53203605D01*
X116044245Y-53067216D01*
X116051000Y-53005034D01*
X116051000Y-51857962D01*
X116860993Y-51857962D01*
X116870289Y-51869977D01*
X116921494Y-51905831D01*
X116930989Y-51911314D01*
X117128447Y-52003390D01*
X117138739Y-52007136D01*
X117349188Y-52063525D01*
X117359981Y-52065428D01*
X117577025Y-52084417D01*
X117587975Y-52084417D01*
X117805019Y-52065428D01*
X117815812Y-52063525D01*
X118026261Y-52007136D01*
X118036553Y-52003390D01*
X118234011Y-51911314D01*
X118243506Y-51905831D01*
X118295548Y-51869391D01*
X118303924Y-51858912D01*
X118296856Y-51845466D01*
X117595312Y-51143922D01*
X117581368Y-51136308D01*
X117579535Y-51136439D01*
X117572920Y-51140690D01*
X116867423Y-51846187D01*
X116860993Y-51857962D01*
X116051000Y-51857962D01*
X116051000Y-51308766D01*
X116044245Y-51246584D01*
X115993115Y-51110195D01*
X115905761Y-50993639D01*
X115789205Y-50906285D01*
X115652816Y-50855155D01*
X115590634Y-50848400D01*
X115272827Y-50848400D01*
X115204706Y-50828398D01*
X115160494Y-50777375D01*
X116269983Y-50777375D01*
X116288972Y-50994419D01*
X116290875Y-51005212D01*
X116347264Y-51215661D01*
X116351010Y-51225953D01*
X116443086Y-51423411D01*
X116448569Y-51432906D01*
X116485009Y-51484948D01*
X116495488Y-51493324D01*
X116508934Y-51486256D01*
X117210478Y-50784712D01*
X117216856Y-50773032D01*
X117946908Y-50773032D01*
X117947039Y-50774865D01*
X117951290Y-50781480D01*
X118656787Y-51486977D01*
X118668562Y-51493407D01*
X118680577Y-51484111D01*
X118716431Y-51432906D01*
X118721914Y-51423411D01*
X118813990Y-51225953D01*
X118817736Y-51215661D01*
X118874125Y-51005212D01*
X118876028Y-50994419D01*
X118895017Y-50777375D01*
X118895017Y-50766425D01*
X118876028Y-50549381D01*
X118874125Y-50538588D01*
X118817736Y-50328139D01*
X118813990Y-50317847D01*
X118721914Y-50120389D01*
X118716431Y-50110894D01*
X118679991Y-50058852D01*
X118669512Y-50050476D01*
X118656066Y-50057544D01*
X117954522Y-50759088D01*
X117946908Y-50773032D01*
X117216856Y-50773032D01*
X117218092Y-50770768D01*
X117217961Y-50768935D01*
X117213710Y-50762320D01*
X116508213Y-50056823D01*
X116496438Y-50050393D01*
X116484423Y-50059689D01*
X116448569Y-50110894D01*
X116443086Y-50120389D01*
X116351010Y-50317847D01*
X116347264Y-50328139D01*
X116290875Y-50538588D01*
X116288972Y-50549381D01*
X116269983Y-50766425D01*
X116269983Y-50777375D01*
X115160494Y-50777375D01*
X115158213Y-50774742D01*
X115148109Y-50704468D01*
X115177603Y-50639888D01*
X115219577Y-50608205D01*
X115394262Y-50526749D01*
X115394267Y-50526746D01*
X115399249Y-50524423D01*
X115554417Y-50415773D01*
X115582289Y-50396257D01*
X115582292Y-50396255D01*
X115586800Y-50393098D01*
X115748698Y-50231200D01*
X115756408Y-50220190D01*
X115842658Y-50097011D01*
X115880023Y-50043649D01*
X115882346Y-50038667D01*
X115882349Y-50038662D01*
X115974461Y-49841125D01*
X115974461Y-49841124D01*
X115976784Y-49836143D01*
X115986742Y-49798982D01*
X116034619Y-49620302D01*
X116034619Y-49620300D01*
X116036043Y-49614987D01*
X116055998Y-49386900D01*
X116036043Y-49158813D01*
X116034619Y-49153498D01*
X115978207Y-48942967D01*
X115978206Y-48942965D01*
X115976784Y-48937657D01*
X115968952Y-48920861D01*
X115882349Y-48735138D01*
X115882346Y-48735133D01*
X115880023Y-48730151D01*
X115769438Y-48572220D01*
X115751857Y-48547111D01*
X115751855Y-48547108D01*
X115748698Y-48542600D01*
X115586800Y-48380702D01*
X115582292Y-48377545D01*
X115582289Y-48377543D01*
X115441395Y-48278888D01*
X115399249Y-48249377D01*
X115394267Y-48247054D01*
X115394262Y-48247051D01*
X115196725Y-48154939D01*
X115196724Y-48154939D01*
X115191743Y-48152616D01*
X115082514Y-48123348D01*
X115021892Y-48086396D01*
X114990870Y-48022535D01*
X114993337Y-48001900D01*
X116269002Y-48001900D01*
X116288957Y-48229987D01*
X116290381Y-48235300D01*
X116290381Y-48235302D01*
X116341337Y-48425469D01*
X116348216Y-48451143D01*
X116350539Y-48456124D01*
X116350539Y-48456125D01*
X116442651Y-48653662D01*
X116442654Y-48653667D01*
X116444977Y-48658649D01*
X116498535Y-48735138D01*
X116570604Y-48838062D01*
X116576302Y-48846200D01*
X116738200Y-49008098D01*
X116742708Y-49011255D01*
X116742711Y-49011257D01*
X116820889Y-49065998D01*
X116925751Y-49139423D01*
X116930733Y-49141746D01*
X116930738Y-49141749D01*
X117118520Y-49229312D01*
X117133257Y-49236184D01*
X117239456Y-49264640D01*
X117242486Y-49265452D01*
X117303108Y-49302404D01*
X117334130Y-49366265D01*
X117325701Y-49436759D01*
X117280498Y-49491506D01*
X117242485Y-49508866D01*
X117138739Y-49536664D01*
X117128447Y-49540410D01*
X116930989Y-49632486D01*
X116921494Y-49637969D01*
X116869452Y-49674409D01*
X116861076Y-49684888D01*
X116868144Y-49698334D01*
X117569688Y-50399878D01*
X117583632Y-50407492D01*
X117585465Y-50407361D01*
X117592080Y-50403110D01*
X118297577Y-49697613D01*
X118304007Y-49685838D01*
X118294711Y-49673823D01*
X118243506Y-49637969D01*
X118234011Y-49632486D01*
X118036553Y-49540410D01*
X118026261Y-49536664D01*
X117922515Y-49508866D01*
X117861892Y-49471915D01*
X117830871Y-49408054D01*
X117839299Y-49337560D01*
X117884502Y-49282812D01*
X117922514Y-49265452D01*
X117925545Y-49264640D01*
X118031743Y-49236184D01*
X118046480Y-49229312D01*
X118234262Y-49141749D01*
X118234267Y-49141746D01*
X118239249Y-49139423D01*
X118344111Y-49065998D01*
X118422289Y-49011257D01*
X118422292Y-49011255D01*
X118426800Y-49008098D01*
X118588698Y-48846200D01*
X118594397Y-48838062D01*
X118666465Y-48735138D01*
X118720023Y-48658649D01*
X118722346Y-48653667D01*
X118722349Y-48653662D01*
X118814461Y-48456125D01*
X118814461Y-48456124D01*
X118816784Y-48451143D01*
X118823664Y-48425469D01*
X118874619Y-48235302D01*
X118874619Y-48235300D01*
X118876043Y-48229987D01*
X118895998Y-48001900D01*
X118876043Y-47773813D01*
X118867921Y-47743500D01*
X118818207Y-47557967D01*
X118818206Y-47557965D01*
X118816784Y-47552657D01*
X118814461Y-47547675D01*
X118722349Y-47350138D01*
X118722346Y-47350133D01*
X118720023Y-47345151D01*
X118621379Y-47204273D01*
X118591857Y-47162111D01*
X118591855Y-47162108D01*
X118588698Y-47157600D01*
X118426800Y-46995702D01*
X118422292Y-46992545D01*
X118422289Y-46992543D01*
X118332831Y-46929904D01*
X118239249Y-46864377D01*
X118234267Y-46862054D01*
X118234262Y-46862051D01*
X118036725Y-46769939D01*
X118036724Y-46769939D01*
X118031743Y-46767616D01*
X118026435Y-46766194D01*
X118026433Y-46766193D01*
X117923481Y-46738607D01*
X117862858Y-46701655D01*
X117831837Y-46637794D01*
X117840265Y-46567300D01*
X117885468Y-46512553D01*
X117923481Y-46495193D01*
X118026433Y-46467607D01*
X118026435Y-46467606D01*
X118031743Y-46466184D01*
X118036725Y-46463861D01*
X118234262Y-46371749D01*
X118234267Y-46371746D01*
X118239249Y-46369423D01*
X118344111Y-46295998D01*
X118422289Y-46241257D01*
X118422292Y-46241255D01*
X118426800Y-46238098D01*
X118588698Y-46076200D01*
X118598965Y-46061538D01*
X118652249Y-45985440D01*
X118720023Y-45888649D01*
X118722346Y-45883667D01*
X118722349Y-45883662D01*
X118814461Y-45686125D01*
X118814461Y-45686124D01*
X118816784Y-45681143D01*
X118857059Y-45530838D01*
X118874619Y-45465302D01*
X118874619Y-45465300D01*
X118876043Y-45459987D01*
X118895998Y-45231900D01*
X118876043Y-45003813D01*
X118871471Y-44986749D01*
X118818207Y-44787967D01*
X118818206Y-44787965D01*
X118816784Y-44782657D01*
X118798163Y-44742724D01*
X118722349Y-44580138D01*
X118722346Y-44580133D01*
X118720023Y-44575151D01*
X118611637Y-44420360D01*
X118591857Y-44392111D01*
X118591855Y-44392108D01*
X118588698Y-44387600D01*
X118426800Y-44225702D01*
X118422292Y-44222545D01*
X118422289Y-44222543D01*
X118335113Y-44161502D01*
X118239249Y-44094377D01*
X118234267Y-44092054D01*
X118234262Y-44092051D01*
X118036725Y-43999939D01*
X118036724Y-43999939D01*
X118031743Y-43997616D01*
X118026435Y-43996194D01*
X118026433Y-43996193D01*
X117923481Y-43968607D01*
X117862858Y-43931655D01*
X117831837Y-43867794D01*
X117840265Y-43797300D01*
X117885468Y-43742553D01*
X117923481Y-43725193D01*
X118026433Y-43697607D01*
X118026435Y-43697606D01*
X118031743Y-43696184D01*
X118036725Y-43693861D01*
X118234262Y-43601749D01*
X118234267Y-43601746D01*
X118239249Y-43599423D01*
X118344111Y-43525998D01*
X118422289Y-43471257D01*
X118422292Y-43471255D01*
X118426800Y-43468098D01*
X118588698Y-43306200D01*
X118613736Y-43270443D01*
X118666465Y-43195138D01*
X118720023Y-43118649D01*
X118722346Y-43113667D01*
X118722349Y-43113662D01*
X118814461Y-42916125D01*
X118814461Y-42916124D01*
X118816784Y-42911143D01*
X118870848Y-42709377D01*
X118874619Y-42695302D01*
X118874619Y-42695300D01*
X118876043Y-42689987D01*
X118895998Y-42461900D01*
X118876043Y-42233813D01*
X118857313Y-42163912D01*
X118818207Y-42017967D01*
X118818206Y-42017965D01*
X118816784Y-42012657D01*
X118804959Y-41987298D01*
X118722349Y-41810138D01*
X118722346Y-41810133D01*
X118720023Y-41805151D01*
X118588698Y-41617600D01*
X118426800Y-41455702D01*
X118422292Y-41452545D01*
X118422289Y-41452543D01*
X118344111Y-41397802D01*
X118239249Y-41324377D01*
X118234267Y-41322054D01*
X118234262Y-41322051D01*
X118036725Y-41229939D01*
X118036724Y-41229939D01*
X118031743Y-41227616D01*
X118026435Y-41226194D01*
X118026433Y-41226193D01*
X117815902Y-41169781D01*
X117815900Y-41169781D01*
X117810587Y-41168357D01*
X117582500Y-41148402D01*
X117354413Y-41168357D01*
X117349100Y-41169781D01*
X117349098Y-41169781D01*
X117138567Y-41226193D01*
X117138565Y-41226194D01*
X117133257Y-41227616D01*
X117128276Y-41229939D01*
X117128275Y-41229939D01*
X116930738Y-41322051D01*
X116930733Y-41322054D01*
X116925751Y-41324377D01*
X116820889Y-41397802D01*
X116742711Y-41452543D01*
X116742708Y-41452545D01*
X116738200Y-41455702D01*
X116576302Y-41617600D01*
X116444977Y-41805151D01*
X116442654Y-41810133D01*
X116442651Y-41810138D01*
X116360041Y-41987298D01*
X116348216Y-42012657D01*
X116346794Y-42017965D01*
X116346793Y-42017967D01*
X116307687Y-42163912D01*
X116288957Y-42233813D01*
X116269002Y-42461900D01*
X116288957Y-42689987D01*
X116290381Y-42695300D01*
X116290381Y-42695302D01*
X116294153Y-42709377D01*
X116348216Y-42911143D01*
X116350539Y-42916124D01*
X116350539Y-42916125D01*
X116442651Y-43113662D01*
X116442654Y-43113667D01*
X116444977Y-43118649D01*
X116498535Y-43195138D01*
X116551265Y-43270443D01*
X116576302Y-43306200D01*
X116738200Y-43468098D01*
X116742708Y-43471255D01*
X116742711Y-43471257D01*
X116820889Y-43525998D01*
X116925751Y-43599423D01*
X116930733Y-43601746D01*
X116930738Y-43601749D01*
X117128275Y-43693861D01*
X117133257Y-43696184D01*
X117138565Y-43697606D01*
X117138567Y-43697607D01*
X117241519Y-43725193D01*
X117302142Y-43762145D01*
X117333163Y-43826006D01*
X117324735Y-43896500D01*
X117279532Y-43951247D01*
X117241519Y-43968607D01*
X117138567Y-43996193D01*
X117138565Y-43996194D01*
X117133257Y-43997616D01*
X117128276Y-43999939D01*
X117128275Y-43999939D01*
X116930738Y-44092051D01*
X116930733Y-44092054D01*
X116925751Y-44094377D01*
X116829887Y-44161502D01*
X116742711Y-44222543D01*
X116742708Y-44222545D01*
X116738200Y-44225702D01*
X116576302Y-44387600D01*
X116573145Y-44392108D01*
X116573143Y-44392111D01*
X116553363Y-44420360D01*
X116444977Y-44575151D01*
X116442654Y-44580133D01*
X116442651Y-44580138D01*
X116366837Y-44742724D01*
X116348216Y-44782657D01*
X116346794Y-44787965D01*
X116346793Y-44787967D01*
X116293529Y-44986749D01*
X116288957Y-45003813D01*
X116269002Y-45231900D01*
X116288957Y-45459987D01*
X116290381Y-45465300D01*
X116290381Y-45465302D01*
X116307942Y-45530838D01*
X116348216Y-45681143D01*
X116350539Y-45686124D01*
X116350539Y-45686125D01*
X116442651Y-45883662D01*
X116442654Y-45883667D01*
X116444977Y-45888649D01*
X116512751Y-45985440D01*
X116566036Y-46061538D01*
X116576302Y-46076200D01*
X116738200Y-46238098D01*
X116742708Y-46241255D01*
X116742711Y-46241257D01*
X116820889Y-46295998D01*
X116925751Y-46369423D01*
X116930733Y-46371746D01*
X116930738Y-46371749D01*
X117128275Y-46463861D01*
X117133257Y-46466184D01*
X117138565Y-46467606D01*
X117138567Y-46467607D01*
X117241519Y-46495193D01*
X117302142Y-46532145D01*
X117333163Y-46596006D01*
X117324735Y-46666500D01*
X117279532Y-46721247D01*
X117241519Y-46738607D01*
X117138567Y-46766193D01*
X117138565Y-46766194D01*
X117133257Y-46767616D01*
X117128276Y-46769939D01*
X117128275Y-46769939D01*
X116930738Y-46862051D01*
X116930733Y-46862054D01*
X116925751Y-46864377D01*
X116832169Y-46929904D01*
X116742711Y-46992543D01*
X116742708Y-46992545D01*
X116738200Y-46995702D01*
X116576302Y-47157600D01*
X116573145Y-47162108D01*
X116573143Y-47162111D01*
X116543621Y-47204273D01*
X116444977Y-47345151D01*
X116442654Y-47350133D01*
X116442651Y-47350138D01*
X116350539Y-47547675D01*
X116348216Y-47552657D01*
X116346794Y-47557965D01*
X116346793Y-47557967D01*
X116297079Y-47743500D01*
X116288957Y-47773813D01*
X116269002Y-48001900D01*
X114993337Y-48001900D01*
X114999299Y-47952041D01*
X115044502Y-47897294D01*
X115082515Y-47879934D01*
X115186261Y-47852136D01*
X115196553Y-47848390D01*
X115394011Y-47756314D01*
X115403506Y-47750831D01*
X115455548Y-47714391D01*
X115463924Y-47703912D01*
X115456856Y-47690466D01*
X114755312Y-46988922D01*
X114741368Y-46981308D01*
X114739535Y-46981439D01*
X114732920Y-46985690D01*
X114027423Y-47691187D01*
X114020993Y-47702962D01*
X114030289Y-47714977D01*
X114081494Y-47750831D01*
X114090989Y-47756314D01*
X114288447Y-47848390D01*
X114298739Y-47852136D01*
X114402485Y-47879934D01*
X114463108Y-47916885D01*
X114494129Y-47980746D01*
X114485701Y-48051240D01*
X114440498Y-48105988D01*
X114402486Y-48123348D01*
X114293257Y-48152616D01*
X114288276Y-48154939D01*
X114288275Y-48154939D01*
X114090738Y-48247051D01*
X114090733Y-48247054D01*
X114085751Y-48249377D01*
X114043605Y-48278888D01*
X113902711Y-48377543D01*
X113902708Y-48377545D01*
X113898200Y-48380702D01*
X113736302Y-48542600D01*
X113733145Y-48547108D01*
X113733143Y-48547111D01*
X113715562Y-48572220D01*
X113604977Y-48730151D01*
X113602654Y-48735133D01*
X113602651Y-48735138D01*
X113516048Y-48920861D01*
X113508216Y-48937657D01*
X113506794Y-48942965D01*
X113506793Y-48942967D01*
X113450381Y-49153498D01*
X113448957Y-49158813D01*
X113429002Y-49386900D01*
X103523712Y-49386900D01*
X103510997Y-49273545D01*
X103507896Y-49264640D01*
X103453664Y-49108906D01*
X103453662Y-49108903D01*
X103451345Y-49102248D01*
X103387668Y-49000342D01*
X103358959Y-48954398D01*
X103355226Y-48948424D01*
X103344534Y-48937657D01*
X103232378Y-48824715D01*
X103232374Y-48824712D01*
X103227415Y-48819718D01*
X103216297Y-48812662D01*
X103168138Y-48782100D01*
X103074266Y-48722527D01*
X103045063Y-48712128D01*
X102910025Y-48664043D01*
X102910020Y-48664042D01*
X102903390Y-48661681D01*
X102896402Y-48660848D01*
X102896399Y-48660847D01*
X102773298Y-48646168D01*
X102723280Y-48640204D01*
X102716277Y-48640940D01*
X102716276Y-48640940D01*
X102549888Y-48658428D01*
X102549886Y-48658429D01*
X102542888Y-48659164D01*
X102371179Y-48717618D01*
X102365175Y-48721312D01*
X102222695Y-48808966D01*
X102222692Y-48808968D01*
X102216688Y-48812662D01*
X102211653Y-48817593D01*
X102211650Y-48817595D01*
X102106199Y-48920861D01*
X102087093Y-48939571D01*
X101988835Y-49092038D01*
X101986426Y-49098658D01*
X101986424Y-49098661D01*
X101933357Y-49244462D01*
X101926797Y-49262485D01*
X101904063Y-49442440D01*
X79213303Y-49442440D01*
X79178159Y-49386198D01*
X79174426Y-49380224D01*
X79152471Y-49358115D01*
X79051578Y-49256515D01*
X79051574Y-49256512D01*
X79046615Y-49251518D01*
X79037733Y-49245881D01*
X78952558Y-49191828D01*
X78893466Y-49154327D01*
X78842745Y-49136266D01*
X78729225Y-49095843D01*
X78729220Y-49095842D01*
X78722590Y-49093481D01*
X78715602Y-49092648D01*
X78715599Y-49092647D01*
X78592498Y-49077968D01*
X78542480Y-49072004D01*
X78535477Y-49072740D01*
X78535476Y-49072740D01*
X78369088Y-49090228D01*
X78369086Y-49090229D01*
X78362088Y-49090964D01*
X78190379Y-49149418D01*
X78149869Y-49174340D01*
X78041895Y-49240766D01*
X78041892Y-49240768D01*
X78035888Y-49244462D01*
X78030853Y-49249393D01*
X78030850Y-49249395D01*
X77911507Y-49366265D01*
X77906293Y-49371371D01*
X77808035Y-49523838D01*
X77805626Y-49530458D01*
X77805624Y-49530461D01*
X77750155Y-49682861D01*
X77745997Y-49694285D01*
X77723263Y-49874240D01*
X70101070Y-49874240D01*
X70116443Y-49851102D01*
X70169153Y-49712344D01*
X70178355Y-49688120D01*
X70178356Y-49688118D01*
X70180855Y-49681538D01*
X70186978Y-49637969D01*
X70205548Y-49505839D01*
X70205548Y-49505836D01*
X70206099Y-49501917D01*
X70206416Y-49479200D01*
X70186197Y-49298945D01*
X70176693Y-49271653D01*
X70128864Y-49134306D01*
X70128862Y-49134303D01*
X70126545Y-49127648D01*
X70114834Y-49108906D01*
X70034159Y-48979798D01*
X70030426Y-48973824D01*
X70025464Y-48968827D01*
X69907578Y-48850115D01*
X69907574Y-48850112D01*
X69902615Y-48845118D01*
X69891497Y-48838062D01*
X69794644Y-48776598D01*
X69749466Y-48747927D01*
X69686885Y-48725643D01*
X69585225Y-48689443D01*
X69585220Y-48689442D01*
X69578590Y-48687081D01*
X69571602Y-48686248D01*
X69571599Y-48686247D01*
X69448498Y-48671568D01*
X69398480Y-48665604D01*
X69391477Y-48666340D01*
X69391476Y-48666340D01*
X69225088Y-48683828D01*
X69225086Y-48683829D01*
X69218088Y-48684564D01*
X69046379Y-48743018D01*
X69040375Y-48746712D01*
X68897895Y-48834366D01*
X68897892Y-48834368D01*
X68891888Y-48838062D01*
X68886853Y-48842993D01*
X68886850Y-48842995D01*
X68784293Y-48943427D01*
X68762293Y-48964971D01*
X68761467Y-48964127D01*
X68708643Y-49000342D01*
X68637678Y-49002457D01*
X68576835Y-48965869D01*
X68555929Y-48934999D01*
X68554063Y-48931104D01*
X68551745Y-48924448D01*
X68455626Y-48770624D01*
X68433087Y-48747927D01*
X68332778Y-48646915D01*
X68332774Y-48646912D01*
X68327815Y-48641918D01*
X68316697Y-48634862D01*
X68268538Y-48604300D01*
X68174666Y-48544727D01*
X68106696Y-48520524D01*
X68010425Y-48486243D01*
X68010420Y-48486242D01*
X68003790Y-48483881D01*
X67996802Y-48483048D01*
X67996799Y-48483047D01*
X67852696Y-48465864D01*
X67823680Y-48462404D01*
X67816677Y-48463140D01*
X67816676Y-48463140D01*
X67650288Y-48480628D01*
X67650286Y-48480629D01*
X67643288Y-48481364D01*
X67471579Y-48539818D01*
X67444788Y-48556300D01*
X67323095Y-48631166D01*
X67323092Y-48631168D01*
X67317088Y-48634862D01*
X67312053Y-48639793D01*
X67312050Y-48639795D01*
X67201630Y-48747927D01*
X67187493Y-48761771D01*
X67089235Y-48914238D01*
X67086826Y-48920858D01*
X67086824Y-48920861D01*
X67031545Y-49072740D01*
X67027197Y-49084685D01*
X67004463Y-49264640D01*
X65770473Y-49264640D01*
X65724425Y-49248243D01*
X65724420Y-49248242D01*
X65717790Y-49245881D01*
X65710802Y-49245048D01*
X65710799Y-49245047D01*
X65569195Y-49228162D01*
X65537680Y-49224404D01*
X65530677Y-49225140D01*
X65530676Y-49225140D01*
X65364288Y-49242628D01*
X65364286Y-49242629D01*
X65357288Y-49243364D01*
X65185579Y-49301818D01*
X65135357Y-49332715D01*
X65037095Y-49393166D01*
X65037092Y-49393168D01*
X65031088Y-49396862D01*
X65026053Y-49401793D01*
X65026050Y-49401795D01*
X64916713Y-49508866D01*
X64901493Y-49523771D01*
X64803235Y-49676238D01*
X64800826Y-49682858D01*
X64800824Y-49682861D01*
X64756790Y-49803843D01*
X64741197Y-49846685D01*
X64718463Y-50026640D01*
X59761879Y-50026640D01*
X59767248Y-49988439D01*
X59767248Y-49988436D01*
X59767799Y-49984517D01*
X59768116Y-49961800D01*
X59747897Y-49781545D01*
X59744721Y-49772424D01*
X59690564Y-49616906D01*
X59690562Y-49616903D01*
X59688245Y-49610248D01*
X59620553Y-49501917D01*
X59595859Y-49462398D01*
X59592126Y-49456424D01*
X59585610Y-49449862D01*
X59469278Y-49332715D01*
X59469274Y-49332712D01*
X59464315Y-49327718D01*
X59453197Y-49320662D01*
X59372538Y-49269475D01*
X59311166Y-49230527D01*
X59281963Y-49220128D01*
X59146925Y-49172043D01*
X59146920Y-49172042D01*
X59140290Y-49169681D01*
X59133302Y-49168848D01*
X59133299Y-49168847D01*
X58991695Y-49151962D01*
X58960180Y-49148204D01*
X58953177Y-49148940D01*
X58953176Y-49148940D01*
X58786788Y-49166428D01*
X58786786Y-49166429D01*
X58779788Y-49167164D01*
X58608079Y-49225618D01*
X58562657Y-49253562D01*
X58459595Y-49316966D01*
X58459592Y-49316968D01*
X58453588Y-49320662D01*
X58448553Y-49325593D01*
X58448550Y-49325595D01*
X58329025Y-49442643D01*
X58323993Y-49447571D01*
X58225735Y-49600038D01*
X58223326Y-49606658D01*
X58223324Y-49606661D01*
X58170011Y-49753138D01*
X58163697Y-49770485D01*
X58140963Y-49950440D01*
X49324593Y-49950440D01*
X49308497Y-49806945D01*
X49305724Y-49798982D01*
X49251164Y-49642306D01*
X49251162Y-49642303D01*
X49248845Y-49635648D01*
X49233187Y-49610590D01*
X49156459Y-49487798D01*
X49152726Y-49481824D01*
X49143935Y-49472971D01*
X49029878Y-49358115D01*
X49029874Y-49358112D01*
X49024915Y-49353118D01*
X49013797Y-49346062D01*
X48949900Y-49305512D01*
X48871766Y-49255927D01*
X48829189Y-49240766D01*
X48707525Y-49197443D01*
X48707520Y-49197442D01*
X48700890Y-49195081D01*
X48693902Y-49194248D01*
X48693899Y-49194247D01*
X48570798Y-49179568D01*
X48520780Y-49173604D01*
X48513777Y-49174340D01*
X48513776Y-49174340D01*
X48347388Y-49191828D01*
X48347386Y-49191829D01*
X48340388Y-49192564D01*
X48168679Y-49251018D01*
X48116999Y-49282812D01*
X48020195Y-49342366D01*
X48020192Y-49342368D01*
X48014188Y-49346062D01*
X48009153Y-49350993D01*
X48009150Y-49350995D01*
X47889625Y-49468043D01*
X47884593Y-49472971D01*
X47786335Y-49625438D01*
X47783926Y-49632058D01*
X47783924Y-49632061D01*
X47739856Y-49753138D01*
X47724297Y-49795885D01*
X47701563Y-49975840D01*
X15748000Y-49975840D01*
X15748000Y-47766040D01*
X89407263Y-47766040D01*
X89424963Y-47946560D01*
X89482218Y-48118673D01*
X89485865Y-48124695D01*
X89485866Y-48124697D01*
X89571734Y-48266482D01*
X89576180Y-48273824D01*
X89702182Y-48404302D01*
X89708078Y-48408160D01*
X89824657Y-48484447D01*
X89853959Y-48503622D01*
X89860563Y-48506078D01*
X89860565Y-48506079D01*
X90017358Y-48564390D01*
X90017360Y-48564390D01*
X90023968Y-48566848D01*
X90107795Y-48578033D01*
X90196780Y-48589907D01*
X90196784Y-48589907D01*
X90203761Y-48590838D01*
X90210772Y-48590200D01*
X90210776Y-48590200D01*
X90353259Y-48577232D01*
X90384400Y-48574398D01*
X90391102Y-48572220D01*
X90391104Y-48572220D01*
X90550209Y-48520524D01*
X90550212Y-48520523D01*
X90556908Y-48518347D01*
X90712712Y-48425469D01*
X90844066Y-48300382D01*
X90944443Y-48149302D01*
X90998357Y-48007375D01*
X91006355Y-47986320D01*
X91006356Y-47986318D01*
X91008855Y-47979738D01*
X91009835Y-47972766D01*
X91033548Y-47804039D01*
X91033548Y-47804036D01*
X91034099Y-47800117D01*
X91034416Y-47777400D01*
X91029339Y-47732140D01*
X96393263Y-47732140D01*
X96410963Y-47912660D01*
X96468218Y-48084773D01*
X96471865Y-48090795D01*
X96471866Y-48090797D01*
X96510712Y-48154939D01*
X96562180Y-48239924D01*
X96567069Y-48244987D01*
X96567070Y-48244988D01*
X96592519Y-48271341D01*
X96688182Y-48370402D01*
X96713105Y-48386711D01*
X96829901Y-48463140D01*
X96839959Y-48469722D01*
X96846563Y-48472178D01*
X96846565Y-48472179D01*
X97003358Y-48530490D01*
X97003360Y-48530490D01*
X97009968Y-48532948D01*
X97082305Y-48542600D01*
X97182780Y-48556007D01*
X97182784Y-48556007D01*
X97189761Y-48556938D01*
X97196772Y-48556300D01*
X97196776Y-48556300D01*
X97339259Y-48543332D01*
X97370400Y-48540498D01*
X97377102Y-48538320D01*
X97377104Y-48538320D01*
X97536209Y-48486624D01*
X97536212Y-48486623D01*
X97542908Y-48484447D01*
X97649994Y-48420611D01*
X97692660Y-48395177D01*
X97692662Y-48395176D01*
X97698712Y-48391569D01*
X97830066Y-48266482D01*
X97930443Y-48115402D01*
X97981595Y-47980746D01*
X97992355Y-47952420D01*
X97992356Y-47952418D01*
X97994855Y-47945838D01*
X97995835Y-47938866D01*
X98019548Y-47770139D01*
X98019548Y-47770136D01*
X98020099Y-47766217D01*
X98020416Y-47743500D01*
X98000197Y-47563245D01*
X97996510Y-47552657D01*
X97942864Y-47398606D01*
X97942862Y-47398603D01*
X97940545Y-47391948D01*
X97934165Y-47381738D01*
X97848159Y-47244098D01*
X97844426Y-47238124D01*
X97816793Y-47210297D01*
X97721578Y-47114415D01*
X97721574Y-47114412D01*
X97716615Y-47109418D01*
X97705497Y-47102362D01*
X97636168Y-47058365D01*
X97563466Y-47012227D01*
X97494426Y-46987643D01*
X97399225Y-46953743D01*
X97399220Y-46953742D01*
X97392590Y-46951381D01*
X97385602Y-46950548D01*
X97385599Y-46950547D01*
X97229210Y-46931899D01*
X97212480Y-46929904D01*
X97205477Y-46930640D01*
X97205476Y-46930640D01*
X97039088Y-46948128D01*
X97039086Y-46948129D01*
X97032088Y-46948864D01*
X96860379Y-47007318D01*
X96808967Y-47038947D01*
X96711895Y-47098666D01*
X96711892Y-47098668D01*
X96705888Y-47102362D01*
X96700853Y-47107293D01*
X96700850Y-47107295D01*
X96581325Y-47224343D01*
X96576293Y-47229271D01*
X96478035Y-47381738D01*
X96475626Y-47388358D01*
X96475624Y-47388361D01*
X96461980Y-47425848D01*
X96415997Y-47552185D01*
X96393263Y-47732140D01*
X91029339Y-47732140D01*
X91014197Y-47597145D01*
X91011438Y-47589222D01*
X90956864Y-47432506D01*
X90956862Y-47432503D01*
X90954545Y-47425848D01*
X90944462Y-47409712D01*
X90862159Y-47277998D01*
X90858426Y-47272024D01*
X90844741Y-47258243D01*
X90735578Y-47148315D01*
X90735574Y-47148312D01*
X90730615Y-47143318D01*
X90719497Y-47136262D01*
X90618109Y-47071920D01*
X90577466Y-47046127D01*
X90538242Y-47032160D01*
X90413225Y-46987643D01*
X90413220Y-46987642D01*
X90406590Y-46985281D01*
X90399602Y-46984448D01*
X90399599Y-46984447D01*
X90276498Y-46969768D01*
X90226480Y-46963804D01*
X90219477Y-46964540D01*
X90219476Y-46964540D01*
X90053088Y-46982028D01*
X90053086Y-46982029D01*
X90046088Y-46982764D01*
X89874379Y-47041218D01*
X89868375Y-47044912D01*
X89725895Y-47132566D01*
X89725892Y-47132568D01*
X89719888Y-47136262D01*
X89714853Y-47141193D01*
X89714850Y-47141195D01*
X89595325Y-47258243D01*
X89590293Y-47263171D01*
X89492035Y-47415638D01*
X89489626Y-47422258D01*
X89489624Y-47422261D01*
X89442164Y-47552657D01*
X89429997Y-47586085D01*
X89407263Y-47766040D01*
X15748000Y-47766040D01*
X15748000Y-46851640D01*
X62663763Y-46851640D01*
X62681463Y-47032160D01*
X62738718Y-47204273D01*
X62742365Y-47210295D01*
X62742366Y-47210297D01*
X62819952Y-47338407D01*
X62832680Y-47359424D01*
X62837569Y-47364487D01*
X62837570Y-47364488D01*
X62891051Y-47419869D01*
X62958682Y-47489902D01*
X62964578Y-47493760D01*
X63081458Y-47570244D01*
X63110459Y-47589222D01*
X63117063Y-47591678D01*
X63117065Y-47591679D01*
X63273858Y-47649990D01*
X63273860Y-47649990D01*
X63280468Y-47652448D01*
X63364295Y-47663633D01*
X63453280Y-47675507D01*
X63453284Y-47675507D01*
X63460261Y-47676438D01*
X63467272Y-47675800D01*
X63467276Y-47675800D01*
X63609759Y-47662832D01*
X63640900Y-47659998D01*
X63647602Y-47657820D01*
X63647604Y-47657820D01*
X63806709Y-47606124D01*
X63806712Y-47606123D01*
X63813408Y-47603947D01*
X63969212Y-47511069D01*
X64100566Y-47385982D01*
X64200943Y-47234902D01*
X64249417Y-47107295D01*
X64262855Y-47071920D01*
X64262856Y-47071918D01*
X64265355Y-47065338D01*
X64275019Y-46996572D01*
X64304307Y-46931899D01*
X64360856Y-46894276D01*
X64470492Y-46858653D01*
X64515209Y-46844124D01*
X64515212Y-46844123D01*
X64521908Y-46841947D01*
X64618313Y-46784478D01*
X64671660Y-46752677D01*
X64671662Y-46752676D01*
X64677712Y-46749069D01*
X64809066Y-46623982D01*
X64810134Y-46622375D01*
X113429983Y-46622375D01*
X113448972Y-46839419D01*
X113450875Y-46850212D01*
X113507264Y-47060661D01*
X113511010Y-47070953D01*
X113603086Y-47268411D01*
X113608569Y-47277906D01*
X113645009Y-47329948D01*
X113655488Y-47338324D01*
X113668934Y-47331256D01*
X114370478Y-46629712D01*
X114376856Y-46618032D01*
X115106908Y-46618032D01*
X115107039Y-46619865D01*
X115111290Y-46626480D01*
X115816787Y-47331977D01*
X115828562Y-47338407D01*
X115840577Y-47329111D01*
X115876431Y-47277906D01*
X115881914Y-47268411D01*
X115973990Y-47070953D01*
X115977736Y-47060661D01*
X116034125Y-46850212D01*
X116036028Y-46839419D01*
X116055017Y-46622375D01*
X116055017Y-46611425D01*
X116036028Y-46394381D01*
X116034125Y-46383588D01*
X115977736Y-46173139D01*
X115973990Y-46162847D01*
X115881914Y-45965389D01*
X115876431Y-45955894D01*
X115839991Y-45903852D01*
X115829512Y-45895476D01*
X115816066Y-45902544D01*
X115114522Y-46604088D01*
X115106908Y-46618032D01*
X114376856Y-46618032D01*
X114378092Y-46615768D01*
X114377961Y-46613935D01*
X114373710Y-46607320D01*
X113668213Y-45901823D01*
X113656438Y-45895393D01*
X113644423Y-45904689D01*
X113608569Y-45955894D01*
X113603086Y-45965389D01*
X113511010Y-46162847D01*
X113507264Y-46173139D01*
X113450875Y-46383588D01*
X113448972Y-46394381D01*
X113429983Y-46611425D01*
X113429983Y-46622375D01*
X64810134Y-46622375D01*
X64909443Y-46472902D01*
X64954347Y-46354693D01*
X64971355Y-46309920D01*
X64971356Y-46309918D01*
X64973855Y-46303338D01*
X64983572Y-46234201D01*
X64998548Y-46127639D01*
X64998548Y-46127636D01*
X64999099Y-46123717D01*
X64999416Y-46101000D01*
X64979197Y-45920745D01*
X64976880Y-45914091D01*
X64921864Y-45756106D01*
X64921862Y-45756103D01*
X64919545Y-45749448D01*
X64873546Y-45675833D01*
X64827159Y-45601598D01*
X64823426Y-45595624D01*
X64818464Y-45590627D01*
X64700578Y-45471915D01*
X64700574Y-45471912D01*
X64695615Y-45466918D01*
X64684694Y-45459987D01*
X64606322Y-45410251D01*
X64542466Y-45369727D01*
X64497923Y-45353866D01*
X64378225Y-45311243D01*
X64378220Y-45311242D01*
X64371590Y-45308881D01*
X64364602Y-45308048D01*
X64364599Y-45308047D01*
X64241498Y-45293368D01*
X64191480Y-45287404D01*
X64184477Y-45288140D01*
X64184476Y-45288140D01*
X64018088Y-45305628D01*
X64018086Y-45305629D01*
X64011088Y-45306364D01*
X63839379Y-45364818D01*
X63776909Y-45403250D01*
X63690895Y-45456166D01*
X63690892Y-45456168D01*
X63684888Y-45459862D01*
X63679853Y-45464793D01*
X63679850Y-45464795D01*
X63599649Y-45543334D01*
X63555293Y-45586771D01*
X63457035Y-45739238D01*
X63454626Y-45745858D01*
X63454624Y-45745861D01*
X63397596Y-45902544D01*
X63394997Y-45909685D01*
X63394114Y-45916675D01*
X63388054Y-45964644D01*
X63359672Y-46029721D01*
X63302433Y-46067908D01*
X63302588Y-46068364D01*
X63299476Y-46069423D01*
X63299470Y-46069425D01*
X63195081Y-46104962D01*
X63130879Y-46126818D01*
X63124875Y-46130512D01*
X62982395Y-46218166D01*
X62982392Y-46218168D01*
X62976388Y-46221862D01*
X62971353Y-46226793D01*
X62971350Y-46226795D01*
X62886466Y-46309920D01*
X62846793Y-46348771D01*
X62748535Y-46501238D01*
X62746126Y-46507858D01*
X62746124Y-46507861D01*
X62702950Y-46626480D01*
X62686497Y-46671685D01*
X62663763Y-46851640D01*
X15748000Y-46851640D01*
X15748000Y-45236740D01*
X108152463Y-45236740D01*
X108170163Y-45417260D01*
X108227418Y-45589373D01*
X108231065Y-45595395D01*
X108231066Y-45595397D01*
X108314590Y-45733312D01*
X108321380Y-45744524D01*
X108326269Y-45749587D01*
X108326270Y-45749588D01*
X108341357Y-45765211D01*
X108447382Y-45875002D01*
X108599159Y-45974322D01*
X108605763Y-45976778D01*
X108605765Y-45976779D01*
X108762558Y-46035090D01*
X108762560Y-46035090D01*
X108769168Y-46037548D01*
X108852995Y-46048733D01*
X108941980Y-46060607D01*
X108941984Y-46060607D01*
X108948961Y-46061538D01*
X108955972Y-46060900D01*
X108955976Y-46060900D01*
X109098459Y-46047932D01*
X109129600Y-46045098D01*
X109136302Y-46042920D01*
X109136304Y-46042920D01*
X109295409Y-45991224D01*
X109295412Y-45991223D01*
X109302108Y-45989047D01*
X109404945Y-45927744D01*
X109451860Y-45899777D01*
X109451862Y-45899776D01*
X109457912Y-45896169D01*
X109589266Y-45771082D01*
X109689643Y-45620002D01*
X109741698Y-45482969D01*
X109751555Y-45457020D01*
X109751556Y-45457018D01*
X109754055Y-45450438D01*
X109755035Y-45443466D01*
X109778748Y-45274739D01*
X109778748Y-45274736D01*
X109779299Y-45270817D01*
X109779616Y-45248100D01*
X109759397Y-45067845D01*
X109757080Y-45061191D01*
X109702064Y-44903206D01*
X109702062Y-44903203D01*
X109699745Y-44896548D01*
X109603626Y-44742724D01*
X109589941Y-44728943D01*
X109480778Y-44619015D01*
X109480774Y-44619012D01*
X109475815Y-44614018D01*
X109464697Y-44606962D01*
X109407467Y-44570643D01*
X109322666Y-44516827D01*
X109271653Y-44498662D01*
X109158425Y-44458343D01*
X109158420Y-44458342D01*
X109151790Y-44455981D01*
X109144802Y-44455148D01*
X109144799Y-44455147D01*
X108998222Y-44437669D01*
X108971680Y-44434504D01*
X108964677Y-44435240D01*
X108964676Y-44435240D01*
X108798288Y-44452728D01*
X108798286Y-44452729D01*
X108791288Y-44453464D01*
X108619579Y-44511918D01*
X108589298Y-44530547D01*
X108471095Y-44603266D01*
X108471092Y-44603268D01*
X108465088Y-44606962D01*
X108460053Y-44611893D01*
X108460050Y-44611895D01*
X108340525Y-44728943D01*
X108335493Y-44733871D01*
X108237235Y-44886338D01*
X108234826Y-44892958D01*
X108234824Y-44892961D01*
X108202684Y-44981266D01*
X108175197Y-45056785D01*
X108152463Y-45236740D01*
X15748000Y-45236740D01*
X15748000Y-43778240D01*
X63898763Y-43778240D01*
X63916463Y-43958760D01*
X63973718Y-44130873D01*
X63977365Y-44136895D01*
X63977366Y-44136897D01*
X63988278Y-44154914D01*
X64067680Y-44286024D01*
X64193682Y-44416502D01*
X64226029Y-44437669D01*
X64336023Y-44509647D01*
X64345459Y-44515822D01*
X64352063Y-44518278D01*
X64352065Y-44518279D01*
X64508858Y-44576590D01*
X64508860Y-44576590D01*
X64515468Y-44579048D01*
X64599295Y-44590233D01*
X64688280Y-44602107D01*
X64688284Y-44602107D01*
X64695261Y-44603038D01*
X64702272Y-44602400D01*
X64702276Y-44602400D01*
X64844759Y-44589432D01*
X64875900Y-44586598D01*
X64882602Y-44584420D01*
X64882604Y-44584420D01*
X65041709Y-44532724D01*
X65041712Y-44532723D01*
X65048408Y-44530547D01*
X65169531Y-44458343D01*
X65198160Y-44441277D01*
X65198162Y-44441276D01*
X65204212Y-44437669D01*
X65335566Y-44312582D01*
X65435943Y-44161502D01*
X65500355Y-43991938D01*
X65503634Y-43968607D01*
X65520739Y-43846900D01*
X113429002Y-43846900D01*
X113448957Y-44074987D01*
X113450381Y-44080300D01*
X113450381Y-44080302D01*
X113505505Y-44286024D01*
X113508216Y-44296143D01*
X113510539Y-44301124D01*
X113510539Y-44301125D01*
X113602651Y-44498662D01*
X113602654Y-44498667D01*
X113604977Y-44503649D01*
X113736302Y-44691200D01*
X113898200Y-44853098D01*
X113902708Y-44856255D01*
X113902711Y-44856257D01*
X113951714Y-44890569D01*
X114085751Y-44984423D01*
X114090733Y-44986746D01*
X114090738Y-44986749D01*
X114288275Y-45078861D01*
X114293257Y-45081184D01*
X114298564Y-45082606D01*
X114402486Y-45110452D01*
X114463108Y-45147404D01*
X114494130Y-45211265D01*
X114485701Y-45281759D01*
X114440498Y-45336506D01*
X114402485Y-45353866D01*
X114298739Y-45381664D01*
X114288447Y-45385410D01*
X114090989Y-45477486D01*
X114081494Y-45482969D01*
X114029452Y-45519409D01*
X114021076Y-45529888D01*
X114028144Y-45543334D01*
X114729688Y-46244878D01*
X114743632Y-46252492D01*
X114745465Y-46252361D01*
X114752080Y-46248110D01*
X115457577Y-45542613D01*
X115464007Y-45530838D01*
X115454711Y-45518823D01*
X115403506Y-45482969D01*
X115394011Y-45477486D01*
X115196553Y-45385410D01*
X115186261Y-45381664D01*
X115082515Y-45353866D01*
X115021892Y-45316915D01*
X114990871Y-45253054D01*
X114999299Y-45182560D01*
X115044502Y-45127812D01*
X115082514Y-45110452D01*
X115186436Y-45082606D01*
X115191743Y-45081184D01*
X115196725Y-45078861D01*
X115394262Y-44986749D01*
X115394267Y-44986746D01*
X115399249Y-44984423D01*
X115533286Y-44890569D01*
X115582289Y-44856257D01*
X115582292Y-44856255D01*
X115586800Y-44853098D01*
X115748698Y-44691200D01*
X115880023Y-44503649D01*
X115882346Y-44498667D01*
X115882349Y-44498662D01*
X115974461Y-44301125D01*
X115974461Y-44301124D01*
X115976784Y-44296143D01*
X115979496Y-44286024D01*
X116034619Y-44080302D01*
X116034619Y-44080300D01*
X116036043Y-44074987D01*
X116055998Y-43846900D01*
X116036043Y-43618813D01*
X116033506Y-43609345D01*
X115978207Y-43402967D01*
X115978206Y-43402965D01*
X115976784Y-43397657D01*
X115974461Y-43392675D01*
X115882349Y-43195138D01*
X115882346Y-43195133D01*
X115880023Y-43190151D01*
X115748698Y-43002600D01*
X115586800Y-42840702D01*
X115582292Y-42837545D01*
X115582289Y-42837543D01*
X115504111Y-42782802D01*
X115399249Y-42709377D01*
X115394267Y-42707054D01*
X115394262Y-42707051D01*
X115196725Y-42614939D01*
X115196724Y-42614939D01*
X115191743Y-42612616D01*
X115082514Y-42583348D01*
X115021892Y-42546396D01*
X114990870Y-42482535D01*
X114999299Y-42412041D01*
X115044502Y-42357294D01*
X115082515Y-42339934D01*
X115186261Y-42312136D01*
X115196553Y-42308390D01*
X115394011Y-42216314D01*
X115403506Y-42210831D01*
X115455548Y-42174391D01*
X115463924Y-42163912D01*
X115456856Y-42150466D01*
X114755312Y-41448922D01*
X114741368Y-41441308D01*
X114739535Y-41441439D01*
X114732920Y-41445690D01*
X114027423Y-42151187D01*
X114020993Y-42162962D01*
X114030289Y-42174977D01*
X114081494Y-42210831D01*
X114090989Y-42216314D01*
X114288447Y-42308390D01*
X114298739Y-42312136D01*
X114402485Y-42339934D01*
X114463108Y-42376885D01*
X114494129Y-42440746D01*
X114485701Y-42511240D01*
X114440498Y-42565988D01*
X114402486Y-42583348D01*
X114293257Y-42612616D01*
X114288276Y-42614939D01*
X114288275Y-42614939D01*
X114090738Y-42707051D01*
X114090733Y-42707054D01*
X114085751Y-42709377D01*
X113980889Y-42782802D01*
X113902711Y-42837543D01*
X113902708Y-42837545D01*
X113898200Y-42840702D01*
X113736302Y-43002600D01*
X113604977Y-43190151D01*
X113602654Y-43195133D01*
X113602651Y-43195138D01*
X113510539Y-43392675D01*
X113508216Y-43397657D01*
X113506794Y-43402965D01*
X113506793Y-43402967D01*
X113451494Y-43609345D01*
X113448957Y-43618813D01*
X113429002Y-43846900D01*
X65520739Y-43846900D01*
X65525048Y-43816239D01*
X65525048Y-43816236D01*
X65525599Y-43812317D01*
X65525916Y-43789600D01*
X65505697Y-43609345D01*
X65502242Y-43599423D01*
X65448364Y-43444706D01*
X65448362Y-43444703D01*
X65446045Y-43438048D01*
X65349926Y-43284224D01*
X65336241Y-43270443D01*
X65227078Y-43160515D01*
X65227074Y-43160512D01*
X65222115Y-43155518D01*
X65210997Y-43148462D01*
X65156160Y-43113662D01*
X65068966Y-43058327D01*
X65039763Y-43047928D01*
X64904725Y-42999843D01*
X64904720Y-42999842D01*
X64898090Y-42997481D01*
X64891102Y-42996648D01*
X64891099Y-42996647D01*
X64767998Y-42981968D01*
X64717980Y-42976004D01*
X64710977Y-42976740D01*
X64710976Y-42976740D01*
X64544588Y-42994228D01*
X64544586Y-42994229D01*
X64537588Y-42994964D01*
X64365879Y-43053418D01*
X64359875Y-43057112D01*
X64217395Y-43144766D01*
X64217392Y-43144768D01*
X64211388Y-43148462D01*
X64206353Y-43153393D01*
X64206350Y-43153395D01*
X64163724Y-43195138D01*
X64081793Y-43275371D01*
X63983535Y-43427838D01*
X63981126Y-43434458D01*
X63981124Y-43434461D01*
X63923906Y-43591666D01*
X63921497Y-43598285D01*
X63898763Y-43778240D01*
X15748000Y-43778240D01*
X15748000Y-41178940D01*
X101090463Y-41178940D01*
X101108163Y-41359460D01*
X101165418Y-41531573D01*
X101169065Y-41537595D01*
X101169066Y-41537597D01*
X101179978Y-41555614D01*
X101259380Y-41686724D01*
X101385382Y-41817202D01*
X101537159Y-41916522D01*
X101543763Y-41918978D01*
X101543765Y-41918979D01*
X101700558Y-41977290D01*
X101700560Y-41977290D01*
X101707168Y-41979748D01*
X101790995Y-41990933D01*
X101879980Y-42002807D01*
X101879984Y-42002807D01*
X101886961Y-42003738D01*
X101893972Y-42003100D01*
X101893976Y-42003100D01*
X102036459Y-41990132D01*
X102067600Y-41987298D01*
X102074302Y-41985120D01*
X102074304Y-41985120D01*
X102233409Y-41933424D01*
X102233412Y-41933423D01*
X102240108Y-41931247D01*
X102395912Y-41838369D01*
X102527266Y-41713282D01*
X102627643Y-41562202D01*
X102669423Y-41452217D01*
X102689555Y-41399220D01*
X102689556Y-41399218D01*
X102692055Y-41392638D01*
X102693035Y-41385666D01*
X102716748Y-41216939D01*
X102716748Y-41216936D01*
X102717299Y-41213017D01*
X102717616Y-41190300D01*
X102705510Y-41082375D01*
X113429983Y-41082375D01*
X113448972Y-41299419D01*
X113450875Y-41310212D01*
X113507264Y-41520661D01*
X113511010Y-41530953D01*
X113603086Y-41728411D01*
X113608569Y-41737906D01*
X113645009Y-41789948D01*
X113655488Y-41798324D01*
X113668934Y-41791256D01*
X114370478Y-41089712D01*
X114376856Y-41078032D01*
X115106908Y-41078032D01*
X115107039Y-41079865D01*
X115111290Y-41086480D01*
X115816787Y-41791977D01*
X115828562Y-41798407D01*
X115840577Y-41789111D01*
X115876431Y-41737906D01*
X115881914Y-41728411D01*
X115973990Y-41530953D01*
X115977736Y-41520661D01*
X116034125Y-41310212D01*
X116036028Y-41299419D01*
X116055017Y-41082375D01*
X116055017Y-41071425D01*
X116036028Y-40854381D01*
X116034125Y-40843588D01*
X115977736Y-40633139D01*
X115973990Y-40622847D01*
X115881914Y-40425389D01*
X115876431Y-40415894D01*
X115839991Y-40363852D01*
X115829512Y-40355476D01*
X115816066Y-40362544D01*
X115114522Y-41064088D01*
X115106908Y-41078032D01*
X114376856Y-41078032D01*
X114378092Y-41075768D01*
X114377961Y-41073935D01*
X114373710Y-41067320D01*
X113668213Y-40361823D01*
X113656438Y-40355393D01*
X113644423Y-40364689D01*
X113608569Y-40415894D01*
X113603086Y-40425389D01*
X113511010Y-40622847D01*
X113507264Y-40633139D01*
X113450875Y-40843588D01*
X113448972Y-40854381D01*
X113429983Y-41071425D01*
X113429983Y-41082375D01*
X102705510Y-41082375D01*
X102697397Y-41010045D01*
X102695080Y-41003391D01*
X102640064Y-40845406D01*
X102640062Y-40845403D01*
X102637745Y-40838748D01*
X102541626Y-40684924D01*
X102527941Y-40671143D01*
X102418778Y-40561215D01*
X102418774Y-40561212D01*
X102413815Y-40556218D01*
X102402697Y-40549162D01*
X102354538Y-40518600D01*
X102260666Y-40459027D01*
X102231463Y-40448628D01*
X102096425Y-40400543D01*
X102096420Y-40400542D01*
X102089790Y-40398181D01*
X102082802Y-40397348D01*
X102082799Y-40397347D01*
X101959698Y-40382668D01*
X101909680Y-40376704D01*
X101902677Y-40377440D01*
X101902676Y-40377440D01*
X101736288Y-40394928D01*
X101736286Y-40394929D01*
X101729288Y-40395664D01*
X101557579Y-40454118D01*
X101551575Y-40457812D01*
X101409095Y-40545466D01*
X101409092Y-40545468D01*
X101403088Y-40549162D01*
X101398053Y-40554093D01*
X101398050Y-40554095D01*
X101278525Y-40671143D01*
X101273493Y-40676071D01*
X101175235Y-40828538D01*
X101172826Y-40835158D01*
X101172824Y-40835161D01*
X101115606Y-40992366D01*
X101113197Y-40998985D01*
X101090463Y-41178940D01*
X15748000Y-41178940D01*
X15748000Y-39989888D01*
X114021076Y-39989888D01*
X114028144Y-40003334D01*
X114729688Y-40704878D01*
X114743632Y-40712492D01*
X114745465Y-40712361D01*
X114752080Y-40708110D01*
X115457577Y-40002613D01*
X115464007Y-39990838D01*
X115454711Y-39978823D01*
X115403506Y-39942969D01*
X115394011Y-39937486D01*
X115196553Y-39845410D01*
X115186261Y-39841664D01*
X114975812Y-39785275D01*
X114965019Y-39783372D01*
X114747975Y-39764383D01*
X114737025Y-39764383D01*
X114519981Y-39783372D01*
X114509188Y-39785275D01*
X114298739Y-39841664D01*
X114288447Y-39845410D01*
X114090989Y-39937486D01*
X114081494Y-39942969D01*
X114029452Y-39979409D01*
X114021076Y-39989888D01*
X15748000Y-39989888D01*
X15748000Y-37199640D01*
X63042063Y-37199640D01*
X63059763Y-37380160D01*
X63117018Y-37552273D01*
X63120665Y-37558295D01*
X63120666Y-37558297D01*
X63192446Y-37676820D01*
X63210980Y-37707424D01*
X63336982Y-37837902D01*
X63488759Y-37937222D01*
X63495363Y-37939678D01*
X63495365Y-37939679D01*
X63652158Y-37997990D01*
X63652160Y-37997990D01*
X63658768Y-38000448D01*
X63727328Y-38009596D01*
X63831580Y-38023507D01*
X63831584Y-38023507D01*
X63838561Y-38024438D01*
X63845572Y-38023800D01*
X63845576Y-38023800D01*
X64019200Y-38007998D01*
X64019345Y-38009596D01*
X64081679Y-38014796D01*
X64126890Y-38044795D01*
X64175182Y-38094802D01*
X64326959Y-38194122D01*
X64333563Y-38196578D01*
X64333565Y-38196579D01*
X64490358Y-38254890D01*
X64490360Y-38254890D01*
X64496968Y-38257348D01*
X64580795Y-38268533D01*
X64669780Y-38280407D01*
X64669784Y-38280407D01*
X64676761Y-38281338D01*
X64683772Y-38280700D01*
X64683776Y-38280700D01*
X64826259Y-38267732D01*
X64857400Y-38264898D01*
X64864102Y-38262720D01*
X64864104Y-38262720D01*
X65023209Y-38211024D01*
X65023212Y-38211023D01*
X65029908Y-38208847D01*
X65185712Y-38115969D01*
X65317066Y-37990882D01*
X65417443Y-37839802D01*
X65481855Y-37670238D01*
X65507099Y-37490617D01*
X65507416Y-37467900D01*
X65487197Y-37287645D01*
X65478095Y-37261507D01*
X65429864Y-37123006D01*
X65429862Y-37123003D01*
X65427545Y-37116348D01*
X65412463Y-37092211D01*
X65335159Y-36968498D01*
X65331426Y-36962524D01*
X65218928Y-36849238D01*
X65208578Y-36838815D01*
X65208574Y-36838812D01*
X65203615Y-36833818D01*
X65050466Y-36736627D01*
X65021263Y-36726228D01*
X64886225Y-36678143D01*
X64886220Y-36678142D01*
X64879590Y-36675781D01*
X64872602Y-36674948D01*
X64872599Y-36674947D01*
X64729804Y-36657920D01*
X64699480Y-36654304D01*
X64692477Y-36655040D01*
X64692475Y-36655040D01*
X64526610Y-36672473D01*
X64456772Y-36659701D01*
X64424035Y-36635947D01*
X64370383Y-36581919D01*
X64370374Y-36581912D01*
X64365415Y-36576918D01*
X64354297Y-36569862D01*
X64290050Y-36529090D01*
X64212266Y-36479727D01*
X64137101Y-36452962D01*
X64048025Y-36421243D01*
X64048020Y-36421242D01*
X64041390Y-36418881D01*
X64034402Y-36418048D01*
X64034399Y-36418047D01*
X63911298Y-36403368D01*
X63861280Y-36397404D01*
X63854277Y-36398140D01*
X63854276Y-36398140D01*
X63687888Y-36415628D01*
X63687886Y-36415629D01*
X63680888Y-36416364D01*
X63509179Y-36474818D01*
X63456311Y-36507343D01*
X63360695Y-36566166D01*
X63360692Y-36566168D01*
X63354688Y-36569862D01*
X63349653Y-36574793D01*
X63349650Y-36574795D01*
X63234216Y-36687837D01*
X63225093Y-36696771D01*
X63126835Y-36849238D01*
X63124426Y-36855858D01*
X63124424Y-36855861D01*
X63080391Y-36976841D01*
X63064797Y-37019685D01*
X63042063Y-37199640D01*
X15748000Y-37199640D01*
X15748000Y-35777240D01*
X65251863Y-35777240D01*
X65269563Y-35957760D01*
X65326818Y-36129873D01*
X65330465Y-36135895D01*
X65330466Y-36135897D01*
X65405781Y-36260257D01*
X65420780Y-36285024D01*
X65425669Y-36290087D01*
X65425670Y-36290088D01*
X65502521Y-36369668D01*
X65546782Y-36415502D01*
X65698559Y-36514822D01*
X65705163Y-36517278D01*
X65705165Y-36517279D01*
X65861958Y-36575590D01*
X65861960Y-36575590D01*
X65868568Y-36578048D01*
X65952395Y-36589233D01*
X66041380Y-36601107D01*
X66041384Y-36601107D01*
X66048361Y-36602038D01*
X66055372Y-36601400D01*
X66055376Y-36601400D01*
X66197859Y-36588432D01*
X66229000Y-36585598D01*
X66235700Y-36583421D01*
X66235705Y-36583420D01*
X66396677Y-36531117D01*
X66467645Y-36529090D01*
X66504606Y-36545518D01*
X66566225Y-36585840D01*
X66612959Y-36616422D01*
X66619563Y-36618878D01*
X66619565Y-36618879D01*
X66776358Y-36677190D01*
X66776360Y-36677190D01*
X66782968Y-36679648D01*
X66866795Y-36690833D01*
X66955780Y-36702707D01*
X66955784Y-36702707D01*
X66962761Y-36703638D01*
X66969772Y-36703000D01*
X66969776Y-36703000D01*
X67112259Y-36690032D01*
X67143400Y-36687198D01*
X67150102Y-36685020D01*
X67150104Y-36685020D01*
X67242071Y-36655138D01*
X67303468Y-36635189D01*
X67374434Y-36633161D01*
X67435232Y-36669824D01*
X67461961Y-36715250D01*
X67486918Y-36790273D01*
X67490565Y-36796295D01*
X67490566Y-36796297D01*
X67513290Y-36833818D01*
X67580880Y-36945424D01*
X67585769Y-36950487D01*
X67585770Y-36950488D01*
X67659344Y-37026675D01*
X67706882Y-37075902D01*
X67858659Y-37175222D01*
X67865263Y-37177678D01*
X67865265Y-37177679D01*
X68022058Y-37235990D01*
X68022060Y-37235990D01*
X68028668Y-37238448D01*
X68112495Y-37249633D01*
X68201480Y-37261507D01*
X68201484Y-37261507D01*
X68208461Y-37262438D01*
X68215472Y-37261800D01*
X68215476Y-37261800D01*
X68357959Y-37248832D01*
X68389100Y-37245998D01*
X68395802Y-37243820D01*
X68395804Y-37243820D01*
X68554909Y-37192124D01*
X68554912Y-37192123D01*
X68561608Y-37189947D01*
X68717412Y-37097069D01*
X68848766Y-36971982D01*
X68949143Y-36820902D01*
X68994047Y-36702693D01*
X69011055Y-36657920D01*
X69011056Y-36657918D01*
X69013555Y-36651338D01*
X69020573Y-36601400D01*
X69038248Y-36475639D01*
X69038248Y-36475636D01*
X69038799Y-36471717D01*
X69039116Y-36449000D01*
X69018897Y-36268745D01*
X68992809Y-36193831D01*
X68961564Y-36104106D01*
X68961562Y-36104103D01*
X68959245Y-36097448D01*
X68890126Y-35986834D01*
X98154100Y-35986834D01*
X98160855Y-36049016D01*
X98211985Y-36185405D01*
X98299339Y-36301961D01*
X98415895Y-36389315D01*
X98552284Y-36440445D01*
X98614466Y-36447200D01*
X101110734Y-36447200D01*
X101172916Y-36440445D01*
X101309305Y-36389315D01*
X101425861Y-36301961D01*
X101513215Y-36185405D01*
X101564345Y-36049016D01*
X101571100Y-35986834D01*
X101571100Y-35515037D01*
X101591102Y-35446916D01*
X101644758Y-35400423D01*
X101715032Y-35390319D01*
X101779612Y-35419813D01*
X101808092Y-35455399D01*
X101914604Y-35653628D01*
X101917625Y-35659251D01*
X101920420Y-35662994D01*
X101920422Y-35662997D01*
X102066771Y-35858982D01*
X102066776Y-35858988D01*
X102069563Y-35862720D01*
X102072872Y-35866000D01*
X102072877Y-35866006D01*
X102246590Y-36038209D01*
X102249907Y-36041497D01*
X102253669Y-36044255D01*
X102253672Y-36044258D01*
X102378652Y-36135897D01*
X102454694Y-36191653D01*
X102458829Y-36193829D01*
X102458833Y-36193831D01*
X102540422Y-36236757D01*
X102679427Y-36309891D01*
X102919168Y-36393612D01*
X103168650Y-36440978D01*
X103289132Y-36445711D01*
X103417725Y-36450764D01*
X103417730Y-36450764D01*
X103422393Y-36450947D01*
X103521374Y-36440107D01*
X103670169Y-36423812D01*
X103670175Y-36423811D01*
X103674822Y-36423302D01*
X103784280Y-36394484D01*
X103915873Y-36359838D01*
X103920393Y-36358648D01*
X104145138Y-36262091D01*
X104149407Y-36260257D01*
X104149410Y-36260255D01*
X104153710Y-36258408D01*
X104157690Y-36255945D01*
X104157694Y-36255943D01*
X104365664Y-36127247D01*
X104365666Y-36127245D01*
X104369647Y-36124782D01*
X104394071Y-36104106D01*
X104559889Y-35963731D01*
X104559891Y-35963729D01*
X104563462Y-35960706D01*
X104730895Y-35769784D01*
X104761949Y-35721506D01*
X104843786Y-35594275D01*
X104868269Y-35556212D01*
X104972567Y-35324680D01*
X105041496Y-35080275D01*
X105073543Y-34828367D01*
X105075891Y-34738700D01*
X105065245Y-34595438D01*
X105057418Y-34490111D01*
X105057417Y-34490107D01*
X105057072Y-34485459D01*
X105045840Y-34435818D01*
X105010224Y-34278424D01*
X105001028Y-34237782D01*
X104954020Y-34116900D01*
X113649040Y-34116900D01*
X113668859Y-34431920D01*
X113728005Y-34741972D01*
X113825544Y-35042166D01*
X113827231Y-35045752D01*
X113827233Y-35045756D01*
X113958250Y-35324183D01*
X113958254Y-35324190D01*
X113959938Y-35327769D01*
X114129068Y-35594275D01*
X114330267Y-35837482D01*
X114560360Y-36053554D01*
X114815721Y-36239084D01*
X114819190Y-36240991D01*
X114819193Y-36240993D01*
X115088852Y-36389240D01*
X115092321Y-36391147D01*
X115095990Y-36392600D01*
X115095995Y-36392602D01*
X115373374Y-36502424D01*
X115385798Y-36507343D01*
X115691525Y-36585840D01*
X116004679Y-36625400D01*
X116320321Y-36625400D01*
X116633475Y-36585840D01*
X116939202Y-36507343D01*
X116951626Y-36502424D01*
X117229005Y-36392602D01*
X117229010Y-36392600D01*
X117232679Y-36391147D01*
X117236148Y-36389240D01*
X117505807Y-36240993D01*
X117505810Y-36240991D01*
X117509279Y-36239084D01*
X117764640Y-36053554D01*
X117994733Y-35837482D01*
X118195932Y-35594275D01*
X118365062Y-35327769D01*
X118366746Y-35324190D01*
X118366750Y-35324183D01*
X118497767Y-35045756D01*
X118497769Y-35045752D01*
X118499456Y-35042166D01*
X118596995Y-34741972D01*
X118656141Y-34431920D01*
X118675960Y-34116900D01*
X118656141Y-33801880D01*
X118596995Y-33491828D01*
X118499456Y-33191634D01*
X118495214Y-33182619D01*
X118366750Y-32909617D01*
X118366746Y-32909610D01*
X118365062Y-32906031D01*
X118195932Y-32639525D01*
X117994733Y-32396318D01*
X117764640Y-32180246D01*
X117509279Y-31994716D01*
X117232679Y-31842653D01*
X117229010Y-31841200D01*
X117229005Y-31841198D01*
X116942872Y-31727910D01*
X116942871Y-31727910D01*
X116939202Y-31726457D01*
X116633475Y-31647960D01*
X116320321Y-31608400D01*
X116004679Y-31608400D01*
X115691525Y-31647960D01*
X115385798Y-31726457D01*
X115382129Y-31727910D01*
X115382128Y-31727910D01*
X115095995Y-31841198D01*
X115095990Y-31841200D01*
X115092321Y-31842653D01*
X114815721Y-31994716D01*
X114560360Y-32180246D01*
X114330267Y-32396318D01*
X114129068Y-32639525D01*
X113959938Y-32906031D01*
X113958254Y-32909610D01*
X113958250Y-32909617D01*
X113829786Y-33182619D01*
X113825544Y-33191634D01*
X113728005Y-33491828D01*
X113668859Y-33801880D01*
X113649040Y-34116900D01*
X104954020Y-34116900D01*
X104953899Y-34116590D01*
X104910684Y-34005462D01*
X104910683Y-34005460D01*
X104908991Y-34001109D01*
X104895421Y-33977366D01*
X104785302Y-33784697D01*
X104785300Y-33784695D01*
X104782983Y-33780640D01*
X104625771Y-33581217D01*
X104455439Y-33420985D01*
X104444210Y-33410422D01*
X104444208Y-33410420D01*
X104440809Y-33407223D01*
X104397083Y-33376889D01*
X104235993Y-33265137D01*
X104235990Y-33265135D01*
X104232161Y-33262479D01*
X104227984Y-33260419D01*
X104227977Y-33260415D01*
X104008596Y-33152228D01*
X104008592Y-33152227D01*
X104004410Y-33150164D01*
X103762560Y-33072747D01*
X103757955Y-33071997D01*
X103516535Y-33032680D01*
X103516534Y-33032680D01*
X103511923Y-33031929D01*
X103384964Y-33030267D01*
X103262683Y-33028666D01*
X103262680Y-33028666D01*
X103258006Y-33028605D01*
X103006387Y-33062849D01*
X102762593Y-33133908D01*
X102758340Y-33135868D01*
X102758339Y-33135869D01*
X102736808Y-33145795D01*
X102531980Y-33240222D01*
X102528071Y-33242785D01*
X102323528Y-33376889D01*
X102323523Y-33376893D01*
X102319615Y-33379455D01*
X102130162Y-33548548D01*
X101967783Y-33743787D01*
X101836047Y-33960882D01*
X101834238Y-33965197D01*
X101834235Y-33965202D01*
X101813297Y-34015134D01*
X101768509Y-34070220D01*
X101701048Y-34092347D01*
X101632334Y-34074489D01*
X101584183Y-34022317D01*
X101571100Y-33966409D01*
X101571100Y-33490566D01*
X101564345Y-33428384D01*
X101513215Y-33291995D01*
X101425861Y-33175439D01*
X101309305Y-33088085D01*
X101172916Y-33036955D01*
X101110734Y-33030200D01*
X98614466Y-33030200D01*
X98552284Y-33036955D01*
X98415895Y-33088085D01*
X98299339Y-33175439D01*
X98211985Y-33291995D01*
X98160855Y-33428384D01*
X98154100Y-33490566D01*
X98154100Y-35986834D01*
X68890126Y-35986834D01*
X68863126Y-35943624D01*
X68779073Y-35858982D01*
X68740278Y-35819915D01*
X68740274Y-35819912D01*
X68735315Y-35814918D01*
X68582166Y-35717727D01*
X68544784Y-35704416D01*
X68417925Y-35659243D01*
X68417920Y-35659242D01*
X68411290Y-35656881D01*
X68404302Y-35656048D01*
X68404299Y-35656047D01*
X68281198Y-35641368D01*
X68231180Y-35635404D01*
X68224177Y-35636140D01*
X68224176Y-35636140D01*
X68057788Y-35653628D01*
X68057786Y-35653629D01*
X68050788Y-35654364D01*
X68000087Y-35671624D01*
X67903760Y-35704416D01*
X67832828Y-35707434D01*
X67771524Y-35671624D01*
X67744166Y-35626581D01*
X67713545Y-35538648D01*
X67649128Y-35435558D01*
X67621159Y-35390798D01*
X67617426Y-35384824D01*
X67612464Y-35379827D01*
X67494578Y-35261115D01*
X67494574Y-35261112D01*
X67489615Y-35256118D01*
X67336466Y-35158927D01*
X67293889Y-35143766D01*
X67172225Y-35100443D01*
X67172220Y-35100442D01*
X67165590Y-35098081D01*
X67158602Y-35097248D01*
X67158599Y-35097247D01*
X67035498Y-35082568D01*
X66985480Y-35076604D01*
X66978477Y-35077340D01*
X66978476Y-35077340D01*
X66812088Y-35094828D01*
X66812086Y-35094829D01*
X66805088Y-35095564D01*
X66652155Y-35147626D01*
X66581225Y-35150644D01*
X66544040Y-35134734D01*
X66465314Y-35084773D01*
X66428020Y-35061105D01*
X66428017Y-35061103D01*
X66422066Y-35057327D01*
X66368893Y-35038393D01*
X66257825Y-34998843D01*
X66257820Y-34998842D01*
X66251190Y-34996481D01*
X66244202Y-34995648D01*
X66244199Y-34995647D01*
X66121098Y-34980968D01*
X66071080Y-34975004D01*
X66064077Y-34975740D01*
X66064076Y-34975740D01*
X65897688Y-34993228D01*
X65897686Y-34993229D01*
X65890688Y-34993964D01*
X65718979Y-35052418D01*
X65678469Y-35077340D01*
X65570495Y-35143766D01*
X65570492Y-35143768D01*
X65564488Y-35147462D01*
X65559453Y-35152393D01*
X65559450Y-35152395D01*
X65439925Y-35269443D01*
X65434893Y-35274371D01*
X65336635Y-35426838D01*
X65334226Y-35433458D01*
X65334224Y-35433461D01*
X65304533Y-35515037D01*
X65274597Y-35597285D01*
X65251863Y-35777240D01*
X15748000Y-35777240D01*
X15748000Y-33770640D01*
X75408663Y-33770640D01*
X75426363Y-33951160D01*
X75483618Y-34123273D01*
X75487265Y-34129295D01*
X75487266Y-34129297D01*
X75552967Y-34237782D01*
X75577580Y-34278424D01*
X75703582Y-34408902D01*
X75855359Y-34508222D01*
X75861963Y-34510678D01*
X75861965Y-34510679D01*
X76018758Y-34568990D01*
X76018760Y-34568990D01*
X76025368Y-34571448D01*
X76109195Y-34582633D01*
X76198180Y-34594507D01*
X76198184Y-34594507D01*
X76205161Y-34595438D01*
X76212172Y-34594800D01*
X76212176Y-34594800D01*
X76354659Y-34581832D01*
X76385800Y-34578998D01*
X76392502Y-34576820D01*
X76392504Y-34576820D01*
X76551609Y-34525124D01*
X76551612Y-34525123D01*
X76558308Y-34522947D01*
X76654713Y-34465478D01*
X76708060Y-34433677D01*
X76708062Y-34433676D01*
X76714112Y-34430069D01*
X76845466Y-34304982D01*
X76945843Y-34153902D01*
X77010255Y-33984338D01*
X77012775Y-33966409D01*
X77034948Y-33808639D01*
X77034948Y-33808636D01*
X77035499Y-33804717D01*
X77035816Y-33782000D01*
X77015597Y-33601745D01*
X77013280Y-33595091D01*
X76958264Y-33437106D01*
X76958262Y-33437103D01*
X76955945Y-33430448D01*
X76945862Y-33414312D01*
X76863559Y-33282598D01*
X76859826Y-33276624D01*
X76846141Y-33262843D01*
X76736978Y-33152915D01*
X76736974Y-33152912D01*
X76732015Y-33147918D01*
X76720897Y-33140862D01*
X76597967Y-33062849D01*
X76578866Y-33050727D01*
X76522256Y-33030569D01*
X76414625Y-32992243D01*
X76414620Y-32992242D01*
X76407990Y-32989881D01*
X76401002Y-32989048D01*
X76400999Y-32989047D01*
X76277898Y-32974368D01*
X76227880Y-32968404D01*
X76220877Y-32969140D01*
X76220876Y-32969140D01*
X76054488Y-32986628D01*
X76054486Y-32986629D01*
X76047488Y-32987364D01*
X75875779Y-33045818D01*
X75869775Y-33049512D01*
X75727295Y-33137166D01*
X75727292Y-33137168D01*
X75721288Y-33140862D01*
X75716253Y-33145793D01*
X75716250Y-33145795D01*
X75597097Y-33262479D01*
X75591693Y-33267771D01*
X75493435Y-33420238D01*
X75491026Y-33426858D01*
X75491024Y-33426861D01*
X75467378Y-33491828D01*
X75431397Y-33590685D01*
X75408663Y-33770640D01*
X15748000Y-33770640D01*
X15748000Y-31113191D01*
X15768002Y-31045070D01*
X15821658Y-30998577D01*
X15873837Y-30987191D01*
X133985839Y-30836410D01*
X134053985Y-30856325D01*
G37*
G04 #@! TD.AperFunction*
M02*
