%FSLAX45Y45*%
G04 Gerber Fmt 4.5, Leading zero omitted, Abs format (unit mm)*
G04 Created by KiCad (PCBNEW (6.0.0-0)) date 2023-02-02 14:05:24*
%MOMM*%
%LPD*%
G01*
G04 APERTURE LIST*
%TA.AperFunction,Profile*%
%ADD10C,0.100000*%
%TD*%
%ADD11C,0.200000*%
%ADD12C,0.020000*%
%ADD13C,0.030000*%
%ADD14C,0.040000*%
%ADD15C,0.100000*%
%ADD16C,0.120000*%
%ADD17C,0.172720*%
%ADD18C,0.320000*%
G04 APERTURE END LIST*
D10*
X1524000Y-10668000D02*
X13462000Y-10652760D01*
X1524000Y-3048000D02*
X1524000Y-10668000D01*
X13462000Y-10652760D02*
X13462000Y-3032760D01*
X13462000Y-3032760D02*
X1524000Y-3048000D01*
D11*
D12*
X6305320Y-7379860D02*
X6325320Y-7399860D01*
X6325320Y-7379860D02*
X6305320Y-7399860D01*
X6305320Y-7504860D02*
X6325320Y-7524860D01*
X6325320Y-7504860D02*
X6305320Y-7524860D01*
X6415320Y-7379860D02*
X6435320Y-7399860D01*
X6435320Y-7379860D02*
X6415320Y-7399860D01*
X6415320Y-7504860D02*
X6435320Y-7524860D01*
X6435320Y-7504860D02*
X6415320Y-7524860D01*
D13*
X2485480Y-7927340D02*
G75*
G03*
X2485480Y-7927340I-15000J0D01*
G01*
X2759800Y-7330440D02*
G75*
G03*
X2759800Y-7330440I-15000J0D01*
G01*
X2759800Y-8227060D02*
G75*
G03*
X2759800Y-8227060I-15000J0D01*
G01*
X2762340Y-9278620D02*
G75*
G03*
X2762340Y-9278620I-15000J0D01*
G01*
X2846160Y-7160260D02*
G75*
G03*
X2846160Y-7160260I-15000J0D01*
G01*
X2871560Y-6715760D02*
G75*
G03*
X2871560Y-6715760I-15000J0D01*
G01*
X2950300Y-8770620D02*
G75*
G03*
X2950300Y-8770620I-15000J0D01*
G01*
X2978240Y-7823200D02*
G75*
G03*
X2978240Y-7823200I-15000J0D01*
G01*
X2985860Y-6807200D02*
G75*
G03*
X2985860Y-6807200I-15000J0D01*
G01*
X3095080Y-9288780D02*
G75*
G03*
X3095080Y-9288780I-15000J0D01*
G01*
X3105240Y-7325360D02*
G75*
G03*
X3105240Y-7325360I-15000J0D01*
G01*
X3342400Y-9771380D02*
G75*
G03*
X3342400Y-9771380I-15000J0D01*
G01*
X3346540Y-7952740D02*
G75*
G03*
X3346540Y-7952740I-15000J0D01*
G01*
X3362720Y-7818120D02*
G75*
G03*
X3362720Y-7818120I-15000J0D01*
G01*
X3471000Y-8933180D02*
G75*
G03*
X3471000Y-8933180I-15000J0D01*
G01*
X4020580Y-6032500D02*
G75*
G03*
X4020580Y-6032500I-15000J0D01*
G01*
X4025660Y-6616700D02*
G75*
G03*
X4025660Y-6616700I-15000J0D01*
G01*
X4132340Y-6022340D02*
G75*
G03*
X4132340Y-6022340I-15000J0D01*
G01*
X4239020Y-6027420D02*
G75*
G03*
X4239020Y-6027420I-15000J0D01*
G01*
X4340620Y-5377180D02*
G75*
G03*
X4340620Y-5377180I-15000J0D01*
G01*
X4380360Y-8901800D02*
G75*
G03*
X4380360Y-8901800I-15000J0D01*
G01*
X4467620Y-6459220D02*
G75*
G03*
X4467620Y-6459220I-15000J0D01*
G01*
X4468520Y-8901800D02*
G75*
G03*
X4468520Y-8901800I-15000J0D01*
G01*
X4475240Y-5852160D02*
G75*
G03*
X4475240Y-5852160I-15000J0D01*
G01*
X4520850Y-5270500D02*
G75*
G03*
X4520850Y-5270500I-15000J0D01*
G01*
X4528580Y-5765800D02*
G75*
G03*
X4528580Y-5765800I-15000J0D01*
G01*
X4569220Y-7061200D02*
G75*
G03*
X4569220Y-7061200I-15000J0D01*
G01*
X4683520Y-6886050D02*
G75*
G03*
X4683520Y-6886050I-15000J0D01*
G01*
X4790200Y-6370320D02*
G75*
G03*
X4790200Y-6370320I-15000J0D01*
G01*
X4795280Y-6723380D02*
G75*
G03*
X4795280Y-6723380I-15000J0D01*
G01*
X4830950Y-5816600D02*
G75*
G03*
X4830950Y-5816600I-15000J0D01*
G01*
X4848941Y-9334166D02*
G75*
G03*
X4848941Y-9334166I-15000J0D01*
G01*
X4866510Y-4998720D02*
G75*
G03*
X4866510Y-4998720I-15000J0D01*
G01*
X4907150Y-6131560D02*
G75*
G03*
X4907150Y-6131560I-15000J0D01*
G01*
X4909580Y-4678680D02*
G75*
G03*
X4909580Y-4678680I-15000J0D01*
G01*
X5001020Y-5709920D02*
G75*
G03*
X5001020Y-5709920I-15000J0D01*
G01*
X5039120Y-5095240D02*
G75*
G03*
X5039120Y-5095240I-15000J0D01*
G01*
X5079760Y-6032500D02*
G75*
G03*
X5079760Y-6032500I-15000J0D01*
G01*
X5128020Y-6649720D02*
G75*
G03*
X5128020Y-6649720I-15000J0D01*
G01*
X5128020Y-6817360D02*
G75*
G03*
X5128020Y-6817360I-15000J0D01*
G01*
X5141041Y-9227486D02*
G75*
G03*
X5141041Y-9227486I-15000J0D01*
G01*
X5229620Y-5140960D02*
G75*
G03*
X5229620Y-5140960I-15000J0D01*
G01*
X5232160Y-4986020D02*
G75*
G03*
X5232160Y-4986020I-15000J0D01*
G01*
X5290580Y-4424680D02*
G75*
G03*
X5290580Y-4424680I-15000J0D01*
G01*
X5299201Y-9201986D02*
G75*
G03*
X5299201Y-9201986I-15000J0D01*
G01*
X5331220Y-7099300D02*
G75*
G03*
X5331220Y-7099300I-15000J0D01*
G01*
X5355950Y-9469555D02*
G75*
G03*
X5355950Y-9469555I-15000J0D01*
G01*
X5412390Y-6649720D02*
G75*
G03*
X5412390Y-6649720I-15000J0D01*
G01*
X5436000Y-8948800D02*
G75*
G03*
X5436000Y-8948800I-15000J0D01*
G01*
X5513990Y-5146040D02*
G75*
G03*
X5513990Y-5146040I-15000J0D01*
G01*
X5559820Y-4676140D02*
G75*
G03*
X5559820Y-4676140I-15000J0D01*
G01*
X5618240Y-6817360D02*
G75*
G03*
X5618240Y-6817360I-15000J0D01*
G01*
X5659520Y-9390760D02*
G75*
G03*
X5659520Y-9390760I-15000J0D01*
G01*
X5714760Y-7373620D02*
G75*
G03*
X5714760Y-7373620I-15000J0D01*
G01*
X5808740Y-7307580D02*
G75*
G03*
X5808740Y-7307580I-15000J0D01*
G01*
X5823980Y-7101840D02*
G75*
G03*
X5823980Y-7101840I-15000J0D01*
G01*
X5905150Y-6819900D02*
G75*
G03*
X5905150Y-6819900I-15000J0D01*
G01*
X5910450Y-4996180D02*
G75*
G03*
X5910450Y-4996180I-15000J0D01*
G01*
X5917960Y-7167880D02*
G75*
G03*
X5917960Y-7167880I-15000J0D01*
G01*
X5963680Y-4673600D02*
G75*
G03*
X5963680Y-4673600I-15000J0D01*
G01*
X5999880Y-9296780D02*
G75*
G03*
X5999880Y-9296780I-15000J0D01*
G01*
X6057660Y-7533640D02*
G75*
G03*
X6057660Y-7533640I-15000J0D01*
G01*
X6065280Y-7414260D02*
G75*
G03*
X6065280Y-7414260I-15000J0D01*
G01*
X6116080Y-6817360D02*
G75*
G03*
X6116080Y-6817360I-15000J0D01*
G01*
X6133860Y-7134860D02*
G75*
G03*
X6133860Y-7134860I-15000J0D01*
G01*
X6161800Y-7739380D02*
G75*
G03*
X6161800Y-7739380I-15000J0D01*
G01*
X6177040Y-7914640D02*
G75*
G03*
X6177040Y-7914640I-15000J0D01*
G01*
X6202440Y-4993640D02*
G75*
G03*
X6202440Y-4993640I-15000J0D01*
G01*
X6316740Y-7152640D02*
G75*
G03*
X6316740Y-7152640I-15000J0D01*
G01*
X6362730Y-4686300D02*
G75*
G03*
X6362730Y-4686300I-15000J0D01*
G01*
X6389739Y-7223399D02*
G75*
G03*
X6389739Y-7223399I-15000J0D01*
G01*
X6400560Y-3721100D02*
G75*
G03*
X6400560Y-3721100I-15000J0D01*
G01*
X6405530Y-6819900D02*
G75*
G03*
X6405530Y-6819900I-15000J0D01*
G01*
X6428500Y-7122160D02*
G75*
G03*
X6428500Y-7122160I-15000J0D01*
G01*
X6433580Y-4610100D02*
G75*
G03*
X6433580Y-4610100I-15000J0D01*
G01*
X6484380Y-3746790D02*
G75*
G03*
X6484380Y-3746790I-15000J0D01*
G01*
X6486230Y-4378960D02*
G75*
G03*
X6486230Y-4378960I-15000J0D01*
G01*
X6492000Y-6578600D02*
G75*
G03*
X6492000Y-6578600I-15000J0D01*
G01*
X6507430Y-7096760D02*
G75*
G03*
X6507430Y-7096760I-15000J0D01*
G01*
X6535180Y-5610860D02*
G75*
G03*
X6535180Y-5610860I-15000J0D01*
G01*
X6552960Y-5842000D02*
G75*
G03*
X6552960Y-5842000I-15000J0D01*
G01*
X6558361Y-9570386D02*
G75*
G03*
X6558361Y-9570386I-15000J0D01*
G01*
X6568200Y-5003800D02*
G75*
G03*
X6568200Y-5003800I-15000J0D01*
G01*
X6606300Y-7655560D02*
G75*
G03*
X6606300Y-7655560I-15000J0D01*
G01*
X6621540Y-3578860D02*
G75*
G03*
X6621540Y-3578860I-15000J0D01*
G01*
X6656990Y-6428740D02*
G75*
G03*
X6656990Y-6428740I-15000J0D01*
G01*
X6662180Y-6017150D02*
G75*
G03*
X6662180Y-6017150I-15000J0D01*
G01*
X6665230Y-7155180D02*
G75*
G03*
X6665230Y-7155180I-15000J0D01*
G01*
X6669800Y-6578600D02*
G75*
G03*
X6669800Y-6578600I-15000J0D01*
G01*
X6674880Y-7386320D02*
G75*
G03*
X6674880Y-7386320I-15000J0D01*
G01*
X6712980Y-3589020D02*
G75*
G03*
X6712980Y-3589020I-15000J0D01*
G01*
X6771400Y-4066540D02*
G75*
G03*
X6771400Y-4066540I-15000J0D01*
G01*
X6796800Y-4927600D02*
G75*
G03*
X6796800Y-4927600I-15000J0D01*
G01*
X6837550Y-3644900D02*
G75*
G03*
X6837550Y-3644900I-15000J0D01*
G01*
X6931260Y-3251930D02*
G75*
G03*
X6931260Y-3251930I-15000J0D01*
G01*
X6939040Y-5372100D02*
G75*
G03*
X6939040Y-5372100I-15000J0D01*
G01*
X6941420Y-4107910D02*
G75*
G03*
X6941420Y-4107910I-15000J0D01*
G01*
X6941580Y-6062980D02*
G75*
G03*
X6941580Y-6062980I-15000J0D01*
G01*
X6941580Y-6822550D02*
G75*
G03*
X6941580Y-6822550I-15000J0D01*
G01*
X6954280Y-4947920D02*
G75*
G03*
X6954280Y-4947920I-15000J0D01*
G01*
X7010160Y-3540760D02*
G75*
G03*
X7010160Y-3540760I-15000J0D01*
G01*
X7091440Y-5384800D02*
G75*
G03*
X7091440Y-5384800I-15000J0D01*
G01*
X7637220Y-3378200D02*
G75*
G03*
X7637220Y-3378200I-15000J0D01*
G01*
X7857220Y-3382300D02*
G75*
G03*
X7857220Y-3382300I-15000J0D01*
G01*
X7868680Y-4988560D02*
G75*
G03*
X7868680Y-4988560I-15000J0D01*
G01*
X8305400Y-4105370D02*
G75*
G03*
X8305400Y-4105370I-15000J0D01*
G01*
X8318100Y-3257010D02*
G75*
G03*
X8318100Y-3257010I-15000J0D01*
G01*
X8603780Y-6681120D02*
G75*
G03*
X8603780Y-6681120I-15000J0D01*
G01*
X8733780Y-6415120D02*
G75*
G03*
X8733780Y-6415120I-15000J0D01*
G01*
X8838960Y-6685280D02*
G75*
G03*
X8838960Y-6685280I-15000J0D01*
G01*
X9037080Y-4777740D02*
G75*
G03*
X9037080Y-4777740I-15000J0D01*
G01*
X9735680Y-4774350D02*
G75*
G03*
X9735680Y-4774350I-15000J0D01*
G01*
X10205400Y-4119030D02*
G75*
G03*
X10205400Y-4119030I-15000J0D01*
G01*
X10286760Y-4945380D02*
G75*
G03*
X10286760Y-4945380I-15000J0D01*
G01*
X10307080Y-6136640D02*
G75*
G03*
X10307080Y-6136640I-15000J0D01*
G01*
X10816150Y-4867710D02*
G75*
G03*
X10816150Y-4867710I-15000J0D01*
G01*
X10911600Y-4524810D02*
G75*
G03*
X10911600Y-4524810I-15000J0D01*
G01*
D14*
X4724400Y-8382320D02*
X4724400Y-8422320D01*
X4704400Y-8402320D02*
X4744400Y-8402320D01*
X4724400Y-8502320D02*
X4724400Y-8542320D01*
X4704400Y-8522320D02*
X4744400Y-8522320D01*
X4724400Y-8622320D02*
X4724400Y-8662320D01*
X4704400Y-8642320D02*
X4744400Y-8642320D01*
X4724400Y-8742320D02*
X4724400Y-8782320D01*
X4704400Y-8762320D02*
X4744400Y-8762320D01*
X4724400Y-8862320D02*
X4724400Y-8902320D01*
X4704400Y-8882320D02*
X4744400Y-8882320D01*
X4950181Y-8913746D02*
X4950181Y-8953746D01*
X4930181Y-8933746D02*
X4970181Y-8933746D01*
X5421000Y-9091250D02*
X5421000Y-9131250D01*
X5401000Y-9111250D02*
X5441000Y-9111250D01*
X5431160Y-9251380D02*
X5431160Y-9291380D01*
X5411160Y-9271380D02*
X5451160Y-9271380D01*
X6429741Y-9392806D02*
X6429741Y-9432806D01*
X6409741Y-9412806D02*
X6449741Y-9412806D01*
X9072030Y-4627350D02*
X9072030Y-4667350D01*
X9052030Y-4647350D02*
X9092030Y-4647350D01*
X9584490Y-4116190D02*
X9584490Y-4156190D01*
X9564490Y-4136190D02*
X9604490Y-4136190D01*
X9744960Y-5264890D02*
X9744960Y-5304890D01*
X9724960Y-5284890D02*
X9764960Y-5284890D01*
D15*
X1919136Y-7782396D02*
X1919136Y-7711684D01*
X1848424Y-7711684D01*
X1848424Y-7782396D01*
X1919136Y-7782396D01*
X1919136Y-8036396D02*
X1919136Y-7965684D01*
X1848424Y-7965684D01*
X1848424Y-8036396D01*
X1919136Y-8036396D01*
X1919136Y-8290396D02*
X1919136Y-8219684D01*
X1848424Y-8219684D01*
X1848424Y-8290396D01*
X1919136Y-8290396D01*
X1919136Y-8544396D02*
X1919136Y-8473684D01*
X1848424Y-8473684D01*
X1848424Y-8544396D01*
X1919136Y-8544396D01*
X1919136Y-8798396D02*
X1919136Y-8727684D01*
X1848424Y-8727684D01*
X1848424Y-8798396D01*
X1919136Y-8798396D01*
X1919136Y-9052396D02*
X1919136Y-8981684D01*
X1848424Y-8981684D01*
X1848424Y-9052396D01*
X1919136Y-9052396D01*
X9090456Y-6154216D02*
X9090456Y-6083504D01*
X9019744Y-6083504D01*
X9019744Y-6154216D01*
X9090456Y-6154216D01*
X9090456Y-6408216D02*
X9090456Y-6337504D01*
X9019744Y-6337504D01*
X9019744Y-6408216D01*
X9090456Y-6408216D01*
X9090456Y-6662216D02*
X9090456Y-6591504D01*
X9019744Y-6591504D01*
X9019744Y-6662216D01*
X9090456Y-6662216D01*
X9090456Y-6916216D02*
X9090456Y-6845504D01*
X9019744Y-6845504D01*
X9019744Y-6916216D01*
X9090456Y-6916216D01*
X9090456Y-7170216D02*
X9090456Y-7099504D01*
X9019744Y-7099504D01*
X9019744Y-7170216D01*
X9090456Y-7170216D01*
X9090456Y-7424216D02*
X9090456Y-7353504D01*
X9019744Y-7353504D01*
X9019744Y-7424216D01*
X9090456Y-7424216D01*
X11509606Y-4143046D02*
X11509606Y-4072334D01*
X11438894Y-4072334D01*
X11438894Y-4143046D01*
X11509606Y-4143046D01*
X11509606Y-4420046D02*
X11509606Y-4349334D01*
X11438894Y-4349334D01*
X11438894Y-4420046D01*
X11509606Y-4420046D01*
X11509606Y-4697046D02*
X11509606Y-4626334D01*
X11438894Y-4626334D01*
X11438894Y-4697046D01*
X11509606Y-4697046D01*
X11509606Y-4974046D02*
X11509606Y-4903334D01*
X11438894Y-4903334D01*
X11438894Y-4974046D01*
X11509606Y-4974046D01*
X11509606Y-5251046D02*
X11509606Y-5180334D01*
X11438894Y-5180334D01*
X11438894Y-5251046D01*
X11509606Y-5251046D01*
X11793606Y-4281546D02*
X11793606Y-4210834D01*
X11722894Y-4210834D01*
X11722894Y-4281546D01*
X11793606Y-4281546D01*
X11793606Y-4558546D02*
X11793606Y-4487834D01*
X11722894Y-4487834D01*
X11722894Y-4558546D01*
X11793606Y-4558546D01*
X11793606Y-4835546D02*
X11793606Y-4764834D01*
X11722894Y-4764834D01*
X11722894Y-4835546D01*
X11793606Y-4835546D01*
X11793606Y-5112546D02*
X11793606Y-5041834D01*
X11722894Y-5041834D01*
X11722894Y-5112546D01*
X11793606Y-5112546D01*
D16*
X7742501Y-10177606D02*
X7802501Y-10117606D01*
X7742501Y-10057606D01*
X7682501Y-10117606D01*
X7742501Y-10177606D01*
X8092501Y-10177606D02*
X8152501Y-10117606D01*
X8092501Y-10057606D01*
X8032501Y-10117606D01*
X8092501Y-10177606D01*
X9986260Y-3533870D02*
X10046260Y-3473870D01*
X9986260Y-3413870D01*
X9926260Y-3473870D01*
X9986260Y-3533870D01*
X10336260Y-3533870D02*
X10396260Y-3473870D01*
X10336260Y-3413870D01*
X10276260Y-3473870D01*
X10336260Y-3533870D01*
D17*
X5580701Y-9882806D02*
X5753421Y-10055526D01*
X5753421Y-9882806D02*
X5580701Y-10055526D01*
X5753421Y-9969166D02*
G75*
G03*
X5753421Y-9969166I-86360J0D01*
G01*
X5580701Y-10213006D02*
X5753421Y-10385726D01*
X5753421Y-10213006D02*
X5580701Y-10385726D01*
X5753421Y-10299366D02*
G75*
G03*
X5753421Y-10299366I-86360J0D01*
G01*
X6926901Y-9882806D02*
X7099621Y-10055526D01*
X7099621Y-9882806D02*
X6926901Y-10055526D01*
X7099621Y-9969166D02*
G75*
G03*
X7099621Y-9969166I-86360J0D01*
G01*
X6926901Y-10213006D02*
X7099621Y-10385726D01*
X7099621Y-10213006D02*
X6926901Y-10385726D01*
X7099621Y-10299366D02*
G75*
G03*
X7099621Y-10299366I-86360J0D01*
G01*
D18*
X11456250Y-3251690D02*
X11776250Y-3571690D01*
X11776250Y-3251690D02*
X11456250Y-3571690D01*
X11616250Y-3251690D02*
X11616250Y-3571690D01*
X11456250Y-3411690D02*
X11776250Y-3411690D01*
X11456250Y-5751690D02*
X11776250Y-6071690D01*
X11776250Y-5751690D02*
X11456250Y-6071690D01*
X11616250Y-5751690D02*
X11616250Y-6071690D01*
X11456250Y-5911690D02*
X11776250Y-5911690D01*
D11*
X1776619Y-10983476D02*
X1776619Y-10783476D01*
X1824238Y-10783476D01*
X1852809Y-10793000D01*
X1871857Y-10812048D01*
X1881381Y-10831095D01*
X1890905Y-10869190D01*
X1890905Y-10897762D01*
X1881381Y-10935857D01*
X1871857Y-10954905D01*
X1852809Y-10973952D01*
X1824238Y-10983476D01*
X1776619Y-10983476D01*
X1976619Y-10983476D02*
X1976619Y-10850143D01*
X1976619Y-10888238D02*
X1986143Y-10869190D01*
X1995667Y-10859667D01*
X2014714Y-10850143D01*
X2033762Y-10850143D01*
X2100429Y-10983476D02*
X2100429Y-10850143D01*
X2100429Y-10783476D02*
X2090905Y-10793000D01*
X2100429Y-10802524D01*
X2109952Y-10793000D01*
X2100429Y-10783476D01*
X2100429Y-10802524D01*
X2224238Y-10983476D02*
X2205190Y-10973952D01*
X2195667Y-10954905D01*
X2195667Y-10783476D01*
X2329000Y-10983476D02*
X2309952Y-10973952D01*
X2300429Y-10954905D01*
X2300429Y-10783476D01*
X2557571Y-10983476D02*
X2557571Y-10783476D01*
X2624238Y-10926333D01*
X2690905Y-10783476D01*
X2690905Y-10983476D01*
X2871857Y-10983476D02*
X2871857Y-10878714D01*
X2862333Y-10859667D01*
X2843286Y-10850143D01*
X2805190Y-10850143D01*
X2786143Y-10859667D01*
X2871857Y-10973952D02*
X2852809Y-10983476D01*
X2805190Y-10983476D01*
X2786143Y-10973952D01*
X2776619Y-10954905D01*
X2776619Y-10935857D01*
X2786143Y-10916810D01*
X2805190Y-10907286D01*
X2852809Y-10907286D01*
X2871857Y-10897762D01*
X2967095Y-10850143D02*
X2967095Y-11050143D01*
X2967095Y-10859667D02*
X2986143Y-10850143D01*
X3024238Y-10850143D01*
X3043286Y-10859667D01*
X3052809Y-10869190D01*
X3062333Y-10888238D01*
X3062333Y-10945381D01*
X3052809Y-10964429D01*
X3043286Y-10973952D01*
X3024238Y-10983476D01*
X2986143Y-10983476D01*
X2967095Y-10973952D01*
X3148048Y-10964429D02*
X3157571Y-10973952D01*
X3148048Y-10983476D01*
X3138524Y-10973952D01*
X3148048Y-10964429D01*
X3148048Y-10983476D01*
X3148048Y-10859667D02*
X3157571Y-10869190D01*
X3148048Y-10878714D01*
X3138524Y-10869190D01*
X3148048Y-10859667D01*
X3148048Y-10878714D01*
D12*
X1499000Y-11303000D02*
X1519000Y-11323000D01*
X1519000Y-11303000D02*
X1499000Y-11323000D01*
D11*
X1814714Y-11203476D02*
X1833762Y-11203476D01*
X1852809Y-11213000D01*
X1862333Y-11222524D01*
X1871857Y-11241571D01*
X1881381Y-11279667D01*
X1881381Y-11327286D01*
X1871857Y-11365381D01*
X1862333Y-11384428D01*
X1852809Y-11393952D01*
X1833762Y-11403476D01*
X1814714Y-11403476D01*
X1795667Y-11393952D01*
X1786143Y-11384428D01*
X1776619Y-11365381D01*
X1767095Y-11327286D01*
X1767095Y-11279667D01*
X1776619Y-11241571D01*
X1786143Y-11222524D01*
X1795667Y-11213000D01*
X1814714Y-11203476D01*
X1967095Y-11384428D02*
X1976619Y-11393952D01*
X1967095Y-11403476D01*
X1957571Y-11393952D01*
X1967095Y-11384428D01*
X1967095Y-11403476D01*
X2052809Y-11222524D02*
X2062333Y-11213000D01*
X2081381Y-11203476D01*
X2129000Y-11203476D01*
X2148048Y-11213000D01*
X2157571Y-11222524D01*
X2167095Y-11241571D01*
X2167095Y-11260619D01*
X2157571Y-11289190D01*
X2043286Y-11403476D01*
X2167095Y-11403476D01*
X2290905Y-11203476D02*
X2309952Y-11203476D01*
X2329000Y-11213000D01*
X2338524Y-11222524D01*
X2348048Y-11241571D01*
X2357571Y-11279667D01*
X2357571Y-11327286D01*
X2348048Y-11365381D01*
X2338524Y-11384428D01*
X2329000Y-11393952D01*
X2309952Y-11403476D01*
X2290905Y-11403476D01*
X2271857Y-11393952D01*
X2262333Y-11384428D01*
X2252810Y-11365381D01*
X2243286Y-11327286D01*
X2243286Y-11279667D01*
X2252810Y-11241571D01*
X2262333Y-11222524D01*
X2271857Y-11213000D01*
X2290905Y-11203476D01*
X2481381Y-11203476D02*
X2500429Y-11203476D01*
X2519476Y-11213000D01*
X2529000Y-11222524D01*
X2538524Y-11241571D01*
X2548048Y-11279667D01*
X2548048Y-11327286D01*
X2538524Y-11365381D01*
X2529000Y-11384428D01*
X2519476Y-11393952D01*
X2500429Y-11403476D01*
X2481381Y-11403476D01*
X2462333Y-11393952D01*
X2452810Y-11384428D01*
X2443286Y-11365381D01*
X2433762Y-11327286D01*
X2433762Y-11279667D01*
X2443286Y-11241571D01*
X2452810Y-11222524D01*
X2462333Y-11213000D01*
X2481381Y-11203476D01*
X2633762Y-11403476D02*
X2633762Y-11270143D01*
X2633762Y-11289190D02*
X2643286Y-11279667D01*
X2662333Y-11270143D01*
X2690905Y-11270143D01*
X2709952Y-11279667D01*
X2719476Y-11298714D01*
X2719476Y-11403476D01*
X2719476Y-11298714D02*
X2729000Y-11279667D01*
X2748048Y-11270143D01*
X2776619Y-11270143D01*
X2795667Y-11279667D01*
X2805190Y-11298714D01*
X2805190Y-11403476D01*
X2900428Y-11403476D02*
X2900428Y-11270143D01*
X2900428Y-11289190D02*
X2909952Y-11279667D01*
X2929000Y-11270143D01*
X2957571Y-11270143D01*
X2976619Y-11279667D01*
X2986143Y-11298714D01*
X2986143Y-11403476D01*
X2986143Y-11298714D02*
X2995667Y-11279667D01*
X3014714Y-11270143D01*
X3043286Y-11270143D01*
X3062333Y-11279667D01*
X3071857Y-11298714D01*
X3071857Y-11403476D01*
X3462333Y-11193952D02*
X3290905Y-11451095D01*
X3719476Y-11203476D02*
X3738524Y-11203476D01*
X3757571Y-11213000D01*
X3767095Y-11222524D01*
X3776619Y-11241571D01*
X3786143Y-11279667D01*
X3786143Y-11327286D01*
X3776619Y-11365381D01*
X3767095Y-11384428D01*
X3757571Y-11393952D01*
X3738524Y-11403476D01*
X3719476Y-11403476D01*
X3700428Y-11393952D01*
X3690905Y-11384428D01*
X3681381Y-11365381D01*
X3671857Y-11327286D01*
X3671857Y-11279667D01*
X3681381Y-11241571D01*
X3690905Y-11222524D01*
X3700428Y-11213000D01*
X3719476Y-11203476D01*
X3871857Y-11384428D02*
X3881381Y-11393952D01*
X3871857Y-11403476D01*
X3862333Y-11393952D01*
X3871857Y-11384428D01*
X3871857Y-11403476D01*
X4005190Y-11203476D02*
X4024238Y-11203476D01*
X4043286Y-11213000D01*
X4052809Y-11222524D01*
X4062333Y-11241571D01*
X4071857Y-11279667D01*
X4071857Y-11327286D01*
X4062333Y-11365381D01*
X4052809Y-11384428D01*
X4043286Y-11393952D01*
X4024238Y-11403476D01*
X4005190Y-11403476D01*
X3986143Y-11393952D01*
X3976619Y-11384428D01*
X3967095Y-11365381D01*
X3957571Y-11327286D01*
X3957571Y-11279667D01*
X3967095Y-11241571D01*
X3976619Y-11222524D01*
X3986143Y-11213000D01*
X4005190Y-11203476D01*
X4195667Y-11203476D02*
X4214714Y-11203476D01*
X4233762Y-11213000D01*
X4243286Y-11222524D01*
X4252810Y-11241571D01*
X4262333Y-11279667D01*
X4262333Y-11327286D01*
X4252810Y-11365381D01*
X4243286Y-11384428D01*
X4233762Y-11393952D01*
X4214714Y-11403476D01*
X4195667Y-11403476D01*
X4176619Y-11393952D01*
X4167095Y-11384428D01*
X4157571Y-11365381D01*
X4148048Y-11327286D01*
X4148048Y-11279667D01*
X4157571Y-11241571D01*
X4167095Y-11222524D01*
X4176619Y-11213000D01*
X4195667Y-11203476D01*
X4329000Y-11203476D02*
X4462333Y-11203476D01*
X4376619Y-11403476D01*
X4548048Y-11403476D02*
X4586143Y-11403476D01*
X4605190Y-11393952D01*
X4614714Y-11384428D01*
X4633762Y-11355857D01*
X4643286Y-11317762D01*
X4643286Y-11241571D01*
X4633762Y-11222524D01*
X4624238Y-11213000D01*
X4605190Y-11203476D01*
X4567095Y-11203476D01*
X4548048Y-11213000D01*
X4538524Y-11222524D01*
X4529000Y-11241571D01*
X4529000Y-11289190D01*
X4538524Y-11308238D01*
X4548048Y-11317762D01*
X4567095Y-11327286D01*
X4605190Y-11327286D01*
X4624238Y-11317762D01*
X4633762Y-11308238D01*
X4643286Y-11289190D01*
X4719476Y-11203476D02*
X4719476Y-11241571D01*
X4795667Y-11203476D02*
X4795667Y-11241571D01*
X5090905Y-11479667D02*
X5081381Y-11470143D01*
X5062333Y-11441571D01*
X5052810Y-11422524D01*
X5043286Y-11393952D01*
X5033762Y-11346333D01*
X5033762Y-11308238D01*
X5043286Y-11260619D01*
X5052810Y-11232048D01*
X5062333Y-11213000D01*
X5081381Y-11184429D01*
X5090905Y-11174905D01*
X5252810Y-11270143D02*
X5252810Y-11403476D01*
X5205190Y-11193952D02*
X5157571Y-11336809D01*
X5281381Y-11336809D01*
X5509952Y-11403476D02*
X5509952Y-11203476D01*
X5595667Y-11403476D02*
X5595667Y-11298714D01*
X5586143Y-11279667D01*
X5567095Y-11270143D01*
X5538524Y-11270143D01*
X5519476Y-11279667D01*
X5509952Y-11289190D01*
X5719476Y-11403476D02*
X5700428Y-11393952D01*
X5690905Y-11384428D01*
X5681381Y-11365381D01*
X5681381Y-11308238D01*
X5690905Y-11289190D01*
X5700428Y-11279667D01*
X5719476Y-11270143D01*
X5748048Y-11270143D01*
X5767095Y-11279667D01*
X5776619Y-11289190D01*
X5786143Y-11308238D01*
X5786143Y-11365381D01*
X5776619Y-11384428D01*
X5767095Y-11393952D01*
X5748048Y-11403476D01*
X5719476Y-11403476D01*
X5900428Y-11403476D02*
X5881381Y-11393952D01*
X5871857Y-11374905D01*
X5871857Y-11203476D01*
X6052809Y-11393952D02*
X6033762Y-11403476D01*
X5995667Y-11403476D01*
X5976619Y-11393952D01*
X5967095Y-11374905D01*
X5967095Y-11298714D01*
X5976619Y-11279667D01*
X5995667Y-11270143D01*
X6033762Y-11270143D01*
X6052809Y-11279667D01*
X6062333Y-11298714D01*
X6062333Y-11317762D01*
X5967095Y-11336809D01*
X6138524Y-11393952D02*
X6157571Y-11403476D01*
X6195667Y-11403476D01*
X6214714Y-11393952D01*
X6224238Y-11374905D01*
X6224238Y-11365381D01*
X6214714Y-11346333D01*
X6195667Y-11336809D01*
X6167095Y-11336809D01*
X6148048Y-11327286D01*
X6138524Y-11308238D01*
X6138524Y-11298714D01*
X6148048Y-11279667D01*
X6167095Y-11270143D01*
X6195667Y-11270143D01*
X6214714Y-11279667D01*
X6290905Y-11479667D02*
X6300428Y-11470143D01*
X6319476Y-11441571D01*
X6329000Y-11422524D01*
X6338524Y-11393952D01*
X6348048Y-11346333D01*
X6348048Y-11308238D01*
X6338524Y-11260619D01*
X6329000Y-11232048D01*
X6319476Y-11213000D01*
X6300428Y-11184429D01*
X6290905Y-11174905D01*
D13*
X1519000Y-11577000D02*
G75*
G03*
X1519000Y-11577000I-15000J0D01*
G01*
D11*
X1814714Y-11467476D02*
X1833762Y-11467476D01*
X1852809Y-11477000D01*
X1862333Y-11486524D01*
X1871857Y-11505571D01*
X1881381Y-11543667D01*
X1881381Y-11591286D01*
X1871857Y-11629381D01*
X1862333Y-11648428D01*
X1852809Y-11657952D01*
X1833762Y-11667476D01*
X1814714Y-11667476D01*
X1795667Y-11657952D01*
X1786143Y-11648428D01*
X1776619Y-11629381D01*
X1767095Y-11591286D01*
X1767095Y-11543667D01*
X1776619Y-11505571D01*
X1786143Y-11486524D01*
X1795667Y-11477000D01*
X1814714Y-11467476D01*
X1967095Y-11648428D02*
X1976619Y-11657952D01*
X1967095Y-11667476D01*
X1957571Y-11657952D01*
X1967095Y-11648428D01*
X1967095Y-11667476D01*
X2043286Y-11467476D02*
X2167095Y-11467476D01*
X2100429Y-11543667D01*
X2129000Y-11543667D01*
X2148048Y-11553190D01*
X2157571Y-11562714D01*
X2167095Y-11581762D01*
X2167095Y-11629381D01*
X2157571Y-11648428D01*
X2148048Y-11657952D01*
X2129000Y-11667476D01*
X2071857Y-11667476D01*
X2052809Y-11657952D01*
X2043286Y-11648428D01*
X2290905Y-11467476D02*
X2309952Y-11467476D01*
X2329000Y-11477000D01*
X2338524Y-11486524D01*
X2348048Y-11505571D01*
X2357571Y-11543667D01*
X2357571Y-11591286D01*
X2348048Y-11629381D01*
X2338524Y-11648428D01*
X2329000Y-11657952D01*
X2309952Y-11667476D01*
X2290905Y-11667476D01*
X2271857Y-11657952D01*
X2262333Y-11648428D01*
X2252810Y-11629381D01*
X2243286Y-11591286D01*
X2243286Y-11543667D01*
X2252810Y-11505571D01*
X2262333Y-11486524D01*
X2271857Y-11477000D01*
X2290905Y-11467476D01*
X2481381Y-11467476D02*
X2500429Y-11467476D01*
X2519476Y-11477000D01*
X2529000Y-11486524D01*
X2538524Y-11505571D01*
X2548048Y-11543667D01*
X2548048Y-11591286D01*
X2538524Y-11629381D01*
X2529000Y-11648428D01*
X2519476Y-11657952D01*
X2500429Y-11667476D01*
X2481381Y-11667476D01*
X2462333Y-11657952D01*
X2452810Y-11648428D01*
X2443286Y-11629381D01*
X2433762Y-11591286D01*
X2433762Y-11543667D01*
X2443286Y-11505571D01*
X2452810Y-11486524D01*
X2462333Y-11477000D01*
X2481381Y-11467476D01*
X2633762Y-11667476D02*
X2633762Y-11534143D01*
X2633762Y-11553190D02*
X2643286Y-11543667D01*
X2662333Y-11534143D01*
X2690905Y-11534143D01*
X2709952Y-11543667D01*
X2719476Y-11562714D01*
X2719476Y-11667476D01*
X2719476Y-11562714D02*
X2729000Y-11543667D01*
X2748048Y-11534143D01*
X2776619Y-11534143D01*
X2795667Y-11543667D01*
X2805190Y-11562714D01*
X2805190Y-11667476D01*
X2900428Y-11667476D02*
X2900428Y-11534143D01*
X2900428Y-11553190D02*
X2909952Y-11543667D01*
X2929000Y-11534143D01*
X2957571Y-11534143D01*
X2976619Y-11543667D01*
X2986143Y-11562714D01*
X2986143Y-11667476D01*
X2986143Y-11562714D02*
X2995667Y-11543667D01*
X3014714Y-11534143D01*
X3043286Y-11534143D01*
X3062333Y-11543667D01*
X3071857Y-11562714D01*
X3071857Y-11667476D01*
X3462333Y-11457952D02*
X3290905Y-11715095D01*
X3719476Y-11467476D02*
X3738524Y-11467476D01*
X3757571Y-11477000D01*
X3767095Y-11486524D01*
X3776619Y-11505571D01*
X3786143Y-11543667D01*
X3786143Y-11591286D01*
X3776619Y-11629381D01*
X3767095Y-11648428D01*
X3757571Y-11657952D01*
X3738524Y-11667476D01*
X3719476Y-11667476D01*
X3700428Y-11657952D01*
X3690905Y-11648428D01*
X3681381Y-11629381D01*
X3671857Y-11591286D01*
X3671857Y-11543667D01*
X3681381Y-11505571D01*
X3690905Y-11486524D01*
X3700428Y-11477000D01*
X3719476Y-11467476D01*
X3871857Y-11648428D02*
X3881381Y-11657952D01*
X3871857Y-11667476D01*
X3862333Y-11657952D01*
X3871857Y-11648428D01*
X3871857Y-11667476D01*
X4005190Y-11467476D02*
X4024238Y-11467476D01*
X4043286Y-11477000D01*
X4052809Y-11486524D01*
X4062333Y-11505571D01*
X4071857Y-11543667D01*
X4071857Y-11591286D01*
X4062333Y-11629381D01*
X4052809Y-11648428D01*
X4043286Y-11657952D01*
X4024238Y-11667476D01*
X4005190Y-11667476D01*
X3986143Y-11657952D01*
X3976619Y-11648428D01*
X3967095Y-11629381D01*
X3957571Y-11591286D01*
X3957571Y-11543667D01*
X3967095Y-11505571D01*
X3976619Y-11486524D01*
X3986143Y-11477000D01*
X4005190Y-11467476D01*
X4262333Y-11667476D02*
X4148048Y-11667476D01*
X4205190Y-11667476D02*
X4205190Y-11467476D01*
X4186143Y-11496048D01*
X4167095Y-11515095D01*
X4148048Y-11524619D01*
X4452810Y-11667476D02*
X4338524Y-11667476D01*
X4395667Y-11667476D02*
X4395667Y-11467476D01*
X4376619Y-11496048D01*
X4357571Y-11515095D01*
X4338524Y-11524619D01*
X4567095Y-11553190D02*
X4548048Y-11543667D01*
X4538524Y-11534143D01*
X4529000Y-11515095D01*
X4529000Y-11505571D01*
X4538524Y-11486524D01*
X4548048Y-11477000D01*
X4567095Y-11467476D01*
X4605190Y-11467476D01*
X4624238Y-11477000D01*
X4633762Y-11486524D01*
X4643286Y-11505571D01*
X4643286Y-11515095D01*
X4633762Y-11534143D01*
X4624238Y-11543667D01*
X4605190Y-11553190D01*
X4567095Y-11553190D01*
X4548048Y-11562714D01*
X4538524Y-11572238D01*
X4529000Y-11591286D01*
X4529000Y-11629381D01*
X4538524Y-11648428D01*
X4548048Y-11657952D01*
X4567095Y-11667476D01*
X4605190Y-11667476D01*
X4624238Y-11657952D01*
X4633762Y-11648428D01*
X4643286Y-11629381D01*
X4643286Y-11591286D01*
X4633762Y-11572238D01*
X4624238Y-11562714D01*
X4605190Y-11553190D01*
X4719476Y-11467476D02*
X4719476Y-11505571D01*
X4795667Y-11467476D02*
X4795667Y-11505571D01*
X5090905Y-11743667D02*
X5081381Y-11734143D01*
X5062333Y-11705571D01*
X5052810Y-11686524D01*
X5043286Y-11657952D01*
X5033762Y-11610333D01*
X5033762Y-11572238D01*
X5043286Y-11524619D01*
X5052810Y-11496048D01*
X5062333Y-11477000D01*
X5081381Y-11448428D01*
X5090905Y-11438905D01*
X5271857Y-11667476D02*
X5157571Y-11667476D01*
X5214714Y-11667476D02*
X5214714Y-11467476D01*
X5195667Y-11496048D01*
X5176619Y-11515095D01*
X5157571Y-11524619D01*
X5462333Y-11667476D02*
X5348048Y-11667476D01*
X5405190Y-11667476D02*
X5405190Y-11467476D01*
X5386143Y-11496048D01*
X5367095Y-11515095D01*
X5348048Y-11524619D01*
X5529000Y-11467476D02*
X5662333Y-11467476D01*
X5576619Y-11667476D01*
X5890905Y-11667476D02*
X5890905Y-11467476D01*
X5976619Y-11667476D02*
X5976619Y-11562714D01*
X5967095Y-11543667D01*
X5948048Y-11534143D01*
X5919476Y-11534143D01*
X5900428Y-11543667D01*
X5890905Y-11553190D01*
X6100428Y-11667476D02*
X6081381Y-11657952D01*
X6071857Y-11648428D01*
X6062333Y-11629381D01*
X6062333Y-11572238D01*
X6071857Y-11553190D01*
X6081381Y-11543667D01*
X6100428Y-11534143D01*
X6129000Y-11534143D01*
X6148048Y-11543667D01*
X6157571Y-11553190D01*
X6167095Y-11572238D01*
X6167095Y-11629381D01*
X6157571Y-11648428D01*
X6148048Y-11657952D01*
X6129000Y-11667476D01*
X6100428Y-11667476D01*
X6281381Y-11667476D02*
X6262333Y-11657952D01*
X6252809Y-11638905D01*
X6252809Y-11467476D01*
X6433762Y-11657952D02*
X6414714Y-11667476D01*
X6376619Y-11667476D01*
X6357571Y-11657952D01*
X6348048Y-11638905D01*
X6348048Y-11562714D01*
X6357571Y-11543667D01*
X6376619Y-11534143D01*
X6414714Y-11534143D01*
X6433762Y-11543667D01*
X6443286Y-11562714D01*
X6443286Y-11581762D01*
X6348048Y-11600809D01*
X6519476Y-11657952D02*
X6538524Y-11667476D01*
X6576619Y-11667476D01*
X6595667Y-11657952D01*
X6605190Y-11638905D01*
X6605190Y-11629381D01*
X6595667Y-11610333D01*
X6576619Y-11600809D01*
X6548048Y-11600809D01*
X6529000Y-11591286D01*
X6519476Y-11572238D01*
X6519476Y-11562714D01*
X6529000Y-11543667D01*
X6548048Y-11534143D01*
X6576619Y-11534143D01*
X6595667Y-11543667D01*
X6671857Y-11743667D02*
X6681381Y-11734143D01*
X6700428Y-11705571D01*
X6709952Y-11686524D01*
X6719476Y-11657952D01*
X6729000Y-11610333D01*
X6729000Y-11572238D01*
X6719476Y-11524619D01*
X6709952Y-11496048D01*
X6700428Y-11477000D01*
X6681381Y-11448428D01*
X6671857Y-11438905D01*
D14*
X1499000Y-11821000D02*
X1499000Y-11861000D01*
X1479000Y-11841000D02*
X1519000Y-11841000D01*
D11*
X1814714Y-11731476D02*
X1833762Y-11731476D01*
X1852809Y-11741000D01*
X1862333Y-11750524D01*
X1871857Y-11769571D01*
X1881381Y-11807667D01*
X1881381Y-11855286D01*
X1871857Y-11893381D01*
X1862333Y-11912428D01*
X1852809Y-11921952D01*
X1833762Y-11931476D01*
X1814714Y-11931476D01*
X1795667Y-11921952D01*
X1786143Y-11912428D01*
X1776619Y-11893381D01*
X1767095Y-11855286D01*
X1767095Y-11807667D01*
X1776619Y-11769571D01*
X1786143Y-11750524D01*
X1795667Y-11741000D01*
X1814714Y-11731476D01*
X1967095Y-11912428D02*
X1976619Y-11921952D01*
X1967095Y-11931476D01*
X1957571Y-11921952D01*
X1967095Y-11912428D01*
X1967095Y-11931476D01*
X2148048Y-11798143D02*
X2148048Y-11931476D01*
X2100429Y-11721952D02*
X2052809Y-11864809D01*
X2176619Y-11864809D01*
X2290905Y-11731476D02*
X2309952Y-11731476D01*
X2329000Y-11741000D01*
X2338524Y-11750524D01*
X2348048Y-11769571D01*
X2357571Y-11807667D01*
X2357571Y-11855286D01*
X2348048Y-11893381D01*
X2338524Y-11912428D01*
X2329000Y-11921952D01*
X2309952Y-11931476D01*
X2290905Y-11931476D01*
X2271857Y-11921952D01*
X2262333Y-11912428D01*
X2252810Y-11893381D01*
X2243286Y-11855286D01*
X2243286Y-11807667D01*
X2252810Y-11769571D01*
X2262333Y-11750524D01*
X2271857Y-11741000D01*
X2290905Y-11731476D01*
X2481381Y-11731476D02*
X2500429Y-11731476D01*
X2519476Y-11741000D01*
X2529000Y-11750524D01*
X2538524Y-11769571D01*
X2548048Y-11807667D01*
X2548048Y-11855286D01*
X2538524Y-11893381D01*
X2529000Y-11912428D01*
X2519476Y-11921952D01*
X2500429Y-11931476D01*
X2481381Y-11931476D01*
X2462333Y-11921952D01*
X2452810Y-11912428D01*
X2443286Y-11893381D01*
X2433762Y-11855286D01*
X2433762Y-11807667D01*
X2443286Y-11769571D01*
X2452810Y-11750524D01*
X2462333Y-11741000D01*
X2481381Y-11731476D01*
X2633762Y-11931476D02*
X2633762Y-11798143D01*
X2633762Y-11817190D02*
X2643286Y-11807667D01*
X2662333Y-11798143D01*
X2690905Y-11798143D01*
X2709952Y-11807667D01*
X2719476Y-11826714D01*
X2719476Y-11931476D01*
X2719476Y-11826714D02*
X2729000Y-11807667D01*
X2748048Y-11798143D01*
X2776619Y-11798143D01*
X2795667Y-11807667D01*
X2805190Y-11826714D01*
X2805190Y-11931476D01*
X2900428Y-11931476D02*
X2900428Y-11798143D01*
X2900428Y-11817190D02*
X2909952Y-11807667D01*
X2929000Y-11798143D01*
X2957571Y-11798143D01*
X2976619Y-11807667D01*
X2986143Y-11826714D01*
X2986143Y-11931476D01*
X2986143Y-11826714D02*
X2995667Y-11807667D01*
X3014714Y-11798143D01*
X3043286Y-11798143D01*
X3062333Y-11807667D01*
X3071857Y-11826714D01*
X3071857Y-11931476D01*
X3462333Y-11721952D02*
X3290905Y-11979095D01*
X3719476Y-11731476D02*
X3738524Y-11731476D01*
X3757571Y-11741000D01*
X3767095Y-11750524D01*
X3776619Y-11769571D01*
X3786143Y-11807667D01*
X3786143Y-11855286D01*
X3776619Y-11893381D01*
X3767095Y-11912428D01*
X3757571Y-11921952D01*
X3738524Y-11931476D01*
X3719476Y-11931476D01*
X3700428Y-11921952D01*
X3690905Y-11912428D01*
X3681381Y-11893381D01*
X3671857Y-11855286D01*
X3671857Y-11807667D01*
X3681381Y-11769571D01*
X3690905Y-11750524D01*
X3700428Y-11741000D01*
X3719476Y-11731476D01*
X3871857Y-11912428D02*
X3881381Y-11921952D01*
X3871857Y-11931476D01*
X3862333Y-11921952D01*
X3871857Y-11912428D01*
X3871857Y-11931476D01*
X4005190Y-11731476D02*
X4024238Y-11731476D01*
X4043286Y-11741000D01*
X4052809Y-11750524D01*
X4062333Y-11769571D01*
X4071857Y-11807667D01*
X4071857Y-11855286D01*
X4062333Y-11893381D01*
X4052809Y-11912428D01*
X4043286Y-11921952D01*
X4024238Y-11931476D01*
X4005190Y-11931476D01*
X3986143Y-11921952D01*
X3976619Y-11912428D01*
X3967095Y-11893381D01*
X3957571Y-11855286D01*
X3957571Y-11807667D01*
X3967095Y-11769571D01*
X3976619Y-11750524D01*
X3986143Y-11741000D01*
X4005190Y-11731476D01*
X4262333Y-11931476D02*
X4148048Y-11931476D01*
X4205190Y-11931476D02*
X4205190Y-11731476D01*
X4186143Y-11760048D01*
X4167095Y-11779095D01*
X4148048Y-11788619D01*
X4443286Y-11731476D02*
X4348048Y-11731476D01*
X4338524Y-11826714D01*
X4348048Y-11817190D01*
X4367095Y-11807667D01*
X4414714Y-11807667D01*
X4433762Y-11817190D01*
X4443286Y-11826714D01*
X4452810Y-11845762D01*
X4452810Y-11893381D01*
X4443286Y-11912428D01*
X4433762Y-11921952D01*
X4414714Y-11931476D01*
X4367095Y-11931476D01*
X4348048Y-11921952D01*
X4338524Y-11912428D01*
X4519476Y-11731476D02*
X4652810Y-11731476D01*
X4567095Y-11931476D01*
X4719476Y-11731476D02*
X4719476Y-11769571D01*
X4795667Y-11731476D02*
X4795667Y-11769571D01*
X5090905Y-12007667D02*
X5081381Y-11998143D01*
X5062333Y-11969571D01*
X5052810Y-11950524D01*
X5043286Y-11921952D01*
X5033762Y-11874333D01*
X5033762Y-11836238D01*
X5043286Y-11788619D01*
X5052810Y-11760048D01*
X5062333Y-11741000D01*
X5081381Y-11712428D01*
X5090905Y-11702905D01*
X5271857Y-11931476D02*
X5157571Y-11931476D01*
X5214714Y-11931476D02*
X5214714Y-11731476D01*
X5195667Y-11760048D01*
X5176619Y-11779095D01*
X5157571Y-11788619D01*
X5348048Y-11750524D02*
X5357571Y-11741000D01*
X5376619Y-11731476D01*
X5424238Y-11731476D01*
X5443286Y-11741000D01*
X5452810Y-11750524D01*
X5462333Y-11769571D01*
X5462333Y-11788619D01*
X5452810Y-11817190D01*
X5338524Y-11931476D01*
X5462333Y-11931476D01*
X5700428Y-11931476D02*
X5700428Y-11731476D01*
X5786143Y-11931476D02*
X5786143Y-11826714D01*
X5776619Y-11807667D01*
X5757571Y-11798143D01*
X5729000Y-11798143D01*
X5709952Y-11807667D01*
X5700428Y-11817190D01*
X5909952Y-11931476D02*
X5890905Y-11921952D01*
X5881381Y-11912428D01*
X5871857Y-11893381D01*
X5871857Y-11836238D01*
X5881381Y-11817190D01*
X5890905Y-11807667D01*
X5909952Y-11798143D01*
X5938524Y-11798143D01*
X5957571Y-11807667D01*
X5967095Y-11817190D01*
X5976619Y-11836238D01*
X5976619Y-11893381D01*
X5967095Y-11912428D01*
X5957571Y-11921952D01*
X5938524Y-11931476D01*
X5909952Y-11931476D01*
X6090905Y-11931476D02*
X6071857Y-11921952D01*
X6062333Y-11902905D01*
X6062333Y-11731476D01*
X6243286Y-11921952D02*
X6224238Y-11931476D01*
X6186143Y-11931476D01*
X6167095Y-11921952D01*
X6157571Y-11902905D01*
X6157571Y-11826714D01*
X6167095Y-11807667D01*
X6186143Y-11798143D01*
X6224238Y-11798143D01*
X6243286Y-11807667D01*
X6252809Y-11826714D01*
X6252809Y-11845762D01*
X6157571Y-11864809D01*
X6329000Y-11921952D02*
X6348048Y-11931476D01*
X6386143Y-11931476D01*
X6405190Y-11921952D01*
X6414714Y-11902905D01*
X6414714Y-11893381D01*
X6405190Y-11874333D01*
X6386143Y-11864809D01*
X6357571Y-11864809D01*
X6338524Y-11855286D01*
X6329000Y-11836238D01*
X6329000Y-11826714D01*
X6338524Y-11807667D01*
X6357571Y-11798143D01*
X6386143Y-11798143D01*
X6405190Y-11807667D01*
X6481381Y-12007667D02*
X6490905Y-11998143D01*
X6509952Y-11969571D01*
X6519476Y-11950524D01*
X6529000Y-11921952D01*
X6538524Y-11874333D01*
X6538524Y-11836238D01*
X6529000Y-11788619D01*
X6519476Y-11760048D01*
X6509952Y-11741000D01*
X6490905Y-11712428D01*
X6481381Y-11702905D01*
D15*
X1504356Y-12140356D02*
X1504356Y-12069644D01*
X1433644Y-12069644D01*
X1433644Y-12140356D01*
X1504356Y-12140356D01*
D11*
X1881381Y-12195476D02*
X1767095Y-12195476D01*
X1824238Y-12195476D02*
X1824238Y-11995476D01*
X1805190Y-12024048D01*
X1786143Y-12043095D01*
X1767095Y-12052619D01*
X1967095Y-12176428D02*
X1976619Y-12185952D01*
X1967095Y-12195476D01*
X1957571Y-12185952D01*
X1967095Y-12176428D01*
X1967095Y-12195476D01*
X2100429Y-11995476D02*
X2119476Y-11995476D01*
X2138524Y-12005000D01*
X2148048Y-12014524D01*
X2157571Y-12033571D01*
X2167095Y-12071667D01*
X2167095Y-12119286D01*
X2157571Y-12157381D01*
X2148048Y-12176428D01*
X2138524Y-12185952D01*
X2119476Y-12195476D01*
X2100429Y-12195476D01*
X2081381Y-12185952D01*
X2071857Y-12176428D01*
X2062333Y-12157381D01*
X2052809Y-12119286D01*
X2052809Y-12071667D01*
X2062333Y-12033571D01*
X2071857Y-12014524D01*
X2081381Y-12005000D01*
X2100429Y-11995476D01*
X2290905Y-11995476D02*
X2309952Y-11995476D01*
X2329000Y-12005000D01*
X2338524Y-12014524D01*
X2348048Y-12033571D01*
X2357571Y-12071667D01*
X2357571Y-12119286D01*
X2348048Y-12157381D01*
X2338524Y-12176428D01*
X2329000Y-12185952D01*
X2309952Y-12195476D01*
X2290905Y-12195476D01*
X2271857Y-12185952D01*
X2262333Y-12176428D01*
X2252810Y-12157381D01*
X2243286Y-12119286D01*
X2243286Y-12071667D01*
X2252810Y-12033571D01*
X2262333Y-12014524D01*
X2271857Y-12005000D01*
X2290905Y-11995476D01*
X2481381Y-11995476D02*
X2500429Y-11995476D01*
X2519476Y-12005000D01*
X2529000Y-12014524D01*
X2538524Y-12033571D01*
X2548048Y-12071667D01*
X2548048Y-12119286D01*
X2538524Y-12157381D01*
X2529000Y-12176428D01*
X2519476Y-12185952D01*
X2500429Y-12195476D01*
X2481381Y-12195476D01*
X2462333Y-12185952D01*
X2452810Y-12176428D01*
X2443286Y-12157381D01*
X2433762Y-12119286D01*
X2433762Y-12071667D01*
X2443286Y-12033571D01*
X2452810Y-12014524D01*
X2462333Y-12005000D01*
X2481381Y-11995476D01*
X2633762Y-12195476D02*
X2633762Y-12062143D01*
X2633762Y-12081190D02*
X2643286Y-12071667D01*
X2662333Y-12062143D01*
X2690905Y-12062143D01*
X2709952Y-12071667D01*
X2719476Y-12090714D01*
X2719476Y-12195476D01*
X2719476Y-12090714D02*
X2729000Y-12071667D01*
X2748048Y-12062143D01*
X2776619Y-12062143D01*
X2795667Y-12071667D01*
X2805190Y-12090714D01*
X2805190Y-12195476D01*
X2900428Y-12195476D02*
X2900428Y-12062143D01*
X2900428Y-12081190D02*
X2909952Y-12071667D01*
X2929000Y-12062143D01*
X2957571Y-12062143D01*
X2976619Y-12071667D01*
X2986143Y-12090714D01*
X2986143Y-12195476D01*
X2986143Y-12090714D02*
X2995667Y-12071667D01*
X3014714Y-12062143D01*
X3043286Y-12062143D01*
X3062333Y-12071667D01*
X3071857Y-12090714D01*
X3071857Y-12195476D01*
X3462333Y-11985952D02*
X3290905Y-12243095D01*
X3719476Y-11995476D02*
X3738524Y-11995476D01*
X3757571Y-12005000D01*
X3767095Y-12014524D01*
X3776619Y-12033571D01*
X3786143Y-12071667D01*
X3786143Y-12119286D01*
X3776619Y-12157381D01*
X3767095Y-12176428D01*
X3757571Y-12185952D01*
X3738524Y-12195476D01*
X3719476Y-12195476D01*
X3700428Y-12185952D01*
X3690905Y-12176428D01*
X3681381Y-12157381D01*
X3671857Y-12119286D01*
X3671857Y-12071667D01*
X3681381Y-12033571D01*
X3690905Y-12014524D01*
X3700428Y-12005000D01*
X3719476Y-11995476D01*
X3871857Y-12176428D02*
X3881381Y-12185952D01*
X3871857Y-12195476D01*
X3862333Y-12185952D01*
X3871857Y-12176428D01*
X3871857Y-12195476D01*
X4005190Y-11995476D02*
X4024238Y-11995476D01*
X4043286Y-12005000D01*
X4052809Y-12014524D01*
X4062333Y-12033571D01*
X4071857Y-12071667D01*
X4071857Y-12119286D01*
X4062333Y-12157381D01*
X4052809Y-12176428D01*
X4043286Y-12185952D01*
X4024238Y-12195476D01*
X4005190Y-12195476D01*
X3986143Y-12185952D01*
X3976619Y-12176428D01*
X3967095Y-12157381D01*
X3957571Y-12119286D01*
X3957571Y-12071667D01*
X3967095Y-12033571D01*
X3976619Y-12014524D01*
X3986143Y-12005000D01*
X4005190Y-11995476D01*
X4138524Y-11995476D02*
X4262333Y-11995476D01*
X4195667Y-12071667D01*
X4224238Y-12071667D01*
X4243286Y-12081190D01*
X4252810Y-12090714D01*
X4262333Y-12109762D01*
X4262333Y-12157381D01*
X4252810Y-12176428D01*
X4243286Y-12185952D01*
X4224238Y-12195476D01*
X4167095Y-12195476D01*
X4148048Y-12185952D01*
X4138524Y-12176428D01*
X4357571Y-12195476D02*
X4395667Y-12195476D01*
X4414714Y-12185952D01*
X4424238Y-12176428D01*
X4443286Y-12147857D01*
X4452810Y-12109762D01*
X4452810Y-12033571D01*
X4443286Y-12014524D01*
X4433762Y-12005000D01*
X4414714Y-11995476D01*
X4376619Y-11995476D01*
X4357571Y-12005000D01*
X4348048Y-12014524D01*
X4338524Y-12033571D01*
X4338524Y-12081190D01*
X4348048Y-12100238D01*
X4357571Y-12109762D01*
X4376619Y-12119286D01*
X4414714Y-12119286D01*
X4433762Y-12109762D01*
X4443286Y-12100238D01*
X4452810Y-12081190D01*
X4624238Y-12062143D02*
X4624238Y-12195476D01*
X4576619Y-11985952D02*
X4529000Y-12128809D01*
X4652810Y-12128809D01*
X4719476Y-11995476D02*
X4719476Y-12033571D01*
X4795667Y-11995476D02*
X4795667Y-12033571D01*
X5090905Y-12271667D02*
X5081381Y-12262143D01*
X5062333Y-12233571D01*
X5052810Y-12214524D01*
X5043286Y-12185952D01*
X5033762Y-12138333D01*
X5033762Y-12100238D01*
X5043286Y-12052619D01*
X5052810Y-12024048D01*
X5062333Y-12005000D01*
X5081381Y-11976428D01*
X5090905Y-11966905D01*
X5157571Y-12014524D02*
X5167095Y-12005000D01*
X5186143Y-11995476D01*
X5233762Y-11995476D01*
X5252810Y-12005000D01*
X5262333Y-12014524D01*
X5271857Y-12033571D01*
X5271857Y-12052619D01*
X5262333Y-12081190D01*
X5148048Y-12195476D01*
X5271857Y-12195476D01*
X5462333Y-12195476D02*
X5348048Y-12195476D01*
X5405190Y-12195476D02*
X5405190Y-11995476D01*
X5386143Y-12024048D01*
X5367095Y-12043095D01*
X5348048Y-12052619D01*
X5700428Y-12195476D02*
X5700428Y-11995476D01*
X5786143Y-12195476D02*
X5786143Y-12090714D01*
X5776619Y-12071667D01*
X5757571Y-12062143D01*
X5729000Y-12062143D01*
X5709952Y-12071667D01*
X5700428Y-12081190D01*
X5909952Y-12195476D02*
X5890905Y-12185952D01*
X5881381Y-12176428D01*
X5871857Y-12157381D01*
X5871857Y-12100238D01*
X5881381Y-12081190D01*
X5890905Y-12071667D01*
X5909952Y-12062143D01*
X5938524Y-12062143D01*
X5957571Y-12071667D01*
X5967095Y-12081190D01*
X5976619Y-12100238D01*
X5976619Y-12157381D01*
X5967095Y-12176428D01*
X5957571Y-12185952D01*
X5938524Y-12195476D01*
X5909952Y-12195476D01*
X6090905Y-12195476D02*
X6071857Y-12185952D01*
X6062333Y-12166905D01*
X6062333Y-11995476D01*
X6243286Y-12185952D02*
X6224238Y-12195476D01*
X6186143Y-12195476D01*
X6167095Y-12185952D01*
X6157571Y-12166905D01*
X6157571Y-12090714D01*
X6167095Y-12071667D01*
X6186143Y-12062143D01*
X6224238Y-12062143D01*
X6243286Y-12071667D01*
X6252809Y-12090714D01*
X6252809Y-12109762D01*
X6157571Y-12128809D01*
X6329000Y-12185952D02*
X6348048Y-12195476D01*
X6386143Y-12195476D01*
X6405190Y-12185952D01*
X6414714Y-12166905D01*
X6414714Y-12157381D01*
X6405190Y-12138333D01*
X6386143Y-12128809D01*
X6357571Y-12128809D01*
X6338524Y-12119286D01*
X6329000Y-12100238D01*
X6329000Y-12090714D01*
X6338524Y-12071667D01*
X6357571Y-12062143D01*
X6386143Y-12062143D01*
X6405190Y-12071667D01*
X6481381Y-12271667D02*
X6490905Y-12262143D01*
X6509952Y-12233571D01*
X6519476Y-12214524D01*
X6529000Y-12185952D01*
X6538524Y-12138333D01*
X6538524Y-12100238D01*
X6529000Y-12052619D01*
X6519476Y-12024048D01*
X6509952Y-12005000D01*
X6490905Y-11976428D01*
X6481381Y-11966905D01*
D16*
X1459000Y-12429000D02*
X1519000Y-12369000D01*
X1459000Y-12309000D01*
X1399000Y-12369000D01*
X1459000Y-12429000D01*
D11*
X1881381Y-12459476D02*
X1767095Y-12459476D01*
X1824238Y-12459476D02*
X1824238Y-12259476D01*
X1805190Y-12288048D01*
X1786143Y-12307095D01*
X1767095Y-12316619D01*
X1967095Y-12440428D02*
X1976619Y-12449952D01*
X1967095Y-12459476D01*
X1957571Y-12449952D01*
X1967095Y-12440428D01*
X1967095Y-12459476D01*
X2052809Y-12278524D02*
X2062333Y-12269000D01*
X2081381Y-12259476D01*
X2129000Y-12259476D01*
X2148048Y-12269000D01*
X2157571Y-12278524D01*
X2167095Y-12297571D01*
X2167095Y-12316619D01*
X2157571Y-12345190D01*
X2043286Y-12459476D01*
X2167095Y-12459476D01*
X2290905Y-12259476D02*
X2309952Y-12259476D01*
X2329000Y-12269000D01*
X2338524Y-12278524D01*
X2348048Y-12297571D01*
X2357571Y-12335667D01*
X2357571Y-12383286D01*
X2348048Y-12421381D01*
X2338524Y-12440428D01*
X2329000Y-12449952D01*
X2309952Y-12459476D01*
X2290905Y-12459476D01*
X2271857Y-12449952D01*
X2262333Y-12440428D01*
X2252810Y-12421381D01*
X2243286Y-12383286D01*
X2243286Y-12335667D01*
X2252810Y-12297571D01*
X2262333Y-12278524D01*
X2271857Y-12269000D01*
X2290905Y-12259476D01*
X2481381Y-12259476D02*
X2500429Y-12259476D01*
X2519476Y-12269000D01*
X2529000Y-12278524D01*
X2538524Y-12297571D01*
X2548048Y-12335667D01*
X2548048Y-12383286D01*
X2538524Y-12421381D01*
X2529000Y-12440428D01*
X2519476Y-12449952D01*
X2500429Y-12459476D01*
X2481381Y-12459476D01*
X2462333Y-12449952D01*
X2452810Y-12440428D01*
X2443286Y-12421381D01*
X2433762Y-12383286D01*
X2433762Y-12335667D01*
X2443286Y-12297571D01*
X2452810Y-12278524D01*
X2462333Y-12269000D01*
X2481381Y-12259476D01*
X2633762Y-12459476D02*
X2633762Y-12326143D01*
X2633762Y-12345190D02*
X2643286Y-12335667D01*
X2662333Y-12326143D01*
X2690905Y-12326143D01*
X2709952Y-12335667D01*
X2719476Y-12354714D01*
X2719476Y-12459476D01*
X2719476Y-12354714D02*
X2729000Y-12335667D01*
X2748048Y-12326143D01*
X2776619Y-12326143D01*
X2795667Y-12335667D01*
X2805190Y-12354714D01*
X2805190Y-12459476D01*
X2900428Y-12459476D02*
X2900428Y-12326143D01*
X2900428Y-12345190D02*
X2909952Y-12335667D01*
X2929000Y-12326143D01*
X2957571Y-12326143D01*
X2976619Y-12335667D01*
X2986143Y-12354714D01*
X2986143Y-12459476D01*
X2986143Y-12354714D02*
X2995667Y-12335667D01*
X3014714Y-12326143D01*
X3043286Y-12326143D01*
X3062333Y-12335667D01*
X3071857Y-12354714D01*
X3071857Y-12459476D01*
X3462333Y-12249952D02*
X3290905Y-12507095D01*
X3719476Y-12259476D02*
X3738524Y-12259476D01*
X3757571Y-12269000D01*
X3767095Y-12278524D01*
X3776619Y-12297571D01*
X3786143Y-12335667D01*
X3786143Y-12383286D01*
X3776619Y-12421381D01*
X3767095Y-12440428D01*
X3757571Y-12449952D01*
X3738524Y-12459476D01*
X3719476Y-12459476D01*
X3700428Y-12449952D01*
X3690905Y-12440428D01*
X3681381Y-12421381D01*
X3671857Y-12383286D01*
X3671857Y-12335667D01*
X3681381Y-12297571D01*
X3690905Y-12278524D01*
X3700428Y-12269000D01*
X3719476Y-12259476D01*
X3871857Y-12440428D02*
X3881381Y-12449952D01*
X3871857Y-12459476D01*
X3862333Y-12449952D01*
X3871857Y-12440428D01*
X3871857Y-12459476D01*
X4005190Y-12259476D02*
X4024238Y-12259476D01*
X4043286Y-12269000D01*
X4052809Y-12278524D01*
X4062333Y-12297571D01*
X4071857Y-12335667D01*
X4071857Y-12383286D01*
X4062333Y-12421381D01*
X4052809Y-12440428D01*
X4043286Y-12449952D01*
X4024238Y-12459476D01*
X4005190Y-12459476D01*
X3986143Y-12449952D01*
X3976619Y-12440428D01*
X3967095Y-12421381D01*
X3957571Y-12383286D01*
X3957571Y-12335667D01*
X3967095Y-12297571D01*
X3976619Y-12278524D01*
X3986143Y-12269000D01*
X4005190Y-12259476D01*
X4243286Y-12326143D02*
X4243286Y-12459476D01*
X4195667Y-12249952D02*
X4148048Y-12392809D01*
X4271857Y-12392809D01*
X4329000Y-12259476D02*
X4462333Y-12259476D01*
X4376619Y-12459476D01*
X4529000Y-12278524D02*
X4538524Y-12269000D01*
X4557571Y-12259476D01*
X4605190Y-12259476D01*
X4624238Y-12269000D01*
X4633762Y-12278524D01*
X4643286Y-12297571D01*
X4643286Y-12316619D01*
X4633762Y-12345190D01*
X4519476Y-12459476D01*
X4643286Y-12459476D01*
X4719476Y-12259476D02*
X4719476Y-12297571D01*
X4795667Y-12259476D02*
X4795667Y-12297571D01*
X5090905Y-12535667D02*
X5081381Y-12526143D01*
X5062333Y-12497571D01*
X5052810Y-12478524D01*
X5043286Y-12449952D01*
X5033762Y-12402333D01*
X5033762Y-12364238D01*
X5043286Y-12316619D01*
X5052810Y-12288048D01*
X5062333Y-12269000D01*
X5081381Y-12240428D01*
X5090905Y-12230905D01*
X5252810Y-12326143D02*
X5252810Y-12459476D01*
X5205190Y-12249952D02*
X5157571Y-12392809D01*
X5281381Y-12392809D01*
X5509952Y-12459476D02*
X5509952Y-12259476D01*
X5595667Y-12459476D02*
X5595667Y-12354714D01*
X5586143Y-12335667D01*
X5567095Y-12326143D01*
X5538524Y-12326143D01*
X5519476Y-12335667D01*
X5509952Y-12345190D01*
X5719476Y-12459476D02*
X5700428Y-12449952D01*
X5690905Y-12440428D01*
X5681381Y-12421381D01*
X5681381Y-12364238D01*
X5690905Y-12345190D01*
X5700428Y-12335667D01*
X5719476Y-12326143D01*
X5748048Y-12326143D01*
X5767095Y-12335667D01*
X5776619Y-12345190D01*
X5786143Y-12364238D01*
X5786143Y-12421381D01*
X5776619Y-12440428D01*
X5767095Y-12449952D01*
X5748048Y-12459476D01*
X5719476Y-12459476D01*
X5900428Y-12459476D02*
X5881381Y-12449952D01*
X5871857Y-12430905D01*
X5871857Y-12259476D01*
X6052809Y-12449952D02*
X6033762Y-12459476D01*
X5995667Y-12459476D01*
X5976619Y-12449952D01*
X5967095Y-12430905D01*
X5967095Y-12354714D01*
X5976619Y-12335667D01*
X5995667Y-12326143D01*
X6033762Y-12326143D01*
X6052809Y-12335667D01*
X6062333Y-12354714D01*
X6062333Y-12373762D01*
X5967095Y-12392809D01*
X6138524Y-12449952D02*
X6157571Y-12459476D01*
X6195667Y-12459476D01*
X6214714Y-12449952D01*
X6224238Y-12430905D01*
X6224238Y-12421381D01*
X6214714Y-12402333D01*
X6195667Y-12392809D01*
X6167095Y-12392809D01*
X6148048Y-12383286D01*
X6138524Y-12364238D01*
X6138524Y-12354714D01*
X6148048Y-12335667D01*
X6167095Y-12326143D01*
X6195667Y-12326143D01*
X6214714Y-12335667D01*
X6290905Y-12535667D02*
X6300428Y-12526143D01*
X6319476Y-12497571D01*
X6329000Y-12478524D01*
X6338524Y-12449952D01*
X6348048Y-12402333D01*
X6348048Y-12364238D01*
X6338524Y-12316619D01*
X6329000Y-12288048D01*
X6319476Y-12269000D01*
X6300428Y-12240428D01*
X6290905Y-12230905D01*
D17*
X1346280Y-12546640D02*
X1519000Y-12719360D01*
X1519000Y-12546640D02*
X1346280Y-12719360D01*
X1519000Y-12633000D02*
G75*
G03*
X1519000Y-12633000I-86360J0D01*
G01*
D11*
X1881381Y-12723476D02*
X1767095Y-12723476D01*
X1824238Y-12723476D02*
X1824238Y-12523476D01*
X1805190Y-12552048D01*
X1786143Y-12571095D01*
X1767095Y-12580619D01*
X1967095Y-12704428D02*
X1976619Y-12713952D01*
X1967095Y-12723476D01*
X1957571Y-12713952D01*
X1967095Y-12704428D01*
X1967095Y-12723476D01*
X2043286Y-12523476D02*
X2176619Y-12523476D01*
X2090905Y-12723476D01*
X2243286Y-12542524D02*
X2252810Y-12533000D01*
X2271857Y-12523476D01*
X2319476Y-12523476D01*
X2338524Y-12533000D01*
X2348048Y-12542524D01*
X2357571Y-12561571D01*
X2357571Y-12580619D01*
X2348048Y-12609190D01*
X2233762Y-12723476D01*
X2357571Y-12723476D01*
X2424238Y-12523476D02*
X2557571Y-12523476D01*
X2471857Y-12723476D01*
X2633762Y-12723476D02*
X2633762Y-12590143D01*
X2633762Y-12609190D02*
X2643286Y-12599667D01*
X2662333Y-12590143D01*
X2690905Y-12590143D01*
X2709952Y-12599667D01*
X2719476Y-12618714D01*
X2719476Y-12723476D01*
X2719476Y-12618714D02*
X2729000Y-12599667D01*
X2748048Y-12590143D01*
X2776619Y-12590143D01*
X2795667Y-12599667D01*
X2805190Y-12618714D01*
X2805190Y-12723476D01*
X2900428Y-12723476D02*
X2900428Y-12590143D01*
X2900428Y-12609190D02*
X2909952Y-12599667D01*
X2929000Y-12590143D01*
X2957571Y-12590143D01*
X2976619Y-12599667D01*
X2986143Y-12618714D01*
X2986143Y-12723476D01*
X2986143Y-12618714D02*
X2995667Y-12599667D01*
X3014714Y-12590143D01*
X3043286Y-12590143D01*
X3062333Y-12599667D01*
X3071857Y-12618714D01*
X3071857Y-12723476D01*
X3462333Y-12513952D02*
X3290905Y-12771095D01*
X3719476Y-12523476D02*
X3738524Y-12523476D01*
X3757571Y-12533000D01*
X3767095Y-12542524D01*
X3776619Y-12561571D01*
X3786143Y-12599667D01*
X3786143Y-12647286D01*
X3776619Y-12685381D01*
X3767095Y-12704428D01*
X3757571Y-12713952D01*
X3738524Y-12723476D01*
X3719476Y-12723476D01*
X3700428Y-12713952D01*
X3690905Y-12704428D01*
X3681381Y-12685381D01*
X3671857Y-12647286D01*
X3671857Y-12599667D01*
X3681381Y-12561571D01*
X3690905Y-12542524D01*
X3700428Y-12533000D01*
X3719476Y-12523476D01*
X3871857Y-12704428D02*
X3881381Y-12713952D01*
X3871857Y-12723476D01*
X3862333Y-12713952D01*
X3871857Y-12704428D01*
X3871857Y-12723476D01*
X4005190Y-12523476D02*
X4024238Y-12523476D01*
X4043286Y-12533000D01*
X4052809Y-12542524D01*
X4062333Y-12561571D01*
X4071857Y-12599667D01*
X4071857Y-12647286D01*
X4062333Y-12685381D01*
X4052809Y-12704428D01*
X4043286Y-12713952D01*
X4024238Y-12723476D01*
X4005190Y-12723476D01*
X3986143Y-12713952D01*
X3976619Y-12704428D01*
X3967095Y-12685381D01*
X3957571Y-12647286D01*
X3957571Y-12599667D01*
X3967095Y-12561571D01*
X3976619Y-12542524D01*
X3986143Y-12533000D01*
X4005190Y-12523476D01*
X4243286Y-12523476D02*
X4205190Y-12523476D01*
X4186143Y-12533000D01*
X4176619Y-12542524D01*
X4157571Y-12571095D01*
X4148048Y-12609190D01*
X4148048Y-12685381D01*
X4157571Y-12704428D01*
X4167095Y-12713952D01*
X4186143Y-12723476D01*
X4224238Y-12723476D01*
X4243286Y-12713952D01*
X4252810Y-12704428D01*
X4262333Y-12685381D01*
X4262333Y-12637762D01*
X4252810Y-12618714D01*
X4243286Y-12609190D01*
X4224238Y-12599667D01*
X4186143Y-12599667D01*
X4167095Y-12609190D01*
X4157571Y-12618714D01*
X4148048Y-12637762D01*
X4376619Y-12609190D02*
X4357571Y-12599667D01*
X4348048Y-12590143D01*
X4338524Y-12571095D01*
X4338524Y-12561571D01*
X4348048Y-12542524D01*
X4357571Y-12533000D01*
X4376619Y-12523476D01*
X4414714Y-12523476D01*
X4433762Y-12533000D01*
X4443286Y-12542524D01*
X4452810Y-12561571D01*
X4452810Y-12571095D01*
X4443286Y-12590143D01*
X4433762Y-12599667D01*
X4414714Y-12609190D01*
X4376619Y-12609190D01*
X4357571Y-12618714D01*
X4348048Y-12628238D01*
X4338524Y-12647286D01*
X4338524Y-12685381D01*
X4348048Y-12704428D01*
X4357571Y-12713952D01*
X4376619Y-12723476D01*
X4414714Y-12723476D01*
X4433762Y-12713952D01*
X4443286Y-12704428D01*
X4452810Y-12685381D01*
X4452810Y-12647286D01*
X4443286Y-12628238D01*
X4433762Y-12618714D01*
X4414714Y-12609190D01*
X4576619Y-12523476D02*
X4595667Y-12523476D01*
X4614714Y-12533000D01*
X4624238Y-12542524D01*
X4633762Y-12561571D01*
X4643286Y-12599667D01*
X4643286Y-12647286D01*
X4633762Y-12685381D01*
X4624238Y-12704428D01*
X4614714Y-12713952D01*
X4595667Y-12723476D01*
X4576619Y-12723476D01*
X4557571Y-12713952D01*
X4548048Y-12704428D01*
X4538524Y-12685381D01*
X4529000Y-12647286D01*
X4529000Y-12599667D01*
X4538524Y-12561571D01*
X4548048Y-12542524D01*
X4557571Y-12533000D01*
X4576619Y-12523476D01*
X4719476Y-12523476D02*
X4719476Y-12561571D01*
X4795667Y-12523476D02*
X4795667Y-12561571D01*
X5090905Y-12799667D02*
X5081381Y-12790143D01*
X5062333Y-12761571D01*
X5052810Y-12742524D01*
X5043286Y-12713952D01*
X5033762Y-12666333D01*
X5033762Y-12628238D01*
X5043286Y-12580619D01*
X5052810Y-12552048D01*
X5062333Y-12533000D01*
X5081381Y-12504428D01*
X5090905Y-12494905D01*
X5252810Y-12590143D02*
X5252810Y-12723476D01*
X5205190Y-12513952D02*
X5157571Y-12656809D01*
X5281381Y-12656809D01*
X5509952Y-12723476D02*
X5509952Y-12523476D01*
X5595667Y-12723476D02*
X5595667Y-12618714D01*
X5586143Y-12599667D01*
X5567095Y-12590143D01*
X5538524Y-12590143D01*
X5519476Y-12599667D01*
X5509952Y-12609190D01*
X5719476Y-12723476D02*
X5700428Y-12713952D01*
X5690905Y-12704428D01*
X5681381Y-12685381D01*
X5681381Y-12628238D01*
X5690905Y-12609190D01*
X5700428Y-12599667D01*
X5719476Y-12590143D01*
X5748048Y-12590143D01*
X5767095Y-12599667D01*
X5776619Y-12609190D01*
X5786143Y-12628238D01*
X5786143Y-12685381D01*
X5776619Y-12704428D01*
X5767095Y-12713952D01*
X5748048Y-12723476D01*
X5719476Y-12723476D01*
X5900428Y-12723476D02*
X5881381Y-12713952D01*
X5871857Y-12694905D01*
X5871857Y-12523476D01*
X6052809Y-12713952D02*
X6033762Y-12723476D01*
X5995667Y-12723476D01*
X5976619Y-12713952D01*
X5967095Y-12694905D01*
X5967095Y-12618714D01*
X5976619Y-12599667D01*
X5995667Y-12590143D01*
X6033762Y-12590143D01*
X6052809Y-12599667D01*
X6062333Y-12618714D01*
X6062333Y-12637762D01*
X5967095Y-12656809D01*
X6138524Y-12713952D02*
X6157571Y-12723476D01*
X6195667Y-12723476D01*
X6214714Y-12713952D01*
X6224238Y-12694905D01*
X6224238Y-12685381D01*
X6214714Y-12666333D01*
X6195667Y-12656809D01*
X6167095Y-12656809D01*
X6148048Y-12647286D01*
X6138524Y-12628238D01*
X6138524Y-12618714D01*
X6148048Y-12599667D01*
X6167095Y-12590143D01*
X6195667Y-12590143D01*
X6214714Y-12599667D01*
X6290905Y-12799667D02*
X6300428Y-12790143D01*
X6319476Y-12761571D01*
X6329000Y-12742524D01*
X6338524Y-12713952D01*
X6348048Y-12666333D01*
X6348048Y-12628238D01*
X6338524Y-12580619D01*
X6329000Y-12552048D01*
X6319476Y-12533000D01*
X6300428Y-12504428D01*
X6290905Y-12494905D01*
X1319000Y-12825720D02*
X1519000Y-13025720D01*
X1519000Y-12825720D02*
X1319000Y-13025720D01*
X1419000Y-12825720D02*
X1419000Y-13025720D01*
X1319000Y-12925720D02*
X1519000Y-12925720D01*
X1757571Y-12816196D02*
X1881381Y-12816196D01*
X1814714Y-12892387D01*
X1843286Y-12892387D01*
X1862333Y-12901910D01*
X1871857Y-12911434D01*
X1881381Y-12930482D01*
X1881381Y-12978101D01*
X1871857Y-12997148D01*
X1862333Y-13006672D01*
X1843286Y-13016196D01*
X1786143Y-13016196D01*
X1767095Y-13006672D01*
X1757571Y-12997148D01*
X1967095Y-12997148D02*
X1976619Y-13006672D01*
X1967095Y-13016196D01*
X1957571Y-13006672D01*
X1967095Y-12997148D01*
X1967095Y-13016196D01*
X2052809Y-12835244D02*
X2062333Y-12825720D01*
X2081381Y-12816196D01*
X2129000Y-12816196D01*
X2148048Y-12825720D01*
X2157571Y-12835244D01*
X2167095Y-12854291D01*
X2167095Y-12873339D01*
X2157571Y-12901910D01*
X2043286Y-13016196D01*
X2167095Y-13016196D01*
X2290905Y-12816196D02*
X2309952Y-12816196D01*
X2329000Y-12825720D01*
X2338524Y-12835244D01*
X2348048Y-12854291D01*
X2357571Y-12892387D01*
X2357571Y-12940006D01*
X2348048Y-12978101D01*
X2338524Y-12997148D01*
X2329000Y-13006672D01*
X2309952Y-13016196D01*
X2290905Y-13016196D01*
X2271857Y-13006672D01*
X2262333Y-12997148D01*
X2252810Y-12978101D01*
X2243286Y-12940006D01*
X2243286Y-12892387D01*
X2252810Y-12854291D01*
X2262333Y-12835244D01*
X2271857Y-12825720D01*
X2290905Y-12816196D01*
X2481381Y-12816196D02*
X2500429Y-12816196D01*
X2519476Y-12825720D01*
X2529000Y-12835244D01*
X2538524Y-12854291D01*
X2548048Y-12892387D01*
X2548048Y-12940006D01*
X2538524Y-12978101D01*
X2529000Y-12997148D01*
X2519476Y-13006672D01*
X2500429Y-13016196D01*
X2481381Y-13016196D01*
X2462333Y-13006672D01*
X2452810Y-12997148D01*
X2443286Y-12978101D01*
X2433762Y-12940006D01*
X2433762Y-12892387D01*
X2443286Y-12854291D01*
X2452810Y-12835244D01*
X2462333Y-12825720D01*
X2481381Y-12816196D01*
X2633762Y-13016196D02*
X2633762Y-12882863D01*
X2633762Y-12901910D02*
X2643286Y-12892387D01*
X2662333Y-12882863D01*
X2690905Y-12882863D01*
X2709952Y-12892387D01*
X2719476Y-12911434D01*
X2719476Y-13016196D01*
X2719476Y-12911434D02*
X2729000Y-12892387D01*
X2748048Y-12882863D01*
X2776619Y-12882863D01*
X2795667Y-12892387D01*
X2805190Y-12911434D01*
X2805190Y-13016196D01*
X2900428Y-13016196D02*
X2900428Y-12882863D01*
X2900428Y-12901910D02*
X2909952Y-12892387D01*
X2929000Y-12882863D01*
X2957571Y-12882863D01*
X2976619Y-12892387D01*
X2986143Y-12911434D01*
X2986143Y-13016196D01*
X2986143Y-12911434D02*
X2995667Y-12892387D01*
X3014714Y-12882863D01*
X3043286Y-12882863D01*
X3062333Y-12892387D01*
X3071857Y-12911434D01*
X3071857Y-13016196D01*
X3462333Y-12806672D02*
X3290905Y-13063815D01*
X3719476Y-12816196D02*
X3738524Y-12816196D01*
X3757571Y-12825720D01*
X3767095Y-12835244D01*
X3776619Y-12854291D01*
X3786143Y-12892387D01*
X3786143Y-12940006D01*
X3776619Y-12978101D01*
X3767095Y-12997148D01*
X3757571Y-13006672D01*
X3738524Y-13016196D01*
X3719476Y-13016196D01*
X3700428Y-13006672D01*
X3690905Y-12997148D01*
X3681381Y-12978101D01*
X3671857Y-12940006D01*
X3671857Y-12892387D01*
X3681381Y-12854291D01*
X3690905Y-12835244D01*
X3700428Y-12825720D01*
X3719476Y-12816196D01*
X3871857Y-12997148D02*
X3881381Y-13006672D01*
X3871857Y-13016196D01*
X3862333Y-13006672D01*
X3871857Y-12997148D01*
X3871857Y-13016196D01*
X4071857Y-13016196D02*
X3957571Y-13016196D01*
X4014714Y-13016196D02*
X4014714Y-12816196D01*
X3995667Y-12844768D01*
X3976619Y-12863815D01*
X3957571Y-12873339D01*
X4148048Y-12835244D02*
X4157571Y-12825720D01*
X4176619Y-12816196D01*
X4224238Y-12816196D01*
X4243286Y-12825720D01*
X4252810Y-12835244D01*
X4262333Y-12854291D01*
X4262333Y-12873339D01*
X4252810Y-12901910D01*
X4138524Y-13016196D01*
X4262333Y-13016196D01*
X4433762Y-12816196D02*
X4395667Y-12816196D01*
X4376619Y-12825720D01*
X4367095Y-12835244D01*
X4348048Y-12863815D01*
X4338524Y-12901910D01*
X4338524Y-12978101D01*
X4348048Y-12997148D01*
X4357571Y-13006672D01*
X4376619Y-13016196D01*
X4414714Y-13016196D01*
X4433762Y-13006672D01*
X4443286Y-12997148D01*
X4452810Y-12978101D01*
X4452810Y-12930482D01*
X4443286Y-12911434D01*
X4433762Y-12901910D01*
X4414714Y-12892387D01*
X4376619Y-12892387D01*
X4357571Y-12901910D01*
X4348048Y-12911434D01*
X4338524Y-12930482D01*
X4576619Y-12816196D02*
X4595667Y-12816196D01*
X4614714Y-12825720D01*
X4624238Y-12835244D01*
X4633762Y-12854291D01*
X4643286Y-12892387D01*
X4643286Y-12940006D01*
X4633762Y-12978101D01*
X4624238Y-12997148D01*
X4614714Y-13006672D01*
X4595667Y-13016196D01*
X4576619Y-13016196D01*
X4557571Y-13006672D01*
X4548048Y-12997148D01*
X4538524Y-12978101D01*
X4529000Y-12940006D01*
X4529000Y-12892387D01*
X4538524Y-12854291D01*
X4548048Y-12835244D01*
X4557571Y-12825720D01*
X4576619Y-12816196D01*
X4719476Y-12816196D02*
X4719476Y-12854291D01*
X4795667Y-12816196D02*
X4795667Y-12854291D01*
X5090905Y-13092387D02*
X5081381Y-13082863D01*
X5062333Y-13054291D01*
X5052810Y-13035244D01*
X5043286Y-13006672D01*
X5033762Y-12959053D01*
X5033762Y-12920958D01*
X5043286Y-12873339D01*
X5052810Y-12844768D01*
X5062333Y-12825720D01*
X5081381Y-12797148D01*
X5090905Y-12787625D01*
X5157571Y-12835244D02*
X5167095Y-12825720D01*
X5186143Y-12816196D01*
X5233762Y-12816196D01*
X5252810Y-12825720D01*
X5262333Y-12835244D01*
X5271857Y-12854291D01*
X5271857Y-12873339D01*
X5262333Y-12901910D01*
X5148048Y-13016196D01*
X5271857Y-13016196D01*
X5509952Y-13016196D02*
X5509952Y-12816196D01*
X5595667Y-13016196D02*
X5595667Y-12911434D01*
X5586143Y-12892387D01*
X5567095Y-12882863D01*
X5538524Y-12882863D01*
X5519476Y-12892387D01*
X5509952Y-12901910D01*
X5719476Y-13016196D02*
X5700428Y-13006672D01*
X5690905Y-12997148D01*
X5681381Y-12978101D01*
X5681381Y-12920958D01*
X5690905Y-12901910D01*
X5700428Y-12892387D01*
X5719476Y-12882863D01*
X5748048Y-12882863D01*
X5767095Y-12892387D01*
X5776619Y-12901910D01*
X5786143Y-12920958D01*
X5786143Y-12978101D01*
X5776619Y-12997148D01*
X5767095Y-13006672D01*
X5748048Y-13016196D01*
X5719476Y-13016196D01*
X5900428Y-13016196D02*
X5881381Y-13006672D01*
X5871857Y-12987625D01*
X5871857Y-12816196D01*
X6052809Y-13006672D02*
X6033762Y-13016196D01*
X5995667Y-13016196D01*
X5976619Y-13006672D01*
X5967095Y-12987625D01*
X5967095Y-12911434D01*
X5976619Y-12892387D01*
X5995667Y-12882863D01*
X6033762Y-12882863D01*
X6052809Y-12892387D01*
X6062333Y-12911434D01*
X6062333Y-12930482D01*
X5967095Y-12949529D01*
X6138524Y-13006672D02*
X6157571Y-13016196D01*
X6195667Y-13016196D01*
X6214714Y-13006672D01*
X6224238Y-12987625D01*
X6224238Y-12978101D01*
X6214714Y-12959053D01*
X6195667Y-12949529D01*
X6167095Y-12949529D01*
X6148048Y-12940006D01*
X6138524Y-12920958D01*
X6138524Y-12911434D01*
X6148048Y-12892387D01*
X6167095Y-12882863D01*
X6195667Y-12882863D01*
X6214714Y-12892387D01*
X6290905Y-13092387D02*
X6300428Y-13082863D01*
X6319476Y-13054291D01*
X6329000Y-13035244D01*
X6338524Y-13006672D01*
X6348048Y-12959053D01*
X6348048Y-12920958D01*
X6338524Y-12873339D01*
X6329000Y-12844768D01*
X6319476Y-12825720D01*
X6300428Y-12797148D01*
X6290905Y-12787625D01*
M02*
