G04 #@! TF.GenerationSoftware,KiCad,Pcbnew,(6.0.0-0)*
G04 #@! TF.CreationDate,2023-02-02T14:04:45-07:00*
G04 #@! TF.ProjectId,EVCU,45564355-2e6b-4696-9361-645f70636258,rev?*
G04 #@! TF.SameCoordinates,Original*
G04 #@! TF.FileFunction,Soldermask,Bot*
G04 #@! TF.FilePolarity,Negative*
%FSLAX46Y46*%
G04 Gerber Fmt 4.6, Leading zero omitted, Abs format (unit mm)*
G04 Created by KiCad (PCBNEW (6.0.0-0)) date 2023-02-02 14:04:45*
%MOMM*%
%LPD*%
G01*
G04 APERTURE LIST*
G04 Aperture macros list*
%AMRoundRect*
0 Rectangle with rounded corners*
0 $1 Rounding radius*
0 $2 $3 $4 $5 $6 $7 $8 $9 X,Y pos of 4 corners*
0 Add a 4 corners polygon primitive as box body*
4,1,4,$2,$3,$4,$5,$6,$7,$8,$9,$2,$3,0*
0 Add four circle primitives for the rounded corners*
1,1,$1+$1,$2,$3*
1,1,$1+$1,$4,$5*
1,1,$1+$1,$6,$7*
1,1,$1+$1,$8,$9*
0 Add four rect primitives between the rounded corners*
20,1,$1+$1,$2,$3,$4,$5,0*
20,1,$1+$1,$4,$5,$6,$7,0*
20,1,$1+$1,$6,$7,$8,$9,0*
20,1,$1+$1,$8,$9,$2,$3,0*%
G04 Aperture macros list end*
%ADD10R,2.400000X2.400000*%
%ADD11C,2.400000*%
%ADD12C,2.235200*%
%ADD13R,1.700000X1.700000*%
%ADD14O,1.700000X1.700000*%
%ADD15C,4.000000*%
%ADD16R,1.600000X1.600000*%
%ADD17C,1.600000*%
%ADD18RoundRect,0.237500X-0.300000X-0.237500X0.300000X-0.237500X0.300000X0.237500X-0.300000X0.237500X0*%
%ADD19RoundRect,0.250001X-0.462499X-1.074999X0.462499X-1.074999X0.462499X1.074999X-0.462499X1.074999X0*%
%ADD20RoundRect,0.237500X0.237500X-0.300000X0.237500X0.300000X-0.237500X0.300000X-0.237500X-0.300000X0*%
%ADD21RoundRect,0.237500X0.300000X0.237500X-0.300000X0.237500X-0.300000X-0.237500X0.300000X-0.237500X0*%
%ADD22RoundRect,0.250000X0.450000X-0.350000X0.450000X0.350000X-0.450000X0.350000X-0.450000X-0.350000X0*%
%ADD23RoundRect,0.250000X-0.450000X0.350000X-0.450000X-0.350000X0.450000X-0.350000X0.450000X0.350000X0*%
%ADD24RoundRect,0.250000X-0.350000X-0.450000X0.350000X-0.450000X0.350000X0.450000X-0.350000X0.450000X0*%
%ADD25RoundRect,0.237500X-0.237500X0.300000X-0.237500X-0.300000X0.237500X-0.300000X0.237500X0.300000X0*%
%ADD26R,0.800000X0.900000*%
%ADD27RoundRect,0.250000X0.350000X0.450000X-0.350000X0.450000X-0.350000X-0.450000X0.350000X-0.450000X0*%
G04 APERTURE END LIST*
D10*
X77425008Y-101176056D03*
D11*
X80925008Y-101176056D03*
D12*
X70132608Y-102993656D03*
X70132608Y-99691656D03*
X56670608Y-102993656D03*
X56670608Y-99691656D03*
D10*
X99862600Y-34738700D03*
D11*
X103362600Y-34738700D03*
D13*
X90551000Y-61188600D03*
D14*
X90551000Y-63728600D03*
X90551000Y-66268600D03*
X90551000Y-68808600D03*
X90551000Y-71348600D03*
X90551000Y-73888600D03*
D13*
X18837800Y-90170400D03*
D14*
X18837800Y-87630400D03*
X18837800Y-85090400D03*
X18837800Y-82550400D03*
X18837800Y-80010400D03*
X18837800Y-77470400D03*
D15*
X116162500Y-59116900D03*
X116162500Y-34116900D03*
D16*
X114742500Y-52156900D03*
D17*
X114742500Y-49386900D03*
X114742500Y-46616900D03*
X114742500Y-43846900D03*
X114742500Y-41076900D03*
X117582500Y-50771900D03*
X117582500Y-48001900D03*
X117582500Y-45231900D03*
X117582500Y-42461900D03*
D18*
X58954500Y-49961800D03*
X60679500Y-49961800D03*
D19*
X41565500Y-65608200D03*
X44540500Y-65608200D03*
D20*
X66471800Y-60171500D03*
X66471800Y-58446500D03*
D18*
X48515100Y-49987200D03*
X50240100Y-49987200D03*
D21*
X54989900Y-51460400D03*
X53264900Y-51460400D03*
X63905300Y-68199000D03*
X62180300Y-68199000D03*
D22*
X30673800Y-71408800D03*
X30673800Y-69408800D03*
D21*
X53973900Y-68173600D03*
X52248900Y-68173600D03*
D23*
X29784800Y-81981800D03*
X29784800Y-83981800D03*
D21*
X53973900Y-66497200D03*
X52248900Y-66497200D03*
X58901500Y-68199000D03*
X57176500Y-68199000D03*
D22*
X30521400Y-91170000D03*
X30521400Y-89170000D03*
D21*
X54964500Y-49885600D03*
X53239500Y-49885600D03*
X66419900Y-64287400D03*
X64694900Y-64287400D03*
D24*
X99904000Y-41190300D03*
X101904000Y-41190300D03*
D21*
X69950500Y-36449000D03*
X68225500Y-36449000D03*
D18*
X48159500Y-58166000D03*
X49884500Y-58166000D03*
D24*
X29724600Y-80441800D03*
X31724600Y-80441800D03*
D18*
X48921500Y-61315600D03*
X50646500Y-61315600D03*
D20*
X43154600Y-63169800D03*
X43154600Y-61444800D03*
D21*
X45058500Y-52705000D03*
X43333500Y-52705000D03*
D25*
X46685200Y-68860500D03*
X46685200Y-70585500D03*
D20*
X44729400Y-63169800D03*
X44729400Y-61444800D03*
D26*
X107066000Y-45248100D03*
X108966000Y-45248100D03*
X108016000Y-47648100D03*
D27*
X30632400Y-73329800D03*
X28632400Y-73329800D03*
D25*
X65532000Y-50038000D03*
X65532000Y-51763000D03*
D27*
X30581600Y-92862400D03*
X28581600Y-92862400D03*
M02*
