G04 #@! TF.GenerationSoftware,KiCad,Pcbnew,(6.0.0-0)*
G04 #@! TF.CreationDate,2023-02-02T14:04:45-07:00*
G04 #@! TF.ProjectId,EVCU,45564355-2e6b-4696-9361-645f70636258,rev?*
G04 #@! TF.SameCoordinates,Original*
G04 #@! TF.FileFunction,Soldermask,Top*
G04 #@! TF.FilePolarity,Negative*
%FSLAX46Y46*%
G04 Gerber Fmt 4.6, Leading zero omitted, Abs format (unit mm)*
G04 Created by KiCad (PCBNEW (6.0.0-0)) date 2023-02-02 14:04:45*
%MOMM*%
%LPD*%
G01*
G04 APERTURE LIST*
G04 Aperture macros list*
%AMRoundRect*
0 Rectangle with rounded corners*
0 $1 Rounding radius*
0 $2 $3 $4 $5 $6 $7 $8 $9 X,Y pos of 4 corners*
0 Add a 4 corners polygon primitive as box body*
4,1,4,$2,$3,$4,$5,$6,$7,$8,$9,$2,$3,0*
0 Add four circle primitives for the rounded corners*
1,1,$1+$1,$2,$3*
1,1,$1+$1,$4,$5*
1,1,$1+$1,$6,$7*
1,1,$1+$1,$8,$9*
0 Add four rect primitives between the rounded corners*
20,1,$1+$1,$2,$3,$4,$5,0*
20,1,$1+$1,$4,$5,$6,$7,0*
20,1,$1+$1,$6,$7,$8,$9,0*
20,1,$1+$1,$8,$9,$2,$3,0*%
%AMFreePoly0*
4,1,14,0.266715,0.088284,0.363284,-0.008285,0.375000,-0.036569,0.375000,-0.060000,0.363284,-0.088284,0.335000,-0.100000,-0.335000,-0.100000,-0.363284,-0.088284,-0.375000,-0.060000,-0.375000,0.060000,-0.363284,0.088284,-0.335000,0.100000,0.238431,0.100000,0.266715,0.088284,0.266715,0.088284,$1*%
%AMFreePoly1*
4,1,14,0.363284,0.088284,0.375000,0.060000,0.375000,0.036569,0.363284,0.008285,0.266715,-0.088284,0.238431,-0.100000,-0.335000,-0.100000,-0.363284,-0.088284,-0.375000,-0.060000,-0.375000,0.060000,-0.363284,0.088284,-0.335000,0.100000,0.335000,0.100000,0.363284,0.088284,0.363284,0.088284,$1*%
%AMFreePoly2*
4,1,14,0.088284,0.363284,0.100000,0.335000,0.100000,-0.335000,0.088284,-0.363284,0.060000,-0.375000,-0.060000,-0.375000,-0.088284,-0.363284,-0.100000,-0.335000,-0.100000,0.238431,-0.088284,0.266715,0.008285,0.363284,0.036569,0.375000,0.060000,0.375000,0.088284,0.363284,0.088284,0.363284,$1*%
%AMFreePoly3*
4,1,14,-0.008285,0.363284,0.088284,0.266715,0.100000,0.238431,0.100000,-0.335000,0.088284,-0.363284,0.060000,-0.375000,-0.060000,-0.375000,-0.088284,-0.363284,-0.100000,-0.335000,-0.100000,0.335000,-0.088284,0.363284,-0.060000,0.375000,-0.036569,0.375000,-0.008285,0.363284,-0.008285,0.363284,$1*%
%AMFreePoly4*
4,1,14,0.363284,0.088284,0.375000,0.060000,0.375000,-0.060000,0.363284,-0.088284,0.335000,-0.100000,-0.238431,-0.100000,-0.266715,-0.088284,-0.363284,0.008285,-0.375000,0.036569,-0.375000,0.060000,-0.363284,0.088284,-0.335000,0.100000,0.335000,0.100000,0.363284,0.088284,0.363284,0.088284,$1*%
%AMFreePoly5*
4,1,14,0.363284,0.088284,0.375000,0.060000,0.375000,-0.060000,0.363284,-0.088284,0.335000,-0.100000,-0.335000,-0.100000,-0.363284,-0.088284,-0.375000,-0.060000,-0.375000,-0.036569,-0.363284,-0.008285,-0.266715,0.088284,-0.238431,0.100000,0.335000,0.100000,0.363284,0.088284,0.363284,0.088284,$1*%
%AMFreePoly6*
4,1,14,0.088284,0.363284,0.100000,0.335000,0.100000,-0.238431,0.088284,-0.266715,-0.008285,-0.363284,-0.036569,-0.375000,-0.060000,-0.375000,-0.088284,-0.363284,-0.100000,-0.335000,-0.100000,0.335000,-0.088284,0.363284,-0.060000,0.375000,0.060000,0.375000,0.088284,0.363284,0.088284,0.363284,$1*%
%AMFreePoly7*
4,1,14,0.088284,0.363284,0.100000,0.335000,0.100000,-0.335000,0.088284,-0.363284,0.060000,-0.375000,0.036569,-0.375000,0.008285,-0.363284,-0.088284,-0.266715,-0.100000,-0.238431,-0.100000,0.335000,-0.088284,0.363284,-0.060000,0.375000,0.060000,0.375000,0.088284,0.363284,0.088284,0.363284,$1*%
%AMFreePoly8*
4,1,9,5.362500,-0.866500,1.237500,-0.866500,1.237500,-0.450000,-1.237500,-0.450000,-1.237500,0.450000,1.237500,0.450000,1.237500,0.866500,5.362500,0.866500,5.362500,-0.866500,5.362500,-0.866500,$1*%
G04 Aperture macros list end*
%ADD10R,1.500000X1.500000*%
%ADD11FreePoly0,270.000000*%
%ADD12RoundRect,0.050000X-0.050000X0.325000X-0.050000X-0.325000X0.050000X-0.325000X0.050000X0.325000X0*%
%ADD13FreePoly1,270.000000*%
%ADD14FreePoly2,270.000000*%
%ADD15RoundRect,0.050000X-0.325000X0.050000X-0.325000X-0.050000X0.325000X-0.050000X0.325000X0.050000X0*%
%ADD16FreePoly3,270.000000*%
%ADD17FreePoly4,270.000000*%
%ADD18FreePoly5,270.000000*%
%ADD19FreePoly6,270.000000*%
%ADD20FreePoly7,270.000000*%
%ADD21R,1.600000X1.750000*%
%ADD22RoundRect,0.237500X0.300000X0.237500X-0.300000X0.237500X-0.300000X-0.237500X0.300000X-0.237500X0*%
%ADD23RoundRect,0.237500X0.237500X-0.300000X0.237500X0.300000X-0.237500X0.300000X-0.237500X-0.300000X0*%
%ADD24R,0.400000X1.500000*%
%ADD25R,1.000000X1.500000*%
%ADD26RoundRect,0.250001X0.462499X0.849999X-0.462499X0.849999X-0.462499X-0.849999X0.462499X-0.849999X0*%
%ADD27RoundRect,0.237500X-0.237500X0.300000X-0.237500X-0.300000X0.237500X-0.300000X0.237500X0.300000X0*%
%ADD28R,0.900000X2.300000*%
%ADD29FreePoly8,90.000000*%
%ADD30RoundRect,0.250000X0.450000X-0.350000X0.450000X0.350000X-0.450000X0.350000X-0.450000X-0.350000X0*%
%ADD31RoundRect,0.250000X0.350000X0.450000X-0.350000X0.450000X-0.350000X-0.450000X0.350000X-0.450000X0*%
%ADD32R,1.500000X1.000000*%
%ADD33RoundRect,0.250000X0.412500X0.650000X-0.412500X0.650000X-0.412500X-0.650000X0.412500X-0.650000X0*%
%ADD34R,2.000000X0.650000*%
%ADD35RoundRect,0.150000X-0.150000X0.825000X-0.150000X-0.825000X0.150000X-0.825000X0.150000X0.825000X0*%
%ADD36R,3.000000X2.290000*%
%ADD37RoundRect,0.250000X-0.450000X0.350000X-0.450000X-0.350000X0.450000X-0.350000X0.450000X0.350000X0*%
%ADD38R,2.400000X2.400000*%
%ADD39C,2.400000*%
%ADD40C,2.235200*%
%ADD41RoundRect,0.075000X-0.662500X-0.075000X0.662500X-0.075000X0.662500X0.075000X-0.662500X0.075000X0*%
%ADD42RoundRect,0.075000X-0.075000X-0.662500X0.075000X-0.662500X0.075000X0.662500X-0.075000X0.662500X0*%
%ADD43R,1.700000X1.700000*%
%ADD44O,1.700000X1.700000*%
%ADD45R,3.500000X2.300000*%
%ADD46RoundRect,0.150000X-0.825000X-0.150000X0.825000X-0.150000X0.825000X0.150000X-0.825000X0.150000X0*%
%ADD47R,0.800000X1.500000*%
%ADD48R,1.450000X2.000000*%
%ADD49C,4.000000*%
%ADD50R,1.600000X1.600000*%
%ADD51C,1.600000*%
%ADD52RoundRect,0.200000X0.200000X0.250000X-0.200000X0.250000X-0.200000X-0.250000X0.200000X-0.250000X0*%
%ADD53RoundRect,0.250000X-0.350000X-0.450000X0.350000X-0.450000X0.350000X0.450000X-0.350000X0.450000X0*%
%ADD54R,0.450000X0.200000*%
%ADD55R,0.300000X2.800000*%
G04 APERTURE END LIST*
D10*
X94041500Y-52918900D03*
X93838300Y-41514300D03*
D11*
X64703200Y-73023600D03*
D12*
X64303200Y-73023600D03*
X63903200Y-73023600D03*
X63503200Y-73023600D03*
X63103200Y-73023600D03*
D13*
X62703200Y-73023600D03*
D14*
X62203200Y-73523600D03*
D15*
X62203200Y-73923600D03*
X62203200Y-74323600D03*
X62203200Y-74723600D03*
X62203200Y-75123600D03*
D16*
X62203200Y-75523600D03*
D17*
X62703200Y-76023600D03*
D12*
X63103200Y-76023600D03*
X63503200Y-76023600D03*
X63903200Y-76023600D03*
X64303200Y-76023600D03*
D18*
X64703200Y-76023600D03*
D19*
X65203200Y-75523600D03*
D15*
X65203200Y-75123600D03*
X65203200Y-74723600D03*
X65203200Y-74323600D03*
X65203200Y-73923600D03*
D20*
X65203200Y-73523600D03*
D21*
X63703200Y-74523600D03*
D22*
X31282300Y-67132200D03*
X29557300Y-67132200D03*
D23*
X62084000Y-91620500D03*
X62084000Y-89895500D03*
D24*
X87187800Y-64151200D03*
X86537800Y-64151200D03*
X85887800Y-64151200D03*
X85887800Y-66811200D03*
X87187800Y-66811200D03*
D25*
X34361400Y-65024000D03*
X33061400Y-65024000D03*
X31761400Y-65024000D03*
D26*
X58674500Y-89742000D03*
X56349500Y-89742000D03*
D27*
X62611000Y-77445700D03*
X62611000Y-79170700D03*
D28*
X45744000Y-89018000D03*
D29*
X47244000Y-88930500D03*
D28*
X48744000Y-89018000D03*
D10*
X41799000Y-92684600D03*
D27*
X47221808Y-91615556D03*
X47221808Y-93340556D03*
D30*
X29708600Y-71332600D03*
X29708600Y-69332600D03*
D31*
X33299400Y-71170800D03*
X31299400Y-71170800D03*
X64100000Y-93823256D03*
X62100000Y-93823256D03*
D32*
X34458400Y-81021400D03*
X34458400Y-82321400D03*
X34458400Y-83621400D03*
D33*
X56534500Y-96092000D03*
X53409500Y-96092000D03*
D31*
X30480000Y-80518000D03*
X28480000Y-80518000D03*
D30*
X97500400Y-43358700D03*
X97500400Y-41358700D03*
D34*
X56388000Y-92014000D03*
X56388000Y-92964000D03*
X56388000Y-93914000D03*
X59808000Y-93914000D03*
X59808000Y-92964000D03*
X59808000Y-92014000D03*
D35*
X32172400Y-73242400D03*
X30902400Y-73242400D03*
X29632400Y-73242400D03*
X28362400Y-73242400D03*
X28362400Y-78192400D03*
X29632400Y-78192400D03*
X30902400Y-78192400D03*
X32172400Y-78192400D03*
D36*
X30267400Y-75717400D03*
D10*
X28194000Y-65024000D03*
D37*
X97449600Y-50883700D03*
X97449600Y-52883700D03*
D32*
X38065200Y-90063800D03*
X38065200Y-91363800D03*
X38065200Y-92663800D03*
D38*
X77425008Y-101176056D03*
D39*
X80925008Y-101176056D03*
D10*
X46736000Y-96799400D03*
D35*
X32045400Y-92800400D03*
X30775400Y-92800400D03*
X29505400Y-92800400D03*
X28235400Y-92800400D03*
X28235400Y-97750400D03*
X29505400Y-97750400D03*
X30775400Y-97750400D03*
X32045400Y-97750400D03*
D36*
X30140400Y-95275400D03*
D40*
X70132608Y-102993656D03*
X70132608Y-99691656D03*
X56670608Y-102993656D03*
X56670608Y-99691656D03*
D41*
X46538300Y-50203400D03*
X46538300Y-50703400D03*
X46538300Y-51203400D03*
X46538300Y-51703400D03*
X46538300Y-52203400D03*
X46538300Y-52703400D03*
X46538300Y-53203400D03*
X46538300Y-53703400D03*
X46538300Y-54203400D03*
X46538300Y-54703400D03*
X46538300Y-55203400D03*
X46538300Y-55703400D03*
X46538300Y-56203400D03*
X46538300Y-56703400D03*
X46538300Y-57203400D03*
X46538300Y-57703400D03*
X46538300Y-58203400D03*
X46538300Y-58703400D03*
X46538300Y-59203400D03*
X46538300Y-59703400D03*
X46538300Y-60203400D03*
X46538300Y-60703400D03*
X46538300Y-61203400D03*
X46538300Y-61703400D03*
X46538300Y-62203400D03*
X46538300Y-62703400D03*
X46538300Y-63203400D03*
X46538300Y-63703400D03*
X46538300Y-64203400D03*
X46538300Y-64703400D03*
X46538300Y-65203400D03*
X46538300Y-65703400D03*
X46538300Y-66203400D03*
X46538300Y-66703400D03*
X46538300Y-67203400D03*
X46538300Y-67703400D03*
D42*
X48450800Y-69615900D03*
X48950800Y-69615900D03*
X49450800Y-69615900D03*
X49950800Y-69615900D03*
X50450800Y-69615900D03*
X50950800Y-69615900D03*
X51450800Y-69615900D03*
X51950800Y-69615900D03*
X52450800Y-69615900D03*
X52950800Y-69615900D03*
X53450800Y-69615900D03*
X53950800Y-69615900D03*
X54450800Y-69615900D03*
X54950800Y-69615900D03*
X55450800Y-69615900D03*
X55950800Y-69615900D03*
X56450800Y-69615900D03*
X56950800Y-69615900D03*
X57450800Y-69615900D03*
X57950800Y-69615900D03*
X58450800Y-69615900D03*
X58950800Y-69615900D03*
X59450800Y-69615900D03*
X59950800Y-69615900D03*
X60450800Y-69615900D03*
X60950800Y-69615900D03*
X61450800Y-69615900D03*
X61950800Y-69615900D03*
X62450800Y-69615900D03*
X62950800Y-69615900D03*
X63450800Y-69615900D03*
X63950800Y-69615900D03*
X64450800Y-69615900D03*
X64950800Y-69615900D03*
X65450800Y-69615900D03*
X65950800Y-69615900D03*
D41*
X67863300Y-67703400D03*
X67863300Y-67203400D03*
X67863300Y-66703400D03*
X67863300Y-66203400D03*
X67863300Y-65703400D03*
X67863300Y-65203400D03*
X67863300Y-64703400D03*
X67863300Y-64203400D03*
X67863300Y-63703400D03*
X67863300Y-63203400D03*
X67863300Y-62703400D03*
X67863300Y-62203400D03*
X67863300Y-61703400D03*
X67863300Y-61203400D03*
X67863300Y-60703400D03*
X67863300Y-60203400D03*
X67863300Y-59703400D03*
X67863300Y-59203400D03*
X67863300Y-58703400D03*
X67863300Y-58203400D03*
X67863300Y-57703400D03*
X67863300Y-57203400D03*
X67863300Y-56703400D03*
X67863300Y-56203400D03*
X67863300Y-55703400D03*
X67863300Y-55203400D03*
X67863300Y-54703400D03*
X67863300Y-54203400D03*
X67863300Y-53703400D03*
X67863300Y-53203400D03*
X67863300Y-52703400D03*
X67863300Y-52203400D03*
X67863300Y-51703400D03*
X67863300Y-51203400D03*
X67863300Y-50703400D03*
X67863300Y-50203400D03*
D42*
X65950800Y-48290900D03*
X65450800Y-48290900D03*
X64950800Y-48290900D03*
X64450800Y-48290900D03*
X63950800Y-48290900D03*
X63450800Y-48290900D03*
X62950800Y-48290900D03*
X62450800Y-48290900D03*
X61950800Y-48290900D03*
X61450800Y-48290900D03*
X60950800Y-48290900D03*
X60450800Y-48290900D03*
X59950800Y-48290900D03*
X59450800Y-48290900D03*
X58950800Y-48290900D03*
X58450800Y-48290900D03*
X57950800Y-48290900D03*
X57450800Y-48290900D03*
X56950800Y-48290900D03*
X56450800Y-48290900D03*
X55950800Y-48290900D03*
X55450800Y-48290900D03*
X54950800Y-48290900D03*
X54450800Y-48290900D03*
X53950800Y-48290900D03*
X53450800Y-48290900D03*
X52950800Y-48290900D03*
X52450800Y-48290900D03*
X51950800Y-48290900D03*
X51450800Y-48290900D03*
X50950800Y-48290900D03*
X50450800Y-48290900D03*
X49950800Y-48290900D03*
X49450800Y-48290900D03*
X48950800Y-48290900D03*
X48450800Y-48290900D03*
D38*
X99862600Y-34738700D03*
D39*
X103362600Y-34738700D03*
D31*
X32969200Y-90652600D03*
X30969200Y-90652600D03*
D22*
X60806500Y-73075800D03*
X59081500Y-73075800D03*
D43*
X90551000Y-61188600D03*
D44*
X90551000Y-63728600D03*
X90551000Y-66268600D03*
X90551000Y-68808600D03*
X90551000Y-71348600D03*
X90551000Y-73888600D03*
D37*
X33163000Y-67224400D03*
X33163000Y-69224400D03*
D31*
X26720800Y-80518000D03*
X24720800Y-80518000D03*
D27*
X51285808Y-89380356D03*
X51285808Y-91105356D03*
D43*
X18837800Y-90170400D03*
D44*
X18837800Y-87630400D03*
X18837800Y-85090400D03*
X18837800Y-82550400D03*
X18837800Y-80010400D03*
X18837800Y-77470400D03*
D27*
X52842008Y-89387500D03*
X52842008Y-91112500D03*
D10*
X34433000Y-87096600D03*
D45*
X94658200Y-61366400D03*
X100058200Y-61366400D03*
D10*
X52410208Y-87066856D03*
D46*
X92256800Y-45203500D03*
X92256800Y-46473500D03*
X92256800Y-47743500D03*
X92256800Y-49013500D03*
X97206800Y-49013500D03*
X97206800Y-47743500D03*
X97206800Y-46473500D03*
X97206800Y-45203500D03*
D30*
X29327600Y-90763600D03*
X29327600Y-88763600D03*
D47*
X72922200Y-35331400D03*
X74022200Y-35331400D03*
X75122200Y-35331400D03*
X76222200Y-35331400D03*
X77322200Y-35331400D03*
X78422200Y-35331400D03*
X79522200Y-35331400D03*
X80622200Y-35331400D03*
D48*
X82997200Y-32731400D03*
X69247200Y-32731400D03*
X69247200Y-41031400D03*
X82997200Y-41031400D03*
D30*
X32045400Y-82407000D03*
X32045400Y-80407000D03*
D22*
X58749100Y-74828400D03*
X57024100Y-74828400D03*
D23*
X35677600Y-91210300D03*
X35677600Y-89485300D03*
D30*
X51460400Y-46237400D03*
X51460400Y-44237400D03*
D49*
X116162500Y-59116900D03*
X116162500Y-34116900D03*
D50*
X114742500Y-52156900D03*
D51*
X114742500Y-49386900D03*
X114742500Y-46616900D03*
X114742500Y-43846900D03*
X114742500Y-41076900D03*
X117582500Y-50771900D03*
X117582500Y-48001900D03*
X117582500Y-45231900D03*
X117582500Y-42461900D03*
D52*
X44616200Y-61377000D03*
X44616200Y-59527000D03*
X43166200Y-59527000D03*
X43166200Y-61377000D03*
D22*
X30240900Y-82296000D03*
X28515900Y-82296000D03*
D31*
X35610800Y-92938600D03*
X33610800Y-92938600D03*
D22*
X41807300Y-61391800D03*
X40082300Y-61391800D03*
D53*
X62122208Y-95703856D03*
X64122208Y-95703856D03*
D54*
X65825200Y-36394400D03*
X65825200Y-36794400D03*
X65825200Y-37194400D03*
X65825200Y-37594400D03*
X65825200Y-37994400D03*
X65825200Y-38394400D03*
X65825200Y-38794400D03*
X65825200Y-39194400D03*
X66976200Y-39194400D03*
X66976200Y-38794400D03*
X66976200Y-38394400D03*
X66976200Y-37994400D03*
X66976200Y-37594400D03*
X66976200Y-37194400D03*
X66976200Y-36794400D03*
X66976200Y-36394400D03*
D55*
X66400200Y-37794400D03*
D27*
X54210000Y-89387500D03*
X54210000Y-91112500D03*
D31*
X101497600Y-49419900D03*
X99497600Y-49419900D03*
M02*
