G04 #@! TF.GenerationSoftware,KiCad,Pcbnew,(6.0.0-0)*
G04 #@! TF.CreationDate,2023-03-09T14:42:01-07:00*
G04 #@! TF.ProjectId,EVCU,45564355-2e6b-4696-9361-645f70636258,rev?*
G04 #@! TF.SameCoordinates,Original*
G04 #@! TF.FileFunction,Copper,L3,Inr*
G04 #@! TF.FilePolarity,Positive*
%FSLAX46Y46*%
G04 Gerber Fmt 4.6, Leading zero omitted, Abs format (unit mm)*
G04 Created by KiCad (PCBNEW (6.0.0-0)) date 2023-03-09 14:42:01*
%MOMM*%
%LPD*%
G01*
G04 APERTURE LIST*
G04 #@! TA.AperFunction,ComponentPad*
%ADD10C,3.800000*%
G04 #@! TD*
G04 #@! TA.AperFunction,ComponentPad*
%ADD11R,2.400000X2.400000*%
G04 #@! TD*
G04 #@! TA.AperFunction,ComponentPad*
%ADD12C,2.400000*%
G04 #@! TD*
G04 #@! TA.AperFunction,ComponentPad*
%ADD13C,2.235200*%
G04 #@! TD*
G04 #@! TA.AperFunction,ComponentPad*
%ADD14R,1.700000X1.700000*%
G04 #@! TD*
G04 #@! TA.AperFunction,ComponentPad*
%ADD15O,1.700000X1.700000*%
G04 #@! TD*
G04 #@! TA.AperFunction,ComponentPad*
%ADD16C,4.000000*%
G04 #@! TD*
G04 #@! TA.AperFunction,ComponentPad*
%ADD17R,1.600000X1.600000*%
G04 #@! TD*
G04 #@! TA.AperFunction,ComponentPad*
%ADD18C,1.600000*%
G04 #@! TD*
G04 #@! TA.AperFunction,ViaPad*
%ADD19C,0.800000*%
G04 #@! TD*
G04 #@! TA.AperFunction,ViaPad*
%ADD20C,0.600000*%
G04 #@! TD*
G04 APERTURE END LIST*
D10*
X83820000Y-45466000D03*
X159512000Y-45466000D03*
D11*
X150091200Y-121194600D03*
D12*
X153591200Y-121194600D03*
D13*
X138150600Y-124510800D03*
X138150600Y-121208800D03*
X124688600Y-124510800D03*
X124688600Y-121208800D03*
D14*
X144204531Y-58055200D03*
D15*
X141664531Y-58055200D03*
D14*
X139319000Y-74904600D03*
D15*
X139319000Y-77444600D03*
X139319000Y-79984600D03*
X139319000Y-82524600D03*
X139319000Y-85064600D03*
X139319000Y-87604600D03*
D10*
X159512000Y-127254000D03*
D11*
X88279200Y-97142600D03*
D12*
X88279200Y-100642600D03*
X88279200Y-104142600D03*
X88279200Y-107642600D03*
X88279200Y-111142600D03*
X88279200Y-114642600D03*
D16*
X152594869Y-78185200D03*
X152594869Y-53185200D03*
D17*
X151174869Y-71225200D03*
D18*
X151174869Y-68455200D03*
X151174869Y-65685200D03*
X151174869Y-62915200D03*
X151174869Y-60145200D03*
X154014869Y-69840200D03*
X154014869Y-67070200D03*
X154014869Y-64300200D03*
X154014869Y-61530200D03*
D10*
X83820000Y-127254000D03*
D19*
X98298000Y-82448400D03*
D20*
X119811800Y-92024200D03*
X136702800Y-70129400D03*
D19*
X115265200Y-103282600D03*
D20*
X101117400Y-78536800D03*
X131419600Y-79959200D03*
X104648000Y-72390000D03*
X108559600Y-89839800D03*
D19*
X126034800Y-45288200D03*
D20*
X120777000Y-66090800D03*
D19*
X115265200Y-102082600D03*
D20*
X121615200Y-94157800D03*
X104698800Y-76911200D03*
X122555000Y-58877200D03*
X124841000Y-92329000D03*
X114884200Y-93497400D03*
X123672600Y-100939600D03*
X121513600Y-57150000D03*
X128781700Y-69022500D03*
X126390400Y-65227200D03*
X118237000Y-66090800D03*
X130184200Y-87926700D03*
X109270800Y-65100200D03*
X138416831Y-58197400D03*
X97332800Y-98907600D03*
X119380000Y-88138000D03*
D19*
X129387600Y-117957600D03*
D20*
X108635800Y-83362800D03*
X104673400Y-79222600D03*
X121818400Y-91465400D03*
X130302000Y-64541400D03*
X104724200Y-75184000D03*
X97358200Y-106680000D03*
X101142800Y-80264000D03*
D19*
X112776000Y-109321600D03*
D20*
X119888000Y-96367600D03*
X122224800Y-99847400D03*
D19*
X146837400Y-122834400D03*
D20*
X113512600Y-63957200D03*
D19*
X122605800Y-112649000D03*
X141605000Y-69443600D03*
D20*
X127609600Y-80391000D03*
D19*
X117703600Y-44500800D03*
D20*
X146050000Y-66598800D03*
X128092200Y-67081400D03*
D19*
X134137400Y-44500800D03*
D20*
X127609600Y-85394800D03*
X119786400Y-58928000D03*
X116357400Y-69164200D03*
X95199200Y-109677200D03*
X114350800Y-88112600D03*
X95199200Y-102133400D03*
X97332800Y-114071400D03*
X105638600Y-69672200D03*
D19*
X121437400Y-117652800D03*
D20*
X108915200Y-87274400D03*
X130556000Y-77292200D03*
X120370600Y-69291200D03*
D19*
X136702800Y-80518000D03*
X120700800Y-112471200D03*
D20*
X141833600Y-62331600D03*
D19*
X134289800Y-52806600D03*
D20*
X115798600Y-63373000D03*
X108381800Y-91567000D03*
X135432800Y-67259200D03*
X117297200Y-63373000D03*
X112191800Y-91084400D03*
X126974600Y-97459800D03*
X105968800Y-82880200D03*
D19*
X117729000Y-52806600D03*
X115239800Y-114706400D03*
D20*
X108635800Y-77419200D03*
X107569000Y-65278000D03*
X102616000Y-82931000D03*
X118084600Y-92024200D03*
X95199200Y-111404400D03*
D19*
X119176800Y-112471200D03*
D20*
X109855000Y-69164200D03*
X124383800Y-88138000D03*
X127812800Y-67995800D03*
D19*
X128244600Y-45745400D03*
D20*
X102920800Y-81305400D03*
X103505000Y-89027000D03*
X132308600Y-86156800D03*
X126161800Y-98443700D03*
X119837200Y-63271400D03*
X125399800Y-100812600D03*
X112191800Y-92633800D03*
X122250200Y-97790000D03*
X126822200Y-59029600D03*
D19*
X98806000Y-112496600D03*
X122428000Y-108458000D03*
X116765200Y-111580800D03*
X98806000Y-97231200D03*
X132029200Y-112496600D03*
X116765200Y-112901600D03*
X98806000Y-105410000D03*
X116765200Y-114070000D03*
D20*
X122682000Y-113792000D03*
X129362200Y-113258600D03*
X131876800Y-81483200D03*
X109178400Y-81423200D03*
X109407000Y-85284000D03*
X105206800Y-89382600D03*
X132613400Y-70205600D03*
X135940800Y-76089200D03*
X125942400Y-76597200D03*
X133562400Y-79645200D03*
X100203000Y-114401600D03*
X100558600Y-101879400D03*
X100152200Y-99618800D03*
X105613200Y-99923600D03*
X147755531Y-64913200D03*
X145262600Y-64211200D03*
X140135531Y-65421200D03*
X122859800Y-98933000D03*
X123910400Y-90567200D03*
X128482400Y-95393200D03*
X125369200Y-88092400D03*
X125942400Y-93107200D03*
X121742200Y-96418400D03*
X131682800Y-73549200D03*
X123317000Y-60452000D03*
X127177800Y-64465200D03*
X127177800Y-73304400D03*
X130768400Y-68469200D03*
X130768400Y-73295200D03*
X124926400Y-66691200D03*
X123656400Y-61611200D03*
X123656400Y-64151200D03*
X125180400Y-63897200D03*
X123420900Y-62881200D03*
X124715900Y-62627200D03*
G04 #@! TA.AperFunction,Conductor*
G36*
X136272008Y-42896320D02*
G01*
X136340126Y-42916325D01*
X136386616Y-42969983D01*
X136398000Y-43022320D01*
X136398000Y-55880000D01*
X155829867Y-55880000D01*
X155897988Y-55900002D01*
X155944481Y-55953658D01*
X155955867Y-56006133D01*
X155919503Y-90552094D01*
X155899429Y-90620193D01*
X155845725Y-90666630D01*
X155793503Y-90677961D01*
X133525010Y-90677995D01*
X130302000Y-90678000D01*
X130302000Y-104014000D01*
X130281998Y-104082121D01*
X130228342Y-104128614D01*
X130176000Y-104140000D01*
X111886000Y-104140000D01*
X111817879Y-104119998D01*
X111771386Y-104066342D01*
X111760000Y-104014000D01*
X111760000Y-100806423D01*
X124894191Y-100806423D01*
X124895355Y-100815325D01*
X124895355Y-100815328D01*
X124896614Y-100824954D01*
X124912780Y-100948579D01*
X124970520Y-101079803D01*
X124976297Y-101086676D01*
X124976298Y-101086677D01*
X124983592Y-101095354D01*
X125062770Y-101189548D01*
X125182113Y-101268990D01*
X125318957Y-101311742D01*
X125327929Y-101311906D01*
X125327932Y-101311907D01*
X125393263Y-101313104D01*
X125462299Y-101314370D01*
X125471333Y-101311907D01*
X125591958Y-101279021D01*
X125591960Y-101279020D01*
X125600617Y-101276660D01*
X125722791Y-101201645D01*
X125819000Y-101095354D01*
X125881510Y-100966333D01*
X125905296Y-100824954D01*
X125905447Y-100812600D01*
X125885123Y-100670682D01*
X125825784Y-100540172D01*
X125807398Y-100518834D01*
X125738060Y-100438363D01*
X125738057Y-100438360D01*
X125732200Y-100431563D01*
X125611895Y-100353585D01*
X125474539Y-100312507D01*
X125465563Y-100312452D01*
X125465562Y-100312452D01*
X125405355Y-100312084D01*
X125331176Y-100311631D01*
X125193329Y-100351028D01*
X125072080Y-100427530D01*
X124977177Y-100534988D01*
X124916247Y-100664763D01*
X124894191Y-100806423D01*
X111760000Y-100806423D01*
X111760000Y-99841223D01*
X121719191Y-99841223D01*
X121720355Y-99850125D01*
X121720355Y-99850128D01*
X121727080Y-99901554D01*
X121737780Y-99983379D01*
X121795520Y-100114603D01*
X121801297Y-100121476D01*
X121801298Y-100121477D01*
X121881990Y-100217472D01*
X121887770Y-100224348D01*
X122007113Y-100303790D01*
X122143957Y-100346542D01*
X122152929Y-100346706D01*
X122152932Y-100346707D01*
X122218263Y-100347904D01*
X122287299Y-100349170D01*
X122296333Y-100346707D01*
X122416958Y-100313821D01*
X122416960Y-100313820D01*
X122425617Y-100311460D01*
X122547791Y-100236445D01*
X122644000Y-100130154D01*
X122706510Y-100001133D01*
X122730296Y-99859754D01*
X122730447Y-99847400D01*
X122710123Y-99705482D01*
X122676328Y-99631154D01*
X122666875Y-99610362D01*
X122656889Y-99540071D01*
X122686489Y-99475540D01*
X122746280Y-99437256D01*
X122783884Y-99432232D01*
X122922299Y-99434770D01*
X122930963Y-99432408D01*
X123051958Y-99399421D01*
X123051960Y-99399420D01*
X123060617Y-99397060D01*
X123182791Y-99322045D01*
X123279000Y-99215754D01*
X123341510Y-99086733D01*
X123365296Y-98945354D01*
X123365447Y-98933000D01*
X123349357Y-98820648D01*
X123346396Y-98799968D01*
X123346395Y-98799965D01*
X123345123Y-98791082D01*
X123285784Y-98660572D01*
X123231380Y-98597433D01*
X123198060Y-98558763D01*
X123198057Y-98558760D01*
X123192200Y-98551963D01*
X123071895Y-98473985D01*
X122949974Y-98437523D01*
X125656191Y-98437523D01*
X125657355Y-98446425D01*
X125657355Y-98446428D01*
X125660959Y-98473985D01*
X125674780Y-98579679D01*
X125732520Y-98710903D01*
X125738297Y-98717776D01*
X125738298Y-98717777D01*
X125807387Y-98799968D01*
X125824770Y-98820648D01*
X125944113Y-98900090D01*
X126080957Y-98942842D01*
X126089929Y-98943006D01*
X126089932Y-98943007D01*
X126155263Y-98944204D01*
X126224299Y-98945470D01*
X126233333Y-98943007D01*
X126353958Y-98910121D01*
X126353960Y-98910120D01*
X126362617Y-98907760D01*
X126484791Y-98832745D01*
X126581000Y-98726454D01*
X126643510Y-98597433D01*
X126667296Y-98456054D01*
X126667372Y-98449836D01*
X126667388Y-98448559D01*
X126667388Y-98448554D01*
X126667447Y-98443700D01*
X126647123Y-98301782D01*
X126640159Y-98286464D01*
X126591500Y-98179446D01*
X126587784Y-98171272D01*
X126508628Y-98079407D01*
X126500060Y-98069463D01*
X126500057Y-98069460D01*
X126494200Y-98062663D01*
X126373895Y-97984685D01*
X126236539Y-97943607D01*
X126227563Y-97943552D01*
X126227562Y-97943552D01*
X126167355Y-97943184D01*
X126093176Y-97942731D01*
X125955329Y-97982128D01*
X125834080Y-98058630D01*
X125828138Y-98065358D01*
X125828137Y-98065359D01*
X125786628Y-98112359D01*
X125739177Y-98166088D01*
X125678247Y-98295863D01*
X125676866Y-98304735D01*
X125661001Y-98406631D01*
X125656191Y-98437523D01*
X122949974Y-98437523D01*
X122934539Y-98432907D01*
X122925563Y-98432852D01*
X122925562Y-98432852D01*
X122865355Y-98432484D01*
X122791176Y-98432031D01*
X122653329Y-98471428D01*
X122532080Y-98547930D01*
X122526138Y-98554658D01*
X122526137Y-98554659D01*
X122488361Y-98597433D01*
X122437177Y-98655388D01*
X122376247Y-98785163D01*
X122367010Y-98844490D01*
X122358146Y-98901423D01*
X122354191Y-98926823D01*
X122355355Y-98935725D01*
X122355355Y-98935728D01*
X122356614Y-98945354D01*
X122372780Y-99068979D01*
X122417608Y-99170859D01*
X122426736Y-99241264D01*
X122396349Y-99305429D01*
X122336096Y-99342980D01*
X122299552Y-99345241D01*
X122299539Y-99347307D01*
X122156176Y-99346431D01*
X122018329Y-99385828D01*
X121897080Y-99462330D01*
X121891138Y-99469058D01*
X121891137Y-99469059D01*
X121885413Y-99475540D01*
X121802177Y-99569788D01*
X121741247Y-99699563D01*
X121719191Y-99841223D01*
X111760000Y-99841223D01*
X111760000Y-97783823D01*
X121744591Y-97783823D01*
X121745755Y-97792725D01*
X121745755Y-97792728D01*
X121752223Y-97842191D01*
X121763180Y-97925979D01*
X121820920Y-98057203D01*
X121826697Y-98064076D01*
X121826698Y-98064077D01*
X121833992Y-98072754D01*
X121913170Y-98166948D01*
X122032513Y-98246390D01*
X122169357Y-98289142D01*
X122178329Y-98289306D01*
X122178332Y-98289307D01*
X122243663Y-98290504D01*
X122312699Y-98291770D01*
X122321733Y-98289307D01*
X122442358Y-98256421D01*
X122442360Y-98256420D01*
X122451017Y-98254060D01*
X122573191Y-98179045D01*
X122586385Y-98164469D01*
X122663378Y-98079407D01*
X122669400Y-98072754D01*
X122723348Y-97961405D01*
X122727995Y-97951814D01*
X122727995Y-97951813D01*
X122731910Y-97943733D01*
X122755696Y-97802354D01*
X122755847Y-97790000D01*
X122735523Y-97648082D01*
X122676184Y-97517572D01*
X122628755Y-97462528D01*
X122621082Y-97453623D01*
X126468991Y-97453623D01*
X126470155Y-97462525D01*
X126470155Y-97462528D01*
X126471414Y-97472154D01*
X126487580Y-97595779D01*
X126545320Y-97727003D01*
X126551097Y-97733876D01*
X126551098Y-97733877D01*
X126620335Y-97816244D01*
X126637570Y-97836748D01*
X126756913Y-97916190D01*
X126893757Y-97958942D01*
X126902729Y-97959106D01*
X126902732Y-97959107D01*
X126968063Y-97960304D01*
X127037099Y-97961570D01*
X127046133Y-97959107D01*
X127166758Y-97926221D01*
X127166760Y-97926220D01*
X127175417Y-97923860D01*
X127297591Y-97848845D01*
X127356446Y-97783823D01*
X127387778Y-97749207D01*
X127393800Y-97742554D01*
X127435266Y-97656968D01*
X127452395Y-97621614D01*
X127452395Y-97621613D01*
X127456310Y-97613533D01*
X127480096Y-97472154D01*
X127480247Y-97459800D01*
X127469959Y-97387962D01*
X127461196Y-97326768D01*
X127461195Y-97326765D01*
X127459923Y-97317882D01*
X127448374Y-97292480D01*
X127404300Y-97195546D01*
X127400584Y-97187372D01*
X127382198Y-97166034D01*
X127312860Y-97085563D01*
X127312857Y-97085560D01*
X127307000Y-97078763D01*
X127186695Y-97000785D01*
X127049339Y-96959707D01*
X127040363Y-96959652D01*
X127040362Y-96959652D01*
X126980155Y-96959284D01*
X126905976Y-96958831D01*
X126768129Y-96998228D01*
X126646880Y-97074730D01*
X126551977Y-97182188D01*
X126491047Y-97311963D01*
X126487738Y-97333217D01*
X126474886Y-97415763D01*
X126468991Y-97453623D01*
X122621082Y-97453623D01*
X122588460Y-97415763D01*
X122588457Y-97415760D01*
X122582600Y-97408963D01*
X122462295Y-97330985D01*
X122324939Y-97289907D01*
X122315963Y-97289852D01*
X122315962Y-97289852D01*
X122255755Y-97289484D01*
X122181576Y-97289031D01*
X122043729Y-97328428D01*
X121922480Y-97404930D01*
X121827577Y-97512388D01*
X121766647Y-97642163D01*
X121757410Y-97701490D01*
X121749981Y-97749207D01*
X121744591Y-97783823D01*
X111760000Y-97783823D01*
X111760000Y-96361423D01*
X119382391Y-96361423D01*
X119383555Y-96370325D01*
X119383555Y-96370328D01*
X119390198Y-96421128D01*
X119400980Y-96503579D01*
X119458720Y-96634803D01*
X119464497Y-96641676D01*
X119464498Y-96641677D01*
X119468263Y-96646156D01*
X119550970Y-96744548D01*
X119558447Y-96749525D01*
X119652513Y-96812141D01*
X119670313Y-96823990D01*
X119807157Y-96866742D01*
X119816129Y-96866906D01*
X119816132Y-96866907D01*
X119881463Y-96868104D01*
X119950499Y-96869370D01*
X119959533Y-96866907D01*
X120080158Y-96834021D01*
X120080160Y-96834020D01*
X120088817Y-96831660D01*
X120210991Y-96756645D01*
X120269073Y-96692477D01*
X120301178Y-96657007D01*
X120307200Y-96650354D01*
X120369710Y-96521333D01*
X120388067Y-96412223D01*
X121236591Y-96412223D01*
X121237755Y-96421125D01*
X121237755Y-96421128D01*
X121239014Y-96430754D01*
X121255180Y-96554379D01*
X121312920Y-96685603D01*
X121318697Y-96692476D01*
X121318698Y-96692477D01*
X121372637Y-96756645D01*
X121405170Y-96795348D01*
X121452666Y-96826964D01*
X121516371Y-96869370D01*
X121524513Y-96874790D01*
X121661357Y-96917542D01*
X121670329Y-96917706D01*
X121670332Y-96917707D01*
X121735663Y-96918904D01*
X121804699Y-96920170D01*
X121813733Y-96917707D01*
X121934358Y-96884821D01*
X121934360Y-96884820D01*
X121943017Y-96882460D01*
X122065191Y-96807445D01*
X122111173Y-96756645D01*
X122155378Y-96707807D01*
X122161400Y-96701154D01*
X122223910Y-96572133D01*
X122247696Y-96430754D01*
X122247847Y-96418400D01*
X122227523Y-96276482D01*
X122168184Y-96145972D01*
X122114147Y-96083259D01*
X122080460Y-96044163D01*
X122080457Y-96044160D01*
X122074600Y-96037363D01*
X121954295Y-95959385D01*
X121816939Y-95918307D01*
X121807963Y-95918252D01*
X121807962Y-95918252D01*
X121747755Y-95917884D01*
X121673576Y-95917431D01*
X121535729Y-95956828D01*
X121414480Y-96033330D01*
X121319577Y-96140788D01*
X121258647Y-96270563D01*
X121257266Y-96279435D01*
X121240869Y-96384749D01*
X121236591Y-96412223D01*
X120388067Y-96412223D01*
X120393496Y-96379954D01*
X120393647Y-96367600D01*
X120380598Y-96276482D01*
X120374596Y-96234568D01*
X120374595Y-96234565D01*
X120373323Y-96225682D01*
X120313984Y-96095172D01*
X120270032Y-96044163D01*
X120226260Y-95993363D01*
X120226257Y-95993360D01*
X120220400Y-95986563D01*
X120100095Y-95908585D01*
X119962739Y-95867507D01*
X119953763Y-95867452D01*
X119953762Y-95867452D01*
X119893555Y-95867084D01*
X119819376Y-95866631D01*
X119681529Y-95906028D01*
X119560280Y-95982530D01*
X119465377Y-96089988D01*
X119404447Y-96219763D01*
X119403066Y-96228635D01*
X119394233Y-96285368D01*
X119382391Y-96361423D01*
X111760000Y-96361423D01*
X111760000Y-95387023D01*
X127976791Y-95387023D01*
X127977955Y-95395925D01*
X127977955Y-95395928D01*
X127979214Y-95405554D01*
X127995380Y-95529179D01*
X128053120Y-95660403D01*
X128058897Y-95667276D01*
X128058898Y-95667277D01*
X128066192Y-95675954D01*
X128145370Y-95770148D01*
X128264713Y-95849590D01*
X128401557Y-95892342D01*
X128410529Y-95892506D01*
X128410532Y-95892507D01*
X128475863Y-95893704D01*
X128544899Y-95894970D01*
X128553933Y-95892507D01*
X128674558Y-95859621D01*
X128674560Y-95859620D01*
X128683217Y-95857260D01*
X128805391Y-95782245D01*
X128901600Y-95675954D01*
X128964110Y-95546933D01*
X128987896Y-95405554D01*
X128988047Y-95393200D01*
X128967723Y-95251282D01*
X128908384Y-95120772D01*
X128889998Y-95099434D01*
X128820660Y-95018963D01*
X128820657Y-95018960D01*
X128814800Y-95012163D01*
X128694495Y-94934185D01*
X128557139Y-94893107D01*
X128548163Y-94893052D01*
X128548162Y-94893052D01*
X128487955Y-94892684D01*
X128413776Y-94892231D01*
X128275929Y-94931628D01*
X128154680Y-95008130D01*
X128059777Y-95115588D01*
X127998847Y-95245363D01*
X127976791Y-95387023D01*
X111760000Y-95387023D01*
X111760000Y-93980000D01*
X101980000Y-93980000D01*
X101911879Y-93959998D01*
X101865386Y-93906342D01*
X101854000Y-93854000D01*
X101854000Y-92627623D01*
X111686191Y-92627623D01*
X111687355Y-92636525D01*
X111687355Y-92636528D01*
X111695486Y-92698701D01*
X111704780Y-92769779D01*
X111762520Y-92901003D01*
X111768297Y-92907876D01*
X111768298Y-92907877D01*
X111816552Y-92965282D01*
X111854770Y-93010748D01*
X111974113Y-93090190D01*
X112110957Y-93132942D01*
X112119929Y-93133106D01*
X112119932Y-93133107D01*
X112185263Y-93134304D01*
X112254299Y-93135570D01*
X112263333Y-93133107D01*
X112381016Y-93101023D01*
X125436791Y-93101023D01*
X125437955Y-93109925D01*
X125437955Y-93109928D01*
X125446086Y-93172101D01*
X125455380Y-93243179D01*
X125513120Y-93374403D01*
X125518897Y-93381276D01*
X125518898Y-93381277D01*
X125526192Y-93389954D01*
X125605370Y-93484148D01*
X125724713Y-93563590D01*
X125861557Y-93606342D01*
X125870529Y-93606506D01*
X125870532Y-93606507D01*
X125935863Y-93607704D01*
X126004899Y-93608970D01*
X126013933Y-93606507D01*
X126134558Y-93573621D01*
X126134560Y-93573620D01*
X126143217Y-93571260D01*
X126265391Y-93496245D01*
X126361600Y-93389954D01*
X126424110Y-93260933D01*
X126447896Y-93119554D01*
X126448047Y-93107200D01*
X126434234Y-93010748D01*
X126428996Y-92974168D01*
X126428995Y-92974165D01*
X126427723Y-92965282D01*
X126368384Y-92834772D01*
X126319465Y-92777999D01*
X126280660Y-92732963D01*
X126280657Y-92732960D01*
X126274800Y-92726163D01*
X126154495Y-92648185D01*
X126017139Y-92607107D01*
X126008163Y-92607052D01*
X126008162Y-92607052D01*
X125947955Y-92606684D01*
X125873776Y-92606231D01*
X125735929Y-92645628D01*
X125614680Y-92722130D01*
X125519777Y-92829588D01*
X125458847Y-92959363D01*
X125457466Y-92968235D01*
X125438478Y-93090190D01*
X125436791Y-93101023D01*
X112381016Y-93101023D01*
X112383958Y-93100221D01*
X112383960Y-93100220D01*
X112392617Y-93097860D01*
X112514791Y-93022845D01*
X112611000Y-92916554D01*
X112673510Y-92787533D01*
X112697296Y-92646154D01*
X112697447Y-92633800D01*
X112681981Y-92525805D01*
X112678396Y-92500768D01*
X112678395Y-92500765D01*
X112677123Y-92491882D01*
X112617784Y-92361372D01*
X112550412Y-92283183D01*
X112530060Y-92259563D01*
X112530057Y-92259560D01*
X112524200Y-92252763D01*
X112403895Y-92174785D01*
X112266539Y-92133707D01*
X112257563Y-92133652D01*
X112257562Y-92133652D01*
X112197355Y-92133284D01*
X112123176Y-92132831D01*
X111985329Y-92172228D01*
X111864080Y-92248730D01*
X111769177Y-92356188D01*
X111708247Y-92485963D01*
X111706866Y-92494835D01*
X111688985Y-92609680D01*
X111686191Y-92627623D01*
X101854000Y-92627623D01*
X101854000Y-91560823D01*
X107876191Y-91560823D01*
X107877355Y-91569725D01*
X107877355Y-91569728D01*
X107879241Y-91584149D01*
X107894780Y-91702979D01*
X107952520Y-91834203D01*
X107958297Y-91841076D01*
X107958298Y-91841077D01*
X108034576Y-91931821D01*
X108044770Y-91943948D01*
X108164113Y-92023390D01*
X108300957Y-92066142D01*
X108309929Y-92066306D01*
X108309932Y-92066307D01*
X108375263Y-92067504D01*
X108444299Y-92068770D01*
X108453333Y-92066307D01*
X108573958Y-92033421D01*
X108573960Y-92033420D01*
X108582617Y-92031060D01*
X108603850Y-92018023D01*
X117578991Y-92018023D01*
X117580155Y-92026925D01*
X117580155Y-92026928D01*
X117581414Y-92036554D01*
X117597580Y-92160179D01*
X117655320Y-92291403D01*
X117661097Y-92298276D01*
X117661098Y-92298277D01*
X117668392Y-92306954D01*
X117747570Y-92401148D01*
X117866913Y-92480590D01*
X118003757Y-92523342D01*
X118012729Y-92523506D01*
X118012732Y-92523507D01*
X118078063Y-92524704D01*
X118147099Y-92525970D01*
X118156133Y-92523507D01*
X118276758Y-92490621D01*
X118276760Y-92490620D01*
X118285417Y-92488260D01*
X118407591Y-92413245D01*
X118503800Y-92306954D01*
X118566310Y-92177933D01*
X118590096Y-92036554D01*
X118590247Y-92024200D01*
X118578754Y-91943948D01*
X118571196Y-91891168D01*
X118571195Y-91891165D01*
X118569923Y-91882282D01*
X118559402Y-91859141D01*
X118548063Y-91834203D01*
X118510584Y-91751772D01*
X118460868Y-91694074D01*
X118422860Y-91649963D01*
X118422857Y-91649960D01*
X118417000Y-91643163D01*
X118296695Y-91565185D01*
X118159339Y-91524107D01*
X118150363Y-91524052D01*
X118150362Y-91524052D01*
X118090155Y-91523684D01*
X118015976Y-91523231D01*
X117878129Y-91562628D01*
X117756880Y-91639130D01*
X117661977Y-91746588D01*
X117601047Y-91876363D01*
X117599666Y-91885235D01*
X117586909Y-91967170D01*
X117578991Y-92018023D01*
X108603850Y-92018023D01*
X108704791Y-91956045D01*
X108801000Y-91849754D01*
X108850225Y-91748154D01*
X108859595Y-91728814D01*
X108859595Y-91728813D01*
X108863510Y-91720733D01*
X108887296Y-91579354D01*
X108887447Y-91567000D01*
X108873096Y-91466791D01*
X108868396Y-91433968D01*
X108868395Y-91433965D01*
X108867123Y-91425082D01*
X108807784Y-91294572D01*
X108759153Y-91238133D01*
X108720060Y-91192763D01*
X108720057Y-91192760D01*
X108714200Y-91185963D01*
X108593895Y-91107985D01*
X108494377Y-91078223D01*
X111686191Y-91078223D01*
X111687355Y-91087125D01*
X111687355Y-91087128D01*
X111695486Y-91149301D01*
X111704780Y-91220379D01*
X111762520Y-91351603D01*
X111768297Y-91358476D01*
X111768298Y-91358477D01*
X111831755Y-91433968D01*
X111854770Y-91461348D01*
X111974113Y-91540790D01*
X112110957Y-91583542D01*
X112119929Y-91583706D01*
X112119932Y-91583707D01*
X112185263Y-91584904D01*
X112254299Y-91586170D01*
X112263333Y-91583707D01*
X112383958Y-91550821D01*
X112383960Y-91550820D01*
X112392617Y-91548460D01*
X112514791Y-91473445D01*
X112527664Y-91459223D01*
X121312791Y-91459223D01*
X121313955Y-91468125D01*
X121313955Y-91468128D01*
X121321484Y-91525698D01*
X121331380Y-91601379D01*
X121389120Y-91732603D01*
X121394897Y-91739476D01*
X121394898Y-91739477D01*
X121402192Y-91748154D01*
X121481370Y-91842348D01*
X121600713Y-91921790D01*
X121737557Y-91964542D01*
X121746529Y-91964706D01*
X121746532Y-91964707D01*
X121811863Y-91965904D01*
X121880899Y-91967170D01*
X121889933Y-91964707D01*
X122010558Y-91931821D01*
X122010560Y-91931820D01*
X122019217Y-91929460D01*
X122141391Y-91854445D01*
X122237600Y-91748154D01*
X122285173Y-91649963D01*
X122296195Y-91627214D01*
X122296195Y-91627213D01*
X122300110Y-91619133D01*
X122323896Y-91477754D01*
X122324047Y-91465400D01*
X122308735Y-91358477D01*
X122304996Y-91332368D01*
X122304995Y-91332365D01*
X122303723Y-91323482D01*
X122290579Y-91294572D01*
X122284579Y-91281377D01*
X122244384Y-91192972D01*
X122225998Y-91171634D01*
X122156660Y-91091163D01*
X122156657Y-91091160D01*
X122150800Y-91084363D01*
X122030495Y-91006385D01*
X121893139Y-90965307D01*
X121884163Y-90965252D01*
X121884162Y-90965252D01*
X121823955Y-90964884D01*
X121749776Y-90964431D01*
X121611929Y-91003828D01*
X121490680Y-91080330D01*
X121395777Y-91187788D01*
X121334847Y-91317563D01*
X121327126Y-91367154D01*
X121318107Y-91425082D01*
X121312791Y-91459223D01*
X112527664Y-91459223D01*
X112550524Y-91433968D01*
X112604978Y-91373807D01*
X112611000Y-91367154D01*
X112673510Y-91238133D01*
X112697296Y-91096754D01*
X112697447Y-91084400D01*
X112685555Y-91001362D01*
X112678396Y-90951368D01*
X112678395Y-90951365D01*
X112677123Y-90942482D01*
X112617784Y-90811972D01*
X112599398Y-90790634D01*
X112530060Y-90710163D01*
X112530057Y-90710160D01*
X112524200Y-90703363D01*
X112403895Y-90625385D01*
X112266539Y-90584307D01*
X112257563Y-90584252D01*
X112257562Y-90584252D01*
X112197355Y-90583884D01*
X112123176Y-90583431D01*
X111985329Y-90622828D01*
X111864080Y-90699330D01*
X111769177Y-90806788D01*
X111708247Y-90936563D01*
X111703780Y-90965252D01*
X111687632Y-91068970D01*
X111686191Y-91078223D01*
X108494377Y-91078223D01*
X108456539Y-91066907D01*
X108447563Y-91066852D01*
X108447562Y-91066852D01*
X108387355Y-91066484D01*
X108313176Y-91066031D01*
X108175329Y-91105428D01*
X108054080Y-91181930D01*
X107959177Y-91289388D01*
X107898247Y-91419163D01*
X107889125Y-91477754D01*
X107878116Y-91548460D01*
X107876191Y-91560823D01*
X101854000Y-91560823D01*
X101854000Y-90561023D01*
X123404791Y-90561023D01*
X123405955Y-90569925D01*
X123405955Y-90569928D01*
X123408172Y-90586880D01*
X123423380Y-90703179D01*
X123481120Y-90834403D01*
X123486897Y-90841276D01*
X123486898Y-90841277D01*
X123494192Y-90849954D01*
X123573370Y-90944148D01*
X123607547Y-90966898D01*
X123674207Y-91011271D01*
X123692713Y-91023590D01*
X123829557Y-91066342D01*
X123838529Y-91066506D01*
X123838532Y-91066507D01*
X123903863Y-91067704D01*
X123972899Y-91068970D01*
X123981933Y-91066507D01*
X124102558Y-91033621D01*
X124102560Y-91033620D01*
X124111217Y-91031260D01*
X124233391Y-90956245D01*
X124329600Y-90849954D01*
X124392110Y-90720933D01*
X124415896Y-90579554D01*
X124416047Y-90567200D01*
X124395723Y-90425282D01*
X124336384Y-90294772D01*
X124317998Y-90273434D01*
X124248660Y-90192963D01*
X124248657Y-90192960D01*
X124242800Y-90186163D01*
X124122495Y-90108185D01*
X123985139Y-90067107D01*
X123976163Y-90067052D01*
X123976162Y-90067052D01*
X123915955Y-90066684D01*
X123841776Y-90066231D01*
X123703929Y-90105628D01*
X123582680Y-90182130D01*
X123487777Y-90289588D01*
X123426847Y-90419363D01*
X123404791Y-90561023D01*
X101854000Y-90561023D01*
X101854000Y-89020823D01*
X102999391Y-89020823D01*
X103000555Y-89029725D01*
X103000555Y-89029728D01*
X103001814Y-89039354D01*
X103017980Y-89162979D01*
X103021597Y-89171199D01*
X103053470Y-89243635D01*
X103075720Y-89294203D01*
X103081497Y-89301076D01*
X103081498Y-89301077D01*
X103156324Y-89390093D01*
X103167970Y-89403948D01*
X103287313Y-89483390D01*
X103424157Y-89526142D01*
X103433129Y-89526306D01*
X103433132Y-89526307D01*
X103498463Y-89527504D01*
X103567499Y-89528770D01*
X103576533Y-89526307D01*
X103697158Y-89493421D01*
X103697160Y-89493420D01*
X103705817Y-89491060D01*
X103827991Y-89416045D01*
X103847082Y-89394954D01*
X103863855Y-89376423D01*
X104701191Y-89376423D01*
X104702355Y-89385325D01*
X104702355Y-89385328D01*
X104703614Y-89394954D01*
X104719780Y-89518579D01*
X104777520Y-89649803D01*
X104783297Y-89656676D01*
X104783298Y-89656677D01*
X104790592Y-89665354D01*
X104869770Y-89759548D01*
X104989113Y-89838990D01*
X105125957Y-89881742D01*
X105134929Y-89881906D01*
X105134932Y-89881907D01*
X105200263Y-89883104D01*
X105269299Y-89884370D01*
X105278333Y-89881907D01*
X105398958Y-89849021D01*
X105398960Y-89849020D01*
X105407617Y-89846660D01*
X105529791Y-89771645D01*
X105626000Y-89665354D01*
X105688510Y-89536333D01*
X105712296Y-89394954D01*
X105712447Y-89382600D01*
X105692123Y-89240682D01*
X105632784Y-89110172D01*
X105571763Y-89039354D01*
X105545060Y-89008363D01*
X105545057Y-89008360D01*
X105539200Y-89001563D01*
X105418895Y-88923585D01*
X105281539Y-88882507D01*
X105272563Y-88882452D01*
X105272562Y-88882452D01*
X105212355Y-88882084D01*
X105138176Y-88881631D01*
X105000329Y-88921028D01*
X104879080Y-88997530D01*
X104784177Y-89104988D01*
X104723247Y-89234763D01*
X104701191Y-89376423D01*
X103863855Y-89376423D01*
X103918178Y-89316407D01*
X103924200Y-89309754D01*
X103986710Y-89180733D01*
X104010496Y-89039354D01*
X104010647Y-89027000D01*
X103990323Y-88885082D01*
X103930984Y-88754572D01*
X103912598Y-88733234D01*
X103843260Y-88652763D01*
X103843257Y-88652760D01*
X103837400Y-88645963D01*
X103717095Y-88567985D01*
X103579739Y-88526907D01*
X103570763Y-88526852D01*
X103570762Y-88526852D01*
X103510555Y-88526484D01*
X103436376Y-88526031D01*
X103298529Y-88565428D01*
X103177280Y-88641930D01*
X103171338Y-88648658D01*
X103171337Y-88648659D01*
X103129828Y-88695659D01*
X103082377Y-88749388D01*
X103021447Y-88879163D01*
X103020066Y-88888035D01*
X103002390Y-89001563D01*
X102999391Y-89020823D01*
X101854000Y-89020823D01*
X101854000Y-88106423D01*
X113845191Y-88106423D01*
X113846355Y-88115325D01*
X113846355Y-88115328D01*
X113853628Y-88170941D01*
X113863780Y-88248579D01*
X113867397Y-88256799D01*
X113914728Y-88364366D01*
X113921520Y-88379803D01*
X113927297Y-88386676D01*
X113927298Y-88386677D01*
X113928940Y-88388630D01*
X114013770Y-88489548D01*
X114027418Y-88498633D01*
X114114290Y-88556460D01*
X114133113Y-88568990D01*
X114141688Y-88571669D01*
X114148512Y-88573801D01*
X114269957Y-88611742D01*
X114278929Y-88611906D01*
X114278932Y-88611907D01*
X114344263Y-88613104D01*
X114413299Y-88614370D01*
X114422333Y-88611907D01*
X114542958Y-88579021D01*
X114542960Y-88579020D01*
X114551617Y-88576660D01*
X114673791Y-88501645D01*
X114687825Y-88486141D01*
X114763978Y-88402007D01*
X114770000Y-88395354D01*
X114832510Y-88266333D01*
X114855140Y-88131823D01*
X118874391Y-88131823D01*
X118875555Y-88140725D01*
X118875555Y-88140728D01*
X118876814Y-88150354D01*
X118892980Y-88273979D01*
X118896597Y-88282199D01*
X118940426Y-88381807D01*
X118950720Y-88405203D01*
X118956497Y-88412076D01*
X118956498Y-88412077D01*
X119014808Y-88481445D01*
X119042970Y-88514948D01*
X119050447Y-88519925D01*
X119153833Y-88588745D01*
X119162313Y-88594390D01*
X119299157Y-88637142D01*
X119308129Y-88637306D01*
X119308132Y-88637307D01*
X119373463Y-88638504D01*
X119442499Y-88639770D01*
X119451533Y-88637307D01*
X119572158Y-88604421D01*
X119572160Y-88604420D01*
X119580817Y-88602060D01*
X119702991Y-88527045D01*
X119734650Y-88492069D01*
X119793178Y-88427407D01*
X119799200Y-88420754D01*
X119839357Y-88337870D01*
X119857795Y-88299814D01*
X119857795Y-88299813D01*
X119861710Y-88291733D01*
X119885496Y-88150354D01*
X119885647Y-88138000D01*
X119884762Y-88131823D01*
X123878191Y-88131823D01*
X123879355Y-88140725D01*
X123879355Y-88140728D01*
X123880614Y-88150354D01*
X123896780Y-88273979D01*
X123900397Y-88282199D01*
X123944226Y-88381807D01*
X123954520Y-88405203D01*
X123960297Y-88412076D01*
X123960298Y-88412077D01*
X124018608Y-88481445D01*
X124046770Y-88514948D01*
X124054247Y-88519925D01*
X124157633Y-88588745D01*
X124166113Y-88594390D01*
X124302957Y-88637142D01*
X124311929Y-88637306D01*
X124311932Y-88637307D01*
X124377263Y-88638504D01*
X124446299Y-88639770D01*
X124455333Y-88637307D01*
X124575958Y-88604421D01*
X124575960Y-88604420D01*
X124584617Y-88602060D01*
X124706791Y-88527045D01*
X124738450Y-88492069D01*
X124803000Y-88420754D01*
X124805618Y-88423124D01*
X124847293Y-88388630D01*
X124917777Y-88380118D01*
X124981675Y-88411063D01*
X124993482Y-88423323D01*
X125032170Y-88469348D01*
X125040347Y-88474791D01*
X125117406Y-88526086D01*
X125151513Y-88548790D01*
X125288357Y-88591542D01*
X125297329Y-88591706D01*
X125297332Y-88591707D01*
X125362663Y-88592904D01*
X125431699Y-88594170D01*
X125440733Y-88591707D01*
X125561358Y-88558821D01*
X125561360Y-88558820D01*
X125570017Y-88556460D01*
X125692191Y-88481445D01*
X125788400Y-88375154D01*
X125845412Y-88257481D01*
X125846995Y-88254214D01*
X125846995Y-88254213D01*
X125850910Y-88246133D01*
X125874696Y-88104754D01*
X125874847Y-88092400D01*
X125861476Y-87999035D01*
X125855796Y-87959368D01*
X125855795Y-87959365D01*
X125854523Y-87950482D01*
X125795184Y-87819972D01*
X125757442Y-87776170D01*
X125707460Y-87718163D01*
X125707457Y-87718160D01*
X125701600Y-87711363D01*
X125581295Y-87633385D01*
X125443939Y-87592307D01*
X125434963Y-87592252D01*
X125434962Y-87592252D01*
X125374755Y-87591884D01*
X125300576Y-87591431D01*
X125162729Y-87630828D01*
X125041480Y-87707330D01*
X125035539Y-87714057D01*
X125035533Y-87714062D01*
X124950800Y-87810005D01*
X124890715Y-87847824D01*
X124819721Y-87847154D01*
X124760906Y-87808847D01*
X124754212Y-87801078D01*
X124716200Y-87756963D01*
X124595895Y-87678985D01*
X124458539Y-87637907D01*
X124449563Y-87637852D01*
X124449562Y-87637852D01*
X124389355Y-87637484D01*
X124315176Y-87637031D01*
X124177329Y-87676428D01*
X124056080Y-87752930D01*
X124050138Y-87759658D01*
X124050137Y-87759659D01*
X124037641Y-87773808D01*
X123961177Y-87860388D01*
X123900247Y-87990163D01*
X123891010Y-88049490D01*
X123881934Y-88107784D01*
X123878191Y-88131823D01*
X119884762Y-88131823D01*
X119865323Y-87996082D01*
X119805984Y-87865572D01*
X119773736Y-87828146D01*
X119718260Y-87763763D01*
X119718257Y-87763760D01*
X119712400Y-87756963D01*
X119592095Y-87678985D01*
X119454739Y-87637907D01*
X119445763Y-87637852D01*
X119445762Y-87637852D01*
X119385555Y-87637484D01*
X119311376Y-87637031D01*
X119173529Y-87676428D01*
X119052280Y-87752930D01*
X119046338Y-87759658D01*
X119046337Y-87759659D01*
X119033841Y-87773808D01*
X118957377Y-87860388D01*
X118896447Y-87990163D01*
X118887210Y-88049490D01*
X118878134Y-88107784D01*
X118874391Y-88131823D01*
X114855140Y-88131823D01*
X114856296Y-88124954D01*
X114856447Y-88112600D01*
X114841033Y-88004968D01*
X114837396Y-87979568D01*
X114837395Y-87979565D01*
X114836123Y-87970682D01*
X114824248Y-87944563D01*
X114789670Y-87868514D01*
X114776784Y-87840172D01*
X114719372Y-87773542D01*
X114689060Y-87738363D01*
X114689057Y-87738360D01*
X114683200Y-87731563D01*
X114562895Y-87653585D01*
X114425539Y-87612507D01*
X114416563Y-87612452D01*
X114416562Y-87612452D01*
X114356355Y-87612084D01*
X114282176Y-87611631D01*
X114144329Y-87651028D01*
X114023080Y-87727530D01*
X113928177Y-87834988D01*
X113867247Y-87964763D01*
X113861911Y-87999035D01*
X113846618Y-88097259D01*
X113845191Y-88106423D01*
X101854000Y-88106423D01*
X101854000Y-87268223D01*
X108409591Y-87268223D01*
X108410755Y-87277125D01*
X108410755Y-87277128D01*
X108412014Y-87286754D01*
X108428180Y-87410379D01*
X108485920Y-87541603D01*
X108491697Y-87548476D01*
X108491698Y-87548477D01*
X108572390Y-87644472D01*
X108578170Y-87651348D01*
X108697513Y-87730790D01*
X108834357Y-87773542D01*
X108843329Y-87773706D01*
X108843332Y-87773707D01*
X108908663Y-87774904D01*
X108977699Y-87776170D01*
X108986733Y-87773707D01*
X109107358Y-87740821D01*
X109107360Y-87740820D01*
X109116017Y-87738460D01*
X109238191Y-87663445D01*
X109245096Y-87655817D01*
X109304795Y-87589862D01*
X138263520Y-87589862D01*
X138264036Y-87596006D01*
X138278967Y-87773808D01*
X138280759Y-87795153D01*
X138282458Y-87801078D01*
X138334347Y-87982036D01*
X138337544Y-87993186D01*
X138340359Y-87998663D01*
X138340360Y-87998666D01*
X138408793Y-88131823D01*
X138431712Y-88176418D01*
X138559677Y-88337870D01*
X138564370Y-88341864D01*
X138564371Y-88341865D01*
X138657066Y-88420754D01*
X138716564Y-88471391D01*
X138721942Y-88474397D01*
X138721944Y-88474398D01*
X138782197Y-88508072D01*
X138896398Y-88571897D01*
X138964947Y-88594170D01*
X139086471Y-88633656D01*
X139086475Y-88633657D01*
X139092329Y-88635559D01*
X139296894Y-88659951D01*
X139303029Y-88659479D01*
X139303031Y-88659479D01*
X139359039Y-88655169D01*
X139502300Y-88644146D01*
X139508230Y-88642490D01*
X139508232Y-88642490D01*
X139669855Y-88597364D01*
X139700725Y-88588745D01*
X139706214Y-88585972D01*
X139706220Y-88585970D01*
X139863857Y-88506341D01*
X139884610Y-88495858D01*
X139892687Y-88489548D01*
X140042101Y-88372813D01*
X140046951Y-88369024D01*
X140128616Y-88274414D01*
X140177540Y-88217734D01*
X140177540Y-88217733D01*
X140181564Y-88213072D01*
X140202387Y-88176418D01*
X140280276Y-88039307D01*
X140283323Y-88033944D01*
X140348351Y-87838463D01*
X140374171Y-87634074D01*
X140374450Y-87614098D01*
X140374534Y-87608122D01*
X140374534Y-87608118D01*
X140374583Y-87604600D01*
X140354480Y-87399570D01*
X140294935Y-87202349D01*
X140198218Y-87020449D01*
X140091280Y-86889330D01*
X140071906Y-86865575D01*
X140071903Y-86865572D01*
X140068011Y-86860800D01*
X140007042Y-86810362D01*
X139914025Y-86733411D01*
X139914021Y-86733409D01*
X139909275Y-86729482D01*
X139728055Y-86631497D01*
X139531254Y-86570577D01*
X139525129Y-86569933D01*
X139525128Y-86569933D01*
X139332498Y-86549687D01*
X139332496Y-86549687D01*
X139326369Y-86549043D01*
X139239529Y-86556946D01*
X139127342Y-86567155D01*
X139127339Y-86567156D01*
X139121203Y-86567714D01*
X138923572Y-86625880D01*
X138918107Y-86628737D01*
X138865560Y-86656208D01*
X138741002Y-86721326D01*
X138736201Y-86725186D01*
X138736198Y-86725188D01*
X138617939Y-86820271D01*
X138580447Y-86850415D01*
X138448024Y-87008230D01*
X138445056Y-87013628D01*
X138445053Y-87013633D01*
X138374831Y-87141368D01*
X138348776Y-87188762D01*
X138286484Y-87385132D01*
X138285798Y-87391249D01*
X138285797Y-87391253D01*
X138264207Y-87583737D01*
X138263520Y-87589862D01*
X109304795Y-87589862D01*
X109328378Y-87563807D01*
X109334400Y-87557154D01*
X109396910Y-87428133D01*
X109420696Y-87286754D01*
X109420847Y-87274400D01*
X109400523Y-87132482D01*
X109341184Y-87001972D01*
X109322798Y-86980634D01*
X109253460Y-86900163D01*
X109253457Y-86900160D01*
X109247600Y-86893363D01*
X109127295Y-86815385D01*
X108989939Y-86774307D01*
X108980963Y-86774252D01*
X108980962Y-86774252D01*
X108920755Y-86773884D01*
X108846576Y-86773431D01*
X108708729Y-86812828D01*
X108587480Y-86889330D01*
X108492577Y-86996788D01*
X108431647Y-87126563D01*
X108409591Y-87268223D01*
X101854000Y-87268223D01*
X101854000Y-87122000D01*
X101284874Y-87121999D01*
X96115306Y-87121989D01*
X96047185Y-87101987D01*
X96000692Y-87048331D01*
X95989306Y-86995927D01*
X95989720Y-86150623D01*
X131802991Y-86150623D01*
X131804155Y-86159525D01*
X131804155Y-86159528D01*
X131805414Y-86169154D01*
X131821580Y-86292779D01*
X131879320Y-86424003D01*
X131885097Y-86430876D01*
X131885098Y-86430877D01*
X131892392Y-86439554D01*
X131971570Y-86533748D01*
X132090913Y-86613190D01*
X132227757Y-86655942D01*
X132236729Y-86656106D01*
X132236732Y-86656107D01*
X132302063Y-86657304D01*
X132371099Y-86658570D01*
X132380133Y-86656107D01*
X132500758Y-86623221D01*
X132500760Y-86623220D01*
X132509417Y-86620860D01*
X132631591Y-86545845D01*
X132727800Y-86439554D01*
X132790310Y-86310533D01*
X132814096Y-86169154D01*
X132814247Y-86156800D01*
X132798375Y-86045970D01*
X132795196Y-86023768D01*
X132795195Y-86023765D01*
X132793923Y-86014882D01*
X132734584Y-85884372D01*
X132708301Y-85853869D01*
X132646860Y-85782563D01*
X132646857Y-85782560D01*
X132641000Y-85775763D01*
X132520695Y-85697785D01*
X132383339Y-85656707D01*
X132374363Y-85656652D01*
X132374362Y-85656652D01*
X132314155Y-85656284D01*
X132239976Y-85655831D01*
X132102129Y-85695228D01*
X131980880Y-85771730D01*
X131974938Y-85778458D01*
X131974937Y-85778459D01*
X131970566Y-85783408D01*
X131885977Y-85879188D01*
X131825047Y-86008963D01*
X131815810Y-86068290D01*
X131807767Y-86119951D01*
X131802991Y-86150623D01*
X95989720Y-86150623D01*
X95990147Y-85277823D01*
X108901391Y-85277823D01*
X108902555Y-85286725D01*
X108902555Y-85286728D01*
X108903814Y-85296354D01*
X108919980Y-85419979D01*
X108977720Y-85551203D01*
X108983497Y-85558076D01*
X108983498Y-85558077D01*
X109049350Y-85636418D01*
X109069970Y-85660948D01*
X109189313Y-85740390D01*
X109326157Y-85783142D01*
X109335129Y-85783306D01*
X109335132Y-85783307D01*
X109400463Y-85784504D01*
X109469499Y-85785770D01*
X109478533Y-85783307D01*
X109599158Y-85750421D01*
X109599160Y-85750420D01*
X109607817Y-85748060D01*
X109729991Y-85673045D01*
X109745523Y-85655886D01*
X109820178Y-85573407D01*
X109826200Y-85566754D01*
X109888710Y-85437733D01*
X109896972Y-85388623D01*
X127103991Y-85388623D01*
X127105155Y-85397525D01*
X127105155Y-85397528D01*
X127111659Y-85447262D01*
X127122580Y-85530779D01*
X127180320Y-85662003D01*
X127186097Y-85668876D01*
X127186098Y-85668877D01*
X127208235Y-85695212D01*
X127272570Y-85771748D01*
X127391913Y-85851190D01*
X127528757Y-85893942D01*
X127537729Y-85894106D01*
X127537732Y-85894107D01*
X127603063Y-85895304D01*
X127672099Y-85896570D01*
X127681133Y-85894107D01*
X127801758Y-85861221D01*
X127801760Y-85861220D01*
X127810417Y-85858860D01*
X127932591Y-85783845D01*
X127939907Y-85775763D01*
X128012817Y-85695212D01*
X128028800Y-85677554D01*
X128091310Y-85548533D01*
X128115096Y-85407154D01*
X128115247Y-85394800D01*
X128102289Y-85304315D01*
X128096196Y-85261768D01*
X128096195Y-85261765D01*
X128094923Y-85252882D01*
X128035584Y-85122372D01*
X127988839Y-85068122D01*
X127973105Y-85049862D01*
X138263520Y-85049862D01*
X138264036Y-85056006D01*
X138270085Y-85128036D01*
X138280759Y-85255153D01*
X138282458Y-85261078D01*
X138330575Y-85428881D01*
X138337544Y-85453186D01*
X138340359Y-85458663D01*
X138340360Y-85458666D01*
X138399329Y-85573407D01*
X138431712Y-85636418D01*
X138559677Y-85797870D01*
X138564370Y-85801864D01*
X138564371Y-85801865D01*
X138664774Y-85887314D01*
X138716564Y-85931391D01*
X138896398Y-86031897D01*
X138991238Y-86062713D01*
X139086471Y-86093656D01*
X139086475Y-86093657D01*
X139092329Y-86095559D01*
X139296894Y-86119951D01*
X139303029Y-86119479D01*
X139303031Y-86119479D01*
X139359039Y-86115169D01*
X139502300Y-86104146D01*
X139508230Y-86102490D01*
X139508232Y-86102490D01*
X139694797Y-86050400D01*
X139694796Y-86050400D01*
X139700725Y-86048745D01*
X139706214Y-86045972D01*
X139706220Y-86045970D01*
X139879116Y-85958633D01*
X139884610Y-85955858D01*
X140046951Y-85829024D01*
X140086326Y-85783408D01*
X140177540Y-85677734D01*
X140177540Y-85677733D01*
X140181564Y-85673072D01*
X140185360Y-85666391D01*
X140255465Y-85542983D01*
X140283323Y-85493944D01*
X140348351Y-85298463D01*
X140374171Y-85094074D01*
X140374583Y-85064600D01*
X140354480Y-84859570D01*
X140294935Y-84662349D01*
X140198218Y-84480449D01*
X140124859Y-84390502D01*
X140071906Y-84325575D01*
X140071903Y-84325572D01*
X140068011Y-84320800D01*
X140050786Y-84306550D01*
X139914025Y-84193411D01*
X139914021Y-84193409D01*
X139909275Y-84189482D01*
X139728055Y-84091497D01*
X139531254Y-84030577D01*
X139525129Y-84029933D01*
X139525128Y-84029933D01*
X139332498Y-84009687D01*
X139332496Y-84009687D01*
X139326369Y-84009043D01*
X139239529Y-84016946D01*
X139127342Y-84027155D01*
X139127339Y-84027156D01*
X139121203Y-84027714D01*
X138923572Y-84085880D01*
X138741002Y-84181326D01*
X138736201Y-84185186D01*
X138736198Y-84185188D01*
X138725971Y-84193411D01*
X138580447Y-84310415D01*
X138448024Y-84468230D01*
X138445056Y-84473628D01*
X138445053Y-84473633D01*
X138438315Y-84485890D01*
X138348776Y-84648762D01*
X138286484Y-84845132D01*
X138285798Y-84851249D01*
X138285797Y-84851253D01*
X138269151Y-84999659D01*
X138263520Y-85049862D01*
X127973105Y-85049862D01*
X127947860Y-85020563D01*
X127947857Y-85020560D01*
X127942000Y-85013763D01*
X127821695Y-84935785D01*
X127684339Y-84894707D01*
X127675363Y-84894652D01*
X127675362Y-84894652D01*
X127615155Y-84894284D01*
X127540976Y-84893831D01*
X127403129Y-84933228D01*
X127281880Y-85009730D01*
X127186977Y-85117188D01*
X127126047Y-85246963D01*
X127103991Y-85388623D01*
X109896972Y-85388623D01*
X109912496Y-85296354D01*
X109912647Y-85284000D01*
X109892323Y-85142082D01*
X109883362Y-85122372D01*
X109868892Y-85090549D01*
X109832984Y-85011572D01*
X109814598Y-84990234D01*
X109745260Y-84909763D01*
X109745257Y-84909760D01*
X109739400Y-84902963D01*
X109619095Y-84824985D01*
X109481739Y-84783907D01*
X109472763Y-84783852D01*
X109472762Y-84783852D01*
X109412555Y-84783484D01*
X109338376Y-84783031D01*
X109200529Y-84822428D01*
X109079280Y-84898930D01*
X108984377Y-85006388D01*
X108923447Y-85136163D01*
X108922066Y-85145035D01*
X108903891Y-85261768D01*
X108901391Y-85277823D01*
X95990147Y-85277823D01*
X95991299Y-82924823D01*
X102110391Y-82924823D01*
X102111555Y-82933725D01*
X102111555Y-82933728D01*
X102113441Y-82948149D01*
X102128980Y-83066979D01*
X102186720Y-83198203D01*
X102192497Y-83205076D01*
X102192498Y-83205077D01*
X102246437Y-83269245D01*
X102278970Y-83307948D01*
X102326466Y-83339564D01*
X102390171Y-83381970D01*
X102398313Y-83387390D01*
X102535157Y-83430142D01*
X102544129Y-83430306D01*
X102544132Y-83430307D01*
X102609463Y-83431504D01*
X102678499Y-83432770D01*
X102687533Y-83430307D01*
X102808158Y-83397421D01*
X102808160Y-83397420D01*
X102816817Y-83395060D01*
X102938991Y-83320045D01*
X102984973Y-83269245D01*
X103029178Y-83220407D01*
X103035200Y-83213754D01*
X103097710Y-83084733D01*
X103121496Y-82943354D01*
X103121647Y-82931000D01*
X103113487Y-82874023D01*
X105463191Y-82874023D01*
X105464355Y-82882925D01*
X105464355Y-82882928D01*
X105470998Y-82933728D01*
X105481780Y-83016179D01*
X105485397Y-83024399D01*
X105535266Y-83137734D01*
X105539520Y-83147403D01*
X105545297Y-83154276D01*
X105545298Y-83154277D01*
X105608755Y-83229768D01*
X105631770Y-83257148D01*
X105639247Y-83262125D01*
X105733313Y-83324741D01*
X105751113Y-83336590D01*
X105887957Y-83379342D01*
X105896929Y-83379506D01*
X105896932Y-83379507D01*
X105962263Y-83380704D01*
X106031299Y-83381970D01*
X106040333Y-83379507D01*
X106124271Y-83356623D01*
X108130191Y-83356623D01*
X108131355Y-83365525D01*
X108131355Y-83365528D01*
X108135217Y-83395060D01*
X108148780Y-83498779D01*
X108206520Y-83630003D01*
X108212297Y-83636876D01*
X108212298Y-83636877D01*
X108219592Y-83645554D01*
X108298770Y-83739748D01*
X108418113Y-83819190D01*
X108554957Y-83861942D01*
X108563929Y-83862106D01*
X108563932Y-83862107D01*
X108629263Y-83863304D01*
X108698299Y-83864570D01*
X108707333Y-83862107D01*
X108827958Y-83829221D01*
X108827960Y-83829220D01*
X108836617Y-83826860D01*
X108958791Y-83751845D01*
X109055000Y-83645554D01*
X109117510Y-83516533D01*
X109141296Y-83375154D01*
X109141447Y-83362800D01*
X109127096Y-83262591D01*
X109122396Y-83229768D01*
X109122395Y-83229765D01*
X109121123Y-83220882D01*
X109061784Y-83090372D01*
X109013153Y-83033933D01*
X108974060Y-82988563D01*
X108974057Y-82988560D01*
X108968200Y-82981763D01*
X108847895Y-82903785D01*
X108710539Y-82862707D01*
X108701563Y-82862652D01*
X108701562Y-82862652D01*
X108641355Y-82862284D01*
X108567176Y-82861831D01*
X108429329Y-82901228D01*
X108308080Y-82977730D01*
X108213177Y-83085188D01*
X108152247Y-83214963D01*
X108143064Y-83273941D01*
X108132116Y-83344260D01*
X108130191Y-83356623D01*
X106124271Y-83356623D01*
X106160958Y-83346621D01*
X106160960Y-83346620D01*
X106169617Y-83344260D01*
X106291791Y-83269245D01*
X106327524Y-83229768D01*
X106381978Y-83169607D01*
X106388000Y-83162954D01*
X106450510Y-83033933D01*
X106474296Y-82892554D01*
X106474447Y-82880200D01*
X106461398Y-82789082D01*
X106455396Y-82747168D01*
X106455395Y-82747165D01*
X106454123Y-82738282D01*
X106394784Y-82607772D01*
X106348515Y-82554074D01*
X106310420Y-82509862D01*
X138263520Y-82509862D01*
X138264036Y-82516006D01*
X138271307Y-82602588D01*
X138280759Y-82715153D01*
X138282458Y-82721078D01*
X138334111Y-82901212D01*
X138337544Y-82913186D01*
X138340359Y-82918663D01*
X138340360Y-82918666D01*
X138428605Y-83090372D01*
X138431712Y-83096418D01*
X138559677Y-83257870D01*
X138564370Y-83261864D01*
X138564371Y-83261865D01*
X138703120Y-83379949D01*
X138716564Y-83391391D01*
X138721942Y-83394397D01*
X138721944Y-83394398D01*
X138790308Y-83432605D01*
X138896398Y-83491897D01*
X138972220Y-83516533D01*
X139086471Y-83553656D01*
X139086475Y-83553657D01*
X139092329Y-83555559D01*
X139296894Y-83579951D01*
X139303029Y-83579479D01*
X139303031Y-83579479D01*
X139359039Y-83575169D01*
X139502300Y-83564146D01*
X139508230Y-83562490D01*
X139508232Y-83562490D01*
X139694797Y-83510400D01*
X139694796Y-83510400D01*
X139700725Y-83508745D01*
X139706214Y-83505972D01*
X139706220Y-83505970D01*
X139851130Y-83432770D01*
X139884610Y-83415858D01*
X139908209Y-83397421D01*
X140042101Y-83292813D01*
X140046951Y-83289024D01*
X140059971Y-83273941D01*
X140177540Y-83137734D01*
X140177540Y-83137733D01*
X140181564Y-83133072D01*
X140202387Y-83096418D01*
X140237883Y-83033933D01*
X140283323Y-82953944D01*
X140348351Y-82758463D01*
X140374171Y-82554074D01*
X140374583Y-82524600D01*
X140354480Y-82319570D01*
X140294935Y-82122349D01*
X140198218Y-81940449D01*
X140089518Y-81807170D01*
X140071906Y-81785575D01*
X140071903Y-81785572D01*
X140068011Y-81780800D01*
X140061173Y-81775143D01*
X139914025Y-81653411D01*
X139914021Y-81653409D01*
X139909275Y-81649482D01*
X139728055Y-81551497D01*
X139531254Y-81490577D01*
X139525129Y-81489933D01*
X139525128Y-81489933D01*
X139332498Y-81469687D01*
X139332496Y-81469687D01*
X139326369Y-81469043D01*
X139239529Y-81476946D01*
X139127342Y-81487155D01*
X139127339Y-81487156D01*
X139121203Y-81487714D01*
X138923572Y-81545880D01*
X138918107Y-81548737D01*
X138859307Y-81579477D01*
X138741002Y-81641326D01*
X138736201Y-81645186D01*
X138736198Y-81645188D01*
X138596787Y-81757277D01*
X138580447Y-81770415D01*
X138448024Y-81928230D01*
X138445056Y-81933628D01*
X138445053Y-81933633D01*
X138416831Y-81984970D01*
X138348776Y-82108762D01*
X138286484Y-82305132D01*
X138285798Y-82311249D01*
X138285797Y-82311253D01*
X138265710Y-82490340D01*
X138263520Y-82509862D01*
X106310420Y-82509862D01*
X106307060Y-82505963D01*
X106307057Y-82505960D01*
X106301200Y-82499163D01*
X106180895Y-82421185D01*
X106043539Y-82380107D01*
X106034563Y-82380052D01*
X106034562Y-82380052D01*
X105974355Y-82379684D01*
X105900176Y-82379231D01*
X105762329Y-82418628D01*
X105641080Y-82495130D01*
X105635138Y-82501858D01*
X105635137Y-82501859D01*
X105615053Y-82524600D01*
X105546177Y-82602588D01*
X105485247Y-82732363D01*
X105480272Y-82764315D01*
X105464953Y-82862707D01*
X105463191Y-82874023D01*
X103113487Y-82874023D01*
X103101323Y-82789082D01*
X103087402Y-82758463D01*
X103078226Y-82738282D01*
X103041984Y-82658572D01*
X102954962Y-82557578D01*
X102954260Y-82556763D01*
X102954257Y-82556760D01*
X102948400Y-82549963D01*
X102828095Y-82471985D01*
X102690739Y-82430907D01*
X102681763Y-82430852D01*
X102681762Y-82430852D01*
X102621555Y-82430484D01*
X102547376Y-82430031D01*
X102409529Y-82469428D01*
X102288280Y-82545930D01*
X102282338Y-82552658D01*
X102282337Y-82552659D01*
X102278713Y-82556763D01*
X102193377Y-82653388D01*
X102132447Y-82783163D01*
X102131066Y-82792035D01*
X102112203Y-82913186D01*
X102110391Y-82924823D01*
X95991299Y-82924823D01*
X95992095Y-81299223D01*
X102415191Y-81299223D01*
X102416355Y-81308125D01*
X102416355Y-81308128D01*
X102419917Y-81335363D01*
X102433780Y-81441379D01*
X102491520Y-81572603D01*
X102497297Y-81579476D01*
X102497298Y-81579477D01*
X102556143Y-81649482D01*
X102583770Y-81682348D01*
X102703113Y-81761790D01*
X102839957Y-81804542D01*
X102848929Y-81804706D01*
X102848932Y-81804707D01*
X102914263Y-81805904D01*
X102983299Y-81807170D01*
X102992333Y-81804707D01*
X103112958Y-81771821D01*
X103112960Y-81771820D01*
X103121617Y-81769460D01*
X103243791Y-81694445D01*
X103304478Y-81627399D01*
X103333978Y-81594807D01*
X103340000Y-81588154D01*
X103388663Y-81487714D01*
X103398595Y-81467214D01*
X103398595Y-81467213D01*
X103402510Y-81459133D01*
X103409595Y-81417023D01*
X108672791Y-81417023D01*
X108673955Y-81425925D01*
X108673955Y-81425928D01*
X108680637Y-81477023D01*
X108691380Y-81559179D01*
X108749120Y-81690403D01*
X108754897Y-81697276D01*
X108754898Y-81697277D01*
X108809127Y-81761790D01*
X108841370Y-81800148D01*
X108960713Y-81879590D01*
X109097557Y-81922342D01*
X109106529Y-81922506D01*
X109106532Y-81922507D01*
X109171863Y-81923704D01*
X109240899Y-81924970D01*
X109249933Y-81922507D01*
X109370558Y-81889621D01*
X109370560Y-81889620D01*
X109379217Y-81887260D01*
X109501391Y-81812245D01*
X109597600Y-81705954D01*
X109635329Y-81628081D01*
X109656195Y-81585014D01*
X109656195Y-81585013D01*
X109660110Y-81576933D01*
X109676919Y-81477023D01*
X131371191Y-81477023D01*
X131372355Y-81485925D01*
X131372355Y-81485928D01*
X131373614Y-81495554D01*
X131389780Y-81619179D01*
X131447520Y-81750403D01*
X131453297Y-81757276D01*
X131453298Y-81757277D01*
X131473071Y-81780800D01*
X131539770Y-81860148D01*
X131584046Y-81889621D01*
X131633602Y-81922608D01*
X131659113Y-81939590D01*
X131667688Y-81942269D01*
X131683664Y-81947260D01*
X131795957Y-81982342D01*
X131804929Y-81982506D01*
X131804932Y-81982507D01*
X131870263Y-81983704D01*
X131939299Y-81984970D01*
X131948333Y-81982507D01*
X132068958Y-81949621D01*
X132068960Y-81949620D01*
X132077617Y-81947260D01*
X132199791Y-81872245D01*
X132296000Y-81765954D01*
X132339838Y-81675472D01*
X132354595Y-81645014D01*
X132354595Y-81645013D01*
X132358510Y-81636933D01*
X132382296Y-81495554D01*
X132382447Y-81483200D01*
X132362123Y-81341282D01*
X132302784Y-81210772D01*
X132256936Y-81157563D01*
X132215060Y-81108963D01*
X132215057Y-81108960D01*
X132209200Y-81102163D01*
X132088895Y-81024185D01*
X131951539Y-80983107D01*
X131942563Y-80983052D01*
X131942562Y-80983052D01*
X131882355Y-80982684D01*
X131808176Y-80982231D01*
X131670329Y-81021628D01*
X131549080Y-81098130D01*
X131454177Y-81205588D01*
X131393247Y-81335363D01*
X131391866Y-81344235D01*
X131375355Y-81450281D01*
X131371191Y-81477023D01*
X109676919Y-81477023D01*
X109683896Y-81435554D01*
X109684047Y-81423200D01*
X109673588Y-81350168D01*
X109664996Y-81290168D01*
X109664995Y-81290165D01*
X109663723Y-81281282D01*
X109604384Y-81150772D01*
X109554897Y-81093340D01*
X109516660Y-81048963D01*
X109516657Y-81048960D01*
X109510800Y-81042163D01*
X109390495Y-80964185D01*
X109253139Y-80923107D01*
X109244163Y-80923052D01*
X109244162Y-80923052D01*
X109183955Y-80922684D01*
X109109776Y-80922231D01*
X108971929Y-80961628D01*
X108850680Y-81038130D01*
X108755777Y-81145588D01*
X108694847Y-81275363D01*
X108672791Y-81417023D01*
X103409595Y-81417023D01*
X103426296Y-81317754D01*
X103426447Y-81305400D01*
X103413317Y-81213714D01*
X103407396Y-81172368D01*
X103407395Y-81172365D01*
X103406123Y-81163482D01*
X103346784Y-81032972D01*
X103328398Y-81011634D01*
X103259060Y-80931163D01*
X103259057Y-80931160D01*
X103253200Y-80924363D01*
X103132895Y-80846385D01*
X102995539Y-80805307D01*
X102986563Y-80805252D01*
X102986562Y-80805252D01*
X102926355Y-80804884D01*
X102852176Y-80804431D01*
X102714329Y-80843828D01*
X102593080Y-80920330D01*
X102498177Y-81027788D01*
X102437247Y-81157563D01*
X102435866Y-81166435D01*
X102416601Y-81290168D01*
X102415191Y-81299223D01*
X95992095Y-81299223D01*
X95992605Y-80257823D01*
X100637191Y-80257823D01*
X100638355Y-80266725D01*
X100638355Y-80266728D01*
X100639614Y-80276354D01*
X100655780Y-80399979D01*
X100659397Y-80408199D01*
X100707711Y-80518000D01*
X100713520Y-80531203D01*
X100719297Y-80538076D01*
X100719298Y-80538077D01*
X100724893Y-80544733D01*
X100805770Y-80640948D01*
X100925113Y-80720390D01*
X101061957Y-80763142D01*
X101070929Y-80763306D01*
X101070932Y-80763307D01*
X101136263Y-80764504D01*
X101205299Y-80765770D01*
X101214333Y-80763307D01*
X101334958Y-80730421D01*
X101334960Y-80730420D01*
X101343617Y-80728060D01*
X101465791Y-80653045D01*
X101562000Y-80546754D01*
X101624510Y-80417733D01*
X101630047Y-80384823D01*
X127103991Y-80384823D01*
X127105155Y-80393725D01*
X127105155Y-80393728D01*
X127107137Y-80408881D01*
X127122580Y-80526979D01*
X127137658Y-80561246D01*
X127175123Y-80646391D01*
X127180320Y-80658203D01*
X127186097Y-80665076D01*
X127186098Y-80665077D01*
X127193392Y-80673754D01*
X127272570Y-80767948D01*
X127391913Y-80847390D01*
X127400488Y-80850069D01*
X127404720Y-80851391D01*
X127528757Y-80890142D01*
X127537729Y-80890306D01*
X127537732Y-80890307D01*
X127603063Y-80891504D01*
X127672099Y-80892770D01*
X127681133Y-80890307D01*
X127801758Y-80857421D01*
X127801760Y-80857420D01*
X127810417Y-80855060D01*
X127932591Y-80780045D01*
X128028800Y-80673754D01*
X128085649Y-80556418D01*
X128087395Y-80552814D01*
X128087395Y-80552813D01*
X128091310Y-80544733D01*
X128095808Y-80518000D01*
X136097118Y-80518000D01*
X136117756Y-80674762D01*
X136178264Y-80820841D01*
X136274518Y-80946282D01*
X136281064Y-80951305D01*
X136303792Y-80968745D01*
X136399959Y-81042536D01*
X136546038Y-81103044D01*
X136554226Y-81104122D01*
X136624419Y-81113363D01*
X136702800Y-81123682D01*
X136710988Y-81122604D01*
X136851374Y-81104122D01*
X136859562Y-81103044D01*
X137005641Y-81042536D01*
X137101808Y-80968745D01*
X137124536Y-80951305D01*
X137131082Y-80946282D01*
X137227336Y-80820841D01*
X137287844Y-80674762D01*
X137308482Y-80518000D01*
X137287844Y-80361238D01*
X137227336Y-80215159D01*
X137131082Y-80089718D01*
X137005641Y-79993464D01*
X136948661Y-79969862D01*
X138263520Y-79969862D01*
X138264036Y-79976006D01*
X138278379Y-80146805D01*
X138280759Y-80175153D01*
X138282458Y-80181078D01*
X138320560Y-80313954D01*
X138337544Y-80373186D01*
X138340359Y-80378663D01*
X138340360Y-80378666D01*
X138360438Y-80417733D01*
X138431712Y-80556418D01*
X138559677Y-80717870D01*
X138564370Y-80721864D01*
X138564371Y-80721865D01*
X138707659Y-80843812D01*
X138716564Y-80851391D01*
X138721942Y-80854397D01*
X138721944Y-80854398D01*
X138790308Y-80892605D01*
X138896398Y-80951897D01*
X138991238Y-80982713D01*
X139086471Y-81013656D01*
X139086475Y-81013657D01*
X139092329Y-81015559D01*
X139296894Y-81039951D01*
X139303029Y-81039479D01*
X139303031Y-81039479D01*
X139359039Y-81035169D01*
X139502300Y-81024146D01*
X139508230Y-81022490D01*
X139508232Y-81022490D01*
X139640070Y-80985680D01*
X139700725Y-80968745D01*
X139706214Y-80965972D01*
X139706220Y-80965970D01*
X139851130Y-80892770D01*
X139884610Y-80875858D01*
X139908209Y-80857421D01*
X140028669Y-80763307D01*
X140046951Y-80749024D01*
X140065047Y-80728060D01*
X140177540Y-80597734D01*
X140177540Y-80597733D01*
X140181564Y-80593072D01*
X140202387Y-80556418D01*
X140280276Y-80419307D01*
X140283323Y-80413944D01*
X140348351Y-80218463D01*
X140374171Y-80014074D01*
X140374390Y-79998406D01*
X140374534Y-79988122D01*
X140374534Y-79988118D01*
X140374583Y-79984600D01*
X140354480Y-79779570D01*
X140294935Y-79582349D01*
X140198218Y-79400449D01*
X140109152Y-79291244D01*
X140071906Y-79245575D01*
X140071903Y-79245572D01*
X140068011Y-79240800D01*
X140061173Y-79235143D01*
X139914025Y-79113411D01*
X139914021Y-79113409D01*
X139909275Y-79109482D01*
X139728055Y-79011497D01*
X139531254Y-78950577D01*
X139525129Y-78949933D01*
X139525128Y-78949933D01*
X139332498Y-78929687D01*
X139332496Y-78929687D01*
X139326369Y-78929043D01*
X139239529Y-78936946D01*
X139127342Y-78947155D01*
X139127339Y-78947156D01*
X139121203Y-78947714D01*
X138923572Y-79005880D01*
X138741002Y-79101326D01*
X138736201Y-79105186D01*
X138736198Y-79105188D01*
X138596157Y-79217784D01*
X138580447Y-79230415D01*
X138448024Y-79388230D01*
X138445056Y-79393628D01*
X138445053Y-79393633D01*
X138383150Y-79506235D01*
X138348776Y-79568762D01*
X138286484Y-79765132D01*
X138285798Y-79771249D01*
X138285797Y-79771253D01*
X138267205Y-79937013D01*
X138263520Y-79969862D01*
X136948661Y-79969862D01*
X136877853Y-79940532D01*
X136867191Y-79936116D01*
X136859562Y-79932956D01*
X136702800Y-79912318D01*
X136546038Y-79932956D01*
X136538409Y-79936116D01*
X136527747Y-79940532D01*
X136399959Y-79993464D01*
X136274518Y-80089718D01*
X136178264Y-80215159D01*
X136117756Y-80361238D01*
X136097118Y-80518000D01*
X128095808Y-80518000D01*
X128115096Y-80403354D01*
X128115247Y-80391000D01*
X128104213Y-80313954D01*
X128096196Y-80257968D01*
X128096195Y-80257965D01*
X128094923Y-80249082D01*
X128081002Y-80218463D01*
X128075779Y-80206977D01*
X128035584Y-80118572D01*
X128006394Y-80084695D01*
X127947860Y-80016763D01*
X127947857Y-80016760D01*
X127942000Y-80009963D01*
X127821695Y-79931985D01*
X127684339Y-79890907D01*
X127675363Y-79890852D01*
X127675362Y-79890852D01*
X127615155Y-79890484D01*
X127540976Y-79890031D01*
X127403129Y-79929428D01*
X127281880Y-80005930D01*
X127275938Y-80012658D01*
X127275937Y-80012659D01*
X127273629Y-80015272D01*
X127186977Y-80113388D01*
X127126047Y-80243163D01*
X127123742Y-80257968D01*
X127105803Y-80373186D01*
X127103991Y-80384823D01*
X101630047Y-80384823D01*
X101648296Y-80276354D01*
X101648447Y-80264000D01*
X101634844Y-80169011D01*
X101629396Y-80130968D01*
X101629395Y-80130965D01*
X101628123Y-80122082D01*
X101568784Y-79991572D01*
X101521773Y-79937013D01*
X101481060Y-79889763D01*
X101481057Y-79889760D01*
X101475200Y-79882963D01*
X101354895Y-79804985D01*
X101217539Y-79763907D01*
X101208563Y-79763852D01*
X101208562Y-79763852D01*
X101148355Y-79763484D01*
X101074176Y-79763031D01*
X100936329Y-79802428D01*
X100815080Y-79878930D01*
X100720177Y-79986388D01*
X100659247Y-80116163D01*
X100651019Y-80169011D01*
X100639474Y-80243163D01*
X100637191Y-80257823D01*
X95992605Y-80257823D01*
X95993115Y-79216423D01*
X104167791Y-79216423D01*
X104168955Y-79225325D01*
X104168955Y-79225328D01*
X104171603Y-79245575D01*
X104186380Y-79358579D01*
X104244120Y-79489803D01*
X104249897Y-79496676D01*
X104249898Y-79496677D01*
X104317341Y-79576910D01*
X104336370Y-79599548D01*
X104455713Y-79678990D01*
X104592557Y-79721742D01*
X104601529Y-79721906D01*
X104601532Y-79721907D01*
X104666863Y-79723104D01*
X104735899Y-79724370D01*
X104744933Y-79721907D01*
X104865558Y-79689021D01*
X104865560Y-79689020D01*
X104874217Y-79686660D01*
X104951802Y-79639023D01*
X133056791Y-79639023D01*
X133057955Y-79647925D01*
X133057955Y-79647928D01*
X133062406Y-79681964D01*
X133075380Y-79781179D01*
X133078997Y-79789399D01*
X133124362Y-79892498D01*
X133133120Y-79912403D01*
X133138897Y-79919276D01*
X133138898Y-79919277D01*
X133193808Y-79984600D01*
X133225370Y-80022148D01*
X133344713Y-80101590D01*
X133481557Y-80144342D01*
X133490529Y-80144506D01*
X133490532Y-80144507D01*
X133555863Y-80145704D01*
X133624899Y-80146970D01*
X133633933Y-80144507D01*
X133754558Y-80111621D01*
X133754560Y-80111620D01*
X133763217Y-80109260D01*
X133885391Y-80034245D01*
X133933501Y-79981094D01*
X133975578Y-79934607D01*
X133981600Y-79927954D01*
X134038811Y-79809871D01*
X134040195Y-79807014D01*
X134040195Y-79807013D01*
X134044110Y-79798933D01*
X134067896Y-79657554D01*
X134068047Y-79645200D01*
X134058267Y-79576910D01*
X134048996Y-79512168D01*
X134048995Y-79512165D01*
X134047723Y-79503282D01*
X133988384Y-79372772D01*
X133915177Y-79287811D01*
X133900660Y-79270963D01*
X133900657Y-79270960D01*
X133894800Y-79264163D01*
X133774495Y-79186185D01*
X133637139Y-79145107D01*
X133628163Y-79145052D01*
X133628162Y-79145052D01*
X133567955Y-79144684D01*
X133493776Y-79144231D01*
X133355929Y-79183628D01*
X133234680Y-79260130D01*
X133139777Y-79367588D01*
X133078847Y-79497363D01*
X133077466Y-79506235D01*
X133060323Y-79616341D01*
X133056791Y-79639023D01*
X104951802Y-79639023D01*
X104996391Y-79611645D01*
X105029891Y-79574635D01*
X105086578Y-79512007D01*
X105092600Y-79505354D01*
X105155110Y-79376333D01*
X105178896Y-79234954D01*
X105179047Y-79222600D01*
X105167949Y-79145107D01*
X105159996Y-79089568D01*
X105159995Y-79089565D01*
X105158723Y-79080682D01*
X105099384Y-78950172D01*
X105080998Y-78928834D01*
X105011660Y-78848363D01*
X105011657Y-78848360D01*
X105005800Y-78841563D01*
X104885495Y-78763585D01*
X104748139Y-78722507D01*
X104739163Y-78722452D01*
X104739162Y-78722452D01*
X104678955Y-78722084D01*
X104604776Y-78721631D01*
X104466929Y-78761028D01*
X104345680Y-78837530D01*
X104250777Y-78944988D01*
X104189847Y-79074763D01*
X104183830Y-79113411D01*
X104172900Y-79183612D01*
X104167791Y-79216423D01*
X95993115Y-79216423D01*
X95993998Y-77413023D01*
X108130191Y-77413023D01*
X108131355Y-77421925D01*
X108131355Y-77421928D01*
X108139486Y-77484101D01*
X108148780Y-77555179D01*
X108152397Y-77563399D01*
X108201323Y-77674591D01*
X108206520Y-77686403D01*
X108212297Y-77693276D01*
X108212298Y-77693277D01*
X108219592Y-77701954D01*
X108298770Y-77796148D01*
X108354411Y-77833186D01*
X108406848Y-77868091D01*
X108418113Y-77875590D01*
X108554957Y-77918342D01*
X108563929Y-77918506D01*
X108563932Y-77918507D01*
X108629263Y-77919704D01*
X108698299Y-77920970D01*
X108707333Y-77918507D01*
X108827958Y-77885621D01*
X108827960Y-77885620D01*
X108836617Y-77883260D01*
X108958791Y-77808245D01*
X109055000Y-77701954D01*
X109090341Y-77629011D01*
X109113595Y-77581014D01*
X109113595Y-77581013D01*
X109117510Y-77572933D01*
X109141296Y-77431554D01*
X109141447Y-77419200D01*
X109129762Y-77337603D01*
X109122396Y-77286168D01*
X109122395Y-77286165D01*
X109122375Y-77286023D01*
X130050391Y-77286023D01*
X130051555Y-77294925D01*
X130051555Y-77294928D01*
X130052814Y-77304554D01*
X130068980Y-77428179D01*
X130126720Y-77559403D01*
X130132497Y-77566276D01*
X130132498Y-77566277D01*
X130185231Y-77629011D01*
X130218970Y-77669148D01*
X130338313Y-77748590D01*
X130475157Y-77791342D01*
X130484129Y-77791506D01*
X130484132Y-77791507D01*
X130549463Y-77792704D01*
X130618499Y-77793970D01*
X130627533Y-77791507D01*
X130748158Y-77758621D01*
X130748160Y-77758620D01*
X130756817Y-77756260D01*
X130878991Y-77681245D01*
X130926271Y-77629011D01*
X130969178Y-77581607D01*
X130975200Y-77574954D01*
X131037710Y-77445933D01*
X131040414Y-77429862D01*
X138263520Y-77429862D01*
X138264036Y-77436006D01*
X138276263Y-77581607D01*
X138280759Y-77635153D01*
X138282458Y-77641078D01*
X138328351Y-77801125D01*
X138337544Y-77833186D01*
X138340359Y-77838663D01*
X138340360Y-77838666D01*
X138428897Y-78010941D01*
X138431712Y-78016418D01*
X138559677Y-78177870D01*
X138564370Y-78181864D01*
X138564371Y-78181865D01*
X138573130Y-78189319D01*
X138716564Y-78311391D01*
X138896398Y-78411897D01*
X138991238Y-78442713D01*
X139086471Y-78473656D01*
X139086475Y-78473657D01*
X139092329Y-78475559D01*
X139296894Y-78499951D01*
X139303029Y-78499479D01*
X139303031Y-78499479D01*
X139359039Y-78495169D01*
X139502300Y-78484146D01*
X139508230Y-78482490D01*
X139508232Y-78482490D01*
X139694797Y-78430400D01*
X139694796Y-78430400D01*
X139700725Y-78428745D01*
X139706214Y-78425972D01*
X139706220Y-78425970D01*
X139879116Y-78338633D01*
X139884610Y-78335858D01*
X140046951Y-78209024D01*
X140067515Y-78185200D01*
X150389647Y-78185200D01*
X150389917Y-78189319D01*
X150404506Y-78411897D01*
X150408513Y-78473039D01*
X150409317Y-78477079D01*
X150409317Y-78477082D01*
X150458452Y-78724098D01*
X150464788Y-78755953D01*
X150466114Y-78759859D01*
X150466115Y-78759863D01*
X150549627Y-79005880D01*
X150557510Y-79029102D01*
X150559331Y-79032795D01*
X150559332Y-79032797D01*
X150674759Y-79266859D01*
X150685091Y-79287811D01*
X150687385Y-79291244D01*
X150835002Y-79512168D01*
X150845349Y-79527654D01*
X150848063Y-79530748D01*
X150848067Y-79530754D01*
X150984794Y-79686660D01*
X151035542Y-79744527D01*
X151038631Y-79747236D01*
X151249315Y-79932002D01*
X151249321Y-79932006D01*
X151252415Y-79934720D01*
X151255841Y-79937009D01*
X151255846Y-79937013D01*
X151375201Y-80016763D01*
X151492258Y-80094978D01*
X151495957Y-80096802D01*
X151495962Y-80096805D01*
X151722677Y-80208608D01*
X151750967Y-80222559D01*
X151754865Y-80223882D01*
X151754867Y-80223883D01*
X152020206Y-80313954D01*
X152020210Y-80313955D01*
X152024116Y-80315281D01*
X152028160Y-80316085D01*
X152028166Y-80316087D01*
X152302987Y-80370752D01*
X152302990Y-80370752D01*
X152307030Y-80371556D01*
X152311141Y-80371825D01*
X152311145Y-80371826D01*
X152590750Y-80390152D01*
X152594869Y-80390422D01*
X152598988Y-80390152D01*
X152878593Y-80371826D01*
X152878597Y-80371825D01*
X152882708Y-80371556D01*
X152886748Y-80370752D01*
X152886751Y-80370752D01*
X153161572Y-80316087D01*
X153161578Y-80316085D01*
X153165622Y-80315281D01*
X153169528Y-80313955D01*
X153169532Y-80313954D01*
X153434871Y-80223883D01*
X153434873Y-80223882D01*
X153438771Y-80222559D01*
X153467061Y-80208608D01*
X153693776Y-80096805D01*
X153693781Y-80096802D01*
X153697480Y-80094978D01*
X153814537Y-80016763D01*
X153933892Y-79937013D01*
X153933897Y-79937009D01*
X153937323Y-79934720D01*
X153940417Y-79932006D01*
X153940423Y-79932002D01*
X154151107Y-79747236D01*
X154154196Y-79744527D01*
X154204944Y-79686660D01*
X154341671Y-79530754D01*
X154341675Y-79530748D01*
X154344389Y-79527654D01*
X154354737Y-79512168D01*
X154502353Y-79291244D01*
X154504647Y-79287811D01*
X154514980Y-79266859D01*
X154630406Y-79032797D01*
X154630407Y-79032795D01*
X154632228Y-79029102D01*
X154640111Y-79005880D01*
X154723623Y-78759863D01*
X154723624Y-78759859D01*
X154724950Y-78755953D01*
X154731287Y-78724098D01*
X154780421Y-78477082D01*
X154780421Y-78477079D01*
X154781225Y-78473039D01*
X154785233Y-78411897D01*
X154799821Y-78189319D01*
X154800091Y-78185200D01*
X154798306Y-78157962D01*
X154781495Y-77901476D01*
X154781494Y-77901472D01*
X154781225Y-77897361D01*
X154777486Y-77878564D01*
X154725756Y-77618497D01*
X154725754Y-77618491D01*
X154724950Y-77614447D01*
X154713803Y-77581607D01*
X154633552Y-77345198D01*
X154633551Y-77345196D01*
X154632228Y-77341298D01*
X154605041Y-77286168D01*
X154506474Y-77086293D01*
X154506471Y-77086288D01*
X154504647Y-77082589D01*
X154395375Y-76919052D01*
X154346682Y-76846177D01*
X154346678Y-76846172D01*
X154344389Y-76842746D01*
X154341675Y-76839652D01*
X154341671Y-76839646D01*
X154156905Y-76628962D01*
X154154196Y-76625873D01*
X154130045Y-76604693D01*
X153940423Y-76438398D01*
X153940417Y-76438394D01*
X153937323Y-76435680D01*
X153933897Y-76433391D01*
X153933892Y-76433387D01*
X153700913Y-76277716D01*
X153697480Y-76275422D01*
X153693781Y-76273598D01*
X153693776Y-76273595D01*
X153442466Y-76149663D01*
X153442464Y-76149662D01*
X153438771Y-76147841D01*
X153416901Y-76140417D01*
X153169532Y-76056446D01*
X153169528Y-76056445D01*
X153165622Y-76055119D01*
X153161578Y-76054315D01*
X153161572Y-76054313D01*
X152886751Y-75999648D01*
X152886748Y-75999648D01*
X152882708Y-75998844D01*
X152878597Y-75998575D01*
X152878593Y-75998574D01*
X152598988Y-75980248D01*
X152594869Y-75979978D01*
X152590750Y-75980248D01*
X152311145Y-75998574D01*
X152311141Y-75998575D01*
X152307030Y-75998844D01*
X152302990Y-75999648D01*
X152302987Y-75999648D01*
X152028166Y-76054313D01*
X152028160Y-76054315D01*
X152024116Y-76055119D01*
X152020210Y-76056445D01*
X152020206Y-76056446D01*
X151772837Y-76140417D01*
X151750967Y-76147841D01*
X151747274Y-76149662D01*
X151747272Y-76149663D01*
X151495962Y-76273595D01*
X151495957Y-76273598D01*
X151492258Y-76275422D01*
X151488825Y-76277716D01*
X151255846Y-76433387D01*
X151255841Y-76433391D01*
X151252415Y-76435680D01*
X151249321Y-76438394D01*
X151249315Y-76438398D01*
X151059693Y-76604693D01*
X151035542Y-76625873D01*
X151032833Y-76628962D01*
X150848067Y-76839646D01*
X150848063Y-76839652D01*
X150845349Y-76842746D01*
X150843060Y-76846172D01*
X150843056Y-76846177D01*
X150794363Y-76919052D01*
X150685091Y-77082589D01*
X150683267Y-77086288D01*
X150683264Y-77086293D01*
X150584697Y-77286168D01*
X150557510Y-77341298D01*
X150556187Y-77345196D01*
X150556186Y-77345198D01*
X150475936Y-77581607D01*
X150464788Y-77614447D01*
X150463984Y-77618491D01*
X150463982Y-77618497D01*
X150412252Y-77878564D01*
X150408513Y-77897361D01*
X150408244Y-77901472D01*
X150408243Y-77901476D01*
X150391432Y-78157962D01*
X150389647Y-78185200D01*
X140067515Y-78185200D01*
X140181564Y-78053072D01*
X140202387Y-78016418D01*
X140257950Y-77918608D01*
X140283323Y-77873944D01*
X140348351Y-77678463D01*
X140374171Y-77474074D01*
X140374390Y-77458406D01*
X140374534Y-77448122D01*
X140374534Y-77448118D01*
X140374583Y-77444600D01*
X140354480Y-77239570D01*
X140294935Y-77042349D01*
X140198218Y-76860449D01*
X140087156Y-76724274D01*
X140071906Y-76705575D01*
X140071903Y-76705572D01*
X140068011Y-76700800D01*
X139977440Y-76625873D01*
X139914025Y-76573411D01*
X139914021Y-76573409D01*
X139909275Y-76569482D01*
X139728055Y-76471497D01*
X139531254Y-76410577D01*
X139525129Y-76409933D01*
X139525128Y-76409933D01*
X139332498Y-76389687D01*
X139332496Y-76389687D01*
X139326369Y-76389043D01*
X139239529Y-76396946D01*
X139127342Y-76407155D01*
X139127339Y-76407156D01*
X139121203Y-76407714D01*
X138923572Y-76465880D01*
X138918107Y-76468737D01*
X138832287Y-76513603D01*
X138741002Y-76561326D01*
X138736201Y-76565186D01*
X138736198Y-76565188D01*
X138660721Y-76625873D01*
X138580447Y-76690415D01*
X138448024Y-76848230D01*
X138445056Y-76853628D01*
X138445053Y-76853633D01*
X138389238Y-76955162D01*
X138348776Y-77028762D01*
X138286484Y-77225132D01*
X138285798Y-77231249D01*
X138285797Y-77231253D01*
X138266404Y-77404150D01*
X138263520Y-77429862D01*
X131040414Y-77429862D01*
X131061496Y-77304554D01*
X131061647Y-77292200D01*
X131041323Y-77150282D01*
X130981984Y-77019772D01*
X130963598Y-76998434D01*
X130894260Y-76917963D01*
X130894257Y-76917960D01*
X130888400Y-76911163D01*
X130768095Y-76833185D01*
X130630739Y-76792107D01*
X130621763Y-76792052D01*
X130621762Y-76792052D01*
X130561555Y-76791684D01*
X130487376Y-76791231D01*
X130349529Y-76830628D01*
X130228280Y-76907130D01*
X130133377Y-77014588D01*
X130072447Y-77144363D01*
X130070142Y-77159168D01*
X130052674Y-77271363D01*
X130050391Y-77286023D01*
X109122375Y-77286023D01*
X109121123Y-77277282D01*
X109103977Y-77239570D01*
X109065500Y-77154946D01*
X109061784Y-77146772D01*
X109003522Y-77079156D01*
X108974060Y-77044963D01*
X108974057Y-77044960D01*
X108968200Y-77038163D01*
X108847895Y-76960185D01*
X108710539Y-76919107D01*
X108701563Y-76919052D01*
X108701562Y-76919052D01*
X108641355Y-76918684D01*
X108567176Y-76918231D01*
X108429329Y-76957628D01*
X108308080Y-77034130D01*
X108302138Y-77040858D01*
X108302137Y-77040859D01*
X108288528Y-77056269D01*
X108213177Y-77141588D01*
X108152247Y-77271363D01*
X108130191Y-77413023D01*
X95993998Y-77413023D01*
X95994400Y-76591023D01*
X125436791Y-76591023D01*
X125437955Y-76599925D01*
X125437955Y-76599928D01*
X125439214Y-76609554D01*
X125455380Y-76733179D01*
X125513120Y-76864403D01*
X125518897Y-76871276D01*
X125518898Y-76871277D01*
X125593633Y-76960185D01*
X125605370Y-76974148D01*
X125612847Y-76979125D01*
X125705588Y-77040859D01*
X125724713Y-77053590D01*
X125861557Y-77096342D01*
X125870529Y-77096506D01*
X125870532Y-77096507D01*
X125935863Y-77097704D01*
X126004899Y-77098970D01*
X126013933Y-77096507D01*
X126134558Y-77063621D01*
X126134560Y-77063620D01*
X126143217Y-77061260D01*
X126265391Y-76986245D01*
X126361600Y-76879954D01*
X126424110Y-76750933D01*
X126447896Y-76609554D01*
X126448047Y-76597200D01*
X126430059Y-76471591D01*
X126428996Y-76464168D01*
X126428995Y-76464165D01*
X126427723Y-76455282D01*
X126368384Y-76324772D01*
X126297867Y-76242933D01*
X126280660Y-76222963D01*
X126280657Y-76222960D01*
X126274800Y-76216163D01*
X126154495Y-76138185D01*
X126017139Y-76097107D01*
X126008163Y-76097052D01*
X126008162Y-76097052D01*
X125947955Y-76096684D01*
X125873776Y-76096231D01*
X125735929Y-76135628D01*
X125614680Y-76212130D01*
X125608738Y-76218858D01*
X125608737Y-76218859D01*
X125595896Y-76233399D01*
X125519777Y-76319588D01*
X125458847Y-76449363D01*
X125455459Y-76471125D01*
X125440145Y-76569482D01*
X125436791Y-76591023D01*
X95994400Y-76591023D01*
X95994649Y-76083023D01*
X135435191Y-76083023D01*
X135436355Y-76091925D01*
X135436355Y-76091928D01*
X135437369Y-76099680D01*
X135453780Y-76225179D01*
X135476897Y-76277716D01*
X135498897Y-76327714D01*
X135511520Y-76356403D01*
X135517297Y-76363276D01*
X135517298Y-76363277D01*
X135578159Y-76435680D01*
X135603770Y-76466148D01*
X135723113Y-76545590D01*
X135859957Y-76588342D01*
X135868929Y-76588506D01*
X135868932Y-76588507D01*
X135934263Y-76589704D01*
X136003299Y-76590970D01*
X136012333Y-76588507D01*
X136132958Y-76555621D01*
X136132960Y-76555620D01*
X136141617Y-76553260D01*
X136263791Y-76478245D01*
X136289934Y-76449363D01*
X136353978Y-76378607D01*
X136360000Y-76371954D01*
X136406769Y-76275422D01*
X136418595Y-76251014D01*
X136418595Y-76251013D01*
X136422510Y-76242933D01*
X136446296Y-76101554D01*
X136446447Y-76089200D01*
X136433507Y-75998844D01*
X136427396Y-75956168D01*
X136427395Y-75956165D01*
X136426123Y-75947282D01*
X136366784Y-75816772D01*
X136348398Y-75795434D01*
X136279060Y-75714963D01*
X136279057Y-75714960D01*
X136273200Y-75708163D01*
X136152895Y-75630185D01*
X136015539Y-75589107D01*
X136006563Y-75589052D01*
X136006562Y-75589052D01*
X135946355Y-75588684D01*
X135872176Y-75588231D01*
X135734329Y-75627628D01*
X135613080Y-75704130D01*
X135518177Y-75811588D01*
X135457247Y-75941363D01*
X135455866Y-75950235D01*
X135439536Y-76055119D01*
X135435191Y-76083023D01*
X95994649Y-76083023D01*
X95995092Y-75177823D01*
X104218591Y-75177823D01*
X104219755Y-75186725D01*
X104219755Y-75186728D01*
X104221014Y-75196354D01*
X104237180Y-75319979D01*
X104294920Y-75451203D01*
X104300697Y-75458076D01*
X104300698Y-75458077D01*
X104307992Y-75466754D01*
X104387170Y-75560948D01*
X104506513Y-75640390D01*
X104643357Y-75683142D01*
X104652329Y-75683306D01*
X104652332Y-75683307D01*
X104717663Y-75684504D01*
X104786699Y-75685770D01*
X104795733Y-75683307D01*
X104916358Y-75650421D01*
X104916360Y-75650420D01*
X104925017Y-75648060D01*
X105047191Y-75573045D01*
X105143400Y-75466754D01*
X105205910Y-75337733D01*
X105229696Y-75196354D01*
X105229847Y-75184000D01*
X105209523Y-75042082D01*
X105150184Y-74911572D01*
X105131798Y-74890234D01*
X105062460Y-74809763D01*
X105062457Y-74809760D01*
X105056600Y-74802963D01*
X104936295Y-74724985D01*
X104798939Y-74683907D01*
X104789963Y-74683852D01*
X104789962Y-74683852D01*
X104729755Y-74683484D01*
X104655576Y-74683031D01*
X104517729Y-74722428D01*
X104396480Y-74798930D01*
X104301577Y-74906388D01*
X104240647Y-75036163D01*
X104218591Y-75177823D01*
X95995092Y-75177823D01*
X95995826Y-73677125D01*
X95996012Y-73298223D01*
X126672191Y-73298223D01*
X126673355Y-73307125D01*
X126673355Y-73307128D01*
X126674614Y-73316754D01*
X126690780Y-73440379D01*
X126748520Y-73571603D01*
X126754297Y-73578476D01*
X126754298Y-73578477D01*
X126834990Y-73674472D01*
X126840770Y-73681348D01*
X126960113Y-73760790D01*
X127096957Y-73803542D01*
X127105929Y-73803706D01*
X127105932Y-73803707D01*
X127171263Y-73804904D01*
X127240299Y-73806170D01*
X127249333Y-73803707D01*
X127369958Y-73770821D01*
X127369960Y-73770820D01*
X127378617Y-73768460D01*
X127500791Y-73693445D01*
X127597000Y-73587154D01*
X127659510Y-73458133D01*
X127683296Y-73316754D01*
X127683447Y-73304400D01*
X127681245Y-73289023D01*
X130262791Y-73289023D01*
X130263955Y-73297925D01*
X130263955Y-73297928D01*
X130266417Y-73316754D01*
X130281380Y-73431179D01*
X130284997Y-73439399D01*
X130335449Y-73554059D01*
X130339120Y-73562403D01*
X130344897Y-73569276D01*
X130344898Y-73569277D01*
X130353136Y-73579077D01*
X130431370Y-73672148D01*
X130550713Y-73751590D01*
X130687557Y-73794342D01*
X130696529Y-73794506D01*
X130696532Y-73794507D01*
X130761863Y-73795704D01*
X130830899Y-73796970D01*
X130839933Y-73794507D01*
X130960558Y-73761621D01*
X130960560Y-73761620D01*
X130969217Y-73759260D01*
X131050167Y-73709557D01*
X131118684Y-73690959D01*
X131186379Y-73712356D01*
X131231424Y-73766186D01*
X131243886Y-73794507D01*
X131253520Y-73816403D01*
X131259297Y-73823276D01*
X131259298Y-73823277D01*
X131266592Y-73831954D01*
X131345770Y-73926148D01*
X131465113Y-74005590D01*
X131601957Y-74048342D01*
X131610929Y-74048506D01*
X131610932Y-74048507D01*
X131676263Y-74049704D01*
X131745299Y-74050970D01*
X131754333Y-74048507D01*
X131874958Y-74015621D01*
X131874960Y-74015620D01*
X131883617Y-74013260D01*
X132005791Y-73938245D01*
X132102000Y-73831954D01*
X132164510Y-73702933D01*
X132188296Y-73561554D01*
X132188447Y-73549200D01*
X132176563Y-73466214D01*
X132169396Y-73416168D01*
X132169395Y-73416165D01*
X132168123Y-73407282D01*
X132108784Y-73276772D01*
X132090398Y-73255434D01*
X132021060Y-73174963D01*
X132021057Y-73174960D01*
X132015200Y-73168163D01*
X131894895Y-73090185D01*
X131757539Y-73049107D01*
X131748563Y-73049052D01*
X131748562Y-73049052D01*
X131688355Y-73048684D01*
X131614176Y-73048231D01*
X131476329Y-73087628D01*
X131468741Y-73092416D01*
X131468738Y-73092417D01*
X131402306Y-73134333D01*
X131334021Y-73153768D01*
X131266069Y-73133199D01*
X131220369Y-73079923D01*
X131215100Y-73068335D01*
X131194384Y-73022772D01*
X131114587Y-72930163D01*
X131106660Y-72920963D01*
X131106657Y-72920960D01*
X131100800Y-72914163D01*
X130980495Y-72836185D01*
X130843139Y-72795107D01*
X130834163Y-72795052D01*
X130834162Y-72795052D01*
X130773955Y-72794684D01*
X130699776Y-72794231D01*
X130561929Y-72833628D01*
X130440680Y-72910130D01*
X130434738Y-72916858D01*
X130434737Y-72916859D01*
X130393229Y-72963859D01*
X130345777Y-73017588D01*
X130284847Y-73147363D01*
X130280550Y-73174963D01*
X130265758Y-73269969D01*
X130262791Y-73289023D01*
X127681245Y-73289023D01*
X127675273Y-73247324D01*
X127664396Y-73171368D01*
X127664395Y-73171365D01*
X127663123Y-73162482D01*
X127650325Y-73134333D01*
X127632473Y-73095071D01*
X127603784Y-73031972D01*
X127585398Y-73010634D01*
X127516060Y-72930163D01*
X127516057Y-72930160D01*
X127510200Y-72923363D01*
X127389895Y-72845385D01*
X127252539Y-72804307D01*
X127243563Y-72804252D01*
X127243562Y-72804252D01*
X127183355Y-72803884D01*
X127109176Y-72803431D01*
X126971329Y-72842828D01*
X126850080Y-72919330D01*
X126755177Y-73026788D01*
X126694247Y-73156563D01*
X126692866Y-73165435D01*
X126675005Y-73280150D01*
X126672191Y-73298223D01*
X95996012Y-73298223D01*
X95996626Y-72044948D01*
X150174369Y-72044948D01*
X150186002Y-72103431D01*
X150230317Y-72169752D01*
X150296638Y-72214067D01*
X150308807Y-72216488D01*
X150308808Y-72216488D01*
X150349053Y-72224493D01*
X150355121Y-72225700D01*
X151994617Y-72225700D01*
X152000685Y-72224493D01*
X152040930Y-72216488D01*
X152040931Y-72216488D01*
X152053100Y-72214067D01*
X152119421Y-72169752D01*
X152163736Y-72103431D01*
X152175369Y-72044948D01*
X152175369Y-70405452D01*
X152167803Y-70367414D01*
X152166157Y-70359139D01*
X152166157Y-70359138D01*
X152163736Y-70346969D01*
X152119421Y-70280648D01*
X152087527Y-70259337D01*
X152063416Y-70243226D01*
X152053100Y-70236333D01*
X152040931Y-70233912D01*
X152040930Y-70233912D01*
X152000685Y-70225907D01*
X151994617Y-70224700D01*
X150355121Y-70224700D01*
X150349053Y-70225907D01*
X150308808Y-70233912D01*
X150308807Y-70233912D01*
X150296638Y-70236333D01*
X150286322Y-70243226D01*
X150262211Y-70259337D01*
X150230317Y-70280648D01*
X150186002Y-70346969D01*
X150183581Y-70359138D01*
X150183581Y-70359139D01*
X150181935Y-70367414D01*
X150174369Y-70405452D01*
X150174369Y-72044948D01*
X95996626Y-72044948D01*
X95997529Y-70199423D01*
X132107791Y-70199423D01*
X132108955Y-70208325D01*
X132108955Y-70208328D01*
X132113519Y-70243226D01*
X132126380Y-70341579D01*
X132184120Y-70472803D01*
X132189897Y-70479676D01*
X132189898Y-70479677D01*
X132197192Y-70488354D01*
X132276370Y-70582548D01*
X132395713Y-70661990D01*
X132532557Y-70704742D01*
X132541529Y-70704906D01*
X132541532Y-70704907D01*
X132606863Y-70706104D01*
X132675899Y-70707370D01*
X132684933Y-70704907D01*
X132805558Y-70672021D01*
X132805560Y-70672020D01*
X132814217Y-70669660D01*
X132936391Y-70594645D01*
X132960292Y-70568240D01*
X133026578Y-70495007D01*
X133032600Y-70488354D01*
X133072766Y-70405452D01*
X133091195Y-70367414D01*
X133091195Y-70367413D01*
X133095110Y-70359333D01*
X133118896Y-70217954D01*
X133119047Y-70205600D01*
X133108402Y-70131269D01*
X133099996Y-70072568D01*
X133099995Y-70072565D01*
X133098723Y-70063682D01*
X133039384Y-69933172D01*
X132986481Y-69871775D01*
X132951660Y-69831363D01*
X132951657Y-69831360D01*
X132945800Y-69824563D01*
X132825495Y-69746585D01*
X132688139Y-69705507D01*
X132679163Y-69705452D01*
X132679162Y-69705452D01*
X132618955Y-69705084D01*
X132544776Y-69704631D01*
X132406929Y-69744028D01*
X132285680Y-69820530D01*
X132190777Y-69927988D01*
X132129847Y-70057763D01*
X132128466Y-70066635D01*
X132111780Y-70173805D01*
X132107791Y-70199423D01*
X95997529Y-70199423D01*
X95997790Y-69666023D01*
X105132991Y-69666023D01*
X105134155Y-69674925D01*
X105134155Y-69674928D01*
X105142286Y-69737101D01*
X105151580Y-69808179D01*
X105209320Y-69939403D01*
X105215097Y-69946276D01*
X105215098Y-69946277D01*
X105284335Y-70028644D01*
X105301570Y-70049148D01*
X105420913Y-70128590D01*
X105557757Y-70171342D01*
X105566729Y-70171506D01*
X105566732Y-70171507D01*
X105632063Y-70172704D01*
X105701099Y-70173970D01*
X105710133Y-70171507D01*
X105830758Y-70138621D01*
X105830760Y-70138620D01*
X105839417Y-70136260D01*
X105961591Y-70061245D01*
X105997401Y-70021683D01*
X106045868Y-69968136D01*
X106057800Y-69954954D01*
X106098100Y-69871775D01*
X106116395Y-69834014D01*
X106116395Y-69834013D01*
X106120310Y-69825933D01*
X106144096Y-69684554D01*
X106144247Y-69672200D01*
X106128935Y-69565277D01*
X106125196Y-69539168D01*
X106125195Y-69539165D01*
X106123923Y-69530282D01*
X106064584Y-69399772D01*
X105994067Y-69317933D01*
X105976860Y-69297963D01*
X105976857Y-69297960D01*
X105971000Y-69291163D01*
X105850695Y-69213185D01*
X105713339Y-69172107D01*
X105704363Y-69172052D01*
X105704362Y-69172052D01*
X105644155Y-69171684D01*
X105569976Y-69171231D01*
X105432129Y-69210628D01*
X105310880Y-69287130D01*
X105304938Y-69293858D01*
X105304937Y-69293859D01*
X105292140Y-69308349D01*
X105215977Y-69394588D01*
X105155047Y-69524363D01*
X105147326Y-69573954D01*
X105137195Y-69639024D01*
X105132991Y-69666023D01*
X95997790Y-69666023D01*
X95998039Y-69158023D01*
X109349391Y-69158023D01*
X109350555Y-69166925D01*
X109350555Y-69166928D01*
X109351569Y-69174680D01*
X109367980Y-69300179D01*
X109371597Y-69308399D01*
X109413097Y-69402714D01*
X109425720Y-69431403D01*
X109431497Y-69438276D01*
X109431498Y-69438277D01*
X109435981Y-69443610D01*
X109517970Y-69541148D01*
X109637313Y-69620590D01*
X109774157Y-69663342D01*
X109783129Y-69663506D01*
X109783132Y-69663507D01*
X109848463Y-69664704D01*
X109917499Y-69665970D01*
X109926533Y-69663507D01*
X110047158Y-69630621D01*
X110047160Y-69630620D01*
X110055817Y-69628260D01*
X110177991Y-69553245D01*
X110204134Y-69524363D01*
X110268178Y-69453607D01*
X110274200Y-69446954D01*
X110336710Y-69317933D01*
X110360496Y-69176554D01*
X110360647Y-69164200D01*
X110359762Y-69158023D01*
X115851791Y-69158023D01*
X115852955Y-69166925D01*
X115852955Y-69166928D01*
X115853969Y-69174680D01*
X115870380Y-69300179D01*
X115873997Y-69308399D01*
X115915497Y-69402714D01*
X115928120Y-69431403D01*
X115933897Y-69438276D01*
X115933898Y-69438277D01*
X115938381Y-69443610D01*
X116020370Y-69541148D01*
X116139713Y-69620590D01*
X116276557Y-69663342D01*
X116285529Y-69663506D01*
X116285532Y-69663507D01*
X116350863Y-69664704D01*
X116419899Y-69665970D01*
X116428933Y-69663507D01*
X116549558Y-69630621D01*
X116549560Y-69630620D01*
X116558217Y-69628260D01*
X116680391Y-69553245D01*
X116706534Y-69524363D01*
X116770578Y-69453607D01*
X116776600Y-69446954D01*
X116839110Y-69317933D01*
X116844647Y-69285023D01*
X119864991Y-69285023D01*
X119866155Y-69293925D01*
X119866155Y-69293928D01*
X119868137Y-69309081D01*
X119883580Y-69427179D01*
X119892281Y-69446954D01*
X119936123Y-69546591D01*
X119941320Y-69558403D01*
X119947097Y-69565276D01*
X119947098Y-69565277D01*
X120019208Y-69651062D01*
X120033570Y-69668148D01*
X120046957Y-69677059D01*
X120139725Y-69738811D01*
X120152913Y-69747590D01*
X120161488Y-69750269D01*
X120170204Y-69752992D01*
X120289757Y-69790342D01*
X120298729Y-69790506D01*
X120298732Y-69790507D01*
X120364063Y-69791704D01*
X120433099Y-69792970D01*
X120442133Y-69790507D01*
X120562758Y-69757621D01*
X120562760Y-69757620D01*
X120571417Y-69755260D01*
X120693591Y-69680245D01*
X120789800Y-69573954D01*
X120846418Y-69457094D01*
X120848395Y-69453014D01*
X120848395Y-69453013D01*
X120852310Y-69444933D01*
X120852534Y-69443600D01*
X140999318Y-69443600D01*
X141019956Y-69600362D01*
X141080464Y-69746441D01*
X141176718Y-69871882D01*
X141302159Y-69968136D01*
X141448238Y-70028644D01*
X141605000Y-70049282D01*
X141613188Y-70048204D01*
X141658247Y-70042272D01*
X141761762Y-70028644D01*
X141907841Y-69968136D01*
X142033282Y-69871882D01*
X142068363Y-69826163D01*
X153009626Y-69826163D01*
X153026044Y-70021683D01*
X153080127Y-70210291D01*
X153082945Y-70215774D01*
X153166992Y-70379313D01*
X153166995Y-70379317D01*
X153169813Y-70384801D01*
X153291687Y-70538569D01*
X153296380Y-70542563D01*
X153296381Y-70542564D01*
X153430859Y-70657013D01*
X153441107Y-70665735D01*
X153446485Y-70668741D01*
X153446487Y-70668742D01*
X153482801Y-70689037D01*
X153612382Y-70761457D01*
X153798987Y-70822089D01*
X153993815Y-70845321D01*
X153999950Y-70844849D01*
X153999952Y-70844849D01*
X154183303Y-70830741D01*
X154183307Y-70830740D01*
X154189445Y-70830268D01*
X154378425Y-70777503D01*
X154553558Y-70689037D01*
X154583384Y-70665735D01*
X154703322Y-70572029D01*
X154708172Y-70568240D01*
X154737953Y-70533739D01*
X154832354Y-70424373D01*
X154832354Y-70424372D01*
X154836378Y-70419711D01*
X154847926Y-70399384D01*
X154885822Y-70332674D01*
X154933294Y-70249109D01*
X154995227Y-70062932D01*
X155019818Y-69868271D01*
X155020210Y-69840200D01*
X155001063Y-69644928D01*
X154999282Y-69639029D01*
X154999281Y-69639024D01*
X154946134Y-69462993D01*
X154944353Y-69457094D01*
X154852239Y-69283853D01*
X154728230Y-69131802D01*
X154577049Y-69006735D01*
X154404454Y-68913413D01*
X154296058Y-68879859D01*
X154222908Y-68857215D01*
X154222905Y-68857214D01*
X154217021Y-68855393D01*
X154210896Y-68854749D01*
X154210895Y-68854749D01*
X154028016Y-68835527D01*
X154028015Y-68835527D01*
X154021888Y-68834883D01*
X153899252Y-68846044D01*
X153832628Y-68852107D01*
X153832627Y-68852107D01*
X153826487Y-68852666D01*
X153820573Y-68854407D01*
X153820571Y-68854407D01*
X153711231Y-68886588D01*
X153638262Y-68908064D01*
X153632797Y-68910921D01*
X153469841Y-68996112D01*
X153469837Y-68996115D01*
X153464381Y-68998967D01*
X153459581Y-69002827D01*
X153459580Y-69002827D01*
X153448210Y-69011969D01*
X153311469Y-69121911D01*
X153185349Y-69272216D01*
X153182385Y-69277608D01*
X153182382Y-69277612D01*
X153118074Y-69394588D01*
X153090825Y-69444154D01*
X153031497Y-69631178D01*
X153009626Y-69826163D01*
X142068363Y-69826163D01*
X142129536Y-69746441D01*
X142190044Y-69600362D01*
X142210682Y-69443600D01*
X142190044Y-69286838D01*
X142129536Y-69140759D01*
X142044051Y-69029353D01*
X142038305Y-69021864D01*
X142033282Y-69015318D01*
X141907841Y-68919064D01*
X141761762Y-68858556D01*
X141605000Y-68837918D01*
X141448238Y-68858556D01*
X141302159Y-68919064D01*
X141176718Y-69015318D01*
X141171695Y-69021864D01*
X141165949Y-69029353D01*
X141080464Y-69140759D01*
X141019956Y-69286838D01*
X140999318Y-69443600D01*
X120852534Y-69443600D01*
X120876096Y-69303554D01*
X120876247Y-69291200D01*
X120860786Y-69183240D01*
X120857196Y-69158168D01*
X120857195Y-69158165D01*
X120855923Y-69149282D01*
X120847976Y-69131802D01*
X120836779Y-69107177D01*
X120796584Y-69018772D01*
X120750823Y-68965664D01*
X120708860Y-68916963D01*
X120708857Y-68916960D01*
X120703000Y-68910163D01*
X120582695Y-68832185D01*
X120445339Y-68791107D01*
X120436363Y-68791052D01*
X120436362Y-68791052D01*
X120376155Y-68790684D01*
X120301976Y-68790231D01*
X120164129Y-68829628D01*
X120042880Y-68906130D01*
X120036938Y-68912858D01*
X120036937Y-68912859D01*
X120023328Y-68928269D01*
X119947977Y-69013588D01*
X119887047Y-69143363D01*
X119882636Y-69171693D01*
X119867720Y-69267498D01*
X119864991Y-69285023D01*
X116844647Y-69285023D01*
X116862896Y-69176554D01*
X116863047Y-69164200D01*
X116842723Y-69022282D01*
X116838771Y-69013588D01*
X116795793Y-68919064D01*
X116783384Y-68891772D01*
X116759548Y-68864109D01*
X116695660Y-68789963D01*
X116695657Y-68789960D01*
X116689800Y-68783163D01*
X116569495Y-68705185D01*
X116432139Y-68664107D01*
X116423163Y-68664052D01*
X116423162Y-68664052D01*
X116362955Y-68663684D01*
X116288776Y-68663231D01*
X116150929Y-68702628D01*
X116029680Y-68779130D01*
X115934777Y-68886588D01*
X115873847Y-69016363D01*
X115864610Y-69075690D01*
X115853291Y-69148389D01*
X115851791Y-69158023D01*
X110359762Y-69158023D01*
X110340323Y-69022282D01*
X110336371Y-69013588D01*
X110293393Y-68919064D01*
X110280984Y-68891772D01*
X110257148Y-68864109D01*
X110193260Y-68789963D01*
X110193257Y-68789960D01*
X110187400Y-68783163D01*
X110067095Y-68705185D01*
X109929739Y-68664107D01*
X109920763Y-68664052D01*
X109920762Y-68664052D01*
X109860555Y-68663684D01*
X109786376Y-68663231D01*
X109648529Y-68702628D01*
X109527280Y-68779130D01*
X109432377Y-68886588D01*
X109371447Y-69016363D01*
X109362210Y-69075690D01*
X109350891Y-69148389D01*
X109349391Y-69158023D01*
X95998039Y-69158023D01*
X95998611Y-67989623D01*
X127307191Y-67989623D01*
X127308355Y-67998525D01*
X127308355Y-67998528D01*
X127315110Y-68050185D01*
X127325780Y-68131779D01*
X127383520Y-68263003D01*
X127389297Y-68269876D01*
X127389298Y-68269877D01*
X127437552Y-68327282D01*
X127475770Y-68372748D01*
X127483247Y-68377725D01*
X127578548Y-68441163D01*
X127595113Y-68452190D01*
X127731957Y-68494942D01*
X127740929Y-68495106D01*
X127740932Y-68495107D01*
X127806263Y-68496304D01*
X127875299Y-68497570D01*
X127884333Y-68495107D01*
X128002016Y-68463023D01*
X130262791Y-68463023D01*
X130263955Y-68471925D01*
X130263955Y-68471928D01*
X130272085Y-68534101D01*
X130281380Y-68605179D01*
X130339120Y-68736403D01*
X130344897Y-68743276D01*
X130344898Y-68743277D01*
X130418447Y-68830774D01*
X130431370Y-68846148D01*
X130450010Y-68858556D01*
X130536822Y-68916343D01*
X130550713Y-68925590D01*
X130687557Y-68968342D01*
X130696529Y-68968506D01*
X130696532Y-68968507D01*
X130761863Y-68969704D01*
X130830899Y-68970970D01*
X130839933Y-68968507D01*
X130960558Y-68935621D01*
X130960560Y-68935620D01*
X130969217Y-68933260D01*
X131091391Y-68858245D01*
X131187600Y-68751954D01*
X131250110Y-68622933D01*
X131273896Y-68481554D01*
X131274047Y-68469200D01*
X131270032Y-68441163D01*
X150169626Y-68441163D01*
X150186044Y-68636683D01*
X150240127Y-68825291D01*
X150247312Y-68839272D01*
X150326992Y-68994313D01*
X150326995Y-68994317D01*
X150329813Y-68999801D01*
X150451687Y-69153569D01*
X150456380Y-69157563D01*
X150456381Y-69157564D01*
X150595720Y-69276150D01*
X150601107Y-69280735D01*
X150606485Y-69283741D01*
X150606487Y-69283742D01*
X150650606Y-69308399D01*
X150772382Y-69376457D01*
X150958987Y-69437089D01*
X151153815Y-69460321D01*
X151159950Y-69459849D01*
X151159952Y-69459849D01*
X151343303Y-69445741D01*
X151343307Y-69445740D01*
X151349445Y-69445268D01*
X151538425Y-69392503D01*
X151713558Y-69304037D01*
X151721333Y-69297963D01*
X151863322Y-69187029D01*
X151868172Y-69183240D01*
X151873944Y-69176554D01*
X151992354Y-69039373D01*
X151992354Y-69039372D01*
X151996378Y-69034711D01*
X152003762Y-69021714D01*
X152052669Y-68935621D01*
X152093294Y-68864109D01*
X152155227Y-68677932D01*
X152179818Y-68483271D01*
X152180210Y-68455200D01*
X152161063Y-68259928D01*
X152159282Y-68254029D01*
X152159281Y-68254024D01*
X152106134Y-68077993D01*
X152104353Y-68072094D01*
X152012239Y-67898853D01*
X151888230Y-67746802D01*
X151737049Y-67621735D01*
X151564454Y-67528413D01*
X151455968Y-67494831D01*
X151382908Y-67472215D01*
X151382905Y-67472214D01*
X151377021Y-67470393D01*
X151370896Y-67469749D01*
X151370895Y-67469749D01*
X151188016Y-67450527D01*
X151188015Y-67450527D01*
X151181888Y-67449883D01*
X151059252Y-67461044D01*
X150992628Y-67467107D01*
X150992627Y-67467107D01*
X150986487Y-67467666D01*
X150980573Y-67469407D01*
X150980571Y-67469407D01*
X150894189Y-67494831D01*
X150798262Y-67523064D01*
X150792797Y-67525921D01*
X150629841Y-67611112D01*
X150629837Y-67611115D01*
X150624381Y-67613967D01*
X150619581Y-67617827D01*
X150619580Y-67617827D01*
X150605345Y-67629272D01*
X150471469Y-67736911D01*
X150345349Y-67887216D01*
X150342385Y-67892608D01*
X150342382Y-67892612D01*
X150277746Y-68010185D01*
X150250825Y-68059154D01*
X150248964Y-68065021D01*
X150248963Y-68065023D01*
X150230612Y-68122874D01*
X150191497Y-68246178D01*
X150169626Y-68441163D01*
X131270032Y-68441163D01*
X131260234Y-68372748D01*
X131254996Y-68336168D01*
X131254995Y-68336165D01*
X131253723Y-68327282D01*
X131194384Y-68196772D01*
X131145465Y-68139999D01*
X131106660Y-68094963D01*
X131106657Y-68094960D01*
X131100800Y-68088163D01*
X130980495Y-68010185D01*
X130843139Y-67969107D01*
X130834163Y-67969052D01*
X130834162Y-67969052D01*
X130773955Y-67968684D01*
X130699776Y-67968231D01*
X130561929Y-68007628D01*
X130440680Y-68084130D01*
X130345777Y-68191588D01*
X130284847Y-68321363D01*
X130283466Y-68330235D01*
X130264478Y-68452190D01*
X130262791Y-68463023D01*
X128002016Y-68463023D01*
X128004958Y-68462221D01*
X128004960Y-68462220D01*
X128013617Y-68459860D01*
X128135791Y-68384845D01*
X128232000Y-68278554D01*
X128294510Y-68149533D01*
X128318296Y-68008154D01*
X128318447Y-67995800D01*
X128305344Y-67904304D01*
X128299396Y-67862768D01*
X128299395Y-67862765D01*
X128298123Y-67853882D01*
X128274547Y-67802029D01*
X128242499Y-67731542D01*
X128242498Y-67731540D01*
X128238784Y-67723372D01*
X128238178Y-67722669D01*
X128219459Y-67658391D01*
X128239613Y-67590315D01*
X128292338Y-67545645D01*
X128293017Y-67545460D01*
X128415191Y-67470445D01*
X128475878Y-67403399D01*
X128505378Y-67370807D01*
X128511400Y-67364154D01*
X128562250Y-67259200D01*
X128565243Y-67253023D01*
X134927191Y-67253023D01*
X134928355Y-67261925D01*
X134928355Y-67261928D01*
X134933175Y-67298784D01*
X134945780Y-67395179D01*
X135003520Y-67526403D01*
X135009297Y-67533276D01*
X135009298Y-67533277D01*
X135083655Y-67621735D01*
X135095770Y-67636148D01*
X135215113Y-67715590D01*
X135351957Y-67758342D01*
X135360929Y-67758506D01*
X135360932Y-67758507D01*
X135426263Y-67759704D01*
X135495299Y-67760970D01*
X135504333Y-67758507D01*
X135624958Y-67725621D01*
X135624960Y-67725620D01*
X135633617Y-67723260D01*
X135755791Y-67648245D01*
X135779787Y-67621735D01*
X135845978Y-67548607D01*
X135852000Y-67541954D01*
X135901255Y-67440291D01*
X135910595Y-67421014D01*
X135910595Y-67421013D01*
X135914510Y-67412933D01*
X135938296Y-67271554D01*
X135938447Y-67259200D01*
X135923562Y-67155260D01*
X135919396Y-67126168D01*
X135919395Y-67126165D01*
X135918123Y-67117282D01*
X135911073Y-67101775D01*
X135893379Y-67062860D01*
X135858784Y-66986772D01*
X135812936Y-66933563D01*
X135771060Y-66884963D01*
X135771057Y-66884960D01*
X135765200Y-66878163D01*
X135644895Y-66800185D01*
X135507539Y-66759107D01*
X135498563Y-66759052D01*
X135498562Y-66759052D01*
X135438355Y-66758684D01*
X135364176Y-66758231D01*
X135226329Y-66797628D01*
X135105080Y-66874130D01*
X135010177Y-66981588D01*
X134949247Y-67111363D01*
X134943144Y-67150564D01*
X134931355Y-67226281D01*
X134927191Y-67253023D01*
X128565243Y-67253023D01*
X128569995Y-67243214D01*
X128569995Y-67243213D01*
X128573910Y-67235133D01*
X128597696Y-67093754D01*
X128597847Y-67081400D01*
X128584449Y-66987845D01*
X128578796Y-66948368D01*
X128578795Y-66948365D01*
X128577523Y-66939482D01*
X128518184Y-66808972D01*
X128499798Y-66787634D01*
X128430460Y-66707163D01*
X128430457Y-66707160D01*
X128424600Y-66700363D01*
X128304295Y-66622385D01*
X128204777Y-66592623D01*
X145544391Y-66592623D01*
X145545555Y-66601525D01*
X145545555Y-66601528D01*
X145553685Y-66663701D01*
X145562980Y-66734779D01*
X145566597Y-66742999D01*
X145616015Y-66855309D01*
X145620720Y-66866003D01*
X145626497Y-66872876D01*
X145626498Y-66872877D01*
X145707190Y-66968872D01*
X145712970Y-66975748D01*
X145832313Y-67055190D01*
X145969157Y-67097942D01*
X145978129Y-67098106D01*
X145978132Y-67098107D01*
X146043463Y-67099304D01*
X146112499Y-67100570D01*
X146121533Y-67098107D01*
X146242158Y-67065221D01*
X146242160Y-67065220D01*
X146250817Y-67062860D01*
X146261724Y-67056163D01*
X153009626Y-67056163D01*
X153026044Y-67251683D01*
X153080127Y-67440291D01*
X153082945Y-67445774D01*
X153166992Y-67609313D01*
X153166995Y-67609317D01*
X153169813Y-67614801D01*
X153291687Y-67768569D01*
X153296380Y-67772563D01*
X153296381Y-67772564D01*
X153425554Y-67882498D01*
X153441107Y-67895735D01*
X153446485Y-67898741D01*
X153446487Y-67898742D01*
X153482801Y-67919037D01*
X153612382Y-67991457D01*
X153798987Y-68052089D01*
X153993815Y-68075321D01*
X153999950Y-68074849D01*
X153999952Y-68074849D01*
X154183303Y-68060741D01*
X154183307Y-68060740D01*
X154189445Y-68060268D01*
X154378425Y-68007503D01*
X154553558Y-67919037D01*
X154572416Y-67904304D01*
X154703322Y-67802029D01*
X154708172Y-67798240D01*
X154737953Y-67763739D01*
X154832354Y-67654373D01*
X154832354Y-67654372D01*
X154836378Y-67649711D01*
X154858306Y-67611112D01*
X154908324Y-67523064D01*
X154933294Y-67479109D01*
X154995227Y-67292932D01*
X155019818Y-67098271D01*
X155020210Y-67070200D01*
X155001063Y-66874928D01*
X154999282Y-66869029D01*
X154999281Y-66869024D01*
X154946134Y-66692993D01*
X154944353Y-66687094D01*
X154852239Y-66513853D01*
X154728230Y-66361802D01*
X154577049Y-66236735D01*
X154404454Y-66143413D01*
X154268344Y-66101280D01*
X154222908Y-66087215D01*
X154222905Y-66087214D01*
X154217021Y-66085393D01*
X154210896Y-66084749D01*
X154210895Y-66084749D01*
X154028016Y-66065527D01*
X154028015Y-66065527D01*
X154021888Y-66064883D01*
X153899252Y-66076044D01*
X153832628Y-66082107D01*
X153832627Y-66082107D01*
X153826487Y-66082666D01*
X153820573Y-66084407D01*
X153820571Y-66084407D01*
X153769385Y-66099472D01*
X153638262Y-66138064D01*
X153632797Y-66140921D01*
X153469841Y-66226112D01*
X153469837Y-66226115D01*
X153464381Y-66228967D01*
X153459581Y-66232827D01*
X153459580Y-66232827D01*
X153426588Y-66259353D01*
X153311469Y-66351911D01*
X153185349Y-66502216D01*
X153182385Y-66507608D01*
X153182382Y-66507612D01*
X153118058Y-66624617D01*
X153090825Y-66674154D01*
X153088964Y-66680021D01*
X153088963Y-66680023D01*
X153064154Y-66758231D01*
X153031497Y-66861178D01*
X153009626Y-67056163D01*
X146261724Y-67056163D01*
X146372991Y-66987845D01*
X146379543Y-66980607D01*
X146463178Y-66888207D01*
X146469200Y-66881554D01*
X146509862Y-66797628D01*
X146527795Y-66760614D01*
X146527795Y-66760613D01*
X146531710Y-66752533D01*
X146555496Y-66611154D01*
X146555647Y-66598800D01*
X146545830Y-66530248D01*
X146536596Y-66465768D01*
X146536595Y-66465765D01*
X146535323Y-66456882D01*
X146475984Y-66326372D01*
X146454415Y-66301340D01*
X146388260Y-66224563D01*
X146388257Y-66224560D01*
X146382400Y-66217763D01*
X146262095Y-66139785D01*
X146124739Y-66098707D01*
X146115763Y-66098652D01*
X146115762Y-66098652D01*
X146055555Y-66098284D01*
X145981376Y-66097831D01*
X145843529Y-66137228D01*
X145722280Y-66213730D01*
X145716338Y-66220458D01*
X145716337Y-66220459D01*
X145708239Y-66229628D01*
X145627377Y-66321188D01*
X145566447Y-66450963D01*
X145565066Y-66459835D01*
X145546153Y-66581307D01*
X145544391Y-66592623D01*
X128204777Y-66592623D01*
X128166939Y-66581307D01*
X128157963Y-66581252D01*
X128157962Y-66581252D01*
X128097755Y-66580884D01*
X128023576Y-66580431D01*
X127885729Y-66619828D01*
X127764480Y-66696330D01*
X127669577Y-66803788D01*
X127608647Y-66933563D01*
X127599904Y-66989714D01*
X127588516Y-67062860D01*
X127586591Y-67075223D01*
X127587755Y-67084125D01*
X127587755Y-67084128D01*
X127591317Y-67111363D01*
X127605180Y-67217379D01*
X127662920Y-67348603D01*
X127666879Y-67353313D01*
X127685514Y-67420348D01*
X127664529Y-67488173D01*
X127612122Y-67532572D01*
X127606329Y-67534228D01*
X127485080Y-67610730D01*
X127390177Y-67718188D01*
X127329247Y-67847963D01*
X127321809Y-67895735D01*
X127309985Y-67971680D01*
X127307191Y-67989623D01*
X95998611Y-67989623D01*
X95999249Y-66685023D01*
X124420791Y-66685023D01*
X124421955Y-66693925D01*
X124421955Y-66693928D01*
X124422797Y-66700363D01*
X124439380Y-66827179D01*
X124442997Y-66835399D01*
X124488795Y-66939482D01*
X124497120Y-66958403D01*
X124502897Y-66965276D01*
X124502898Y-66965277D01*
X124583590Y-67061272D01*
X124589370Y-67068148D01*
X124639887Y-67101775D01*
X124667619Y-67120235D01*
X124708713Y-67147590D01*
X124845557Y-67190342D01*
X124854529Y-67190506D01*
X124854532Y-67190507D01*
X124919863Y-67191704D01*
X124988899Y-67192970D01*
X124997933Y-67190507D01*
X125118558Y-67157621D01*
X125118560Y-67157620D01*
X125127217Y-67155260D01*
X125249391Y-67080245D01*
X125272070Y-67055190D01*
X125339578Y-66980607D01*
X125345600Y-66973954D01*
X125397902Y-66866003D01*
X125404195Y-66853014D01*
X125404195Y-66853013D01*
X125408110Y-66844933D01*
X125431896Y-66703554D01*
X125431972Y-66697336D01*
X125431988Y-66696059D01*
X125431988Y-66696054D01*
X125432047Y-66691200D01*
X125419510Y-66603659D01*
X125412996Y-66558168D01*
X125412995Y-66558165D01*
X125411723Y-66549282D01*
X125395615Y-66513853D01*
X125388178Y-66497498D01*
X125352384Y-66418772D01*
X125307409Y-66366576D01*
X125264660Y-66316963D01*
X125264657Y-66316960D01*
X125258800Y-66310163D01*
X125138495Y-66232185D01*
X125001139Y-66191107D01*
X124992163Y-66191052D01*
X124992162Y-66191052D01*
X124931955Y-66190684D01*
X124857776Y-66190231D01*
X124719929Y-66229628D01*
X124598680Y-66306130D01*
X124503777Y-66413588D01*
X124442847Y-66543363D01*
X124434216Y-66598800D01*
X124422310Y-66675268D01*
X124420791Y-66685023D01*
X95999249Y-66685023D01*
X95999941Y-65271823D01*
X107063391Y-65271823D01*
X107064555Y-65280725D01*
X107064555Y-65280728D01*
X107067771Y-65305321D01*
X107081980Y-65413979D01*
X107139720Y-65545203D01*
X107145497Y-65552076D01*
X107145498Y-65552077D01*
X107171503Y-65583014D01*
X107231970Y-65654948D01*
X107239447Y-65659925D01*
X107324851Y-65716775D01*
X107351313Y-65734390D01*
X107488157Y-65777142D01*
X107497129Y-65777306D01*
X107497132Y-65777307D01*
X107562463Y-65778504D01*
X107631499Y-65779770D01*
X107640533Y-65777307D01*
X107761158Y-65744421D01*
X107761160Y-65744420D01*
X107769817Y-65742060D01*
X107891991Y-65667045D01*
X107988200Y-65560754D01*
X108050710Y-65431733D01*
X108053521Y-65415023D01*
X139629922Y-65415023D01*
X139631086Y-65423925D01*
X139631086Y-65423928D01*
X139637151Y-65470309D01*
X139648511Y-65557179D01*
X139656323Y-65574933D01*
X139698920Y-65671741D01*
X139706251Y-65688403D01*
X139712028Y-65695276D01*
X139712029Y-65695277D01*
X139780844Y-65777142D01*
X139798501Y-65798148D01*
X139917844Y-65877590D01*
X140054688Y-65920342D01*
X140063660Y-65920506D01*
X140063663Y-65920507D01*
X140128994Y-65921704D01*
X140198030Y-65922970D01*
X140207064Y-65920507D01*
X140327689Y-65887621D01*
X140327691Y-65887620D01*
X140336348Y-65885260D01*
X140458522Y-65810245D01*
X140554731Y-65703954D01*
X140570618Y-65671163D01*
X150169626Y-65671163D01*
X150186044Y-65866683D01*
X150240127Y-66055291D01*
X150242945Y-66060774D01*
X150326992Y-66224313D01*
X150326995Y-66224317D01*
X150329813Y-66229801D01*
X150451687Y-66383569D01*
X150456380Y-66387563D01*
X150456381Y-66387564D01*
X150585554Y-66497498D01*
X150601107Y-66510735D01*
X150606485Y-66513741D01*
X150606487Y-66513742D01*
X150647766Y-66536812D01*
X150772382Y-66606457D01*
X150958987Y-66667089D01*
X151153815Y-66690321D01*
X151159950Y-66689849D01*
X151159952Y-66689849D01*
X151343303Y-66675741D01*
X151343307Y-66675740D01*
X151349445Y-66675268D01*
X151538425Y-66622503D01*
X151713558Y-66534037D01*
X151732416Y-66519304D01*
X151822768Y-66448713D01*
X151868172Y-66413240D01*
X151897953Y-66378739D01*
X151992354Y-66269373D01*
X151992354Y-66269372D01*
X151996378Y-66264711D01*
X152013588Y-66234417D01*
X152038222Y-66191052D01*
X152093294Y-66094109D01*
X152155227Y-65907932D01*
X152179818Y-65713271D01*
X152180210Y-65685200D01*
X152161063Y-65489928D01*
X152159282Y-65484029D01*
X152159281Y-65484024D01*
X152106134Y-65307993D01*
X152104353Y-65302094D01*
X152012239Y-65128853D01*
X151888230Y-64976802D01*
X151737049Y-64851735D01*
X151564454Y-64758413D01*
X151470737Y-64729403D01*
X151382908Y-64702215D01*
X151382905Y-64702214D01*
X151377021Y-64700393D01*
X151370896Y-64699749D01*
X151370895Y-64699749D01*
X151188016Y-64680527D01*
X151188015Y-64680527D01*
X151181888Y-64679883D01*
X151059252Y-64691044D01*
X150992628Y-64697107D01*
X150992627Y-64697107D01*
X150986487Y-64697666D01*
X150980573Y-64699407D01*
X150980571Y-64699407D01*
X150868462Y-64732403D01*
X150798262Y-64753064D01*
X150792797Y-64755921D01*
X150629841Y-64841112D01*
X150629837Y-64841115D01*
X150624381Y-64843967D01*
X150619581Y-64847827D01*
X150619580Y-64847827D01*
X150605757Y-64858941D01*
X150471469Y-64966911D01*
X150345349Y-65117216D01*
X150342385Y-65122608D01*
X150342382Y-65122612D01*
X150265231Y-65262950D01*
X150250825Y-65289154D01*
X150248964Y-65295021D01*
X150248963Y-65295023D01*
X150244849Y-65307993D01*
X150191497Y-65476178D01*
X150169626Y-65671163D01*
X140570618Y-65671163D01*
X140617241Y-65574933D01*
X140641027Y-65433554D01*
X140641178Y-65421200D01*
X140624583Y-65305321D01*
X140622127Y-65288168D01*
X140622126Y-65288165D01*
X140620854Y-65279282D01*
X140561515Y-65148772D01*
X140538224Y-65121742D01*
X140473791Y-65046963D01*
X140473788Y-65046960D01*
X140467931Y-65040163D01*
X140347626Y-64962185D01*
X140210270Y-64921107D01*
X140201294Y-64921052D01*
X140201293Y-64921052D01*
X140141086Y-64920684D01*
X140066907Y-64920231D01*
X139929060Y-64959628D01*
X139807811Y-65036130D01*
X139801869Y-65042858D01*
X139801868Y-65042859D01*
X139789027Y-65057399D01*
X139712908Y-65143588D01*
X139651978Y-65273363D01*
X139648606Y-65295023D01*
X139635802Y-65377260D01*
X139629922Y-65415023D01*
X108053521Y-65415023D01*
X108074496Y-65290354D01*
X108074647Y-65278000D01*
X108056562Y-65151714D01*
X108055596Y-65144968D01*
X108055595Y-65144965D01*
X108054323Y-65136082D01*
X107994984Y-65005572D01*
X107961722Y-64966970D01*
X107907260Y-64903763D01*
X107907257Y-64903760D01*
X107901400Y-64896963D01*
X107781095Y-64818985D01*
X107643739Y-64777907D01*
X107634763Y-64777852D01*
X107634762Y-64777852D01*
X107574555Y-64777484D01*
X107500376Y-64777031D01*
X107362529Y-64816428D01*
X107241280Y-64892930D01*
X107235338Y-64899658D01*
X107235337Y-64899659D01*
X107204001Y-64935141D01*
X107146377Y-65000388D01*
X107085447Y-65130163D01*
X107081277Y-65156946D01*
X107068477Y-65239160D01*
X107063391Y-65271823D01*
X95999941Y-65271823D01*
X96000588Y-63951023D01*
X113006991Y-63951023D01*
X113008155Y-63959925D01*
X113008155Y-63959928D01*
X113013541Y-64001113D01*
X113025580Y-64093179D01*
X113029197Y-64101399D01*
X113079649Y-64216059D01*
X113083320Y-64224403D01*
X113089097Y-64231276D01*
X113089098Y-64231277D01*
X113147034Y-64300200D01*
X113175570Y-64334148D01*
X113219846Y-64363621D01*
X113269402Y-64396608D01*
X113294913Y-64413590D01*
X113431757Y-64456342D01*
X113440729Y-64456506D01*
X113440732Y-64456507D01*
X113506063Y-64457704D01*
X113575099Y-64458970D01*
X113584133Y-64456507D01*
X113704758Y-64423621D01*
X113704760Y-64423620D01*
X113713417Y-64421260D01*
X113835591Y-64346245D01*
X113848689Y-64331775D01*
X113925778Y-64246607D01*
X113931800Y-64239954D01*
X113977794Y-64145023D01*
X123150791Y-64145023D01*
X123151955Y-64153925D01*
X123151955Y-64153928D01*
X123158104Y-64200946D01*
X123169380Y-64287179D01*
X123172997Y-64295399D01*
X123218795Y-64399482D01*
X123227120Y-64418403D01*
X123232897Y-64425276D01*
X123232898Y-64425277D01*
X123285288Y-64487603D01*
X123319370Y-64528148D01*
X123438713Y-64607590D01*
X123575557Y-64650342D01*
X123584529Y-64650506D01*
X123584532Y-64650507D01*
X123649863Y-64651704D01*
X123718899Y-64652970D01*
X123727933Y-64650507D01*
X123848558Y-64617621D01*
X123848560Y-64617620D01*
X123857217Y-64615260D01*
X123979391Y-64540245D01*
X123986707Y-64532163D01*
X124052909Y-64459023D01*
X126672191Y-64459023D01*
X126673355Y-64467925D01*
X126673355Y-64467928D01*
X126677629Y-64500607D01*
X126690780Y-64601179D01*
X126694397Y-64609399D01*
X126738886Y-64710507D01*
X126748520Y-64732403D01*
X126754297Y-64739276D01*
X126754298Y-64739277D01*
X126831237Y-64830807D01*
X126840770Y-64842148D01*
X126960113Y-64921590D01*
X127096957Y-64964342D01*
X127105929Y-64964506D01*
X127105932Y-64964507D01*
X127171263Y-64965704D01*
X127240299Y-64966970D01*
X127249333Y-64964507D01*
X127369958Y-64931621D01*
X127369960Y-64931620D01*
X127378617Y-64929260D01*
X127500791Y-64854245D01*
X127532707Y-64818985D01*
X127590978Y-64754607D01*
X127597000Y-64747954D01*
X127635936Y-64667590D01*
X127655595Y-64627014D01*
X127655595Y-64627013D01*
X127659510Y-64618933D01*
X127673594Y-64535223D01*
X129796391Y-64535223D01*
X129797555Y-64544125D01*
X129797555Y-64544128D01*
X129804023Y-64593591D01*
X129814980Y-64677379D01*
X129818597Y-64685599D01*
X129860346Y-64780480D01*
X129872720Y-64808603D01*
X129878497Y-64815476D01*
X129878498Y-64815477D01*
X129943604Y-64892930D01*
X129964970Y-64918348D01*
X129981363Y-64929260D01*
X130037925Y-64966911D01*
X130084313Y-64997790D01*
X130221157Y-65040542D01*
X130230129Y-65040706D01*
X130230132Y-65040707D01*
X130295463Y-65041904D01*
X130364499Y-65043170D01*
X130373533Y-65040707D01*
X130494158Y-65007821D01*
X130494160Y-65007820D01*
X130502817Y-65005460D01*
X130624991Y-64930445D01*
X130634187Y-64920286D01*
X130646192Y-64907023D01*
X147249922Y-64907023D01*
X147251086Y-64915925D01*
X147251086Y-64915928D01*
X147253599Y-64935141D01*
X147268511Y-65049179D01*
X147272128Y-65057399D01*
X147313628Y-65151714D01*
X147326251Y-65180403D01*
X147332028Y-65187276D01*
X147332029Y-65187277D01*
X147412374Y-65282859D01*
X147418501Y-65290148D01*
X147537844Y-65369590D01*
X147674688Y-65412342D01*
X147683660Y-65412506D01*
X147683663Y-65412507D01*
X147748994Y-65413704D01*
X147818030Y-65414970D01*
X147827064Y-65412507D01*
X147947689Y-65379621D01*
X147947691Y-65379620D01*
X147956348Y-65377260D01*
X148078522Y-65302245D01*
X148104665Y-65273363D01*
X148168709Y-65202607D01*
X148174731Y-65195954D01*
X148237241Y-65066933D01*
X148261027Y-64925554D01*
X148261178Y-64913200D01*
X148247686Y-64818985D01*
X148242127Y-64780168D01*
X148242126Y-64780165D01*
X148240854Y-64771282D01*
X148234175Y-64756591D01*
X148211929Y-64707664D01*
X148181515Y-64640772D01*
X148154482Y-64609399D01*
X148093791Y-64538963D01*
X148093788Y-64538960D01*
X148087931Y-64532163D01*
X147967626Y-64454185D01*
X147830270Y-64413107D01*
X147821294Y-64413052D01*
X147821293Y-64413052D01*
X147761086Y-64412684D01*
X147686907Y-64412231D01*
X147549060Y-64451628D01*
X147427811Y-64528130D01*
X147332908Y-64635588D01*
X147271978Y-64765363D01*
X147262824Y-64824154D01*
X147252249Y-64892080D01*
X147249922Y-64907023D01*
X130646192Y-64907023D01*
X130704913Y-64842148D01*
X130721200Y-64824154D01*
X130762032Y-64739877D01*
X130779795Y-64703214D01*
X130779795Y-64703213D01*
X130783710Y-64695133D01*
X130807496Y-64553754D01*
X130807647Y-64541400D01*
X130797125Y-64467928D01*
X130788596Y-64408368D01*
X130788595Y-64408365D01*
X130787323Y-64399482D01*
X130727984Y-64268972D01*
X130680555Y-64213928D01*
X130672882Y-64205023D01*
X144756991Y-64205023D01*
X144758155Y-64213925D01*
X144758155Y-64213928D01*
X144762429Y-64246607D01*
X144775580Y-64347179D01*
X144796034Y-64393664D01*
X144829649Y-64470059D01*
X144833320Y-64478403D01*
X144839097Y-64485276D01*
X144839098Y-64485277D01*
X144919790Y-64581272D01*
X144925570Y-64588148D01*
X144969846Y-64617621D01*
X145019402Y-64650608D01*
X145044913Y-64667590D01*
X145053488Y-64670269D01*
X145054432Y-64670564D01*
X145181757Y-64710342D01*
X145190729Y-64710506D01*
X145190732Y-64710507D01*
X145256063Y-64711704D01*
X145325099Y-64712970D01*
X145334133Y-64710507D01*
X145454758Y-64677621D01*
X145454760Y-64677620D01*
X145463417Y-64675260D01*
X145585591Y-64600245D01*
X145644446Y-64535223D01*
X145675778Y-64500607D01*
X145681800Y-64493954D01*
X145723266Y-64408368D01*
X145740395Y-64373014D01*
X145740395Y-64373013D01*
X145744310Y-64364933D01*
X145757562Y-64286163D01*
X153009626Y-64286163D01*
X153026044Y-64481683D01*
X153080127Y-64670291D01*
X153082945Y-64675774D01*
X153166992Y-64839313D01*
X153166995Y-64839317D01*
X153169813Y-64844801D01*
X153291687Y-64998569D01*
X153296380Y-65002563D01*
X153296381Y-65002564D01*
X153425554Y-65112498D01*
X153441107Y-65125735D01*
X153446485Y-65128741D01*
X153446487Y-65128742D01*
X153482327Y-65148772D01*
X153612382Y-65221457D01*
X153798987Y-65282089D01*
X153993815Y-65305321D01*
X153999950Y-65304849D01*
X153999952Y-65304849D01*
X154183303Y-65290741D01*
X154183307Y-65290740D01*
X154189445Y-65290268D01*
X154378425Y-65237503D01*
X154553558Y-65149037D01*
X154560533Y-65143588D01*
X154681371Y-65049179D01*
X154708172Y-65028240D01*
X154727739Y-65005572D01*
X154832354Y-64884373D01*
X154832354Y-64884372D01*
X154836378Y-64879711D01*
X154858306Y-64841112D01*
X154892749Y-64780480D01*
X154933294Y-64709109D01*
X154995227Y-64522932D01*
X155019818Y-64328271D01*
X155020210Y-64300200D01*
X155001063Y-64104928D01*
X154999282Y-64099029D01*
X154999281Y-64099024D01*
X154946134Y-63922993D01*
X154944353Y-63917094D01*
X154852239Y-63743853D01*
X154728230Y-63591802D01*
X154577049Y-63466735D01*
X154404454Y-63373413D01*
X154272650Y-63332613D01*
X154222908Y-63317215D01*
X154222905Y-63317214D01*
X154217021Y-63315393D01*
X154210896Y-63314749D01*
X154210895Y-63314749D01*
X154028016Y-63295527D01*
X154028015Y-63295527D01*
X154021888Y-63294883D01*
X153899252Y-63306044D01*
X153832628Y-63312107D01*
X153832627Y-63312107D01*
X153826487Y-63312666D01*
X153820573Y-63314407D01*
X153820571Y-63314407D01*
X153731698Y-63340564D01*
X153638262Y-63368064D01*
X153632797Y-63370921D01*
X153469841Y-63456112D01*
X153469837Y-63456115D01*
X153464381Y-63458967D01*
X153459581Y-63462827D01*
X153459580Y-63462827D01*
X153426588Y-63489353D01*
X153311469Y-63581911D01*
X153185349Y-63732216D01*
X153182385Y-63737608D01*
X153182382Y-63737612D01*
X153111328Y-63866859D01*
X153090825Y-63904154D01*
X153031497Y-64091178D01*
X153009626Y-64286163D01*
X145757562Y-64286163D01*
X145768096Y-64223554D01*
X145768247Y-64211200D01*
X145755045Y-64119014D01*
X145749196Y-64078168D01*
X145749195Y-64078165D01*
X145747923Y-64069282D01*
X145743255Y-64059014D01*
X145720643Y-64009282D01*
X145688584Y-63938772D01*
X145659715Y-63905268D01*
X145600860Y-63836963D01*
X145600857Y-63836960D01*
X145595000Y-63830163D01*
X145474695Y-63752185D01*
X145337339Y-63711107D01*
X145328363Y-63711052D01*
X145328362Y-63711052D01*
X145268155Y-63710684D01*
X145193976Y-63710231D01*
X145056129Y-63749628D01*
X144934880Y-63826130D01*
X144928938Y-63832858D01*
X144928937Y-63832859D01*
X144925313Y-63836963D01*
X144839977Y-63933588D01*
X144779047Y-64063363D01*
X144771641Y-64110933D01*
X144759706Y-64187588D01*
X144756991Y-64205023D01*
X130672882Y-64205023D01*
X130640260Y-64167163D01*
X130640257Y-64167160D01*
X130634400Y-64160363D01*
X130514095Y-64082385D01*
X130376739Y-64041307D01*
X130367763Y-64041252D01*
X130367762Y-64041252D01*
X130307555Y-64040884D01*
X130233376Y-64040431D01*
X130095529Y-64079828D01*
X129974280Y-64156330D01*
X129879377Y-64263788D01*
X129818447Y-64393563D01*
X129814135Y-64421260D01*
X129798305Y-64522932D01*
X129796391Y-64535223D01*
X127673594Y-64535223D01*
X127683296Y-64477554D01*
X127683447Y-64465200D01*
X127668562Y-64361260D01*
X127664396Y-64332168D01*
X127664395Y-64332165D01*
X127663123Y-64323282D01*
X127658455Y-64313014D01*
X127640783Y-64274148D01*
X127603784Y-64192772D01*
X127578182Y-64163059D01*
X127516060Y-64090963D01*
X127516057Y-64090960D01*
X127510200Y-64084163D01*
X127389895Y-64006185D01*
X127252539Y-63965107D01*
X127243563Y-63965052D01*
X127243562Y-63965052D01*
X127183355Y-63964684D01*
X127109176Y-63964231D01*
X126971329Y-64003628D01*
X126850080Y-64080130D01*
X126844138Y-64086858D01*
X126844137Y-64086859D01*
X126831296Y-64101399D01*
X126755177Y-64187588D01*
X126694247Y-64317363D01*
X126688144Y-64356564D01*
X126677352Y-64425877D01*
X126672191Y-64459023D01*
X124052909Y-64459023D01*
X124060940Y-64450150D01*
X124075600Y-64433954D01*
X124113329Y-64356081D01*
X124134195Y-64313014D01*
X124134195Y-64313013D01*
X124138110Y-64304933D01*
X124161896Y-64163554D01*
X124161972Y-64157336D01*
X124161988Y-64156059D01*
X124161988Y-64156054D01*
X124162047Y-64151200D01*
X124153451Y-64091178D01*
X124142996Y-64018168D01*
X124142995Y-64018165D01*
X124141723Y-64009282D01*
X124087954Y-63891023D01*
X124674791Y-63891023D01*
X124675955Y-63899925D01*
X124675955Y-63899928D01*
X124682104Y-63946946D01*
X124693380Y-64033179D01*
X124698089Y-64043880D01*
X124747449Y-64156059D01*
X124751120Y-64164403D01*
X124756897Y-64171276D01*
X124756898Y-64171277D01*
X124837590Y-64267272D01*
X124843370Y-64274148D01*
X124861420Y-64286163D01*
X124921619Y-64326235D01*
X124962713Y-64353590D01*
X125099557Y-64396342D01*
X125108529Y-64396506D01*
X125108532Y-64396507D01*
X125173863Y-64397704D01*
X125242899Y-64398970D01*
X125251933Y-64396507D01*
X125372558Y-64363621D01*
X125372560Y-64363620D01*
X125381217Y-64361260D01*
X125503391Y-64286245D01*
X125599600Y-64179954D01*
X125637329Y-64102081D01*
X125658195Y-64059014D01*
X125658195Y-64059013D01*
X125662110Y-64050933D01*
X125685896Y-63909554D01*
X125686047Y-63897200D01*
X125677434Y-63837060D01*
X125666996Y-63764168D01*
X125666995Y-63764165D01*
X125665723Y-63755282D01*
X125660172Y-63743072D01*
X125639256Y-63697071D01*
X125606384Y-63624772D01*
X125570359Y-63582963D01*
X125518660Y-63522963D01*
X125518657Y-63522960D01*
X125512800Y-63516163D01*
X125392495Y-63438185D01*
X125255139Y-63397107D01*
X125246163Y-63397052D01*
X125246162Y-63397052D01*
X125185955Y-63396684D01*
X125111776Y-63396231D01*
X124973929Y-63435628D01*
X124852680Y-63512130D01*
X124846738Y-63518858D01*
X124846737Y-63518859D01*
X124832646Y-63534814D01*
X124757777Y-63619588D01*
X124696847Y-63749363D01*
X124692550Y-63776963D01*
X124677322Y-63874770D01*
X124674791Y-63891023D01*
X124087954Y-63891023D01*
X124082384Y-63878772D01*
X124048477Y-63839421D01*
X123994660Y-63776963D01*
X123994657Y-63776960D01*
X123988800Y-63770163D01*
X123868495Y-63692185D01*
X123731139Y-63651107D01*
X123722163Y-63651052D01*
X123722162Y-63651052D01*
X123661955Y-63650684D01*
X123587776Y-63650231D01*
X123449929Y-63689628D01*
X123328680Y-63766130D01*
X123322738Y-63772858D01*
X123322737Y-63772859D01*
X123319113Y-63776963D01*
X123233777Y-63873588D01*
X123172847Y-64003363D01*
X123171466Y-64012235D01*
X123154841Y-64119014D01*
X123150791Y-64145023D01*
X113977794Y-64145023D01*
X113990395Y-64119014D01*
X113990395Y-64119013D01*
X113994310Y-64110933D01*
X114018096Y-63969554D01*
X114018247Y-63957200D01*
X114006041Y-63871969D01*
X113999196Y-63824168D01*
X113999195Y-63824165D01*
X113997923Y-63815282D01*
X113980501Y-63776963D01*
X113970480Y-63754925D01*
X113938584Y-63684772D01*
X113908869Y-63650286D01*
X113850860Y-63582963D01*
X113850857Y-63582960D01*
X113845000Y-63576163D01*
X113724695Y-63498185D01*
X113587339Y-63457107D01*
X113578363Y-63457052D01*
X113578362Y-63457052D01*
X113518155Y-63456684D01*
X113443976Y-63456231D01*
X113306129Y-63495628D01*
X113184880Y-63572130D01*
X113089977Y-63679588D01*
X113029047Y-63809363D01*
X113025929Y-63829390D01*
X113009706Y-63933588D01*
X113006991Y-63951023D01*
X96000588Y-63951023D01*
X96000874Y-63366823D01*
X115292991Y-63366823D01*
X115294155Y-63375725D01*
X115294155Y-63375728D01*
X115298294Y-63407379D01*
X115311580Y-63508979D01*
X115369320Y-63640203D01*
X115375097Y-63647076D01*
X115375098Y-63647077D01*
X115451376Y-63737821D01*
X115461570Y-63749948D01*
X115580913Y-63829390D01*
X115589488Y-63832069D01*
X115603534Y-63836457D01*
X115717757Y-63872142D01*
X115726729Y-63872306D01*
X115726732Y-63872307D01*
X115792063Y-63873504D01*
X115861099Y-63874770D01*
X115870133Y-63872307D01*
X115990758Y-63839421D01*
X115990760Y-63839420D01*
X115999417Y-63837060D01*
X116121591Y-63762045D01*
X116128496Y-63754417D01*
X116211778Y-63662407D01*
X116217800Y-63655754D01*
X116280310Y-63526733D01*
X116304096Y-63385354D01*
X116304247Y-63373000D01*
X116303362Y-63366823D01*
X116791591Y-63366823D01*
X116792755Y-63375725D01*
X116792755Y-63375728D01*
X116796894Y-63407379D01*
X116810180Y-63508979D01*
X116867920Y-63640203D01*
X116873697Y-63647076D01*
X116873698Y-63647077D01*
X116949976Y-63737821D01*
X116960170Y-63749948D01*
X117079513Y-63829390D01*
X117088088Y-63832069D01*
X117102134Y-63836457D01*
X117216357Y-63872142D01*
X117225329Y-63872306D01*
X117225332Y-63872307D01*
X117290663Y-63873504D01*
X117359699Y-63874770D01*
X117368733Y-63872307D01*
X117489358Y-63839421D01*
X117489360Y-63839420D01*
X117498017Y-63837060D01*
X117620191Y-63762045D01*
X117627096Y-63754417D01*
X117710378Y-63662407D01*
X117716400Y-63655754D01*
X117778910Y-63526733D01*
X117802696Y-63385354D01*
X117802847Y-63373000D01*
X117791660Y-63294883D01*
X117787413Y-63265223D01*
X119331591Y-63265223D01*
X119332755Y-63274125D01*
X119332755Y-63274128D01*
X119340403Y-63332613D01*
X119350180Y-63407379D01*
X119371623Y-63456112D01*
X119392286Y-63503071D01*
X119407920Y-63538603D01*
X119413697Y-63545476D01*
X119413698Y-63545477D01*
X119444324Y-63581911D01*
X119500170Y-63648348D01*
X119619513Y-63727790D01*
X119756357Y-63770542D01*
X119765329Y-63770706D01*
X119765332Y-63770707D01*
X119830663Y-63771904D01*
X119899699Y-63773170D01*
X119908733Y-63770707D01*
X120029358Y-63737821D01*
X120029360Y-63737820D01*
X120038017Y-63735460D01*
X120160191Y-63660445D01*
X120169387Y-63650286D01*
X120250378Y-63560807D01*
X120256400Y-63554154D01*
X120300174Y-63463804D01*
X120314995Y-63433214D01*
X120314995Y-63433213D01*
X120318910Y-63425133D01*
X120342696Y-63283754D01*
X120342847Y-63271400D01*
X120334673Y-63214324D01*
X120323796Y-63138368D01*
X120323795Y-63138365D01*
X120322523Y-63129482D01*
X120309379Y-63100572D01*
X120299394Y-63078613D01*
X120263184Y-62998972D01*
X120215189Y-62943271D01*
X120175460Y-62897163D01*
X120175457Y-62897160D01*
X120169600Y-62890363D01*
X120145933Y-62875023D01*
X122915291Y-62875023D01*
X122916455Y-62883925D01*
X122916455Y-62883928D01*
X122920049Y-62911412D01*
X122933880Y-63017179D01*
X122937497Y-63025399D01*
X122983295Y-63129482D01*
X122991620Y-63148403D01*
X122997397Y-63155276D01*
X122997398Y-63155277D01*
X123004692Y-63163954D01*
X123083870Y-63258148D01*
X123091347Y-63263125D01*
X123191018Y-63329472D01*
X123203213Y-63337590D01*
X123340057Y-63380342D01*
X123349029Y-63380506D01*
X123349032Y-63380507D01*
X123414363Y-63381704D01*
X123483399Y-63382970D01*
X123492433Y-63380507D01*
X123613058Y-63347621D01*
X123613060Y-63347620D01*
X123621717Y-63345260D01*
X123743891Y-63270245D01*
X123840100Y-63163954D01*
X123902610Y-63034933D01*
X123926396Y-62893554D01*
X123926472Y-62887336D01*
X123926488Y-62886059D01*
X123926488Y-62886054D01*
X123926547Y-62881200D01*
X123914297Y-62795660D01*
X123907496Y-62748168D01*
X123907495Y-62748165D01*
X123906223Y-62739282D01*
X123899885Y-62725341D01*
X123887079Y-62697177D01*
X123852454Y-62621023D01*
X124210291Y-62621023D01*
X124211455Y-62629925D01*
X124211455Y-62629928D01*
X124212714Y-62639554D01*
X124228880Y-62763179D01*
X124233589Y-62773880D01*
X124282949Y-62886059D01*
X124286620Y-62894403D01*
X124292397Y-62901276D01*
X124292398Y-62901277D01*
X124370894Y-62994659D01*
X124378870Y-63004148D01*
X124498213Y-63083590D01*
X124635057Y-63126342D01*
X124644029Y-63126506D01*
X124644032Y-63126507D01*
X124709363Y-63127704D01*
X124778399Y-63128970D01*
X124787433Y-63126507D01*
X124908058Y-63093621D01*
X124908060Y-63093620D01*
X124916717Y-63091260D01*
X125038891Y-63016245D01*
X125135100Y-62909954D01*
X125139359Y-62901163D01*
X150169626Y-62901163D01*
X150186044Y-63096683D01*
X150240127Y-63285291D01*
X150242945Y-63290774D01*
X150326992Y-63454313D01*
X150326995Y-63454317D01*
X150329813Y-63459801D01*
X150451687Y-63613569D01*
X150456380Y-63617563D01*
X150456381Y-63617564D01*
X150585897Y-63727790D01*
X150601107Y-63740735D01*
X150606485Y-63743741D01*
X150606487Y-63743742D01*
X150659143Y-63773170D01*
X150772382Y-63836457D01*
X150958987Y-63897089D01*
X151153815Y-63920321D01*
X151159950Y-63919849D01*
X151159952Y-63919849D01*
X151343303Y-63905741D01*
X151343307Y-63905740D01*
X151349445Y-63905268D01*
X151538425Y-63852503D01*
X151713558Y-63764037D01*
X151720985Y-63758235D01*
X151808818Y-63689612D01*
X151868172Y-63643240D01*
X151877058Y-63632946D01*
X151992354Y-63499373D01*
X151992354Y-63499372D01*
X151996378Y-63494711D01*
X152016279Y-63459680D01*
X152050921Y-63398698D01*
X152093294Y-63324109D01*
X152155227Y-63137932D01*
X152179818Y-62943271D01*
X152180210Y-62915200D01*
X152161063Y-62719928D01*
X152159282Y-62714029D01*
X152159281Y-62714024D01*
X152106134Y-62537993D01*
X152104353Y-62532094D01*
X152012239Y-62358853D01*
X151888230Y-62206802D01*
X151737049Y-62081735D01*
X151564454Y-61988413D01*
X151464147Y-61957363D01*
X151382908Y-61932215D01*
X151382905Y-61932214D01*
X151377021Y-61930393D01*
X151370896Y-61929749D01*
X151370895Y-61929749D01*
X151188016Y-61910527D01*
X151188015Y-61910527D01*
X151181888Y-61909883D01*
X151059252Y-61921044D01*
X150992628Y-61927107D01*
X150992627Y-61927107D01*
X150986487Y-61927666D01*
X150980573Y-61929407D01*
X150980571Y-61929407D01*
X150938668Y-61941740D01*
X150798262Y-61983064D01*
X150792797Y-61985921D01*
X150629841Y-62071112D01*
X150629837Y-62071115D01*
X150624381Y-62073967D01*
X150619581Y-62077827D01*
X150619580Y-62077827D01*
X150585195Y-62105473D01*
X150471469Y-62196911D01*
X150345349Y-62347216D01*
X150342385Y-62352608D01*
X150342382Y-62352612D01*
X150305549Y-62419612D01*
X150250825Y-62519154D01*
X150191497Y-62706178D01*
X150169626Y-62901163D01*
X125139359Y-62901163D01*
X125172205Y-62833370D01*
X125193695Y-62789014D01*
X125193695Y-62789013D01*
X125197610Y-62780933D01*
X125221396Y-62639554D01*
X125221547Y-62627200D01*
X125207148Y-62526652D01*
X125202496Y-62494168D01*
X125202495Y-62494165D01*
X125201223Y-62485282D01*
X125197222Y-62476481D01*
X125174756Y-62427071D01*
X125141884Y-62354772D01*
X125116595Y-62325423D01*
X141327991Y-62325423D01*
X141329155Y-62334325D01*
X141329155Y-62334328D01*
X141335609Y-62383680D01*
X141346580Y-62467579D01*
X141404320Y-62598803D01*
X141410097Y-62605676D01*
X141410098Y-62605677D01*
X141438575Y-62639554D01*
X141496570Y-62708548D01*
X141513666Y-62719928D01*
X141605312Y-62780933D01*
X141615913Y-62787990D01*
X141752757Y-62830742D01*
X141761729Y-62830906D01*
X141761732Y-62830907D01*
X141827063Y-62832104D01*
X141896099Y-62833370D01*
X141905133Y-62830907D01*
X142025758Y-62798021D01*
X142025760Y-62798020D01*
X142034417Y-62795660D01*
X142156591Y-62720645D01*
X142252800Y-62614354D01*
X142301538Y-62513759D01*
X142311395Y-62493414D01*
X142311395Y-62493413D01*
X142315310Y-62485333D01*
X142339096Y-62343954D01*
X142339247Y-62331600D01*
X142331073Y-62274524D01*
X142320196Y-62198568D01*
X142320195Y-62198565D01*
X142318923Y-62189682D01*
X142311371Y-62173071D01*
X142281632Y-62107664D01*
X142259584Y-62059172D01*
X142241198Y-62037834D01*
X142171860Y-61957363D01*
X142171857Y-61957360D01*
X142166000Y-61950563D01*
X142045695Y-61872585D01*
X141908339Y-61831507D01*
X141899363Y-61831452D01*
X141899362Y-61831452D01*
X141839155Y-61831084D01*
X141764976Y-61830631D01*
X141627129Y-61870028D01*
X141505880Y-61946530D01*
X141410977Y-62053988D01*
X141350047Y-62183763D01*
X141327991Y-62325423D01*
X125116595Y-62325423D01*
X125108950Y-62316550D01*
X125054160Y-62252963D01*
X125054157Y-62252960D01*
X125048300Y-62246163D01*
X124927995Y-62168185D01*
X124790639Y-62127107D01*
X124781663Y-62127052D01*
X124781662Y-62127052D01*
X124721455Y-62126684D01*
X124647276Y-62126231D01*
X124509429Y-62165628D01*
X124388180Y-62242130D01*
X124293277Y-62349588D01*
X124232347Y-62479363D01*
X124229109Y-62500163D01*
X124212587Y-62606277D01*
X124210291Y-62621023D01*
X123852454Y-62621023D01*
X123846884Y-62608772D01*
X123769664Y-62519154D01*
X123759160Y-62506963D01*
X123759157Y-62506960D01*
X123753300Y-62500163D01*
X123632995Y-62422185D01*
X123495639Y-62381107D01*
X123486663Y-62381052D01*
X123486662Y-62381052D01*
X123426455Y-62380684D01*
X123352276Y-62380231D01*
X123214429Y-62419628D01*
X123093180Y-62496130D01*
X122998277Y-62603588D01*
X122937347Y-62733363D01*
X122935966Y-62742235D01*
X122922160Y-62830907D01*
X122915291Y-62875023D01*
X120145933Y-62875023D01*
X120049295Y-62812385D01*
X119911939Y-62771307D01*
X119902963Y-62771252D01*
X119902962Y-62771252D01*
X119842755Y-62770884D01*
X119768576Y-62770431D01*
X119630729Y-62809828D01*
X119509480Y-62886330D01*
X119503538Y-62893058D01*
X119503537Y-62893059D01*
X119485056Y-62913985D01*
X119414577Y-62993788D01*
X119353647Y-63123563D01*
X119348709Y-63155277D01*
X119336907Y-63231082D01*
X119331591Y-63265223D01*
X117787413Y-63265223D01*
X117783796Y-63239968D01*
X117783795Y-63239965D01*
X117782523Y-63231082D01*
X117723184Y-63100572D01*
X117666626Y-63034933D01*
X117635460Y-62998763D01*
X117635457Y-62998760D01*
X117629600Y-62991963D01*
X117509295Y-62913985D01*
X117371939Y-62872907D01*
X117362963Y-62872852D01*
X117362962Y-62872852D01*
X117302755Y-62872484D01*
X117228576Y-62872031D01*
X117090729Y-62911428D01*
X116969480Y-62987930D01*
X116874577Y-63095388D01*
X116813647Y-63225163D01*
X116807664Y-63263591D01*
X116794581Y-63347621D01*
X116791591Y-63366823D01*
X116303362Y-63366823D01*
X116293060Y-63294883D01*
X116285196Y-63239968D01*
X116285195Y-63239965D01*
X116283923Y-63231082D01*
X116224584Y-63100572D01*
X116168026Y-63034933D01*
X116136860Y-62998763D01*
X116136857Y-62998760D01*
X116131000Y-62991963D01*
X116010695Y-62913985D01*
X115873339Y-62872907D01*
X115864363Y-62872852D01*
X115864362Y-62872852D01*
X115804155Y-62872484D01*
X115729976Y-62872031D01*
X115592129Y-62911428D01*
X115470880Y-62987930D01*
X115375977Y-63095388D01*
X115315047Y-63225163D01*
X115309064Y-63263591D01*
X115295981Y-63347621D01*
X115292991Y-63366823D01*
X96000874Y-63366823D01*
X96002304Y-60445823D01*
X122811391Y-60445823D01*
X122812555Y-60454725D01*
X122812555Y-60454728D01*
X122813814Y-60464354D01*
X122829980Y-60587979D01*
X122887720Y-60719203D01*
X122893497Y-60726076D01*
X122893498Y-60726077D01*
X122896269Y-60729373D01*
X122979970Y-60828948D01*
X123099313Y-60908390D01*
X123236157Y-60951142D01*
X123245129Y-60951306D01*
X123245132Y-60951307D01*
X123299141Y-60952297D01*
X123328351Y-60952832D01*
X123396093Y-60974079D01*
X123441595Y-61028578D01*
X123450409Y-61099025D01*
X123419737Y-61163055D01*
X123393276Y-61185373D01*
X123328680Y-61226130D01*
X123233777Y-61333588D01*
X123172847Y-61463363D01*
X123150791Y-61605023D01*
X123151955Y-61613925D01*
X123151955Y-61613928D01*
X123153214Y-61623554D01*
X123169380Y-61747179D01*
X123227120Y-61878403D01*
X123232897Y-61885276D01*
X123232898Y-61885277D01*
X123313590Y-61981272D01*
X123319370Y-61988148D01*
X123326847Y-61993125D01*
X123430487Y-62062114D01*
X123438713Y-62067590D01*
X123575557Y-62110342D01*
X123584529Y-62110506D01*
X123584532Y-62110507D01*
X123649863Y-62111704D01*
X123718899Y-62112970D01*
X123727933Y-62110507D01*
X123848558Y-62077621D01*
X123848560Y-62077620D01*
X123857217Y-62075260D01*
X123979391Y-62000245D01*
X124075600Y-61893954D01*
X124138110Y-61764933D01*
X124161896Y-61623554D01*
X124162047Y-61611200D01*
X124141723Y-61469282D01*
X124082384Y-61338772D01*
X124063998Y-61317434D01*
X123994660Y-61236963D01*
X123994657Y-61236960D01*
X123988800Y-61230163D01*
X123868495Y-61152185D01*
X123731139Y-61111107D01*
X123722163Y-61111052D01*
X123722162Y-61111052D01*
X123646241Y-61110588D01*
X123578244Y-61090170D01*
X123532080Y-61036231D01*
X123522405Y-60965896D01*
X123552293Y-60901497D01*
X123581083Y-60877215D01*
X123632340Y-60845744D01*
X123632346Y-60845739D01*
X123639991Y-60841045D01*
X123736200Y-60734754D01*
X123798710Y-60605733D01*
X123822496Y-60464354D01*
X123822647Y-60452000D01*
X123810608Y-60367932D01*
X123803596Y-60318968D01*
X123803595Y-60318965D01*
X123802323Y-60310082D01*
X123742984Y-60179572D01*
X123701272Y-60131163D01*
X150169626Y-60131163D01*
X150186044Y-60326683D01*
X150240127Y-60515291D01*
X150242945Y-60520774D01*
X150326992Y-60684313D01*
X150326995Y-60684317D01*
X150329813Y-60689801D01*
X150451687Y-60843569D01*
X150456380Y-60847563D01*
X150456381Y-60847564D01*
X150574939Y-60948464D01*
X150601107Y-60970735D01*
X150606485Y-60973741D01*
X150606487Y-60973742D01*
X150642801Y-60994037D01*
X150772382Y-61066457D01*
X150958987Y-61127089D01*
X151153815Y-61150321D01*
X151159950Y-61149849D01*
X151159952Y-61149849D01*
X151343303Y-61135741D01*
X151343307Y-61135740D01*
X151349445Y-61135268D01*
X151538425Y-61082503D01*
X151713558Y-60994037D01*
X151743384Y-60970735D01*
X151790865Y-60933639D01*
X151868172Y-60873240D01*
X151897953Y-60838739D01*
X151992354Y-60729373D01*
X151992354Y-60729372D01*
X151996378Y-60724711D01*
X152093294Y-60554109D01*
X152155227Y-60367932D01*
X152179818Y-60173271D01*
X152180210Y-60145200D01*
X152161063Y-59949928D01*
X152159282Y-59944029D01*
X152159281Y-59944024D01*
X152106134Y-59767993D01*
X152104353Y-59762094D01*
X152012239Y-59588853D01*
X151888230Y-59436802D01*
X151737049Y-59311735D01*
X151564454Y-59218413D01*
X151462920Y-59186983D01*
X151382908Y-59162215D01*
X151382905Y-59162214D01*
X151377021Y-59160393D01*
X151370896Y-59159749D01*
X151370895Y-59159749D01*
X151188016Y-59140527D01*
X151188015Y-59140527D01*
X151181888Y-59139883D01*
X151059252Y-59151044D01*
X150992628Y-59157107D01*
X150992627Y-59157107D01*
X150986487Y-59157666D01*
X150980573Y-59159407D01*
X150980571Y-59159407D01*
X150886877Y-59186983D01*
X150798262Y-59213064D01*
X150792797Y-59215921D01*
X150629841Y-59301112D01*
X150629837Y-59301115D01*
X150624381Y-59303967D01*
X150619581Y-59307827D01*
X150619580Y-59307827D01*
X150585195Y-59335473D01*
X150471469Y-59426911D01*
X150345349Y-59577216D01*
X150342385Y-59582608D01*
X150342382Y-59582612D01*
X150263682Y-59725767D01*
X150250825Y-59749154D01*
X150191497Y-59936178D01*
X150169626Y-60131163D01*
X123701272Y-60131163D01*
X123655260Y-60077763D01*
X123655257Y-60077760D01*
X123649400Y-60070963D01*
X123529095Y-59992985D01*
X123391739Y-59951907D01*
X123382763Y-59951852D01*
X123382762Y-59951852D01*
X123322555Y-59951484D01*
X123248376Y-59951031D01*
X123110529Y-59990428D01*
X122989280Y-60066930D01*
X122894377Y-60174388D01*
X122833447Y-60304163D01*
X122811391Y-60445823D01*
X96002304Y-60445823D01*
X96003050Y-58921823D01*
X119280791Y-58921823D01*
X119281955Y-58930725D01*
X119281955Y-58930728D01*
X119283214Y-58940354D01*
X119299380Y-59063979D01*
X119357120Y-59195203D01*
X119362897Y-59202076D01*
X119362898Y-59202077D01*
X119370192Y-59210754D01*
X119449370Y-59304948D01*
X119568713Y-59384390D01*
X119705557Y-59427142D01*
X119714529Y-59427306D01*
X119714532Y-59427307D01*
X119779863Y-59428504D01*
X119848899Y-59429770D01*
X119857933Y-59427307D01*
X119978558Y-59394421D01*
X119978560Y-59394420D01*
X119987217Y-59392060D01*
X120109391Y-59317045D01*
X120205600Y-59210754D01*
X120268110Y-59081733D01*
X120277920Y-59023423D01*
X126316591Y-59023423D01*
X126317755Y-59032325D01*
X126317755Y-59032328D01*
X126318673Y-59039345D01*
X126335180Y-59165579D01*
X126392920Y-59296803D01*
X126398697Y-59303676D01*
X126398698Y-59303677D01*
X126474976Y-59394421D01*
X126485170Y-59406548D01*
X126604513Y-59485990D01*
X126741357Y-59528742D01*
X126750329Y-59528906D01*
X126750332Y-59528907D01*
X126815663Y-59530104D01*
X126884699Y-59531370D01*
X126893733Y-59528907D01*
X127014358Y-59496021D01*
X127014360Y-59496020D01*
X127023017Y-59493660D01*
X127145191Y-59418645D01*
X127241400Y-59312354D01*
X127288121Y-59215921D01*
X127299995Y-59191414D01*
X127299995Y-59191413D01*
X127303910Y-59183333D01*
X127327696Y-59041954D01*
X127327847Y-59029600D01*
X127312860Y-58924948D01*
X127308796Y-58896568D01*
X127308795Y-58896565D01*
X127307523Y-58887682D01*
X127248184Y-58757172D01*
X127167619Y-58663672D01*
X127160460Y-58655363D01*
X127160457Y-58655360D01*
X127154600Y-58648563D01*
X127034295Y-58570585D01*
X126896939Y-58529507D01*
X126887963Y-58529452D01*
X126887962Y-58529452D01*
X126827755Y-58529084D01*
X126753576Y-58528631D01*
X126615729Y-58568028D01*
X126494480Y-58644530D01*
X126399577Y-58751988D01*
X126338647Y-58881763D01*
X126330692Y-58932859D01*
X126322818Y-58983431D01*
X126316591Y-59023423D01*
X120277920Y-59023423D01*
X120291896Y-58940354D01*
X120292047Y-58928000D01*
X120276527Y-58819624D01*
X120272996Y-58794968D01*
X120272995Y-58794965D01*
X120271723Y-58786082D01*
X120258579Y-58757172D01*
X120252579Y-58743977D01*
X120212384Y-58655572D01*
X120183061Y-58621541D01*
X120124660Y-58553763D01*
X120124657Y-58553760D01*
X120118800Y-58546963D01*
X119998495Y-58468985D01*
X119861139Y-58427907D01*
X119852163Y-58427852D01*
X119852162Y-58427852D01*
X119791955Y-58427484D01*
X119717776Y-58427031D01*
X119579929Y-58466428D01*
X119458680Y-58542930D01*
X119363777Y-58650388D01*
X119302847Y-58780163D01*
X119301466Y-58789035D01*
X119286107Y-58887682D01*
X119280791Y-58921823D01*
X96003050Y-58921823D01*
X96003358Y-58291933D01*
X96023393Y-58223823D01*
X96077072Y-58177357D01*
X96129358Y-58165996D01*
X111777104Y-58165999D01*
X114027885Y-58166000D01*
X114046000Y-58166000D01*
X114046000Y-58040462D01*
X140609051Y-58040462D01*
X140609567Y-58046606D01*
X140620547Y-58177357D01*
X140626290Y-58245753D01*
X140627989Y-58251678D01*
X140679260Y-58430480D01*
X140683075Y-58443786D01*
X140685890Y-58449263D01*
X140685891Y-58449266D01*
X140774428Y-58621541D01*
X140777243Y-58627018D01*
X140905208Y-58788470D01*
X141062095Y-58921991D01*
X141067473Y-58924997D01*
X141067475Y-58924998D01*
X141099094Y-58942669D01*
X141241929Y-59022497D01*
X141316569Y-59046749D01*
X141432002Y-59084256D01*
X141432006Y-59084257D01*
X141437860Y-59086159D01*
X141642425Y-59110551D01*
X141648560Y-59110079D01*
X141648562Y-59110079D01*
X141721156Y-59104493D01*
X141847831Y-59094746D01*
X141853761Y-59093090D01*
X141853763Y-59093090D01*
X142008982Y-59049752D01*
X142046256Y-59039345D01*
X142051745Y-59036572D01*
X142051751Y-59036570D01*
X142224647Y-58949233D01*
X142230141Y-58946458D01*
X142257673Y-58924948D01*
X143154031Y-58924948D01*
X143155238Y-58931016D01*
X143158862Y-58949233D01*
X143165664Y-58983431D01*
X143209979Y-59049752D01*
X143276300Y-59094067D01*
X143288469Y-59096488D01*
X143288470Y-59096488D01*
X143328715Y-59104493D01*
X143334783Y-59105700D01*
X145074279Y-59105700D01*
X145080347Y-59104493D01*
X145120592Y-59096488D01*
X145120593Y-59096488D01*
X145132762Y-59094067D01*
X145199083Y-59049752D01*
X145243398Y-58983431D01*
X145250201Y-58949233D01*
X145253824Y-58931016D01*
X145255031Y-58924948D01*
X145255031Y-57185452D01*
X145243398Y-57126969D01*
X145199083Y-57060648D01*
X145132762Y-57016333D01*
X145120593Y-57013912D01*
X145120592Y-57013912D01*
X145080347Y-57005907D01*
X145074279Y-57004700D01*
X143334783Y-57004700D01*
X143328715Y-57005907D01*
X143288470Y-57013912D01*
X143288469Y-57013912D01*
X143276300Y-57016333D01*
X143209979Y-57060648D01*
X143165664Y-57126969D01*
X143154031Y-57185452D01*
X143154031Y-58924948D01*
X142257673Y-58924948D01*
X142392482Y-58819624D01*
X142413765Y-58794968D01*
X142523071Y-58668334D01*
X142523071Y-58668333D01*
X142527095Y-58663672D01*
X142531697Y-58655572D01*
X142581428Y-58568028D01*
X142628854Y-58484544D01*
X142693882Y-58289063D01*
X142719702Y-58084674D01*
X142720114Y-58055200D01*
X142700011Y-57850170D01*
X142640466Y-57652949D01*
X142543749Y-57471049D01*
X142470390Y-57381102D01*
X142417437Y-57316175D01*
X142417434Y-57316172D01*
X142413542Y-57311400D01*
X142396317Y-57297150D01*
X142259556Y-57184011D01*
X142259552Y-57184009D01*
X142254806Y-57180082D01*
X142073586Y-57082097D01*
X141876785Y-57021177D01*
X141870660Y-57020533D01*
X141870659Y-57020533D01*
X141678029Y-57000287D01*
X141678027Y-57000287D01*
X141671900Y-56999643D01*
X141585060Y-57007546D01*
X141472873Y-57017755D01*
X141472870Y-57017756D01*
X141466734Y-57018314D01*
X141269103Y-57076480D01*
X141086533Y-57171926D01*
X141081732Y-57175786D01*
X141081729Y-57175788D01*
X140930785Y-57297150D01*
X140925978Y-57301015D01*
X140793555Y-57458830D01*
X140790587Y-57464228D01*
X140790584Y-57464233D01*
X140783846Y-57476490D01*
X140694307Y-57639362D01*
X140632015Y-57835732D01*
X140631329Y-57841849D01*
X140631328Y-57841853D01*
X140609738Y-58034337D01*
X140609051Y-58040462D01*
X114046000Y-58040462D01*
X114046000Y-52806600D01*
X117123318Y-52806600D01*
X117143956Y-52963362D01*
X117204464Y-53109441D01*
X117300718Y-53234882D01*
X117426159Y-53331136D01*
X117572238Y-53391644D01*
X117729000Y-53412282D01*
X117737188Y-53411204D01*
X117877574Y-53392722D01*
X117885762Y-53391644D01*
X118031841Y-53331136D01*
X118157282Y-53234882D01*
X118253536Y-53109441D01*
X118314044Y-52963362D01*
X118334682Y-52806600D01*
X133684118Y-52806600D01*
X133704756Y-52963362D01*
X133765264Y-53109441D01*
X133861518Y-53234882D01*
X133986959Y-53331136D01*
X134133038Y-53391644D01*
X134289800Y-53412282D01*
X134297988Y-53411204D01*
X134438374Y-53392722D01*
X134446562Y-53391644D01*
X134592641Y-53331136D01*
X134718082Y-53234882D01*
X134814336Y-53109441D01*
X134874844Y-52963362D01*
X134895482Y-52806600D01*
X134874844Y-52649838D01*
X134814336Y-52503759D01*
X134718082Y-52378318D01*
X134592641Y-52282064D01*
X134446562Y-52221556D01*
X134289800Y-52200918D01*
X134133038Y-52221556D01*
X133986959Y-52282064D01*
X133861518Y-52378318D01*
X133765264Y-52503759D01*
X133704756Y-52649838D01*
X133684118Y-52806600D01*
X118334682Y-52806600D01*
X118314044Y-52649838D01*
X118253536Y-52503759D01*
X118157282Y-52378318D01*
X118031841Y-52282064D01*
X117885762Y-52221556D01*
X117729000Y-52200918D01*
X117572238Y-52221556D01*
X117426159Y-52282064D01*
X117300718Y-52378318D01*
X117204464Y-52503759D01*
X117143956Y-52649838D01*
X117123318Y-52806600D01*
X114046000Y-52806600D01*
X114046000Y-45745400D01*
X127638918Y-45745400D01*
X127659556Y-45902162D01*
X127720064Y-46048241D01*
X127816318Y-46173682D01*
X127941759Y-46269936D01*
X128087838Y-46330444D01*
X128244600Y-46351082D01*
X128252788Y-46350004D01*
X128393174Y-46331522D01*
X128401362Y-46330444D01*
X128547441Y-46269936D01*
X128672882Y-46173682D01*
X128769136Y-46048241D01*
X128829644Y-45902162D01*
X128850282Y-45745400D01*
X128829644Y-45588638D01*
X128769136Y-45442559D01*
X128672882Y-45317118D01*
X128547441Y-45220864D01*
X128401362Y-45160356D01*
X128244600Y-45139718D01*
X128087838Y-45160356D01*
X127941759Y-45220864D01*
X127816318Y-45317118D01*
X127720064Y-45442559D01*
X127659556Y-45588638D01*
X127638918Y-45745400D01*
X114046000Y-45745400D01*
X114046000Y-44500800D01*
X117097918Y-44500800D01*
X117118556Y-44657562D01*
X117179064Y-44803641D01*
X117275318Y-44929082D01*
X117400759Y-45025336D01*
X117546838Y-45085844D01*
X117703600Y-45106482D01*
X117711788Y-45105404D01*
X117852174Y-45086922D01*
X117860362Y-45085844D01*
X118006441Y-45025336D01*
X118131882Y-44929082D01*
X118228136Y-44803641D01*
X118288644Y-44657562D01*
X118309282Y-44500800D01*
X133531718Y-44500800D01*
X133552356Y-44657562D01*
X133612864Y-44803641D01*
X133709118Y-44929082D01*
X133834559Y-45025336D01*
X133980638Y-45085844D01*
X134137400Y-45106482D01*
X134145588Y-45105404D01*
X134285974Y-45086922D01*
X134294162Y-45085844D01*
X134440241Y-45025336D01*
X134565682Y-44929082D01*
X134661936Y-44803641D01*
X134722444Y-44657562D01*
X134743082Y-44500800D01*
X134722444Y-44344038D01*
X134661936Y-44197959D01*
X134565682Y-44072518D01*
X134440241Y-43976264D01*
X134294162Y-43915756D01*
X134137400Y-43895118D01*
X133980638Y-43915756D01*
X133834559Y-43976264D01*
X133709118Y-44072518D01*
X133612864Y-44197959D01*
X133552356Y-44344038D01*
X133531718Y-44500800D01*
X118309282Y-44500800D01*
X118288644Y-44344038D01*
X118228136Y-44197959D01*
X118131882Y-44072518D01*
X118006441Y-43976264D01*
X117860362Y-43915756D01*
X117703600Y-43895118D01*
X117546838Y-43915756D01*
X117400759Y-43976264D01*
X117275318Y-44072518D01*
X117179064Y-44197959D01*
X117118556Y-44344038D01*
X117097918Y-44500800D01*
X114046000Y-44500800D01*
X114046000Y-43021290D01*
X114066002Y-42953169D01*
X114119658Y-42906676D01*
X114172005Y-42895290D01*
X136272008Y-42896320D01*
G37*
G04 #@! TD.AperFunction*
G04 #@! TA.AperFunction,Conductor*
G36*
X101923121Y-95270002D02*
G01*
X101969614Y-95323658D01*
X101981000Y-95376000D01*
X101981000Y-111125000D01*
X117984000Y-111125000D01*
X118052121Y-111145002D01*
X118098614Y-111198658D01*
X118110000Y-111251000D01*
X118110000Y-119254000D01*
X118089998Y-119322121D01*
X118036342Y-119368614D01*
X117984000Y-119380000D01*
X83946000Y-119380000D01*
X83877879Y-119359998D01*
X83831386Y-119306342D01*
X83820000Y-119254000D01*
X83820000Y-114608265D01*
X86874319Y-114608265D01*
X86874616Y-114613417D01*
X86874616Y-114613421D01*
X86883741Y-114771672D01*
X86887576Y-114838180D01*
X86888713Y-114843226D01*
X86888714Y-114843232D01*
X86910426Y-114939575D01*
X86938206Y-115062842D01*
X86940148Y-115067624D01*
X86940149Y-115067628D01*
X87006462Y-115230936D01*
X87024849Y-115276218D01*
X87145179Y-115472578D01*
X87295963Y-115646648D01*
X87473153Y-115793754D01*
X87671990Y-115909945D01*
X87887134Y-115992101D01*
X87892200Y-115993132D01*
X87892201Y-115993132D01*
X87992897Y-116013618D01*
X88112807Y-116038014D01*
X88242552Y-116042772D01*
X88337785Y-116046264D01*
X88337789Y-116046264D01*
X88342949Y-116046453D01*
X88348069Y-116045797D01*
X88348071Y-116045797D01*
X88417472Y-116036907D01*
X88571378Y-116017191D01*
X88576326Y-116015706D01*
X88576333Y-116015705D01*
X88787011Y-115952498D01*
X88787010Y-115952498D01*
X88791961Y-115951013D01*
X88998774Y-115849696D01*
X89186262Y-115715963D01*
X89349390Y-115553403D01*
X89407469Y-115472578D01*
X89480759Y-115370583D01*
X89483777Y-115366383D01*
X89585815Y-115159925D01*
X89616843Y-115057800D01*
X89651259Y-114944527D01*
X89651260Y-114944521D01*
X89652763Y-114939575D01*
X89673962Y-114778548D01*
X89682385Y-114714571D01*
X89682385Y-114714565D01*
X89682822Y-114711249D01*
X89683317Y-114691007D01*
X89684418Y-114645964D01*
X89684418Y-114645960D01*
X89684500Y-114642600D01*
X89665630Y-114413078D01*
X89609526Y-114189720D01*
X89555394Y-114065223D01*
X96827191Y-114065223D01*
X96828355Y-114074125D01*
X96828355Y-114074128D01*
X96829614Y-114083754D01*
X96845780Y-114207379D01*
X96903520Y-114338603D01*
X96909297Y-114345476D01*
X96909298Y-114345477D01*
X96989990Y-114441472D01*
X96995770Y-114448348D01*
X97115113Y-114527790D01*
X97251957Y-114570542D01*
X97260929Y-114570706D01*
X97260932Y-114570707D01*
X97326263Y-114571904D01*
X97395299Y-114573170D01*
X97404333Y-114570707D01*
X97524958Y-114537821D01*
X97524960Y-114537820D01*
X97533617Y-114535460D01*
X97655791Y-114460445D01*
X97714646Y-114395423D01*
X99697391Y-114395423D01*
X99698555Y-114404325D01*
X99698555Y-114404328D01*
X99705023Y-114453791D01*
X99715980Y-114537579D01*
X99773720Y-114668803D01*
X99779497Y-114675676D01*
X99779498Y-114675677D01*
X99786792Y-114684354D01*
X99865970Y-114778548D01*
X99873447Y-114783525D01*
X99963143Y-114843232D01*
X99985313Y-114857990D01*
X100122157Y-114900742D01*
X100131129Y-114900906D01*
X100131132Y-114900907D01*
X100196463Y-114902104D01*
X100265499Y-114903370D01*
X100274533Y-114900907D01*
X100395158Y-114868021D01*
X100395160Y-114868020D01*
X100403817Y-114865660D01*
X100525991Y-114790645D01*
X100602245Y-114706400D01*
X114634118Y-114706400D01*
X114654756Y-114863162D01*
X114715264Y-115009241D01*
X114811518Y-115134682D01*
X114936959Y-115230936D01*
X115083038Y-115291444D01*
X115239800Y-115312082D01*
X115247988Y-115311004D01*
X115388374Y-115292522D01*
X115396562Y-115291444D01*
X115542641Y-115230936D01*
X115668082Y-115134682D01*
X115764336Y-115009241D01*
X115824844Y-114863162D01*
X115845482Y-114706400D01*
X115827596Y-114570542D01*
X115825922Y-114557826D01*
X115824844Y-114549638D01*
X115764336Y-114403559D01*
X115668082Y-114278118D01*
X115542641Y-114181864D01*
X115396562Y-114121356D01*
X115239800Y-114100718D01*
X115083038Y-114121356D01*
X114936959Y-114181864D01*
X114811518Y-114278118D01*
X114715264Y-114403559D01*
X114654756Y-114549638D01*
X114653678Y-114557826D01*
X114652004Y-114570542D01*
X114634118Y-114706400D01*
X100602245Y-114706400D01*
X100622200Y-114684354D01*
X100676148Y-114573005D01*
X100680795Y-114563414D01*
X100680795Y-114563413D01*
X100684710Y-114555333D01*
X100708496Y-114413954D01*
X100708647Y-114401600D01*
X100691901Y-114284664D01*
X100689596Y-114268568D01*
X100689595Y-114268565D01*
X100688323Y-114259682D01*
X100628984Y-114129172D01*
X100581555Y-114074128D01*
X100541260Y-114027363D01*
X100541257Y-114027360D01*
X100535400Y-114020563D01*
X100415095Y-113942585D01*
X100277739Y-113901507D01*
X100268763Y-113901452D01*
X100268762Y-113901452D01*
X100208555Y-113901084D01*
X100134376Y-113900631D01*
X99996529Y-113940028D01*
X99875280Y-114016530D01*
X99780377Y-114123988D01*
X99719447Y-114253763D01*
X99718066Y-114262635D01*
X99699106Y-114384410D01*
X99697391Y-114395423D01*
X97714646Y-114395423D01*
X97745978Y-114360807D01*
X97752000Y-114354154D01*
X97793466Y-114268568D01*
X97810595Y-114233214D01*
X97810595Y-114233213D01*
X97814510Y-114225133D01*
X97838296Y-114083754D01*
X97838447Y-114071400D01*
X97821514Y-113953158D01*
X97819396Y-113938368D01*
X97819395Y-113938365D01*
X97818123Y-113929482D01*
X97806574Y-113904080D01*
X97762500Y-113807146D01*
X97758784Y-113798972D01*
X97720446Y-113754479D01*
X97671060Y-113697163D01*
X97671057Y-113697160D01*
X97665200Y-113690363D01*
X97544895Y-113612385D01*
X97407539Y-113571307D01*
X97398563Y-113571252D01*
X97398562Y-113571252D01*
X97338355Y-113570884D01*
X97264176Y-113570431D01*
X97126329Y-113609828D01*
X97005080Y-113686330D01*
X96910177Y-113793788D01*
X96849247Y-113923563D01*
X96845938Y-113944817D01*
X96833086Y-114027363D01*
X96827191Y-114065223D01*
X89555394Y-114065223D01*
X89519756Y-113983261D01*
X89519754Y-113983258D01*
X89517696Y-113978524D01*
X89441164Y-113860224D01*
X89395415Y-113789506D01*
X89395413Y-113789503D01*
X89392605Y-113785163D01*
X89371974Y-113762489D01*
X89241090Y-113618651D01*
X89241089Y-113618650D01*
X89237612Y-113614829D01*
X89233561Y-113611630D01*
X89233557Y-113611626D01*
X89060935Y-113475297D01*
X89060930Y-113475293D01*
X89056881Y-113472096D01*
X89052365Y-113469603D01*
X89052362Y-113469601D01*
X88859789Y-113363295D01*
X88859785Y-113363293D01*
X88855265Y-113360798D01*
X88850396Y-113359074D01*
X88850392Y-113359072D01*
X88643053Y-113285649D01*
X88643049Y-113285648D01*
X88638178Y-113283923D01*
X88633085Y-113283016D01*
X88633082Y-113283015D01*
X88536907Y-113265884D01*
X88411450Y-113243537D01*
X88325002Y-113242481D01*
X88186341Y-113240786D01*
X88186339Y-113240786D01*
X88181171Y-113240723D01*
X87953525Y-113275558D01*
X87734624Y-113347106D01*
X87530349Y-113453445D01*
X87346184Y-113591719D01*
X87187077Y-113758216D01*
X87184163Y-113762488D01*
X87184162Y-113762489D01*
X87165732Y-113789506D01*
X87057299Y-113948463D01*
X87055123Y-113953152D01*
X87055119Y-113953158D01*
X86972051Y-114132114D01*
X86960336Y-114157352D01*
X86898792Y-114379273D01*
X86898243Y-114384410D01*
X86878070Y-114573170D01*
X86874319Y-114608265D01*
X83820000Y-114608265D01*
X83820000Y-111108265D01*
X86874319Y-111108265D01*
X86874616Y-111113417D01*
X86874616Y-111113421D01*
X86879531Y-111198658D01*
X86887576Y-111338180D01*
X86888713Y-111343226D01*
X86888714Y-111343232D01*
X86910426Y-111439575D01*
X86938206Y-111562842D01*
X86940148Y-111567624D01*
X86940149Y-111567628D01*
X86977627Y-111659925D01*
X87024849Y-111776218D01*
X87145179Y-111972578D01*
X87295963Y-112146648D01*
X87473153Y-112293754D01*
X87671990Y-112409945D01*
X87887134Y-112492101D01*
X87892200Y-112493132D01*
X87892201Y-112493132D01*
X87992897Y-112513618D01*
X88112807Y-112538014D01*
X88242552Y-112542772D01*
X88337785Y-112546264D01*
X88337789Y-112546264D01*
X88342949Y-112546453D01*
X88348069Y-112545797D01*
X88348071Y-112545797D01*
X88417472Y-112536907D01*
X88571378Y-112517191D01*
X88576326Y-112515706D01*
X88576333Y-112515705D01*
X88787011Y-112452498D01*
X88787010Y-112452498D01*
X88791961Y-112451013D01*
X88998774Y-112349696D01*
X89186262Y-112215963D01*
X89349390Y-112053403D01*
X89407469Y-111972578D01*
X89480759Y-111870583D01*
X89483777Y-111866383D01*
X89585815Y-111659925D01*
X89616843Y-111557800D01*
X89651259Y-111444527D01*
X89651260Y-111444521D01*
X89652763Y-111439575D01*
X89658207Y-111398223D01*
X94693591Y-111398223D01*
X94694755Y-111407125D01*
X94694755Y-111407128D01*
X94698998Y-111439575D01*
X94712180Y-111540379D01*
X94719992Y-111558133D01*
X94764782Y-111659925D01*
X94769920Y-111671603D01*
X94775697Y-111678476D01*
X94775698Y-111678477D01*
X94782992Y-111687154D01*
X94862170Y-111781348D01*
X94981513Y-111860790D01*
X94990088Y-111863469D01*
X95006064Y-111868460D01*
X95118357Y-111903542D01*
X95127329Y-111903706D01*
X95127332Y-111903707D01*
X95192663Y-111904904D01*
X95261699Y-111906170D01*
X95270733Y-111903707D01*
X95391358Y-111870821D01*
X95391360Y-111870820D01*
X95400017Y-111868460D01*
X95522191Y-111793445D01*
X95618400Y-111687154D01*
X95680910Y-111558133D01*
X95704696Y-111416754D01*
X95704847Y-111404400D01*
X95695364Y-111338180D01*
X95685796Y-111271368D01*
X95685795Y-111271365D01*
X95684523Y-111262482D01*
X95679303Y-111251000D01*
X95655504Y-111198658D01*
X95625184Y-111131972D01*
X95600335Y-111103133D01*
X95537460Y-111030163D01*
X95537457Y-111030160D01*
X95531600Y-111023363D01*
X95411295Y-110945385D01*
X95273939Y-110904307D01*
X95264963Y-110904252D01*
X95264962Y-110904252D01*
X95204755Y-110903884D01*
X95130576Y-110903431D01*
X94992729Y-110942828D01*
X94871480Y-111019330D01*
X94776577Y-111126788D01*
X94715647Y-111256563D01*
X94693591Y-111398223D01*
X89658207Y-111398223D01*
X89666792Y-111333011D01*
X89682385Y-111214571D01*
X89682385Y-111214565D01*
X89682822Y-111211249D01*
X89684500Y-111142600D01*
X89665630Y-110913078D01*
X89609526Y-110689720D01*
X89517696Y-110478524D01*
X89392605Y-110285163D01*
X89371974Y-110262489D01*
X89241090Y-110118651D01*
X89241089Y-110118650D01*
X89237612Y-110114829D01*
X89233561Y-110111630D01*
X89233557Y-110111626D01*
X89060935Y-109975297D01*
X89060930Y-109975293D01*
X89056881Y-109972096D01*
X89052365Y-109969603D01*
X89052362Y-109969601D01*
X88859789Y-109863295D01*
X88859785Y-109863293D01*
X88855265Y-109860798D01*
X88850396Y-109859074D01*
X88850392Y-109859072D01*
X88643053Y-109785649D01*
X88643049Y-109785648D01*
X88638178Y-109783923D01*
X88633085Y-109783016D01*
X88633082Y-109783015D01*
X88536907Y-109765884D01*
X88411450Y-109743537D01*
X88325002Y-109742481D01*
X88186341Y-109740786D01*
X88186339Y-109740786D01*
X88181171Y-109740723D01*
X87953525Y-109775558D01*
X87734624Y-109847106D01*
X87530349Y-109953445D01*
X87346184Y-110091719D01*
X87187077Y-110258216D01*
X87057299Y-110448463D01*
X87055123Y-110453152D01*
X87055119Y-110453158D01*
X87043345Y-110478524D01*
X86960336Y-110657352D01*
X86898792Y-110879273D01*
X86898243Y-110884410D01*
X86883105Y-111026059D01*
X86874319Y-111108265D01*
X83820000Y-111108265D01*
X83820000Y-109671023D01*
X94693591Y-109671023D01*
X94694755Y-109679925D01*
X94694755Y-109679928D01*
X94696014Y-109689554D01*
X94712180Y-109813179D01*
X94727108Y-109847106D01*
X94762387Y-109927282D01*
X94769920Y-109944403D01*
X94775697Y-109951276D01*
X94775698Y-109951277D01*
X94780130Y-109956549D01*
X94862170Y-110054148D01*
X94869647Y-110059125D01*
X94959071Y-110118651D01*
X94981513Y-110133590D01*
X95118357Y-110176342D01*
X95127329Y-110176506D01*
X95127332Y-110176507D01*
X95192663Y-110177704D01*
X95261699Y-110178970D01*
X95270733Y-110176507D01*
X95391358Y-110143621D01*
X95391360Y-110143620D01*
X95400017Y-110141260D01*
X95522191Y-110066245D01*
X95618400Y-109959954D01*
X95680910Y-109830933D01*
X95704696Y-109689554D01*
X95704847Y-109677200D01*
X95684523Y-109535282D01*
X95625184Y-109404772D01*
X95606798Y-109383434D01*
X95537460Y-109302963D01*
X95537457Y-109302960D01*
X95531600Y-109296163D01*
X95411295Y-109218185D01*
X95273939Y-109177107D01*
X95264963Y-109177052D01*
X95264962Y-109177052D01*
X95204755Y-109176684D01*
X95130576Y-109176231D01*
X94992729Y-109215628D01*
X94871480Y-109292130D01*
X94776577Y-109399588D01*
X94715647Y-109529363D01*
X94714266Y-109538235D01*
X94700844Y-109624441D01*
X94693591Y-109671023D01*
X83820000Y-109671023D01*
X83820000Y-107608265D01*
X86874319Y-107608265D01*
X86874616Y-107613417D01*
X86874616Y-107613421D01*
X86880064Y-107707896D01*
X86887576Y-107838180D01*
X86888713Y-107843226D01*
X86888714Y-107843232D01*
X86910426Y-107939575D01*
X86938206Y-108062842D01*
X86940148Y-108067624D01*
X86940149Y-108067628D01*
X86977627Y-108159925D01*
X87024849Y-108276218D01*
X87145179Y-108472578D01*
X87295963Y-108646648D01*
X87473153Y-108793754D01*
X87671990Y-108909945D01*
X87887134Y-108992101D01*
X87892200Y-108993132D01*
X87892201Y-108993132D01*
X87992897Y-109013618D01*
X88112807Y-109038014D01*
X88242552Y-109042772D01*
X88337785Y-109046264D01*
X88337789Y-109046264D01*
X88342949Y-109046453D01*
X88348069Y-109045797D01*
X88348071Y-109045797D01*
X88417472Y-109036907D01*
X88571378Y-109017191D01*
X88576326Y-109015706D01*
X88576333Y-109015705D01*
X88787011Y-108952498D01*
X88787010Y-108952498D01*
X88791961Y-108951013D01*
X88998774Y-108849696D01*
X89186262Y-108715963D01*
X89349390Y-108553403D01*
X89407469Y-108472578D01*
X89480759Y-108370583D01*
X89483777Y-108366383D01*
X89585815Y-108159925D01*
X89616843Y-108057800D01*
X89651259Y-107944527D01*
X89651260Y-107944521D01*
X89652763Y-107939575D01*
X89682822Y-107711249D01*
X89684500Y-107642600D01*
X89665630Y-107413078D01*
X89609526Y-107189720D01*
X89553960Y-107061925D01*
X89519756Y-106983261D01*
X89519754Y-106983258D01*
X89517696Y-106978524D01*
X89429254Y-106841814D01*
X89395415Y-106789506D01*
X89395413Y-106789503D01*
X89392605Y-106785163D01*
X89371974Y-106762489D01*
X89291293Y-106673823D01*
X96852591Y-106673823D01*
X96853755Y-106682725D01*
X96853755Y-106682728D01*
X96855014Y-106692354D01*
X96871180Y-106815979D01*
X96928920Y-106947203D01*
X96934697Y-106954076D01*
X96934698Y-106954077D01*
X96955248Y-106978524D01*
X97021170Y-107056948D01*
X97140513Y-107136390D01*
X97277357Y-107179142D01*
X97286329Y-107179306D01*
X97286332Y-107179307D01*
X97351663Y-107180504D01*
X97420699Y-107181770D01*
X97429733Y-107179307D01*
X97550358Y-107146421D01*
X97550360Y-107146420D01*
X97559017Y-107144060D01*
X97681191Y-107069045D01*
X97777400Y-106962754D01*
X97839910Y-106833733D01*
X97863696Y-106692354D01*
X97863847Y-106680000D01*
X97851740Y-106595459D01*
X97844796Y-106546968D01*
X97844795Y-106546965D01*
X97843523Y-106538082D01*
X97784184Y-106407572D01*
X97742394Y-106359072D01*
X97696460Y-106305763D01*
X97696457Y-106305760D01*
X97690600Y-106298963D01*
X97570295Y-106220985D01*
X97432939Y-106179907D01*
X97423963Y-106179852D01*
X97423962Y-106179852D01*
X97363755Y-106179484D01*
X97289576Y-106179031D01*
X97151729Y-106218428D01*
X97030480Y-106294930D01*
X96935577Y-106402388D01*
X96874647Y-106532163D01*
X96852591Y-106673823D01*
X89291293Y-106673823D01*
X89241090Y-106618651D01*
X89241089Y-106618650D01*
X89237612Y-106614829D01*
X89233561Y-106611630D01*
X89233557Y-106611626D01*
X89060935Y-106475297D01*
X89060930Y-106475293D01*
X89056881Y-106472096D01*
X89052365Y-106469603D01*
X89052362Y-106469601D01*
X88859789Y-106363295D01*
X88859785Y-106363293D01*
X88855265Y-106360798D01*
X88850396Y-106359074D01*
X88850392Y-106359072D01*
X88643053Y-106285649D01*
X88643049Y-106285648D01*
X88638178Y-106283923D01*
X88633085Y-106283016D01*
X88633082Y-106283015D01*
X88536907Y-106265884D01*
X88411450Y-106243537D01*
X88325002Y-106242481D01*
X88186341Y-106240786D01*
X88186339Y-106240786D01*
X88181171Y-106240723D01*
X87953525Y-106275558D01*
X87734624Y-106347106D01*
X87530349Y-106453445D01*
X87346184Y-106591719D01*
X87187077Y-106758216D01*
X87057299Y-106948463D01*
X87055123Y-106953152D01*
X87055119Y-106953158D01*
X86966506Y-107144060D01*
X86960336Y-107157352D01*
X86898792Y-107379273D01*
X86874319Y-107608265D01*
X83820000Y-107608265D01*
X83820000Y-104108265D01*
X86874319Y-104108265D01*
X86874616Y-104113417D01*
X86874616Y-104113421D01*
X86880064Y-104207896D01*
X86887576Y-104338180D01*
X86888713Y-104343226D01*
X86888714Y-104343232D01*
X86910426Y-104439575D01*
X86938206Y-104562842D01*
X86940148Y-104567624D01*
X86940149Y-104567628D01*
X86977627Y-104659925D01*
X87024849Y-104776218D01*
X87145179Y-104972578D01*
X87295963Y-105146648D01*
X87473153Y-105293754D01*
X87671990Y-105409945D01*
X87887134Y-105492101D01*
X87892200Y-105493132D01*
X87892201Y-105493132D01*
X87992897Y-105513618D01*
X88112807Y-105538014D01*
X88242552Y-105542772D01*
X88337785Y-105546264D01*
X88337789Y-105546264D01*
X88342949Y-105546453D01*
X88348069Y-105545797D01*
X88348071Y-105545797D01*
X88417472Y-105536907D01*
X88571378Y-105517191D01*
X88576326Y-105515706D01*
X88576333Y-105515705D01*
X88787011Y-105452498D01*
X88787010Y-105452498D01*
X88791961Y-105451013D01*
X88998774Y-105349696D01*
X89186262Y-105215963D01*
X89349390Y-105053403D01*
X89407469Y-104972578D01*
X89480759Y-104870583D01*
X89483777Y-104866383D01*
X89585815Y-104659925D01*
X89616843Y-104557800D01*
X89651259Y-104444527D01*
X89651260Y-104444521D01*
X89652763Y-104439575D01*
X89682822Y-104211249D01*
X89684500Y-104142600D01*
X89665630Y-103913078D01*
X89609526Y-103689720D01*
X89517696Y-103478524D01*
X89392605Y-103285163D01*
X89371974Y-103262489D01*
X89241090Y-103118651D01*
X89241089Y-103118650D01*
X89237612Y-103114829D01*
X89233561Y-103111630D01*
X89233557Y-103111626D01*
X89060935Y-102975297D01*
X89060930Y-102975293D01*
X89056881Y-102972096D01*
X89052365Y-102969603D01*
X89052362Y-102969601D01*
X88859789Y-102863295D01*
X88859785Y-102863293D01*
X88855265Y-102860798D01*
X88850396Y-102859074D01*
X88850392Y-102859072D01*
X88643053Y-102785649D01*
X88643049Y-102785648D01*
X88638178Y-102783923D01*
X88633085Y-102783016D01*
X88633082Y-102783015D01*
X88536907Y-102765884D01*
X88411450Y-102743537D01*
X88325002Y-102742481D01*
X88186341Y-102740786D01*
X88186339Y-102740786D01*
X88181171Y-102740723D01*
X87953525Y-102775558D01*
X87734624Y-102847106D01*
X87530349Y-102953445D01*
X87346184Y-103091719D01*
X87187077Y-103258216D01*
X87057299Y-103448463D01*
X87055123Y-103453152D01*
X87055119Y-103453158D01*
X87043345Y-103478524D01*
X86960336Y-103657352D01*
X86898792Y-103879273D01*
X86874319Y-104108265D01*
X83820000Y-104108265D01*
X83820000Y-102127223D01*
X94693591Y-102127223D01*
X94694755Y-102136125D01*
X94694755Y-102136128D01*
X94699029Y-102168807D01*
X94712180Y-102269379D01*
X94715797Y-102277599D01*
X94763249Y-102385441D01*
X94769920Y-102400603D01*
X94775697Y-102407476D01*
X94775698Y-102407477D01*
X94782992Y-102416154D01*
X94862170Y-102510348D01*
X94981513Y-102589790D01*
X95118357Y-102632542D01*
X95127329Y-102632706D01*
X95127332Y-102632707D01*
X95192663Y-102633904D01*
X95261699Y-102635170D01*
X95270733Y-102632707D01*
X95391358Y-102599821D01*
X95391360Y-102599820D01*
X95400017Y-102597460D01*
X95522191Y-102522445D01*
X95618400Y-102416154D01*
X95680910Y-102287133D01*
X95704696Y-102145754D01*
X95704847Y-102133400D01*
X95696673Y-102076324D01*
X95685796Y-102000368D01*
X95685795Y-102000365D01*
X95684523Y-101991482D01*
X95630754Y-101873223D01*
X100052991Y-101873223D01*
X100054155Y-101882125D01*
X100054155Y-101882128D01*
X100055414Y-101891754D01*
X100071580Y-102015379D01*
X100081540Y-102038014D01*
X100125649Y-102138259D01*
X100129320Y-102146603D01*
X100135097Y-102153476D01*
X100135098Y-102153477D01*
X100142392Y-102162154D01*
X100221570Y-102256348D01*
X100340913Y-102335790D01*
X100477757Y-102378542D01*
X100486729Y-102378706D01*
X100486732Y-102378707D01*
X100552063Y-102379904D01*
X100621099Y-102381170D01*
X100630133Y-102378707D01*
X100750758Y-102345821D01*
X100750760Y-102345820D01*
X100759417Y-102343460D01*
X100881591Y-102268445D01*
X100977800Y-102162154D01*
X101012689Y-102090143D01*
X101036395Y-102041214D01*
X101036395Y-102041213D01*
X101040310Y-102033133D01*
X101064096Y-101891754D01*
X101064247Y-101879400D01*
X101056073Y-101822324D01*
X101045196Y-101746368D01*
X101045195Y-101746365D01*
X101043923Y-101737482D01*
X100984584Y-101606972D01*
X100938426Y-101553403D01*
X100896860Y-101505163D01*
X100896857Y-101505160D01*
X100891000Y-101498363D01*
X100770695Y-101420385D01*
X100633339Y-101379307D01*
X100624363Y-101379252D01*
X100624362Y-101379252D01*
X100564155Y-101378884D01*
X100489976Y-101378431D01*
X100352129Y-101417828D01*
X100230880Y-101494330D01*
X100135977Y-101601788D01*
X100075047Y-101731563D01*
X100071809Y-101752363D01*
X100055706Y-101855788D01*
X100052991Y-101873223D01*
X95630754Y-101873223D01*
X95625184Y-101860972D01*
X95567265Y-101793754D01*
X95537460Y-101759163D01*
X95537457Y-101759160D01*
X95531600Y-101752363D01*
X95411295Y-101674385D01*
X95273939Y-101633307D01*
X95264963Y-101633252D01*
X95264962Y-101633252D01*
X95204755Y-101632884D01*
X95130576Y-101632431D01*
X94992729Y-101671828D01*
X94871480Y-101748330D01*
X94776577Y-101855788D01*
X94715647Y-101985563D01*
X94709725Y-102023599D01*
X94700539Y-102082600D01*
X94693591Y-102127223D01*
X83820000Y-102127223D01*
X83820000Y-100608265D01*
X86874319Y-100608265D01*
X86874616Y-100613417D01*
X86874616Y-100613421D01*
X86880064Y-100707896D01*
X86887576Y-100838180D01*
X86888713Y-100843226D01*
X86888714Y-100843232D01*
X86910426Y-100939575D01*
X86938206Y-101062842D01*
X86940148Y-101067624D01*
X86940149Y-101067628D01*
X86977627Y-101159925D01*
X87024849Y-101276218D01*
X87145179Y-101472578D01*
X87295963Y-101646648D01*
X87473153Y-101793754D01*
X87671990Y-101909945D01*
X87887134Y-101992101D01*
X87892200Y-101993132D01*
X87892201Y-101993132D01*
X87992897Y-102013618D01*
X88112807Y-102038014D01*
X88242552Y-102042772D01*
X88337785Y-102046264D01*
X88337789Y-102046264D01*
X88342949Y-102046453D01*
X88348069Y-102045797D01*
X88348071Y-102045797D01*
X88446929Y-102033133D01*
X88571378Y-102017191D01*
X88576326Y-102015706D01*
X88576333Y-102015705D01*
X88787011Y-101952498D01*
X88787010Y-101952498D01*
X88791961Y-101951013D01*
X88998774Y-101849696D01*
X89186262Y-101715963D01*
X89349390Y-101553403D01*
X89407469Y-101472578D01*
X89480759Y-101370583D01*
X89483777Y-101366383D01*
X89585815Y-101159925D01*
X89616843Y-101057800D01*
X89651259Y-100944527D01*
X89651260Y-100944521D01*
X89652763Y-100939575D01*
X89682822Y-100711249D01*
X89684500Y-100642600D01*
X89665630Y-100413078D01*
X89609526Y-100189720D01*
X89525185Y-99995748D01*
X89519756Y-99983261D01*
X89519754Y-99983258D01*
X89517696Y-99978524D01*
X89392605Y-99785163D01*
X89372438Y-99762999D01*
X89241090Y-99618651D01*
X89241089Y-99618650D01*
X89237612Y-99614829D01*
X89234818Y-99612623D01*
X99646591Y-99612623D01*
X99647755Y-99621525D01*
X99647755Y-99621528D01*
X99649014Y-99631154D01*
X99665180Y-99754779D01*
X99722920Y-99886003D01*
X99728697Y-99892876D01*
X99728698Y-99892877D01*
X99809390Y-99988872D01*
X99815170Y-99995748D01*
X99934513Y-100075190D01*
X100071357Y-100117942D01*
X100080329Y-100118106D01*
X100080332Y-100118107D01*
X100145663Y-100119304D01*
X100214699Y-100120570D01*
X100223733Y-100118107D01*
X100344358Y-100085221D01*
X100344360Y-100085220D01*
X100353017Y-100082860D01*
X100475191Y-100007845D01*
X100571400Y-99901554D01*
X100627791Y-99785163D01*
X100629995Y-99780614D01*
X100629995Y-99780613D01*
X100633910Y-99772533D01*
X100657696Y-99631154D01*
X100657847Y-99618800D01*
X100637523Y-99476882D01*
X100578184Y-99346372D01*
X100529603Y-99289991D01*
X100490460Y-99244563D01*
X100490457Y-99244560D01*
X100484600Y-99237763D01*
X100364295Y-99159785D01*
X100226939Y-99118707D01*
X100217963Y-99118652D01*
X100217962Y-99118652D01*
X100157755Y-99118284D01*
X100083576Y-99117831D01*
X99945729Y-99157228D01*
X99824480Y-99233730D01*
X99818538Y-99240458D01*
X99818537Y-99240459D01*
X99815874Y-99243474D01*
X99729577Y-99341188D01*
X99668647Y-99470963D01*
X99667266Y-99479835D01*
X99649846Y-99591719D01*
X99646591Y-99612623D01*
X89234818Y-99612623D01*
X89233561Y-99611630D01*
X89233557Y-99611626D01*
X89060935Y-99475297D01*
X89060930Y-99475293D01*
X89056881Y-99472096D01*
X89052365Y-99469603D01*
X89052362Y-99469601D01*
X88859789Y-99363295D01*
X88859785Y-99363293D01*
X88855265Y-99360798D01*
X88850396Y-99359074D01*
X88850392Y-99359072D01*
X88643053Y-99285649D01*
X88643049Y-99285648D01*
X88638178Y-99283923D01*
X88633085Y-99283016D01*
X88633082Y-99283015D01*
X88536907Y-99265884D01*
X88411450Y-99243537D01*
X88325002Y-99242481D01*
X88186341Y-99240786D01*
X88186339Y-99240786D01*
X88181171Y-99240723D01*
X87953525Y-99275558D01*
X87734624Y-99347106D01*
X87730032Y-99349496D01*
X87730033Y-99349496D01*
X87619554Y-99407008D01*
X87530349Y-99453445D01*
X87346184Y-99591719D01*
X87187077Y-99758216D01*
X87184163Y-99762488D01*
X87184162Y-99762489D01*
X87168695Y-99785163D01*
X87057299Y-99948463D01*
X87055123Y-99953152D01*
X87055119Y-99953158D01*
X86962515Y-100152657D01*
X86960336Y-100157352D01*
X86898792Y-100379273D01*
X86874319Y-100608265D01*
X83820000Y-100608265D01*
X83820000Y-98901423D01*
X96827191Y-98901423D01*
X96828355Y-98910325D01*
X96828355Y-98910328D01*
X96829614Y-98919954D01*
X96845780Y-99043579D01*
X96903520Y-99174803D01*
X96909297Y-99181676D01*
X96909298Y-99181677D01*
X96961244Y-99243474D01*
X96995770Y-99284548D01*
X97003247Y-99289525D01*
X97100926Y-99354546D01*
X97115113Y-99363990D01*
X97251957Y-99406742D01*
X97260929Y-99406906D01*
X97260932Y-99406907D01*
X97326263Y-99408104D01*
X97395299Y-99409370D01*
X97404333Y-99406907D01*
X97524958Y-99374021D01*
X97524960Y-99374020D01*
X97533617Y-99371660D01*
X97655791Y-99296645D01*
X97752000Y-99190354D01*
X97814510Y-99061333D01*
X97838296Y-98919954D01*
X97838447Y-98907600D01*
X97818123Y-98765682D01*
X97758784Y-98635172D01*
X97740398Y-98613834D01*
X97671060Y-98533363D01*
X97671057Y-98533360D01*
X97665200Y-98526563D01*
X97544895Y-98448585D01*
X97407539Y-98407507D01*
X97398563Y-98407452D01*
X97398562Y-98407452D01*
X97338355Y-98407084D01*
X97264176Y-98406631D01*
X97126329Y-98446028D01*
X97005080Y-98522530D01*
X96910177Y-98629988D01*
X96849247Y-98759763D01*
X96827191Y-98901423D01*
X83820000Y-98901423D01*
X83820000Y-95376000D01*
X83840002Y-95307879D01*
X83893658Y-95261386D01*
X83946000Y-95250000D01*
X101855000Y-95250000D01*
X101923121Y-95270002D01*
G37*
G04 #@! TD.AperFunction*
M02*
