G04 #@! TF.GenerationSoftware,KiCad,Pcbnew,(6.0.5)*
G04 #@! TF.CreationDate,2023-02-15T17:46:13-07:00*
G04 #@! TF.ProjectId,EVCU,45564355-2e6b-4696-9361-645f70636258,rev?*
G04 #@! TF.SameCoordinates,Original*
G04 #@! TF.FileFunction,Copper,L4,Bot*
G04 #@! TF.FilePolarity,Positive*
%FSLAX46Y46*%
G04 Gerber Fmt 4.6, Leading zero omitted, Abs format (unit mm)*
G04 Created by KiCad (PCBNEW (6.0.5)) date 2023-02-15 17:46:13*
%MOMM*%
%LPD*%
G01*
G04 APERTURE LIST*
G04 #@! TA.AperFunction,ComponentPad*
%ADD10C,3.800000*%
G04 #@! TD*
G04 #@! TA.AperFunction,ComponentPad*
%ADD11R,2.400000X2.400000*%
G04 #@! TD*
G04 #@! TA.AperFunction,ComponentPad*
%ADD12C,2.400000*%
G04 #@! TD*
G04 #@! TA.AperFunction,ComponentPad*
%ADD13C,2.235200*%
G04 #@! TD*
G04 #@! TA.AperFunction,ComponentPad*
%ADD14R,1.700000X1.700000*%
G04 #@! TD*
G04 #@! TA.AperFunction,ComponentPad*
%ADD15O,1.700000X1.700000*%
G04 #@! TD*
G04 #@! TA.AperFunction,ComponentPad*
%ADD16C,4.000000*%
G04 #@! TD*
G04 #@! TA.AperFunction,ComponentPad*
%ADD17R,1.600000X1.600000*%
G04 #@! TD*
G04 #@! TA.AperFunction,ComponentPad*
%ADD18C,1.600000*%
G04 #@! TD*
G04 #@! TA.AperFunction,ViaPad*
%ADD19C,0.800000*%
G04 #@! TD*
G04 #@! TA.AperFunction,ViaPad*
%ADD20C,0.600000*%
G04 #@! TD*
G04 #@! TA.AperFunction,Conductor*
%ADD21C,0.800000*%
G04 #@! TD*
G04 #@! TA.AperFunction,Conductor*
%ADD22C,0.300000*%
G04 #@! TD*
G04 #@! TA.AperFunction,Conductor*
%ADD23C,0.250000*%
G04 #@! TD*
G04 #@! TA.AperFunction,Conductor*
%ADD24C,0.200000*%
G04 #@! TD*
G04 APERTURE END LIST*
D10*
X83820000Y-45466000D03*
X159512000Y-45466000D03*
D11*
X150091200Y-121194600D03*
D12*
X153591200Y-121194600D03*
D13*
X138153808Y-123288256D03*
X138153808Y-119986256D03*
X124691808Y-123288256D03*
X124691808Y-119986256D03*
D14*
X144204531Y-58055200D03*
D15*
X141664531Y-58055200D03*
D14*
X139319000Y-74904600D03*
D15*
X139319000Y-77444600D03*
X139319000Y-79984600D03*
X139319000Y-82524600D03*
X139319000Y-85064600D03*
X139319000Y-87604600D03*
D10*
X159512000Y-127254000D03*
D11*
X88279200Y-97142600D03*
D12*
X88279200Y-100642600D03*
X88279200Y-104142600D03*
X88279200Y-107642600D03*
X88279200Y-111142600D03*
X88279200Y-114642600D03*
D16*
X152594869Y-78185200D03*
X152594869Y-53185200D03*
D17*
X151174869Y-71225200D03*
D18*
X151174869Y-68455200D03*
X151174869Y-65685200D03*
X151174869Y-62915200D03*
X151174869Y-60145200D03*
X154014869Y-69840200D03*
X154014869Y-67070200D03*
X154014869Y-64300200D03*
X154014869Y-61530200D03*
D10*
X83820000Y-127254000D03*
D19*
X98256400Y-82439200D03*
D20*
X119761000Y-91981500D03*
X136740431Y-70694200D03*
D19*
X115265200Y-103282600D03*
D20*
X101041200Y-78375200D03*
X131419600Y-79959200D03*
X124570800Y-99838200D03*
X104648000Y-72390000D03*
D19*
X125942400Y-45355200D03*
D20*
X121285000Y-94488000D03*
X120777000Y-66090800D03*
X121513600Y-58826400D03*
D19*
X115265200Y-102082600D03*
D20*
X104698800Y-76911200D03*
X122894400Y-58563200D03*
X124714000Y-92202000D03*
X114935000Y-93481200D03*
X125603000Y-65405000D03*
X118237000Y-66090800D03*
X130184200Y-87926700D03*
X109220000Y-65151000D03*
X138416831Y-58197400D03*
X128736400Y-68977200D03*
X108585000Y-90424000D03*
D19*
X127974400Y-45355200D03*
D20*
X102666800Y-82854800D03*
X127466400Y-85487200D03*
X135436531Y-70194700D03*
X126704400Y-59071200D03*
X125196600Y-97517200D03*
X108772000Y-87417600D03*
X130556000Y-77343000D03*
X115824000Y-63423800D03*
X105054400Y-88950800D03*
X118110000Y-91981500D03*
D19*
X115316000Y-114808000D03*
X114512400Y-87265200D03*
D20*
X121430700Y-114990148D03*
X108712000Y-77470000D03*
X137007600Y-80568800D03*
X144272000Y-66294000D03*
X119281608Y-112569456D03*
X97383600Y-99974400D03*
X111674800Y-109312600D03*
D19*
X130324931Y-65070100D03*
D20*
X104606400Y-79391200D03*
X129159000Y-66421000D03*
D19*
X124164400Y-87519200D03*
X141605000Y-69342000D03*
D20*
X95148400Y-102260400D03*
X133454808Y-115998456D03*
X101041200Y-80153200D03*
X109940400Y-69485200D03*
X112268000Y-92592200D03*
X116290400Y-69485200D03*
D19*
X141659531Y-62119200D03*
D20*
X117348000Y-63423800D03*
D19*
X117814400Y-52721200D03*
D20*
X112556400Y-109312600D03*
X119338400Y-87773200D03*
X123063000Y-92202000D03*
X119837200Y-58877200D03*
X103530400Y-88950800D03*
X106019600Y-82753200D03*
X95199200Y-109677200D03*
X120354400Y-69485200D03*
X102828400Y-81423200D03*
X121767600Y-98907600D03*
X107569000Y-65278000D03*
D19*
X134070400Y-44339200D03*
X145412700Y-123878100D03*
X121843800Y-112395000D03*
D20*
X120777000Y-64439800D03*
D19*
X117560400Y-44339200D03*
D20*
X120863208Y-112314456D03*
X113674200Y-63948000D03*
X125628400Y-99212400D03*
X108924400Y-83404400D03*
X105622400Y-69485200D03*
D19*
X134070400Y-52721200D03*
D20*
X97332800Y-114503200D03*
X127212400Y-80407200D03*
X95199200Y-111404400D03*
X132800400Y-86503200D03*
X108712000Y-91490800D03*
X118855800Y-95469400D03*
X104352400Y-75581200D03*
X97434400Y-106984800D03*
X112268000Y-91084400D03*
X124046600Y-97517200D03*
X126704400Y-69231200D03*
D19*
X122936000Y-112420400D03*
D20*
X118872000Y-97231200D03*
D19*
X98806000Y-113030000D03*
X117475000Y-113665000D03*
X117475000Y-112522000D03*
D20*
X122231200Y-109782600D03*
D19*
X116840000Y-111760000D03*
X98806000Y-98552000D03*
X132029200Y-112496600D03*
X98806000Y-105410000D03*
D20*
X127870000Y-113262400D03*
X124466400Y-114202200D03*
X109178400Y-81423200D03*
X109407000Y-85284000D03*
X104749600Y-90017600D03*
X132597200Y-70399600D03*
X135848400Y-76089200D03*
X125942400Y-76597200D03*
X133562400Y-79645200D03*
X100279200Y-114655600D03*
X100736400Y-101041200D03*
X108000800Y-101041200D03*
X99872800Y-99974400D03*
D19*
X147755531Y-64913200D03*
X148009531Y-68215200D03*
D20*
X145215531Y-64151200D03*
D19*
X140135531Y-65421200D03*
D20*
X122885200Y-98653600D03*
X123910400Y-90567200D03*
X128482400Y-95393200D03*
X125369200Y-88092400D03*
X124926400Y-96663200D03*
X125942400Y-93107200D03*
X131682800Y-73549200D03*
X122894400Y-60341200D03*
X127254000Y-64389000D03*
X127593400Y-73380213D03*
X130768400Y-68469200D03*
X130768400Y-73295200D03*
X124926400Y-66691200D03*
X123656400Y-61611200D03*
X123656400Y-64151200D03*
X125180400Y-63897200D03*
X123420900Y-62881200D03*
X124715900Y-62627200D03*
D21*
X132029200Y-112496600D02*
X129315200Y-109782600D01*
X129315200Y-109782600D02*
X122231200Y-109782600D01*
X125406200Y-113262400D02*
X124466400Y-114202200D01*
X127870000Y-113262400D02*
X125406200Y-113262400D01*
D22*
X137998200Y-87604600D02*
X131816800Y-81423200D01*
X139319000Y-87604600D02*
X137998200Y-87604600D01*
X131816800Y-81423200D02*
X109178400Y-81423200D01*
X104749600Y-90017600D02*
X104952800Y-90017600D01*
X109407000Y-85563400D02*
X109407000Y-85284000D01*
X104952800Y-90017600D02*
X109407000Y-85563400D01*
X134375200Y-70399600D02*
X135848400Y-71872800D01*
X135848400Y-71872800D02*
X135848400Y-76089200D01*
X132597200Y-70399600D02*
X134375200Y-70399600D01*
X126196400Y-78121200D02*
X125942400Y-77867200D01*
X125942400Y-77867200D02*
X125942400Y-76597200D01*
X133562400Y-79645200D02*
X132038400Y-78121200D01*
X132038400Y-78121200D02*
X126196400Y-78121200D01*
X100279200Y-101498400D02*
X100736400Y-101041200D01*
X100279200Y-114655600D02*
X100279200Y-101498400D01*
X108000800Y-101041200D02*
X106883200Y-99923600D01*
X106883200Y-99923600D02*
X99923600Y-99923600D01*
X99923600Y-99923600D02*
X99872800Y-99974400D01*
X143945531Y-65421200D02*
X140135531Y-65421200D01*
X148009531Y-65167200D02*
X147755531Y-64913200D01*
X145215531Y-64151200D02*
X143945531Y-65421200D01*
X148009531Y-68215200D02*
X148009531Y-65167200D01*
X122885200Y-98653600D02*
X122682000Y-98450400D01*
X122682000Y-98450400D02*
X122682000Y-94335600D01*
X122682000Y-94335600D02*
X123910400Y-93107200D01*
X123910400Y-93107200D02*
X123910400Y-90567200D01*
D23*
X127466400Y-87519200D02*
X125942400Y-87519200D01*
X128482400Y-95393200D02*
X128482400Y-88535200D01*
X125942400Y-87519200D02*
X125369200Y-88092400D01*
X128482400Y-88535200D02*
X127466400Y-87519200D01*
D22*
X124926400Y-96663200D02*
X124926400Y-94123200D01*
X124926400Y-94123200D02*
X125942400Y-93107200D01*
D24*
X131682800Y-67834200D02*
X127695000Y-63846400D01*
X131682800Y-73549200D02*
X131682800Y-67834200D01*
X127695000Y-63846400D02*
X124189800Y-60341200D01*
X124189800Y-60341200D02*
X122894400Y-60341200D01*
X127593400Y-73380213D02*
X127593400Y-64728400D01*
X127593400Y-64728400D02*
X127254000Y-64389000D01*
X130768400Y-68469200D02*
X130768400Y-73295200D01*
X122640400Y-64405200D02*
X122640400Y-62627200D01*
X124926400Y-66691200D02*
X122640400Y-64405200D01*
X122640400Y-62627200D02*
X123656400Y-61611200D01*
D23*
X125180400Y-63897200D02*
X123910400Y-63897200D01*
X123910400Y-63897200D02*
X123656400Y-64151200D01*
X123674900Y-62627200D02*
X123420900Y-62881200D01*
X124715900Y-62627200D02*
X123674900Y-62627200D01*
M02*
