G04 #@! TF.GenerationSoftware,KiCad,Pcbnew,(6.0.0-0)*
G04 #@! TF.CreationDate,2023-03-02T14:51:27-07:00*
G04 #@! TF.ProjectId,EVCU,45564355-2e6b-4696-9361-645f70636258,rev?*
G04 #@! TF.SameCoordinates,Original*
G04 #@! TF.FileFunction,Soldermask,Top*
G04 #@! TF.FilePolarity,Negative*
%FSLAX46Y46*%
G04 Gerber Fmt 4.6, Leading zero omitted, Abs format (unit mm)*
G04 Created by KiCad (PCBNEW (6.0.0-0)) date 2023-03-02 14:51:27*
%MOMM*%
%LPD*%
G01*
G04 APERTURE LIST*
G04 Aperture macros list*
%AMRoundRect*
0 Rectangle with rounded corners*
0 $1 Rounding radius*
0 $2 $3 $4 $5 $6 $7 $8 $9 X,Y pos of 4 corners*
0 Add a 4 corners polygon primitive as box body*
4,1,4,$2,$3,$4,$5,$6,$7,$8,$9,$2,$3,0*
0 Add four circle primitives for the rounded corners*
1,1,$1+$1,$2,$3*
1,1,$1+$1,$4,$5*
1,1,$1+$1,$6,$7*
1,1,$1+$1,$8,$9*
0 Add four rect primitives between the rounded corners*
20,1,$1+$1,$2,$3,$4,$5,0*
20,1,$1+$1,$4,$5,$6,$7,0*
20,1,$1+$1,$6,$7,$8,$9,0*
20,1,$1+$1,$8,$9,$2,$3,0*%
%AMFreePoly0*
4,1,14,0.266715,0.088284,0.363284,-0.008285,0.375000,-0.036569,0.375000,-0.060000,0.363284,-0.088284,0.335000,-0.100000,-0.335000,-0.100000,-0.363284,-0.088284,-0.375000,-0.060000,-0.375000,0.060000,-0.363284,0.088284,-0.335000,0.100000,0.238431,0.100000,0.266715,0.088284,0.266715,0.088284,$1*%
%AMFreePoly1*
4,1,14,0.363284,0.088284,0.375000,0.060000,0.375000,0.036569,0.363284,0.008285,0.266715,-0.088284,0.238431,-0.100000,-0.335000,-0.100000,-0.363284,-0.088284,-0.375000,-0.060000,-0.375000,0.060000,-0.363284,0.088284,-0.335000,0.100000,0.335000,0.100000,0.363284,0.088284,0.363284,0.088284,$1*%
%AMFreePoly2*
4,1,14,0.088284,0.363284,0.100000,0.335000,0.100000,-0.335000,0.088284,-0.363284,0.060000,-0.375000,-0.060000,-0.375000,-0.088284,-0.363284,-0.100000,-0.335000,-0.100000,0.238431,-0.088284,0.266715,0.008285,0.363284,0.036569,0.375000,0.060000,0.375000,0.088284,0.363284,0.088284,0.363284,$1*%
%AMFreePoly3*
4,1,14,-0.008285,0.363284,0.088284,0.266715,0.100000,0.238431,0.100000,-0.335000,0.088284,-0.363284,0.060000,-0.375000,-0.060000,-0.375000,-0.088284,-0.363284,-0.100000,-0.335000,-0.100000,0.335000,-0.088284,0.363284,-0.060000,0.375000,-0.036569,0.375000,-0.008285,0.363284,-0.008285,0.363284,$1*%
%AMFreePoly4*
4,1,14,0.363284,0.088284,0.375000,0.060000,0.375000,-0.060000,0.363284,-0.088284,0.335000,-0.100000,-0.238431,-0.100000,-0.266715,-0.088284,-0.363284,0.008285,-0.375000,0.036569,-0.375000,0.060000,-0.363284,0.088284,-0.335000,0.100000,0.335000,0.100000,0.363284,0.088284,0.363284,0.088284,$1*%
%AMFreePoly5*
4,1,14,0.363284,0.088284,0.375000,0.060000,0.375000,-0.060000,0.363284,-0.088284,0.335000,-0.100000,-0.335000,-0.100000,-0.363284,-0.088284,-0.375000,-0.060000,-0.375000,-0.036569,-0.363284,-0.008285,-0.266715,0.088284,-0.238431,0.100000,0.335000,0.100000,0.363284,0.088284,0.363284,0.088284,$1*%
%AMFreePoly6*
4,1,14,0.088284,0.363284,0.100000,0.335000,0.100000,-0.238431,0.088284,-0.266715,-0.008285,-0.363284,-0.036569,-0.375000,-0.060000,-0.375000,-0.088284,-0.363284,-0.100000,-0.335000,-0.100000,0.335000,-0.088284,0.363284,-0.060000,0.375000,0.060000,0.375000,0.088284,0.363284,0.088284,0.363284,$1*%
%AMFreePoly7*
4,1,14,0.088284,0.363284,0.100000,0.335000,0.100000,-0.335000,0.088284,-0.363284,0.060000,-0.375000,0.036569,-0.375000,0.008285,-0.363284,-0.088284,-0.266715,-0.100000,-0.238431,-0.100000,0.335000,-0.088284,0.363284,-0.060000,0.375000,0.060000,0.375000,0.088284,0.363284,0.088284,0.363284,$1*%
%AMFreePoly8*
4,1,9,5.362500,-0.866500,1.237500,-0.866500,1.237500,-0.450000,-1.237500,-0.450000,-1.237500,0.450000,1.237500,0.450000,1.237500,0.866500,5.362500,0.866500,5.362500,-0.866500,5.362500,-0.866500,$1*%
G04 Aperture macros list end*
%ADD10R,1.500000X1.500000*%
%ADD11RoundRect,0.237500X0.237500X-0.300000X0.237500X0.300000X-0.237500X0.300000X-0.237500X-0.300000X0*%
%ADD12R,0.400000X1.500000*%
%ADD13R,1.500000X1.000000*%
%ADD14FreePoly0,270.000000*%
%ADD15RoundRect,0.050000X-0.050000X0.325000X-0.050000X-0.325000X0.050000X-0.325000X0.050000X0.325000X0*%
%ADD16FreePoly1,270.000000*%
%ADD17FreePoly2,270.000000*%
%ADD18RoundRect,0.050000X-0.325000X0.050000X-0.325000X-0.050000X0.325000X-0.050000X0.325000X0.050000X0*%
%ADD19FreePoly3,270.000000*%
%ADD20FreePoly4,270.000000*%
%ADD21FreePoly5,270.000000*%
%ADD22FreePoly6,270.000000*%
%ADD23FreePoly7,270.000000*%
%ADD24RoundRect,0.250001X0.462499X0.849999X-0.462499X0.849999X-0.462499X-0.849999X0.462499X-0.849999X0*%
%ADD25RoundRect,0.237500X0.300000X0.237500X-0.300000X0.237500X-0.300000X-0.237500X0.300000X-0.237500X0*%
%ADD26R,0.900000X2.300000*%
%ADD27FreePoly8,90.000000*%
%ADD28C,3.800000*%
%ADD29RoundRect,0.237500X-0.237500X0.300000X-0.237500X-0.300000X0.237500X-0.300000X0.237500X0.300000X0*%
%ADD30RoundRect,0.250001X-0.462499X-1.074999X0.462499X-1.074999X0.462499X1.074999X-0.462499X1.074999X0*%
%ADD31RoundRect,0.250000X-0.450000X0.350000X-0.450000X-0.350000X0.450000X-0.350000X0.450000X0.350000X0*%
%ADD32R,1.500000X0.400000*%
%ADD33RoundRect,0.250000X0.350000X0.450000X-0.350000X0.450000X-0.350000X-0.450000X0.350000X-0.450000X0*%
%ADD34RoundRect,0.250000X0.412500X0.650000X-0.412500X0.650000X-0.412500X-0.650000X0.412500X-0.650000X0*%
%ADD35R,2.000000X0.650000*%
%ADD36RoundRect,0.250000X-0.350000X-0.450000X0.350000X-0.450000X0.350000X0.450000X-0.350000X0.450000X0*%
%ADD37R,2.400000X2.400000*%
%ADD38C,2.400000*%
%ADD39C,2.235200*%
%ADD40RoundRect,0.075000X-0.662500X-0.075000X0.662500X-0.075000X0.662500X0.075000X-0.662500X0.075000X0*%
%ADD41RoundRect,0.075000X-0.075000X-0.662500X0.075000X-0.662500X0.075000X0.662500X-0.075000X0.662500X0*%
%ADD42RoundRect,0.237500X-0.300000X-0.237500X0.300000X-0.237500X0.300000X0.237500X-0.300000X0.237500X0*%
%ADD43R,1.700000X1.700000*%
%ADD44O,1.700000X1.700000*%
%ADD45RoundRect,0.150000X0.587500X0.150000X-0.587500X0.150000X-0.587500X-0.150000X0.587500X-0.150000X0*%
%ADD46R,2.300000X3.500000*%
%ADD47RoundRect,0.150000X0.150000X-0.825000X0.150000X0.825000X-0.150000X0.825000X-0.150000X-0.825000X0*%
%ADD48R,0.800000X1.500000*%
%ADD49R,1.450000X2.000000*%
%ADD50RoundRect,0.250000X0.450000X-0.350000X0.450000X0.350000X-0.450000X0.350000X-0.450000X-0.350000X0*%
%ADD51C,4.000000*%
%ADD52R,1.600000X1.600000*%
%ADD53C,1.600000*%
%ADD54RoundRect,0.200000X0.250000X-0.200000X0.250000X0.200000X-0.250000X0.200000X-0.250000X-0.200000X0*%
%ADD55R,0.800000X0.900000*%
%ADD56R,0.200000X0.450000*%
%ADD57R,2.800000X0.300000*%
G04 APERTURE END LIST*
D10*
X136579531Y-57293200D03*
X135055531Y-60341200D03*
D11*
X130105200Y-111915100D03*
X130105200Y-110190100D03*
D12*
X135955800Y-77867200D03*
X135305800Y-77867200D03*
X134655800Y-77867200D03*
X134655800Y-80527200D03*
X135955800Y-80527200D03*
D13*
X104292400Y-91003600D03*
X104292400Y-92303600D03*
X104292400Y-93603600D03*
D11*
X119846400Y-66080500D03*
X119846400Y-64355500D03*
D14*
X125621600Y-95417200D03*
D15*
X125221600Y-95417200D03*
X124821600Y-95417200D03*
X124421600Y-95417200D03*
X124021600Y-95417200D03*
D16*
X123621600Y-95417200D03*
D17*
X123121600Y-95917200D03*
D18*
X123121600Y-96317200D03*
X123121600Y-96717200D03*
X123121600Y-97117200D03*
X123121600Y-97517200D03*
D19*
X123121600Y-97917200D03*
D20*
X123621600Y-98417200D03*
D15*
X124021600Y-98417200D03*
X124421600Y-98417200D03*
X124821600Y-98417200D03*
X125221600Y-98417200D03*
D21*
X125621600Y-98417200D03*
D22*
X126121600Y-97917200D03*
D18*
X126121600Y-97517200D03*
X126121600Y-97117200D03*
X126121600Y-96717200D03*
X126121600Y-96317200D03*
D23*
X126121600Y-95917200D03*
D24*
X126695700Y-110036600D03*
X124370700Y-110036600D03*
D25*
X123502900Y-99838200D03*
X121777900Y-99838200D03*
D26*
X113765200Y-109312600D03*
D27*
X115265200Y-109225100D03*
D26*
X116765200Y-109312600D03*
D10*
X109820200Y-112979200D03*
D28*
X83820000Y-45466000D03*
D29*
X115243008Y-111910156D03*
X115243008Y-113635156D03*
D28*
X159512000Y-45466000D03*
D30*
X98292900Y-84725200D03*
X101267900Y-84725200D03*
D11*
X130556000Y-79983500D03*
X130556000Y-78258500D03*
D25*
X109278900Y-66183200D03*
X107553900Y-66183200D03*
D31*
X94081600Y-107661200D03*
X94081600Y-109661200D03*
D32*
X96155200Y-99273600D03*
X96155200Y-99923600D03*
X96155200Y-100573600D03*
X98815200Y-100573600D03*
X98815200Y-99273600D03*
D11*
X117306400Y-66080500D03*
X117306400Y-64355500D03*
D33*
X132121200Y-114117856D03*
X130121200Y-114117856D03*
D13*
X102479600Y-101316000D03*
X102479600Y-102616000D03*
X102479600Y-103916000D03*
D34*
X124555700Y-116386600D03*
X121430700Y-116386600D03*
D31*
X94081600Y-103902000D03*
X94081600Y-105902000D03*
D33*
X132321731Y-63414600D03*
X130321731Y-63414600D03*
D35*
X124409200Y-112308600D03*
X124409200Y-113258600D03*
X124409200Y-114208600D03*
X127829200Y-114208600D03*
X127829200Y-113258600D03*
X127829200Y-112308600D03*
D31*
X94081600Y-96282000D03*
X94081600Y-98282000D03*
D25*
X124772900Y-91329200D03*
X123047900Y-91329200D03*
D10*
X104292400Y-96053400D03*
D36*
X139846731Y-63465400D03*
X141846731Y-63465400D03*
D32*
X96155200Y-106284000D03*
X96155200Y-106934000D03*
X96155200Y-107584000D03*
X98815200Y-107584000D03*
X98815200Y-106284000D03*
D25*
X114892300Y-91100600D03*
X113167300Y-91100600D03*
D13*
X106086400Y-110358400D03*
X106086400Y-111658400D03*
X106086400Y-112958400D03*
D37*
X150091200Y-121194600D03*
D38*
X153591200Y-121194600D03*
D10*
X114757200Y-117094000D03*
D25*
X114892300Y-92633800D03*
X113167300Y-92633800D03*
X119819900Y-91108700D03*
X118094900Y-91108700D03*
D39*
X138153808Y-123288256D03*
X138153808Y-119986256D03*
X124691808Y-123288256D03*
X124691808Y-119986256D03*
D40*
X107456700Y-69904600D03*
X107456700Y-70404600D03*
X107456700Y-70904600D03*
X107456700Y-71404600D03*
X107456700Y-71904600D03*
X107456700Y-72404600D03*
X107456700Y-72904600D03*
X107456700Y-73404600D03*
X107456700Y-73904600D03*
X107456700Y-74404600D03*
X107456700Y-74904600D03*
X107456700Y-75404600D03*
X107456700Y-75904600D03*
X107456700Y-76404600D03*
X107456700Y-76904600D03*
X107456700Y-77404600D03*
X107456700Y-77904600D03*
X107456700Y-78404600D03*
X107456700Y-78904600D03*
X107456700Y-79404600D03*
X107456700Y-79904600D03*
X107456700Y-80404600D03*
X107456700Y-80904600D03*
X107456700Y-81404600D03*
X107456700Y-81904600D03*
X107456700Y-82404600D03*
X107456700Y-82904600D03*
X107456700Y-83404600D03*
X107456700Y-83904600D03*
X107456700Y-84404600D03*
X107456700Y-84904600D03*
X107456700Y-85404600D03*
X107456700Y-85904600D03*
X107456700Y-86404600D03*
X107456700Y-86904600D03*
X107456700Y-87404600D03*
D41*
X109369200Y-89317100D03*
X109869200Y-89317100D03*
X110369200Y-89317100D03*
X110869200Y-89317100D03*
X111369200Y-89317100D03*
X111869200Y-89317100D03*
X112369200Y-89317100D03*
X112869200Y-89317100D03*
X113369200Y-89317100D03*
X113869200Y-89317100D03*
X114369200Y-89317100D03*
X114869200Y-89317100D03*
X115369200Y-89317100D03*
X115869200Y-89317100D03*
X116369200Y-89317100D03*
X116869200Y-89317100D03*
X117369200Y-89317100D03*
X117869200Y-89317100D03*
X118369200Y-89317100D03*
X118869200Y-89317100D03*
X119369200Y-89317100D03*
X119869200Y-89317100D03*
X120369200Y-89317100D03*
X120869200Y-89317100D03*
X121369200Y-89317100D03*
X121869200Y-89317100D03*
X122369200Y-89317100D03*
X122869200Y-89317100D03*
X123369200Y-89317100D03*
X123869200Y-89317100D03*
X124369200Y-89317100D03*
X124869200Y-89317100D03*
X125369200Y-89317100D03*
X125869200Y-89317100D03*
X126369200Y-89317100D03*
X126869200Y-89317100D03*
D40*
X128781700Y-87404600D03*
X128781700Y-86904600D03*
X128781700Y-86404600D03*
X128781700Y-85904600D03*
X128781700Y-85404600D03*
X128781700Y-84904600D03*
X128781700Y-84404600D03*
X128781700Y-83904600D03*
X128781700Y-83404600D03*
X128781700Y-82904600D03*
X128781700Y-82404600D03*
X128781700Y-81904600D03*
X128781700Y-81404600D03*
X128781700Y-80904600D03*
X128781700Y-80404600D03*
X128781700Y-79904600D03*
X128781700Y-79404600D03*
X128781700Y-78904600D03*
X128781700Y-78404600D03*
X128781700Y-77904600D03*
X128781700Y-77404600D03*
X128781700Y-76904600D03*
X128781700Y-76404600D03*
X128781700Y-75904600D03*
X128781700Y-75404600D03*
X128781700Y-74904600D03*
X128781700Y-74404600D03*
X128781700Y-73904600D03*
X128781700Y-73404600D03*
X128781700Y-72904600D03*
X128781700Y-72404600D03*
X128781700Y-71904600D03*
X128781700Y-71404600D03*
X128781700Y-70904600D03*
X128781700Y-70404600D03*
X128781700Y-69904600D03*
D41*
X126869200Y-67992100D03*
X126369200Y-67992100D03*
X125869200Y-67992100D03*
X125369200Y-67992100D03*
X124869200Y-67992100D03*
X124369200Y-67992100D03*
X123869200Y-67992100D03*
X123369200Y-67992100D03*
X122869200Y-67992100D03*
X122369200Y-67992100D03*
X121869200Y-67992100D03*
X121369200Y-67992100D03*
X120869200Y-67992100D03*
X120369200Y-67992100D03*
X119869200Y-67992100D03*
X119369200Y-67992100D03*
X118869200Y-67992100D03*
X118369200Y-67992100D03*
X117869200Y-67992100D03*
X117369200Y-67992100D03*
X116869200Y-67992100D03*
X116369200Y-67992100D03*
X115869200Y-67992100D03*
X115369200Y-67992100D03*
X114869200Y-67992100D03*
X114369200Y-67992100D03*
X113869200Y-67992100D03*
X113369200Y-67992100D03*
X112869200Y-67992100D03*
X112369200Y-67992100D03*
X111869200Y-67992100D03*
X111369200Y-67992100D03*
X110869200Y-67992100D03*
X110369200Y-67992100D03*
X109869200Y-67992100D03*
X109369200Y-67992100D03*
D11*
X115782400Y-66080500D03*
X115782400Y-64355500D03*
D42*
X130607900Y-85242400D03*
X132332900Y-85242400D03*
D43*
X144204531Y-58055200D03*
D44*
X141664531Y-58055200D03*
D45*
X145412700Y-122844600D03*
X145412700Y-120944600D03*
X143537700Y-121894600D03*
D25*
X121614100Y-95469400D03*
X119889100Y-95469400D03*
D43*
X139319000Y-74904600D03*
D44*
X139319000Y-77444600D03*
X139319000Y-79984600D03*
X139319000Y-82524600D03*
X139319000Y-85064600D03*
X139319000Y-87604600D03*
D31*
X94081600Y-100092000D03*
X94081600Y-102092000D03*
D32*
X96155200Y-113853200D03*
X96155200Y-114503200D03*
X96155200Y-115153200D03*
X98815200Y-115153200D03*
X98815200Y-113853200D03*
D31*
X147066000Y-60264800D03*
X147066000Y-62264800D03*
D28*
X159512000Y-127254000D03*
D42*
X119787500Y-58013600D03*
X121512500Y-58013600D03*
D29*
X119176800Y-109674956D03*
X119176800Y-111399956D03*
X120700800Y-109678300D03*
X120700800Y-111403300D03*
D37*
X88279200Y-97142600D03*
D38*
X88279200Y-100642600D03*
X88279200Y-104142600D03*
X88279200Y-107642600D03*
X88279200Y-111142600D03*
X88279200Y-114642600D03*
D10*
X102454200Y-107391200D03*
D46*
X143383000Y-74836000D03*
X143383000Y-69436000D03*
D29*
X105054400Y-86310300D03*
X105054400Y-88035300D03*
D11*
X105622400Y-76910100D03*
X105622400Y-75185100D03*
D10*
X120370600Y-104394000D03*
D25*
X105612100Y-81330800D03*
X103887100Y-81330800D03*
D11*
X105054400Y-84631700D03*
X105054400Y-82906700D03*
D47*
X134166531Y-68658200D03*
X135436531Y-68658200D03*
X136706531Y-68658200D03*
X137976531Y-68658200D03*
X137976531Y-63708200D03*
X136706531Y-63708200D03*
X135436531Y-63708200D03*
X134166531Y-63708200D03*
D48*
X122742400Y-47107200D03*
X123842400Y-47107200D03*
X124942400Y-47107200D03*
X126042400Y-47107200D03*
X127142400Y-47107200D03*
X128242400Y-47107200D03*
X129342400Y-47107200D03*
X130442400Y-47107200D03*
D49*
X132817400Y-44507200D03*
X119067400Y-44507200D03*
X119067400Y-52807200D03*
X132817400Y-52807200D03*
D25*
X121614100Y-97231200D03*
X119889100Y-97231200D03*
D11*
X105622400Y-72379700D03*
X105622400Y-70654700D03*
D50*
X94081600Y-117205000D03*
X94081600Y-115205000D03*
X112378800Y-65938600D03*
X112378800Y-63938600D03*
D29*
X103530400Y-86310300D03*
X103530400Y-88035300D03*
X107823000Y-89815500D03*
X107823000Y-91540500D03*
D51*
X152594869Y-78185200D03*
X152594869Y-53185200D03*
D52*
X151174869Y-71225200D03*
D53*
X151174869Y-68455200D03*
X151174869Y-65685200D03*
X151174869Y-62915200D03*
X151174869Y-60145200D03*
X154014869Y-69840200D03*
X154014869Y-67070200D03*
X154014869Y-64300200D03*
X154014869Y-61530200D03*
D11*
X103530400Y-84631700D03*
X103530400Y-82906700D03*
D54*
X103681400Y-79862200D03*
X105531400Y-79862200D03*
X105531400Y-78412200D03*
X103681400Y-78412200D03*
D55*
X146165531Y-64221200D03*
X144265531Y-64221200D03*
X145215531Y-66621200D03*
D29*
X102057200Y-78528700D03*
X102057200Y-80253700D03*
D36*
X130143408Y-116128800D03*
X132143408Y-116128800D03*
D56*
X123322400Y-59616200D03*
X123722400Y-59616200D03*
X124122400Y-59616200D03*
X124522400Y-59616200D03*
X124922400Y-59616200D03*
X125322400Y-59616200D03*
X125722400Y-59616200D03*
X126122400Y-59616200D03*
X126122400Y-58465200D03*
X125722400Y-58465200D03*
X125322400Y-58465200D03*
X124922400Y-58465200D03*
X124522400Y-58465200D03*
X124122400Y-58465200D03*
X123722400Y-58465200D03*
X123322400Y-58465200D03*
D57*
X124722400Y-59041200D03*
D50*
X94081600Y-113420400D03*
X94081600Y-111420400D03*
D42*
X126391500Y-66167000D03*
X128116500Y-66167000D03*
D29*
X122231200Y-109682100D03*
X122231200Y-111407100D03*
D28*
X83820000Y-127254000D03*
D31*
X138382931Y-59417400D03*
X138382931Y-61417400D03*
M02*
