%FSLAX45Y45*%
G04 Gerber Fmt 4.5, Leading zero omitted, Abs format (unit mm)*
G04 Created by KiCad (PCBNEW (6.0.5)) date 2023-02-25 22:18:25*
%MOMM*%
%LPD*%
G01*
G04 APERTURE LIST*
%TA.AperFunction,Profile*%
%ADD10C,0.100000*%
%TD*%
%ADD11C,0.200000*%
G04 APERTURE END LIST*
D10*
X8153052Y-12728606D02*
G75*
G03*
X8382000Y-12954000I225418J-4D01*
G01*
X16179802Y-4492981D02*
G75*
G03*
X15955521Y-4269741I-220992J2261D01*
G01*
X8382000Y-4269388D02*
G75*
G03*
X8153047Y-4498340I0J-228953D01*
G01*
X8153047Y-4498340D02*
X8153047Y-12728606D01*
X15955069Y-12954005D02*
G75*
G03*
X16179804Y-12727940I1211J223535D01*
G01*
X8382000Y-12954000D02*
X15955069Y-12954000D01*
X15955521Y-4269741D02*
X8382000Y-4269388D01*
X16179804Y-12727940D02*
X16179800Y-4492981D01*
D11*
X8405667Y-13269504D02*
X8405667Y-13069504D01*
X8453286Y-13069504D01*
X8481857Y-13079028D01*
X8500905Y-13098075D01*
X8510428Y-13117123D01*
X8519952Y-13155218D01*
X8519952Y-13183789D01*
X8510428Y-13221885D01*
X8500905Y-13240932D01*
X8481857Y-13259980D01*
X8453286Y-13269504D01*
X8405667Y-13269504D01*
X8605667Y-13269504D02*
X8605667Y-13136170D01*
X8605667Y-13174266D02*
X8615190Y-13155218D01*
X8624714Y-13145694D01*
X8643762Y-13136170D01*
X8662809Y-13136170D01*
X8729476Y-13269504D02*
X8729476Y-13136170D01*
X8729476Y-13069504D02*
X8719952Y-13079028D01*
X8729476Y-13088551D01*
X8739000Y-13079028D01*
X8729476Y-13069504D01*
X8729476Y-13088551D01*
X8853286Y-13269504D02*
X8834238Y-13259980D01*
X8824714Y-13240932D01*
X8824714Y-13069504D01*
X8958048Y-13269504D02*
X8939000Y-13259980D01*
X8929476Y-13240932D01*
X8929476Y-13069504D01*
X9186619Y-13269504D02*
X9186619Y-13069504D01*
X9253286Y-13212361D01*
X9319952Y-13069504D01*
X9319952Y-13269504D01*
X9500905Y-13269504D02*
X9500905Y-13164742D01*
X9491381Y-13145694D01*
X9472333Y-13136170D01*
X9434238Y-13136170D01*
X9415190Y-13145694D01*
X9500905Y-13259980D02*
X9481857Y-13269504D01*
X9434238Y-13269504D01*
X9415190Y-13259980D01*
X9405667Y-13240932D01*
X9405667Y-13221885D01*
X9415190Y-13202837D01*
X9434238Y-13193313D01*
X9481857Y-13193313D01*
X9500905Y-13183789D01*
X9596143Y-13136170D02*
X9596143Y-13336170D01*
X9596143Y-13145694D02*
X9615190Y-13136170D01*
X9653286Y-13136170D01*
X9672333Y-13145694D01*
X9681857Y-13155218D01*
X9691381Y-13174266D01*
X9691381Y-13231408D01*
X9681857Y-13250456D01*
X9672333Y-13259980D01*
X9653286Y-13269504D01*
X9615190Y-13269504D01*
X9596143Y-13259980D01*
X9777095Y-13250456D02*
X9786619Y-13259980D01*
X9777095Y-13269504D01*
X9767571Y-13259980D01*
X9777095Y-13250456D01*
X9777095Y-13269504D01*
X9777095Y-13145694D02*
X9786619Y-13155218D01*
X9777095Y-13164742D01*
X9767571Y-13155218D01*
X9777095Y-13145694D01*
X9777095Y-13164742D01*
M02*
